G04 #@! TF.GenerationSoftware,KiCad,Pcbnew,8.0.0*
G04 #@! TF.CreationDate,2024-05-10T10:59:33-04:00*
G04 #@! TF.ProjectId,MainPCBV2,4d61696e-5043-4425-9632-2e6b69636164,rev?*
G04 #@! TF.SameCoordinates,PX7270e00PY7bfa480*
G04 #@! TF.FileFunction,Copper,L2,Bot*
G04 #@! TF.FilePolarity,Positive*
%FSLAX45Y45*%
G04 Gerber Fmt 4.5, Leading zero omitted, Abs format (unit mm)*
G04 Created by KiCad (PCBNEW 8.0.0) date 2024-05-10 10:59:33*
%MOMM*%
%LPD*%
G01*
G04 APERTURE LIST*
G04 Aperture macros list*
%AMRoundRect*
0 Rectangle with rounded corners*
0 $1 Rounding radius*
0 $2 $3 $4 $5 $6 $7 $8 $9 X,Y pos of 4 corners*
0 Add a 4 corners polygon primitive as box body*
4,1,4,$2,$3,$4,$5,$6,$7,$8,$9,$2,$3,0*
0 Add four circle primitives for the rounded corners*
1,1,$1+$1,$2,$3*
1,1,$1+$1,$4,$5*
1,1,$1+$1,$6,$7*
1,1,$1+$1,$8,$9*
0 Add four rect primitives between the rounded corners*
20,1,$1+$1,$2,$3,$4,$5,0*
20,1,$1+$1,$4,$5,$6,$7,0*
20,1,$1+$1,$6,$7,$8,$9,0*
20,1,$1+$1,$8,$9,$2,$3,0*%
%AMHorizOval*
0 Thick line with rounded ends*
0 $1 width*
0 $2 $3 position (X,Y) of the first rounded end (center of the circle)*
0 $4 $5 position (X,Y) of the second rounded end (center of the circle)*
0 Add line between two ends*
20,1,$1,$2,$3,$4,$5,0*
0 Add two circle primitives to create the rounded ends*
1,1,$1,$2,$3*
1,1,$1,$4,$5*%
%AMRotRect*
0 Rectangle, with rotation*
0 The origin of the aperture is its center*
0 $1 length*
0 $2 width*
0 $3 Rotation angle, in degrees counterclockwise*
0 Add horizontal line*
21,1,$1,$2,0,0,$3*%
G04 Aperture macros list end*
G04 #@! TA.AperFunction,ComponentPad*
%ADD10RoundRect,0.250000X0.845000X-0.620000X0.845000X0.620000X-0.845000X0.620000X-0.845000X-0.620000X0*%
G04 #@! TD*
G04 #@! TA.AperFunction,ComponentPad*
%ADD11O,2.190000X1.740000*%
G04 #@! TD*
G04 #@! TA.AperFunction,ComponentPad*
%ADD12RoundRect,0.250000X0.159099X-1.035911X1.035911X-0.159099X-0.159099X1.035911X-1.035911X0.159099X0*%
G04 #@! TD*
G04 #@! TA.AperFunction,ComponentPad*
%ADD13HorizOval,1.740000X-0.159099X0.159099X0.159099X-0.159099X0*%
G04 #@! TD*
G04 #@! TA.AperFunction,ComponentPad*
%ADD14RotRect,1.500000X3.000000X45.000000*%
G04 #@! TD*
G04 #@! TA.AperFunction,ComponentPad*
%ADD15HorizOval,1.500000X-0.530330X0.530330X0.530330X-0.530330X0*%
G04 #@! TD*
G04 #@! TA.AperFunction,ComponentPad*
%ADD16C,1.600000*%
G04 #@! TD*
G04 #@! TA.AperFunction,ComponentPad*
%ADD17RoundRect,0.250000X-1.035911X-0.159099X-0.159099X-1.035911X1.035911X0.159099X0.159099X1.035911X0*%
G04 #@! TD*
G04 #@! TA.AperFunction,ComponentPad*
%ADD18HorizOval,1.740000X-0.159099X-0.159099X0.159099X0.159099X0*%
G04 #@! TD*
G04 #@! TA.AperFunction,ComponentPad*
%ADD19RoundRect,0.250000X-0.620000X-0.845000X0.620000X-0.845000X0.620000X0.845000X-0.620000X0.845000X0*%
G04 #@! TD*
G04 #@! TA.AperFunction,ComponentPad*
%ADD20O,1.740000X2.190000*%
G04 #@! TD*
G04 #@! TA.AperFunction,ComponentPad*
%ADD21R,2.200000X2.200000*%
G04 #@! TD*
G04 #@! TA.AperFunction,ComponentPad*
%ADD22C,2.200000*%
G04 #@! TD*
G04 #@! TA.AperFunction,ViaPad*
%ADD23C,1.500000*%
G04 #@! TD*
G04 #@! TA.AperFunction,Conductor*
%ADD24C,0.500000*%
G04 #@! TD*
G04 #@! TA.AperFunction,Conductor*
%ADD25C,1.000000*%
G04 #@! TD*
G04 #@! TA.AperFunction,Profile*
%ADD26C,0.100000*%
G04 #@! TD*
G04 APERTURE END LIST*
D10*
X6500000Y2678000D03*
D11*
X6500000Y2932000D03*
X6500000Y3186000D03*
X6500000Y3440000D03*
D12*
X1710790Y5900790D03*
D13*
X1890395Y6080395D03*
X2070000Y6260000D03*
X2249605Y6439605D03*
D14*
X1637624Y681544D03*
D15*
X1757832Y801752D03*
X1878040Y921960D03*
X1998248Y1042168D03*
X2118456Y1162376D03*
D16*
X2483744Y5393744D03*
X2236256Y5146256D03*
D17*
X6420395Y4879605D03*
D18*
X6600000Y4700000D03*
D19*
X3202000Y400000D03*
D20*
X3456000Y400000D03*
X3710000Y400000D03*
D21*
X4173000Y400000D03*
D22*
X4427000Y400000D03*
D17*
X4720395Y6579605D03*
D18*
X4900000Y6400000D03*
D12*
X5481185Y1041185D03*
D13*
X5660790Y1220790D03*
X5840395Y1400395D03*
X6020000Y1580000D03*
X6199605Y1759605D03*
X6379210Y1939210D03*
X6558815Y2118815D03*
D16*
X5450000Y2750000D03*
X5800000Y2750000D03*
X1152513Y5152513D03*
X1400000Y5400000D03*
D14*
X2415779Y1403389D03*
D15*
X2535987Y1523597D03*
X2656195Y1643805D03*
X2776403Y1764013D03*
X2896611Y1884221D03*
D10*
X375000Y4021000D03*
D11*
X375000Y4275000D03*
X375000Y4529000D03*
X375000Y4783000D03*
D23*
X5470000Y1840000D03*
X400000Y3520000D03*
X3600000Y2270000D03*
X3360000Y3870000D03*
X880000Y4510000D03*
X3350000Y3590000D03*
X5950000Y5010000D03*
X5210000Y920000D03*
X3180000Y4920000D03*
X3670000Y3160000D03*
X4260000Y2700000D03*
X5020000Y6020000D03*
X4550000Y5770000D03*
X3360000Y4120000D03*
X6660000Y4350000D03*
X4280000Y5900000D03*
X2550000Y1120000D03*
X2140000Y4730000D03*
X6620000Y4000000D03*
X4960000Y3600000D03*
X4290000Y3050000D03*
X4240000Y3370000D03*
D24*
X190000Y3140000D02*
X1268155Y2061845D01*
X529500Y3929312D02*
X489188Y3889000D01*
X2209210Y6480000D02*
X1898995Y6480000D01*
X1268155Y1602555D02*
X2815711Y55000D01*
X1898995Y6480000D02*
X1400000Y5981005D01*
X929706Y4390000D02*
X890000Y4390000D01*
X1000000Y4500000D02*
X1000000Y4460294D01*
X190000Y3690000D02*
X190000Y3140000D01*
D25*
X1400000Y5400000D02*
X1653744Y5146256D01*
D24*
X489188Y3889000D02*
X389000Y3889000D01*
X890000Y4390000D02*
X529500Y4029500D01*
X6669706Y4120000D02*
X6570294Y4120000D01*
X2249605Y6439605D02*
X2209210Y6480000D01*
X4427000Y244437D02*
X4427000Y400000D01*
X5470000Y1770790D02*
X5470000Y1840000D01*
X1027513Y5204289D02*
X1027513Y4527513D01*
X1268155Y2061845D02*
X1268155Y1602555D01*
X1000000Y4460294D02*
X929706Y4390000D01*
X6290000Y3240000D02*
X5800000Y2750000D01*
D25*
X1653744Y5146256D02*
X2236256Y5146256D01*
D24*
X6570294Y4120000D02*
X6290000Y3839706D01*
X6290000Y3839706D02*
X6290000Y3240000D01*
X2815711Y55000D02*
X4237563Y55000D01*
X1027513Y4527513D02*
X1000000Y4500000D01*
X529500Y4029500D02*
X529500Y3929312D01*
X4427000Y400000D02*
X5256486Y400000D01*
X389000Y3889000D02*
X190000Y3690000D01*
X1400000Y5400000D02*
X1223223Y5400000D01*
X6820000Y1963514D02*
X6820000Y3969706D01*
X5840395Y1400395D02*
X5470000Y1770790D01*
X4237563Y55000D02*
X4427000Y244437D01*
X6820000Y3969706D02*
X6669706Y4120000D01*
X1400000Y5981005D02*
X1400000Y5400000D01*
X5256486Y400000D02*
X6820000Y1963514D01*
X1223223Y5400000D02*
X1027513Y5204289D01*
D25*
X1890000Y1640000D02*
X1890000Y1390833D01*
X2720833Y2060000D02*
X2310000Y2060000D01*
X1890000Y1390833D02*
X2118456Y1162376D01*
X1152513Y5152513D02*
X1152513Y3628320D01*
X2310000Y2060000D02*
X1890000Y1640000D01*
X2912390Y1900000D02*
X2896611Y1884221D01*
X2880833Y400000D02*
X2118456Y1162376D01*
X2896611Y1884221D02*
X2720833Y2060000D01*
X1152513Y5152513D02*
X1152513Y4272513D01*
X1152513Y3628320D02*
X2896611Y1884221D01*
X1152513Y4272513D02*
X400000Y3520000D01*
X3202000Y400000D02*
X2880833Y400000D01*
X1720000Y5590000D02*
X1940000Y5370000D01*
X3600000Y2270000D02*
X2800000Y2270000D01*
X2570000Y5060000D02*
X2415000Y4905000D01*
X1710790Y5900790D02*
X2021580Y5590000D01*
X1710790Y4288277D02*
X1710790Y4780000D01*
X1710790Y5590000D02*
X1710790Y5900790D01*
X1710790Y5590000D02*
X1720000Y5590000D01*
X1835790Y4905000D02*
X1710790Y4780000D01*
X1272513Y3850000D02*
X1710790Y4288277D01*
X1940000Y5370000D02*
X2260000Y5370000D01*
X2260000Y5370000D02*
X2570000Y5060000D01*
X1272513Y3797487D02*
X1272513Y3850000D01*
X2800000Y2270000D02*
X1272513Y3797487D01*
X2483744Y5506256D02*
X2483744Y5393744D01*
X2021580Y5590000D02*
X2400000Y5590000D01*
X2415000Y4905000D02*
X1835790Y4905000D01*
X2400000Y5590000D02*
X2483744Y5506256D01*
D24*
X3480000Y3990000D02*
X3360000Y3870000D01*
X375000Y4275000D02*
X419824Y4275000D01*
X419824Y4275000D02*
X150500Y4544324D01*
X2678744Y6296138D02*
X2678744Y5240251D01*
X1878520Y6657515D02*
X2317367Y6657515D01*
X2317367Y6657515D02*
X2678744Y6296138D01*
X150500Y4929495D02*
X1878520Y6657515D01*
X2678744Y5240251D02*
X3480000Y4438995D01*
X150500Y4544324D02*
X150500Y4929495D01*
X3480000Y4438995D02*
X3480000Y3990000D01*
X607000Y4783000D02*
X880000Y4510000D01*
X375000Y4783000D02*
X607000Y4783000D01*
X3350000Y3098995D02*
X3350000Y3590000D01*
X1849525Y6727515D02*
X2346362Y6727515D01*
X5547491Y790000D02*
X5170000Y790000D01*
X3850000Y5223877D02*
X3850000Y3320294D01*
X2346362Y6727515D02*
X3850000Y5223877D01*
X4920000Y1040000D02*
X4920000Y1528995D01*
X6750000Y1992509D02*
X5547491Y790000D01*
X4920000Y1528995D02*
X3350000Y3098995D01*
X6305000Y2265000D02*
X6370000Y2330000D01*
X5170000Y790000D02*
X4920000Y1040000D01*
X3850000Y3320294D02*
X4905294Y2265000D01*
X375000Y4021000D02*
X80500Y4315500D01*
X6370000Y2330000D02*
X6610000Y2330000D01*
X6750000Y2190000D02*
X6750000Y1992509D01*
X4905294Y2265000D02*
X6305000Y2265000D01*
X80500Y4958490D02*
X1849525Y6727515D01*
X80500Y4315500D02*
X80500Y4958490D01*
X6610000Y2330000D02*
X6750000Y2190000D01*
D25*
X6040000Y4030000D02*
X6040000Y3630000D01*
X5179605Y6579605D02*
X4720395Y6579605D01*
X6420395Y4879605D02*
X6360000Y4940000D01*
X6350000Y4340000D02*
X6040000Y4030000D01*
X6040000Y3630000D02*
X5450000Y3040000D01*
X6290000Y5010000D02*
X6420395Y4879605D01*
X5950000Y5010000D02*
X6290000Y5010000D01*
X5450000Y3040000D02*
X5450000Y2750000D01*
X6350000Y4610000D02*
X6350000Y4340000D01*
X6360000Y5427868D02*
X5193934Y6593934D01*
X6360000Y4940000D02*
X6360000Y5427868D01*
X5950000Y5010000D02*
X6350000Y4610000D01*
X5193934Y6593934D02*
X5179605Y6579605D01*
D24*
X6020000Y1580000D02*
X6020000Y1361504D01*
X6020000Y1361504D02*
X5518496Y860000D01*
X6020000Y1580000D02*
X5990000Y1580000D01*
X5270000Y860000D02*
X5210000Y920000D01*
X5518496Y860000D02*
X5270000Y860000D01*
X3440000Y3510294D02*
X3440000Y3107990D01*
X3480000Y3891005D02*
X3480000Y3550294D01*
X3440000Y4577990D02*
X3550000Y4467990D01*
X3550000Y3961005D02*
X3480000Y3891005D01*
X3180000Y4920000D02*
X3440000Y4660000D01*
X3440000Y3107990D02*
X5327200Y1220790D01*
X3440000Y4660000D02*
X3440000Y4577990D01*
X3480000Y3550294D02*
X3440000Y3510294D01*
X5327200Y1220790D02*
X5660790Y1220790D01*
X3550000Y4467990D02*
X3550000Y3961005D01*
X5981109Y1759605D02*
X6199605Y1759605D01*
X3670000Y3160000D02*
X3670000Y2976985D01*
X5901504Y1680000D02*
X5981109Y1759605D01*
X5799706Y1680000D02*
X5901504Y1680000D01*
X5519706Y1960000D02*
X5799706Y1680000D01*
X4686985Y1960000D02*
X5519706Y1960000D01*
X3670000Y2976985D02*
X4686985Y1960000D01*
X4260000Y2640000D02*
X4870000Y2030000D01*
X4260000Y2700000D02*
X4260000Y2640000D01*
X6288420Y2030000D02*
X6379210Y1939210D01*
X4870000Y2030000D02*
X6288420Y2030000D01*
X4820000Y5820000D02*
X5020000Y6020000D01*
X4600000Y5820000D02*
X4820000Y5820000D01*
X4550000Y5770000D02*
X4600000Y5820000D01*
X375000Y4529000D02*
X220500Y4683500D01*
X2608744Y6267143D02*
X2608744Y5211256D01*
X2608744Y5211256D02*
X3360000Y4460000D01*
X1907515Y6587515D02*
X2288372Y6587515D01*
X3360000Y4460000D02*
X3360000Y4120000D01*
X220500Y4683500D02*
X220500Y4900500D01*
X220500Y4900500D02*
X1907515Y6587515D01*
X2288372Y6587515D02*
X2608744Y6267143D01*
X6660000Y4640000D02*
X6600000Y4700000D01*
X6660000Y4350000D02*
X6660000Y4640000D01*
X4400000Y5900000D02*
X4900000Y6400000D01*
X4280000Y5900000D02*
X4400000Y5900000D01*
X2060000Y4810000D02*
X2140000Y4730000D01*
X4010000Y2100000D02*
X4010000Y2340000D01*
X1830000Y3540000D02*
X1830000Y4760000D01*
X1880000Y4810000D02*
X2060000Y4810000D01*
X3900000Y2450000D02*
X2920000Y2450000D01*
X4010000Y2340000D02*
X3900000Y2450000D01*
X2550000Y1120000D02*
X3440000Y2010000D01*
X2920000Y2450000D02*
X1830000Y3540000D01*
X4000000Y2100000D02*
X4010000Y2100000D01*
X1830000Y4760000D02*
X1880000Y4810000D01*
X3910000Y2010000D02*
X4000000Y2100000D01*
X3440000Y2010000D02*
X3910000Y2010000D01*
X6620000Y4000000D02*
X6500000Y3880000D01*
X6500000Y3880000D02*
X6500000Y3400000D01*
X4960000Y2913223D02*
X4960000Y3600000D01*
X5398223Y2475000D02*
X4960000Y2913223D01*
X6500000Y3146000D02*
X5829000Y2475000D01*
X5829000Y2475000D02*
X5398223Y2475000D01*
X6500000Y2638000D02*
X6197000Y2335000D01*
X6197000Y2335000D02*
X5005000Y2335000D01*
X5005000Y2335000D02*
X4290000Y3050000D01*
X5865000Y2405000D02*
X6352000Y2892000D01*
X4870000Y3210000D02*
X4870000Y2904228D01*
X4710000Y3370000D02*
X4870000Y3210000D01*
X6352000Y2892000D02*
X6500000Y2892000D01*
X4240000Y3370000D02*
X4710000Y3370000D01*
X4870000Y2904228D02*
X5369228Y2405000D01*
X5369228Y2405000D02*
X5865000Y2405000D01*
D25*
X3706000Y150000D02*
X3456000Y400000D01*
X3923000Y150000D02*
X3706000Y150000D01*
X4173000Y400000D02*
X3923000Y150000D01*
G04 #@! TA.AperFunction,NonConductor*
G36*
X2410164Y6277212D02*
G01*
X2423530Y6272408D01*
X2435001Y6264033D01*
X2435426Y6263613D01*
X2469078Y6229961D01*
X2477590Y6218591D01*
X2482553Y6205283D01*
X2483694Y6194676D01*
X2483694Y5787090D01*
X2481672Y5773032D01*
X2475772Y5760112D01*
X2466471Y5749378D01*
X2454523Y5741699D01*
X2440895Y5737698D01*
X2426692Y5737698D01*
X2425988Y5737804D01*
X2411809Y5740050D01*
X2411809Y5740050D01*
X2104402Y5740050D01*
X2090343Y5742071D01*
X2077424Y5747971D01*
X2069117Y5754665D01*
X1996020Y5827763D01*
X1987508Y5839133D01*
X1982545Y5852440D01*
X1981531Y5866607D01*
X1984550Y5880486D01*
X1991357Y5892951D01*
X2001400Y5902994D01*
X2006354Y5906262D01*
X2010447Y5908625D01*
X2029900Y5923552D01*
X2047238Y5940890D01*
X2062165Y5960343D01*
X2074425Y5981577D01*
X2083808Y6004231D01*
X2089529Y6025582D01*
X2095120Y6038637D01*
X2104163Y6049590D01*
X2115925Y6057551D01*
X2124812Y6060866D01*
X2146164Y6066587D01*
X2168818Y6075970D01*
X2190052Y6088230D01*
X2209505Y6103157D01*
X2226843Y6120495D01*
X2241770Y6139948D01*
X2254030Y6161182D01*
X2263413Y6183836D01*
X2269134Y6205187D01*
X2274725Y6218243D01*
X2283768Y6229195D01*
X2295530Y6237156D01*
X2304418Y6240471D01*
X2325769Y6246192D01*
X2348423Y6255575D01*
X2369658Y6267835D01*
X2369762Y6267916D01*
X2369860Y6267970D01*
X2371015Y6268742D01*
X2371074Y6268653D01*
X2382145Y6274871D01*
X2395986Y6278055D01*
X2410164Y6277212D01*
G37*
G04 #@! TD.AperFunction*
G04 #@! TA.AperFunction,NonConductor*
G36*
X1242488Y5704387D02*
G01*
X1254954Y5697580D01*
X1264997Y5687537D01*
X1271804Y5675072D01*
X1274823Y5661193D01*
X1274950Y5657633D01*
X1274950Y5574950D01*
X1272929Y5560892D01*
X1267029Y5547972D01*
X1257728Y5537238D01*
X1245779Y5529559D01*
X1232152Y5525558D01*
X1225050Y5525050D01*
X1213382Y5525050D01*
X1193941Y5521971D01*
X1193941Y5521971D01*
X1193941Y5521971D01*
X1188029Y5520050D01*
X1188029Y5520050D01*
X1175222Y5515889D01*
X1175220Y5515888D01*
X1157684Y5506953D01*
X1157683Y5506953D01*
X1141759Y5495383D01*
X1141759Y5495383D01*
X932130Y5285754D01*
X932130Y5285754D01*
X922050Y5271880D01*
X920560Y5269830D01*
X920560Y5269829D01*
X911624Y5252292D01*
X911624Y5252292D01*
X909511Y5245789D01*
X907805Y5240539D01*
X907805Y5240539D01*
X905542Y5233572D01*
X905542Y5233572D01*
X902463Y5214131D01*
X902463Y4784854D01*
X900441Y4770796D01*
X894541Y4757876D01*
X885240Y4747142D01*
X873292Y4739463D01*
X859664Y4735462D01*
X845461Y4735462D01*
X831833Y4739463D01*
X819885Y4747142D01*
X817278Y4749569D01*
X688465Y4878383D01*
X688465Y4878383D01*
X672541Y4889952D01*
X672540Y4889953D01*
X672540Y4889953D01*
X655003Y4898888D01*
X655003Y4898888D01*
X655003Y4898888D01*
X655002Y4898889D01*
X655001Y4898889D01*
X636283Y4904971D01*
X636283Y4904971D01*
X616842Y4908050D01*
X616842Y4908050D01*
X557648Y4908050D01*
X543589Y4910071D01*
X530670Y4915971D01*
X522363Y4922665D01*
X521095Y4923933D01*
X509476Y4932849D01*
X499553Y4943011D01*
X492895Y4955557D01*
X490042Y4969470D01*
X491224Y4983624D01*
X496345Y4996872D01*
X504569Y5007721D01*
X1189766Y5692918D01*
X1201136Y5701430D01*
X1214443Y5706393D01*
X1228610Y5707406D01*
X1242488Y5704387D01*
G37*
G04 #@! TD.AperFunction*
G04 #@! TA.AperFunction,NonConductor*
G36*
X2874423Y6018157D02*
G01*
X2886371Y6010478D01*
X2888978Y6008051D01*
X3710335Y5186695D01*
X3718846Y5175325D01*
X3723810Y5162017D01*
X3724950Y5151410D01*
X3724950Y4590357D01*
X3722929Y4576298D01*
X3717029Y4563379D01*
X3707728Y4552645D01*
X3695779Y4544966D01*
X3682151Y4540965D01*
X3667948Y4540965D01*
X3654321Y4544966D01*
X3642372Y4552645D01*
X3639765Y4555072D01*
X3579665Y4615172D01*
X3571154Y4626542D01*
X3566190Y4639850D01*
X3565050Y4650457D01*
X3565050Y4669842D01*
X3563261Y4681140D01*
X3563261Y4681140D01*
X3561971Y4689283D01*
X3558501Y4699961D01*
X3558501Y4699961D01*
X3557303Y4703650D01*
X3555888Y4708003D01*
X3546952Y4725541D01*
X3535383Y4741465D01*
X3521465Y4755383D01*
X3368527Y4908320D01*
X3360016Y4919690D01*
X3355052Y4932998D01*
X3354051Y4939876D01*
X3353580Y4946163D01*
X3353580Y4946163D01*
X3347742Y4971742D01*
X3342995Y4983837D01*
X3338157Y4996163D01*
X3338157Y4996164D01*
X3338157Y4996164D01*
X3325039Y5018886D01*
X3308680Y5039398D01*
X3308680Y5039398D01*
X3289448Y5057243D01*
X3267771Y5072022D01*
X3267771Y5072023D01*
X3267770Y5072023D01*
X3254884Y5078229D01*
X3244133Y5083406D01*
X3244133Y5083406D01*
X3244132Y5083406D01*
X3244132Y5083406D01*
X3219061Y5091140D01*
X3219061Y5091140D01*
X3219061Y5091140D01*
X3208141Y5092786D01*
X3193118Y5095050D01*
X3166882Y5095050D01*
X3151859Y5092786D01*
X3140939Y5091140D01*
X3140938Y5091140D01*
X3124809Y5086164D01*
X3115867Y5083406D01*
X3115867Y5083406D01*
X3092230Y5072023D01*
X3092229Y5072022D01*
X3085712Y5067580D01*
X3072958Y5061330D01*
X3058960Y5058927D01*
X3044852Y5060565D01*
X3031777Y5066112D01*
X3022318Y5073524D01*
X2818409Y5277433D01*
X2809897Y5288803D01*
X2804934Y5302111D01*
X2803794Y5312718D01*
X2803794Y5972766D01*
X2805815Y5986825D01*
X2811715Y5999744D01*
X2821016Y6010478D01*
X2832964Y6018157D01*
X2846592Y6022158D01*
X2860795Y6022158D01*
X2874423Y6018157D01*
G37*
G04 #@! TD.AperFunction*
G04 #@! TA.AperFunction,NonConductor*
G36*
X647317Y4556797D02*
G01*
X660306Y4551051D01*
X669114Y4544039D01*
X691473Y4521680D01*
X699984Y4510310D01*
X704948Y4497002D01*
X705948Y4490125D01*
X706420Y4483837D01*
X706420Y4483837D01*
X712258Y4458258D01*
X719813Y4439009D01*
X723067Y4425184D01*
X722295Y4411002D01*
X717558Y4397612D01*
X709241Y4386099D01*
X708647Y4385494D01*
X652239Y4329086D01*
X640869Y4320575D01*
X627561Y4315611D01*
X613394Y4314598D01*
X599516Y4317617D01*
X587050Y4324424D01*
X577007Y4334467D01*
X570853Y4345275D01*
X565620Y4357908D01*
X554568Y4377050D01*
X549289Y4390236D01*
X547939Y4404374D01*
X550627Y4418321D01*
X554568Y4426950D01*
X565620Y4446092D01*
X565620Y4446092D01*
X565620Y4446092D01*
X575003Y4468746D01*
X581350Y4492430D01*
X584356Y4515268D01*
X588195Y4528942D01*
X595731Y4540981D01*
X606354Y4550409D01*
X619202Y4556462D01*
X633235Y4558651D01*
X647317Y4556797D01*
G37*
G04 #@! TD.AperFunction*
G04 #@! TA.AperFunction,NonConductor*
G36*
X1392598Y5184126D02*
G01*
X1405888Y5179118D01*
X1417109Y5170688D01*
X1555993Y5031805D01*
X1573774Y5018886D01*
X1575100Y5017922D01*
X1596144Y5007200D01*
X1616550Y5000569D01*
X1629295Y4994303D01*
X1639759Y4984699D01*
X1647094Y4972537D01*
X1650704Y4958800D01*
X1650299Y4944603D01*
X1645910Y4931095D01*
X1637893Y4919371D01*
X1636414Y4917827D01*
X1596338Y4877751D01*
X1591993Y4871770D01*
X1582455Y4858643D01*
X1574614Y4843254D01*
X1571733Y4837600D01*
X1571733Y4837599D01*
X1564434Y4815137D01*
X1560740Y4791809D01*
X1560740Y4371099D01*
X1558718Y4357041D01*
X1552818Y4344121D01*
X1546124Y4335815D01*
X1387747Y4177437D01*
X1376377Y4168926D01*
X1363070Y4163962D01*
X1348903Y4162949D01*
X1335024Y4165968D01*
X1322559Y4172775D01*
X1312516Y4182818D01*
X1305709Y4195284D01*
X1302690Y4209162D01*
X1302563Y4212722D01*
X1302563Y5038936D01*
X1304584Y5052995D01*
X1309248Y5063886D01*
X1311380Y5067580D01*
X1315187Y5074173D01*
X1325046Y5099293D01*
X1331051Y5125602D01*
X1332065Y5139132D01*
X1335131Y5153000D01*
X1341980Y5165442D01*
X1352057Y5175451D01*
X1364546Y5182216D01*
X1378435Y5185188D01*
X1392598Y5184126D01*
G37*
G04 #@! TD.AperFunction*
G04 #@! TA.AperFunction,NonConductor*
G36*
X6580679Y5400659D02*
G01*
X6592628Y5392980D01*
X6595235Y5390553D01*
X6975335Y5010453D01*
X6983846Y4999083D01*
X6988810Y4985775D01*
X6989950Y4975168D01*
X6989950Y4097072D01*
X6987929Y4083014D01*
X6982029Y4070094D01*
X6972728Y4059360D01*
X6960779Y4051682D01*
X6947151Y4047680D01*
X6932948Y4047680D01*
X6919321Y4051682D01*
X6907372Y4059360D01*
X6904765Y4061788D01*
X6796819Y4169734D01*
X6788307Y4181105D01*
X6783344Y4194412D01*
X6782330Y4208579D01*
X6785349Y4222457D01*
X6792156Y4234923D01*
X6793083Y4236123D01*
X6805039Y4251114D01*
X6818157Y4273836D01*
X6818157Y4273837D01*
X6818157Y4273837D01*
X6822367Y4284564D01*
X6827742Y4298258D01*
X6833580Y4323837D01*
X6835541Y4350000D01*
X6833580Y4376163D01*
X6827742Y4401742D01*
X6825637Y4407106D01*
X6818157Y4426163D01*
X6818157Y4426164D01*
X6818157Y4426164D01*
X6805039Y4448886D01*
X6805038Y4448887D01*
X6795936Y4460300D01*
X6788751Y4472551D01*
X6785309Y4486331D01*
X6785050Y4491412D01*
X6785050Y4625540D01*
X6787071Y4639598D01*
X6788848Y4644635D01*
X6793413Y4655656D01*
X6799759Y4679340D01*
X6802960Y4703650D01*
X6802960Y4728170D01*
X6799759Y4752480D01*
X6793413Y4776164D01*
X6784030Y4798818D01*
X6774608Y4815137D01*
X6771770Y4820052D01*
X6756844Y4839505D01*
X6756843Y4839506D01*
X6739506Y4856843D01*
X6739504Y4856844D01*
X6720052Y4871770D01*
X6698817Y4884030D01*
X6674655Y4894038D01*
X6674787Y4894357D01*
X6664932Y4899377D01*
X6654605Y4909128D01*
X6647443Y4921393D01*
X6645576Y4926889D01*
X6645017Y4928918D01*
X6637107Y4949991D01*
X6637107Y4949992D01*
X6625563Y4969314D01*
X6625563Y4969314D01*
X6625562Y4969315D01*
X6616951Y4979398D01*
X6594349Y5001999D01*
X6524665Y5071683D01*
X6516154Y5083053D01*
X6511190Y5096361D01*
X6510050Y5106968D01*
X6510050Y5355268D01*
X6512071Y5369327D01*
X6517971Y5382246D01*
X6527272Y5392980D01*
X6539221Y5400659D01*
X6552848Y5404660D01*
X6567051Y5404660D01*
X6580679Y5400659D01*
G37*
G04 #@! TD.AperFunction*
G04 #@! TA.AperFunction,NonConductor*
G36*
X80679Y4134024D02*
G01*
X92628Y4126345D01*
X95235Y4123918D01*
X150835Y4068318D01*
X159346Y4056948D01*
X164310Y4043640D01*
X165450Y4033033D01*
X165450Y3952579D01*
X165450Y3952577D01*
X166490Y3939359D01*
X166490Y3939359D01*
X171990Y3917532D01*
X179150Y3901770D01*
X183123Y3888134D01*
X183094Y3873931D01*
X179065Y3860311D01*
X171362Y3848379D01*
X169001Y3845849D01*
X95235Y3772082D01*
X83865Y3763570D01*
X70557Y3758607D01*
X56390Y3757594D01*
X42512Y3760613D01*
X30046Y3767420D01*
X20003Y3777463D01*
X13196Y3789928D01*
X10177Y3803807D01*
X10050Y3807367D01*
X10050Y4088633D01*
X12071Y4102692D01*
X17971Y4115611D01*
X27272Y4126345D01*
X39221Y4134024D01*
X52848Y4138025D01*
X67052Y4138025D01*
X80679Y4134024D01*
G37*
G04 #@! TD.AperFunction*
G04 #@! TA.AperFunction,NonConductor*
G36*
X1672488Y3996519D02*
G01*
X1684954Y3989712D01*
X1694997Y3979669D01*
X1701804Y3967204D01*
X1704823Y3953325D01*
X1704950Y3949765D01*
X1704950Y3697722D01*
X1702929Y3683663D01*
X1697029Y3670744D01*
X1687728Y3660010D01*
X1675779Y3652331D01*
X1662151Y3648330D01*
X1647948Y3648330D01*
X1634321Y3652331D01*
X1622372Y3660010D01*
X1619765Y3662437D01*
X1493744Y3788459D01*
X1485232Y3799829D01*
X1480269Y3813137D01*
X1479255Y3827303D01*
X1482274Y3841182D01*
X1489081Y3853648D01*
X1493744Y3859028D01*
X1619765Y3985050D01*
X1631135Y3993562D01*
X1644443Y3998525D01*
X1658610Y3999538D01*
X1672488Y3996519D01*
G37*
G04 #@! TD.AperFunction*
G04 #@! TA.AperFunction,NonConductor*
G36*
X3692488Y3885392D02*
G01*
X3704954Y3878585D01*
X3714997Y3868542D01*
X3721804Y3856077D01*
X3724823Y3842198D01*
X3724950Y3838638D01*
X3724950Y3384950D01*
X3722929Y3370891D01*
X3717029Y3357972D01*
X3707728Y3347238D01*
X3695779Y3339559D01*
X3682151Y3335558D01*
X3675050Y3335050D01*
X3656882Y3335050D01*
X3643418Y3333021D01*
X3630939Y3331140D01*
X3630180Y3330906D01*
X3629657Y3330744D01*
X3615628Y3328532D01*
X3601543Y3330362D01*
X3588545Y3336087D01*
X3577686Y3345241D01*
X3569845Y3357084D01*
X3565659Y3370656D01*
X3565050Y3378428D01*
X3565050Y3438394D01*
X3567071Y3452453D01*
X3572971Y3465372D01*
X3574580Y3467725D01*
X3575383Y3468830D01*
X3575383Y3468830D01*
X3583462Y3479950D01*
X3586952Y3484754D01*
X3595888Y3502292D01*
X3597497Y3507243D01*
X3601971Y3521011D01*
X3601970Y3521011D01*
X3601971Y3521012D01*
X3602063Y3521595D01*
X3602131Y3522025D01*
X3605050Y3540452D01*
X3605050Y3818538D01*
X3607071Y3832597D01*
X3612971Y3845516D01*
X3619665Y3853823D01*
X3639765Y3873923D01*
X3651135Y3882435D01*
X3664443Y3887398D01*
X3678610Y3888411D01*
X3692488Y3885392D01*
G37*
G04 #@! TD.AperFunction*
G04 #@! TA.AperFunction,NonConductor*
G36*
X6132488Y3469032D02*
G01*
X6144954Y3462225D01*
X6154997Y3452182D01*
X6161804Y3439716D01*
X6164823Y3425838D01*
X6164950Y3422278D01*
X6164950Y3312467D01*
X6162929Y3298408D01*
X6157029Y3285489D01*
X6150335Y3277182D01*
X5817647Y2944495D01*
X5806277Y2935983D01*
X5792970Y2931020D01*
X5788350Y2930347D01*
X5788353Y2930328D01*
X5786507Y2930050D01*
X5786507Y2930050D01*
X5774165Y2928190D01*
X5759823Y2926028D01*
X5749250Y2922767D01*
X5734036Y2918074D01*
X5734035Y2918074D01*
X5734035Y2918073D01*
X5709723Y2906365D01*
X5709722Y2906365D01*
X5687426Y2891163D01*
X5683890Y2887883D01*
X5672210Y2879803D01*
X5658726Y2875340D01*
X5644531Y2874858D01*
X5630775Y2878394D01*
X5618573Y2885662D01*
X5608913Y2896073D01*
X5602577Y2908785D01*
X5600079Y2922767D01*
X5600050Y2924463D01*
X5600050Y2957178D01*
X5602071Y2971237D01*
X5607971Y2984156D01*
X5614665Y2992463D01*
X6079765Y3457563D01*
X6091135Y3466074D01*
X6104443Y3471038D01*
X6118610Y3472051D01*
X6132488Y3469032D01*
G37*
G04 #@! TD.AperFunction*
G04 #@! TA.AperFunction,NonConductor*
G36*
X4651592Y3242929D02*
G01*
X4664511Y3237029D01*
X4672818Y3230335D01*
X4730335Y3172818D01*
X4738846Y3161448D01*
X4743810Y3148140D01*
X4744950Y3137533D01*
X4744950Y2892426D01*
X4744557Y2892426D01*
X4743878Y2882051D01*
X4738996Y2868714D01*
X4730554Y2857292D01*
X4719236Y2848712D01*
X4705959Y2843667D01*
X4691798Y2842568D01*
X4677902Y2845503D01*
X4665395Y2852233D01*
X4659770Y2857077D01*
X4478527Y3038320D01*
X4470016Y3049690D01*
X4465052Y3062998D01*
X4464051Y3069876D01*
X4463890Y3072025D01*
X4463580Y3076163D01*
X4457742Y3101742D01*
X4455637Y3107106D01*
X4448157Y3126163D01*
X4448157Y3126164D01*
X4448157Y3126164D01*
X4435039Y3148886D01*
X4423035Y3163938D01*
X4415850Y3176189D01*
X4412408Y3189969D01*
X4412987Y3204160D01*
X4417541Y3217613D01*
X4425700Y3229238D01*
X4436805Y3238094D01*
X4449954Y3243462D01*
X4462048Y3244950D01*
X4637533Y3244950D01*
X4651592Y3242929D01*
G37*
G04 #@! TD.AperFunction*
G04 #@! TA.AperFunction,NonConductor*
G36*
X4989227Y6987929D02*
G01*
X5002146Y6982029D01*
X5010453Y6975335D01*
X5166656Y6819131D01*
X5175168Y6807761D01*
X5180131Y6794453D01*
X5181145Y6780286D01*
X5178126Y6766408D01*
X5171319Y6753942D01*
X5161276Y6743899D01*
X5148810Y6737092D01*
X5146792Y6736389D01*
X5143216Y6735227D01*
X5143216Y6735226D01*
X5136335Y6732991D01*
X5136335Y6732991D01*
X5134470Y6732385D01*
X5134378Y6732669D01*
X5123691Y6729941D01*
X5118356Y6729655D01*
X4887363Y6729655D01*
X4873304Y6731676D01*
X4860385Y6737576D01*
X4852078Y6744270D01*
X4820188Y6776160D01*
X4820187Y6776162D01*
X4810104Y6784773D01*
X4803595Y6788662D01*
X4790781Y6796318D01*
X4783757Y6798954D01*
X4769708Y6804227D01*
X4769707Y6804227D01*
X4747560Y6808246D01*
X4725050Y6808246D01*
X4722375Y6807761D01*
X4702902Y6804227D01*
X4702902Y6804227D01*
X4681828Y6796318D01*
X4681828Y6796318D01*
X4662506Y6784773D01*
X4662505Y6784772D01*
X4652423Y6776161D01*
X4652421Y6776160D01*
X4523841Y6647580D01*
X4523838Y6647577D01*
X4515227Y6637495D01*
X4503682Y6618171D01*
X4495773Y6597098D01*
X4495773Y6597098D01*
X4491754Y6574950D01*
X4491754Y6552441D01*
X4495773Y6530293D01*
X4495773Y6530292D01*
X4503682Y6509219D01*
X4503682Y6509219D01*
X4515227Y6489897D01*
X4515227Y6489896D01*
X4515227Y6489896D01*
X4523839Y6479812D01*
X4523840Y6479811D01*
X4523840Y6479811D01*
X4620601Y6383051D01*
X4620602Y6383050D01*
X4625723Y6378676D01*
X4635100Y6368009D01*
X4641092Y6355132D01*
X4643214Y6341088D01*
X4641293Y6327016D01*
X4635485Y6314055D01*
X4628600Y6305447D01*
X4397703Y6074550D01*
X4386333Y6066039D01*
X4373025Y6061075D01*
X4358859Y6060062D01*
X4345923Y6062876D01*
X4345916Y6062856D01*
X4345678Y6062930D01*
X4344980Y6063081D01*
X4344189Y6063384D01*
X4344133Y6063406D01*
X4344133Y6063406D01*
X4344132Y6063406D01*
X4319062Y6071140D01*
X4319061Y6071140D01*
X4319061Y6071140D01*
X4308141Y6072786D01*
X4293118Y6075050D01*
X4266882Y6075050D01*
X4251859Y6072786D01*
X4240939Y6071140D01*
X4215867Y6063406D01*
X4215867Y6063406D01*
X4192230Y6052023D01*
X4192229Y6052022D01*
X4170552Y6037243D01*
X4151320Y6019398D01*
X4134962Y5998887D01*
X4134961Y5998885D01*
X4121843Y5976164D01*
X4121842Y5976163D01*
X4112258Y5951742D01*
X4112258Y5951742D01*
X4106420Y5926163D01*
X4104459Y5900000D01*
X4106420Y5873837D01*
X4110355Y5856594D01*
X4112258Y5848258D01*
X4112258Y5848258D01*
X4121842Y5823837D01*
X4121843Y5823836D01*
X4121843Y5823836D01*
X4134961Y5801114D01*
X4146145Y5787090D01*
X4151320Y5780602D01*
X4170552Y5762757D01*
X4174431Y5760112D01*
X4192230Y5747977D01*
X4215868Y5736594D01*
X4240939Y5728860D01*
X4266882Y5724950D01*
X4266882Y5724950D01*
X4293118Y5724950D01*
X4293118Y5724950D01*
X4319062Y5728860D01*
X4327479Y5731457D01*
X4341508Y5733669D01*
X4355592Y5731839D01*
X4368591Y5726115D01*
X4379451Y5716961D01*
X4387291Y5705119D01*
X4388637Y5702004D01*
X4391760Y5694048D01*
X4391843Y5693836D01*
X4391843Y5693836D01*
X4404172Y5672482D01*
X4404961Y5671114D01*
X4404962Y5671114D01*
X4404962Y5671113D01*
X4421320Y5650602D01*
X4440552Y5632757D01*
X4453886Y5623666D01*
X4462230Y5617977D01*
X4485868Y5606594D01*
X4510939Y5598860D01*
X4536882Y5594950D01*
X4536882Y5594950D01*
X4563118Y5594950D01*
X4563118Y5594950D01*
X4589062Y5598860D01*
X4614132Y5606594D01*
X4637770Y5617977D01*
X4659448Y5632757D01*
X4678681Y5650602D01*
X4695039Y5671114D01*
X4695040Y5671116D01*
X4696090Y5672657D01*
X4696347Y5672482D01*
X4703173Y5681163D01*
X4714742Y5689402D01*
X4728164Y5694048D01*
X4737610Y5694950D01*
X4829842Y5694950D01*
X4839562Y5696490D01*
X4849283Y5698029D01*
X4868003Y5704112D01*
X4885541Y5713048D01*
X4901465Y5724617D01*
X5008178Y5831330D01*
X5019548Y5839842D01*
X5032855Y5844805D01*
X5036022Y5845388D01*
X5059062Y5848860D01*
X5084132Y5856594D01*
X5107770Y5867977D01*
X5129448Y5882757D01*
X5148681Y5900602D01*
X5165039Y5921114D01*
X5178157Y5943836D01*
X5178157Y5943837D01*
X5178157Y5943837D01*
X5184635Y5960343D01*
X5187742Y5968258D01*
X5193580Y5993837D01*
X5195541Y6020000D01*
X5193580Y6046163D01*
X5187742Y6071742D01*
X5179306Y6093235D01*
X5178157Y6096163D01*
X5178157Y6096164D01*
X5178157Y6096164D01*
X5165039Y6118886D01*
X5148681Y6139398D01*
X5148088Y6139948D01*
X5129448Y6157243D01*
X5107771Y6172022D01*
X5107771Y6172022D01*
X5107770Y6172023D01*
X5094884Y6178229D01*
X5084133Y6183406D01*
X5084133Y6183406D01*
X5084132Y6183406D01*
X5079535Y6184824D01*
X5059177Y6191104D01*
X5046339Y6197179D01*
X5035732Y6206626D01*
X5028217Y6218677D01*
X5024401Y6232358D01*
X5024594Y6246560D01*
X5028781Y6260132D01*
X5036621Y6271975D01*
X5038599Y6274070D01*
X5056843Y6292315D01*
X5071770Y6311767D01*
X5084030Y6333002D01*
X5093413Y6355656D01*
X5097797Y6372015D01*
X5103388Y6385071D01*
X5112430Y6396023D01*
X5124193Y6403984D01*
X5137721Y6408309D01*
X5151920Y6408647D01*
X5165639Y6404971D01*
X5177767Y6397579D01*
X5181281Y6394384D01*
X6195335Y5380331D01*
X6203846Y5368961D01*
X6208810Y5355653D01*
X6209950Y5345046D01*
X6209950Y5209950D01*
X6207929Y5195892D01*
X6202029Y5182972D01*
X6192728Y5172238D01*
X6180779Y5164559D01*
X6167151Y5160558D01*
X6160050Y5160050D01*
X6053256Y5160050D01*
X6039198Y5162071D01*
X6031606Y5164992D01*
X6014134Y5173406D01*
X6014133Y5173406D01*
X6014132Y5173406D01*
X6014132Y5173406D01*
X5989061Y5181140D01*
X5989061Y5181140D01*
X5989061Y5181140D01*
X5978141Y5182786D01*
X5963118Y5185050D01*
X5936882Y5185050D01*
X5921859Y5182786D01*
X5910939Y5181140D01*
X5910938Y5181140D01*
X5892497Y5175451D01*
X5885867Y5173406D01*
X5885867Y5173406D01*
X5862230Y5162023D01*
X5862229Y5162022D01*
X5840552Y5147243D01*
X5821320Y5129398D01*
X5804962Y5108887D01*
X5804961Y5108885D01*
X5791843Y5086165D01*
X5791842Y5086163D01*
X5782258Y5061742D01*
X5782258Y5061742D01*
X5776420Y5036163D01*
X5774459Y5010000D01*
X5776420Y4983837D01*
X5781726Y4960589D01*
X5782258Y4958259D01*
X5782258Y4958258D01*
X5791842Y4933837D01*
X5791843Y4933836D01*
X5791843Y4933836D01*
X5796835Y4925190D01*
X5802157Y4915971D01*
X5804961Y4911114D01*
X5814711Y4898888D01*
X5821320Y4890602D01*
X5840552Y4872757D01*
X5841999Y4871770D01*
X5862230Y4857977D01*
X5873489Y4852555D01*
X5885867Y4846594D01*
X5885867Y4846594D01*
X5885868Y4846594D01*
X5896219Y4843401D01*
X5909056Y4837326D01*
X5916795Y4831003D01*
X6185335Y4562463D01*
X6193846Y4551093D01*
X6198810Y4537785D01*
X6199950Y4527178D01*
X6199950Y4422822D01*
X6197929Y4408763D01*
X6192029Y4395844D01*
X6185335Y4387537D01*
X5925548Y4127751D01*
X5925548Y4127751D01*
X5911666Y4108644D01*
X5911666Y4108644D01*
X5904909Y4095383D01*
X5900943Y4087599D01*
X5893645Y4065137D01*
X5893645Y4065137D01*
X5889950Y4041809D01*
X5889950Y3712822D01*
X5887929Y3698763D01*
X5882029Y3685844D01*
X5875335Y3677537D01*
X5335548Y3137751D01*
X5335548Y3137751D01*
X5321666Y3118643D01*
X5312228Y3100120D01*
X5312228Y3100120D01*
X5310943Y3097599D01*
X5303645Y3075137D01*
X5303645Y3075137D01*
X5299950Y3051809D01*
X5299950Y2870590D01*
X5297929Y2856531D01*
X5292029Y2843612D01*
X5282728Y2832878D01*
X5270779Y2825199D01*
X5257152Y2821198D01*
X5242949Y2821198D01*
X5229321Y2825199D01*
X5217372Y2832878D01*
X5214765Y2835305D01*
X5099665Y2950405D01*
X5091154Y2961775D01*
X5086190Y2975083D01*
X5085050Y2985690D01*
X5085050Y3458589D01*
X5087071Y3472647D01*
X5092971Y3485567D01*
X5095936Y3489700D01*
X5105039Y3501114D01*
X5118157Y3523836D01*
X5118157Y3523837D01*
X5118157Y3523837D01*
X5122367Y3534564D01*
X5127742Y3548258D01*
X5133580Y3573837D01*
X5135541Y3600000D01*
X5133580Y3626163D01*
X5127742Y3651742D01*
X5124497Y3660010D01*
X5118157Y3676163D01*
X5118157Y3676164D01*
X5118157Y3676164D01*
X5105039Y3698886D01*
X5088681Y3719398D01*
X5088680Y3719398D01*
X5069448Y3737243D01*
X5047771Y3752022D01*
X5047771Y3752022D01*
X5047770Y3752023D01*
X5034884Y3758229D01*
X5024133Y3763406D01*
X5024133Y3763406D01*
X5024133Y3763406D01*
X5024132Y3763406D01*
X4999062Y3771140D01*
X4999061Y3771140D01*
X4999061Y3771140D01*
X4988141Y3772786D01*
X4973118Y3775050D01*
X4946882Y3775050D01*
X4931859Y3772786D01*
X4920939Y3771140D01*
X4920939Y3771140D01*
X4896400Y3763570D01*
X4895867Y3763406D01*
X4895867Y3763406D01*
X4872230Y3752023D01*
X4872229Y3752022D01*
X4850552Y3737243D01*
X4831320Y3719398D01*
X4814962Y3698887D01*
X4814961Y3698885D01*
X4801843Y3676164D01*
X4801843Y3676163D01*
X4792258Y3651742D01*
X4792258Y3651742D01*
X4786420Y3626163D01*
X4784459Y3600000D01*
X4786420Y3573837D01*
X4788757Y3563595D01*
X4791156Y3553086D01*
X4792314Y3538930D01*
X4789437Y3525022D01*
X4782757Y3512487D01*
X4772817Y3502342D01*
X4760422Y3495409D01*
X4746575Y3492248D01*
X4734701Y3492697D01*
X4719842Y3495050D01*
X4719842Y3495050D01*
X4382174Y3495050D01*
X4368115Y3497071D01*
X4355196Y3502971D01*
X4351015Y3506213D01*
X4350908Y3506079D01*
X4349449Y3507243D01*
X4349448Y3507243D01*
X4349448Y3507243D01*
X4327770Y3522023D01*
X4314884Y3528229D01*
X4304133Y3533406D01*
X4304133Y3533406D01*
X4304133Y3533406D01*
X4304132Y3533406D01*
X4279062Y3541140D01*
X4279061Y3541140D01*
X4279061Y3541140D01*
X4268141Y3542786D01*
X4253118Y3545050D01*
X4226882Y3545050D01*
X4211859Y3542786D01*
X4200939Y3541140D01*
X4175867Y3533406D01*
X4175867Y3533406D01*
X4152230Y3522023D01*
X4152229Y3522022D01*
X4130552Y3507243D01*
X4111320Y3489398D01*
X4094962Y3468887D01*
X4094961Y3468885D01*
X4081843Y3446164D01*
X4081842Y3446163D01*
X4071576Y3420004D01*
X4071289Y3420116D01*
X4066556Y3410117D01*
X4057110Y3399511D01*
X4045057Y3391996D01*
X4031376Y3388181D01*
X4017175Y3388375D01*
X4003603Y3392562D01*
X3991761Y3400404D01*
X3982607Y3411264D01*
X3976884Y3424262D01*
X3975050Y3437666D01*
X3975050Y5233718D01*
X3974470Y5237377D01*
X3971971Y5253159D01*
X3968463Y5263954D01*
X3965888Y5271879D01*
X3956952Y5289417D01*
X3945383Y5305341D01*
X3945382Y5305342D01*
X2427826Y6822898D01*
X2427826Y6822898D01*
X2411902Y6834467D01*
X2411902Y6834468D01*
X2411902Y6834468D01*
X2394365Y6843403D01*
X2394364Y6843403D01*
X2394364Y6843403D01*
X2394364Y6843404D01*
X2394363Y6843404D01*
X2375645Y6849486D01*
X2375644Y6849486D01*
X2356203Y6852565D01*
X2356203Y6852565D01*
X1987247Y6852565D01*
X1973189Y6854586D01*
X1960269Y6860486D01*
X1949535Y6869787D01*
X1941857Y6881736D01*
X1937855Y6895364D01*
X1937855Y6909567D01*
X1941857Y6923194D01*
X1949535Y6935143D01*
X1951963Y6937750D01*
X1989547Y6975335D01*
X2000918Y6983846D01*
X2014225Y6988810D01*
X2024832Y6989950D01*
X4975168Y6989950D01*
X4989227Y6987929D01*
G37*
G04 #@! TD.AperFunction*
G04 #@! TA.AperFunction,NonConductor*
G36*
X3887216Y3100533D02*
G01*
X3899516Y3093431D01*
X3903955Y3089492D01*
X4118745Y2874702D01*
X4127256Y2863332D01*
X4132220Y2850025D01*
X4133233Y2835858D01*
X4130214Y2821979D01*
X4123407Y2809514D01*
X4122474Y2808306D01*
X4114962Y2798886D01*
X4114961Y2798885D01*
X4114529Y2798136D01*
X4113941Y2797389D01*
X4113910Y2797343D01*
X4113906Y2797345D01*
X4105749Y2786972D01*
X4094179Y2778734D01*
X4080757Y2774089D01*
X4066570Y2773413D01*
X4052767Y2776762D01*
X4040467Y2783864D01*
X4036030Y2787803D01*
X3822963Y3000870D01*
X3814451Y3012240D01*
X3809488Y3025547D01*
X3808474Y3039714D01*
X3811494Y3053593D01*
X3815033Y3061104D01*
X3815038Y3061114D01*
X3815039Y3061114D01*
X3825456Y3079158D01*
X3834235Y3090322D01*
X3845805Y3098560D01*
X3859226Y3103206D01*
X3873413Y3103881D01*
X3887216Y3100533D01*
G37*
G04 #@! TD.AperFunction*
G04 #@! TA.AperFunction,NonConductor*
G36*
X2700116Y4936660D02*
G01*
X2712582Y4929853D01*
X2717962Y4925190D01*
X3220335Y4422818D01*
X3228846Y4411448D01*
X3233810Y4398140D01*
X3234950Y4387533D01*
X3234950Y4261412D01*
X3232929Y4247353D01*
X3227029Y4234434D01*
X3224063Y4230300D01*
X3214962Y4218887D01*
X3214961Y4218885D01*
X3201843Y4196165D01*
X3201842Y4196163D01*
X3192258Y4171742D01*
X3192258Y4171742D01*
X3190251Y4162949D01*
X3186420Y4146163D01*
X3184459Y4120000D01*
X3186420Y4093837D01*
X3188890Y4083014D01*
X3192258Y4068258D01*
X3192258Y4068258D01*
X3201842Y4043837D01*
X3201843Y4043835D01*
X3215634Y4019950D01*
X3220912Y4006764D01*
X3222262Y3992625D01*
X3219574Y3978679D01*
X3215634Y3970050D01*
X3201843Y3946165D01*
X3201842Y3946163D01*
X3192258Y3921742D01*
X3192258Y3921742D01*
X3189637Y3910260D01*
X3186420Y3896163D01*
X3184459Y3870000D01*
X3186420Y3843837D01*
X3189838Y3828860D01*
X3192258Y3818258D01*
X3192258Y3818258D01*
X3201842Y3793837D01*
X3201843Y3793836D01*
X3201843Y3793836D01*
X3204947Y3788459D01*
X3214759Y3771465D01*
X3214961Y3771114D01*
X3217938Y3767382D01*
X3225123Y3755130D01*
X3228565Y3741351D01*
X3227986Y3727160D01*
X3223432Y3713707D01*
X3217938Y3705158D01*
X3204962Y3688887D01*
X3204961Y3688885D01*
X3191843Y3666164D01*
X3191842Y3666163D01*
X3182258Y3641742D01*
X3182258Y3641742D01*
X3178702Y3626163D01*
X3176420Y3616163D01*
X3174459Y3590000D01*
X3176420Y3563837D01*
X3180708Y3545050D01*
X3182258Y3538258D01*
X3182258Y3538258D01*
X3191842Y3513837D01*
X3191843Y3513836D01*
X3204048Y3492697D01*
X3204961Y3491114D01*
X3214063Y3479701D01*
X3221248Y3467449D01*
X3224691Y3453670D01*
X3224950Y3448589D01*
X3224950Y3089153D01*
X3228029Y3069712D01*
X3228029Y3069712D01*
X3234111Y3050994D01*
X3234112Y3050992D01*
X3241398Y3036692D01*
X3243048Y3033454D01*
X3254617Y3017530D01*
X3254617Y3017530D01*
X3611913Y2660235D01*
X3620425Y2648865D01*
X3625388Y2635557D01*
X3626401Y2621390D01*
X3623382Y2607512D01*
X3616575Y2595046D01*
X3606532Y2585003D01*
X3594067Y2578196D01*
X3580188Y2575177D01*
X3576628Y2575050D01*
X2992467Y2575050D01*
X2978408Y2577071D01*
X2965489Y2582971D01*
X2957182Y2589665D01*
X1969665Y3577182D01*
X1961154Y3588552D01*
X1956190Y3601860D01*
X1955050Y3612467D01*
X1955050Y4549818D01*
X1957071Y4563876D01*
X1962971Y4576796D01*
X1972272Y4587530D01*
X1984221Y4595208D01*
X1997848Y4599210D01*
X2012051Y4599210D01*
X2025679Y4595208D01*
X2033059Y4591047D01*
X2052230Y4577977D01*
X2075868Y4566594D01*
X2100939Y4558860D01*
X2126882Y4554950D01*
X2126882Y4554950D01*
X2153118Y4554950D01*
X2153118Y4554950D01*
X2179062Y4558860D01*
X2204132Y4566594D01*
X2227770Y4577977D01*
X2249448Y4592757D01*
X2268681Y4610602D01*
X2285039Y4631114D01*
X2298157Y4653836D01*
X2298157Y4653837D01*
X2298157Y4653837D01*
X2304439Y4669842D01*
X2307742Y4678258D01*
X2313580Y4703837D01*
X2313951Y4708780D01*
X2317017Y4722647D01*
X2323866Y4735090D01*
X2333943Y4745099D01*
X2346432Y4751863D01*
X2360321Y4754835D01*
X2363711Y4754950D01*
X2426809Y4754950D01*
X2450137Y4758645D01*
X2472599Y4765943D01*
X2493643Y4776666D01*
X2512751Y4790548D01*
X2647393Y4925191D01*
X2658763Y4933702D01*
X2672071Y4938665D01*
X2686237Y4939679D01*
X2700116Y4936660D01*
G37*
G04 #@! TD.AperFunction*
G04 #@! TA.AperFunction,NonConductor*
G36*
X3266692Y2117929D02*
G01*
X3279611Y2112029D01*
X3290345Y2102728D01*
X3298024Y2090779D01*
X3302025Y2077151D01*
X3302025Y2062948D01*
X3298024Y2049321D01*
X3290345Y2037372D01*
X3287918Y2034765D01*
X3173065Y1919913D01*
X3161695Y1911401D01*
X3148388Y1906438D01*
X3134221Y1905425D01*
X3120342Y1908444D01*
X3107877Y1915250D01*
X3097834Y1925294D01*
X3096290Y1927475D01*
X3095505Y1928649D01*
X3081536Y1946855D01*
X2993625Y2034765D01*
X2985114Y2046135D01*
X2980150Y2059443D01*
X2979137Y2073610D01*
X2982156Y2087488D01*
X2988963Y2099954D01*
X2999006Y2109997D01*
X3011472Y2116804D01*
X3025350Y2119823D01*
X3028910Y2119950D01*
X3252633Y2119950D01*
X3266692Y2117929D01*
G37*
G04 #@! TD.AperFunction*
G04 #@! TA.AperFunction,NonConductor*
G36*
X2462305Y1907929D02*
G01*
X2475225Y1902029D01*
X2485959Y1892728D01*
X2493637Y1880779D01*
X2497639Y1867151D01*
X2497639Y1852948D01*
X2493637Y1839321D01*
X2485959Y1827372D01*
X2483531Y1824765D01*
X2471270Y1812504D01*
X2457301Y1794299D01*
X2457301Y1794299D01*
X2445828Y1774427D01*
X2441886Y1764911D01*
X2434639Y1752696D01*
X2424244Y1743018D01*
X2414881Y1737906D01*
X2405365Y1733964D01*
X2385493Y1722491D01*
X2385493Y1722490D01*
X2367288Y1708522D01*
X2351062Y1692296D01*
X2337093Y1674091D01*
X2334307Y1669266D01*
X2325528Y1658102D01*
X2315310Y1650587D01*
X2305296Y1645029D01*
X2296104Y1637338D01*
X2296103Y1637337D01*
X2181830Y1523064D01*
X2181829Y1523063D01*
X2174139Y1513872D01*
X2174139Y1513872D01*
X2164264Y1496080D01*
X2164264Y1496080D01*
X2158172Y1476665D01*
X2158172Y1476665D01*
X2155858Y1453904D01*
X2155616Y1453929D01*
X2154093Y1443332D01*
X2148192Y1430413D01*
X2138891Y1419679D01*
X2126943Y1412000D01*
X2113315Y1407999D01*
X2099112Y1407999D01*
X2085485Y1412000D01*
X2073536Y1419679D01*
X2070929Y1422106D01*
X2054665Y1438370D01*
X2046154Y1449740D01*
X2041190Y1463048D01*
X2040050Y1473655D01*
X2040050Y1557178D01*
X2042071Y1571237D01*
X2047971Y1584156D01*
X2054665Y1592463D01*
X2357537Y1895335D01*
X2368907Y1903846D01*
X2382215Y1908810D01*
X2392822Y1909950D01*
X2448247Y1909950D01*
X2462305Y1907929D01*
G37*
G04 #@! TD.AperFunction*
G04 #@! TA.AperFunction,NonConductor*
G36*
X970001Y3836545D02*
G01*
X982467Y3829738D01*
X992510Y3819695D01*
X999316Y3807229D01*
X1002335Y3793351D01*
X1002463Y3789791D01*
X1002463Y3616511D01*
X1006157Y3593183D01*
X1006157Y3593183D01*
X1013455Y3570722D01*
X1013456Y3570720D01*
X1024178Y3549678D01*
X1024178Y3549677D01*
X1024178Y3549677D01*
X1038061Y3530569D01*
X1038061Y3530569D01*
X1404947Y3163683D01*
X1413458Y3152313D01*
X1418422Y3139005D01*
X1419435Y3124839D01*
X1416416Y3110960D01*
X1409609Y3098494D01*
X1399566Y3088451D01*
X1387101Y3081645D01*
X1384508Y3080758D01*
X1380445Y3079492D01*
X1380442Y3079491D01*
X1350100Y3065835D01*
X1350100Y3065835D01*
X1321623Y3048620D01*
X1295430Y3028099D01*
X1271901Y3004570D01*
X1251380Y2978377D01*
X1234165Y2949900D01*
X1234165Y2949900D01*
X1220509Y2919558D01*
X1220509Y2919557D01*
X1210610Y2887789D01*
X1207114Y2868714D01*
X1204612Y2855059D01*
X1202603Y2821845D01*
X1204612Y2788631D01*
X1204916Y2786972D01*
X1210610Y2755901D01*
X1220509Y2724133D01*
X1220509Y2724132D01*
X1234165Y2693790D01*
X1234165Y2693790D01*
X1251380Y2665312D01*
X1271901Y2639120D01*
X1295430Y2615590D01*
X1321623Y2595070D01*
X1321623Y2595070D01*
X1321623Y2595069D01*
X1350100Y2577855D01*
X1380443Y2564199D01*
X1412211Y2554299D01*
X1444941Y2548301D01*
X1478155Y2546292D01*
X1511369Y2548301D01*
X1544099Y2554299D01*
X1575867Y2564199D01*
X1606211Y2577855D01*
X1634687Y2595069D01*
X1660880Y2615591D01*
X1684409Y2639120D01*
X1704931Y2665313D01*
X1722145Y2693789D01*
X1735801Y2724133D01*
X1737068Y2728198D01*
X1743180Y2741018D01*
X1752657Y2751597D01*
X1764730Y2759078D01*
X1778422Y2762854D01*
X1792623Y2762620D01*
X1806183Y2758395D01*
X1818003Y2750521D01*
X1819993Y2748637D01*
X2283259Y2285371D01*
X2291770Y2274001D01*
X2296734Y2260694D01*
X2297747Y2246527D01*
X2294728Y2232648D01*
X2287921Y2220183D01*
X2277878Y2210140D01*
X2265412Y2203333D01*
X2263394Y2202629D01*
X2252402Y2199057D01*
X2252400Y2199057D01*
X2231358Y2188335D01*
X2231357Y2188335D01*
X2212249Y2174452D01*
X2212249Y2174452D01*
X1775548Y1737751D01*
X1775548Y1737751D01*
X1761665Y1718643D01*
X1757011Y1709508D01*
X1757011Y1709508D01*
X1750943Y1697599D01*
X1750943Y1697598D01*
X1743645Y1675137D01*
X1743645Y1675137D01*
X1739950Y1651809D01*
X1739950Y1428077D01*
X1737929Y1414019D01*
X1732029Y1401099D01*
X1722728Y1390366D01*
X1710779Y1382687D01*
X1697151Y1378685D01*
X1682948Y1378685D01*
X1669321Y1382687D01*
X1657372Y1390366D01*
X1654765Y1392793D01*
X1407821Y1639738D01*
X1399309Y1651108D01*
X1394346Y1664415D01*
X1393205Y1675022D01*
X1393205Y2071687D01*
X1391989Y2079365D01*
X1390126Y2091127D01*
X1387843Y2098155D01*
X1384044Y2109847D01*
X1375108Y2127385D01*
X1363538Y2143309D01*
X329665Y3177182D01*
X321154Y3188552D01*
X316190Y3201860D01*
X315050Y3212467D01*
X315050Y3297792D01*
X317071Y3311851D01*
X322971Y3324770D01*
X332272Y3335504D01*
X344221Y3343183D01*
X357848Y3347184D01*
X372051Y3347184D01*
X372387Y3347135D01*
X386882Y3344950D01*
X386882Y3344950D01*
X413118Y3344950D01*
X413118Y3344950D01*
X439061Y3348860D01*
X464132Y3356594D01*
X487770Y3367977D01*
X509448Y3382757D01*
X528681Y3400602D01*
X545039Y3421114D01*
X558157Y3443836D01*
X567742Y3468258D01*
X567742Y3468259D01*
X568424Y3469996D01*
X568723Y3469879D01*
X573413Y3479793D01*
X579740Y3487537D01*
X917278Y3825076D01*
X928648Y3833587D01*
X941956Y3838550D01*
X956122Y3839564D01*
X970001Y3836545D01*
G37*
G04 #@! TD.AperFunction*
G04 #@! TA.AperFunction,NonConductor*
G36*
X5265866Y1832929D02*
G01*
X5278785Y1827029D01*
X5289519Y1817728D01*
X5297198Y1805779D01*
X5300456Y1796154D01*
X5300879Y1794299D01*
X5302258Y1788258D01*
X5302258Y1788258D01*
X5311843Y1763837D01*
X5311843Y1763836D01*
X5322741Y1744960D01*
X5324961Y1741114D01*
X5324962Y1741114D01*
X5324962Y1741113D01*
X5327643Y1737751D01*
X5339813Y1722491D01*
X5341320Y1720602D01*
X5354339Y1708522D01*
X5360552Y1702757D01*
X5361922Y1701823D01*
X5372399Y1692233D01*
X5374181Y1689925D01*
X5374616Y1689326D01*
X5374618Y1689325D01*
X5577861Y1486081D01*
X5586372Y1474711D01*
X5591336Y1461404D01*
X5592349Y1447237D01*
X5589330Y1433358D01*
X5582523Y1420893D01*
X5572480Y1410850D01*
X5563376Y1405665D01*
X5563437Y1405542D01*
X5561973Y1404820D01*
X5540738Y1392560D01*
X5521285Y1377634D01*
X5521284Y1377633D01*
X5504106Y1360455D01*
X5492736Y1351944D01*
X5479429Y1346980D01*
X5468822Y1345840D01*
X5399667Y1345840D01*
X5385608Y1347861D01*
X5372689Y1353761D01*
X5364382Y1360455D01*
X4975072Y1749765D01*
X4966560Y1761135D01*
X4961597Y1774443D01*
X4960584Y1788610D01*
X4963603Y1802488D01*
X4970410Y1814954D01*
X4980453Y1824997D01*
X4992918Y1831804D01*
X5006797Y1834823D01*
X5010357Y1834950D01*
X5251807Y1834950D01*
X5265866Y1832929D01*
G37*
G04 #@! TD.AperFunction*
G04 #@! TA.AperFunction,NonConductor*
G36*
X80679Y3068024D02*
G01*
X92628Y3060345D01*
X95235Y3057918D01*
X694925Y2458227D01*
X703437Y2446857D01*
X708400Y2433550D01*
X709414Y2419383D01*
X706395Y2405504D01*
X699588Y2393039D01*
X689545Y2382996D01*
X677079Y2376189D01*
X668229Y2374032D01*
X668269Y2373815D01*
X634056Y2367546D01*
X602288Y2357647D01*
X602287Y2357646D01*
X571945Y2343990D01*
X571945Y2343990D01*
X543468Y2326775D01*
X517275Y2306255D01*
X493745Y2282725D01*
X473225Y2256533D01*
X456010Y2228055D01*
X456010Y2228055D01*
X442354Y2197713D01*
X442353Y2197712D01*
X432454Y2165944D01*
X428306Y2143309D01*
X426456Y2133214D01*
X424447Y2100000D01*
X426456Y2066786D01*
X426810Y2064855D01*
X432454Y2034056D01*
X438634Y2014225D01*
X442354Y2002288D01*
X443390Y1999985D01*
X456010Y1971945D01*
X456010Y1971945D01*
X456010Y1971944D01*
X456010Y1971944D01*
X471178Y1946854D01*
X473225Y1943468D01*
X493745Y1917275D01*
X517275Y1893745D01*
X543468Y1873225D01*
X543468Y1873225D01*
X543468Y1873225D01*
X571944Y1856010D01*
X602288Y1842354D01*
X634056Y1832454D01*
X666786Y1826456D01*
X700000Y1824447D01*
X733214Y1826456D01*
X765944Y1832454D01*
X797712Y1842354D01*
X828056Y1856010D01*
X856532Y1873225D01*
X882725Y1893746D01*
X906254Y1917275D01*
X926775Y1943468D01*
X943990Y1971944D01*
X957646Y2002288D01*
X967546Y2034056D01*
X973544Y2066786D01*
X973544Y2066786D01*
X973815Y2068269D01*
X974098Y2068217D01*
X977106Y2079365D01*
X984520Y2091479D01*
X995046Y2101015D01*
X1007832Y2107198D01*
X1021843Y2109529D01*
X1035942Y2107818D01*
X1048989Y2102204D01*
X1058227Y2094925D01*
X1128490Y2024663D01*
X1137001Y2013293D01*
X1141965Y1999985D01*
X1143105Y1989378D01*
X1143105Y1592714D01*
X1146184Y1573273D01*
X1146184Y1573272D01*
X1152266Y1554554D01*
X1152267Y1554553D01*
X1152267Y1554553D01*
X1161203Y1537015D01*
X1172772Y1521091D01*
X1172773Y1521091D01*
X1615824Y1078039D01*
X1624336Y1066669D01*
X1629299Y1053361D01*
X1630312Y1039195D01*
X1627293Y1025316D01*
X1620487Y1012850D01*
X1610444Y1002807D01*
X1608265Y1001266D01*
X1607338Y1000647D01*
X1589133Y986677D01*
X1572907Y970451D01*
X1558938Y952246D01*
X1556152Y947421D01*
X1547372Y936257D01*
X1537154Y928742D01*
X1527141Y923184D01*
X1517948Y915493D01*
X1517948Y915492D01*
X1403675Y801219D01*
X1403674Y801218D01*
X1395984Y792028D01*
X1395984Y792027D01*
X1386109Y774236D01*
X1386109Y774236D01*
X1380017Y754820D01*
X1379513Y749865D01*
X1376080Y736083D01*
X1368903Y723826D01*
X1358564Y714089D01*
X1345900Y707658D01*
X1331937Y705056D01*
X1317807Y706493D01*
X1304654Y711852D01*
X1294585Y719628D01*
X24665Y1989547D01*
X16154Y2000918D01*
X11190Y2014225D01*
X10050Y2024832D01*
X10050Y3022633D01*
X12071Y3036692D01*
X17971Y3049611D01*
X27272Y3060345D01*
X39221Y3068024D01*
X52848Y3072025D01*
X67052Y3072025D01*
X80679Y3068024D01*
G37*
G04 #@! TD.AperFunction*
G04 #@! TA.AperFunction,NonConductor*
G36*
X4187082Y2077825D02*
G01*
X4199737Y2071377D01*
X4206271Y2065877D01*
X4780335Y1491813D01*
X4788846Y1480443D01*
X4793810Y1467135D01*
X4794950Y1456528D01*
X4794950Y1030158D01*
X4798029Y1010717D01*
X4798029Y1010717D01*
X4804111Y991999D01*
X4804112Y991997D01*
X4808820Y982757D01*
X4813048Y974459D01*
X4824617Y958535D01*
X5088535Y694617D01*
X5104460Y683048D01*
X5121997Y674112D01*
X5136680Y669341D01*
X5140717Y668029D01*
X5160158Y664950D01*
X5160158Y664950D01*
X5160158Y664950D01*
X5179842Y664950D01*
X5224119Y664950D01*
X5238178Y662929D01*
X5251097Y657029D01*
X5261831Y647728D01*
X5269510Y635779D01*
X5273511Y622152D01*
X5273511Y607949D01*
X5269510Y594321D01*
X5261831Y582372D01*
X5259404Y579765D01*
X5219304Y539665D01*
X5207934Y531154D01*
X5194626Y526190D01*
X5184019Y525050D01*
X4619297Y525050D01*
X4605238Y527071D01*
X4592319Y532971D01*
X4582828Y540890D01*
X4570705Y553871D01*
X4548415Y572006D01*
X4548414Y572006D01*
X4548414Y572006D01*
X4523863Y586936D01*
X4523863Y586936D01*
X4523863Y586936D01*
X4497506Y598384D01*
X4482148Y602688D01*
X4469836Y606137D01*
X4469836Y606137D01*
X4469836Y606137D01*
X4469835Y606137D01*
X4469835Y606137D01*
X4456657Y607949D01*
X4441368Y610050D01*
X4412632Y610050D01*
X4401424Y608510D01*
X4384165Y606137D01*
X4384164Y606137D01*
X4371852Y602688D01*
X4358218Y598867D01*
X4344135Y597021D01*
X4330103Y599217D01*
X4321652Y602688D01*
X4320305Y603391D01*
X4320305Y603391D01*
X4300742Y608989D01*
X4288804Y610050D01*
X4288803Y610050D01*
X4057197Y610050D01*
X4045258Y608989D01*
X4025695Y603391D01*
X4025694Y603391D01*
X4007659Y593970D01*
X4007659Y593970D01*
X3991889Y581111D01*
X3991889Y581111D01*
X3979030Y565341D01*
X3979030Y565341D01*
X3969609Y547306D01*
X3969609Y547304D01*
X3963641Y526448D01*
X3957830Y513488D01*
X3948604Y502690D01*
X3936708Y494929D01*
X3923109Y490833D01*
X3908906Y490735D01*
X3895251Y494643D01*
X3883250Y502239D01*
X3873875Y512908D01*
X3872452Y515225D01*
X3866121Y526190D01*
X3865860Y526642D01*
X3865016Y527742D01*
X3850933Y546095D01*
X3833595Y563433D01*
X3814143Y578360D01*
X3814143Y578360D01*
X3814142Y578360D01*
X3814142Y578361D01*
X3814141Y578361D01*
X3792908Y590620D01*
X3792908Y590620D01*
X3792908Y590620D01*
X3770254Y600003D01*
X3770254Y600003D01*
X3770254Y600004D01*
X3746570Y606350D01*
X3726524Y608989D01*
X3722260Y609550D01*
X3697740Y609550D01*
X3694054Y609065D01*
X3673430Y606350D01*
X3649746Y600004D01*
X3627092Y590620D01*
X3607950Y579568D01*
X3594764Y574290D01*
X3580626Y572939D01*
X3566679Y575627D01*
X3558050Y579568D01*
X3538908Y590620D01*
X3529973Y594321D01*
X3516254Y600003D01*
X3516254Y600003D01*
X3516254Y600004D01*
X3492570Y606350D01*
X3472524Y608989D01*
X3468260Y609550D01*
X3443740Y609550D01*
X3440054Y609065D01*
X3419430Y606350D01*
X3395746Y600004D01*
X3395746Y600003D01*
X3395746Y600003D01*
X3373092Y590620D01*
X3373092Y590620D01*
X3371583Y589995D01*
X3371452Y590312D01*
X3360913Y586891D01*
X3346716Y586490D01*
X3332980Y590104D01*
X3327793Y592662D01*
X3325962Y593701D01*
X3323018Y595038D01*
X3305468Y603010D01*
X3283641Y608510D01*
X3270422Y609550D01*
X3270422Y609550D01*
X3133579Y609550D01*
X3133577Y609550D01*
X3120359Y608510D01*
X3120359Y608510D01*
X3098532Y603010D01*
X3078038Y593701D01*
X3059535Y580882D01*
X3059534Y580881D01*
X3043318Y564665D01*
X3031948Y556154D01*
X3018640Y551190D01*
X3008033Y550050D01*
X2963654Y550050D01*
X2949596Y552071D01*
X2936676Y557971D01*
X2928370Y564665D01*
X2611423Y881612D01*
X2602912Y892982D01*
X2597948Y906289D01*
X2596935Y920456D01*
X2599954Y934335D01*
X2606761Y946800D01*
X2616804Y956843D01*
X2625057Y961855D01*
X2625251Y961948D01*
X2637770Y967977D01*
X2659448Y982757D01*
X2678681Y1000602D01*
X2695039Y1021114D01*
X2708157Y1043836D01*
X2708157Y1043837D01*
X2708157Y1043837D01*
X2713419Y1057243D01*
X2717742Y1068258D01*
X2723580Y1093837D01*
X2724051Y1100124D01*
X2727117Y1113992D01*
X2733966Y1126435D01*
X2738527Y1131679D01*
X3477182Y1870335D01*
X3488552Y1878846D01*
X3501860Y1883810D01*
X3512467Y1884950D01*
X3919842Y1884950D01*
X3929562Y1886490D01*
X3939283Y1888029D01*
X3958003Y1894112D01*
X3975540Y1903048D01*
X3991465Y1914617D01*
X4058442Y1981595D01*
X4069812Y1990106D01*
X4071066Y1990768D01*
X4075540Y1993048D01*
X4091465Y2004617D01*
X4105383Y2018535D01*
X4116952Y2034459D01*
X4125888Y2051997D01*
X4125888Y2051998D01*
X4126525Y2053246D01*
X4134708Y2064855D01*
X4145830Y2073688D01*
X4158991Y2079029D01*
X4173123Y2080447D01*
X4187082Y2077825D01*
G37*
G04 #@! TD.AperFunction*
G04 #@! TA.AperFunction,NonConductor*
G36*
X5154327Y272929D02*
G01*
X5167246Y267029D01*
X5177980Y257728D01*
X5185659Y245779D01*
X5189660Y232151D01*
X5189660Y217948D01*
X5185659Y204321D01*
X5177980Y192372D01*
X5175553Y189765D01*
X5010453Y24665D01*
X4999083Y16154D01*
X4985775Y11190D01*
X4975168Y10050D01*
X4489930Y10050D01*
X4475872Y12071D01*
X4462952Y17971D01*
X4452218Y27272D01*
X4444539Y39221D01*
X4440538Y52848D01*
X4440538Y67052D01*
X4444539Y80679D01*
X4452218Y92628D01*
X4454645Y95235D01*
X4522383Y162972D01*
X4533952Y178896D01*
X4542888Y196434D01*
X4548971Y215154D01*
X4548971Y215155D01*
X4548997Y215263D01*
X4549048Y215390D01*
X4549577Y217019D01*
X4549681Y216985D01*
X4554244Y228461D01*
X4562997Y239647D01*
X4566028Y242324D01*
X4570705Y246129D01*
X4570705Y246129D01*
X4570705Y246129D01*
X4582828Y259110D01*
X4593901Y268004D01*
X4607031Y273419D01*
X4619297Y274950D01*
X5140268Y274950D01*
X5154327Y272929D01*
G37*
G04 #@! TD.AperFunction*
G04 #@! TA.AperFunction,NonConductor*
G36*
X2006814Y673718D02*
G01*
X2020369Y669474D01*
X2032178Y661584D01*
X2034119Y659744D01*
X2598629Y95235D01*
X2607140Y83865D01*
X2612104Y70557D01*
X2613117Y56390D01*
X2610098Y42512D01*
X2603291Y30046D01*
X2593248Y20003D01*
X2580782Y13196D01*
X2566904Y10177D01*
X2563344Y10050D01*
X2024832Y10050D01*
X2010774Y12071D01*
X1997854Y17971D01*
X1989547Y24665D01*
X1675708Y338505D01*
X1667196Y349875D01*
X1662233Y363182D01*
X1661220Y377349D01*
X1664239Y391228D01*
X1671046Y403693D01*
X1681089Y413736D01*
X1693554Y420543D01*
X1705944Y423433D01*
X1710900Y423937D01*
X1730315Y430029D01*
X1748107Y439904D01*
X1757299Y447595D01*
X1871572Y561869D01*
X1879263Y571061D01*
X1884822Y581075D01*
X1893411Y592385D01*
X1903501Y600072D01*
X1908326Y602858D01*
X1926531Y616827D01*
X1942757Y633053D01*
X1956726Y651258D01*
X1956726Y651259D01*
X1957343Y652181D01*
X1966834Y662748D01*
X1978917Y670213D01*
X1992614Y673971D01*
X2006814Y673718D01*
G37*
G04 #@! TD.AperFunction*
D26*
X7000000Y5000000D02*
X7000000Y2000000D01*
X5000000Y0D01*
X2000000Y0D01*
X0Y2000000D01*
X0Y5000000D01*
X2000000Y7000000D01*
X5000000Y7000000D01*
X7000000Y5000000D01*
M02*
