%TF.GenerationSoftware,KiCad,Pcbnew,6.0.11+dfsg-1*%
%TF.CreationDate,2024-04-14T00:28:14-04:00*%
%TF.ProjectId,MainPCBV1,4d61696e-5043-4425-9631-2e6b69636164,rev?*%
%TF.SameCoordinates,Original*%
%TF.FileFunction,Soldermask,Top*%
%TF.FilePolarity,Negative*%
%FSLAX45Y45*%
G04 Gerber Fmt 4.5, Leading zero omitted, Abs format (unit mm)*
G04 Created by KiCad (PCBNEW 6.0.11+dfsg-1) date 2024-04-14 00:28:14*
%MOMM*%
%LPD*%
G01*
G04 APERTURE LIST*
G04 Aperture macros list*
%AMRoundRect*
0 Rectangle with rounded corners*
0 $1 Rounding radius*
0 $2 $3 $4 $5 $6 $7 $8 $9 X,Y pos of 4 corners*
0 Add a 4 corners polygon primitive as box body*
4,1,4,$2,$3,$4,$5,$6,$7,$8,$9,$2,$3,0*
0 Add four circle primitives for the rounded corners*
1,1,$1+$1,$2,$3*
1,1,$1+$1,$4,$5*
1,1,$1+$1,$6,$7*
1,1,$1+$1,$8,$9*
0 Add four rect primitives between the rounded corners*
20,1,$1+$1,$2,$3,$4,$5,0*
20,1,$1+$1,$4,$5,$6,$7,0*
20,1,$1+$1,$6,$7,$8,$9,0*
20,1,$1+$1,$8,$9,$2,$3,0*%
G04 Aperture macros list end*
%ADD10C,1.600000*%
%ADD11R,2.000000X1.500000*%
%ADD12R,2.000000X3.800000*%
%ADD13RoundRect,0.150000X-0.150000X0.587500X-0.150000X-0.587500X0.150000X-0.587500X0.150000X0.587500X0*%
%ADD14RoundRect,0.250000X-0.325000X-0.650000X0.325000X-0.650000X0.325000X0.650000X-0.325000X0.650000X0*%
%ADD15R,1.500000X2.200000*%
%ADD16RoundRect,0.250000X0.450000X-0.262500X0.450000X0.262500X-0.450000X0.262500X-0.450000X-0.262500X0*%
%ADD17RoundRect,0.250000X0.845000X-0.620000X0.845000X0.620000X-0.845000X0.620000X-0.845000X-0.620000X0*%
%ADD18O,2.190000X1.740000*%
%ADD19RoundRect,0.250000X-0.620000X-0.845000X0.620000X-0.845000X0.620000X0.845000X-0.620000X0.845000X0*%
%ADD20O,1.740000X2.190000*%
%ADD21R,3.000000X3.000000*%
%ADD22C,3.000000*%
%ADD23R,3.500000X1.800000*%
%ADD24R,1.800000X1.070000*%
%ADD25O,1.800000X1.070000*%
%ADD26R,1.100000X4.600000*%
%ADD27R,10.800000X9.400000*%
%ADD28RoundRect,0.250000X-0.262500X-0.450000X0.262500X-0.450000X0.262500X0.450000X-0.262500X0.450000X0*%
%ADD29RoundRect,0.102000X0.485000X-1.510000X0.485000X1.510000X-0.485000X1.510000X-0.485000X-1.510000X0*%
%ADD30RoundRect,0.102000X-2.835000X3.160000X-2.835000X-3.160000X2.835000X-3.160000X2.835000X3.160000X0*%
%ADD31RoundRect,0.250000X-0.650000X0.325000X-0.650000X-0.325000X0.650000X-0.325000X0.650000X0.325000X0*%
%ADD32O,2.748280X1.998980*%
%ADD33O,1.016000X2.032000*%
%ADD34C,1.143000*%
G04 APERTURE END LIST*
D10*
%TO.C,C8*%
X10922000Y-14660500D03*
X10922000Y-14160500D03*
%TD*%
D11*
%TO.C,U3*%
X14922500Y-11176000D03*
D12*
X15552500Y-11406000D03*
D11*
X14922500Y-11406000D03*
X14922500Y-11636000D03*
%TD*%
D13*
%TO.C,Q4*%
X13366500Y-8946500D03*
X13176500Y-8946500D03*
X13271500Y-9134000D03*
%TD*%
D14*
%TO.C,C4*%
X10563500Y-10922000D03*
X10858500Y-10922000D03*
%TD*%
D15*
%TO.C,L1*%
X9206500Y-10835500D03*
X9846500Y-10835500D03*
%TD*%
D14*
%TO.C,C7*%
X10563500Y-10414000D03*
X10858500Y-10414000D03*
%TD*%
D16*
%TO.C,R7*%
X11620500Y-13553250D03*
X11620500Y-13370750D03*
%TD*%
D17*
%TO.C,PowerAmplifier1*%
X11749500Y-10477500D03*
D18*
X11749500Y-10223500D03*
X11749500Y-9969500D03*
X11749500Y-9715500D03*
%TD*%
D19*
%TO.C,fan1*%
X12763500Y-8308500D03*
D20*
X13017500Y-8308500D03*
%TD*%
D21*
%TO.C,BATTERY1*%
X13462000Y-13843000D03*
D22*
X13970000Y-13843000D03*
%TD*%
D23*
%TO.C,D2*%
X9088500Y-13693000D03*
X9588500Y-13693000D03*
%TD*%
D16*
%TO.C,R9*%
X12001500Y-13263500D03*
X12001500Y-13081000D03*
%TD*%
D10*
%TO.C,C3*%
X14867000Y-13843000D03*
X15367000Y-13843000D03*
%TD*%
D16*
%TO.C,R5*%
X10350500Y-12755500D03*
X10350500Y-12573000D03*
%TD*%
%TO.C,R4*%
X11685000Y-12283250D03*
X11685000Y-12100750D03*
%TD*%
D17*
%TO.C,SWITCH1*%
X12255500Y-14795500D03*
D18*
X12255500Y-14541500D03*
X12255500Y-14287500D03*
%TD*%
D10*
%TO.C,C5*%
X10668000Y-12192000D03*
X11168000Y-12192000D03*
%TD*%
D17*
%TO.C,ZE08-CH2O1*%
X15367000Y-9525000D03*
D18*
X15367000Y-9271000D03*
X15367000Y-9017000D03*
X15367000Y-8763000D03*
X15367000Y-8509000D03*
X15367000Y-8255000D03*
X15367000Y-8001000D03*
%TD*%
D24*
%TO.C,D3*%
X11747500Y-11620500D03*
D25*
X11747500Y-11493500D03*
X11747500Y-11366500D03*
X11747500Y-11239500D03*
%TD*%
D26*
%TO.C,U1*%
X9225000Y-12841500D03*
X9395000Y-12841500D03*
X9565000Y-12841500D03*
D27*
X9565000Y-11926500D03*
D26*
X9735000Y-12841500D03*
X9905000Y-12841500D03*
%TD*%
D28*
%TO.C,R10*%
X14422500Y-11366500D03*
X14605000Y-11366500D03*
%TD*%
D10*
%TO.C,C1*%
X10668000Y-13208000D03*
X11168000Y-13208000D03*
%TD*%
D26*
%TO.C,U2*%
X9189000Y-9274000D03*
X9359000Y-9274000D03*
D27*
X9529000Y-8359000D03*
D26*
X9529000Y-9274000D03*
X9699000Y-9274000D03*
X9869000Y-9274000D03*
%TD*%
D29*
%TO.C,Q3*%
X14135100Y-9761000D03*
X13677900Y-9761000D03*
D30*
X13906500Y-10414000D03*
%TD*%
D16*
%TO.C,R6*%
X14859000Y-13454000D03*
X14859000Y-13271500D03*
%TD*%
D15*
%TO.C,L2*%
X9211500Y-14518500D03*
X9851500Y-14518500D03*
%TD*%
D16*
%TO.C,R8*%
X12700000Y-9288750D03*
X12700000Y-9106250D03*
%TD*%
D28*
%TO.C,R3*%
X9588500Y-13248500D03*
X9771000Y-13248500D03*
%TD*%
D16*
%TO.C,R2*%
X10100500Y-9863500D03*
X10100500Y-9681000D03*
%TD*%
D24*
%TO.C,D4*%
X14840000Y-12540468D03*
D25*
X14840000Y-12413468D03*
X14840000Y-12286468D03*
X14840000Y-12159468D03*
%TD*%
D19*
%TO.C,fan2*%
X13716000Y-8308500D03*
D20*
X13970000Y-8308500D03*
%TD*%
D29*
%TO.C,Q1*%
X13246100Y-9751000D03*
X12788900Y-9751000D03*
D30*
X13017500Y-10404000D03*
%TD*%
D31*
%TO.C,C2*%
X14668500Y-9842500D03*
X14668500Y-10137500D03*
%TD*%
D13*
%TO.C,Q2*%
X14128500Y-8976750D03*
X13938500Y-8976750D03*
X14033500Y-9164250D03*
%TD*%
D32*
%TO.C,U4*%
X12446000Y-11366500D03*
X12446000Y-11620500D03*
X12446000Y-11874500D03*
X12446000Y-12128500D03*
X12446000Y-12382500D03*
X12446000Y-12636500D03*
X12446000Y-12890500D03*
X14062456Y-12890500D03*
X14062456Y-12636500D03*
X14062456Y-12382500D03*
X14062456Y-12128500D03*
X14062456Y-11874500D03*
X14062456Y-11620500D03*
X14062456Y-11366500D03*
D33*
X13132688Y-12998282D03*
X13387688Y-12998282D03*
D34*
X13132568Y-11297863D03*
X13386568Y-11297863D03*
X13132568Y-11551863D03*
X13386568Y-11551863D03*
%TD*%
D10*
%TO.C,C6*%
X11612500Y-8636000D03*
X11112500Y-8636000D03*
%TD*%
D23*
%TO.C,D1*%
X9029000Y-9998500D03*
X9529000Y-9998500D03*
%TD*%
D28*
%TO.C,R1*%
X9537000Y-9681000D03*
X9719500Y-9681000D03*
%TD*%
M02*
