  0
SECTION
  2
HEADER
  9
$ANGBASE
  50
0.0
  9
$ANGDIR
  70
1
  9
$MEASUREMENT
  70
1
  0
ENDSEC
  0
SECTION
  2
TABLES
  0
TABLE
  2
LTYPE
  70
4
  0
LTYPE
  5
40F
  2
CONTINUOUS
  70
0
  3
Solid line
  72
65
  73
0
  40
0.0
  0
LTYPE
  5
410
  2
DASHDOT
 70
0
  3
Dash Dot ____ _ ____ _
 72
65
 73
4
 40
2.0
 49
1.25
 49
-0.25
 49
0.25
 49
-0.25
  0
LTYPE
  5
411
  2
DASHED
 70
0
  3
Dashed __ __ __ __ __
 72
65
 73
2
 40
0.75
 49
0.5
 49
-0.25
  0
LTYPE
  5
43B
  2
DOTTED
 70
0
  3
Dotted .  .  .  .
 72
65
 73
2
 40
0.2
 49
0.0
 49
-0.2
  0
ENDTAB
  0
TABLE
  2
STYLE
  70
4
  0
STYLE
  2
KICAD
  70
0
  40
0
  41
1
  42
1
  50
0
  71
0
  3
isocp.shx
  0
STYLE
  2
KICADB
  70
0
  40
0
  41
1
  42
1
  50
0
  71
0
  3
isocp.shx
  0
STYLE
  2
KICADI
  70
0
  40
0
  41
1
  42
1
  50
15
  71
0
  3
isocp.shx
  0
STYLE
  2
KICADBI
  70
0
  40
0
  41
1
  42
1
  50
15
  71
0
  3
isocp.shx
  0
ENDTAB
  0
TABLE
  2
LAYER
  70
1
  0
LAYER
  2
BLACK
  70
0
  62
7
  6
CONTINUOUS
  0
ENDTAB
  0
ENDSEC
  0
SECTION
  2
ENTITIES
0
LINE
8
BLACK
6
CONTINUOUS
10
123.496
20
-147.104
11
123.577
21
-147.158
0
LINE
8
BLACK
6
CONTINUOUS
10
123.577
20
-147.158
11
123.631
21
-147.239
0
LINE
8
BLACK
6
CONTINUOUS
10
123.631
20
-147.239
11
123.65
21
-147.335
0
LINE
8
BLACK
6
CONTINUOUS
10
123.65
20
-147.335
11
123.65
21
-148.575
0
LINE
8
BLACK
6
CONTINUOUS
10
123.65
20
-148.575
11
123.631
21
-148.671
0
LINE
8
BLACK
6
CONTINUOUS
10
123.631
20
-148.671
11
123.577
21
-148.752
0
LINE
8
BLACK
6
CONTINUOUS
10
123.577
20
-148.752
11
123.496
21
-148.806
0
LINE
8
BLACK
6
CONTINUOUS
10
123.496
20
-148.806
11
123.4
21
-148.825
0
LINE
8
BLACK
6
CONTINUOUS
10
123.4
20
-148.825
11
121.71
21
-148.825
0
LINE
8
BLACK
6
CONTINUOUS
10
121.71
20
-148.825
11
121.614
21
-148.806
0
LINE
8
BLACK
6
CONTINUOUS
10
121.614
20
-148.806
11
121.533
21
-148.752
0
LINE
8
BLACK
6
CONTINUOUS
10
121.533
20
-148.752
11
121.479
21
-148.671
0
LINE
8
BLACK
6
CONTINUOUS
10
121.479
20
-148.671
11
121.46
21
-148.575
0
LINE
8
BLACK
6
CONTINUOUS
10
121.46
20
-148.575
11
121.46
21
-147.335
0
LINE
8
BLACK
6
CONTINUOUS
10
121.46
20
-147.335
11
121.479
21
-147.239
0
LINE
8
BLACK
6
CONTINUOUS
10
121.479
20
-147.239
11
121.533
21
-147.158
0
LINE
8
BLACK
6
CONTINUOUS
10
121.533
20
-147.158
11
121.614
21
-147.104
0
LINE
8
BLACK
6
CONTINUOUS
10
121.614
20
-147.104
11
121.71
21
-147.085
0
LINE
8
BLACK
6
CONTINUOUS
10
121.71
20
-147.085
11
123.4
21
-147.085
0
LINE
8
BLACK
6
CONTINUOUS
10
123.4
20
-147.085
11
123.496
21
-147.104
0
LINE
8
BLACK
6
CONTINUOUS
10
109.403
20
-145.826
11
109.571
21
-145.886
0
LINE
8
BLACK
6
CONTINUOUS
10
109.571
20
-145.886
11
109.721
21
-145.982
0
LINE
8
BLACK
6
CONTINUOUS
10
109.721
20
-145.982
11
109.847
21
-146.108
0
LINE
8
BLACK
6
CONTINUOUS
10
109.847
20
-146.108
11
109.941
21
-146.259
0
LINE
8
BLACK
6
CONTINUOUS
10
109.941
20
-146.259
11
110
21
-146.428
0
LINE
8
BLACK
6
CONTINUOUS
10
110
20
-146.428
11
110.02
21
-146.605
0
LINE
8
BLACK
6
CONTINUOUS
10
110.02
20
-146.605
11
110.02
21
-146.627
0
LINE
8
BLACK
6
CONTINUOUS
10
110.02
20
-146.627
11
109.995
21
-146.804
0
LINE
8
BLACK
6
CONTINUOUS
10
109.995
20
-146.804
11
109.932
21
-146.971
0
LINE
8
BLACK
6
CONTINUOUS
10
109.932
20
-146.971
11
109.833
21
-147.119
0
LINE
8
BLACK
6
CONTINUOUS
10
109.833
20
-147.119
11
109.704
21
-147.242
0
LINE
8
BLACK
6
CONTINUOUS
10
109.704
20
-147.242
11
109.55
21
-147.334
0
LINE
8
BLACK
6
CONTINUOUS
10
109.55
20
-147.334
11
109.381
21
-147.389
0
LINE
8
BLACK
6
CONTINUOUS
10
109.381
20
-147.389
11
109.203
21
-147.405
0
LINE
8
BLACK
6
CONTINUOUS
10
109.203
20
-147.405
11
109.026
21
-147.381
0
LINE
8
BLACK
6
CONTINUOUS
10
109.026
20
-147.381
11
108.859
21
-147.319
0
LINE
8
BLACK
6
CONTINUOUS
10
108.859
20
-147.319
11
108.71
21
-147.221
0
LINE
8
BLACK
6
CONTINUOUS
10
108.71
20
-147.221
11
108.586
21
-147.093
0
LINE
8
BLACK
6
CONTINUOUS
10
108.586
20
-147.093
11
108.494
21
-146.941
0
LINE
8
BLACK
6
CONTINUOUS
10
108.494
20
-146.941
11
108.437
21
-146.771
0
LINE
8
BLACK
6
CONTINUOUS
10
108.437
20
-146.771
11
108.42
21
-146.594
0
LINE
8
BLACK
6
CONTINUOUS
10
108.42
20
-146.594
11
108.442
21
-146.417
0
LINE
8
BLACK
6
CONTINUOUS
10
108.442
20
-146.417
11
108.503
21
-146.249
0
LINE
8
BLACK
6
CONTINUOUS
10
108.503
20
-146.249
11
108.6
21
-146.099
0
LINE
8
BLACK
6
CONTINUOUS
10
108.6
20
-146.099
11
108.727
21
-145.975
0
LINE
8
BLACK
6
CONTINUOUS
10
108.727
20
-145.975
11
108.879
21
-145.881
0
LINE
8
BLACK
6
CONTINUOUS
10
108.879
20
-145.881
11
109.048
21
-145.824
0
LINE
8
BLACK
6
CONTINUOUS
10
109.048
20
-145.824
11
109.226
21
-145.805
0
LINE
8
BLACK
6
CONTINUOUS
10
109.226
20
-145.805
11
109.403
21
-145.826
0
LINE
8
BLACK
6
CONTINUOUS
10
122.877
20
-144.55
11
123.06
21
-144.591
0
LINE
8
BLACK
6
CONTINUOUS
10
123.06
20
-144.591
11
123.231
21
-144.671
0
LINE
8
BLACK
6
CONTINUOUS
10
123.231
20
-144.671
11
123.38
21
-144.785
0
LINE
8
BLACK
6
CONTINUOUS
10
123.38
20
-144.785
11
123.501
21
-144.929
0
LINE
8
BLACK
6
CONTINUOUS
10
123.501
20
-144.929
11
123.589
21
-145.095
0
LINE
8
BLACK
6
CONTINUOUS
10
123.589
20
-145.095
11
123.639
21
-145.276
0
LINE
8
BLACK
6
CONTINUOUS
10
123.639
20
-145.276
11
123.649
21
-145.464
0
LINE
8
BLACK
6
CONTINUOUS
10
123.649
20
-145.464
11
123.618
21
-145.649
0
LINE
8
BLACK
6
CONTINUOUS
10
123.618
20
-145.649
11
123.548
21
-145.823
0
LINE
8
BLACK
6
CONTINUOUS
10
123.548
20
-145.823
11
123.443
21
-145.979
0
LINE
8
BLACK
6
CONTINUOUS
10
123.443
20
-145.979
11
123.306
21
-146.108
0
LINE
8
BLACK
6
CONTINUOUS
10
123.306
20
-146.108
11
123.145
21
-146.205
0
LINE
8
BLACK
6
CONTINUOUS
10
123.145
20
-146.205
11
122.967
21
-146.265
0
LINE
8
BLACK
6
CONTINUOUS
10
122.967
20
-146.265
11
122.78
21
-146.285
0
LINE
8
BLACK
6
CONTINUOUS
10
122.78
20
-146.285
11
122.33
21
-146.285
0
LINE
8
BLACK
6
CONTINUOUS
10
122.33
20
-146.285
11
122.233
21
-146.28
0
LINE
8
BLACK
6
CONTINUOUS
10
122.233
20
-146.28
11
122.05
21
-146.239
0
LINE
8
BLACK
6
CONTINUOUS
10
122.05
20
-146.239
11
121.879
21
-146.159
0
LINE
8
BLACK
6
CONTINUOUS
10
121.879
20
-146.159
11
121.73
21
-146.045
0
LINE
8
BLACK
6
CONTINUOUS
10
121.73
20
-146.045
11
121.609
21
-145.901
0
LINE
8
BLACK
6
CONTINUOUS
10
121.609
20
-145.901
11
121.521
21
-145.735
0
LINE
8
BLACK
6
CONTINUOUS
10
121.521
20
-145.735
11
121.471
21
-145.554
0
LINE
8
BLACK
6
CONTINUOUS
10
121.471
20
-145.554
11
121.461
21
-145.366
0
LINE
8
BLACK
6
CONTINUOUS
10
121.461
20
-145.366
11
121.492
21
-145.181
0
LINE
8
BLACK
6
CONTINUOUS
10
121.492
20
-145.181
11
121.562
21
-145.007
0
LINE
8
BLACK
6
CONTINUOUS
10
121.562
20
-145.007
11
121.667
21
-144.851
0
LINE
8
BLACK
6
CONTINUOUS
10
121.667
20
-144.851
11
121.804
21
-144.722
0
LINE
8
BLACK
6
CONTINUOUS
10
121.804
20
-144.722
11
121.965
21
-144.625
0
LINE
8
BLACK
6
CONTINUOUS
10
121.965
20
-144.625
11
122.143
21
-144.565
0
LINE
8
BLACK
6
CONTINUOUS
10
122.143
20
-144.565
11
122.33
21
-144.545
0
LINE
8
BLACK
6
CONTINUOUS
10
122.33
20
-144.545
11
122.78
21
-144.545
0
LINE
8
BLACK
6
CONTINUOUS
10
122.78
20
-144.545
11
122.877
21
-144.55
0
LINE
8
BLACK
6
CONTINUOUS
10
122.877
20
-142.01
11
123.06
21
-142.051
0
LINE
8
BLACK
6
CONTINUOUS
10
123.06
20
-142.051
11
123.231
21
-142.131
0
LINE
8
BLACK
6
CONTINUOUS
10
123.231
20
-142.131
11
123.38
21
-142.245
0
LINE
8
BLACK
6
CONTINUOUS
10
123.38
20
-142.245
11
123.501
21
-142.389
0
LINE
8
BLACK
6
CONTINUOUS
10
123.501
20
-142.389
11
123.589
21
-142.555
0
LINE
8
BLACK
6
CONTINUOUS
10
123.589
20
-142.555
11
123.639
21
-142.736
0
LINE
8
BLACK
6
CONTINUOUS
10
123.639
20
-142.736
11
123.649
21
-142.924
0
LINE
8
BLACK
6
CONTINUOUS
10
123.649
20
-142.924
11
123.618
21
-143.109
0
LINE
8
BLACK
6
CONTINUOUS
10
123.618
20
-143.109
11
123.548
21
-143.283
0
LINE
8
BLACK
6
CONTINUOUS
10
123.548
20
-143.283
11
123.443
21
-143.439
0
LINE
8
BLACK
6
CONTINUOUS
10
123.443
20
-143.439
11
123.306
21
-143.568
0
LINE
8
BLACK
6
CONTINUOUS
10
123.306
20
-143.568
11
123.145
21
-143.665
0
LINE
8
BLACK
6
CONTINUOUS
10
123.145
20
-143.665
11
122.967
21
-143.725
0
LINE
8
BLACK
6
CONTINUOUS
10
122.967
20
-143.725
11
122.78
21
-143.745
0
LINE
8
BLACK
6
CONTINUOUS
10
122.78
20
-143.745
11
122.33
21
-143.745
0
LINE
8
BLACK
6
CONTINUOUS
10
122.33
20
-143.745
11
122.233
21
-143.74
0
LINE
8
BLACK
6
CONTINUOUS
10
122.233
20
-143.74
11
122.05
21
-143.699
0
LINE
8
BLACK
6
CONTINUOUS
10
122.05
20
-143.699
11
121.879
21
-143.619
0
LINE
8
BLACK
6
CONTINUOUS
10
121.879
20
-143.619
11
121.73
21
-143.505
0
LINE
8
BLACK
6
CONTINUOUS
10
121.73
20
-143.505
11
121.609
21
-143.361
0
LINE
8
BLACK
6
CONTINUOUS
10
121.609
20
-143.361
11
121.521
21
-143.195
0
LINE
8
BLACK
6
CONTINUOUS
10
121.521
20
-143.195
11
121.471
21
-143.014
0
LINE
8
BLACK
6
CONTINUOUS
10
121.471
20
-143.014
11
121.461
21
-142.826
0
LINE
8
BLACK
6
CONTINUOUS
10
121.461
20
-142.826
11
121.492
21
-142.641
0
LINE
8
BLACK
6
CONTINUOUS
10
121.492
20
-142.641
11
121.562
21
-142.467
0
LINE
8
BLACK
6
CONTINUOUS
10
121.562
20
-142.467
11
121.667
21
-142.311
0
LINE
8
BLACK
6
CONTINUOUS
10
121.667
20
-142.311
11
121.804
21
-142.182
0
LINE
8
BLACK
6
CONTINUOUS
10
121.804
20
-142.182
11
121.965
21
-142.085
0
LINE
8
BLACK
6
CONTINUOUS
10
121.965
20
-142.085
11
122.143
21
-142.025
0
LINE
8
BLACK
6
CONTINUOUS
10
122.143
20
-142.025
11
122.33
21
-142.005
0
LINE
8
BLACK
6
CONTINUOUS
10
122.33
20
-142.005
11
122.78
21
-142.005
0
LINE
8
BLACK
6
CONTINUOUS
10
122.78
20
-142.005
11
122.877
21
-142.01
0
LINE
8
BLACK
6
CONTINUOUS
10
109.403
20
-140.826
11
109.571
21
-140.886
0
LINE
8
BLACK
6
CONTINUOUS
10
109.571
20
-140.886
11
109.721
21
-140.982
0
LINE
8
BLACK
6
CONTINUOUS
10
109.721
20
-140.982
11
109.847
21
-141.108
0
LINE
8
BLACK
6
CONTINUOUS
10
109.847
20
-141.108
11
109.941
21
-141.259
0
LINE
8
BLACK
6
CONTINUOUS
10
109.941
20
-141.259
11
110
21
-141.428
0
LINE
8
BLACK
6
CONTINUOUS
10
110
20
-141.428
11
110.02
21
-141.605
0
LINE
8
BLACK
6
CONTINUOUS
10
110.02
20
-141.605
11
110.02
21
-141.627
0
LINE
8
BLACK
6
CONTINUOUS
10
110.02
20
-141.627
11
109.995
21
-141.804
0
LINE
8
BLACK
6
CONTINUOUS
10
109.995
20
-141.804
11
109.932
21
-141.971
0
LINE
8
BLACK
6
CONTINUOUS
10
109.932
20
-141.971
11
109.833
21
-142.119
0
LINE
8
BLACK
6
CONTINUOUS
10
109.833
20
-142.119
11
109.704
21
-142.242
0
LINE
8
BLACK
6
CONTINUOUS
10
109.704
20
-142.242
11
109.55
21
-142.334
0
LINE
8
BLACK
6
CONTINUOUS
10
109.55
20
-142.334
11
109.381
21
-142.389
0
LINE
8
BLACK
6
CONTINUOUS
10
109.381
20
-142.389
11
109.203
21
-142.405
0
LINE
8
BLACK
6
CONTINUOUS
10
109.203
20
-142.405
11
109.026
21
-142.381
0
LINE
8
BLACK
6
CONTINUOUS
10
109.026
20
-142.381
11
108.859
21
-142.319
0
LINE
8
BLACK
6
CONTINUOUS
10
108.859
20
-142.319
11
108.71
21
-142.221
0
LINE
8
BLACK
6
CONTINUOUS
10
108.71
20
-142.221
11
108.586
21
-142.093
0
LINE
8
BLACK
6
CONTINUOUS
10
108.586
20
-142.093
11
108.494
21
-141.941
0
LINE
8
BLACK
6
CONTINUOUS
10
108.494
20
-141.941
11
108.437
21
-141.771
0
LINE
8
BLACK
6
CONTINUOUS
10
108.437
20
-141.771
11
108.42
21
-141.594
0
LINE
8
BLACK
6
CONTINUOUS
10
108.42
20
-141.594
11
108.442
21
-141.417
0
LINE
8
BLACK
6
CONTINUOUS
10
108.442
20
-141.417
11
108.503
21
-141.249
0
LINE
8
BLACK
6
CONTINUOUS
10
108.503
20
-141.249
11
108.6
21
-141.099
0
LINE
8
BLACK
6
CONTINUOUS
10
108.6
20
-141.099
11
108.727
21
-140.975
0
LINE
8
BLACK
6
CONTINUOUS
10
108.727
20
-140.975
11
108.879
21
-140.881
0
LINE
8
BLACK
6
CONTINUOUS
10
108.879
20
-140.881
11
109.048
21
-140.824
0
LINE
8
BLACK
6
CONTINUOUS
10
109.048
20
-140.824
11
109.226
21
-140.805
0
LINE
8
BLACK
6
CONTINUOUS
10
109.226
20
-140.805
11
109.403
21
-140.826
0
LINE
8
BLACK
6
CONTINUOUS
10
136.12
20
-139.93
11
133.12
21
-139.93
0
LINE
8
BLACK
6
CONTINUOUS
10
133.12
20
-139.93
11
133.12
21
-136.93
0
LINE
8
BLACK
6
CONTINUOUS
10
133.12
20
-136.93
11
136.12
21
-136.93
0
LINE
8
BLACK
6
CONTINUOUS
10
136.12
20
-136.93
11
136.12
21
-139.93
0
LINE
8
BLACK
6
CONTINUOUS
10
139.841
20
-136.937
11
140.083
21
-136.98
0
LINE
8
BLACK
6
CONTINUOUS
10
140.083
20
-136.98
11
140.315
21
-137.062
0
LINE
8
BLACK
6
CONTINUOUS
10
140.315
20
-137.062
11
140.53
21
-137.181
0
LINE
8
BLACK
6
CONTINUOUS
10
140.53
20
-137.181
11
140.723
21
-137.333
0
LINE
8
BLACK
6
CONTINUOUS
10
140.723
20
-137.333
11
140.888
21
-137.515
0
LINE
8
BLACK
6
CONTINUOUS
10
140.888
20
-137.515
11
141.022
21
-137.721
0
LINE
8
BLACK
6
CONTINUOUS
10
141.022
20
-137.721
11
141.12
21
-137.947
0
LINE
8
BLACK
6
CONTINUOUS
10
141.12
20
-137.947
11
141.18
21
-138.185
0
LINE
8
BLACK
6
CONTINUOUS
10
141.18
20
-138.185
11
141.2
21
-138.43
0
LINE
8
BLACK
6
CONTINUOUS
10
141.2
20
-138.43
11
141.198
21
-138.503
0
LINE
8
BLACK
6
CONTINUOUS
10
141.198
20
-138.503
11
141.166
21
-138.747
0
LINE
8
BLACK
6
CONTINUOUS
10
141.166
20
-138.747
11
141.095
21
-138.982
0
LINE
8
BLACK
6
CONTINUOUS
10
141.095
20
-138.982
11
140.986
21
-139.203
0
LINE
8
BLACK
6
CONTINUOUS
10
140.986
20
-139.203
11
140.842
21
-139.402
0
LINE
8
BLACK
6
CONTINUOUS
10
140.842
20
-139.402
11
140.668
21
-139.576
0
LINE
8
BLACK
6
CONTINUOUS
10
140.668
20
-139.576
11
140.468
21
-139.718
0
LINE
8
BLACK
6
CONTINUOUS
10
140.468
20
-139.718
11
140.247
21
-139.827
0
LINE
8
BLACK
6
CONTINUOUS
10
140.247
20
-139.827
11
140.012
21
-139.897
0
LINE
8
BLACK
6
CONTINUOUS
10
140.012
20
-139.897
11
139.768
21
-139.928
0
LINE
8
BLACK
6
CONTINUOUS
10
139.768
20
-139.928
11
139.522
21
-139.919
0
LINE
8
BLACK
6
CONTINUOUS
10
139.522
20
-139.919
11
139.282
21
-139.87
0
LINE
8
BLACK
6
CONTINUOUS
10
139.282
20
-139.87
11
139.052
21
-139.783
0
LINE
8
BLACK
6
CONTINUOUS
10
139.052
20
-139.783
11
138.84
21
-139.659
0
LINE
8
BLACK
6
CONTINUOUS
10
138.84
20
-139.659
11
138.651
21
-139.502
0
LINE
8
BLACK
6
CONTINUOUS
10
138.651
20
-139.502
11
138.49
21
-139.316
0
LINE
8
BLACK
6
CONTINUOUS
10
138.49
20
-139.316
11
138.361
21
-139.106
0
LINE
8
BLACK
6
CONTINUOUS
10
138.361
20
-139.106
11
138.269
21
-138.879
0
LINE
8
BLACK
6
CONTINUOUS
10
138.269
20
-138.879
11
138.215
21
-138.639
0
LINE
8
BLACK
6
CONTINUOUS
10
138.215
20
-138.639
11
138.2
21
-138.393
0
LINE
8
BLACK
6
CONTINUOUS
10
138.2
20
-138.393
11
138.227
21
-138.149
0
LINE
8
BLACK
6
CONTINUOUS
10
138.227
20
-138.149
11
138.292
21
-137.912
0
LINE
8
BLACK
6
CONTINUOUS
10
138.292
20
-137.912
11
138.396
21
-137.689
0
LINE
8
BLACK
6
CONTINUOUS
10
138.396
20
-137.689
11
138.534
21
-137.486
0
LINE
8
BLACK
6
CONTINUOUS
10
138.534
20
-137.486
11
138.704
21
-137.308
0
LINE
8
BLACK
6
CONTINUOUS
10
138.704
20
-137.308
11
138.901
21
-137.161
0
LINE
8
BLACK
6
CONTINUOUS
10
138.901
20
-137.161
11
139.119
21
-137.047
0
LINE
8
BLACK
6
CONTINUOUS
10
139.119
20
-137.047
11
139.352
21
-136.971
0
LINE
8
BLACK
6
CONTINUOUS
10
139.352
20
-136.971
11
139.595
21
-136.934
0
LINE
8
BLACK
6
CONTINUOUS
10
139.595
20
-136.934
11
139.841
21
-136.937
0
LINE
8
BLACK
6
CONTINUOUS
10
148.853
20
-137.651
11
149.021
21
-137.711
0
LINE
8
BLACK
6
CONTINUOUS
10
149.021
20
-137.711
11
149.171
21
-137.807
0
LINE
8
BLACK
6
CONTINUOUS
10
149.171
20
-137.807
11
149.297
21
-137.933
0
LINE
8
BLACK
6
CONTINUOUS
10
149.297
20
-137.933
11
149.391
21
-138.084
0
LINE
8
BLACK
6
CONTINUOUS
10
149.391
20
-138.084
11
149.45
21
-138.253
0
LINE
8
BLACK
6
CONTINUOUS
10
149.45
20
-138.253
11
149.47
21
-138.43
0
LINE
8
BLACK
6
CONTINUOUS
10
149.47
20
-138.43
11
149.47
21
-138.452
0
LINE
8
BLACK
6
CONTINUOUS
10
149.47
20
-138.452
11
149.445
21
-138.629
0
LINE
8
BLACK
6
CONTINUOUS
10
149.445
20
-138.629
11
149.382
21
-138.796
0
LINE
8
BLACK
6
CONTINUOUS
10
149.382
20
-138.796
11
149.283
21
-138.944
0
LINE
8
BLACK
6
CONTINUOUS
10
149.283
20
-138.944
11
149.154
21
-139.067
0
LINE
8
BLACK
6
CONTINUOUS
10
149.154
20
-139.067
11
149
21
-139.159
0
LINE
8
BLACK
6
CONTINUOUS
10
149
20
-139.159
11
148.831
21
-139.214
0
LINE
8
BLACK
6
CONTINUOUS
10
148.831
20
-139.214
11
148.653
21
-139.23
0
LINE
8
BLACK
6
CONTINUOUS
10
148.653
20
-139.23
11
148.476
21
-139.206
0
LINE
8
BLACK
6
CONTINUOUS
10
148.476
20
-139.206
11
148.309
21
-139.144
0
LINE
8
BLACK
6
CONTINUOUS
10
148.309
20
-139.144
11
148.16
21
-139.046
0
LINE
8
BLACK
6
CONTINUOUS
10
148.16
20
-139.046
11
148.036
21
-138.918
0
LINE
8
BLACK
6
CONTINUOUS
10
148.036
20
-138.918
11
147.944
21
-138.766
0
LINE
8
BLACK
6
CONTINUOUS
10
147.944
20
-138.766
11
147.887
21
-138.596
0
LINE
8
BLACK
6
CONTINUOUS
10
147.887
20
-138.596
11
147.87
21
-138.419
0
LINE
8
BLACK
6
CONTINUOUS
10
147.87
20
-138.419
11
147.892
21
-138.242
0
LINE
8
BLACK
6
CONTINUOUS
10
147.892
20
-138.242
11
147.953
21
-138.074
0
LINE
8
BLACK
6
CONTINUOUS
10
147.953
20
-138.074
11
148.05
21
-137.924
0
LINE
8
BLACK
6
CONTINUOUS
10
148.05
20
-137.924
11
148.177
21
-137.8
0
LINE
8
BLACK
6
CONTINUOUS
10
148.177
20
-137.8
11
148.329
21
-137.706
0
LINE
8
BLACK
6
CONTINUOUS
10
148.329
20
-137.706
11
148.498
21
-137.649
0
LINE
8
BLACK
6
CONTINUOUS
10
148.498
20
-137.649
11
148.676
21
-137.63
0
LINE
8
BLACK
6
CONTINUOUS
10
148.676
20
-137.63
11
148.853
21
-137.651
0
LINE
8
BLACK
6
CONTINUOUS
10
153.853
20
-137.651
11
154.021
21
-137.711
0
LINE
8
BLACK
6
CONTINUOUS
10
154.021
20
-137.711
11
154.171
21
-137.807
0
LINE
8
BLACK
6
CONTINUOUS
10
154.171
20
-137.807
11
154.297
21
-137.933
0
LINE
8
BLACK
6
CONTINUOUS
10
154.297
20
-137.933
11
154.391
21
-138.084
0
LINE
8
BLACK
6
CONTINUOUS
10
154.391
20
-138.084
11
154.45
21
-138.253
0
LINE
8
BLACK
6
CONTINUOUS
10
154.45
20
-138.253
11
154.47
21
-138.43
0
LINE
8
BLACK
6
CONTINUOUS
10
154.47
20
-138.43
11
154.47
21
-138.452
0
LINE
8
BLACK
6
CONTINUOUS
10
154.47
20
-138.452
11
154.445
21
-138.629
0
LINE
8
BLACK
6
CONTINUOUS
10
154.445
20
-138.629
11
154.382
21
-138.796
0
LINE
8
BLACK
6
CONTINUOUS
10
154.382
20
-138.796
11
154.283
21
-138.944
0
LINE
8
BLACK
6
CONTINUOUS
10
154.283
20
-138.944
11
154.154
21
-139.067
0
LINE
8
BLACK
6
CONTINUOUS
10
154.154
20
-139.067
11
154
21
-139.159
0
LINE
8
BLACK
6
CONTINUOUS
10
154
20
-139.159
11
153.831
21
-139.214
0
LINE
8
BLACK
6
CONTINUOUS
10
153.831
20
-139.214
11
153.653
21
-139.23
0
LINE
8
BLACK
6
CONTINUOUS
10
153.653
20
-139.23
11
153.476
21
-139.206
0
LINE
8
BLACK
6
CONTINUOUS
10
153.476
20
-139.206
11
153.309
21
-139.144
0
LINE
8
BLACK
6
CONTINUOUS
10
153.309
20
-139.144
11
153.16
21
-139.046
0
LINE
8
BLACK
6
CONTINUOUS
10
153.16
20
-139.046
11
153.036
21
-138.918
0
LINE
8
BLACK
6
CONTINUOUS
10
153.036
20
-138.918
11
152.944
21
-138.766
0
LINE
8
BLACK
6
CONTINUOUS
10
152.944
20
-138.766
11
152.887
21
-138.596
0
LINE
8
BLACK
6
CONTINUOUS
10
152.887
20
-138.596
11
152.87
21
-138.419
0
LINE
8
BLACK
6
CONTINUOUS
10
152.87
20
-138.419
11
152.892
21
-138.242
0
LINE
8
BLACK
6
CONTINUOUS
10
152.892
20
-138.242
11
152.953
21
-138.074
0
LINE
8
BLACK
6
CONTINUOUS
10
152.953
20
-138.074
11
153.05
21
-137.924
0
LINE
8
BLACK
6
CONTINUOUS
10
153.05
20
-137.924
11
153.177
21
-137.8
0
LINE
8
BLACK
6
CONTINUOUS
10
153.177
20
-137.8
11
153.329
21
-137.706
0
LINE
8
BLACK
6
CONTINUOUS
10
153.329
20
-137.706
11
153.498
21
-137.649
0
LINE
8
BLACK
6
CONTINUOUS
10
153.498
20
-137.649
11
153.676
21
-137.63
0
LINE
8
BLACK
6
CONTINUOUS
10
153.676
20
-137.63
11
153.853
21
-137.651
0
LINE
8
BLACK
6
CONTINUOUS
10
106.863
20
-131.301
11
107.031
21
-131.361
0
LINE
8
BLACK
6
CONTINUOUS
10
107.031
20
-131.361
11
107.181
21
-131.457
0
LINE
8
BLACK
6
CONTINUOUS
10
107.181
20
-131.457
11
107.307
21
-131.583
0
LINE
8
BLACK
6
CONTINUOUS
10
107.307
20
-131.583
11
107.401
21
-131.734
0
LINE
8
BLACK
6
CONTINUOUS
10
107.401
20
-131.734
11
107.46
21
-131.903
0
LINE
8
BLACK
6
CONTINUOUS
10
107.46
20
-131.903
11
107.48
21
-132.08
0
LINE
8
BLACK
6
CONTINUOUS
10
107.48
20
-132.08
11
107.48
21
-132.102
0
LINE
8
BLACK
6
CONTINUOUS
10
107.48
20
-132.102
11
107.455
21
-132.279
0
LINE
8
BLACK
6
CONTINUOUS
10
107.455
20
-132.279
11
107.392
21
-132.446
0
LINE
8
BLACK
6
CONTINUOUS
10
107.392
20
-132.446
11
107.293
21
-132.594
0
LINE
8
BLACK
6
CONTINUOUS
10
107.293
20
-132.594
11
107.164
21
-132.717
0
LINE
8
BLACK
6
CONTINUOUS
10
107.164
20
-132.717
11
107.01
21
-132.809
0
LINE
8
BLACK
6
CONTINUOUS
10
107.01
20
-132.809
11
106.841
21
-132.864
0
LINE
8
BLACK
6
CONTINUOUS
10
106.841
20
-132.864
11
106.663
21
-132.88
0
LINE
8
BLACK
6
CONTINUOUS
10
106.663
20
-132.88
11
106.486
21
-132.856
0
LINE
8
BLACK
6
CONTINUOUS
10
106.486
20
-132.856
11
106.319
21
-132.794
0
LINE
8
BLACK
6
CONTINUOUS
10
106.319
20
-132.794
11
106.17
21
-132.696
0
LINE
8
BLACK
6
CONTINUOUS
10
106.17
20
-132.696
11
106.046
21
-132.568
0
LINE
8
BLACK
6
CONTINUOUS
10
106.046
20
-132.568
11
105.954
21
-132.416
0
LINE
8
BLACK
6
CONTINUOUS
10
105.954
20
-132.416
11
105.897
21
-132.246
0
LINE
8
BLACK
6
CONTINUOUS
10
105.897
20
-132.246
11
105.88
21
-132.069
0
LINE
8
BLACK
6
CONTINUOUS
10
105.88
20
-132.069
11
105.902
21
-131.892
0
LINE
8
BLACK
6
CONTINUOUS
10
105.902
20
-131.892
11
105.963
21
-131.724
0
LINE
8
BLACK
6
CONTINUOUS
10
105.963
20
-131.724
11
106.06
21
-131.574
0
LINE
8
BLACK
6
CONTINUOUS
10
106.06
20
-131.574
11
106.187
21
-131.45
0
LINE
8
BLACK
6
CONTINUOUS
10
106.187
20
-131.45
11
106.339
21
-131.356
0
LINE
8
BLACK
6
CONTINUOUS
10
106.339
20
-131.356
11
106.508
21
-131.299
0
LINE
8
BLACK
6
CONTINUOUS
10
106.508
20
-131.299
11
106.686
21
-131.28
0
LINE
8
BLACK
6
CONTINUOUS
10
106.686
20
-131.28
11
106.863
21
-131.301
0
LINE
8
BLACK
6
CONTINUOUS
10
111.863
20
-131.301
11
112.031
21
-131.361
0
LINE
8
BLACK
6
CONTINUOUS
10
112.031
20
-131.361
11
112.181
21
-131.457
0
LINE
8
BLACK
6
CONTINUOUS
10
112.181
20
-131.457
11
112.307
21
-131.583
0
LINE
8
BLACK
6
CONTINUOUS
10
112.307
20
-131.583
11
112.401
21
-131.734
0
LINE
8
BLACK
6
CONTINUOUS
10
112.401
20
-131.734
11
112.46
21
-131.903
0
LINE
8
BLACK
6
CONTINUOUS
10
112.46
20
-131.903
11
112.48
21
-132.08
0
LINE
8
BLACK
6
CONTINUOUS
10
112.48
20
-132.08
11
112.48
21
-132.102
0
LINE
8
BLACK
6
CONTINUOUS
10
112.48
20
-132.102
11
112.455
21
-132.279
0
LINE
8
BLACK
6
CONTINUOUS
10
112.455
20
-132.279
11
112.392
21
-132.446
0
LINE
8
BLACK
6
CONTINUOUS
10
112.392
20
-132.446
11
112.293
21
-132.594
0
LINE
8
BLACK
6
CONTINUOUS
10
112.293
20
-132.594
11
112.164
21
-132.717
0
LINE
8
BLACK
6
CONTINUOUS
10
112.164
20
-132.717
11
112.01
21
-132.809
0
LINE
8
BLACK
6
CONTINUOUS
10
112.01
20
-132.809
11
111.841
21
-132.864
0
LINE
8
BLACK
6
CONTINUOUS
10
111.841
20
-132.864
11
111.663
21
-132.88
0
LINE
8
BLACK
6
CONTINUOUS
10
111.663
20
-132.88
11
111.486
21
-132.856
0
LINE
8
BLACK
6
CONTINUOUS
10
111.486
20
-132.856
11
111.319
21
-132.794
0
LINE
8
BLACK
6
CONTINUOUS
10
111.319
20
-132.794
11
111.17
21
-132.696
0
LINE
8
BLACK
6
CONTINUOUS
10
111.17
20
-132.696
11
111.046
21
-132.568
0
LINE
8
BLACK
6
CONTINUOUS
10
111.046
20
-132.568
11
110.954
21
-132.416
0
LINE
8
BLACK
6
CONTINUOUS
10
110.954
20
-132.416
11
110.897
21
-132.246
0
LINE
8
BLACK
6
CONTINUOUS
10
110.897
20
-132.246
11
110.88
21
-132.069
0
LINE
8
BLACK
6
CONTINUOUS
10
110.88
20
-132.069
11
110.902
21
-131.892
0
LINE
8
BLACK
6
CONTINUOUS
10
110.902
20
-131.892
11
110.963
21
-131.724
0
LINE
8
BLACK
6
CONTINUOUS
10
110.963
20
-131.724
11
111.06
21
-131.574
0
LINE
8
BLACK
6
CONTINUOUS
10
111.06
20
-131.574
11
111.187
21
-131.45
0
LINE
8
BLACK
6
CONTINUOUS
10
111.187
20
-131.45
11
111.339
21
-131.356
0
LINE
8
BLACK
6
CONTINUOUS
10
111.339
20
-131.356
11
111.508
21
-131.299
0
LINE
8
BLACK
6
CONTINUOUS
10
111.508
20
-131.299
11
111.686
21
-131.28
0
LINE
8
BLACK
6
CONTINUOUS
10
111.686
20
-131.28
11
111.863
21
-131.301
0
LINE
8
BLACK
6
CONTINUOUS
10
149.3
20
-125.94
11
147.5
21
-125.94
0
LINE
8
BLACK
6
CONTINUOUS
10
147.5
20
-125.94
11
147.5
21
-124.87
0
LINE
8
BLACK
6
CONTINUOUS
10
147.5
20
-124.87
11
149.3
21
-124.87
0
LINE
8
BLACK
6
CONTINUOUS
10
149.3
20
-124.87
11
149.3
21
-125.94
0
LINE
8
BLACK
6
CONTINUOUS
10
148.843
20
-123.605
11
148.983
21
-123.646
0
LINE
8
BLACK
6
CONTINUOUS
10
148.983
20
-123.646
11
149.106
21
-123.722
0
LINE
8
BLACK
6
CONTINUOUS
10
149.106
20
-123.722
11
149.204
21
-123.829
0
LINE
8
BLACK
6
CONTINUOUS
10
149.204
20
-123.829
11
149.27
21
-123.959
0
LINE
8
BLACK
6
CONTINUOUS
10
149.27
20
-123.959
11
149.299
21
-124.101
0
LINE
8
BLACK
6
CONTINUOUS
10
149.299
20
-124.101
11
149.288
21
-124.246
0
LINE
8
BLACK
6
CONTINUOUS
10
149.288
20
-124.246
11
149.239
21
-124.383
0
LINE
8
BLACK
6
CONTINUOUS
10
149.239
20
-124.383
11
149.155
21
-124.501
0
LINE
8
BLACK
6
CONTINUOUS
10
149.155
20
-124.501
11
149.042
21
-124.592
0
LINE
8
BLACK
6
CONTINUOUS
10
149.042
20
-124.592
11
148.909
21
-124.65
0
LINE
8
BLACK
6
CONTINUOUS
10
148.909
20
-124.65
11
148.765
21
-124.67
0
LINE
8
BLACK
6
CONTINUOUS
10
148.765
20
-124.67
11
148.035
21
-124.67
0
LINE
8
BLACK
6
CONTINUOUS
10
148.035
20
-124.67
11
147.957
21
-124.664
0
LINE
8
BLACK
6
CONTINUOUS
10
147.957
20
-124.664
11
147.817
21
-124.623
0
LINE
8
BLACK
6
CONTINUOUS
10
147.817
20
-124.623
11
147.694
21
-124.547
0
LINE
8
BLACK
6
CONTINUOUS
10
147.694
20
-124.547
11
147.596
21
-124.44
0
LINE
8
BLACK
6
CONTINUOUS
10
147.596
20
-124.44
11
147.53
21
-124.311
0
LINE
8
BLACK
6
CONTINUOUS
10
147.53
20
-124.311
11
147.501
21
-124.168
0
LINE
8
BLACK
6
CONTINUOUS
10
147.501
20
-124.168
11
147.512
21
-124.023
0
LINE
8
BLACK
6
CONTINUOUS
10
147.512
20
-124.023
11
147.561
21
-123.887
0
LINE
8
BLACK
6
CONTINUOUS
10
147.561
20
-123.887
11
147.645
21
-123.768
0
LINE
8
BLACK
6
CONTINUOUS
10
147.645
20
-123.768
11
147.758
21
-123.677
0
LINE
8
BLACK
6
CONTINUOUS
10
147.758
20
-123.677
11
147.891
21
-123.619
0
LINE
8
BLACK
6
CONTINUOUS
10
147.891
20
-123.619
11
148.035
21
-123.6
0
LINE
8
BLACK
6
CONTINUOUS
10
148.035
20
-123.6
11
148.765
21
-123.6
0
LINE
8
BLACK
6
CONTINUOUS
10
148.765
20
-123.6
11
148.843
21
-123.605
0
LINE
8
BLACK
6
CONTINUOUS
10
148.843
20
-122.335
11
148.983
21
-122.376
0
LINE
8
BLACK
6
CONTINUOUS
10
148.983
20
-122.376
11
149.106
21
-122.452
0
LINE
8
BLACK
6
CONTINUOUS
10
149.106
20
-122.452
11
149.204
21
-122.559
0
LINE
8
BLACK
6
CONTINUOUS
10
149.204
20
-122.559
11
149.27
21
-122.689
0
LINE
8
BLACK
6
CONTINUOUS
10
149.27
20
-122.689
11
149.299
21
-122.831
0
LINE
8
BLACK
6
CONTINUOUS
10
149.299
20
-122.831
11
149.288
21
-122.976
0
LINE
8
BLACK
6
CONTINUOUS
10
149.288
20
-122.976
11
149.239
21
-123.113
0
LINE
8
BLACK
6
CONTINUOUS
10
149.239
20
-123.113
11
149.155
21
-123.231
0
LINE
8
BLACK
6
CONTINUOUS
10
149.155
20
-123.231
11
149.042
21
-123.322
0
LINE
8
BLACK
6
CONTINUOUS
10
149.042
20
-123.322
11
148.909
21
-123.38
0
LINE
8
BLACK
6
CONTINUOUS
10
148.909
20
-123.38
11
148.765
21
-123.4
0
LINE
8
BLACK
6
CONTINUOUS
10
148.765
20
-123.4
11
148.035
21
-123.4
0
LINE
8
BLACK
6
CONTINUOUS
10
148.035
20
-123.4
11
147.957
21
-123.394
0
LINE
8
BLACK
6
CONTINUOUS
10
147.957
20
-123.394
11
147.817
21
-123.353
0
LINE
8
BLACK
6
CONTINUOUS
10
147.817
20
-123.353
11
147.694
21
-123.277
0
LINE
8
BLACK
6
CONTINUOUS
10
147.694
20
-123.277
11
147.596
21
-123.17
0
LINE
8
BLACK
6
CONTINUOUS
10
147.596
20
-123.17
11
147.53
21
-123.041
0
LINE
8
BLACK
6
CONTINUOUS
10
147.53
20
-123.041
11
147.501
21
-122.898
0
LINE
8
BLACK
6
CONTINUOUS
10
147.501
20
-122.898
11
147.512
21
-122.753
0
LINE
8
BLACK
6
CONTINUOUS
10
147.512
20
-122.753
11
147.561
21
-122.617
0
LINE
8
BLACK
6
CONTINUOUS
10
147.561
20
-122.617
11
147.645
21
-122.498
0
LINE
8
BLACK
6
CONTINUOUS
10
147.645
20
-122.498
11
147.758
21
-122.407
0
LINE
8
BLACK
6
CONTINUOUS
10
147.758
20
-122.407
11
147.891
21
-122.349
0
LINE
8
BLACK
6
CONTINUOUS
10
147.891
20
-122.349
11
148.035
21
-122.33
0
LINE
8
BLACK
6
CONTINUOUS
10
148.035
20
-122.33
11
148.765
21
-122.33
0
LINE
8
BLACK
6
CONTINUOUS
10
148.765
20
-122.33
11
148.843
21
-122.335
0
LINE
8
BLACK
6
CONTINUOUS
10
106.863
20
-121.141
11
107.031
21
-121.201
0
LINE
8
BLACK
6
CONTINUOUS
10
107.031
20
-121.201
11
107.181
21
-121.297
0
LINE
8
BLACK
6
CONTINUOUS
10
107.181
20
-121.297
11
107.307
21
-121.423
0
LINE
8
BLACK
6
CONTINUOUS
10
107.307
20
-121.423
11
107.401
21
-121.574
0
LINE
8
BLACK
6
CONTINUOUS
10
107.401
20
-121.574
11
107.46
21
-121.743
0
LINE
8
BLACK
6
CONTINUOUS
10
107.46
20
-121.743
11
107.48
21
-121.92
0
LINE
8
BLACK
6
CONTINUOUS
10
107.48
20
-121.92
11
107.48
21
-121.942
0
LINE
8
BLACK
6
CONTINUOUS
10
107.48
20
-121.942
11
107.455
21
-122.119
0
LINE
8
BLACK
6
CONTINUOUS
10
107.455
20
-122.119
11
107.392
21
-122.286
0
LINE
8
BLACK
6
CONTINUOUS
10
107.392
20
-122.286
11
107.293
21
-122.434
0
LINE
8
BLACK
6
CONTINUOUS
10
107.293
20
-122.434
11
107.164
21
-122.557
0
LINE
8
BLACK
6
CONTINUOUS
10
107.164
20
-122.557
11
107.01
21
-122.649
0
LINE
8
BLACK
6
CONTINUOUS
10
107.01
20
-122.649
11
106.841
21
-122.704
0
LINE
8
BLACK
6
CONTINUOUS
10
106.841
20
-122.704
11
106.663
21
-122.72
0
LINE
8
BLACK
6
CONTINUOUS
10
106.663
20
-122.72
11
106.486
21
-122.696
0
LINE
8
BLACK
6
CONTINUOUS
10
106.486
20
-122.696
11
106.319
21
-122.634
0
LINE
8
BLACK
6
CONTINUOUS
10
106.319
20
-122.634
11
106.17
21
-122.536
0
LINE
8
BLACK
6
CONTINUOUS
10
106.17
20
-122.536
11
106.046
21
-122.408
0
LINE
8
BLACK
6
CONTINUOUS
10
106.046
20
-122.408
11
105.954
21
-122.256
0
LINE
8
BLACK
6
CONTINUOUS
10
105.954
20
-122.256
11
105.897
21
-122.086
0
LINE
8
BLACK
6
CONTINUOUS
10
105.897
20
-122.086
11
105.88
21
-121.909
0
LINE
8
BLACK
6
CONTINUOUS
10
105.88
20
-121.909
11
105.902
21
-121.732
0
LINE
8
BLACK
6
CONTINUOUS
10
105.902
20
-121.732
11
105.963
21
-121.564
0
LINE
8
BLACK
6
CONTINUOUS
10
105.963
20
-121.564
11
106.06
21
-121.414
0
LINE
8
BLACK
6
CONTINUOUS
10
106.06
20
-121.414
11
106.187
21
-121.29
0
LINE
8
BLACK
6
CONTINUOUS
10
106.187
20
-121.29
11
106.339
21
-121.196
0
LINE
8
BLACK
6
CONTINUOUS
10
106.339
20
-121.196
11
106.508
21
-121.139
0
LINE
8
BLACK
6
CONTINUOUS
10
106.508
20
-121.139
11
106.686
21
-121.12
0
LINE
8
BLACK
6
CONTINUOUS
10
106.686
20
-121.12
11
106.863
21
-121.141
0
LINE
8
BLACK
6
CONTINUOUS
10
111.863
20
-121.141
11
112.031
21
-121.201
0
LINE
8
BLACK
6
CONTINUOUS
10
112.031
20
-121.201
11
112.181
21
-121.297
0
LINE
8
BLACK
6
CONTINUOUS
10
112.181
20
-121.297
11
112.307
21
-121.423
0
LINE
8
BLACK
6
CONTINUOUS
10
112.307
20
-121.423
11
112.401
21
-121.574
0
LINE
8
BLACK
6
CONTINUOUS
10
112.401
20
-121.574
11
112.46
21
-121.743
0
LINE
8
BLACK
6
CONTINUOUS
10
112.46
20
-121.743
11
112.48
21
-121.92
0
LINE
8
BLACK
6
CONTINUOUS
10
112.48
20
-121.92
11
112.48
21
-121.942
0
LINE
8
BLACK
6
CONTINUOUS
10
112.48
20
-121.942
11
112.455
21
-122.119
0
LINE
8
BLACK
6
CONTINUOUS
10
112.455
20
-122.119
11
112.392
21
-122.286
0
LINE
8
BLACK
6
CONTINUOUS
10
112.392
20
-122.286
11
112.293
21
-122.434
0
LINE
8
BLACK
6
CONTINUOUS
10
112.293
20
-122.434
11
112.164
21
-122.557
0
LINE
8
BLACK
6
CONTINUOUS
10
112.164
20
-122.557
11
112.01
21
-122.649
0
LINE
8
BLACK
6
CONTINUOUS
10
112.01
20
-122.649
11
111.841
21
-122.704
0
LINE
8
BLACK
6
CONTINUOUS
10
111.841
20
-122.704
11
111.663
21
-122.72
0
LINE
8
BLACK
6
CONTINUOUS
10
111.663
20
-122.72
11
111.486
21
-122.696
0
LINE
8
BLACK
6
CONTINUOUS
10
111.486
20
-122.696
11
111.319
21
-122.634
0
LINE
8
BLACK
6
CONTINUOUS
10
111.319
20
-122.634
11
111.17
21
-122.536
0
LINE
8
BLACK
6
CONTINUOUS
10
111.17
20
-122.536
11
111.046
21
-122.408
0
LINE
8
BLACK
6
CONTINUOUS
10
111.046
20
-122.408
11
110.954
21
-122.256
0
LINE
8
BLACK
6
CONTINUOUS
10
110.954
20
-122.256
11
110.897
21
-122.086
0
LINE
8
BLACK
6
CONTINUOUS
10
110.897
20
-122.086
11
110.88
21
-121.909
0
LINE
8
BLACK
6
CONTINUOUS
10
110.88
20
-121.909
11
110.902
21
-121.732
0
LINE
8
BLACK
6
CONTINUOUS
10
110.902
20
-121.732
11
110.963
21
-121.564
0
LINE
8
BLACK
6
CONTINUOUS
10
110.963
20
-121.564
11
111.06
21
-121.414
0
LINE
8
BLACK
6
CONTINUOUS
10
111.06
20
-121.414
11
111.187
21
-121.29
0
LINE
8
BLACK
6
CONTINUOUS
10
111.187
20
-121.29
11
111.339
21
-121.196
0
LINE
8
BLACK
6
CONTINUOUS
10
111.339
20
-121.196
11
111.508
21
-121.139
0
LINE
8
BLACK
6
CONTINUOUS
10
111.508
20
-121.139
11
111.686
21
-121.12
0
LINE
8
BLACK
6
CONTINUOUS
10
111.686
20
-121.12
11
111.863
21
-121.141
0
LINE
8
BLACK
6
CONTINUOUS
10
148.843
20
-121.065
11
148.983
21
-121.106
0
LINE
8
BLACK
6
CONTINUOUS
10
148.983
20
-121.106
11
149.106
21
-121.182
0
LINE
8
BLACK
6
CONTINUOUS
10
149.106
20
-121.182
11
149.204
21
-121.289
0
LINE
8
BLACK
6
CONTINUOUS
10
149.204
20
-121.289
11
149.27
21
-121.419
0
LINE
8
BLACK
6
CONTINUOUS
10
149.27
20
-121.419
11
149.299
21
-121.561
0
LINE
8
BLACK
6
CONTINUOUS
10
149.299
20
-121.561
11
149.288
21
-121.706
0
LINE
8
BLACK
6
CONTINUOUS
10
149.288
20
-121.706
11
149.239
21
-121.843
0
LINE
8
BLACK
6
CONTINUOUS
10
149.239
20
-121.843
11
149.155
21
-121.961
0
LINE
8
BLACK
6
CONTINUOUS
10
149.155
20
-121.961
11
149.042
21
-122.052
0
LINE
8
BLACK
6
CONTINUOUS
10
149.042
20
-122.052
11
148.909
21
-122.11
0
LINE
8
BLACK
6
CONTINUOUS
10
148.909
20
-122.11
11
148.765
21
-122.13
0
LINE
8
BLACK
6
CONTINUOUS
10
148.765
20
-122.13
11
148.035
21
-122.13
0
LINE
8
BLACK
6
CONTINUOUS
10
148.035
20
-122.13
11
147.957
21
-122.124
0
LINE
8
BLACK
6
CONTINUOUS
10
147.957
20
-122.124
11
147.817
21
-122.083
0
LINE
8
BLACK
6
CONTINUOUS
10
147.817
20
-122.083
11
147.694
21
-122.007
0
LINE
8
BLACK
6
CONTINUOUS
10
147.694
20
-122.007
11
147.596
21
-121.9
0
LINE
8
BLACK
6
CONTINUOUS
10
147.596
20
-121.9
11
147.53
21
-121.771
0
LINE
8
BLACK
6
CONTINUOUS
10
147.53
20
-121.771
11
147.501
21
-121.628
0
LINE
8
BLACK
6
CONTINUOUS
10
147.501
20
-121.628
11
147.512
21
-121.483
0
LINE
8
BLACK
6
CONTINUOUS
10
147.512
20
-121.483
11
147.561
21
-121.347
0
LINE
8
BLACK
6
CONTINUOUS
10
147.561
20
-121.347
11
147.645
21
-121.228
0
LINE
8
BLACK
6
CONTINUOUS
10
147.645
20
-121.228
11
147.758
21
-121.137
0
LINE
8
BLACK
6
CONTINUOUS
10
147.758
20
-121.137
11
147.891
21
-121.079
0
LINE
8
BLACK
6
CONTINUOUS
10
147.891
20
-121.079
11
148.035
21
-121.06
0
LINE
8
BLACK
6
CONTINUOUS
10
148.035
20
-121.06
11
148.765
21
-121.06
0
LINE
8
BLACK
6
CONTINUOUS
10
148.765
20
-121.06
11
148.843
21
-121.065
0
LINE
8
BLACK
6
CONTINUOUS
10
118.375
20
-116.74
11
116.575
21
-116.74
0
LINE
8
BLACK
6
CONTINUOUS
10
116.575
20
-116.74
11
116.575
21
-115.67
0
LINE
8
BLACK
6
CONTINUOUS
10
116.575
20
-115.67
11
118.375
21
-115.67
0
LINE
8
BLACK
6
CONTINUOUS
10
118.375
20
-115.67
11
118.375
21
-116.74
0
LINE
8
BLACK
6
CONTINUOUS
10
117.918
20
-114.406
11
118.058
21
-114.446
0
LINE
8
BLACK
6
CONTINUOUS
10
118.058
20
-114.446
11
118.181
21
-114.523
0
LINE
8
BLACK
6
CONTINUOUS
10
118.181
20
-114.523
11
118.279
21
-114.63
0
LINE
8
BLACK
6
CONTINUOUS
10
118.279
20
-114.63
11
118.345
21
-114.759
0
LINE
8
BLACK
6
CONTINUOUS
10
118.345
20
-114.759
11
118.374
21
-114.901
0
LINE
8
BLACK
6
CONTINUOUS
10
118.374
20
-114.901
11
118.363
21
-115.046
0
LINE
8
BLACK
6
CONTINUOUS
10
118.363
20
-115.046
11
118.314
21
-115.183
0
LINE
8
BLACK
6
CONTINUOUS
10
118.314
20
-115.183
11
118.23
21
-115.301
0
LINE
8
BLACK
6
CONTINUOUS
10
118.23
20
-115.301
11
118.117
21
-115.393
0
LINE
8
BLACK
6
CONTINUOUS
10
118.117
20
-115.393
11
117.984
21
-115.45
0
LINE
8
BLACK
6
CONTINUOUS
10
117.984
20
-115.45
11
117.84
21
-115.47
0
LINE
8
BLACK
6
CONTINUOUS
10
117.84
20
-115.47
11
117.11
21
-115.47
0
LINE
8
BLACK
6
CONTINUOUS
10
117.11
20
-115.47
11
117.032
21
-115.464
0
LINE
8
BLACK
6
CONTINUOUS
10
117.032
20
-115.464
11
116.892
21
-115.424
0
LINE
8
BLACK
6
CONTINUOUS
10
116.892
20
-115.424
11
116.769
21
-115.347
0
LINE
8
BLACK
6
CONTINUOUS
10
116.769
20
-115.347
11
116.671
21
-115.24
0
LINE
8
BLACK
6
CONTINUOUS
10
116.671
20
-115.24
11
116.605
21
-115.111
0
LINE
8
BLACK
6
CONTINUOUS
10
116.605
20
-115.111
11
116.576
21
-114.969
0
LINE
8
BLACK
6
CONTINUOUS
10
116.576
20
-114.969
11
116.587
21
-114.824
0
LINE
8
BLACK
6
CONTINUOUS
10
116.587
20
-114.824
11
116.636
21
-114.687
0
LINE
8
BLACK
6
CONTINUOUS
10
116.636
20
-114.687
11
116.72
21
-114.569
0
LINE
8
BLACK
6
CONTINUOUS
10
116.72
20
-114.569
11
116.833
21
-114.477
0
LINE
8
BLACK
6
CONTINUOUS
10
116.833
20
-114.477
11
116.966
21
-114.42
0
LINE
8
BLACK
6
CONTINUOUS
10
116.966
20
-114.42
11
117.11
21
-114.4
0
LINE
8
BLACK
6
CONTINUOUS
10
117.11
20
-114.4
11
117.84
21
-114.4
0
LINE
8
BLACK
6
CONTINUOUS
10
117.84
20
-114.4
11
117.918
21
-114.406
0
LINE
8
BLACK
6
CONTINUOUS
10
117.918
20
-113.136
11
118.058
21
-113.176
0
LINE
8
BLACK
6
CONTINUOUS
10
118.058
20
-113.176
11
118.181
21
-113.253
0
LINE
8
BLACK
6
CONTINUOUS
10
118.181
20
-113.253
11
118.279
21
-113.36
0
LINE
8
BLACK
6
CONTINUOUS
10
118.279
20
-113.36
11
118.345
21
-113.489
0
LINE
8
BLACK
6
CONTINUOUS
10
118.345
20
-113.489
11
118.374
21
-113.631
0
LINE
8
BLACK
6
CONTINUOUS
10
118.374
20
-113.631
11
118.363
21
-113.776
0
LINE
8
BLACK
6
CONTINUOUS
10
118.363
20
-113.776
11
118.314
21
-113.913
0
LINE
8
BLACK
6
CONTINUOUS
10
118.314
20
-113.913
11
118.23
21
-114.031
0
LINE
8
BLACK
6
CONTINUOUS
10
118.23
20
-114.031
11
118.117
21
-114.123
0
LINE
8
BLACK
6
CONTINUOUS
10
118.117
20
-114.123
11
117.984
21
-114.18
0
LINE
8
BLACK
6
CONTINUOUS
10
117.984
20
-114.18
11
117.84
21
-114.2
0
LINE
8
BLACK
6
CONTINUOUS
10
117.84
20
-114.2
11
117.11
21
-114.2
0
LINE
8
BLACK
6
CONTINUOUS
10
117.11
20
-114.2
11
117.032
21
-114.194
0
LINE
8
BLACK
6
CONTINUOUS
10
117.032
20
-114.194
11
116.892
21
-114.154
0
LINE
8
BLACK
6
CONTINUOUS
10
116.892
20
-114.154
11
116.769
21
-114.077
0
LINE
8
BLACK
6
CONTINUOUS
10
116.769
20
-114.077
11
116.671
21
-113.97
0
LINE
8
BLACK
6
CONTINUOUS
10
116.671
20
-113.97
11
116.605
21
-113.841
0
LINE
8
BLACK
6
CONTINUOUS
10
116.605
20
-113.841
11
116.576
21
-113.699
0
LINE
8
BLACK
6
CONTINUOUS
10
116.576
20
-113.699
11
116.587
21
-113.554
0
LINE
8
BLACK
6
CONTINUOUS
10
116.587
20
-113.554
11
116.636
21
-113.417
0
LINE
8
BLACK
6
CONTINUOUS
10
116.636
20
-113.417
11
116.72
21
-113.299
0
LINE
8
BLACK
6
CONTINUOUS
10
116.72
20
-113.299
11
116.833
21
-113.207
0
LINE
8
BLACK
6
CONTINUOUS
10
116.833
20
-113.207
11
116.966
21
-113.15
0
LINE
8
BLACK
6
CONTINUOUS
10
116.966
20
-113.15
11
117.11
21
-113.13
0
LINE
8
BLACK
6
CONTINUOUS
10
117.11
20
-113.13
11
117.84
21
-113.13
0
LINE
8
BLACK
6
CONTINUOUS
10
117.84
20
-113.13
11
117.918
21
-113.136
0
LINE
8
BLACK
6
CONTINUOUS
10
117.918
20
-111.866
11
118.058
21
-111.906
0
LINE
8
BLACK
6
CONTINUOUS
10
118.058
20
-111.906
11
118.181
21
-111.983
0
LINE
8
BLACK
6
CONTINUOUS
10
118.181
20
-111.983
11
118.279
21
-112.09
0
LINE
8
BLACK
6
CONTINUOUS
10
118.279
20
-112.09
11
118.345
21
-112.219
0
LINE
8
BLACK
6
CONTINUOUS
10
118.345
20
-112.219
11
118.374
21
-112.361
0
LINE
8
BLACK
6
CONTINUOUS
10
118.374
20
-112.361
11
118.363
21
-112.506
0
LINE
8
BLACK
6
CONTINUOUS
10
118.363
20
-112.506
11
118.314
21
-112.643
0
LINE
8
BLACK
6
CONTINUOUS
10
118.314
20
-112.643
11
118.23
21
-112.761
0
LINE
8
BLACK
6
CONTINUOUS
10
118.23
20
-112.761
11
118.117
21
-112.853
0
LINE
8
BLACK
6
CONTINUOUS
10
118.117
20
-112.853
11
117.984
21
-112.91
0
LINE
8
BLACK
6
CONTINUOUS
10
117.984
20
-112.91
11
117.84
21
-112.93
0
LINE
8
BLACK
6
CONTINUOUS
10
117.84
20
-112.93
11
117.11
21
-112.93
0
LINE
8
BLACK
6
CONTINUOUS
10
117.11
20
-112.93
11
117.032
21
-112.924
0
LINE
8
BLACK
6
CONTINUOUS
10
117.032
20
-112.924
11
116.892
21
-112.884
0
LINE
8
BLACK
6
CONTINUOUS
10
116.892
20
-112.884
11
116.769
21
-112.807
0
LINE
8
BLACK
6
CONTINUOUS
10
116.769
20
-112.807
11
116.671
21
-112.7
0
LINE
8
BLACK
6
CONTINUOUS
10
116.671
20
-112.7
11
116.605
21
-112.571
0
LINE
8
BLACK
6
CONTINUOUS
10
116.605
20
-112.571
11
116.576
21
-112.429
0
LINE
8
BLACK
6
CONTINUOUS
10
116.576
20
-112.429
11
116.587
21
-112.284
0
LINE
8
BLACK
6
CONTINUOUS
10
116.587
20
-112.284
11
116.636
21
-112.147
0
LINE
8
BLACK
6
CONTINUOUS
10
116.636
20
-112.147
11
116.72
21
-112.029
0
LINE
8
BLACK
6
CONTINUOUS
10
116.72
20
-112.029
11
116.833
21
-111.937
0
LINE
8
BLACK
6
CONTINUOUS
10
116.833
20
-111.937
11
116.966
21
-111.88
0
LINE
8
BLACK
6
CONTINUOUS
10
116.966
20
-111.88
11
117.11
21
-111.86
0
LINE
8
BLACK
6
CONTINUOUS
10
117.11
20
-111.86
11
117.84
21
-111.86
0
LINE
8
BLACK
6
CONTINUOUS
10
117.84
20
-111.86
11
117.918
21
-111.866
0
LINE
8
BLACK
6
CONTINUOUS
10
118.436
20
-103.924
11
118.517
21
-103.978
0
LINE
8
BLACK
6
CONTINUOUS
10
118.517
20
-103.978
11
118.571
21
-104.059
0
LINE
8
BLACK
6
CONTINUOUS
10
118.571
20
-104.059
11
118.59
21
-104.155
0
LINE
8
BLACK
6
CONTINUOUS
10
118.59
20
-104.155
11
118.59
21
-105.395
0
LINE
8
BLACK
6
CONTINUOUS
10
118.59
20
-105.395
11
118.571
21
-105.491
0
LINE
8
BLACK
6
CONTINUOUS
10
118.571
20
-105.491
11
118.517
21
-105.572
0
LINE
8
BLACK
6
CONTINUOUS
10
118.517
20
-105.572
11
118.436
21
-105.626
0
LINE
8
BLACK
6
CONTINUOUS
10
118.436
20
-105.626
11
118.34
21
-105.645
0
LINE
8
BLACK
6
CONTINUOUS
10
118.34
20
-105.645
11
116.65
21
-105.645
0
LINE
8
BLACK
6
CONTINUOUS
10
116.65
20
-105.645
11
116.554
21
-105.626
0
LINE
8
BLACK
6
CONTINUOUS
10
116.554
20
-105.626
11
116.473
21
-105.572
0
LINE
8
BLACK
6
CONTINUOUS
10
116.473
20
-105.572
11
116.419
21
-105.491
0
LINE
8
BLACK
6
CONTINUOUS
10
116.419
20
-105.491
11
116.4
21
-105.395
0
LINE
8
BLACK
6
CONTINUOUS
10
116.4
20
-105.395
11
116.4
21
-104.155
0
LINE
8
BLACK
6
CONTINUOUS
10
116.4
20
-104.155
11
116.419
21
-104.059
0
LINE
8
BLACK
6
CONTINUOUS
10
116.419
20
-104.059
11
116.473
21
-103.978
0
LINE
8
BLACK
6
CONTINUOUS
10
116.473
20
-103.978
11
116.554
21
-103.924
0
LINE
8
BLACK
6
CONTINUOUS
10
116.554
20
-103.924
11
116.65
21
-103.905
0
LINE
8
BLACK
6
CONTINUOUS
10
116.65
20
-103.905
11
118.34
21
-103.905
0
LINE
8
BLACK
6
CONTINUOUS
10
118.34
20
-103.905
11
118.436
21
-103.924
0
LINE
8
BLACK
6
CONTINUOUS
10
117.817
20
-101.37
11
118
21
-101.411
0
LINE
8
BLACK
6
CONTINUOUS
10
118
20
-101.411
11
118.171
21
-101.491
0
LINE
8
BLACK
6
CONTINUOUS
10
118.171
20
-101.491
11
118.32
21
-101.605
0
LINE
8
BLACK
6
CONTINUOUS
10
118.32
20
-101.605
11
118.441
21
-101.749
0
LINE
8
BLACK
6
CONTINUOUS
10
118.441
20
-101.749
11
118.529
21
-101.915
0
LINE
8
BLACK
6
CONTINUOUS
10
118.529
20
-101.915
11
118.579
21
-102.096
0
LINE
8
BLACK
6
CONTINUOUS
10
118.579
20
-102.096
11
118.589
21
-102.284
0
LINE
8
BLACK
6
CONTINUOUS
10
118.589
20
-102.284
11
118.558
21
-102.469
0
LINE
8
BLACK
6
CONTINUOUS
10
118.558
20
-102.469
11
118.488
21
-102.643
0
LINE
8
BLACK
6
CONTINUOUS
10
118.488
20
-102.643
11
118.383
21
-102.799
0
LINE
8
BLACK
6
CONTINUOUS
10
118.383
20
-102.799
11
118.246
21
-102.928
0
LINE
8
BLACK
6
CONTINUOUS
10
118.246
20
-102.928
11
118.085
21
-103.025
0
LINE
8
BLACK
6
CONTINUOUS
10
118.085
20
-103.025
11
117.907
21
-103.085
0
LINE
8
BLACK
6
CONTINUOUS
10
117.907
20
-103.085
11
117.72
21
-103.105
0
LINE
8
BLACK
6
CONTINUOUS
10
117.72
20
-103.105
11
117.27
21
-103.105
0
LINE
8
BLACK
6
CONTINUOUS
10
117.27
20
-103.105
11
117.173
21
-103.1
0
LINE
8
BLACK
6
CONTINUOUS
10
117.173
20
-103.1
11
116.99
21
-103.059
0
LINE
8
BLACK
6
CONTINUOUS
10
116.99
20
-103.059
11
116.819
21
-102.979
0
LINE
8
BLACK
6
CONTINUOUS
10
116.819
20
-102.979
11
116.67
21
-102.865
0
LINE
8
BLACK
6
CONTINUOUS
10
116.67
20
-102.865
11
116.549
21
-102.721
0
LINE
8
BLACK
6
CONTINUOUS
10
116.549
20
-102.721
11
116.461
21
-102.555
0
LINE
8
BLACK
6
CONTINUOUS
10
116.461
20
-102.555
11
116.411
21
-102.374
0
LINE
8
BLACK
6
CONTINUOUS
10
116.411
20
-102.374
11
116.401
21
-102.186
0
LINE
8
BLACK
6
CONTINUOUS
10
116.401
20
-102.186
11
116.432
21
-102.001
0
LINE
8
BLACK
6
CONTINUOUS
10
116.432
20
-102.001
11
116.502
21
-101.827
0
LINE
8
BLACK
6
CONTINUOUS
10
116.502
20
-101.827
11
116.607
21
-101.671
0
LINE
8
BLACK
6
CONTINUOUS
10
116.607
20
-101.671
11
116.744
21
-101.542
0
LINE
8
BLACK
6
CONTINUOUS
10
116.744
20
-101.542
11
116.905
21
-101.445
0
LINE
8
BLACK
6
CONTINUOUS
10
116.905
20
-101.445
11
117.083
21
-101.385
0
LINE
8
BLACK
6
CONTINUOUS
10
117.083
20
-101.385
11
117.27
21
-101.365
0
LINE
8
BLACK
6
CONTINUOUS
10
117.27
20
-101.365
11
117.72
21
-101.365
0
LINE
8
BLACK
6
CONTINUOUS
10
117.72
20
-101.365
11
117.817
21
-101.37
0
LINE
8
BLACK
6
CONTINUOUS
10
117.817
20
-98.8304
11
118
21
-98.8714
0
LINE
8
BLACK
6
CONTINUOUS
10
118
20
-98.8714
11
118.171
21
-98.9508
0
LINE
8
BLACK
6
CONTINUOUS
10
118.171
20
-98.9508
11
118.32
21
-99.065
0
LINE
8
BLACK
6
CONTINUOUS
10
118.32
20
-99.065
11
118.441
21
-99.2085
0
LINE
8
BLACK
6
CONTINUOUS
10
118.441
20
-99.2085
11
118.529
21
-99.3747
0
LINE
8
BLACK
6
CONTINUOUS
10
118.529
20
-99.3747
11
118.579
21
-99.5559
0
LINE
8
BLACK
6
CONTINUOUS
10
118.579
20
-99.5559
11
118.589
21
-99.7436
0
LINE
8
BLACK
6
CONTINUOUS
10
118.589
20
-99.7436
11
118.558
21
-99.929
0
LINE
8
BLACK
6
CONTINUOUS
10
118.558
20
-99.929
11
118.488
21
-100.103
0
LINE
8
BLACK
6
CONTINUOUS
10
118.488
20
-100.103
11
118.383
21
-100.259
0
LINE
8
BLACK
6
CONTINUOUS
10
118.383
20
-100.259
11
118.246
21
-100.388
0
LINE
8
BLACK
6
CONTINUOUS
10
118.246
20
-100.388
11
118.085
21
-100.485
0
LINE
8
BLACK
6
CONTINUOUS
10
118.085
20
-100.485
11
117.907
21
-100.545
0
LINE
8
BLACK
6
CONTINUOUS
10
117.907
20
-100.545
11
117.72
21
-100.565
0
LINE
8
BLACK
6
CONTINUOUS
10
117.72
20
-100.565
11
117.27
21
-100.565
0
LINE
8
BLACK
6
CONTINUOUS
10
117.27
20
-100.565
11
117.173
21
-100.56
0
LINE
8
BLACK
6
CONTINUOUS
10
117.173
20
-100.56
11
116.99
21
-100.519
0
LINE
8
BLACK
6
CONTINUOUS
10
116.99
20
-100.519
11
116.819
21
-100.439
0
LINE
8
BLACK
6
CONTINUOUS
10
116.819
20
-100.439
11
116.67
21
-100.325
0
LINE
8
BLACK
6
CONTINUOUS
10
116.67
20
-100.325
11
116.549
21
-100.181
0
LINE
8
BLACK
6
CONTINUOUS
10
116.549
20
-100.181
11
116.461
21
-100.015
0
LINE
8
BLACK
6
CONTINUOUS
10
116.461
20
-100.015
11
116.411
21
-99.8341
0
LINE
8
BLACK
6
CONTINUOUS
10
116.411
20
-99.8341
11
116.401
21
-99.6464
0
LINE
8
BLACK
6
CONTINUOUS
10
116.401
20
-99.6464
11
116.432
21
-99.461
0
LINE
8
BLACK
6
CONTINUOUS
10
116.432
20
-99.461
11
116.502
21
-99.2866
0
LINE
8
BLACK
6
CONTINUOUS
10
116.502
20
-99.2866
11
116.607
21
-99.1311
0
LINE
8
BLACK
6
CONTINUOUS
10
116.607
20
-99.1311
11
116.744
21
-99.002
0
LINE
8
BLACK
6
CONTINUOUS
10
116.744
20
-99.002
11
116.905
21
-98.9052
0
LINE
8
BLACK
6
CONTINUOUS
10
116.905
20
-98.9052
11
117.083
21
-98.8453
0
LINE
8
BLACK
6
CONTINUOUS
10
117.083
20
-98.8453
11
117.27
21
-98.825
0
LINE
8
BLACK
6
CONTINUOUS
10
117.27
20
-98.825
11
117.72
21
-98.825
0
LINE
8
BLACK
6
CONTINUOUS
10
117.72
20
-98.825
11
117.817
21
-98.8304
0
LINE
8
BLACK
6
CONTINUOUS
10
117.817
20
-96.2904
11
118
21
-96.3314
0
LINE
8
BLACK
6
CONTINUOUS
10
118
20
-96.3314
11
118.171
21
-96.4108
0
LINE
8
BLACK
6
CONTINUOUS
10
118.171
20
-96.4108
11
118.32
21
-96.525
0
LINE
8
BLACK
6
CONTINUOUS
10
118.32
20
-96.525
11
118.441
21
-96.6685
0
LINE
8
BLACK
6
CONTINUOUS
10
118.441
20
-96.6685
11
118.529
21
-96.8347
0
LINE
8
BLACK
6
CONTINUOUS
10
118.529
20
-96.8347
11
118.579
21
-97.0159
0
LINE
8
BLACK
6
CONTINUOUS
10
118.579
20
-97.0159
11
118.589
21
-97.2036
0
LINE
8
BLACK
6
CONTINUOUS
10
118.589
20
-97.2036
11
118.558
21
-97.389
0
LINE
8
BLACK
6
CONTINUOUS
10
118.558
20
-97.389
11
118.488
21
-97.5634
0
LINE
8
BLACK
6
CONTINUOUS
10
118.488
20
-97.5634
11
118.383
21
-97.7189
0
LINE
8
BLACK
6
CONTINUOUS
10
118.383
20
-97.7189
11
118.246
21
-97.848
0
LINE
8
BLACK
6
CONTINUOUS
10
118.246
20
-97.848
11
118.085
21
-97.9448
0
LINE
8
BLACK
6
CONTINUOUS
10
118.085
20
-97.9448
11
117.907
21
-98.0047
0
LINE
8
BLACK
6
CONTINUOUS
10
117.907
20
-98.0047
11
117.72
21
-98.025
0
LINE
8
BLACK
6
CONTINUOUS
10
117.72
20
-98.025
11
117.27
21
-98.025
0
LINE
8
BLACK
6
CONTINUOUS
10
117.27
20
-98.025
11
117.173
21
-98.0196
0
LINE
8
BLACK
6
CONTINUOUS
10
117.173
20
-98.0196
11
116.99
21
-97.9786
0
LINE
8
BLACK
6
CONTINUOUS
10
116.99
20
-97.9786
11
116.819
21
-97.8992
0
LINE
8
BLACK
6
CONTINUOUS
10
116.819
20
-97.8992
11
116.67
21
-97.785
0
LINE
8
BLACK
6
CONTINUOUS
10
116.67
20
-97.785
11
116.549
21
-97.6415
0
LINE
8
BLACK
6
CONTINUOUS
10
116.549
20
-97.6415
11
116.461
21
-97.4753
0
LINE
8
BLACK
6
CONTINUOUS
10
116.461
20
-97.4753
11
116.411
21
-97.2941
0
LINE
8
BLACK
6
CONTINUOUS
10
116.411
20
-97.2941
11
116.401
21
-97.1064
0
LINE
8
BLACK
6
CONTINUOUS
10
116.401
20
-97.1064
11
116.432
21
-96.921
0
LINE
8
BLACK
6
CONTINUOUS
10
116.432
20
-96.921
11
116.502
21
-96.7466
0
LINE
8
BLACK
6
CONTINUOUS
10
116.502
20
-96.7466
11
116.607
21
-96.5911
0
LINE
8
BLACK
6
CONTINUOUS
10
116.607
20
-96.5911
11
116.744
21
-96.462
0
LINE
8
BLACK
6
CONTINUOUS
10
116.744
20
-96.462
11
116.905
21
-96.3652
0
LINE
8
BLACK
6
CONTINUOUS
10
116.905
20
-96.3652
11
117.083
21
-96.3053
0
LINE
8
BLACK
6
CONTINUOUS
10
117.083
20
-96.3053
11
117.27
21
-96.285
0
LINE
8
BLACK
6
CONTINUOUS
10
117.27
20
-96.285
11
117.72
21
-96.285
0
LINE
8
BLACK
6
CONTINUOUS
10
117.72
20
-96.285
11
117.817
21
-96.2904
0
LINE
8
BLACK
6
CONTINUOUS
10
154.611
20
-94.399
11
154.692
21
-94.4532
0
LINE
8
BLACK
6
CONTINUOUS
10
154.692
20
-94.4532
11
154.746
21
-94.5343
0
LINE
8
BLACK
6
CONTINUOUS
10
154.746
20
-94.5343
11
154.765
21
-94.63
0
LINE
8
BLACK
6
CONTINUOUS
10
154.765
20
-94.63
11
154.765
21
-95.87
0
LINE
8
BLACK
6
CONTINUOUS
10
154.765
20
-95.87
11
154.746
21
-95.9657
0
LINE
8
BLACK
6
CONTINUOUS
10
154.746
20
-95.9657
11
154.692
21
-96.0468
0
LINE
8
BLACK
6
CONTINUOUS
10
154.692
20
-96.0468
11
154.611
21
-96.101
0
LINE
8
BLACK
6
CONTINUOUS
10
154.611
20
-96.101
11
154.515
21
-96.12
0
LINE
8
BLACK
6
CONTINUOUS
10
154.515
20
-96.12
11
152.825
21
-96.12
0
LINE
8
BLACK
6
CONTINUOUS
10
152.825
20
-96.12
11
152.729
21
-96.101
0
LINE
8
BLACK
6
CONTINUOUS
10
152.729
20
-96.101
11
152.648
21
-96.0468
0
LINE
8
BLACK
6
CONTINUOUS
10
152.648
20
-96.0468
11
152.594
21
-95.9657
0
LINE
8
BLACK
6
CONTINUOUS
10
152.594
20
-95.9657
11
152.575
21
-95.87
0
LINE
8
BLACK
6
CONTINUOUS
10
152.575
20
-95.87
11
152.575
21
-94.63
0
LINE
8
BLACK
6
CONTINUOUS
10
152.575
20
-94.63
11
152.594
21
-94.5343
0
LINE
8
BLACK
6
CONTINUOUS
10
152.594
20
-94.5343
11
152.648
21
-94.4532
0
LINE
8
BLACK
6
CONTINUOUS
10
152.648
20
-94.4532
11
152.729
21
-94.399
0
LINE
8
BLACK
6
CONTINUOUS
10
152.729
20
-94.399
11
152.825
21
-94.38
0
LINE
8
BLACK
6
CONTINUOUS
10
152.825
20
-94.38
11
154.515
21
-94.38
0
LINE
8
BLACK
6
CONTINUOUS
10
154.515
20
-94.38
11
154.611
21
-94.399
0
LINE
8
BLACK
6
CONTINUOUS
10
153.992
20
-91.8454
11
154.175
21
-91.8864
0
LINE
8
BLACK
6
CONTINUOUS
10
154.175
20
-91.8864
11
154.346
21
-91.9658
0
LINE
8
BLACK
6
CONTINUOUS
10
154.346
20
-91.9658
11
154.495
21
-92.08
0
LINE
8
BLACK
6
CONTINUOUS
10
154.495
20
-92.08
11
154.616
21
-92.2235
0
LINE
8
BLACK
6
CONTINUOUS
10
154.616
20
-92.2235
11
154.704
21
-92.3897
0
LINE
8
BLACK
6
CONTINUOUS
10
154.704
20
-92.3897
11
154.754
21
-92.5709
0
LINE
8
BLACK
6
CONTINUOUS
10
154.754
20
-92.5709
11
154.764
21
-92.7586
0
LINE
8
BLACK
6
CONTINUOUS
10
154.764
20
-92.7586
11
154.733
21
-92.944
0
LINE
8
BLACK
6
CONTINUOUS
10
154.733
20
-92.944
11
154.663
21
-93.1184
0
LINE
8
BLACK
6
CONTINUOUS
10
154.663
20
-93.1184
11
154.558
21
-93.2739
0
LINE
8
BLACK
6
CONTINUOUS
10
154.558
20
-93.2739
11
154.421
21
-93.403
0
LINE
8
BLACK
6
CONTINUOUS
10
154.421
20
-93.403
11
154.26
21
-93.4998
0
LINE
8
BLACK
6
CONTINUOUS
10
154.26
20
-93.4998
11
154.082
21
-93.5597
0
LINE
8
BLACK
6
CONTINUOUS
10
154.082
20
-93.5597
11
153.895
21
-93.58
0
LINE
8
BLACK
6
CONTINUOUS
10
153.895
20
-93.58
11
153.445
21
-93.58
0
LINE
8
BLACK
6
CONTINUOUS
10
153.445
20
-93.58
11
153.348
21
-93.5746
0
LINE
8
BLACK
6
CONTINUOUS
10
153.348
20
-93.5746
11
153.165
21
-93.5336
0
LINE
8
BLACK
6
CONTINUOUS
10
153.165
20
-93.5336
11
152.994
21
-93.4542
0
LINE
8
BLACK
6
CONTINUOUS
10
152.994
20
-93.4542
11
152.845
21
-93.34
0
LINE
8
BLACK
6
CONTINUOUS
10
152.845
20
-93.34
11
152.724
21
-93.1965
0
LINE
8
BLACK
6
CONTINUOUS
10
152.724
20
-93.1965
11
152.636
21
-93.0303
0
LINE
8
BLACK
6
CONTINUOUS
10
152.636
20
-93.0303
11
152.586
21
-92.8491
0
LINE
8
BLACK
6
CONTINUOUS
10
152.586
20
-92.8491
11
152.576
21
-92.6614
0
LINE
8
BLACK
6
CONTINUOUS
10
152.576
20
-92.6614
11
152.607
21
-92.476
0
LINE
8
BLACK
6
CONTINUOUS
10
152.607
20
-92.476
11
152.677
21
-92.3016
0
LINE
8
BLACK
6
CONTINUOUS
10
152.677
20
-92.3016
11
152.782
21
-92.1461
0
LINE
8
BLACK
6
CONTINUOUS
10
152.782
20
-92.1461
11
152.919
21
-92.017
0
LINE
8
BLACK
6
CONTINUOUS
10
152.919
20
-92.017
11
153.08
21
-91.9202
0
LINE
8
BLACK
6
CONTINUOUS
10
153.08
20
-91.9202
11
153.258
21
-91.8603
0
LINE
8
BLACK
6
CONTINUOUS
10
153.258
20
-91.8603
11
153.445
21
-91.84
0
LINE
8
BLACK
6
CONTINUOUS
10
153.445
20
-91.84
11
153.895
21
-91.84
0
LINE
8
BLACK
6
CONTINUOUS
10
153.895
20
-91.84
11
153.992
21
-91.8454
0
LINE
8
BLACK
6
CONTINUOUS
10
153.992
20
-89.3054
11
154.175
21
-89.3464
0
LINE
8
BLACK
6
CONTINUOUS
10
154.175
20
-89.3464
11
154.346
21
-89.4258
0
LINE
8
BLACK
6
CONTINUOUS
10
154.346
20
-89.4258
11
154.495
21
-89.54
0
LINE
8
BLACK
6
CONTINUOUS
10
154.495
20
-89.54
11
154.616
21
-89.6835
0
LINE
8
BLACK
6
CONTINUOUS
10
154.616
20
-89.6835
11
154.704
21
-89.8497
0
LINE
8
BLACK
6
CONTINUOUS
10
154.704
20
-89.8497
11
154.754
21
-90.0309
0
LINE
8
BLACK
6
CONTINUOUS
10
154.754
20
-90.0309
11
154.764
21
-90.2186
0
LINE
8
BLACK
6
CONTINUOUS
10
154.764
20
-90.2186
11
154.733
21
-90.404
0
LINE
8
BLACK
6
CONTINUOUS
10
154.733
20
-90.404
11
154.663
21
-90.5784
0
LINE
8
BLACK
6
CONTINUOUS
10
154.663
20
-90.5784
11
154.558
21
-90.7339
0
LINE
8
BLACK
6
CONTINUOUS
10
154.558
20
-90.7339
11
154.421
21
-90.863
0
LINE
8
BLACK
6
CONTINUOUS
10
154.421
20
-90.863
11
154.26
21
-90.9598
0
LINE
8
BLACK
6
CONTINUOUS
10
154.26
20
-90.9598
11
154.082
21
-91.0197
0
LINE
8
BLACK
6
CONTINUOUS
10
154.082
20
-91.0197
11
153.895
21
-91.04
0
LINE
8
BLACK
6
CONTINUOUS
10
153.895
20
-91.04
11
153.445
21
-91.04
0
LINE
8
BLACK
6
CONTINUOUS
10
153.445
20
-91.04
11
153.348
21
-91.0346
0
LINE
8
BLACK
6
CONTINUOUS
10
153.348
20
-91.0346
11
153.165
21
-90.9936
0
LINE
8
BLACK
6
CONTINUOUS
10
153.165
20
-90.9936
11
152.994
21
-90.9142
0
LINE
8
BLACK
6
CONTINUOUS
10
152.994
20
-90.9142
11
152.845
21
-90.8
0
LINE
8
BLACK
6
CONTINUOUS
10
152.845
20
-90.8
11
152.724
21
-90.6565
0
LINE
8
BLACK
6
CONTINUOUS
10
152.724
20
-90.6565
11
152.636
21
-90.4903
0
LINE
8
BLACK
6
CONTINUOUS
10
152.636
20
-90.4903
11
152.586
21
-90.3091
0
LINE
8
BLACK
6
CONTINUOUS
10
152.586
20
-90.3091
11
152.576
21
-90.1214
0
LINE
8
BLACK
6
CONTINUOUS
10
152.576
20
-90.1214
11
152.607
21
-89.936
0
LINE
8
BLACK
6
CONTINUOUS
10
152.607
20
-89.936
11
152.677
21
-89.7616
0
LINE
8
BLACK
6
CONTINUOUS
10
152.677
20
-89.7616
11
152.782
21
-89.6061
0
LINE
8
BLACK
6
CONTINUOUS
10
152.782
20
-89.6061
11
152.919
21
-89.477
0
LINE
8
BLACK
6
CONTINUOUS
10
152.919
20
-89.477
11
153.08
21
-89.3802
0
LINE
8
BLACK
6
CONTINUOUS
10
153.08
20
-89.3802
11
153.258
21
-89.3203
0
LINE
8
BLACK
6
CONTINUOUS
10
153.258
20
-89.3203
11
153.445
21
-89.3
0
LINE
8
BLACK
6
CONTINUOUS
10
153.445
20
-89.3
11
153.895
21
-89.3
0
LINE
8
BLACK
6
CONTINUOUS
10
153.895
20
-89.3
11
153.992
21
-89.3054
0
LINE
8
BLACK
6
CONTINUOUS
10
153.992
20
-86.7654
11
154.175
21
-86.8064
0
LINE
8
BLACK
6
CONTINUOUS
10
154.175
20
-86.8064
11
154.346
21
-86.8858
0
LINE
8
BLACK
6
CONTINUOUS
10
154.346
20
-86.8858
11
154.495
21
-87
0
LINE
8
BLACK
6
CONTINUOUS
10
154.495
20
-87
11
154.616
21
-87.1435
0
LINE
8
BLACK
6
CONTINUOUS
10
154.616
20
-87.1435
11
154.704
21
-87.3097
0
LINE
8
BLACK
6
CONTINUOUS
10
154.704
20
-87.3097
11
154.754
21
-87.4909
0
LINE
8
BLACK
6
CONTINUOUS
10
154.754
20
-87.4909
11
154.764
21
-87.6786
0
LINE
8
BLACK
6
CONTINUOUS
10
154.764
20
-87.6786
11
154.733
21
-87.864
0
LINE
8
BLACK
6
CONTINUOUS
10
154.733
20
-87.864
11
154.663
21
-88.0384
0
LINE
8
BLACK
6
CONTINUOUS
10
154.663
20
-88.0384
11
154.558
21
-88.1939
0
LINE
8
BLACK
6
CONTINUOUS
10
154.558
20
-88.1939
11
154.421
21
-88.323
0
LINE
8
BLACK
6
CONTINUOUS
10
154.421
20
-88.323
11
154.26
21
-88.4198
0
LINE
8
BLACK
6
CONTINUOUS
10
154.26
20
-88.4198
11
154.082
21
-88.4797
0
LINE
8
BLACK
6
CONTINUOUS
10
154.082
20
-88.4797
11
153.895
21
-88.5
0
LINE
8
BLACK
6
CONTINUOUS
10
153.895
20
-88.5
11
153.445
21
-88.5
0
LINE
8
BLACK
6
CONTINUOUS
10
153.445
20
-88.5
11
153.348
21
-88.4946
0
LINE
8
BLACK
6
CONTINUOUS
10
153.348
20
-88.4946
11
153.165
21
-88.4536
0
LINE
8
BLACK
6
CONTINUOUS
10
153.165
20
-88.4536
11
152.994
21
-88.3742
0
LINE
8
BLACK
6
CONTINUOUS
10
152.994
20
-88.3742
11
152.845
21
-88.26
0
LINE
8
BLACK
6
CONTINUOUS
10
152.845
20
-88.26
11
152.724
21
-88.1165
0
LINE
8
BLACK
6
CONTINUOUS
10
152.724
20
-88.1165
11
152.636
21
-87.9503
0
LINE
8
BLACK
6
CONTINUOUS
10
152.636
20
-87.9503
11
152.586
21
-87.7691
0
LINE
8
BLACK
6
CONTINUOUS
10
152.586
20
-87.7691
11
152.576
21
-87.5814
0
LINE
8
BLACK
6
CONTINUOUS
10
152.576
20
-87.5814
11
152.607
21
-87.396
0
LINE
8
BLACK
6
CONTINUOUS
10
152.607
20
-87.396
11
152.677
21
-87.2216
0
LINE
8
BLACK
6
CONTINUOUS
10
152.677
20
-87.2216
11
152.782
21
-87.0661
0
LINE
8
BLACK
6
CONTINUOUS
10
152.782
20
-87.0661
11
152.919
21
-86.937
0
LINE
8
BLACK
6
CONTINUOUS
10
152.919
20
-86.937
11
153.08
21
-86.8402
0
LINE
8
BLACK
6
CONTINUOUS
10
153.08
20
-86.8402
11
153.258
21
-86.7803
0
LINE
8
BLACK
6
CONTINUOUS
10
153.258
20
-86.7803
11
153.445
21
-86.76
0
LINE
8
BLACK
6
CONTINUOUS
10
153.445
20
-86.76
11
153.895
21
-86.76
0
LINE
8
BLACK
6
CONTINUOUS
10
153.895
20
-86.76
11
153.992
21
-86.7654
0
LINE
8
BLACK
6
CONTINUOUS
10
116.308
20
-85.5811
11
116.476
21
-85.641
0
LINE
8
BLACK
6
CONTINUOUS
10
116.476
20
-85.641
11
116.626
21
-85.7365
0
LINE
8
BLACK
6
CONTINUOUS
10
116.626
20
-85.7365
11
116.752
21
-85.8631
0
LINE
8
BLACK
6
CONTINUOUS
10
116.752
20
-85.8631
11
116.846
21
-86.0143
0
LINE
8
BLACK
6
CONTINUOUS
10
116.846
20
-86.0143
11
116.905
21
-86.1828
0
LINE
8
BLACK
6
CONTINUOUS
10
116.905
20
-86.1828
11
116.925
21
-86.36
0
LINE
8
BLACK
6
CONTINUOUS
10
116.925
20
-86.36
11
116.925
21
-86.3823
0
LINE
8
BLACK
6
CONTINUOUS
10
116.925
20
-86.3823
11
116.9
21
-86.559
0
LINE
8
BLACK
6
CONTINUOUS
10
116.9
20
-86.559
11
116.837
21
-86.7257
0
LINE
8
BLACK
6
CONTINUOUS
10
116.837
20
-86.7257
11
116.738
21
-86.8742
0
LINE
8
BLACK
6
CONTINUOUS
10
116.738
20
-86.8742
11
116.609
21
-86.9972
0
LINE
8
BLACK
6
CONTINUOUS
10
116.609
20
-86.9972
11
116.455
21
-87.0885
0
LINE
8
BLACK
6
CONTINUOUS
10
116.455
20
-87.0885
11
116.286
21
-87.1437
0
LINE
8
BLACK
6
CONTINUOUS
10
116.286
20
-87.1437
11
116.108
21
-87.1598
0
LINE
8
BLACK
6
CONTINUOUS
10
116.108
20
-87.1598
11
115.931
21
-87.1362
0
LINE
8
BLACK
6
CONTINUOUS
10
115.931
20
-87.1362
11
115.764
21
-87.0741
0
LINE
8
BLACK
6
CONTINUOUS
10
115.764
20
-87.0741
11
115.615
21
-86.9764
0
LINE
8
BLACK
6
CONTINUOUS
10
115.615
20
-86.9764
11
115.491
21
-86.8481
0
LINE
8
BLACK
6
CONTINUOUS
10
115.491
20
-86.8481
11
115.399
21
-86.6956
0
LINE
8
BLACK
6
CONTINUOUS
10
115.399
20
-86.6956
11
115.342
21
-86.5263
0
LINE
8
BLACK
6
CONTINUOUS
10
115.342
20
-86.5263
11
115.325
21
-86.3488
0
LINE
8
BLACK
6
CONTINUOUS
10
115.325
20
-86.3488
11
115.347
21
-86.1719
0
LINE
8
BLACK
6
CONTINUOUS
10
115.347
20
-86.1719
11
115.408
21
-86.0043
0
LINE
8
BLACK
6
CONTINUOUS
10
115.408
20
-86.0043
11
115.505
21
-85.8544
0
LINE
8
BLACK
6
CONTINUOUS
10
115.505
20
-85.8544
11
115.632
21
-85.7296
0
LINE
8
BLACK
6
CONTINUOUS
10
115.632
20
-85.7296
11
115.784
21
-85.6361
0
LINE
8
BLACK
6
CONTINUOUS
10
115.784
20
-85.6361
11
115.953
21
-85.5787
0
LINE
8
BLACK
6
CONTINUOUS
10
115.953
20
-85.5787
11
116.131
21
-85.56
0
LINE
8
BLACK
6
CONTINUOUS
10
116.131
20
-85.56
11
116.308
21
-85.5811
0
LINE
8
BLACK
6
CONTINUOUS
10
111.308
20
-85.5811
11
111.476
21
-85.641
0
LINE
8
BLACK
6
CONTINUOUS
10
111.476
20
-85.641
11
111.626
21
-85.7365
0
LINE
8
BLACK
6
CONTINUOUS
10
111.626
20
-85.7365
11
111.752
21
-85.8631
0
LINE
8
BLACK
6
CONTINUOUS
10
111.752
20
-85.8631
11
111.846
21
-86.0143
0
LINE
8
BLACK
6
CONTINUOUS
10
111.846
20
-86.0143
11
111.905
21
-86.1828
0
LINE
8
BLACK
6
CONTINUOUS
10
111.905
20
-86.1828
11
111.925
21
-86.36
0
LINE
8
BLACK
6
CONTINUOUS
10
111.925
20
-86.36
11
111.925
21
-86.3823
0
LINE
8
BLACK
6
CONTINUOUS
10
111.925
20
-86.3823
11
111.9
21
-86.559
0
LINE
8
BLACK
6
CONTINUOUS
10
111.9
20
-86.559
11
111.837
21
-86.7257
0
LINE
8
BLACK
6
CONTINUOUS
10
111.837
20
-86.7257
11
111.738
21
-86.8742
0
LINE
8
BLACK
6
CONTINUOUS
10
111.738
20
-86.8742
11
111.609
21
-86.9972
0
LINE
8
BLACK
6
CONTINUOUS
10
111.609
20
-86.9972
11
111.455
21
-87.0885
0
LINE
8
BLACK
6
CONTINUOUS
10
111.455
20
-87.0885
11
111.286
21
-87.1437
0
LINE
8
BLACK
6
CONTINUOUS
10
111.286
20
-87.1437
11
111.108
21
-87.1598
0
LINE
8
BLACK
6
CONTINUOUS
10
111.108
20
-87.1598
11
110.931
21
-87.1362
0
LINE
8
BLACK
6
CONTINUOUS
10
110.931
20
-87.1362
11
110.764
21
-87.0741
0
LINE
8
BLACK
6
CONTINUOUS
10
110.764
20
-87.0741
11
110.615
21
-86.9764
0
LINE
8
BLACK
6
CONTINUOUS
10
110.615
20
-86.9764
11
110.491
21
-86.8481
0
LINE
8
BLACK
6
CONTINUOUS
10
110.491
20
-86.8481
11
110.399
21
-86.6956
0
LINE
8
BLACK
6
CONTINUOUS
10
110.399
20
-86.6956
11
110.342
21
-86.5263
0
LINE
8
BLACK
6
CONTINUOUS
10
110.342
20
-86.5263
11
110.325
21
-86.3488
0
LINE
8
BLACK
6
CONTINUOUS
10
110.325
20
-86.3488
11
110.347
21
-86.1719
0
LINE
8
BLACK
6
CONTINUOUS
10
110.347
20
-86.1719
11
110.408
21
-86.0043
0
LINE
8
BLACK
6
CONTINUOUS
10
110.408
20
-86.0043
11
110.505
21
-85.8544
0
LINE
8
BLACK
6
CONTINUOUS
10
110.505
20
-85.8544
11
110.632
21
-85.7296
0
LINE
8
BLACK
6
CONTINUOUS
10
110.632
20
-85.7296
11
110.784
21
-85.6361
0
LINE
8
BLACK
6
CONTINUOUS
10
110.784
20
-85.6361
11
110.953
21
-85.5787
0
LINE
8
BLACK
6
CONTINUOUS
10
110.953
20
-85.5787
11
111.131
21
-85.56
0
LINE
8
BLACK
6
CONTINUOUS
10
111.131
20
-85.56
11
111.308
21
-85.5811
0
LINE
8
BLACK
6
CONTINUOUS
10
153.992
20
-84.2254
11
154.175
21
-84.2664
0
LINE
8
BLACK
6
CONTINUOUS
10
154.175
20
-84.2664
11
154.346
21
-84.3458
0
LINE
8
BLACK
6
CONTINUOUS
10
154.346
20
-84.3458
11
154.495
21
-84.46
0
LINE
8
BLACK
6
CONTINUOUS
10
154.495
20
-84.46
11
154.616
21
-84.6035
0
LINE
8
BLACK
6
CONTINUOUS
10
154.616
20
-84.6035
11
154.704
21
-84.7697
0
LINE
8
BLACK
6
CONTINUOUS
10
154.704
20
-84.7697
11
154.754
21
-84.9509
0
LINE
8
BLACK
6
CONTINUOUS
10
154.754
20
-84.9509
11
154.764
21
-85.1386
0
LINE
8
BLACK
6
CONTINUOUS
10
154.764
20
-85.1386
11
154.733
21
-85.324
0
LINE
8
BLACK
6
CONTINUOUS
10
154.733
20
-85.324
11
154.663
21
-85.4984
0
LINE
8
BLACK
6
CONTINUOUS
10
154.663
20
-85.4984
11
154.558
21
-85.6539
0
LINE
8
BLACK
6
CONTINUOUS
10
154.558
20
-85.6539
11
154.421
21
-85.783
0
LINE
8
BLACK
6
CONTINUOUS
10
154.421
20
-85.783
11
154.26
21
-85.8798
0
LINE
8
BLACK
6
CONTINUOUS
10
154.26
20
-85.8798
11
154.082
21
-85.9397
0
LINE
8
BLACK
6
CONTINUOUS
10
154.082
20
-85.9397
11
153.895
21
-85.96
0
LINE
8
BLACK
6
CONTINUOUS
10
153.895
20
-85.96
11
153.445
21
-85.96
0
LINE
8
BLACK
6
CONTINUOUS
10
153.445
20
-85.96
11
153.348
21
-85.9546
0
LINE
8
BLACK
6
CONTINUOUS
10
153.348
20
-85.9546
11
153.165
21
-85.9136
0
LINE
8
BLACK
6
CONTINUOUS
10
153.165
20
-85.9136
11
152.994
21
-85.8342
0
LINE
8
BLACK
6
CONTINUOUS
10
152.994
20
-85.8342
11
152.845
21
-85.72
0
LINE
8
BLACK
6
CONTINUOUS
10
152.845
20
-85.72
11
152.724
21
-85.5765
0
LINE
8
BLACK
6
CONTINUOUS
10
152.724
20
-85.5765
11
152.636
21
-85.4103
0
LINE
8
BLACK
6
CONTINUOUS
10
152.636
20
-85.4103
11
152.586
21
-85.2291
0
LINE
8
BLACK
6
CONTINUOUS
10
152.586
20
-85.2291
11
152.576
21
-85.0414
0
LINE
8
BLACK
6
CONTINUOUS
10
152.576
20
-85.0414
11
152.607
21
-84.856
0
LINE
8
BLACK
6
CONTINUOUS
10
152.607
20
-84.856
11
152.677
21
-84.6816
0
LINE
8
BLACK
6
CONTINUOUS
10
152.677
20
-84.6816
11
152.782
21
-84.5261
0
LINE
8
BLACK
6
CONTINUOUS
10
152.782
20
-84.5261
11
152.919
21
-84.397
0
LINE
8
BLACK
6
CONTINUOUS
10
152.919
20
-84.397
11
153.08
21
-84.3002
0
LINE
8
BLACK
6
CONTINUOUS
10
153.08
20
-84.3002
11
153.258
21
-84.2403
0
LINE
8
BLACK
6
CONTINUOUS
10
153.258
20
-84.2403
11
153.445
21
-84.22
0
LINE
8
BLACK
6
CONTINUOUS
10
153.445
20
-84.22
11
153.895
21
-84.22
0
LINE
8
BLACK
6
CONTINUOUS
10
153.895
20
-84.22
11
153.992
21
-84.2254
0
LINE
8
BLACK
6
CONTINUOUS
10
128.351
20
-82.009
11
128.432
21
-82.0632
0
LINE
8
BLACK
6
CONTINUOUS
10
128.432
20
-82.0632
11
128.486
21
-82.1443
0
LINE
8
BLACK
6
CONTINUOUS
10
128.486
20
-82.1443
11
128.505
21
-82.24
0
LINE
8
BLACK
6
CONTINUOUS
10
128.505
20
-82.24
11
128.505
21
-83.93
0
LINE
8
BLACK
6
CONTINUOUS
10
128.505
20
-83.93
11
128.486
21
-84.0257
0
LINE
8
BLACK
6
CONTINUOUS
10
128.486
20
-84.0257
11
128.432
21
-84.1068
0
LINE
8
BLACK
6
CONTINUOUS
10
128.432
20
-84.1068
11
128.351
21
-84.161
0
LINE
8
BLACK
6
CONTINUOUS
10
128.351
20
-84.161
11
128.255
21
-84.18
0
LINE
8
BLACK
6
CONTINUOUS
10
128.255
20
-84.18
11
127.015
21
-84.18
0
LINE
8
BLACK
6
CONTINUOUS
10
127.015
20
-84.18
11
126.919
21
-84.161
0
LINE
8
BLACK
6
CONTINUOUS
10
126.919
20
-84.161
11
126.838
21
-84.1068
0
LINE
8
BLACK
6
CONTINUOUS
10
126.838
20
-84.1068
11
126.784
21
-84.0257
0
LINE
8
BLACK
6
CONTINUOUS
10
126.784
20
-84.0257
11
126.765
21
-83.93
0
LINE
8
BLACK
6
CONTINUOUS
10
126.765
20
-83.93
11
126.765
21
-82.24
0
LINE
8
BLACK
6
CONTINUOUS
10
126.765
20
-82.24
11
126.784
21
-82.1443
0
LINE
8
BLACK
6
CONTINUOUS
10
126.784
20
-82.1443
11
126.838
21
-82.0632
0
LINE
8
BLACK
6
CONTINUOUS
10
126.838
20
-82.0632
11
126.919
21
-82.009
0
LINE
8
BLACK
6
CONTINUOUS
10
126.919
20
-82.009
11
127.015
21
-81.99
0
LINE
8
BLACK
6
CONTINUOUS
10
127.015
20
-81.99
11
128.255
21
-81.99
0
LINE
8
BLACK
6
CONTINUOUS
10
128.255
20
-81.99
11
128.351
21
-82.009
0
LINE
8
BLACK
6
CONTINUOUS
10
137.876
20
-82.009
11
137.957
21
-82.0632
0
LINE
8
BLACK
6
CONTINUOUS
10
137.957
20
-82.0632
11
138.011
21
-82.1443
0
LINE
8
BLACK
6
CONTINUOUS
10
138.011
20
-82.1443
11
138.03
21
-82.24
0
LINE
8
BLACK
6
CONTINUOUS
10
138.03
20
-82.24
11
138.03
21
-83.93
0
LINE
8
BLACK
6
CONTINUOUS
10
138.03
20
-83.93
11
138.011
21
-84.0257
0
LINE
8
BLACK
6
CONTINUOUS
10
138.011
20
-84.0257
11
137.957
21
-84.1068
0
LINE
8
BLACK
6
CONTINUOUS
10
137.957
20
-84.1068
11
137.876
21
-84.161
0
LINE
8
BLACK
6
CONTINUOUS
10
137.876
20
-84.161
11
137.78
21
-84.18
0
LINE
8
BLACK
6
CONTINUOUS
10
137.78
20
-84.18
11
136.54
21
-84.18
0
LINE
8
BLACK
6
CONTINUOUS
10
136.54
20
-84.18
11
136.444
21
-84.161
0
LINE
8
BLACK
6
CONTINUOUS
10
136.444
20
-84.161
11
136.363
21
-84.1068
0
LINE
8
BLACK
6
CONTINUOUS
10
136.363
20
-84.1068
11
136.309
21
-84.0257
0
LINE
8
BLACK
6
CONTINUOUS
10
136.309
20
-84.0257
11
136.29
21
-83.93
0
LINE
8
BLACK
6
CONTINUOUS
10
136.29
20
-83.93
11
136.29
21
-82.24
0
LINE
8
BLACK
6
CONTINUOUS
10
136.29
20
-82.24
11
136.309
21
-82.1443
0
LINE
8
BLACK
6
CONTINUOUS
10
136.309
20
-82.1443
11
136.363
21
-82.0632
0
LINE
8
BLACK
6
CONTINUOUS
10
136.363
20
-82.0632
11
136.444
21
-82.009
0
LINE
8
BLACK
6
CONTINUOUS
10
136.444
20
-82.009
11
136.54
21
-81.99
0
LINE
8
BLACK
6
CONTINUOUS
10
136.54
20
-81.99
11
137.78
21
-81.99
0
LINE
8
BLACK
6
CONTINUOUS
10
137.78
20
-81.99
11
137.876
21
-82.009
0
LINE
8
BLACK
6
CONTINUOUS
10
130.409
20
-82.022
11
130.583
21
-82.0918
0
LINE
8
BLACK
6
CONTINUOUS
10
130.583
20
-82.0918
11
130.739
21
-82.1975
0
LINE
8
BLACK
6
CONTINUOUS
10
130.739
20
-82.1975
11
130.868
21
-82.334
0
LINE
8
BLACK
6
CONTINUOUS
10
130.868
20
-82.334
11
130.965
21
-82.4951
0
LINE
8
BLACK
6
CONTINUOUS
10
130.965
20
-82.4951
11
131.025
21
-82.6732
0
LINE
8
BLACK
6
CONTINUOUS
10
131.025
20
-82.6732
11
131.045
21
-82.86
0
LINE
8
BLACK
6
CONTINUOUS
10
131.045
20
-82.86
11
131.045
21
-83.31
0
LINE
8
BLACK
6
CONTINUOUS
10
131.045
20
-83.31
11
131.04
21
-83.407
0
LINE
8
BLACK
6
CONTINUOUS
10
131.04
20
-83.407
11
130.999
21
-83.5904
0
LINE
8
BLACK
6
CONTINUOUS
10
130.999
20
-83.5904
11
130.919
21
-83.7607
0
LINE
8
BLACK
6
CONTINUOUS
10
130.919
20
-83.7607
11
130.805
21
-83.91
0
LINE
8
BLACK
6
CONTINUOUS
10
130.805
20
-83.91
11
130.661
21
-84.0313
0
LINE
8
BLACK
6
CONTINUOUS
10
130.661
20
-84.0313
11
130.495
21
-84.1189
0
LINE
8
BLACK
6
CONTINUOUS
10
130.495
20
-84.1189
11
130.314
21
-84.1688
0
LINE
8
BLACK
6
CONTINUOUS
10
130.314
20
-84.1688
11
130.126
21
-84.1786
0
LINE
8
BLACK
6
CONTINUOUS
10
130.126
20
-84.1786
11
129.941
21
-84.148
0
LINE
8
BLACK
6
CONTINUOUS
10
129.941
20
-84.148
11
129.767
21
-84.0782
0
LINE
8
BLACK
6
CONTINUOUS
10
129.767
20
-84.0782
11
129.611
21
-83.9725
0
LINE
8
BLACK
6
CONTINUOUS
10
129.611
20
-83.9725
11
129.482
21
-83.836
0
LINE
8
BLACK
6
CONTINUOUS
10
129.482
20
-83.836
11
129.385
21
-83.6749
0
LINE
8
BLACK
6
CONTINUOUS
10
129.385
20
-83.6749
11
129.325
21
-83.4968
0
LINE
8
BLACK
6
CONTINUOUS
10
129.325
20
-83.4968
11
129.305
21
-83.31
0
LINE
8
BLACK
6
CONTINUOUS
10
129.305
20
-83.31
11
129.305
21
-82.86
0
LINE
8
BLACK
6
CONTINUOUS
10
129.305
20
-82.86
11
129.31
21
-82.763
0
LINE
8
BLACK
6
CONTINUOUS
10
129.31
20
-82.763
11
129.351
21
-82.5796
0
LINE
8
BLACK
6
CONTINUOUS
10
129.351
20
-82.5796
11
129.431
21
-82.4093
0
LINE
8
BLACK
6
CONTINUOUS
10
129.431
20
-82.4093
11
129.545
21
-82.26
0
LINE
8
BLACK
6
CONTINUOUS
10
129.545
20
-82.26
11
129.689
21
-82.1387
0
LINE
8
BLACK
6
CONTINUOUS
10
129.689
20
-82.1387
11
129.855
21
-82.0511
0
LINE
8
BLACK
6
CONTINUOUS
10
129.855
20
-82.0511
11
130.036
21
-82.0012
0
LINE
8
BLACK
6
CONTINUOUS
10
130.036
20
-82.0012
11
130.224
21
-81.9914
0
LINE
8
BLACK
6
CONTINUOUS
10
130.224
20
-81.9914
11
130.409
21
-82.022
0
LINE
8
BLACK
6
CONTINUOUS
10
139.934
20
-82.022
11
140.108
21
-82.0918
0
LINE
8
BLACK
6
CONTINUOUS
10
140.108
20
-82.0918
11
140.264
21
-82.1975
0
LINE
8
BLACK
6
CONTINUOUS
10
140.264
20
-82.1975
11
140.393
21
-82.334
0
LINE
8
BLACK
6
CONTINUOUS
10
140.393
20
-82.334
11
140.49
21
-82.4951
0
LINE
8
BLACK
6
CONTINUOUS
10
140.49
20
-82.4951
11
140.55
21
-82.6732
0
LINE
8
BLACK
6
CONTINUOUS
10
140.55
20
-82.6732
11
140.57
21
-82.86
0
LINE
8
BLACK
6
CONTINUOUS
10
140.57
20
-82.86
11
140.57
21
-83.31
0
LINE
8
BLACK
6
CONTINUOUS
10
140.57
20
-83.31
11
140.565
21
-83.407
0
LINE
8
BLACK
6
CONTINUOUS
10
140.565
20
-83.407
11
140.524
21
-83.5904
0
LINE
8
BLACK
6
CONTINUOUS
10
140.524
20
-83.5904
11
140.444
21
-83.7607
0
LINE
8
BLACK
6
CONTINUOUS
10
140.444
20
-83.7607
11
140.33
21
-83.91
0
LINE
8
BLACK
6
CONTINUOUS
10
140.33
20
-83.91
11
140.186
21
-84.0313
0
LINE
8
BLACK
6
CONTINUOUS
10
140.186
20
-84.0313
11
140.02
21
-84.1189
0
LINE
8
BLACK
6
CONTINUOUS
10
140.02
20
-84.1189
11
139.839
21
-84.1688
0
LINE
8
BLACK
6
CONTINUOUS
10
139.839
20
-84.1688
11
139.651
21
-84.1786
0
LINE
8
BLACK
6
CONTINUOUS
10
139.651
20
-84.1786
11
139.466
21
-84.148
0
LINE
8
BLACK
6
CONTINUOUS
10
139.466
20
-84.148
11
139.292
21
-84.0782
0
LINE
8
BLACK
6
CONTINUOUS
10
139.292
20
-84.0782
11
139.136
21
-83.9725
0
LINE
8
BLACK
6
CONTINUOUS
10
139.136
20
-83.9725
11
139.007
21
-83.836
0
LINE
8
BLACK
6
CONTINUOUS
10
139.007
20
-83.836
11
138.91
21
-83.6749
0
LINE
8
BLACK
6
CONTINUOUS
10
138.91
20
-83.6749
11
138.85
21
-83.4968
0
LINE
8
BLACK
6
CONTINUOUS
10
138.85
20
-83.4968
11
138.83
21
-83.31
0
LINE
8
BLACK
6
CONTINUOUS
10
138.83
20
-83.31
11
138.83
21
-82.86
0
LINE
8
BLACK
6
CONTINUOUS
10
138.83
20
-82.86
11
138.835
21
-82.763
0
LINE
8
BLACK
6
CONTINUOUS
10
138.835
20
-82.763
11
138.876
21
-82.5796
0
LINE
8
BLACK
6
CONTINUOUS
10
138.876
20
-82.5796
11
138.956
21
-82.4093
0
LINE
8
BLACK
6
CONTINUOUS
10
138.956
20
-82.4093
11
139.07
21
-82.26
0
LINE
8
BLACK
6
CONTINUOUS
10
139.07
20
-82.26
11
139.214
21
-82.1387
0
LINE
8
BLACK
6
CONTINUOUS
10
139.214
20
-82.1387
11
139.38
21
-82.0511
0
LINE
8
BLACK
6
CONTINUOUS
10
139.38
20
-82.0511
11
139.561
21
-82.0012
0
LINE
8
BLACK
6
CONTINUOUS
10
139.561
20
-82.0012
11
139.749
21
-81.9914
0
LINE
8
BLACK
6
CONTINUOUS
10
139.749
20
-81.9914
11
139.934
21
-82.022
0
LINE
8
BLACK
6
CONTINUOUS
10
153.992
20
-81.6854
11
154.175
21
-81.7264
0
LINE
8
BLACK
6
CONTINUOUS
10
154.175
20
-81.7264
11
154.346
21
-81.8058
0
LINE
8
BLACK
6
CONTINUOUS
10
154.346
20
-81.8058
11
154.495
21
-81.92
0
LINE
8
BLACK
6
CONTINUOUS
10
154.495
20
-81.92
11
154.616
21
-82.0635
0
LINE
8
BLACK
6
CONTINUOUS
10
154.616
20
-82.0635
11
154.704
21
-82.2297
0
LINE
8
BLACK
6
CONTINUOUS
10
154.704
20
-82.2297
11
154.754
21
-82.4109
0
LINE
8
BLACK
6
CONTINUOUS
10
154.754
20
-82.4109
11
154.764
21
-82.5986
0
LINE
8
BLACK
6
CONTINUOUS
10
154.764
20
-82.5986
11
154.733
21
-82.784
0
LINE
8
BLACK
6
CONTINUOUS
10
154.733
20
-82.784
11
154.663
21
-82.9584
0
LINE
8
BLACK
6
CONTINUOUS
10
154.663
20
-82.9584
11
154.558
21
-83.1139
0
LINE
8
BLACK
6
CONTINUOUS
10
154.558
20
-83.1139
11
154.421
21
-83.243
0
LINE
8
BLACK
6
CONTINUOUS
10
154.421
20
-83.243
11
154.26
21
-83.3398
0
LINE
8
BLACK
6
CONTINUOUS
10
154.26
20
-83.3398
11
154.082
21
-83.3997
0
LINE
8
BLACK
6
CONTINUOUS
10
154.082
20
-83.3997
11
153.895
21
-83.42
0
LINE
8
BLACK
6
CONTINUOUS
10
153.895
20
-83.42
11
153.445
21
-83.42
0
LINE
8
BLACK
6
CONTINUOUS
10
153.445
20
-83.42
11
153.348
21
-83.4146
0
LINE
8
BLACK
6
CONTINUOUS
10
153.348
20
-83.4146
11
153.165
21
-83.3736
0
LINE
8
BLACK
6
CONTINUOUS
10
153.165
20
-83.3736
11
152.994
21
-83.2942
0
LINE
8
BLACK
6
CONTINUOUS
10
152.994
20
-83.2942
11
152.845
21
-83.18
0
LINE
8
BLACK
6
CONTINUOUS
10
152.845
20
-83.18
11
152.724
21
-83.0365
0
LINE
8
BLACK
6
CONTINUOUS
10
152.724
20
-83.0365
11
152.636
21
-82.8703
0
LINE
8
BLACK
6
CONTINUOUS
10
152.636
20
-82.8703
11
152.586
21
-82.6891
0
LINE
8
BLACK
6
CONTINUOUS
10
152.586
20
-82.6891
11
152.576
21
-82.5014
0
LINE
8
BLACK
6
CONTINUOUS
10
152.576
20
-82.5014
11
152.607
21
-82.316
0
LINE
8
BLACK
6
CONTINUOUS
10
152.607
20
-82.316
11
152.677
21
-82.1416
0
LINE
8
BLACK
6
CONTINUOUS
10
152.677
20
-82.1416
11
152.782
21
-81.9861
0
LINE
8
BLACK
6
CONTINUOUS
10
152.782
20
-81.9861
11
152.919
21
-81.857
0
LINE
8
BLACK
6
CONTINUOUS
10
152.919
20
-81.857
11
153.08
21
-81.7602
0
LINE
8
BLACK
6
CONTINUOUS
10
153.08
20
-81.7602
11
153.258
21
-81.7003
0
LINE
8
BLACK
6
CONTINUOUS
10
153.258
20
-81.7003
11
153.445
21
-81.68
0
LINE
8
BLACK
6
CONTINUOUS
10
153.445
20
-81.68
11
153.895
21
-81.68
0
LINE
8
BLACK
6
CONTINUOUS
10
153.895
20
-81.68
11
153.992
21
-81.6854
0
LINE
8
BLACK
6
CONTINUOUS
10
153.992
20
-79.1454
11
154.175
21
-79.1864
0
LINE
8
BLACK
6
CONTINUOUS
10
154.175
20
-79.1864
11
154.346
21
-79.2658
0
LINE
8
BLACK
6
CONTINUOUS
10
154.346
20
-79.2658
11
154.495
21
-79.38
0
LINE
8
BLACK
6
CONTINUOUS
10
154.495
20
-79.38
11
154.616
21
-79.5235
0
LINE
8
BLACK
6
CONTINUOUS
10
154.616
20
-79.5235
11
154.704
21
-79.6897
0
LINE
8
BLACK
6
CONTINUOUS
10
154.704
20
-79.6897
11
154.754
21
-79.8709
0
LINE
8
BLACK
6
CONTINUOUS
10
154.754
20
-79.8709
11
154.764
21
-80.0586
0
LINE
8
BLACK
6
CONTINUOUS
10
154.764
20
-80.0586
11
154.733
21
-80.244
0
LINE
8
BLACK
6
CONTINUOUS
10
154.733
20
-80.244
11
154.663
21
-80.4184
0
LINE
8
BLACK
6
CONTINUOUS
10
154.663
20
-80.4184
11
154.558
21
-80.5739
0
LINE
8
BLACK
6
CONTINUOUS
10
154.558
20
-80.5739
11
154.421
21
-80.703
0
LINE
8
BLACK
6
CONTINUOUS
10
154.421
20
-80.703
11
154.26
21
-80.7998
0
LINE
8
BLACK
6
CONTINUOUS
10
154.26
20
-80.7998
11
154.082
21
-80.8597
0
LINE
8
BLACK
6
CONTINUOUS
10
154.082
20
-80.8597
11
153.895
21
-80.88
0
LINE
8
BLACK
6
CONTINUOUS
10
153.895
20
-80.88
11
153.445
21
-80.88
0
LINE
8
BLACK
6
CONTINUOUS
10
153.445
20
-80.88
11
153.348
21
-80.8746
0
LINE
8
BLACK
6
CONTINUOUS
10
153.348
20
-80.8746
11
153.165
21
-80.8336
0
LINE
8
BLACK
6
CONTINUOUS
10
153.165
20
-80.8336
11
152.994
21
-80.7542
0
LINE
8
BLACK
6
CONTINUOUS
10
152.994
20
-80.7542
11
152.845
21
-80.64
0
LINE
8
BLACK
6
CONTINUOUS
10
152.845
20
-80.64
11
152.724
21
-80.4965
0
LINE
8
BLACK
6
CONTINUOUS
10
152.724
20
-80.4965
11
152.636
21
-80.3303
0
LINE
8
BLACK
6
CONTINUOUS
10
152.636
20
-80.3303
11
152.586
21
-80.1491
0
LINE
8
BLACK
6
CONTINUOUS
10
152.586
20
-80.1491
11
152.576
21
-79.9614
0
LINE
8
BLACK
6
CONTINUOUS
10
152.576
20
-79.9614
11
152.607
21
-79.776
0
LINE
8
BLACK
6
CONTINUOUS
10
152.607
20
-79.776
11
152.677
21
-79.6016
0
LINE
8
BLACK
6
CONTINUOUS
10
152.677
20
-79.6016
11
152.782
21
-79.4461
0
LINE
8
BLACK
6
CONTINUOUS
10
152.782
20
-79.4461
11
152.919
21
-79.317
0
LINE
8
BLACK
6
CONTINUOUS
10
152.919
20
-79.317
11
153.08
21
-79.2202
0
LINE
8
BLACK
6
CONTINUOUS
10
153.08
20
-79.2202
11
153.258
21
-79.1603
0
LINE
8
BLACK
6
CONTINUOUS
10
153.258
20
-79.1603
11
153.445
21
-79.14
0
LINE
8
BLACK
6
CONTINUOUS
10
153.445
20
-79.14
11
153.895
21
-79.14
0
LINE
8
BLACK
6
CONTINUOUS
10
153.895
20
-79.14
11
153.992
21
-79.1454
0
LINE
8
BLACK
6
CONTINUOUS
10
86.3246
20
-151.8
11
86.31
21
-151.765
0
LINE
8
BLACK
6
CONTINUOUS
10
86.31
20
-151.765
11
86.31
21
-76.2
0
LINE
8
BLACK
6
CONTINUOUS
10
86.31
20
-76.2
11
86.3246
21
-76.1646
0
LINE
8
BLACK
6
CONTINUOUS
10
86.3246
20
-76.1646
11
86.36
21
-76.15
0
LINE
8
BLACK
6
CONTINUOUS
10
86.36
20
-76.15
11
160.02
21
-76.15
0
LINE
8
BLACK
6
CONTINUOUS
10
160.02
20
-76.15
11
160.055
21
-76.1646
0
LINE
8
BLACK
6
CONTINUOUS
10
160.055
20
-76.1646
11
160.07
21
-76.2
0
LINE
8
BLACK
6
CONTINUOUS
10
160.07
20
-76.2
11
160.07
21
-151.765
0
LINE
8
BLACK
6
CONTINUOUS
10
160.07
20
-151.765
11
160.055
21
-151.8
0
LINE
8
BLACK
6
CONTINUOUS
10
160.055
20
-151.8
11
160.02
21
-151.815
0
LINE
8
BLACK
6
CONTINUOUS
10
160.02
20
-151.815
11
86.36
21
-151.815
0
LINE
8
BLACK
6
CONTINUOUS
10
86.36
20
-151.815
11
86.3246
21
-151.8
0
LINE
8
BLACK
6
CONTINUOUS
10
86.41
20
-76.25
11
86.41
21
-151.715
0
LINE
8
BLACK
6
CONTINUOUS
10
86.41
20
-151.715
11
159.97
21
-151.715
0
LINE
8
BLACK
6
CONTINUOUS
10
159.97
20
-151.715
11
159.97
21
-76.25
0
LINE
8
BLACK
6
CONTINUOUS
10
159.97
20
-76.25
11
86.41
21
-76.25
  0
ENDSEC
  0
EOF
