  0
SECTION
  2
HEADER
  9
$ANGBASE
  50
0.0
  9
$ANGDIR
  70
1
  9
$MEASUREMENT
  70
1
  0
ENDSEC
  0
SECTION
  2
TABLES
  0
TABLE
  2
LTYPE
  70
4
  0
LTYPE
  5
40F
  2
CONTINUOUS
  70
0
  3
Solid line
  72
65
  73
0
  40
0.0
  0
LTYPE
  5
410
  2
DASHDOT
 70
0
  3
Dash Dot ____ _ ____ _
 72
65
 73
4
 40
2.0
 49
1.25
 49
-0.25
 49
0.25
 49
-0.25
  0
LTYPE
  5
411
  2
DASHED
 70
0
  3
Dashed __ __ __ __ __
 72
65
 73
2
 40
0.75
 49
0.5
 49
-0.25
  0
LTYPE
  5
43B
  2
DOTTED
 70
0
  3
Dotted .  .  .  .
 72
65
 73
2
 40
0.2
 49
0.0
 49
-0.2
  0
ENDTAB
  0
TABLE
  2
STYLE
  70
4
  0
STYLE
  2
KICAD
  70
0
  40
0
  41
1
  42
1
  50
0
  71
0
  3
isocp.shx
  0
STYLE
  2
KICADB
  70
0
  40
0
  41
1
  42
1
  50
0
  71
0
  3
isocp.shx
  0
STYLE
  2
KICADI
  70
0
  40
0
  41
1
  42
1
  50
15
  71
0
  3
isocp.shx
  0
STYLE
  2
KICADBI
  70
0
  40
0
  41
1
  42
1
  50
15
  71
0
  3
isocp.shx
  0
ENDTAB
  0
TABLE
  2
LAYER
  70
1
  0
LAYER
  2
BLACK
  70
0
  62
7
  6
CONTINUOUS
  0
ENDTAB
  0
ENDSEC
  0
SECTION
  2
ENTITIES
0
LINE
8
BLACK
6
CONTINUOUS
10
123.496
20
-147.104
11
123.577
21
-147.158
0
LINE
8
BLACK
6
CONTINUOUS
10
123.577
20
-147.158
11
123.631
21
-147.239
0
LINE
8
BLACK
6
CONTINUOUS
10
123.631
20
-147.239
11
123.65
21
-147.335
0
LINE
8
BLACK
6
CONTINUOUS
10
123.65
20
-147.335
11
123.65
21
-148.575
0
LINE
8
BLACK
6
CONTINUOUS
10
123.65
20
-148.575
11
123.631
21
-148.671
0
LINE
8
BLACK
6
CONTINUOUS
10
123.631
20
-148.671
11
123.577
21
-148.752
0
LINE
8
BLACK
6
CONTINUOUS
10
123.577
20
-148.752
11
123.496
21
-148.806
0
LINE
8
BLACK
6
CONTINUOUS
10
123.496
20
-148.806
11
123.4
21
-148.825
0
LINE
8
BLACK
6
CONTINUOUS
10
123.4
20
-148.825
11
121.71
21
-148.825
0
LINE
8
BLACK
6
CONTINUOUS
10
121.71
20
-148.825
11
121.614
21
-148.806
0
LINE
8
BLACK
6
CONTINUOUS
10
121.614
20
-148.806
11
121.533
21
-148.752
0
LINE
8
BLACK
6
CONTINUOUS
10
121.533
20
-148.752
11
121.479
21
-148.671
0
LINE
8
BLACK
6
CONTINUOUS
10
121.479
20
-148.671
11
121.46
21
-148.575
0
LINE
8
BLACK
6
CONTINUOUS
10
121.46
20
-148.575
11
121.46
21
-147.335
0
LINE
8
BLACK
6
CONTINUOUS
10
121.46
20
-147.335
11
121.479
21
-147.239
0
LINE
8
BLACK
6
CONTINUOUS
10
121.479
20
-147.239
11
121.533
21
-147.158
0
LINE
8
BLACK
6
CONTINUOUS
10
121.533
20
-147.158
11
121.614
21
-147.104
0
LINE
8
BLACK
6
CONTINUOUS
10
121.614
20
-147.104
11
121.71
21
-147.085
0
LINE
8
BLACK
6
CONTINUOUS
10
121.71
20
-147.085
11
123.4
21
-147.085
0
LINE
8
BLACK
6
CONTINUOUS
10
123.4
20
-147.085
11
123.496
21
-147.104
0
LINE
8
BLACK
6
CONTINUOUS
10
109.403
20
-145.826
11
109.571
21
-145.886
0
LINE
8
BLACK
6
CONTINUOUS
10
109.571
20
-145.886
11
109.721
21
-145.982
0
LINE
8
BLACK
6
CONTINUOUS
10
109.721
20
-145.982
11
109.847
21
-146.108
0
LINE
8
BLACK
6
CONTINUOUS
10
109.847
20
-146.108
11
109.941
21
-146.259
0
LINE
8
BLACK
6
CONTINUOUS
10
109.941
20
-146.259
11
110
21
-146.428
0
LINE
8
BLACK
6
CONTINUOUS
10
110
20
-146.428
11
110.02
21
-146.605
0
LINE
8
BLACK
6
CONTINUOUS
10
110.02
20
-146.605
11
110.02
21
-146.627
0
LINE
8
BLACK
6
CONTINUOUS
10
110.02
20
-146.627
11
109.995
21
-146.804
0
LINE
8
BLACK
6
CONTINUOUS
10
109.995
20
-146.804
11
109.932
21
-146.971
0
LINE
8
BLACK
6
CONTINUOUS
10
109.932
20
-146.971
11
109.833
21
-147.119
0
LINE
8
BLACK
6
CONTINUOUS
10
109.833
20
-147.119
11
109.704
21
-147.242
0
LINE
8
BLACK
6
CONTINUOUS
10
109.704
20
-147.242
11
109.55
21
-147.334
0
LINE
8
BLACK
6
CONTINUOUS
10
109.55
20
-147.334
11
109.381
21
-147.389
0
LINE
8
BLACK
6
CONTINUOUS
10
109.381
20
-147.389
11
109.203
21
-147.405
0
LINE
8
BLACK
6
CONTINUOUS
10
109.203
20
-147.405
11
109.026
21
-147.381
0
LINE
8
BLACK
6
CONTINUOUS
10
109.026
20
-147.381
11
108.859
21
-147.319
0
LINE
8
BLACK
6
CONTINUOUS
10
108.859
20
-147.319
11
108.71
21
-147.221
0
LINE
8
BLACK
6
CONTINUOUS
10
108.71
20
-147.221
11
108.586
21
-147.093
0
LINE
8
BLACK
6
CONTINUOUS
10
108.586
20
-147.093
11
108.494
21
-146.941
0
LINE
8
BLACK
6
CONTINUOUS
10
108.494
20
-146.941
11
108.437
21
-146.771
0
LINE
8
BLACK
6
CONTINUOUS
10
108.437
20
-146.771
11
108.42
21
-146.594
0
LINE
8
BLACK
6
CONTINUOUS
10
108.42
20
-146.594
11
108.442
21
-146.417
0
LINE
8
BLACK
6
CONTINUOUS
10
108.442
20
-146.417
11
108.503
21
-146.249
0
LINE
8
BLACK
6
CONTINUOUS
10
108.503
20
-146.249
11
108.6
21
-146.099
0
LINE
8
BLACK
6
CONTINUOUS
10
108.6
20
-146.099
11
108.727
21
-145.975
0
LINE
8
BLACK
6
CONTINUOUS
10
108.727
20
-145.975
11
108.879
21
-145.881
0
LINE
8
BLACK
6
CONTINUOUS
10
108.879
20
-145.881
11
109.048
21
-145.824
0
LINE
8
BLACK
6
CONTINUOUS
10
109.048
20
-145.824
11
109.226
21
-145.805
0
LINE
8
BLACK
6
CONTINUOUS
10
109.226
20
-145.805
11
109.403
21
-145.826
0
LINE
8
BLACK
6
CONTINUOUS
10
122.877
20
-144.55
11
123.06
21
-144.591
0
LINE
8
BLACK
6
CONTINUOUS
10
123.06
20
-144.591
11
123.231
21
-144.671
0
LINE
8
BLACK
6
CONTINUOUS
10
123.231
20
-144.671
11
123.38
21
-144.785
0
LINE
8
BLACK
6
CONTINUOUS
10
123.38
20
-144.785
11
123.501
21
-144.929
0
LINE
8
BLACK
6
CONTINUOUS
10
123.501
20
-144.929
11
123.589
21
-145.095
0
LINE
8
BLACK
6
CONTINUOUS
10
123.589
20
-145.095
11
123.639
21
-145.276
0
LINE
8
BLACK
6
CONTINUOUS
10
123.639
20
-145.276
11
123.649
21
-145.464
0
LINE
8
BLACK
6
CONTINUOUS
10
123.649
20
-145.464
11
123.618
21
-145.649
0
LINE
8
BLACK
6
CONTINUOUS
10
123.618
20
-145.649
11
123.548
21
-145.823
0
LINE
8
BLACK
6
CONTINUOUS
10
123.548
20
-145.823
11
123.443
21
-145.979
0
LINE
8
BLACK
6
CONTINUOUS
10
123.443
20
-145.979
11
123.306
21
-146.108
0
LINE
8
BLACK
6
CONTINUOUS
10
123.306
20
-146.108
11
123.145
21
-146.205
0
LINE
8
BLACK
6
CONTINUOUS
10
123.145
20
-146.205
11
122.967
21
-146.265
0
LINE
8
BLACK
6
CONTINUOUS
10
122.967
20
-146.265
11
122.78
21
-146.285
0
LINE
8
BLACK
6
CONTINUOUS
10
122.78
20
-146.285
11
122.33
21
-146.285
0
LINE
8
BLACK
6
CONTINUOUS
10
122.33
20
-146.285
11
122.233
21
-146.28
0
LINE
8
BLACK
6
CONTINUOUS
10
122.233
20
-146.28
11
122.05
21
-146.239
0
LINE
8
BLACK
6
CONTINUOUS
10
122.05
20
-146.239
11
121.879
21
-146.159
0
LINE
8
BLACK
6
CONTINUOUS
10
121.879
20
-146.159
11
121.73
21
-146.045
0
LINE
8
BLACK
6
CONTINUOUS
10
121.73
20
-146.045
11
121.609
21
-145.901
0
LINE
8
BLACK
6
CONTINUOUS
10
121.609
20
-145.901
11
121.521
21
-145.735
0
LINE
8
BLACK
6
CONTINUOUS
10
121.521
20
-145.735
11
121.471
21
-145.554
0
LINE
8
BLACK
6
CONTINUOUS
10
121.471
20
-145.554
11
121.461
21
-145.366
0
LINE
8
BLACK
6
CONTINUOUS
10
121.461
20
-145.366
11
121.492
21
-145.181
0
LINE
8
BLACK
6
CONTINUOUS
10
121.492
20
-145.181
11
121.562
21
-145.007
0
LINE
8
BLACK
6
CONTINUOUS
10
121.562
20
-145.007
11
121.667
21
-144.851
0
LINE
8
BLACK
6
CONTINUOUS
10
121.667
20
-144.851
11
121.804
21
-144.722
0
LINE
8
BLACK
6
CONTINUOUS
10
121.804
20
-144.722
11
121.965
21
-144.625
0
LINE
8
BLACK
6
CONTINUOUS
10
121.965
20
-144.625
11
122.143
21
-144.565
0
LINE
8
BLACK
6
CONTINUOUS
10
122.143
20
-144.565
11
122.33
21
-144.545
0
LINE
8
BLACK
6
CONTINUOUS
10
122.33
20
-144.545
11
122.78
21
-144.545
0
LINE
8
BLACK
6
CONTINUOUS
10
122.78
20
-144.545
11
122.877
21
-144.55
0
LINE
8
BLACK
6
CONTINUOUS
10
99.265
20
-146.285
11
97.765
21
-146.285
0
LINE
8
BLACK
6
CONTINUOUS
10
97.765
20
-146.285
11
97.765
21
-144.085
0
LINE
8
BLACK
6
CONTINUOUS
10
97.765
20
-144.085
11
99.265
21
-144.085
0
LINE
8
BLACK
6
CONTINUOUS
10
99.265
20
-144.085
11
99.265
21
-146.285
0
LINE
8
BLACK
6
CONTINUOUS
10
92.865
20
-146.285
11
91.365
21
-146.285
0
LINE
8
BLACK
6
CONTINUOUS
10
91.365
20
-146.285
11
91.365
21
-144.085
0
LINE
8
BLACK
6
CONTINUOUS
10
91.365
20
-144.085
11
92.865
21
-144.085
0
LINE
8
BLACK
6
CONTINUOUS
10
92.865
20
-144.085
11
92.865
21
-146.285
0
LINE
8
BLACK
6
CONTINUOUS
10
122.877
20
-142.01
11
123.06
21
-142.051
0
LINE
8
BLACK
6
CONTINUOUS
10
123.06
20
-142.051
11
123.231
21
-142.131
0
LINE
8
BLACK
6
CONTINUOUS
10
123.231
20
-142.131
11
123.38
21
-142.245
0
LINE
8
BLACK
6
CONTINUOUS
10
123.38
20
-142.245
11
123.501
21
-142.389
0
LINE
8
BLACK
6
CONTINUOUS
10
123.501
20
-142.389
11
123.589
21
-142.555
0
LINE
8
BLACK
6
CONTINUOUS
10
123.589
20
-142.555
11
123.639
21
-142.736
0
LINE
8
BLACK
6
CONTINUOUS
10
123.639
20
-142.736
11
123.649
21
-142.924
0
LINE
8
BLACK
6
CONTINUOUS
10
123.649
20
-142.924
11
123.618
21
-143.109
0
LINE
8
BLACK
6
CONTINUOUS
10
123.618
20
-143.109
11
123.548
21
-143.283
0
LINE
8
BLACK
6
CONTINUOUS
10
123.548
20
-143.283
11
123.443
21
-143.439
0
LINE
8
BLACK
6
CONTINUOUS
10
123.443
20
-143.439
11
123.306
21
-143.568
0
LINE
8
BLACK
6
CONTINUOUS
10
123.306
20
-143.568
11
123.145
21
-143.665
0
LINE
8
BLACK
6
CONTINUOUS
10
123.145
20
-143.665
11
122.967
21
-143.725
0
LINE
8
BLACK
6
CONTINUOUS
10
122.967
20
-143.725
11
122.78
21
-143.745
0
LINE
8
BLACK
6
CONTINUOUS
10
122.78
20
-143.745
11
122.33
21
-143.745
0
LINE
8
BLACK
6
CONTINUOUS
10
122.33
20
-143.745
11
122.233
21
-143.74
0
LINE
8
BLACK
6
CONTINUOUS
10
122.233
20
-143.74
11
122.05
21
-143.699
0
LINE
8
BLACK
6
CONTINUOUS
10
122.05
20
-143.699
11
121.879
21
-143.619
0
LINE
8
BLACK
6
CONTINUOUS
10
121.879
20
-143.619
11
121.73
21
-143.505
0
LINE
8
BLACK
6
CONTINUOUS
10
121.73
20
-143.505
11
121.609
21
-143.361
0
LINE
8
BLACK
6
CONTINUOUS
10
121.609
20
-143.361
11
121.521
21
-143.195
0
LINE
8
BLACK
6
CONTINUOUS
10
121.521
20
-143.195
11
121.471
21
-143.014
0
LINE
8
BLACK
6
CONTINUOUS
10
121.471
20
-143.014
11
121.461
21
-142.826
0
LINE
8
BLACK
6
CONTINUOUS
10
121.461
20
-142.826
11
121.492
21
-142.641
0
LINE
8
BLACK
6
CONTINUOUS
10
121.492
20
-142.641
11
121.562
21
-142.467
0
LINE
8
BLACK
6
CONTINUOUS
10
121.562
20
-142.467
11
121.667
21
-142.311
0
LINE
8
BLACK
6
CONTINUOUS
10
121.667
20
-142.311
11
121.804
21
-142.182
0
LINE
8
BLACK
6
CONTINUOUS
10
121.804
20
-142.182
11
121.965
21
-142.085
0
LINE
8
BLACK
6
CONTINUOUS
10
121.965
20
-142.085
11
122.143
21
-142.025
0
LINE
8
BLACK
6
CONTINUOUS
10
122.143
20
-142.025
11
122.33
21
-142.005
0
LINE
8
BLACK
6
CONTINUOUS
10
122.33
20
-142.005
11
122.78
21
-142.005
0
LINE
8
BLACK
6
CONTINUOUS
10
122.78
20
-142.005
11
122.877
21
-142.01
0
LINE
8
BLACK
6
CONTINUOUS
10
109.403
20
-140.826
11
109.571
21
-140.886
0
LINE
8
BLACK
6
CONTINUOUS
10
109.571
20
-140.886
11
109.721
21
-140.982
0
LINE
8
BLACK
6
CONTINUOUS
10
109.721
20
-140.982
11
109.847
21
-141.108
0
LINE
8
BLACK
6
CONTINUOUS
10
109.847
20
-141.108
11
109.941
21
-141.259
0
LINE
8
BLACK
6
CONTINUOUS
10
109.941
20
-141.259
11
110
21
-141.428
0
LINE
8
BLACK
6
CONTINUOUS
10
110
20
-141.428
11
110.02
21
-141.605
0
LINE
8
BLACK
6
CONTINUOUS
10
110.02
20
-141.605
11
110.02
21
-141.627
0
LINE
8
BLACK
6
CONTINUOUS
10
110.02
20
-141.627
11
109.995
21
-141.804
0
LINE
8
BLACK
6
CONTINUOUS
10
109.995
20
-141.804
11
109.932
21
-141.971
0
LINE
8
BLACK
6
CONTINUOUS
10
109.932
20
-141.971
11
109.833
21
-142.119
0
LINE
8
BLACK
6
CONTINUOUS
10
109.833
20
-142.119
11
109.704
21
-142.242
0
LINE
8
BLACK
6
CONTINUOUS
10
109.704
20
-142.242
11
109.55
21
-142.334
0
LINE
8
BLACK
6
CONTINUOUS
10
109.55
20
-142.334
11
109.381
21
-142.389
0
LINE
8
BLACK
6
CONTINUOUS
10
109.381
20
-142.389
11
109.203
21
-142.405
0
LINE
8
BLACK
6
CONTINUOUS
10
109.203
20
-142.405
11
109.026
21
-142.381
0
LINE
8
BLACK
6
CONTINUOUS
10
109.026
20
-142.381
11
108.859
21
-142.319
0
LINE
8
BLACK
6
CONTINUOUS
10
108.859
20
-142.319
11
108.71
21
-142.221
0
LINE
8
BLACK
6
CONTINUOUS
10
108.71
20
-142.221
11
108.586
21
-142.093
0
LINE
8
BLACK
6
CONTINUOUS
10
108.586
20
-142.093
11
108.494
21
-141.941
0
LINE
8
BLACK
6
CONTINUOUS
10
108.494
20
-141.941
11
108.437
21
-141.771
0
LINE
8
BLACK
6
CONTINUOUS
10
108.437
20
-141.771
11
108.42
21
-141.594
0
LINE
8
BLACK
6
CONTINUOUS
10
108.42
20
-141.594
11
108.442
21
-141.417
0
LINE
8
BLACK
6
CONTINUOUS
10
108.442
20
-141.417
11
108.503
21
-141.249
0
LINE
8
BLACK
6
CONTINUOUS
10
108.503
20
-141.249
11
108.6
21
-141.099
0
LINE
8
BLACK
6
CONTINUOUS
10
108.6
20
-141.099
11
108.727
21
-140.975
0
LINE
8
BLACK
6
CONTINUOUS
10
108.727
20
-140.975
11
108.879
21
-140.881
0
LINE
8
BLACK
6
CONTINUOUS
10
108.879
20
-140.881
11
109.048
21
-140.824
0
LINE
8
BLACK
6
CONTINUOUS
10
109.048
20
-140.824
11
109.226
21
-140.805
0
LINE
8
BLACK
6
CONTINUOUS
10
109.226
20
-140.805
11
109.403
21
-140.826
0
LINE
8
BLACK
6
CONTINUOUS
10
136.12
20
-139.93
11
133.12
21
-139.93
0
LINE
8
BLACK
6
CONTINUOUS
10
133.12
20
-139.93
11
133.12
21
-136.93
0
LINE
8
BLACK
6
CONTINUOUS
10
133.12
20
-136.93
11
136.12
21
-136.93
0
LINE
8
BLACK
6
CONTINUOUS
10
136.12
20
-136.93
11
136.12
21
-139.93
0
LINE
8
BLACK
6
CONTINUOUS
10
139.841
20
-136.937
11
140.083
21
-136.98
0
LINE
8
BLACK
6
CONTINUOUS
10
140.083
20
-136.98
11
140.315
21
-137.062
0
LINE
8
BLACK
6
CONTINUOUS
10
140.315
20
-137.062
11
140.53
21
-137.181
0
LINE
8
BLACK
6
CONTINUOUS
10
140.53
20
-137.181
11
140.723
21
-137.333
0
LINE
8
BLACK
6
CONTINUOUS
10
140.723
20
-137.333
11
140.888
21
-137.515
0
LINE
8
BLACK
6
CONTINUOUS
10
140.888
20
-137.515
11
141.022
21
-137.721
0
LINE
8
BLACK
6
CONTINUOUS
10
141.022
20
-137.721
11
141.12
21
-137.947
0
LINE
8
BLACK
6
CONTINUOUS
10
141.12
20
-137.947
11
141.18
21
-138.185
0
LINE
8
BLACK
6
CONTINUOUS
10
141.18
20
-138.185
11
141.2
21
-138.43
0
LINE
8
BLACK
6
CONTINUOUS
10
141.2
20
-138.43
11
141.198
21
-138.503
0
LINE
8
BLACK
6
CONTINUOUS
10
141.198
20
-138.503
11
141.166
21
-138.747
0
LINE
8
BLACK
6
CONTINUOUS
10
141.166
20
-138.747
11
141.095
21
-138.982
0
LINE
8
BLACK
6
CONTINUOUS
10
141.095
20
-138.982
11
140.986
21
-139.203
0
LINE
8
BLACK
6
CONTINUOUS
10
140.986
20
-139.203
11
140.842
21
-139.402
0
LINE
8
BLACK
6
CONTINUOUS
10
140.842
20
-139.402
11
140.668
21
-139.576
0
LINE
8
BLACK
6
CONTINUOUS
10
140.668
20
-139.576
11
140.468
21
-139.718
0
LINE
8
BLACK
6
CONTINUOUS
10
140.468
20
-139.718
11
140.247
21
-139.827
0
LINE
8
BLACK
6
CONTINUOUS
10
140.247
20
-139.827
11
140.012
21
-139.897
0
LINE
8
BLACK
6
CONTINUOUS
10
140.012
20
-139.897
11
139.768
21
-139.928
0
LINE
8
BLACK
6
CONTINUOUS
10
139.768
20
-139.928
11
139.522
21
-139.919
0
LINE
8
BLACK
6
CONTINUOUS
10
139.522
20
-139.919
11
139.282
21
-139.87
0
LINE
8
BLACK
6
CONTINUOUS
10
139.282
20
-139.87
11
139.052
21
-139.783
0
LINE
8
BLACK
6
CONTINUOUS
10
139.052
20
-139.783
11
138.84
21
-139.659
0
LINE
8
BLACK
6
CONTINUOUS
10
138.84
20
-139.659
11
138.651
21
-139.502
0
LINE
8
BLACK
6
CONTINUOUS
10
138.651
20
-139.502
11
138.49
21
-139.316
0
LINE
8
BLACK
6
CONTINUOUS
10
138.49
20
-139.316
11
138.361
21
-139.106
0
LINE
8
BLACK
6
CONTINUOUS
10
138.361
20
-139.106
11
138.269
21
-138.879
0
LINE
8
BLACK
6
CONTINUOUS
10
138.269
20
-138.879
11
138.215
21
-138.639
0
LINE
8
BLACK
6
CONTINUOUS
10
138.215
20
-138.639
11
138.2
21
-138.393
0
LINE
8
BLACK
6
CONTINUOUS
10
138.2
20
-138.393
11
138.227
21
-138.149
0
LINE
8
BLACK
6
CONTINUOUS
10
138.227
20
-138.149
11
138.292
21
-137.912
0
LINE
8
BLACK
6
CONTINUOUS
10
138.292
20
-137.912
11
138.396
21
-137.689
0
LINE
8
BLACK
6
CONTINUOUS
10
138.396
20
-137.689
11
138.534
21
-137.486
0
LINE
8
BLACK
6
CONTINUOUS
10
138.534
20
-137.486
11
138.704
21
-137.308
0
LINE
8
BLACK
6
CONTINUOUS
10
138.704
20
-137.308
11
138.901
21
-137.161
0
LINE
8
BLACK
6
CONTINUOUS
10
138.901
20
-137.161
11
139.119
21
-137.047
0
LINE
8
BLACK
6
CONTINUOUS
10
139.119
20
-137.047
11
139.352
21
-136.971
0
LINE
8
BLACK
6
CONTINUOUS
10
139.352
20
-136.971
11
139.595
21
-136.934
0
LINE
8
BLACK
6
CONTINUOUS
10
139.595
20
-136.934
11
139.841
21
-136.937
0
LINE
8
BLACK
6
CONTINUOUS
10
153.853
20
-137.651
11
154.021
21
-137.711
0
LINE
8
BLACK
6
CONTINUOUS
10
154.021
20
-137.711
11
154.171
21
-137.807
0
LINE
8
BLACK
6
CONTINUOUS
10
154.171
20
-137.807
11
154.297
21
-137.933
0
LINE
8
BLACK
6
CONTINUOUS
10
154.297
20
-137.933
11
154.391
21
-138.084
0
LINE
8
BLACK
6
CONTINUOUS
10
154.391
20
-138.084
11
154.45
21
-138.253
0
LINE
8
BLACK
6
CONTINUOUS
10
154.45
20
-138.253
11
154.47
21
-138.43
0
LINE
8
BLACK
6
CONTINUOUS
10
154.47
20
-138.43
11
154.47
21
-138.452
0
LINE
8
BLACK
6
CONTINUOUS
10
154.47
20
-138.452
11
154.445
21
-138.629
0
LINE
8
BLACK
6
CONTINUOUS
10
154.445
20
-138.629
11
154.382
21
-138.796
0
LINE
8
BLACK
6
CONTINUOUS
10
154.382
20
-138.796
11
154.283
21
-138.944
0
LINE
8
BLACK
6
CONTINUOUS
10
154.283
20
-138.944
11
154.154
21
-139.067
0
LINE
8
BLACK
6
CONTINUOUS
10
154.154
20
-139.067
11
154
21
-139.159
0
LINE
8
BLACK
6
CONTINUOUS
10
154
20
-139.159
11
153.831
21
-139.214
0
LINE
8
BLACK
6
CONTINUOUS
10
153.831
20
-139.214
11
153.653
21
-139.23
0
LINE
8
BLACK
6
CONTINUOUS
10
153.653
20
-139.23
11
153.476
21
-139.206
0
LINE
8
BLACK
6
CONTINUOUS
10
153.476
20
-139.206
11
153.309
21
-139.144
0
LINE
8
BLACK
6
CONTINUOUS
10
153.309
20
-139.144
11
153.16
21
-139.046
0
LINE
8
BLACK
6
CONTINUOUS
10
153.16
20
-139.046
11
153.036
21
-138.918
0
LINE
8
BLACK
6
CONTINUOUS
10
153.036
20
-138.918
11
152.944
21
-138.766
0
LINE
8
BLACK
6
CONTINUOUS
10
152.944
20
-138.766
11
152.887
21
-138.596
0
LINE
8
BLACK
6
CONTINUOUS
10
152.887
20
-138.596
11
152.87
21
-138.419
0
LINE
8
BLACK
6
CONTINUOUS
10
152.87
20
-138.419
11
152.892
21
-138.242
0
LINE
8
BLACK
6
CONTINUOUS
10
152.892
20
-138.242
11
152.953
21
-138.074
0
LINE
8
BLACK
6
CONTINUOUS
10
152.953
20
-138.074
11
153.05
21
-137.924
0
LINE
8
BLACK
6
CONTINUOUS
10
153.05
20
-137.924
11
153.177
21
-137.8
0
LINE
8
BLACK
6
CONTINUOUS
10
153.177
20
-137.8
11
153.329
21
-137.706
0
LINE
8
BLACK
6
CONTINUOUS
10
153.329
20
-137.706
11
153.498
21
-137.649
0
LINE
8
BLACK
6
CONTINUOUS
10
153.498
20
-137.649
11
153.676
21
-137.63
0
LINE
8
BLACK
6
CONTINUOUS
10
153.676
20
-137.63
11
153.853
21
-137.651
0
LINE
8
BLACK
6
CONTINUOUS
10
148.853
20
-137.651
11
149.021
21
-137.711
0
LINE
8
BLACK
6
CONTINUOUS
10
149.021
20
-137.711
11
149.171
21
-137.807
0
LINE
8
BLACK
6
CONTINUOUS
10
149.171
20
-137.807
11
149.297
21
-137.933
0
LINE
8
BLACK
6
CONTINUOUS
10
149.297
20
-137.933
11
149.391
21
-138.084
0
LINE
8
BLACK
6
CONTINUOUS
10
149.391
20
-138.084
11
149.45
21
-138.253
0
LINE
8
BLACK
6
CONTINUOUS
10
149.45
20
-138.253
11
149.47
21
-138.43
0
LINE
8
BLACK
6
CONTINUOUS
10
149.47
20
-138.43
11
149.47
21
-138.452
0
LINE
8
BLACK
6
CONTINUOUS
10
149.47
20
-138.452
11
149.445
21
-138.629
0
LINE
8
BLACK
6
CONTINUOUS
10
149.445
20
-138.629
11
149.382
21
-138.796
0
LINE
8
BLACK
6
CONTINUOUS
10
149.382
20
-138.796
11
149.283
21
-138.944
0
LINE
8
BLACK
6
CONTINUOUS
10
149.283
20
-138.944
11
149.154
21
-139.067
0
LINE
8
BLACK
6
CONTINUOUS
10
149.154
20
-139.067
11
149
21
-139.159
0
LINE
8
BLACK
6
CONTINUOUS
10
149
20
-139.159
11
148.831
21
-139.214
0
LINE
8
BLACK
6
CONTINUOUS
10
148.831
20
-139.214
11
148.653
21
-139.23
0
LINE
8
BLACK
6
CONTINUOUS
10
148.653
20
-139.23
11
148.476
21
-139.206
0
LINE
8
BLACK
6
CONTINUOUS
10
148.476
20
-139.206
11
148.309
21
-139.144
0
LINE
8
BLACK
6
CONTINUOUS
10
148.309
20
-139.144
11
148.16
21
-139.046
0
LINE
8
BLACK
6
CONTINUOUS
10
148.16
20
-139.046
11
148.036
21
-138.918
0
LINE
8
BLACK
6
CONTINUOUS
10
148.036
20
-138.918
11
147.944
21
-138.766
0
LINE
8
BLACK
6
CONTINUOUS
10
147.944
20
-138.766
11
147.887
21
-138.596
0
LINE
8
BLACK
6
CONTINUOUS
10
147.887
20
-138.596
11
147.87
21
-138.419
0
LINE
8
BLACK
6
CONTINUOUS
10
147.87
20
-138.419
11
147.892
21
-138.242
0
LINE
8
BLACK
6
CONTINUOUS
10
147.892
20
-138.242
11
147.953
21
-138.074
0
LINE
8
BLACK
6
CONTINUOUS
10
147.953
20
-138.074
11
148.05
21
-137.924
0
LINE
8
BLACK
6
CONTINUOUS
10
148.05
20
-137.924
11
148.177
21
-137.8
0
LINE
8
BLACK
6
CONTINUOUS
10
148.177
20
-137.8
11
148.329
21
-137.706
0
LINE
8
BLACK
6
CONTINUOUS
10
148.329
20
-137.706
11
148.498
21
-137.649
0
LINE
8
BLACK
6
CONTINUOUS
10
148.498
20
-137.649
11
148.676
21
-137.63
0
LINE
8
BLACK
6
CONTINUOUS
10
148.676
20
-137.63
11
148.853
21
-137.651
0
LINE
8
BLACK
6
CONTINUOUS
10
97.635
20
-137.83
11
94.135
21
-137.83
0
LINE
8
BLACK
6
CONTINUOUS
10
94.135
20
-137.83
11
94.135
21
-136.03
0
LINE
8
BLACK
6
CONTINUOUS
10
94.135
20
-136.03
11
97.635
21
-136.03
0
LINE
8
BLACK
6
CONTINUOUS
10
97.635
20
-136.03
11
97.635
21
-137.83
0
LINE
8
BLACK
6
CONTINUOUS
10
92.635
20
-137.83
11
89.135
21
-137.83
0
LINE
8
BLACK
6
CONTINUOUS
10
89.135
20
-137.83
11
89.135
21
-136.03
0
LINE
8
BLACK
6
CONTINUOUS
10
89.135
20
-136.03
11
92.635
21
-136.03
0
LINE
8
BLACK
6
CONTINUOUS
10
92.635
20
-136.03
11
92.635
21
-137.83
0
LINE
8
BLACK
6
CONTINUOUS
10
116.751
20
-135.039
11
116.832
21
-135.093
0
LINE
8
BLACK
6
CONTINUOUS
10
116.832
20
-135.093
11
116.886
21
-135.174
0
LINE
8
BLACK
6
CONTINUOUS
10
116.886
20
-135.174
11
116.905
21
-135.27
0
LINE
8
BLACK
6
CONTINUOUS
10
116.905
20
-135.27
11
116.905
21
-135.795
0
LINE
8
BLACK
6
CONTINUOUS
10
116.905
20
-135.795
11
116.886
21
-135.891
0
LINE
8
BLACK
6
CONTINUOUS
10
116.886
20
-135.891
11
116.832
21
-135.972
0
LINE
8
BLACK
6
CONTINUOUS
10
116.832
20
-135.972
11
116.751
21
-136.026
0
LINE
8
BLACK
6
CONTINUOUS
10
116.751
20
-136.026
11
116.655
21
-136.045
0
LINE
8
BLACK
6
CONTINUOUS
10
116.655
20
-136.045
11
115.755
21
-136.045
0
LINE
8
BLACK
6
CONTINUOUS
10
115.755
20
-136.045
11
115.659
21
-136.026
0
LINE
8
BLACK
6
CONTINUOUS
10
115.659
20
-136.026
11
115.578
21
-135.972
0
LINE
8
BLACK
6
CONTINUOUS
10
115.578
20
-135.972
11
115.524
21
-135.891
0
LINE
8
BLACK
6
CONTINUOUS
10
115.524
20
-135.891
11
115.505
21
-135.795
0
LINE
8
BLACK
6
CONTINUOUS
10
115.505
20
-135.795
11
115.505
21
-135.27
0
LINE
8
BLACK
6
CONTINUOUS
10
115.505
20
-135.27
11
115.524
21
-135.174
0
LINE
8
BLACK
6
CONTINUOUS
10
115.524
20
-135.174
11
115.578
21
-135.093
0
LINE
8
BLACK
6
CONTINUOUS
10
115.578
20
-135.093
11
115.659
21
-135.039
0
LINE
8
BLACK
6
CONTINUOUS
10
115.659
20
-135.039
11
115.755
21
-135.02
0
LINE
8
BLACK
6
CONTINUOUS
10
115.755
20
-135.02
11
116.655
21
-135.02
0
LINE
8
BLACK
6
CONTINUOUS
10
116.655
20
-135.02
11
116.751
21
-135.039
0
LINE
8
BLACK
6
CONTINUOUS
10
149.136
20
-134.047
11
149.217
21
-134.101
0
LINE
8
BLACK
6
CONTINUOUS
10
149.217
20
-134.101
11
149.271
21
-134.182
0
LINE
8
BLACK
6
CONTINUOUS
10
149.271
20
-134.182
11
149.29
21
-134.278
0
LINE
8
BLACK
6
CONTINUOUS
10
149.29
20
-134.278
11
149.29
21
-134.802
0
LINE
8
BLACK
6
CONTINUOUS
10
149.29
20
-134.802
11
149.271
21
-134.898
0
LINE
8
BLACK
6
CONTINUOUS
10
149.271
20
-134.898
11
149.217
21
-134.979
0
LINE
8
BLACK
6
CONTINUOUS
10
149.217
20
-134.979
11
149.136
21
-135.033
0
LINE
8
BLACK
6
CONTINUOUS
10
149.136
20
-135.033
11
149.04
21
-135.052
0
LINE
8
BLACK
6
CONTINUOUS
10
149.04
20
-135.052
11
148.14
21
-135.052
0
LINE
8
BLACK
6
CONTINUOUS
10
148.14
20
-135.052
11
148.044
21
-135.033
0
LINE
8
BLACK
6
CONTINUOUS
10
148.044
20
-135.033
11
147.963
21
-134.979
0
LINE
8
BLACK
6
CONTINUOUS
10
147.963
20
-134.979
11
147.909
21
-134.898
0
LINE
8
BLACK
6
CONTINUOUS
10
147.909
20
-134.898
11
147.89
21
-134.802
0
LINE
8
BLACK
6
CONTINUOUS
10
147.89
20
-134.802
11
147.89
21
-134.278
0
LINE
8
BLACK
6
CONTINUOUS
10
147.89
20
-134.278
11
147.909
21
-134.182
0
LINE
8
BLACK
6
CONTINUOUS
10
147.909
20
-134.182
11
147.963
21
-134.101
0
LINE
8
BLACK
6
CONTINUOUS
10
147.963
20
-134.101
11
148.044
21
-134.047
0
LINE
8
BLACK
6
CONTINUOUS
10
148.044
20
-134.047
11
148.14
21
-134.028
0
LINE
8
BLACK
6
CONTINUOUS
10
148.14
20
-134.028
11
149.04
21
-134.028
0
LINE
8
BLACK
6
CONTINUOUS
10
149.04
20
-134.028
11
149.136
21
-134.047
0
LINE
8
BLACK
6
CONTINUOUS
10
116.751
20
-133.214
11
116.832
21
-133.268
0
LINE
8
BLACK
6
CONTINUOUS
10
116.832
20
-133.268
11
116.886
21
-133.349
0
LINE
8
BLACK
6
CONTINUOUS
10
116.886
20
-133.349
11
116.905
21
-133.445
0
LINE
8
BLACK
6
CONTINUOUS
10
116.905
20
-133.445
11
116.905
21
-133.97
0
LINE
8
BLACK
6
CONTINUOUS
10
116.905
20
-133.97
11
116.886
21
-134.066
0
LINE
8
BLACK
6
CONTINUOUS
10
116.886
20
-134.066
11
116.832
21
-134.147
0
LINE
8
BLACK
6
CONTINUOUS
10
116.832
20
-134.147
11
116.751
21
-134.201
0
LINE
8
BLACK
6
CONTINUOUS
10
116.751
20
-134.201
11
116.655
21
-134.22
0
LINE
8
BLACK
6
CONTINUOUS
10
116.655
20
-134.22
11
115.755
21
-134.22
0
LINE
8
BLACK
6
CONTINUOUS
10
115.755
20
-134.22
11
115.659
21
-134.201
0
LINE
8
BLACK
6
CONTINUOUS
10
115.659
20
-134.201
11
115.578
21
-134.147
0
LINE
8
BLACK
6
CONTINUOUS
10
115.578
20
-134.147
11
115.524
21
-134.066
0
LINE
8
BLACK
6
CONTINUOUS
10
115.524
20
-134.066
11
115.505
21
-133.97
0
LINE
8
BLACK
6
CONTINUOUS
10
115.505
20
-133.97
11
115.505
21
-133.445
0
LINE
8
BLACK
6
CONTINUOUS
10
115.505
20
-133.445
11
115.524
21
-133.349
0
LINE
8
BLACK
6
CONTINUOUS
10
115.524
20
-133.349
11
115.578
21
-133.268
0
LINE
8
BLACK
6
CONTINUOUS
10
115.578
20
-133.268
11
115.659
21
-133.214
0
LINE
8
BLACK
6
CONTINUOUS
10
115.659
20
-133.214
11
115.755
21
-133.195
0
LINE
8
BLACK
6
CONTINUOUS
10
115.755
20
-133.195
11
116.655
21
-133.195
0
LINE
8
BLACK
6
CONTINUOUS
10
116.655
20
-133.195
11
116.751
21
-133.214
0
LINE
8
BLACK
6
CONTINUOUS
10
149.136
20
-132.222
11
149.217
21
-132.276
0
LINE
8
BLACK
6
CONTINUOUS
10
149.217
20
-132.276
11
149.271
21
-132.357
0
LINE
8
BLACK
6
CONTINUOUS
10
149.271
20
-132.357
11
149.29
21
-132.452
0
LINE
8
BLACK
6
CONTINUOUS
10
149.29
20
-132.452
11
149.29
21
-132.977
0
LINE
8
BLACK
6
CONTINUOUS
10
149.29
20
-132.977
11
149.271
21
-133.073
0
LINE
8
BLACK
6
CONTINUOUS
10
149.271
20
-133.073
11
149.217
21
-133.154
0
LINE
8
BLACK
6
CONTINUOUS
10
149.217
20
-133.154
11
149.136
21
-133.208
0
LINE
8
BLACK
6
CONTINUOUS
10
149.136
20
-133.208
11
149.04
21
-133.227
0
LINE
8
BLACK
6
CONTINUOUS
10
149.04
20
-133.227
11
148.14
21
-133.227
0
LINE
8
BLACK
6
CONTINUOUS
10
148.14
20
-133.227
11
148.044
21
-133.208
0
LINE
8
BLACK
6
CONTINUOUS
10
148.044
20
-133.208
11
147.963
21
-133.154
0
LINE
8
BLACK
6
CONTINUOUS
10
147.963
20
-133.154
11
147.909
21
-133.073
0
LINE
8
BLACK
6
CONTINUOUS
10
147.909
20
-133.073
11
147.89
21
-132.977
0
LINE
8
BLACK
6
CONTINUOUS
10
147.89
20
-132.977
11
147.89
21
-132.452
0
LINE
8
BLACK
6
CONTINUOUS
10
147.89
20
-132.452
11
147.909
21
-132.357
0
LINE
8
BLACK
6
CONTINUOUS
10
147.909
20
-132.357
11
147.963
21
-132.276
0
LINE
8
BLACK
6
CONTINUOUS
10
147.963
20
-132.276
11
148.044
21
-132.222
0
LINE
8
BLACK
6
CONTINUOUS
10
148.044
20
-132.222
11
148.14
21
-132.202
0
LINE
8
BLACK
6
CONTINUOUS
10
148.14
20
-132.202
11
149.04
21
-132.202
0
LINE
8
BLACK
6
CONTINUOUS
10
149.04
20
-132.202
11
149.136
21
-132.222
0
LINE
8
BLACK
6
CONTINUOUS
10
96.2432
20
-131.804
11
96.3243
21
-131.858
0
LINE
8
BLACK
6
CONTINUOUS
10
96.3243
20
-131.858
11
96.3785
21
-131.939
0
LINE
8
BLACK
6
CONTINUOUS
10
96.3785
20
-131.939
11
96.3975
21
-132.035
0
LINE
8
BLACK
6
CONTINUOUS
10
96.3975
20
-132.035
11
96.3975
21
-132.935
0
LINE
8
BLACK
6
CONTINUOUS
10
96.3975
20
-132.935
11
96.3785
21
-133.031
0
LINE
8
BLACK
6
CONTINUOUS
10
96.3785
20
-133.031
11
96.3243
21
-133.112
0
LINE
8
BLACK
6
CONTINUOUS
10
96.3243
20
-133.112
11
96.2432
21
-133.166
0
LINE
8
BLACK
6
CONTINUOUS
10
96.2432
20
-133.166
11
96.1475
21
-133.185
0
LINE
8
BLACK
6
CONTINUOUS
10
96.1475
20
-133.185
11
95.6225
21
-133.185
0
LINE
8
BLACK
6
CONTINUOUS
10
95.6225
20
-133.185
11
95.5268
21
-133.166
0
LINE
8
BLACK
6
CONTINUOUS
10
95.5268
20
-133.166
11
95.4457
21
-133.112
0
LINE
8
BLACK
6
CONTINUOUS
10
95.4457
20
-133.112
11
95.3915
21
-133.031
0
LINE
8
BLACK
6
CONTINUOUS
10
95.3915
20
-133.031
11
95.3725
21
-132.935
0
LINE
8
BLACK
6
CONTINUOUS
10
95.3725
20
-132.935
11
95.3725
21
-132.035
0
LINE
8
BLACK
6
CONTINUOUS
10
95.3725
20
-132.035
11
95.3915
21
-131.939
0
LINE
8
BLACK
6
CONTINUOUS
10
95.3915
20
-131.939
11
95.4457
21
-131.858
0
LINE
8
BLACK
6
CONTINUOUS
10
95.4457
20
-131.858
11
95.5268
21
-131.804
0
LINE
8
BLACK
6
CONTINUOUS
10
95.5268
20
-131.804
11
95.6225
21
-131.785
0
LINE
8
BLACK
6
CONTINUOUS
10
95.6225
20
-131.785
11
96.1475
21
-131.785
0
LINE
8
BLACK
6
CONTINUOUS
10
96.1475
20
-131.785
11
96.2432
21
-131.804
0
LINE
8
BLACK
6
CONTINUOUS
10
98.0682
20
-131.804
11
98.1493
21
-131.858
0
LINE
8
BLACK
6
CONTINUOUS
10
98.1493
20
-131.858
11
98.2035
21
-131.939
0
LINE
8
BLACK
6
CONTINUOUS
10
98.2035
20
-131.939
11
98.2225
21
-132.035
0
LINE
8
BLACK
6
CONTINUOUS
10
98.2225
20
-132.035
11
98.2225
21
-132.935
0
LINE
8
BLACK
6
CONTINUOUS
10
98.2225
20
-132.935
11
98.2035
21
-133.031
0
LINE
8
BLACK
6
CONTINUOUS
10
98.2035
20
-133.031
11
98.1493
21
-133.112
0
LINE
8
BLACK
6
CONTINUOUS
10
98.1493
20
-133.112
11
98.0682
21
-133.166
0
LINE
8
BLACK
6
CONTINUOUS
10
98.0682
20
-133.166
11
97.9725
21
-133.185
0
LINE
8
BLACK
6
CONTINUOUS
10
97.9725
20
-133.185
11
97.4475
21
-133.185
0
LINE
8
BLACK
6
CONTINUOUS
10
97.4475
20
-133.185
11
97.3518
21
-133.166
0
LINE
8
BLACK
6
CONTINUOUS
10
97.3518
20
-133.166
11
97.2707
21
-133.112
0
LINE
8
BLACK
6
CONTINUOUS
10
97.2707
20
-133.112
11
97.2165
21
-133.031
0
LINE
8
BLACK
6
CONTINUOUS
10
97.2165
20
-133.031
11
97.1975
21
-132.935
0
LINE
8
BLACK
6
CONTINUOUS
10
97.1975
20
-132.935
11
97.1975
21
-132.035
0
LINE
8
BLACK
6
CONTINUOUS
10
97.1975
20
-132.035
11
97.2165
21
-131.939
0
LINE
8
BLACK
6
CONTINUOUS
10
97.2165
20
-131.939
11
97.2707
21
-131.858
0
LINE
8
BLACK
6
CONTINUOUS
10
97.2707
20
-131.858
11
97.3518
21
-131.804
0
LINE
8
BLACK
6
CONTINUOUS
10
97.3518
20
-131.804
11
97.4475
21
-131.785
0
LINE
8
BLACK
6
CONTINUOUS
10
97.4475
20
-131.785
11
97.9725
21
-131.785
0
LINE
8
BLACK
6
CONTINUOUS
10
97.9725
20
-131.785
11
98.0682
21
-131.804
0
LINE
8
BLACK
6
CONTINUOUS
10
120.561
20
-132.142
11
120.642
21
-132.196
0
LINE
8
BLACK
6
CONTINUOUS
10
120.642
20
-132.196
11
120.696
21
-132.277
0
LINE
8
BLACK
6
CONTINUOUS
10
120.696
20
-132.277
11
120.715
21
-132.373
0
LINE
8
BLACK
6
CONTINUOUS
10
120.715
20
-132.373
11
120.715
21
-132.898
0
LINE
8
BLACK
6
CONTINUOUS
10
120.715
20
-132.898
11
120.696
21
-132.993
0
LINE
8
BLACK
6
CONTINUOUS
10
120.696
20
-132.993
11
120.642
21
-133.074
0
LINE
8
BLACK
6
CONTINUOUS
10
120.642
20
-133.074
11
120.561
21
-133.128
0
LINE
8
BLACK
6
CONTINUOUS
10
120.561
20
-133.128
11
120.465
21
-133.148
0
LINE
8
BLACK
6
CONTINUOUS
10
120.465
20
-133.148
11
119.565
21
-133.148
0
LINE
8
BLACK
6
CONTINUOUS
10
119.565
20
-133.148
11
119.469
21
-133.128
0
LINE
8
BLACK
6
CONTINUOUS
10
119.469
20
-133.128
11
119.388
21
-133.074
0
LINE
8
BLACK
6
CONTINUOUS
10
119.388
20
-133.074
11
119.334
21
-132.993
0
LINE
8
BLACK
6
CONTINUOUS
10
119.334
20
-132.993
11
119.315
21
-132.898
0
LINE
8
BLACK
6
CONTINUOUS
10
119.315
20
-132.898
11
119.315
21
-132.373
0
LINE
8
BLACK
6
CONTINUOUS
10
119.315
20
-132.373
11
119.334
21
-132.277
0
LINE
8
BLACK
6
CONTINUOUS
10
119.334
20
-132.277
11
119.388
21
-132.196
0
LINE
8
BLACK
6
CONTINUOUS
10
119.388
20
-132.196
11
119.469
21
-132.142
0
LINE
8
BLACK
6
CONTINUOUS
10
119.469
20
-132.142
11
119.565
21
-132.123
0
LINE
8
BLACK
6
CONTINUOUS
10
119.565
20
-132.123
11
120.465
21
-132.123
0
LINE
8
BLACK
6
CONTINUOUS
10
120.465
20
-132.123
11
120.561
21
-132.142
0
LINE
8
BLACK
6
CONTINUOUS
10
106.863
20
-131.301
11
107.031
21
-131.361
0
LINE
8
BLACK
6
CONTINUOUS
10
107.031
20
-131.361
11
107.181
21
-131.457
0
LINE
8
BLACK
6
CONTINUOUS
10
107.181
20
-131.457
11
107.307
21
-131.583
0
LINE
8
BLACK
6
CONTINUOUS
10
107.307
20
-131.583
11
107.401
21
-131.734
0
LINE
8
BLACK
6
CONTINUOUS
10
107.401
20
-131.734
11
107.46
21
-131.903
0
LINE
8
BLACK
6
CONTINUOUS
10
107.46
20
-131.903
11
107.48
21
-132.08
0
LINE
8
BLACK
6
CONTINUOUS
10
107.48
20
-132.08
11
107.48
21
-132.102
0
LINE
8
BLACK
6
CONTINUOUS
10
107.48
20
-132.102
11
107.455
21
-132.279
0
LINE
8
BLACK
6
CONTINUOUS
10
107.455
20
-132.279
11
107.392
21
-132.446
0
LINE
8
BLACK
6
CONTINUOUS
10
107.392
20
-132.446
11
107.293
21
-132.594
0
LINE
8
BLACK
6
CONTINUOUS
10
107.293
20
-132.594
11
107.164
21
-132.717
0
LINE
8
BLACK
6
CONTINUOUS
10
107.164
20
-132.717
11
107.01
21
-132.809
0
LINE
8
BLACK
6
CONTINUOUS
10
107.01
20
-132.809
11
106.841
21
-132.864
0
LINE
8
BLACK
6
CONTINUOUS
10
106.841
20
-132.864
11
106.663
21
-132.88
0
LINE
8
BLACK
6
CONTINUOUS
10
106.663
20
-132.88
11
106.486
21
-132.856
0
LINE
8
BLACK
6
CONTINUOUS
10
106.486
20
-132.856
11
106.319
21
-132.794
0
LINE
8
BLACK
6
CONTINUOUS
10
106.319
20
-132.794
11
106.17
21
-132.696
0
LINE
8
BLACK
6
CONTINUOUS
10
106.17
20
-132.696
11
106.046
21
-132.568
0
LINE
8
BLACK
6
CONTINUOUS
10
106.046
20
-132.568
11
105.954
21
-132.416
0
LINE
8
BLACK
6
CONTINUOUS
10
105.954
20
-132.416
11
105.897
21
-132.246
0
LINE
8
BLACK
6
CONTINUOUS
10
105.897
20
-132.246
11
105.88
21
-132.069
0
LINE
8
BLACK
6
CONTINUOUS
10
105.88
20
-132.069
11
105.902
21
-131.892
0
LINE
8
BLACK
6
CONTINUOUS
10
105.902
20
-131.892
11
105.963
21
-131.724
0
LINE
8
BLACK
6
CONTINUOUS
10
105.963
20
-131.724
11
106.06
21
-131.574
0
LINE
8
BLACK
6
CONTINUOUS
10
106.06
20
-131.574
11
106.187
21
-131.45
0
LINE
8
BLACK
6
CONTINUOUS
10
106.187
20
-131.45
11
106.339
21
-131.356
0
LINE
8
BLACK
6
CONTINUOUS
10
106.339
20
-131.356
11
106.508
21
-131.299
0
LINE
8
BLACK
6
CONTINUOUS
10
106.508
20
-131.299
11
106.686
21
-131.28
0
LINE
8
BLACK
6
CONTINUOUS
10
106.686
20
-131.28
11
106.863
21
-131.301
0
LINE
8
BLACK
6
CONTINUOUS
10
111.863
20
-131.301
11
112.031
21
-131.361
0
LINE
8
BLACK
6
CONTINUOUS
10
112.031
20
-131.361
11
112.181
21
-131.457
0
LINE
8
BLACK
6
CONTINUOUS
10
112.181
20
-131.457
11
112.307
21
-131.583
0
LINE
8
BLACK
6
CONTINUOUS
10
112.307
20
-131.583
11
112.401
21
-131.734
0
LINE
8
BLACK
6
CONTINUOUS
10
112.401
20
-131.734
11
112.46
21
-131.903
0
LINE
8
BLACK
6
CONTINUOUS
10
112.46
20
-131.903
11
112.48
21
-132.08
0
LINE
8
BLACK
6
CONTINUOUS
10
112.48
20
-132.08
11
112.48
21
-132.102
0
LINE
8
BLACK
6
CONTINUOUS
10
112.48
20
-132.102
11
112.455
21
-132.279
0
LINE
8
BLACK
6
CONTINUOUS
10
112.455
20
-132.279
11
112.392
21
-132.446
0
LINE
8
BLACK
6
CONTINUOUS
10
112.392
20
-132.446
11
112.293
21
-132.594
0
LINE
8
BLACK
6
CONTINUOUS
10
112.293
20
-132.594
11
112.164
21
-132.717
0
LINE
8
BLACK
6
CONTINUOUS
10
112.164
20
-132.717
11
112.01
21
-132.809
0
LINE
8
BLACK
6
CONTINUOUS
10
112.01
20
-132.809
11
111.841
21
-132.864
0
LINE
8
BLACK
6
CONTINUOUS
10
111.841
20
-132.864
11
111.663
21
-132.88
0
LINE
8
BLACK
6
CONTINUOUS
10
111.663
20
-132.88
11
111.486
21
-132.856
0
LINE
8
BLACK
6
CONTINUOUS
10
111.486
20
-132.856
11
111.319
21
-132.794
0
LINE
8
BLACK
6
CONTINUOUS
10
111.319
20
-132.794
11
111.17
21
-132.696
0
LINE
8
BLACK
6
CONTINUOUS
10
111.17
20
-132.696
11
111.046
21
-132.568
0
LINE
8
BLACK
6
CONTINUOUS
10
111.046
20
-132.568
11
110.954
21
-132.416
0
LINE
8
BLACK
6
CONTINUOUS
10
110.954
20
-132.416
11
110.897
21
-132.246
0
LINE
8
BLACK
6
CONTINUOUS
10
110.897
20
-132.246
11
110.88
21
-132.069
0
LINE
8
BLACK
6
CONTINUOUS
10
110.88
20
-132.069
11
110.902
21
-131.892
0
LINE
8
BLACK
6
CONTINUOUS
10
110.902
20
-131.892
11
110.963
21
-131.724
0
LINE
8
BLACK
6
CONTINUOUS
10
110.963
20
-131.724
11
111.06
21
-131.574
0
LINE
8
BLACK
6
CONTINUOUS
10
111.06
20
-131.574
11
111.187
21
-131.45
0
LINE
8
BLACK
6
CONTINUOUS
10
111.187
20
-131.45
11
111.339
21
-131.356
0
LINE
8
BLACK
6
CONTINUOUS
10
111.339
20
-131.356
11
111.508
21
-131.299
0
LINE
8
BLACK
6
CONTINUOUS
10
111.508
20
-131.299
11
111.686
21
-131.28
0
LINE
8
BLACK
6
CONTINUOUS
10
111.686
20
-131.28
11
111.863
21
-131.301
0
LINE
8
BLACK
6
CONTINUOUS
10
120.561
20
-130.317
11
120.642
21
-130.371
0
LINE
8
BLACK
6
CONTINUOUS
10
120.642
20
-130.371
11
120.696
21
-130.452
0
LINE
8
BLACK
6
CONTINUOUS
10
120.696
20
-130.452
11
120.715
21
-130.547
0
LINE
8
BLACK
6
CONTINUOUS
10
120.715
20
-130.547
11
120.715
21
-131.072
0
LINE
8
BLACK
6
CONTINUOUS
10
120.715
20
-131.072
11
120.696
21
-131.168
0
LINE
8
BLACK
6
CONTINUOUS
10
120.696
20
-131.168
11
120.642
21
-131.249
0
LINE
8
BLACK
6
CONTINUOUS
10
120.642
20
-131.249
11
120.561
21
-131.303
0
LINE
8
BLACK
6
CONTINUOUS
10
120.561
20
-131.303
11
120.465
21
-131.322
0
LINE
8
BLACK
6
CONTINUOUS
10
120.465
20
-131.322
11
119.565
21
-131.322
0
LINE
8
BLACK
6
CONTINUOUS
10
119.565
20
-131.322
11
119.469
21
-131.303
0
LINE
8
BLACK
6
CONTINUOUS
10
119.469
20
-131.303
11
119.388
21
-131.249
0
LINE
8
BLACK
6
CONTINUOUS
10
119.388
20
-131.249
11
119.334
21
-131.168
0
LINE
8
BLACK
6
CONTINUOUS
10
119.334
20
-131.168
11
119.315
21
-131.072
0
LINE
8
BLACK
6
CONTINUOUS
10
119.315
20
-131.072
11
119.315
21
-130.547
0
LINE
8
BLACK
6
CONTINUOUS
10
119.315
20
-130.547
11
119.334
21
-130.452
0
LINE
8
BLACK
6
CONTINUOUS
10
119.334
20
-130.452
11
119.388
21
-130.371
0
LINE
8
BLACK
6
CONTINUOUS
10
119.388
20
-130.371
11
119.469
21
-130.317
0
LINE
8
BLACK
6
CONTINUOUS
10
119.469
20
-130.317
11
119.565
21
-130.297
0
LINE
8
BLACK
6
CONTINUOUS
10
119.565
20
-130.297
11
120.465
21
-130.297
0
LINE
8
BLACK
6
CONTINUOUS
10
120.465
20
-130.297
11
120.561
21
-130.317
0
LINE
8
BLACK
6
CONTINUOUS
10
131.402
20
-128.972
11
131.54
21
-129.014
0
LINE
8
BLACK
6
CONTINUOUS
10
131.54
20
-129.014
11
131.661
21
-129.092
0
LINE
8
BLACK
6
CONTINUOUS
10
131.661
20
-129.092
11
131.755
21
-129.201
0
LINE
8
BLACK
6
CONTINUOUS
10
131.755
20
-129.201
11
131.814
21
-129.332
0
LINE
8
BLACK
6
CONTINUOUS
10
131.814
20
-129.332
11
131.835
21
-129.475
0
LINE
8
BLACK
6
CONTINUOUS
10
131.835
20
-129.475
11
131.835
21
-130.491
0
LINE
8
BLACK
6
CONTINUOUS
10
131.835
20
-130.491
11
131.835
21
-130.497
0
LINE
8
BLACK
6
CONTINUOUS
10
131.835
20
-130.497
11
131.813
21
-130.639
0
LINE
8
BLACK
6
CONTINUOUS
10
131.813
20
-130.639
11
131.751
21
-130.77
0
LINE
8
BLACK
6
CONTINUOUS
10
131.751
20
-130.77
11
131.656
21
-130.878
0
LINE
8
BLACK
6
CONTINUOUS
10
131.656
20
-130.878
11
131.534
21
-130.955
0
LINE
8
BLACK
6
CONTINUOUS
10
131.534
20
-130.955
11
131.396
21
-130.994
0
LINE
8
BLACK
6
CONTINUOUS
10
131.396
20
-130.994
11
131.252
21
-130.993
0
LINE
8
BLACK
6
CONTINUOUS
10
131.252
20
-130.993
11
131.114
21
-130.952
0
LINE
8
BLACK
6
CONTINUOUS
10
131.114
20
-130.952
11
130.993
21
-130.874
0
LINE
8
BLACK
6
CONTINUOUS
10
130.993
20
-130.874
11
130.899
21
-130.765
0
LINE
8
BLACK
6
CONTINUOUS
10
130.899
20
-130.765
11
130.839
21
-130.633
0
LINE
8
BLACK
6
CONTINUOUS
10
130.839
20
-130.633
11
130.819
21
-130.491
0
LINE
8
BLACK
6
CONTINUOUS
10
130.819
20
-130.491
11
130.819
21
-129.475
0
LINE
8
BLACK
6
CONTINUOUS
10
130.819
20
-129.475
11
130.819
21
-129.469
0
LINE
8
BLACK
6
CONTINUOUS
10
130.819
20
-129.469
11
130.841
21
-129.326
0
LINE
8
BLACK
6
CONTINUOUS
10
130.841
20
-129.326
11
130.902
21
-129.196
0
LINE
8
BLACK
6
CONTINUOUS
10
130.902
20
-129.196
11
130.998
21
-129.088
0
LINE
8
BLACK
6
CONTINUOUS
10
130.998
20
-129.088
11
131.119
21
-129.011
0
LINE
8
BLACK
6
CONTINUOUS
10
131.119
20
-129.011
11
131.258
21
-128.972
0
LINE
8
BLACK
6
CONTINUOUS
10
131.258
20
-128.972
11
131.402
21
-128.972
0
LINE
8
BLACK
6
CONTINUOUS
10
133.952
20
-128.972
11
134.09
21
-129.014
0
LINE
8
BLACK
6
CONTINUOUS
10
134.09
20
-129.014
11
134.211
21
-129.092
0
LINE
8
BLACK
6
CONTINUOUS
10
134.211
20
-129.092
11
134.305
21
-129.201
0
LINE
8
BLACK
6
CONTINUOUS
10
134.305
20
-129.201
11
134.364
21
-129.332
0
LINE
8
BLACK
6
CONTINUOUS
10
134.364
20
-129.332
11
134.385
21
-129.475
0
LINE
8
BLACK
6
CONTINUOUS
10
134.385
20
-129.475
11
134.385
21
-130.491
0
LINE
8
BLACK
6
CONTINUOUS
10
134.385
20
-130.491
11
134.385
21
-130.497
0
LINE
8
BLACK
6
CONTINUOUS
10
134.385
20
-130.497
11
134.363
21
-130.639
0
LINE
8
BLACK
6
CONTINUOUS
10
134.363
20
-130.639
11
134.301
21
-130.77
0
LINE
8
BLACK
6
CONTINUOUS
10
134.301
20
-130.77
11
134.206
21
-130.878
0
LINE
8
BLACK
6
CONTINUOUS
10
134.206
20
-130.878
11
134.084
21
-130.955
0
LINE
8
BLACK
6
CONTINUOUS
10
134.084
20
-130.955
11
133.946
21
-130.994
0
LINE
8
BLACK
6
CONTINUOUS
10
133.946
20
-130.994
11
133.802
21
-130.993
0
LINE
8
BLACK
6
CONTINUOUS
10
133.802
20
-130.993
11
133.664
21
-130.952
0
LINE
8
BLACK
6
CONTINUOUS
10
133.664
20
-130.952
11
133.543
21
-130.874
0
LINE
8
BLACK
6
CONTINUOUS
10
133.543
20
-130.874
11
133.449
21
-130.765
0
LINE
8
BLACK
6
CONTINUOUS
10
133.449
20
-130.765
11
133.389
21
-130.633
0
LINE
8
BLACK
6
CONTINUOUS
10
133.389
20
-130.633
11
133.369
21
-130.491
0
LINE
8
BLACK
6
CONTINUOUS
10
133.369
20
-130.491
11
133.369
21
-129.475
0
LINE
8
BLACK
6
CONTINUOUS
10
133.369
20
-129.475
11
133.369
21
-129.469
0
LINE
8
BLACK
6
CONTINUOUS
10
133.369
20
-129.469
11
133.391
21
-129.326
0
LINE
8
BLACK
6
CONTINUOUS
10
133.391
20
-129.326
11
133.452
21
-129.196
0
LINE
8
BLACK
6
CONTINUOUS
10
133.452
20
-129.196
11
133.548
21
-129.088
0
LINE
8
BLACK
6
CONTINUOUS
10
133.548
20
-129.088
11
133.669
21
-129.011
0
LINE
8
BLACK
6
CONTINUOUS
10
133.669
20
-129.011
11
133.808
21
-128.972
0
LINE
8
BLACK
6
CONTINUOUS
10
133.808
20
-128.972
11
133.952
21
-128.972
0
LINE
8
BLACK
6
CONTINUOUS
10
99.6
20
-130.715
11
98.5
21
-130.715
0
LINE
8
BLACK
6
CONTINUOUS
10
98.5
20
-130.715
11
98.5
21
-126.115
0
LINE
8
BLACK
6
CONTINUOUS
10
98.5
20
-126.115
11
99.6
21
-126.115
0
LINE
8
BLACK
6
CONTINUOUS
10
99.6
20
-126.115
11
99.6
21
-130.715
0
LINE
8
BLACK
6
CONTINUOUS
10
97.9
20
-130.715
11
96.8
21
-130.715
0
LINE
8
BLACK
6
CONTINUOUS
10
96.8
20
-130.715
11
96.8
21
-126.115
0
LINE
8
BLACK
6
CONTINUOUS
10
96.8
20
-126.115
11
97.9
21
-126.115
0
LINE
8
BLACK
6
CONTINUOUS
10
97.9
20
-126.115
11
97.9
21
-130.715
0
LINE
8
BLACK
6
CONTINUOUS
10
96.2
20
-130.715
11
95.1
21
-130.715
0
LINE
8
BLACK
6
CONTINUOUS
10
95.1
20
-130.715
11
95.1
21
-126.115
0
LINE
8
BLACK
6
CONTINUOUS
10
95.1
20
-126.115
11
96.2
21
-126.115
0
LINE
8
BLACK
6
CONTINUOUS
10
96.2
20
-126.115
11
96.2
21
-130.715
0
LINE
8
BLACK
6
CONTINUOUS
10
94.5
20
-130.715
11
93.4
21
-130.715
0
LINE
8
BLACK
6
CONTINUOUS
10
93.4
20
-130.715
11
93.4
21
-126.115
0
LINE
8
BLACK
6
CONTINUOUS
10
93.4
20
-126.115
11
94.5
21
-126.115
0
LINE
8
BLACK
6
CONTINUOUS
10
94.5
20
-126.115
11
94.5
21
-130.715
0
LINE
8
BLACK
6
CONTINUOUS
10
92.8
20
-130.715
11
91.7
21
-130.715
0
LINE
8
BLACK
6
CONTINUOUS
10
91.7
20
-130.715
11
91.7
21
-126.115
0
LINE
8
BLACK
6
CONTINUOUS
10
91.7
20
-126.115
11
92.8
21
-126.115
0
LINE
8
BLACK
6
CONTINUOUS
10
92.8
20
-126.115
11
92.8
21
-130.715
0
LINE
8
BLACK
6
CONTINUOUS
10
141.104
20
-127.911
11
141.301
21
-127.952
0
LINE
8
BLACK
6
CONTINUOUS
10
141.301
20
-127.952
11
141.487
21
-128.033
0
LINE
8
BLACK
6
CONTINUOUS
10
141.487
20
-128.033
11
141.652
21
-128.148
0
LINE
8
BLACK
6
CONTINUOUS
10
141.652
20
-128.148
11
141.791
21
-128.295
0
LINE
8
BLACK
6
CONTINUOUS
10
141.791
20
-128.295
11
141.898
21
-128.467
0
LINE
8
BLACK
6
CONTINUOUS
10
141.898
20
-128.467
11
141.967
21
-128.656
0
LINE
8
BLACK
6
CONTINUOUS
10
141.967
20
-128.656
11
141.998
21
-128.856
0
LINE
8
BLACK
6
CONTINUOUS
10
141.998
20
-128.856
11
141.987
21
-129.058
0
LINE
8
BLACK
6
CONTINUOUS
10
141.987
20
-129.058
11
141.936
21
-129.253
0
LINE
8
BLACK
6
CONTINUOUS
10
141.936
20
-129.253
11
141.847
21
-129.435
0
LINE
8
BLACK
6
CONTINUOUS
10
141.847
20
-129.435
11
141.723
21
-129.594
0
LINE
8
BLACK
6
CONTINUOUS
10
141.723
20
-129.594
11
141.57
21
-129.726
0
LINE
8
BLACK
6
CONTINUOUS
10
141.57
20
-129.726
11
141.393
21
-129.824
0
LINE
8
BLACK
6
CONTINUOUS
10
141.393
20
-129.824
11
141.2
21
-129.884
0
LINE
8
BLACK
6
CONTINUOUS
10
141.2
20
-129.884
11
140.999
21
-129.904
0
LINE
8
BLACK
6
CONTINUOUS
10
140.999
20
-129.904
11
140.25
21
-129.904
0
LINE
8
BLACK
6
CONTINUOUS
10
140.25
20
-129.904
11
140.145
21
-129.899
0
LINE
8
BLACK
6
CONTINUOUS
10
140.145
20
-129.899
11
139.948
21
-129.858
0
LINE
8
BLACK
6
CONTINUOUS
10
139.948
20
-129.858
11
139.762
21
-129.777
0
LINE
8
BLACK
6
CONTINUOUS
10
139.762
20
-129.777
11
139.597
21
-129.662
0
LINE
8
BLACK
6
CONTINUOUS
10
139.597
20
-129.662
11
139.458
21
-129.515
0
LINE
8
BLACK
6
CONTINUOUS
10
139.458
20
-129.515
11
139.352
21
-129.343
0
LINE
8
BLACK
6
CONTINUOUS
10
139.352
20
-129.343
11
139.282
21
-129.154
0
LINE
8
BLACK
6
CONTINUOUS
10
139.282
20
-129.154
11
139.252
21
-128.954
0
LINE
8
BLACK
6
CONTINUOUS
10
139.252
20
-128.954
11
139.262
21
-128.752
0
LINE
8
BLACK
6
CONTINUOUS
10
139.262
20
-128.752
11
139.313
21
-128.557
0
LINE
8
BLACK
6
CONTINUOUS
10
139.313
20
-128.557
11
139.402
21
-128.375
0
LINE
8
BLACK
6
CONTINUOUS
10
139.402
20
-128.375
11
139.526
21
-128.216
0
LINE
8
BLACK
6
CONTINUOUS
10
139.526
20
-128.216
11
139.679
21
-128.084
0
LINE
8
BLACK
6
CONTINUOUS
10
139.679
20
-128.084
11
139.856
21
-127.986
0
LINE
8
BLACK
6
CONTINUOUS
10
139.856
20
-127.986
11
140.049
21
-127.926
0
LINE
8
BLACK
6
CONTINUOUS
10
140.049
20
-127.926
11
140.25
21
-127.906
0
LINE
8
BLACK
6
CONTINUOUS
10
140.25
20
-127.906
11
140.999
21
-127.906
0
LINE
8
BLACK
6
CONTINUOUS
10
140.999
20
-127.906
11
141.104
21
-127.911
0
LINE
8
BLACK
6
CONTINUOUS
10
124.939
20
-127.911
11
125.137
21
-127.952
0
LINE
8
BLACK
6
CONTINUOUS
10
125.137
20
-127.952
11
125.322
21
-128.033
0
LINE
8
BLACK
6
CONTINUOUS
10
125.322
20
-128.033
11
125.488
21
-128.148
0
LINE
8
BLACK
6
CONTINUOUS
10
125.488
20
-128.148
11
125.627
21
-128.295
0
LINE
8
BLACK
6
CONTINUOUS
10
125.627
20
-128.295
11
125.733
21
-128.467
0
LINE
8
BLACK
6
CONTINUOUS
10
125.733
20
-128.467
11
125.803
21
-128.656
0
LINE
8
BLACK
6
CONTINUOUS
10
125.803
20
-128.656
11
125.833
21
-128.856
0
LINE
8
BLACK
6
CONTINUOUS
10
125.833
20
-128.856
11
125.822
21
-129.058
0
LINE
8
BLACK
6
CONTINUOUS
10
125.822
20
-129.058
11
125.771
21
-129.253
0
LINE
8
BLACK
6
CONTINUOUS
10
125.771
20
-129.253
11
125.682
21
-129.435
0
LINE
8
BLACK
6
CONTINUOUS
10
125.682
20
-129.435
11
125.558
21
-129.594
0
LINE
8
BLACK
6
CONTINUOUS
10
125.558
20
-129.594
11
125.405
21
-129.726
0
LINE
8
BLACK
6
CONTINUOUS
10
125.405
20
-129.726
11
125.228
21
-129.824
0
LINE
8
BLACK
6
CONTINUOUS
10
125.228
20
-129.824
11
125.036
21
-129.884
0
LINE
8
BLACK
6
CONTINUOUS
10
125.036
20
-129.884
11
124.835
21
-129.904
0
LINE
8
BLACK
6
CONTINUOUS
10
124.835
20
-129.904
11
124.085
21
-129.904
0
LINE
8
BLACK
6
CONTINUOUS
10
124.085
20
-129.904
11
123.981
21
-129.899
0
LINE
8
BLACK
6
CONTINUOUS
10
123.981
20
-129.899
11
123.783
21
-129.858
0
LINE
8
BLACK
6
CONTINUOUS
10
123.783
20
-129.858
11
123.598
21
-129.777
0
LINE
8
BLACK
6
CONTINUOUS
10
123.598
20
-129.777
11
123.432
21
-129.662
0
LINE
8
BLACK
6
CONTINUOUS
10
123.432
20
-129.662
11
123.293
21
-129.515
0
LINE
8
BLACK
6
CONTINUOUS
10
123.293
20
-129.515
11
123.187
21
-129.343
0
LINE
8
BLACK
6
CONTINUOUS
10
123.187
20
-129.343
11
123.117
21
-129.154
0
LINE
8
BLACK
6
CONTINUOUS
10
123.117
20
-129.154
11
123.087
21
-128.954
0
LINE
8
BLACK
6
CONTINUOUS
10
123.087
20
-128.954
11
123.098
21
-128.752
0
LINE
8
BLACK
6
CONTINUOUS
10
123.098
20
-128.752
11
123.149
21
-128.557
0
LINE
8
BLACK
6
CONTINUOUS
10
123.149
20
-128.557
11
123.238
21
-128.375
0
LINE
8
BLACK
6
CONTINUOUS
10
123.238
20
-128.375
11
123.362
21
-128.216
0
LINE
8
BLACK
6
CONTINUOUS
10
123.362
20
-128.216
11
123.515
21
-128.084
0
LINE
8
BLACK
6
CONTINUOUS
10
123.515
20
-128.084
11
123.692
21
-127.986
0
LINE
8
BLACK
6
CONTINUOUS
10
123.692
20
-127.986
11
123.884
21
-127.926
0
LINE
8
BLACK
6
CONTINUOUS
10
123.884
20
-127.926
11
124.085
21
-127.906
0
LINE
8
BLACK
6
CONTINUOUS
10
124.085
20
-127.906
11
124.835
21
-127.906
0
LINE
8
BLACK
6
CONTINUOUS
10
124.835
20
-127.906
11
124.939
21
-127.911
0
LINE
8
BLACK
6
CONTINUOUS
10
104.051
20
-127.062
11
104.132
21
-127.116
0
LINE
8
BLACK
6
CONTINUOUS
10
104.132
20
-127.116
11
104.186
21
-127.197
0
LINE
8
BLACK
6
CONTINUOUS
10
104.186
20
-127.197
11
104.205
21
-127.292
0
LINE
8
BLACK
6
CONTINUOUS
10
104.205
20
-127.292
11
104.205
21
-127.817
0
LINE
8
BLACK
6
CONTINUOUS
10
104.205
20
-127.817
11
104.186
21
-127.913
0
LINE
8
BLACK
6
CONTINUOUS
10
104.186
20
-127.913
11
104.132
21
-127.994
0
LINE
8
BLACK
6
CONTINUOUS
10
104.132
20
-127.994
11
104.051
21
-128.048
0
LINE
8
BLACK
6
CONTINUOUS
10
104.051
20
-128.048
11
103.955
21
-128.067
0
LINE
8
BLACK
6
CONTINUOUS
10
103.955
20
-128.067
11
103.055
21
-128.067
0
LINE
8
BLACK
6
CONTINUOUS
10
103.055
20
-128.067
11
102.959
21
-128.048
0
LINE
8
BLACK
6
CONTINUOUS
10
102.959
20
-128.048
11
102.878
21
-127.994
0
LINE
8
BLACK
6
CONTINUOUS
10
102.878
20
-127.994
11
102.824
21
-127.913
0
LINE
8
BLACK
6
CONTINUOUS
10
102.824
20
-127.913
11
102.805
21
-127.817
0
LINE
8
BLACK
6
CONTINUOUS
10
102.805
20
-127.817
11
102.805
21
-127.292
0
LINE
8
BLACK
6
CONTINUOUS
10
102.805
20
-127.292
11
102.824
21
-127.197
0
LINE
8
BLACK
6
CONTINUOUS
10
102.824
20
-127.197
11
102.878
21
-127.116
0
LINE
8
BLACK
6
CONTINUOUS
10
102.878
20
-127.116
11
102.959
21
-127.062
0
LINE
8
BLACK
6
CONTINUOUS
10
102.959
20
-127.062
11
103.055
21
-127.042
0
LINE
8
BLACK
6
CONTINUOUS
10
103.055
20
-127.042
11
103.955
21
-127.042
0
LINE
8
BLACK
6
CONTINUOUS
10
103.955
20
-127.042
11
104.051
21
-127.062
0
LINE
8
BLACK
6
CONTINUOUS
10
141.104
20
-125.371
11
141.301
21
-125.412
0
LINE
8
BLACK
6
CONTINUOUS
10
141.301
20
-125.412
11
141.487
21
-125.493
0
LINE
8
BLACK
6
CONTINUOUS
10
141.487
20
-125.493
11
141.652
21
-125.608
0
LINE
8
BLACK
6
CONTINUOUS
10
141.652
20
-125.608
11
141.791
21
-125.755
0
LINE
8
BLACK
6
CONTINUOUS
10
141.791
20
-125.755
11
141.898
21
-125.927
0
LINE
8
BLACK
6
CONTINUOUS
10
141.898
20
-125.927
11
141.967
21
-126.116
0
LINE
8
BLACK
6
CONTINUOUS
10
141.967
20
-126.116
11
141.998
21
-126.316
0
LINE
8
BLACK
6
CONTINUOUS
10
141.998
20
-126.316
11
141.987
21
-126.518
0
LINE
8
BLACK
6
CONTINUOUS
10
141.987
20
-126.518
11
141.936
21
-126.713
0
LINE
8
BLACK
6
CONTINUOUS
10
141.936
20
-126.713
11
141.847
21
-126.895
0
LINE
8
BLACK
6
CONTINUOUS
10
141.847
20
-126.895
11
141.723
21
-127.054
0
LINE
8
BLACK
6
CONTINUOUS
10
141.723
20
-127.054
11
141.57
21
-127.186
0
LINE
8
BLACK
6
CONTINUOUS
10
141.57
20
-127.186
11
141.393
21
-127.284
0
LINE
8
BLACK
6
CONTINUOUS
10
141.393
20
-127.284
11
141.2
21
-127.344
0
LINE
8
BLACK
6
CONTINUOUS
10
141.2
20
-127.344
11
140.999
21
-127.364
0
LINE
8
BLACK
6
CONTINUOUS
10
140.999
20
-127.364
11
140.25
21
-127.364
0
LINE
8
BLACK
6
CONTINUOUS
10
140.25
20
-127.364
11
140.145
21
-127.359
0
LINE
8
BLACK
6
CONTINUOUS
10
140.145
20
-127.359
11
139.948
21
-127.318
0
LINE
8
BLACK
6
CONTINUOUS
10
139.948
20
-127.318
11
139.762
21
-127.237
0
LINE
8
BLACK
6
CONTINUOUS
10
139.762
20
-127.237
11
139.597
21
-127.122
0
LINE
8
BLACK
6
CONTINUOUS
10
139.597
20
-127.122
11
139.458
21
-126.975
0
LINE
8
BLACK
6
CONTINUOUS
10
139.458
20
-126.975
11
139.352
21
-126.803
0
LINE
8
BLACK
6
CONTINUOUS
10
139.352
20
-126.803
11
139.282
21
-126.614
0
LINE
8
BLACK
6
CONTINUOUS
10
139.282
20
-126.614
11
139.252
21
-126.414
0
LINE
8
BLACK
6
CONTINUOUS
10
139.252
20
-126.414
11
139.262
21
-126.212
0
LINE
8
BLACK
6
CONTINUOUS
10
139.262
20
-126.212
11
139.313
21
-126.017
0
LINE
8
BLACK
6
CONTINUOUS
10
139.313
20
-126.017
11
139.402
21
-125.835
0
LINE
8
BLACK
6
CONTINUOUS
10
139.402
20
-125.835
11
139.526
21
-125.676
0
LINE
8
BLACK
6
CONTINUOUS
10
139.526
20
-125.676
11
139.679
21
-125.544
0
LINE
8
BLACK
6
CONTINUOUS
10
139.679
20
-125.544
11
139.856
21
-125.446
0
LINE
8
BLACK
6
CONTINUOUS
10
139.856
20
-125.446
11
140.049
21
-125.386
0
LINE
8
BLACK
6
CONTINUOUS
10
140.049
20
-125.386
11
140.25
21
-125.366
0
LINE
8
BLACK
6
CONTINUOUS
10
140.25
20
-125.366
11
140.999
21
-125.366
0
LINE
8
BLACK
6
CONTINUOUS
10
140.999
20
-125.366
11
141.104
21
-125.371
0
LINE
8
BLACK
6
CONTINUOUS
10
124.939
20
-125.371
11
125.137
21
-125.412
0
LINE
8
BLACK
6
CONTINUOUS
10
125.137
20
-125.412
11
125.322
21
-125.493
0
LINE
8
BLACK
6
CONTINUOUS
10
125.322
20
-125.493
11
125.488
21
-125.608
0
LINE
8
BLACK
6
CONTINUOUS
10
125.488
20
-125.608
11
125.627
21
-125.755
0
LINE
8
BLACK
6
CONTINUOUS
10
125.627
20
-125.755
11
125.733
21
-125.927
0
LINE
8
BLACK
6
CONTINUOUS
10
125.733
20
-125.927
11
125.803
21
-126.116
0
LINE
8
BLACK
6
CONTINUOUS
10
125.803
20
-126.116
11
125.833
21
-126.316
0
LINE
8
BLACK
6
CONTINUOUS
10
125.833
20
-126.316
11
125.822
21
-126.518
0
LINE
8
BLACK
6
CONTINUOUS
10
125.822
20
-126.518
11
125.771
21
-126.713
0
LINE
8
BLACK
6
CONTINUOUS
10
125.771
20
-126.713
11
125.682
21
-126.895
0
LINE
8
BLACK
6
CONTINUOUS
10
125.682
20
-126.895
11
125.558
21
-127.054
0
LINE
8
BLACK
6
CONTINUOUS
10
125.558
20
-127.054
11
125.405
21
-127.186
0
LINE
8
BLACK
6
CONTINUOUS
10
125.405
20
-127.186
11
125.228
21
-127.284
0
LINE
8
BLACK
6
CONTINUOUS
10
125.228
20
-127.284
11
125.036
21
-127.344
0
LINE
8
BLACK
6
CONTINUOUS
10
125.036
20
-127.344
11
124.835
21
-127.364
0
LINE
8
BLACK
6
CONTINUOUS
10
124.835
20
-127.364
11
124.085
21
-127.364
0
LINE
8
BLACK
6
CONTINUOUS
10
124.085
20
-127.364
11
123.981
21
-127.359
0
LINE
8
BLACK
6
CONTINUOUS
10
123.981
20
-127.359
11
123.783
21
-127.318
0
LINE
8
BLACK
6
CONTINUOUS
10
123.783
20
-127.318
11
123.598
21
-127.237
0
LINE
8
BLACK
6
CONTINUOUS
10
123.598
20
-127.237
11
123.432
21
-127.122
0
LINE
8
BLACK
6
CONTINUOUS
10
123.432
20
-127.122
11
123.293
21
-126.975
0
LINE
8
BLACK
6
CONTINUOUS
10
123.293
20
-126.975
11
123.187
21
-126.803
0
LINE
8
BLACK
6
CONTINUOUS
10
123.187
20
-126.803
11
123.117
21
-126.614
0
LINE
8
BLACK
6
CONTINUOUS
10
123.117
20
-126.614
11
123.087
21
-126.414
0
LINE
8
BLACK
6
CONTINUOUS
10
123.087
20
-126.414
11
123.098
21
-126.212
0
LINE
8
BLACK
6
CONTINUOUS
10
123.098
20
-126.212
11
123.149
21
-126.017
0
LINE
8
BLACK
6
CONTINUOUS
10
123.149
20
-126.017
11
123.238
21
-125.835
0
LINE
8
BLACK
6
CONTINUOUS
10
123.238
20
-125.835
11
123.362
21
-125.676
0
LINE
8
BLACK
6
CONTINUOUS
10
123.362
20
-125.676
11
123.515
21
-125.544
0
LINE
8
BLACK
6
CONTINUOUS
10
123.515
20
-125.544
11
123.692
21
-125.446
0
LINE
8
BLACK
6
CONTINUOUS
10
123.692
20
-125.446
11
123.884
21
-125.386
0
LINE
8
BLACK
6
CONTINUOUS
10
123.884
20
-125.386
11
124.085
21
-125.366
0
LINE
8
BLACK
6
CONTINUOUS
10
124.085
20
-125.366
11
124.835
21
-125.366
0
LINE
8
BLACK
6
CONTINUOUS
10
124.835
20
-125.366
11
124.939
21
-125.371
0
LINE
8
BLACK
6
CONTINUOUS
10
104.051
20
-125.237
11
104.132
21
-125.291
0
LINE
8
BLACK
6
CONTINUOUS
10
104.132
20
-125.291
11
104.186
21
-125.372
0
LINE
8
BLACK
6
CONTINUOUS
10
104.186
20
-125.372
11
104.205
21
-125.468
0
LINE
8
BLACK
6
CONTINUOUS
10
104.205
20
-125.468
11
104.205
21
-125.992
0
LINE
8
BLACK
6
CONTINUOUS
10
104.205
20
-125.992
11
104.186
21
-126.088
0
LINE
8
BLACK
6
CONTINUOUS
10
104.186
20
-126.088
11
104.132
21
-126.169
0
LINE
8
BLACK
6
CONTINUOUS
10
104.132
20
-126.169
11
104.051
21
-126.223
0
LINE
8
BLACK
6
CONTINUOUS
10
104.051
20
-126.223
11
103.955
21
-126.242
0
LINE
8
BLACK
6
CONTINUOUS
10
103.955
20
-126.242
11
103.055
21
-126.242
0
LINE
8
BLACK
6
CONTINUOUS
10
103.055
20
-126.242
11
102.959
21
-126.223
0
LINE
8
BLACK
6
CONTINUOUS
10
102.959
20
-126.223
11
102.878
21
-126.169
0
LINE
8
BLACK
6
CONTINUOUS
10
102.878
20
-126.169
11
102.824
21
-126.088
0
LINE
8
BLACK
6
CONTINUOUS
10
102.824
20
-126.088
11
102.805
21
-125.992
0
LINE
8
BLACK
6
CONTINUOUS
10
102.805
20
-125.992
11
102.805
21
-125.468
0
LINE
8
BLACK
6
CONTINUOUS
10
102.805
20
-125.468
11
102.824
21
-125.372
0
LINE
8
BLACK
6
CONTINUOUS
10
102.824
20
-125.372
11
102.878
21
-125.291
0
LINE
8
BLACK
6
CONTINUOUS
10
102.878
20
-125.291
11
102.959
21
-125.237
0
LINE
8
BLACK
6
CONTINUOUS
10
102.959
20
-125.237
11
103.055
21
-125.218
0
LINE
8
BLACK
6
CONTINUOUS
10
103.055
20
-125.218
11
103.955
21
-125.218
0
LINE
8
BLACK
6
CONTINUOUS
10
103.955
20
-125.218
11
104.051
21
-125.237
0
LINE
8
BLACK
6
CONTINUOUS
10
149.3
20
-125.94
11
147.5
21
-125.94
0
LINE
8
BLACK
6
CONTINUOUS
10
147.5
20
-125.94
11
147.5
21
-124.87
0
LINE
8
BLACK
6
CONTINUOUS
10
147.5
20
-124.87
11
149.3
21
-124.87
0
LINE
8
BLACK
6
CONTINUOUS
10
149.3
20
-124.87
11
149.3
21
-125.94
0
LINE
8
BLACK
6
CONTINUOUS
10
124.939
20
-122.831
11
125.137
21
-122.872
0
LINE
8
BLACK
6
CONTINUOUS
10
125.137
20
-122.872
11
125.322
21
-122.953
0
LINE
8
BLACK
6
CONTINUOUS
10
125.322
20
-122.953
11
125.488
21
-123.068
0
LINE
8
BLACK
6
CONTINUOUS
10
125.488
20
-123.068
11
125.627
21
-123.215
0
LINE
8
BLACK
6
CONTINUOUS
10
125.627
20
-123.215
11
125.733
21
-123.387
0
LINE
8
BLACK
6
CONTINUOUS
10
125.733
20
-123.387
11
125.803
21
-123.576
0
LINE
8
BLACK
6
CONTINUOUS
10
125.803
20
-123.576
11
125.833
21
-123.776
0
LINE
8
BLACK
6
CONTINUOUS
10
125.833
20
-123.776
11
125.822
21
-123.978
0
LINE
8
BLACK
6
CONTINUOUS
10
125.822
20
-123.978
11
125.771
21
-124.173
0
LINE
8
BLACK
6
CONTINUOUS
10
125.771
20
-124.173
11
125.682
21
-124.355
0
LINE
8
BLACK
6
CONTINUOUS
10
125.682
20
-124.355
11
125.558
21
-124.514
0
LINE
8
BLACK
6
CONTINUOUS
10
125.558
20
-124.514
11
125.405
21
-124.646
0
LINE
8
BLACK
6
CONTINUOUS
10
125.405
20
-124.646
11
125.228
21
-124.744
0
LINE
8
BLACK
6
CONTINUOUS
10
125.228
20
-124.744
11
125.036
21
-124.804
0
LINE
8
BLACK
6
CONTINUOUS
10
125.036
20
-124.804
11
124.835
21
-124.824
0
LINE
8
BLACK
6
CONTINUOUS
10
124.835
20
-124.824
11
124.085
21
-124.824
0
LINE
8
BLACK
6
CONTINUOUS
10
124.085
20
-124.824
11
123.981
21
-124.819
0
LINE
8
BLACK
6
CONTINUOUS
10
123.981
20
-124.819
11
123.783
21
-124.778
0
LINE
8
BLACK
6
CONTINUOUS
10
123.783
20
-124.778
11
123.598
21
-124.697
0
LINE
8
BLACK
6
CONTINUOUS
10
123.598
20
-124.697
11
123.432
21
-124.582
0
LINE
8
BLACK
6
CONTINUOUS
10
123.432
20
-124.582
11
123.293
21
-124.435
0
LINE
8
BLACK
6
CONTINUOUS
10
123.293
20
-124.435
11
123.187
21
-124.263
0
LINE
8
BLACK
6
CONTINUOUS
10
123.187
20
-124.263
11
123.117
21
-124.074
0
LINE
8
BLACK
6
CONTINUOUS
10
123.117
20
-124.074
11
123.087
21
-123.874
0
LINE
8
BLACK
6
CONTINUOUS
10
123.087
20
-123.874
11
123.098
21
-123.672
0
LINE
8
BLACK
6
CONTINUOUS
10
123.098
20
-123.672
11
123.149
21
-123.477
0
LINE
8
BLACK
6
CONTINUOUS
10
123.149
20
-123.477
11
123.238
21
-123.295
0
LINE
8
BLACK
6
CONTINUOUS
10
123.238
20
-123.295
11
123.362
21
-123.136
0
LINE
8
BLACK
6
CONTINUOUS
10
123.362
20
-123.136
11
123.515
21
-123.004
0
LINE
8
BLACK
6
CONTINUOUS
10
123.515
20
-123.004
11
123.692
21
-122.906
0
LINE
8
BLACK
6
CONTINUOUS
10
123.692
20
-122.906
11
123.884
21
-122.846
0
LINE
8
BLACK
6
CONTINUOUS
10
123.884
20
-122.846
11
124.085
21
-122.826
0
LINE
8
BLACK
6
CONTINUOUS
10
124.085
20
-122.826
11
124.835
21
-122.826
0
LINE
8
BLACK
6
CONTINUOUS
10
124.835
20
-122.826
11
124.939
21
-122.831
0
LINE
8
BLACK
6
CONTINUOUS
10
141.104
20
-122.831
11
141.301
21
-122.872
0
LINE
8
BLACK
6
CONTINUOUS
10
141.301
20
-122.872
11
141.487
21
-122.953
0
LINE
8
BLACK
6
CONTINUOUS
10
141.487
20
-122.953
11
141.652
21
-123.068
0
LINE
8
BLACK
6
CONTINUOUS
10
141.652
20
-123.068
11
141.791
21
-123.215
0
LINE
8
BLACK
6
CONTINUOUS
10
141.791
20
-123.215
11
141.898
21
-123.387
0
LINE
8
BLACK
6
CONTINUOUS
10
141.898
20
-123.387
11
141.967
21
-123.576
0
LINE
8
BLACK
6
CONTINUOUS
10
141.967
20
-123.576
11
141.998
21
-123.776
0
LINE
8
BLACK
6
CONTINUOUS
10
141.998
20
-123.776
11
141.987
21
-123.978
0
LINE
8
BLACK
6
CONTINUOUS
10
141.987
20
-123.978
11
141.936
21
-124.173
0
LINE
8
BLACK
6
CONTINUOUS
10
141.936
20
-124.173
11
141.847
21
-124.355
0
LINE
8
BLACK
6
CONTINUOUS
10
141.847
20
-124.355
11
141.723
21
-124.514
0
LINE
8
BLACK
6
CONTINUOUS
10
141.723
20
-124.514
11
141.57
21
-124.646
0
LINE
8
BLACK
6
CONTINUOUS
10
141.57
20
-124.646
11
141.393
21
-124.744
0
LINE
8
BLACK
6
CONTINUOUS
10
141.393
20
-124.744
11
141.2
21
-124.804
0
LINE
8
BLACK
6
CONTINUOUS
10
141.2
20
-124.804
11
140.999
21
-124.824
0
LINE
8
BLACK
6
CONTINUOUS
10
140.999
20
-124.824
11
140.25
21
-124.824
0
LINE
8
BLACK
6
CONTINUOUS
10
140.25
20
-124.824
11
140.145
21
-124.819
0
LINE
8
BLACK
6
CONTINUOUS
10
140.145
20
-124.819
11
139.948
21
-124.778
0
LINE
8
BLACK
6
CONTINUOUS
10
139.948
20
-124.778
11
139.762
21
-124.697
0
LINE
8
BLACK
6
CONTINUOUS
10
139.762
20
-124.697
11
139.597
21
-124.582
0
LINE
8
BLACK
6
CONTINUOUS
10
139.597
20
-124.582
11
139.458
21
-124.435
0
LINE
8
BLACK
6
CONTINUOUS
10
139.458
20
-124.435
11
139.352
21
-124.263
0
LINE
8
BLACK
6
CONTINUOUS
10
139.352
20
-124.263
11
139.282
21
-124.074
0
LINE
8
BLACK
6
CONTINUOUS
10
139.282
20
-124.074
11
139.252
21
-123.874
0
LINE
8
BLACK
6
CONTINUOUS
10
139.252
20
-123.874
11
139.262
21
-123.672
0
LINE
8
BLACK
6
CONTINUOUS
10
139.262
20
-123.672
11
139.313
21
-123.477
0
LINE
8
BLACK
6
CONTINUOUS
10
139.313
20
-123.477
11
139.402
21
-123.295
0
LINE
8
BLACK
6
CONTINUOUS
10
139.402
20
-123.295
11
139.526
21
-123.136
0
LINE
8
BLACK
6
CONTINUOUS
10
139.526
20
-123.136
11
139.679
21
-123.004
0
LINE
8
BLACK
6
CONTINUOUS
10
139.679
20
-123.004
11
139.856
21
-122.906
0
LINE
8
BLACK
6
CONTINUOUS
10
139.856
20
-122.906
11
140.049
21
-122.846
0
LINE
8
BLACK
6
CONTINUOUS
10
140.049
20
-122.846
11
140.25
21
-122.826
0
LINE
8
BLACK
6
CONTINUOUS
10
140.25
20
-122.826
11
140.999
21
-122.826
0
LINE
8
BLACK
6
CONTINUOUS
10
140.999
20
-122.826
11
141.104
21
-122.831
0
LINE
8
BLACK
6
CONTINUOUS
10
148.843
20
-123.605
11
148.983
21
-123.646
0
LINE
8
BLACK
6
CONTINUOUS
10
148.983
20
-123.646
11
149.106
21
-123.722
0
LINE
8
BLACK
6
CONTINUOUS
10
149.106
20
-123.722
11
149.204
21
-123.829
0
LINE
8
BLACK
6
CONTINUOUS
10
149.204
20
-123.829
11
149.27
21
-123.959
0
LINE
8
BLACK
6
CONTINUOUS
10
149.27
20
-123.959
11
149.299
21
-124.101
0
LINE
8
BLACK
6
CONTINUOUS
10
149.299
20
-124.101
11
149.288
21
-124.246
0
LINE
8
BLACK
6
CONTINUOUS
10
149.288
20
-124.246
11
149.239
21
-124.383
0
LINE
8
BLACK
6
CONTINUOUS
10
149.239
20
-124.383
11
149.155
21
-124.501
0
LINE
8
BLACK
6
CONTINUOUS
10
149.155
20
-124.501
11
149.042
21
-124.592
0
LINE
8
BLACK
6
CONTINUOUS
10
149.042
20
-124.592
11
148.909
21
-124.65
0
LINE
8
BLACK
6
CONTINUOUS
10
148.909
20
-124.65
11
148.765
21
-124.67
0
LINE
8
BLACK
6
CONTINUOUS
10
148.765
20
-124.67
11
148.035
21
-124.67
0
LINE
8
BLACK
6
CONTINUOUS
10
148.035
20
-124.67
11
147.957
21
-124.664
0
LINE
8
BLACK
6
CONTINUOUS
10
147.957
20
-124.664
11
147.817
21
-124.623
0
LINE
8
BLACK
6
CONTINUOUS
10
147.817
20
-124.623
11
147.694
21
-124.547
0
LINE
8
BLACK
6
CONTINUOUS
10
147.694
20
-124.547
11
147.596
21
-124.44
0
LINE
8
BLACK
6
CONTINUOUS
10
147.596
20
-124.44
11
147.53
21
-124.311
0
LINE
8
BLACK
6
CONTINUOUS
10
147.53
20
-124.311
11
147.501
21
-124.168
0
LINE
8
BLACK
6
CONTINUOUS
10
147.501
20
-124.168
11
147.512
21
-124.023
0
LINE
8
BLACK
6
CONTINUOUS
10
147.512
20
-124.023
11
147.561
21
-123.887
0
LINE
8
BLACK
6
CONTINUOUS
10
147.561
20
-123.887
11
147.645
21
-123.768
0
LINE
8
BLACK
6
CONTINUOUS
10
147.645
20
-123.768
11
147.758
21
-123.677
0
LINE
8
BLACK
6
CONTINUOUS
10
147.758
20
-123.677
11
147.891
21
-123.619
0
LINE
8
BLACK
6
CONTINUOUS
10
147.891
20
-123.619
11
148.035
21
-123.6
0
LINE
8
BLACK
6
CONTINUOUS
10
148.035
20
-123.6
11
148.765
21
-123.6
0
LINE
8
BLACK
6
CONTINUOUS
10
148.765
20
-123.6
11
148.843
21
-123.605
0
LINE
8
BLACK
6
CONTINUOUS
10
101.05
20
-123.965
11
90.25
21
-123.965
0
LINE
8
BLACK
6
CONTINUOUS
10
90.25
20
-123.965
11
90.25
21
-114.565
0
LINE
8
BLACK
6
CONTINUOUS
10
90.25
20
-114.565
11
101.05
21
-114.565
0
LINE
8
BLACK
6
CONTINUOUS
10
101.05
20
-114.565
11
101.05
21
-123.965
0
LINE
8
BLACK
6
CONTINUOUS
10
148.843
20
-122.335
11
148.983
21
-122.376
0
LINE
8
BLACK
6
CONTINUOUS
10
148.983
20
-122.376
11
149.106
21
-122.452
0
LINE
8
BLACK
6
CONTINUOUS
10
149.106
20
-122.452
11
149.204
21
-122.559
0
LINE
8
BLACK
6
CONTINUOUS
10
149.204
20
-122.559
11
149.27
21
-122.689
0
LINE
8
BLACK
6
CONTINUOUS
10
149.27
20
-122.689
11
149.299
21
-122.831
0
LINE
8
BLACK
6
CONTINUOUS
10
149.299
20
-122.831
11
149.288
21
-122.976
0
LINE
8
BLACK
6
CONTINUOUS
10
149.288
20
-122.976
11
149.239
21
-123.113
0
LINE
8
BLACK
6
CONTINUOUS
10
149.239
20
-123.113
11
149.155
21
-123.231
0
LINE
8
BLACK
6
CONTINUOUS
10
149.155
20
-123.231
11
149.042
21
-123.322
0
LINE
8
BLACK
6
CONTINUOUS
10
149.042
20
-123.322
11
148.909
21
-123.38
0
LINE
8
BLACK
6
CONTINUOUS
10
148.909
20
-123.38
11
148.765
21
-123.4
0
LINE
8
BLACK
6
CONTINUOUS
10
148.765
20
-123.4
11
148.035
21
-123.4
0
LINE
8
BLACK
6
CONTINUOUS
10
148.035
20
-123.4
11
147.957
21
-123.394
0
LINE
8
BLACK
6
CONTINUOUS
10
147.957
20
-123.394
11
147.817
21
-123.353
0
LINE
8
BLACK
6
CONTINUOUS
10
147.817
20
-123.353
11
147.694
21
-123.277
0
LINE
8
BLACK
6
CONTINUOUS
10
147.694
20
-123.277
11
147.596
21
-123.17
0
LINE
8
BLACK
6
CONTINUOUS
10
147.596
20
-123.17
11
147.53
21
-123.041
0
LINE
8
BLACK
6
CONTINUOUS
10
147.53
20
-123.041
11
147.501
21
-122.898
0
LINE
8
BLACK
6
CONTINUOUS
10
147.501
20
-122.898
11
147.512
21
-122.753
0
LINE
8
BLACK
6
CONTINUOUS
10
147.512
20
-122.753
11
147.561
21
-122.617
0
LINE
8
BLACK
6
CONTINUOUS
10
147.561
20
-122.617
11
147.645
21
-122.498
0
LINE
8
BLACK
6
CONTINUOUS
10
147.645
20
-122.498
11
147.758
21
-122.407
0
LINE
8
BLACK
6
CONTINUOUS
10
147.758
20
-122.407
11
147.891
21
-122.349
0
LINE
8
BLACK
6
CONTINUOUS
10
147.891
20
-122.349
11
148.035
21
-122.33
0
LINE
8
BLACK
6
CONTINUOUS
10
148.035
20
-122.33
11
148.765
21
-122.33
0
LINE
8
BLACK
6
CONTINUOUS
10
148.765
20
-122.33
11
148.843
21
-122.335
0
LINE
8
BLACK
6
CONTINUOUS
10
117.396
20
-122.339
11
117.477
21
-122.393
0
LINE
8
BLACK
6
CONTINUOUS
10
117.477
20
-122.393
11
117.531
21
-122.474
0
LINE
8
BLACK
6
CONTINUOUS
10
117.531
20
-122.474
11
117.55
21
-122.57
0
LINE
8
BLACK
6
CONTINUOUS
10
117.55
20
-122.57
11
117.55
21
-123.095
0
LINE
8
BLACK
6
CONTINUOUS
10
117.55
20
-123.095
11
117.531
21
-123.191
0
LINE
8
BLACK
6
CONTINUOUS
10
117.531
20
-123.191
11
117.477
21
-123.272
0
LINE
8
BLACK
6
CONTINUOUS
10
117.477
20
-123.272
11
117.396
21
-123.326
0
LINE
8
BLACK
6
CONTINUOUS
10
117.396
20
-123.326
11
117.3
21
-123.345
0
LINE
8
BLACK
6
CONTINUOUS
10
117.3
20
-123.345
11
116.4
21
-123.345
0
LINE
8
BLACK
6
CONTINUOUS
10
116.4
20
-123.345
11
116.304
21
-123.326
0
LINE
8
BLACK
6
CONTINUOUS
10
116.304
20
-123.326
11
116.223
21
-123.272
0
LINE
8
BLACK
6
CONTINUOUS
10
116.223
20
-123.272
11
116.169
21
-123.191
0
LINE
8
BLACK
6
CONTINUOUS
10
116.169
20
-123.191
11
116.15
21
-123.095
0
LINE
8
BLACK
6
CONTINUOUS
10
116.15
20
-123.095
11
116.15
21
-122.57
0
LINE
8
BLACK
6
CONTINUOUS
10
116.15
20
-122.57
11
116.169
21
-122.474
0
LINE
8
BLACK
6
CONTINUOUS
10
116.169
20
-122.474
11
116.223
21
-122.393
0
LINE
8
BLACK
6
CONTINUOUS
10
116.223
20
-122.393
11
116.304
21
-122.339
0
LINE
8
BLACK
6
CONTINUOUS
10
116.304
20
-122.339
11
116.4
21
-122.32
0
LINE
8
BLACK
6
CONTINUOUS
10
116.4
20
-122.32
11
117.3
21
-122.32
0
LINE
8
BLACK
6
CONTINUOUS
10
117.3
20
-122.32
11
117.396
21
-122.339
0
LINE
8
BLACK
6
CONTINUOUS
10
111.863
20
-121.141
11
112.031
21
-121.201
0
LINE
8
BLACK
6
CONTINUOUS
10
112.031
20
-121.201
11
112.181
21
-121.297
0
LINE
8
BLACK
6
CONTINUOUS
10
112.181
20
-121.297
11
112.307
21
-121.423
0
LINE
8
BLACK
6
CONTINUOUS
10
112.307
20
-121.423
11
112.401
21
-121.574
0
LINE
8
BLACK
6
CONTINUOUS
10
112.401
20
-121.574
11
112.46
21
-121.743
0
LINE
8
BLACK
6
CONTINUOUS
10
112.46
20
-121.743
11
112.48
21
-121.92
0
LINE
8
BLACK
6
CONTINUOUS
10
112.48
20
-121.92
11
112.48
21
-121.942
0
LINE
8
BLACK
6
CONTINUOUS
10
112.48
20
-121.942
11
112.455
21
-122.119
0
LINE
8
BLACK
6
CONTINUOUS
10
112.455
20
-122.119
11
112.392
21
-122.286
0
LINE
8
BLACK
6
CONTINUOUS
10
112.392
20
-122.286
11
112.293
21
-122.434
0
LINE
8
BLACK
6
CONTINUOUS
10
112.293
20
-122.434
11
112.164
21
-122.557
0
LINE
8
BLACK
6
CONTINUOUS
10
112.164
20
-122.557
11
112.01
21
-122.649
0
LINE
8
BLACK
6
CONTINUOUS
10
112.01
20
-122.649
11
111.841
21
-122.704
0
LINE
8
BLACK
6
CONTINUOUS
10
111.841
20
-122.704
11
111.663
21
-122.72
0
LINE
8
BLACK
6
CONTINUOUS
10
111.663
20
-122.72
11
111.486
21
-122.696
0
LINE
8
BLACK
6
CONTINUOUS
10
111.486
20
-122.696
11
111.319
21
-122.634
0
LINE
8
BLACK
6
CONTINUOUS
10
111.319
20
-122.634
11
111.17
21
-122.536
0
LINE
8
BLACK
6
CONTINUOUS
10
111.17
20
-122.536
11
111.046
21
-122.408
0
LINE
8
BLACK
6
CONTINUOUS
10
111.046
20
-122.408
11
110.954
21
-122.256
0
LINE
8
BLACK
6
CONTINUOUS
10
110.954
20
-122.256
11
110.897
21
-122.086
0
LINE
8
BLACK
6
CONTINUOUS
10
110.897
20
-122.086
11
110.88
21
-121.909
0
LINE
8
BLACK
6
CONTINUOUS
10
110.88
20
-121.909
11
110.902
21
-121.732
0
LINE
8
BLACK
6
CONTINUOUS
10
110.902
20
-121.732
11
110.963
21
-121.564
0
LINE
8
BLACK
6
CONTINUOUS
10
110.963
20
-121.564
11
111.06
21
-121.414
0
LINE
8
BLACK
6
CONTINUOUS
10
111.06
20
-121.414
11
111.187
21
-121.29
0
LINE
8
BLACK
6
CONTINUOUS
10
111.187
20
-121.29
11
111.339
21
-121.196
0
LINE
8
BLACK
6
CONTINUOUS
10
111.339
20
-121.196
11
111.508
21
-121.139
0
LINE
8
BLACK
6
CONTINUOUS
10
111.508
20
-121.139
11
111.686
21
-121.12
0
LINE
8
BLACK
6
CONTINUOUS
10
111.686
20
-121.12
11
111.863
21
-121.141
0
LINE
8
BLACK
6
CONTINUOUS
10
106.863
20
-121.141
11
107.031
21
-121.201
0
LINE
8
BLACK
6
CONTINUOUS
10
107.031
20
-121.201
11
107.181
21
-121.297
0
LINE
8
BLACK
6
CONTINUOUS
10
107.181
20
-121.297
11
107.307
21
-121.423
0
LINE
8
BLACK
6
CONTINUOUS
10
107.307
20
-121.423
11
107.401
21
-121.574
0
LINE
8
BLACK
6
CONTINUOUS
10
107.401
20
-121.574
11
107.46
21
-121.743
0
LINE
8
BLACK
6
CONTINUOUS
10
107.46
20
-121.743
11
107.48
21
-121.92
0
LINE
8
BLACK
6
CONTINUOUS
10
107.48
20
-121.92
11
107.48
21
-121.942
0
LINE
8
BLACK
6
CONTINUOUS
10
107.48
20
-121.942
11
107.455
21
-122.119
0
LINE
8
BLACK
6
CONTINUOUS
10
107.455
20
-122.119
11
107.392
21
-122.286
0
LINE
8
BLACK
6
CONTINUOUS
10
107.392
20
-122.286
11
107.293
21
-122.434
0
LINE
8
BLACK
6
CONTINUOUS
10
107.293
20
-122.434
11
107.164
21
-122.557
0
LINE
8
BLACK
6
CONTINUOUS
10
107.164
20
-122.557
11
107.01
21
-122.649
0
LINE
8
BLACK
6
CONTINUOUS
10
107.01
20
-122.649
11
106.841
21
-122.704
0
LINE
8
BLACK
6
CONTINUOUS
10
106.841
20
-122.704
11
106.663
21
-122.72
0
LINE
8
BLACK
6
CONTINUOUS
10
106.663
20
-122.72
11
106.486
21
-122.696
0
LINE
8
BLACK
6
CONTINUOUS
10
106.486
20
-122.696
11
106.319
21
-122.634
0
LINE
8
BLACK
6
CONTINUOUS
10
106.319
20
-122.634
11
106.17
21
-122.536
0
LINE
8
BLACK
6
CONTINUOUS
10
106.17
20
-122.536
11
106.046
21
-122.408
0
LINE
8
BLACK
6
CONTINUOUS
10
106.046
20
-122.408
11
105.954
21
-122.256
0
LINE
8
BLACK
6
CONTINUOUS
10
105.954
20
-122.256
11
105.897
21
-122.086
0
LINE
8
BLACK
6
CONTINUOUS
10
105.897
20
-122.086
11
105.88
21
-121.909
0
LINE
8
BLACK
6
CONTINUOUS
10
105.88
20
-121.909
11
105.902
21
-121.732
0
LINE
8
BLACK
6
CONTINUOUS
10
105.902
20
-121.732
11
105.963
21
-121.564
0
LINE
8
BLACK
6
CONTINUOUS
10
105.963
20
-121.564
11
106.06
21
-121.414
0
LINE
8
BLACK
6
CONTINUOUS
10
106.06
20
-121.414
11
106.187
21
-121.29
0
LINE
8
BLACK
6
CONTINUOUS
10
106.187
20
-121.29
11
106.339
21
-121.196
0
LINE
8
BLACK
6
CONTINUOUS
10
106.339
20
-121.196
11
106.508
21
-121.139
0
LINE
8
BLACK
6
CONTINUOUS
10
106.508
20
-121.139
11
106.686
21
-121.12
0
LINE
8
BLACK
6
CONTINUOUS
10
106.686
20
-121.12
11
106.863
21
-121.141
0
LINE
8
BLACK
6
CONTINUOUS
10
141.104
20
-120.291
11
141.301
21
-120.332
0
LINE
8
BLACK
6
CONTINUOUS
10
141.301
20
-120.332
11
141.487
21
-120.413
0
LINE
8
BLACK
6
CONTINUOUS
10
141.487
20
-120.413
11
141.652
21
-120.528
0
LINE
8
BLACK
6
CONTINUOUS
10
141.652
20
-120.528
11
141.791
21
-120.675
0
LINE
8
BLACK
6
CONTINUOUS
10
141.791
20
-120.675
11
141.898
21
-120.847
0
LINE
8
BLACK
6
CONTINUOUS
10
141.898
20
-120.847
11
141.967
21
-121.036
0
LINE
8
BLACK
6
CONTINUOUS
10
141.967
20
-121.036
11
141.998
21
-121.236
0
LINE
8
BLACK
6
CONTINUOUS
10
141.998
20
-121.236
11
141.987
21
-121.438
0
LINE
8
BLACK
6
CONTINUOUS
10
141.987
20
-121.438
11
141.936
21
-121.633
0
LINE
8
BLACK
6
CONTINUOUS
10
141.936
20
-121.633
11
141.847
21
-121.815
0
LINE
8
BLACK
6
CONTINUOUS
10
141.847
20
-121.815
11
141.723
21
-121.974
0
LINE
8
BLACK
6
CONTINUOUS
10
141.723
20
-121.974
11
141.57
21
-122.106
0
LINE
8
BLACK
6
CONTINUOUS
10
141.57
20
-122.106
11
141.393
21
-122.204
0
LINE
8
BLACK
6
CONTINUOUS
10
141.393
20
-122.204
11
141.2
21
-122.264
0
LINE
8
BLACK
6
CONTINUOUS
10
141.2
20
-122.264
11
140.999
21
-122.284
0
LINE
8
BLACK
6
CONTINUOUS
10
140.999
20
-122.284
11
140.25
21
-122.284
0
LINE
8
BLACK
6
CONTINUOUS
10
140.25
20
-122.284
11
140.145
21
-122.279
0
LINE
8
BLACK
6
CONTINUOUS
10
140.145
20
-122.279
11
139.948
21
-122.238
0
LINE
8
BLACK
6
CONTINUOUS
10
139.948
20
-122.238
11
139.762
21
-122.157
0
LINE
8
BLACK
6
CONTINUOUS
10
139.762
20
-122.157
11
139.597
21
-122.042
0
LINE
8
BLACK
6
CONTINUOUS
10
139.597
20
-122.042
11
139.458
21
-121.895
0
LINE
8
BLACK
6
CONTINUOUS
10
139.458
20
-121.895
11
139.352
21
-121.723
0
LINE
8
BLACK
6
CONTINUOUS
10
139.352
20
-121.723
11
139.282
21
-121.534
0
LINE
8
BLACK
6
CONTINUOUS
10
139.282
20
-121.534
11
139.252
21
-121.334
0
LINE
8
BLACK
6
CONTINUOUS
10
139.252
20
-121.334
11
139.262
21
-121.132
0
LINE
8
BLACK
6
CONTINUOUS
10
139.262
20
-121.132
11
139.313
21
-120.937
0
LINE
8
BLACK
6
CONTINUOUS
10
139.313
20
-120.937
11
139.402
21
-120.755
0
LINE
8
BLACK
6
CONTINUOUS
10
139.402
20
-120.755
11
139.526
21
-120.596
0
LINE
8
BLACK
6
CONTINUOUS
10
139.526
20
-120.596
11
139.679
21
-120.464
0
LINE
8
BLACK
6
CONTINUOUS
10
139.679
20
-120.464
11
139.856
21
-120.366
0
LINE
8
BLACK
6
CONTINUOUS
10
139.856
20
-120.366
11
140.049
21
-120.306
0
LINE
8
BLACK
6
CONTINUOUS
10
140.049
20
-120.306
11
140.25
21
-120.286
0
LINE
8
BLACK
6
CONTINUOUS
10
140.25
20
-120.286
11
140.999
21
-120.286
0
LINE
8
BLACK
6
CONTINUOUS
10
140.999
20
-120.286
11
141.104
21
-120.291
0
LINE
8
BLACK
6
CONTINUOUS
10
124.939
20
-120.291
11
125.137
21
-120.332
0
LINE
8
BLACK
6
CONTINUOUS
10
125.137
20
-120.332
11
125.322
21
-120.413
0
LINE
8
BLACK
6
CONTINUOUS
10
125.322
20
-120.413
11
125.488
21
-120.528
0
LINE
8
BLACK
6
CONTINUOUS
10
125.488
20
-120.528
11
125.627
21
-120.675
0
LINE
8
BLACK
6
CONTINUOUS
10
125.627
20
-120.675
11
125.733
21
-120.847
0
LINE
8
BLACK
6
CONTINUOUS
10
125.733
20
-120.847
11
125.803
21
-121.036
0
LINE
8
BLACK
6
CONTINUOUS
10
125.803
20
-121.036
11
125.833
21
-121.236
0
LINE
8
BLACK
6
CONTINUOUS
10
125.833
20
-121.236
11
125.822
21
-121.438
0
LINE
8
BLACK
6
CONTINUOUS
10
125.822
20
-121.438
11
125.771
21
-121.633
0
LINE
8
BLACK
6
CONTINUOUS
10
125.771
20
-121.633
11
125.682
21
-121.815
0
LINE
8
BLACK
6
CONTINUOUS
10
125.682
20
-121.815
11
125.558
21
-121.974
0
LINE
8
BLACK
6
CONTINUOUS
10
125.558
20
-121.974
11
125.405
21
-122.106
0
LINE
8
BLACK
6
CONTINUOUS
10
125.405
20
-122.106
11
125.228
21
-122.204
0
LINE
8
BLACK
6
CONTINUOUS
10
125.228
20
-122.204
11
125.036
21
-122.264
0
LINE
8
BLACK
6
CONTINUOUS
10
125.036
20
-122.264
11
124.835
21
-122.284
0
LINE
8
BLACK
6
CONTINUOUS
10
124.835
20
-122.284
11
124.085
21
-122.284
0
LINE
8
BLACK
6
CONTINUOUS
10
124.085
20
-122.284
11
123.981
21
-122.279
0
LINE
8
BLACK
6
CONTINUOUS
10
123.981
20
-122.279
11
123.783
21
-122.238
0
LINE
8
BLACK
6
CONTINUOUS
10
123.783
20
-122.238
11
123.598
21
-122.157
0
LINE
8
BLACK
6
CONTINUOUS
10
123.598
20
-122.157
11
123.432
21
-122.042
0
LINE
8
BLACK
6
CONTINUOUS
10
123.432
20
-122.042
11
123.293
21
-121.895
0
LINE
8
BLACK
6
CONTINUOUS
10
123.293
20
-121.895
11
123.187
21
-121.723
0
LINE
8
BLACK
6
CONTINUOUS
10
123.187
20
-121.723
11
123.117
21
-121.534
0
LINE
8
BLACK
6
CONTINUOUS
10
123.117
20
-121.534
11
123.087
21
-121.334
0
LINE
8
BLACK
6
CONTINUOUS
10
123.087
20
-121.334
11
123.098
21
-121.132
0
LINE
8
BLACK
6
CONTINUOUS
10
123.098
20
-121.132
11
123.149
21
-120.937
0
LINE
8
BLACK
6
CONTINUOUS
10
123.149
20
-120.937
11
123.238
21
-120.755
0
LINE
8
BLACK
6
CONTINUOUS
10
123.238
20
-120.755
11
123.362
21
-120.596
0
LINE
8
BLACK
6
CONTINUOUS
10
123.362
20
-120.596
11
123.515
21
-120.464
0
LINE
8
BLACK
6
CONTINUOUS
10
123.515
20
-120.464
11
123.692
21
-120.366
0
LINE
8
BLACK
6
CONTINUOUS
10
123.692
20
-120.366
11
123.884
21
-120.306
0
LINE
8
BLACK
6
CONTINUOUS
10
123.884
20
-120.306
11
124.085
21
-120.286
0
LINE
8
BLACK
6
CONTINUOUS
10
124.085
20
-120.286
11
124.835
21
-120.286
0
LINE
8
BLACK
6
CONTINUOUS
10
124.835
20
-120.286
11
124.939
21
-120.291
0
LINE
8
BLACK
6
CONTINUOUS
10
148.843
20
-121.065
11
148.983
21
-121.106
0
LINE
8
BLACK
6
CONTINUOUS
10
148.983
20
-121.106
11
149.106
21
-121.182
0
LINE
8
BLACK
6
CONTINUOUS
10
149.106
20
-121.182
11
149.204
21
-121.289
0
LINE
8
BLACK
6
CONTINUOUS
10
149.204
20
-121.289
11
149.27
21
-121.419
0
LINE
8
BLACK
6
CONTINUOUS
10
149.27
20
-121.419
11
149.299
21
-121.561
0
LINE
8
BLACK
6
CONTINUOUS
10
149.299
20
-121.561
11
149.288
21
-121.706
0
LINE
8
BLACK
6
CONTINUOUS
10
149.288
20
-121.706
11
149.239
21
-121.843
0
LINE
8
BLACK
6
CONTINUOUS
10
149.239
20
-121.843
11
149.155
21
-121.961
0
LINE
8
BLACK
6
CONTINUOUS
10
149.155
20
-121.961
11
149.042
21
-122.052
0
LINE
8
BLACK
6
CONTINUOUS
10
149.042
20
-122.052
11
148.909
21
-122.11
0
LINE
8
BLACK
6
CONTINUOUS
10
148.909
20
-122.11
11
148.765
21
-122.13
0
LINE
8
BLACK
6
CONTINUOUS
10
148.765
20
-122.13
11
148.035
21
-122.13
0
LINE
8
BLACK
6
CONTINUOUS
10
148.035
20
-122.13
11
147.957
21
-122.124
0
LINE
8
BLACK
6
CONTINUOUS
10
147.957
20
-122.124
11
147.817
21
-122.083
0
LINE
8
BLACK
6
CONTINUOUS
10
147.817
20
-122.083
11
147.694
21
-122.007
0
LINE
8
BLACK
6
CONTINUOUS
10
147.694
20
-122.007
11
147.596
21
-121.9
0
LINE
8
BLACK
6
CONTINUOUS
10
147.596
20
-121.9
11
147.53
21
-121.771
0
LINE
8
BLACK
6
CONTINUOUS
10
147.53
20
-121.771
11
147.501
21
-121.628
0
LINE
8
BLACK
6
CONTINUOUS
10
147.501
20
-121.628
11
147.512
21
-121.483
0
LINE
8
BLACK
6
CONTINUOUS
10
147.512
20
-121.483
11
147.561
21
-121.347
0
LINE
8
BLACK
6
CONTINUOUS
10
147.561
20
-121.347
11
147.645
21
-121.228
0
LINE
8
BLACK
6
CONTINUOUS
10
147.645
20
-121.228
11
147.758
21
-121.137
0
LINE
8
BLACK
6
CONTINUOUS
10
147.758
20
-121.137
11
147.891
21
-121.079
0
LINE
8
BLACK
6
CONTINUOUS
10
147.891
20
-121.079
11
148.035
21
-121.06
0
LINE
8
BLACK
6
CONTINUOUS
10
148.035
20
-121.06
11
148.765
21
-121.06
0
LINE
8
BLACK
6
CONTINUOUS
10
148.765
20
-121.06
11
148.843
21
-121.065
0
LINE
8
BLACK
6
CONTINUOUS
10
117.396
20
-120.514
11
117.477
21
-120.568
0
LINE
8
BLACK
6
CONTINUOUS
10
117.477
20
-120.568
11
117.531
21
-120.649
0
LINE
8
BLACK
6
CONTINUOUS
10
117.531
20
-120.649
11
117.55
21
-120.745
0
LINE
8
BLACK
6
CONTINUOUS
10
117.55
20
-120.745
11
117.55
21
-121.27
0
LINE
8
BLACK
6
CONTINUOUS
10
117.55
20
-121.27
11
117.531
21
-121.366
0
LINE
8
BLACK
6
CONTINUOUS
10
117.531
20
-121.366
11
117.477
21
-121.447
0
LINE
8
BLACK
6
CONTINUOUS
10
117.477
20
-121.447
11
117.396
21
-121.501
0
LINE
8
BLACK
6
CONTINUOUS
10
117.396
20
-121.501
11
117.3
21
-121.52
0
LINE
8
BLACK
6
CONTINUOUS
10
117.3
20
-121.52
11
116.4
21
-121.52
0
LINE
8
BLACK
6
CONTINUOUS
10
116.4
20
-121.52
11
116.304
21
-121.501
0
LINE
8
BLACK
6
CONTINUOUS
10
116.304
20
-121.501
11
116.223
21
-121.447
0
LINE
8
BLACK
6
CONTINUOUS
10
116.223
20
-121.447
11
116.169
21
-121.366
0
LINE
8
BLACK
6
CONTINUOUS
10
116.169
20
-121.366
11
116.15
21
-121.27
0
LINE
8
BLACK
6
CONTINUOUS
10
116.15
20
-121.27
11
116.15
21
-120.745
0
LINE
8
BLACK
6
CONTINUOUS
10
116.15
20
-120.745
11
116.169
21
-120.649
0
LINE
8
BLACK
6
CONTINUOUS
10
116.169
20
-120.649
11
116.223
21
-120.568
0
LINE
8
BLACK
6
CONTINUOUS
10
116.223
20
-120.568
11
116.304
21
-120.514
0
LINE
8
BLACK
6
CONTINUOUS
10
116.304
20
-120.514
11
116.4
21
-120.495
0
LINE
8
BLACK
6
CONTINUOUS
10
116.4
20
-120.495
11
117.3
21
-120.495
0
LINE
8
BLACK
6
CONTINUOUS
10
117.3
20
-120.495
11
117.396
21
-120.514
0
LINE
8
BLACK
6
CONTINUOUS
10
141.104
20
-117.751
11
141.301
21
-117.792
0
LINE
8
BLACK
6
CONTINUOUS
10
141.301
20
-117.792
11
141.487
21
-117.873
0
LINE
8
BLACK
6
CONTINUOUS
10
141.487
20
-117.873
11
141.652
21
-117.988
0
LINE
8
BLACK
6
CONTINUOUS
10
141.652
20
-117.988
11
141.791
21
-118.135
0
LINE
8
BLACK
6
CONTINUOUS
10
141.791
20
-118.135
11
141.898
21
-118.307
0
LINE
8
BLACK
6
CONTINUOUS
10
141.898
20
-118.307
11
141.967
21
-118.496
0
LINE
8
BLACK
6
CONTINUOUS
10
141.967
20
-118.496
11
141.998
21
-118.696
0
LINE
8
BLACK
6
CONTINUOUS
10
141.998
20
-118.696
11
141.987
21
-118.898
0
LINE
8
BLACK
6
CONTINUOUS
10
141.987
20
-118.898
11
141.936
21
-119.093
0
LINE
8
BLACK
6
CONTINUOUS
10
141.936
20
-119.093
11
141.847
21
-119.275
0
LINE
8
BLACK
6
CONTINUOUS
10
141.847
20
-119.275
11
141.723
21
-119.434
0
LINE
8
BLACK
6
CONTINUOUS
10
141.723
20
-119.434
11
141.57
21
-119.566
0
LINE
8
BLACK
6
CONTINUOUS
10
141.57
20
-119.566
11
141.393
21
-119.664
0
LINE
8
BLACK
6
CONTINUOUS
10
141.393
20
-119.664
11
141.2
21
-119.724
0
LINE
8
BLACK
6
CONTINUOUS
10
141.2
20
-119.724
11
140.999
21
-119.744
0
LINE
8
BLACK
6
CONTINUOUS
10
140.999
20
-119.744
11
140.25
21
-119.744
0
LINE
8
BLACK
6
CONTINUOUS
10
140.25
20
-119.744
11
140.145
21
-119.739
0
LINE
8
BLACK
6
CONTINUOUS
10
140.145
20
-119.739
11
139.948
21
-119.698
0
LINE
8
BLACK
6
CONTINUOUS
10
139.948
20
-119.698
11
139.762
21
-119.617
0
LINE
8
BLACK
6
CONTINUOUS
10
139.762
20
-119.617
11
139.597
21
-119.502
0
LINE
8
BLACK
6
CONTINUOUS
10
139.597
20
-119.502
11
139.458
21
-119.355
0
LINE
8
BLACK
6
CONTINUOUS
10
139.458
20
-119.355
11
139.352
21
-119.183
0
LINE
8
BLACK
6
CONTINUOUS
10
139.352
20
-119.183
11
139.282
21
-118.994
0
LINE
8
BLACK
6
CONTINUOUS
10
139.282
20
-118.994
11
139.252
21
-118.794
0
LINE
8
BLACK
6
CONTINUOUS
10
139.252
20
-118.794
11
139.262
21
-118.592
0
LINE
8
BLACK
6
CONTINUOUS
10
139.262
20
-118.592
11
139.313
21
-118.397
0
LINE
8
BLACK
6
CONTINUOUS
10
139.313
20
-118.397
11
139.402
21
-118.215
0
LINE
8
BLACK
6
CONTINUOUS
10
139.402
20
-118.215
11
139.526
21
-118.056
0
LINE
8
BLACK
6
CONTINUOUS
10
139.526
20
-118.056
11
139.679
21
-117.924
0
LINE
8
BLACK
6
CONTINUOUS
10
139.679
20
-117.924
11
139.856
21
-117.826
0
LINE
8
BLACK
6
CONTINUOUS
10
139.856
20
-117.826
11
140.049
21
-117.766
0
LINE
8
BLACK
6
CONTINUOUS
10
140.049
20
-117.766
11
140.25
21
-117.746
0
LINE
8
BLACK
6
CONTINUOUS
10
140.25
20
-117.746
11
140.999
21
-117.746
0
LINE
8
BLACK
6
CONTINUOUS
10
140.999
20
-117.746
11
141.104
21
-117.751
0
LINE
8
BLACK
6
CONTINUOUS
10
124.939
20
-117.751
11
125.137
21
-117.792
0
LINE
8
BLACK
6
CONTINUOUS
10
125.137
20
-117.792
11
125.322
21
-117.873
0
LINE
8
BLACK
6
CONTINUOUS
10
125.322
20
-117.873
11
125.488
21
-117.988
0
LINE
8
BLACK
6
CONTINUOUS
10
125.488
20
-117.988
11
125.627
21
-118.135
0
LINE
8
BLACK
6
CONTINUOUS
10
125.627
20
-118.135
11
125.733
21
-118.307
0
LINE
8
BLACK
6
CONTINUOUS
10
125.733
20
-118.307
11
125.803
21
-118.496
0
LINE
8
BLACK
6
CONTINUOUS
10
125.803
20
-118.496
11
125.833
21
-118.696
0
LINE
8
BLACK
6
CONTINUOUS
10
125.833
20
-118.696
11
125.822
21
-118.898
0
LINE
8
BLACK
6
CONTINUOUS
10
125.822
20
-118.898
11
125.771
21
-119.093
0
LINE
8
BLACK
6
CONTINUOUS
10
125.771
20
-119.093
11
125.682
21
-119.275
0
LINE
8
BLACK
6
CONTINUOUS
10
125.682
20
-119.275
11
125.558
21
-119.434
0
LINE
8
BLACK
6
CONTINUOUS
10
125.558
20
-119.434
11
125.405
21
-119.566
0
LINE
8
BLACK
6
CONTINUOUS
10
125.405
20
-119.566
11
125.228
21
-119.664
0
LINE
8
BLACK
6
CONTINUOUS
10
125.228
20
-119.664
11
125.036
21
-119.724
0
LINE
8
BLACK
6
CONTINUOUS
10
125.036
20
-119.724
11
124.835
21
-119.744
0
LINE
8
BLACK
6
CONTINUOUS
10
124.835
20
-119.744
11
124.085
21
-119.744
0
LINE
8
BLACK
6
CONTINUOUS
10
124.085
20
-119.744
11
123.981
21
-119.739
0
LINE
8
BLACK
6
CONTINUOUS
10
123.981
20
-119.739
11
123.783
21
-119.698
0
LINE
8
BLACK
6
CONTINUOUS
10
123.783
20
-119.698
11
123.598
21
-119.617
0
LINE
8
BLACK
6
CONTINUOUS
10
123.598
20
-119.617
11
123.432
21
-119.502
0
LINE
8
BLACK
6
CONTINUOUS
10
123.432
20
-119.502
11
123.293
21
-119.355
0
LINE
8
BLACK
6
CONTINUOUS
10
123.293
20
-119.355
11
123.187
21
-119.183
0
LINE
8
BLACK
6
CONTINUOUS
10
123.187
20
-119.183
11
123.117
21
-118.994
0
LINE
8
BLACK
6
CONTINUOUS
10
123.117
20
-118.994
11
123.087
21
-118.794
0
LINE
8
BLACK
6
CONTINUOUS
10
123.087
20
-118.794
11
123.098
21
-118.592
0
LINE
8
BLACK
6
CONTINUOUS
10
123.098
20
-118.592
11
123.149
21
-118.397
0
LINE
8
BLACK
6
CONTINUOUS
10
123.149
20
-118.397
11
123.238
21
-118.215
0
LINE
8
BLACK
6
CONTINUOUS
10
123.238
20
-118.215
11
123.362
21
-118.056
0
LINE
8
BLACK
6
CONTINUOUS
10
123.362
20
-118.056
11
123.515
21
-117.924
0
LINE
8
BLACK
6
CONTINUOUS
10
123.515
20
-117.924
11
123.692
21
-117.826
0
LINE
8
BLACK
6
CONTINUOUS
10
123.692
20
-117.826
11
123.884
21
-117.766
0
LINE
8
BLACK
6
CONTINUOUS
10
123.884
20
-117.766
11
124.085
21
-117.746
0
LINE
8
BLACK
6
CONTINUOUS
10
124.085
20
-117.746
11
124.835
21
-117.746
0
LINE
8
BLACK
6
CONTINUOUS
10
124.835
20
-117.746
11
124.939
21
-117.751
0
LINE
8
BLACK
6
CONTINUOUS
10
141.104
20
-115.211
11
141.301
21
-115.252
0
LINE
8
BLACK
6
CONTINUOUS
10
141.301
20
-115.252
11
141.487
21
-115.333
0
LINE
8
BLACK
6
CONTINUOUS
10
141.487
20
-115.333
11
141.652
21
-115.448
0
LINE
8
BLACK
6
CONTINUOUS
10
141.652
20
-115.448
11
141.791
21
-115.595
0
LINE
8
BLACK
6
CONTINUOUS
10
141.791
20
-115.595
11
141.898
21
-115.767
0
LINE
8
BLACK
6
CONTINUOUS
10
141.898
20
-115.767
11
141.967
21
-115.956
0
LINE
8
BLACK
6
CONTINUOUS
10
141.967
20
-115.956
11
141.998
21
-116.156
0
LINE
8
BLACK
6
CONTINUOUS
10
141.998
20
-116.156
11
141.987
21
-116.358
0
LINE
8
BLACK
6
CONTINUOUS
10
141.987
20
-116.358
11
141.936
21
-116.553
0
LINE
8
BLACK
6
CONTINUOUS
10
141.936
20
-116.553
11
141.847
21
-116.735
0
LINE
8
BLACK
6
CONTINUOUS
10
141.847
20
-116.735
11
141.723
21
-116.894
0
LINE
8
BLACK
6
CONTINUOUS
10
141.723
20
-116.894
11
141.57
21
-117.026
0
LINE
8
BLACK
6
CONTINUOUS
10
141.57
20
-117.026
11
141.393
21
-117.124
0
LINE
8
BLACK
6
CONTINUOUS
10
141.393
20
-117.124
11
141.2
21
-117.184
0
LINE
8
BLACK
6
CONTINUOUS
10
141.2
20
-117.184
11
140.999
21
-117.204
0
LINE
8
BLACK
6
CONTINUOUS
10
140.999
20
-117.204
11
140.25
21
-117.204
0
LINE
8
BLACK
6
CONTINUOUS
10
140.25
20
-117.204
11
140.145
21
-117.199
0
LINE
8
BLACK
6
CONTINUOUS
10
140.145
20
-117.199
11
139.948
21
-117.158
0
LINE
8
BLACK
6
CONTINUOUS
10
139.948
20
-117.158
11
139.762
21
-117.077
0
LINE
8
BLACK
6
CONTINUOUS
10
139.762
20
-117.077
11
139.597
21
-116.962
0
LINE
8
BLACK
6
CONTINUOUS
10
139.597
20
-116.962
11
139.458
21
-116.815
0
LINE
8
BLACK
6
CONTINUOUS
10
139.458
20
-116.815
11
139.352
21
-116.643
0
LINE
8
BLACK
6
CONTINUOUS
10
139.352
20
-116.643
11
139.282
21
-116.454
0
LINE
8
BLACK
6
CONTINUOUS
10
139.282
20
-116.454
11
139.252
21
-116.254
0
LINE
8
BLACK
6
CONTINUOUS
10
139.252
20
-116.254
11
139.262
21
-116.052
0
LINE
8
BLACK
6
CONTINUOUS
10
139.262
20
-116.052
11
139.313
21
-115.857
0
LINE
8
BLACK
6
CONTINUOUS
10
139.313
20
-115.857
11
139.402
21
-115.675
0
LINE
8
BLACK
6
CONTINUOUS
10
139.402
20
-115.675
11
139.526
21
-115.516
0
LINE
8
BLACK
6
CONTINUOUS
10
139.526
20
-115.516
11
139.679
21
-115.384
0
LINE
8
BLACK
6
CONTINUOUS
10
139.679
20
-115.384
11
139.856
21
-115.286
0
LINE
8
BLACK
6
CONTINUOUS
10
139.856
20
-115.286
11
140.049
21
-115.226
0
LINE
8
BLACK
6
CONTINUOUS
10
140.049
20
-115.226
11
140.25
21
-115.206
0
LINE
8
BLACK
6
CONTINUOUS
10
140.25
20
-115.206
11
140.999
21
-115.206
0
LINE
8
BLACK
6
CONTINUOUS
10
140.999
20
-115.206
11
141.104
21
-115.211
0
LINE
8
BLACK
6
CONTINUOUS
10
124.939
20
-115.211
11
125.137
21
-115.252
0
LINE
8
BLACK
6
CONTINUOUS
10
125.137
20
-115.252
11
125.322
21
-115.333
0
LINE
8
BLACK
6
CONTINUOUS
10
125.322
20
-115.333
11
125.488
21
-115.448
0
LINE
8
BLACK
6
CONTINUOUS
10
125.488
20
-115.448
11
125.627
21
-115.595
0
LINE
8
BLACK
6
CONTINUOUS
10
125.627
20
-115.595
11
125.733
21
-115.767
0
LINE
8
BLACK
6
CONTINUOUS
10
125.733
20
-115.767
11
125.803
21
-115.956
0
LINE
8
BLACK
6
CONTINUOUS
10
125.803
20
-115.956
11
125.833
21
-116.156
0
LINE
8
BLACK
6
CONTINUOUS
10
125.833
20
-116.156
11
125.822
21
-116.358
0
LINE
8
BLACK
6
CONTINUOUS
10
125.822
20
-116.358
11
125.771
21
-116.553
0
LINE
8
BLACK
6
CONTINUOUS
10
125.771
20
-116.553
11
125.682
21
-116.735
0
LINE
8
BLACK
6
CONTINUOUS
10
125.682
20
-116.735
11
125.558
21
-116.894
0
LINE
8
BLACK
6
CONTINUOUS
10
125.558
20
-116.894
11
125.405
21
-117.026
0
LINE
8
BLACK
6
CONTINUOUS
10
125.405
20
-117.026
11
125.228
21
-117.124
0
LINE
8
BLACK
6
CONTINUOUS
10
125.228
20
-117.124
11
125.036
21
-117.184
0
LINE
8
BLACK
6
CONTINUOUS
10
125.036
20
-117.184
11
124.835
21
-117.204
0
LINE
8
BLACK
6
CONTINUOUS
10
124.835
20
-117.204
11
124.085
21
-117.204
0
LINE
8
BLACK
6
CONTINUOUS
10
124.085
20
-117.204
11
123.981
21
-117.199
0
LINE
8
BLACK
6
CONTINUOUS
10
123.981
20
-117.199
11
123.783
21
-117.158
0
LINE
8
BLACK
6
CONTINUOUS
10
123.783
20
-117.158
11
123.598
21
-117.077
0
LINE
8
BLACK
6
CONTINUOUS
10
123.598
20
-117.077
11
123.432
21
-116.962
0
LINE
8
BLACK
6
CONTINUOUS
10
123.432
20
-116.962
11
123.293
21
-116.815
0
LINE
8
BLACK
6
CONTINUOUS
10
123.293
20
-116.815
11
123.187
21
-116.643
0
LINE
8
BLACK
6
CONTINUOUS
10
123.187
20
-116.643
11
123.117
21
-116.454
0
LINE
8
BLACK
6
CONTINUOUS
10
123.117
20
-116.454
11
123.087
21
-116.254
0
LINE
8
BLACK
6
CONTINUOUS
10
123.087
20
-116.254
11
123.098
21
-116.052
0
LINE
8
BLACK
6
CONTINUOUS
10
123.098
20
-116.052
11
123.149
21
-115.857
0
LINE
8
BLACK
6
CONTINUOUS
10
123.149
20
-115.857
11
123.238
21
-115.675
0
LINE
8
BLACK
6
CONTINUOUS
10
123.238
20
-115.675
11
123.362
21
-115.516
0
LINE
8
BLACK
6
CONTINUOUS
10
123.362
20
-115.516
11
123.515
21
-115.384
0
LINE
8
BLACK
6
CONTINUOUS
10
123.515
20
-115.384
11
123.692
21
-115.286
0
LINE
8
BLACK
6
CONTINUOUS
10
123.692
20
-115.286
11
123.884
21
-115.226
0
LINE
8
BLACK
6
CONTINUOUS
10
123.884
20
-115.226
11
124.085
21
-115.206
0
LINE
8
BLACK
6
CONTINUOUS
10
124.085
20
-115.206
11
124.835
21
-115.206
0
LINE
8
BLACK
6
CONTINUOUS
10
124.835
20
-115.206
11
124.939
21
-115.211
0
LINE
8
BLACK
6
CONTINUOUS
10
150.225
20
-117.11
11
148.225
21
-117.11
0
LINE
8
BLACK
6
CONTINUOUS
10
148.225
20
-117.11
11
148.225
21
-115.61
0
LINE
8
BLACK
6
CONTINUOUS
10
148.225
20
-115.61
11
150.225
21
-115.61
0
LINE
8
BLACK
6
CONTINUOUS
10
150.225
20
-115.61
11
150.225
21
-117.11
0
LINE
8
BLACK
6
CONTINUOUS
10
118.375
20
-116.74
11
116.575
21
-116.74
0
LINE
8
BLACK
6
CONTINUOUS
10
116.575
20
-116.74
11
116.575
21
-115.67
0
LINE
8
BLACK
6
CONTINUOUS
10
116.575
20
-115.67
11
118.375
21
-115.67
0
LINE
8
BLACK
6
CONTINUOUS
10
118.375
20
-115.67
11
118.375
21
-116.74
0
LINE
8
BLACK
6
CONTINUOUS
10
134.014
20
-114.967
11
134.151
21
-115.024
0
LINE
8
BLACK
6
CONTINUOUS
10
134.151
20
-115.024
11
134.27
21
-115.115
0
LINE
8
BLACK
6
CONTINUOUS
10
134.27
20
-115.115
11
134.361
21
-115.233
0
LINE
8
BLACK
6
CONTINUOUS
10
134.361
20
-115.233
11
134.418
21
-115.371
0
LINE
8
BLACK
6
CONTINUOUS
10
134.418
20
-115.371
11
134.437
21
-115.519
0
LINE
8
BLACK
6
CONTINUOUS
10
134.437
20
-115.519
11
134.418
21
-115.667
0
LINE
8
BLACK
6
CONTINUOUS
10
134.418
20
-115.667
11
134.361
21
-115.804
0
LINE
8
BLACK
6
CONTINUOUS
10
134.361
20
-115.804
11
134.27
21
-115.923
0
LINE
8
BLACK
6
CONTINUOUS
10
134.27
20
-115.923
11
134.151
21
-116.014
0
LINE
8
BLACK
6
CONTINUOUS
10
134.151
20
-116.014
11
134.014
21
-116.071
0
LINE
8
BLACK
6
CONTINUOUS
10
134.014
20
-116.071
11
133.866
21
-116.09
0
LINE
8
BLACK
6
CONTINUOUS
10
133.866
20
-116.09
11
133.718
21
-116.071
0
LINE
8
BLACK
6
CONTINUOUS
10
133.718
20
-116.071
11
133.58
21
-116.014
0
LINE
8
BLACK
6
CONTINUOUS
10
133.58
20
-116.014
11
133.462
21
-115.923
0
LINE
8
BLACK
6
CONTINUOUS
10
133.462
20
-115.923
11
133.371
21
-115.804
0
LINE
8
BLACK
6
CONTINUOUS
10
133.371
20
-115.804
11
133.314
21
-115.667
0
LINE
8
BLACK
6
CONTINUOUS
10
133.314
20
-115.667
11
133.294
21
-115.519
0
LINE
8
BLACK
6
CONTINUOUS
10
133.294
20
-115.519
11
133.314
21
-115.371
0
LINE
8
BLACK
6
CONTINUOUS
10
133.314
20
-115.371
11
133.371
21
-115.233
0
LINE
8
BLACK
6
CONTINUOUS
10
133.371
20
-115.233
11
133.462
21
-115.115
0
LINE
8
BLACK
6
CONTINUOUS
10
133.462
20
-115.115
11
133.58
21
-115.024
0
LINE
8
BLACK
6
CONTINUOUS
10
133.58
20
-115.024
11
133.718
21
-114.967
0
LINE
8
BLACK
6
CONTINUOUS
10
133.718
20
-114.967
11
133.866
21
-114.947
0
LINE
8
BLACK
6
CONTINUOUS
10
133.866
20
-114.947
11
134.014
21
-114.967
0
LINE
8
BLACK
6
CONTINUOUS
10
131.474
20
-114.967
11
131.611
21
-115.024
0
LINE
8
BLACK
6
CONTINUOUS
10
131.611
20
-115.024
11
131.73
21
-115.115
0
LINE
8
BLACK
6
CONTINUOUS
10
131.73
20
-115.115
11
131.821
21
-115.233
0
LINE
8
BLACK
6
CONTINUOUS
10
131.821
20
-115.233
11
131.878
21
-115.371
0
LINE
8
BLACK
6
CONTINUOUS
10
131.878
20
-115.371
11
131.897
21
-115.519
0
LINE
8
BLACK
6
CONTINUOUS
10
131.897
20
-115.519
11
131.878
21
-115.667
0
LINE
8
BLACK
6
CONTINUOUS
10
131.878
20
-115.667
11
131.821
21
-115.804
0
LINE
8
BLACK
6
CONTINUOUS
10
131.821
20
-115.804
11
131.73
21
-115.923
0
LINE
8
BLACK
6
CONTINUOUS
10
131.73
20
-115.923
11
131.611
21
-116.014
0
LINE
8
BLACK
6
CONTINUOUS
10
131.611
20
-116.014
11
131.474
21
-116.071
0
LINE
8
BLACK
6
CONTINUOUS
10
131.474
20
-116.071
11
131.326
21
-116.09
0
LINE
8
BLACK
6
CONTINUOUS
10
131.326
20
-116.09
11
131.178
21
-116.071
0
LINE
8
BLACK
6
CONTINUOUS
10
131.178
20
-116.071
11
131.04
21
-116.014
0
LINE
8
BLACK
6
CONTINUOUS
10
131.04
20
-116.014
11
130.922
21
-115.923
0
LINE
8
BLACK
6
CONTINUOUS
10
130.922
20
-115.923
11
130.831
21
-115.804
0
LINE
8
BLACK
6
CONTINUOUS
10
130.831
20
-115.804
11
130.774
21
-115.667
0
LINE
8
BLACK
6
CONTINUOUS
10
130.774
20
-115.667
11
130.754
21
-115.519
0
LINE
8
BLACK
6
CONTINUOUS
10
130.754
20
-115.519
11
130.774
21
-115.371
0
LINE
8
BLACK
6
CONTINUOUS
10
130.774
20
-115.371
11
130.831
21
-115.233
0
LINE
8
BLACK
6
CONTINUOUS
10
130.831
20
-115.233
11
130.922
21
-115.115
0
LINE
8
BLACK
6
CONTINUOUS
10
130.922
20
-115.115
11
131.04
21
-115.024
0
LINE
8
BLACK
6
CONTINUOUS
10
131.04
20
-115.024
11
131.178
21
-114.967
0
LINE
8
BLACK
6
CONTINUOUS
10
131.178
20
-114.967
11
131.326
21
-114.947
0
LINE
8
BLACK
6
CONTINUOUS
10
131.326
20
-114.947
11
131.474
21
-114.967
0
LINE
8
BLACK
6
CONTINUOUS
10
156.525
20
-115.96
11
154.525
21
-115.96
0
LINE
8
BLACK
6
CONTINUOUS
10
154.525
20
-115.96
11
154.525
21
-112.16
0
LINE
8
BLACK
6
CONTINUOUS
10
154.525
20
-112.16
11
156.525
21
-112.16
0
LINE
8
BLACK
6
CONTINUOUS
10
156.525
20
-112.16
11
156.525
21
-115.96
0
LINE
8
BLACK
6
CONTINUOUS
10
117.918
20
-114.406
11
118.058
21
-114.446
0
LINE
8
BLACK
6
CONTINUOUS
10
118.058
20
-114.446
11
118.181
21
-114.523
0
LINE
8
BLACK
6
CONTINUOUS
10
118.181
20
-114.523
11
118.279
21
-114.63
0
LINE
8
BLACK
6
CONTINUOUS
10
118.279
20
-114.63
11
118.345
21
-114.759
0
LINE
8
BLACK
6
CONTINUOUS
10
118.345
20
-114.759
11
118.374
21
-114.901
0
LINE
8
BLACK
6
CONTINUOUS
10
118.374
20
-114.901
11
118.363
21
-115.046
0
LINE
8
BLACK
6
CONTINUOUS
10
118.363
20
-115.046
11
118.314
21
-115.183
0
LINE
8
BLACK
6
CONTINUOUS
10
118.314
20
-115.183
11
118.23
21
-115.301
0
LINE
8
BLACK
6
CONTINUOUS
10
118.23
20
-115.301
11
118.117
21
-115.393
0
LINE
8
BLACK
6
CONTINUOUS
10
118.117
20
-115.393
11
117.984
21
-115.45
0
LINE
8
BLACK
6
CONTINUOUS
10
117.984
20
-115.45
11
117.84
21
-115.47
0
LINE
8
BLACK
6
CONTINUOUS
10
117.84
20
-115.47
11
117.11
21
-115.47
0
LINE
8
BLACK
6
CONTINUOUS
10
117.11
20
-115.47
11
117.032
21
-115.464
0
LINE
8
BLACK
6
CONTINUOUS
10
117.032
20
-115.464
11
116.892
21
-115.424
0
LINE
8
BLACK
6
CONTINUOUS
10
116.892
20
-115.424
11
116.769
21
-115.347
0
LINE
8
BLACK
6
CONTINUOUS
10
116.769
20
-115.347
11
116.671
21
-115.24
0
LINE
8
BLACK
6
CONTINUOUS
10
116.671
20
-115.24
11
116.605
21
-115.111
0
LINE
8
BLACK
6
CONTINUOUS
10
116.605
20
-115.111
11
116.576
21
-114.969
0
LINE
8
BLACK
6
CONTINUOUS
10
116.576
20
-114.969
11
116.587
21
-114.824
0
LINE
8
BLACK
6
CONTINUOUS
10
116.587
20
-114.824
11
116.636
21
-114.687
0
LINE
8
BLACK
6
CONTINUOUS
10
116.636
20
-114.687
11
116.72
21
-114.569
0
LINE
8
BLACK
6
CONTINUOUS
10
116.72
20
-114.569
11
116.833
21
-114.477
0
LINE
8
BLACK
6
CONTINUOUS
10
116.833
20
-114.477
11
116.966
21
-114.42
0
LINE
8
BLACK
6
CONTINUOUS
10
116.966
20
-114.42
11
117.11
21
-114.4
0
LINE
8
BLACK
6
CONTINUOUS
10
117.11
20
-114.4
11
117.84
21
-114.4
0
LINE
8
BLACK
6
CONTINUOUS
10
117.84
20
-114.4
11
117.918
21
-114.406
0
LINE
8
BLACK
6
CONTINUOUS
10
150.225
20
-114.81
11
148.225
21
-114.81
0
LINE
8
BLACK
6
CONTINUOUS
10
148.225
20
-114.81
11
148.225
21
-113.31
0
LINE
8
BLACK
6
CONTINUOUS
10
148.225
20
-113.31
11
150.225
21
-113.31
0
LINE
8
BLACK
6
CONTINUOUS
10
150.225
20
-113.31
11
150.225
21
-114.81
0
LINE
8
BLACK
6
CONTINUOUS
10
124.939
20
-112.671
11
125.137
21
-112.712
0
LINE
8
BLACK
6
CONTINUOUS
10
125.137
20
-112.712
11
125.322
21
-112.793
0
LINE
8
BLACK
6
CONTINUOUS
10
125.322
20
-112.793
11
125.488
21
-112.908
0
LINE
8
BLACK
6
CONTINUOUS
10
125.488
20
-112.908
11
125.627
21
-113.055
0
LINE
8
BLACK
6
CONTINUOUS
10
125.627
20
-113.055
11
125.733
21
-113.227
0
LINE
8
BLACK
6
CONTINUOUS
10
125.733
20
-113.227
11
125.803
21
-113.416
0
LINE
8
BLACK
6
CONTINUOUS
10
125.803
20
-113.416
11
125.833
21
-113.616
0
LINE
8
BLACK
6
CONTINUOUS
10
125.833
20
-113.616
11
125.822
21
-113.818
0
LINE
8
BLACK
6
CONTINUOUS
10
125.822
20
-113.818
11
125.771
21
-114.013
0
LINE
8
BLACK
6
CONTINUOUS
10
125.771
20
-114.013
11
125.682
21
-114.195
0
LINE
8
BLACK
6
CONTINUOUS
10
125.682
20
-114.195
11
125.558
21
-114.354
0
LINE
8
BLACK
6
CONTINUOUS
10
125.558
20
-114.354
11
125.405
21
-114.486
0
LINE
8
BLACK
6
CONTINUOUS
10
125.405
20
-114.486
11
125.228
21
-114.584
0
LINE
8
BLACK
6
CONTINUOUS
10
125.228
20
-114.584
11
125.036
21
-114.644
0
LINE
8
BLACK
6
CONTINUOUS
10
125.036
20
-114.644
11
124.835
21
-114.664
0
LINE
8
BLACK
6
CONTINUOUS
10
124.835
20
-114.664
11
124.085
21
-114.664
0
LINE
8
BLACK
6
CONTINUOUS
10
124.085
20
-114.664
11
123.981
21
-114.659
0
LINE
8
BLACK
6
CONTINUOUS
10
123.981
20
-114.659
11
123.783
21
-114.618
0
LINE
8
BLACK
6
CONTINUOUS
10
123.783
20
-114.618
11
123.598
21
-114.537
0
LINE
8
BLACK
6
CONTINUOUS
10
123.598
20
-114.537
11
123.432
21
-114.422
0
LINE
8
BLACK
6
CONTINUOUS
10
123.432
20
-114.422
11
123.293
21
-114.275
0
LINE
8
BLACK
6
CONTINUOUS
10
123.293
20
-114.275
11
123.187
21
-114.103
0
LINE
8
BLACK
6
CONTINUOUS
10
123.187
20
-114.103
11
123.117
21
-113.914
0
LINE
8
BLACK
6
CONTINUOUS
10
123.117
20
-113.914
11
123.087
21
-113.714
0
LINE
8
BLACK
6
CONTINUOUS
10
123.087
20
-113.714
11
123.098
21
-113.512
0
LINE
8
BLACK
6
CONTINUOUS
10
123.098
20
-113.512
11
123.149
21
-113.317
0
LINE
8
BLACK
6
CONTINUOUS
10
123.149
20
-113.317
11
123.238
21
-113.135
0
LINE
8
BLACK
6
CONTINUOUS
10
123.238
20
-113.135
11
123.362
21
-112.976
0
LINE
8
BLACK
6
CONTINUOUS
10
123.362
20
-112.976
11
123.515
21
-112.844
0
LINE
8
BLACK
6
CONTINUOUS
10
123.515
20
-112.844
11
123.692
21
-112.746
0
LINE
8
BLACK
6
CONTINUOUS
10
123.692
20
-112.746
11
123.884
21
-112.686
0
LINE
8
BLACK
6
CONTINUOUS
10
123.884
20
-112.686
11
124.085
21
-112.666
0
LINE
8
BLACK
6
CONTINUOUS
10
124.085
20
-112.666
11
124.835
21
-112.666
0
LINE
8
BLACK
6
CONTINUOUS
10
124.835
20
-112.666
11
124.939
21
-112.671
0
LINE
8
BLACK
6
CONTINUOUS
10
141.104
20
-112.671
11
141.301
21
-112.712
0
LINE
8
BLACK
6
CONTINUOUS
10
141.301
20
-112.712
11
141.487
21
-112.793
0
LINE
8
BLACK
6
CONTINUOUS
10
141.487
20
-112.793
11
141.652
21
-112.908
0
LINE
8
BLACK
6
CONTINUOUS
10
141.652
20
-112.908
11
141.791
21
-113.055
0
LINE
8
BLACK
6
CONTINUOUS
10
141.791
20
-113.055
11
141.898
21
-113.227
0
LINE
8
BLACK
6
CONTINUOUS
10
141.898
20
-113.227
11
141.967
21
-113.416
0
LINE
8
BLACK
6
CONTINUOUS
10
141.967
20
-113.416
11
141.998
21
-113.616
0
LINE
8
BLACK
6
CONTINUOUS
10
141.998
20
-113.616
11
141.987
21
-113.818
0
LINE
8
BLACK
6
CONTINUOUS
10
141.987
20
-113.818
11
141.936
21
-114.013
0
LINE
8
BLACK
6
CONTINUOUS
10
141.936
20
-114.013
11
141.847
21
-114.195
0
LINE
8
BLACK
6
CONTINUOUS
10
141.847
20
-114.195
11
141.723
21
-114.354
0
LINE
8
BLACK
6
CONTINUOUS
10
141.723
20
-114.354
11
141.57
21
-114.486
0
LINE
8
BLACK
6
CONTINUOUS
10
141.57
20
-114.486
11
141.393
21
-114.584
0
LINE
8
BLACK
6
CONTINUOUS
10
141.393
20
-114.584
11
141.2
21
-114.644
0
LINE
8
BLACK
6
CONTINUOUS
10
141.2
20
-114.644
11
140.999
21
-114.664
0
LINE
8
BLACK
6
CONTINUOUS
10
140.999
20
-114.664
11
140.25
21
-114.664
0
LINE
8
BLACK
6
CONTINUOUS
10
140.25
20
-114.664
11
140.145
21
-114.659
0
LINE
8
BLACK
6
CONTINUOUS
10
140.145
20
-114.659
11
139.948
21
-114.618
0
LINE
8
BLACK
6
CONTINUOUS
10
139.948
20
-114.618
11
139.762
21
-114.537
0
LINE
8
BLACK
6
CONTINUOUS
10
139.762
20
-114.537
11
139.597
21
-114.422
0
LINE
8
BLACK
6
CONTINUOUS
10
139.597
20
-114.422
11
139.458
21
-114.275
0
LINE
8
BLACK
6
CONTINUOUS
10
139.458
20
-114.275
11
139.352
21
-114.103
0
LINE
8
BLACK
6
CONTINUOUS
10
139.352
20
-114.103
11
139.282
21
-113.914
0
LINE
8
BLACK
6
CONTINUOUS
10
139.282
20
-113.914
11
139.252
21
-113.714
0
LINE
8
BLACK
6
CONTINUOUS
10
139.252
20
-113.714
11
139.262
21
-113.512
0
LINE
8
BLACK
6
CONTINUOUS
10
139.262
20
-113.512
11
139.313
21
-113.317
0
LINE
8
BLACK
6
CONTINUOUS
10
139.313
20
-113.317
11
139.402
21
-113.135
0
LINE
8
BLACK
6
CONTINUOUS
10
139.402
20
-113.135
11
139.526
21
-112.976
0
LINE
8
BLACK
6
CONTINUOUS
10
139.526
20
-112.976
11
139.679
21
-112.844
0
LINE
8
BLACK
6
CONTINUOUS
10
139.679
20
-112.844
11
139.856
21
-112.746
0
LINE
8
BLACK
6
CONTINUOUS
10
139.856
20
-112.746
11
140.049
21
-112.686
0
LINE
8
BLACK
6
CONTINUOUS
10
140.049
20
-112.686
11
140.25
21
-112.666
0
LINE
8
BLACK
6
CONTINUOUS
10
140.25
20
-112.666
11
140.999
21
-112.666
0
LINE
8
BLACK
6
CONTINUOUS
10
140.999
20
-112.666
11
141.104
21
-112.671
0
LINE
8
BLACK
6
CONTINUOUS
10
146.408
20
-112.984
11
146.489
21
-113.038
0
LINE
8
BLACK
6
CONTINUOUS
10
146.489
20
-113.038
11
146.543
21
-113.119
0
LINE
8
BLACK
6
CONTINUOUS
10
146.543
20
-113.119
11
146.562
21
-113.215
0
LINE
8
BLACK
6
CONTINUOUS
10
146.562
20
-113.215
11
146.562
21
-114.115
0
LINE
8
BLACK
6
CONTINUOUS
10
146.562
20
-114.115
11
146.543
21
-114.211
0
LINE
8
BLACK
6
CONTINUOUS
10
146.543
20
-114.211
11
146.489
21
-114.292
0
LINE
8
BLACK
6
CONTINUOUS
10
146.489
20
-114.292
11
146.408
21
-114.346
0
LINE
8
BLACK
6
CONTINUOUS
10
146.408
20
-114.346
11
146.312
21
-114.365
0
LINE
8
BLACK
6
CONTINUOUS
10
146.312
20
-114.365
11
145.787
21
-114.365
0
LINE
8
BLACK
6
CONTINUOUS
10
145.787
20
-114.365
11
145.692
21
-114.346
0
LINE
8
BLACK
6
CONTINUOUS
10
145.692
20
-114.346
11
145.611
21
-114.292
0
LINE
8
BLACK
6
CONTINUOUS
10
145.611
20
-114.292
11
145.557
21
-114.211
0
LINE
8
BLACK
6
CONTINUOUS
10
145.557
20
-114.211
11
145.537
21
-114.115
0
LINE
8
BLACK
6
CONTINUOUS
10
145.537
20
-114.115
11
145.537
21
-113.215
0
LINE
8
BLACK
6
CONTINUOUS
10
145.537
20
-113.215
11
145.557
21
-113.119
0
LINE
8
BLACK
6
CONTINUOUS
10
145.557
20
-113.119
11
145.611
21
-113.038
0
LINE
8
BLACK
6
CONTINUOUS
10
145.611
20
-113.038
11
145.692
21
-112.984
0
LINE
8
BLACK
6
CONTINUOUS
10
145.692
20
-112.984
11
145.787
21
-112.965
0
LINE
8
BLACK
6
CONTINUOUS
10
145.787
20
-112.965
11
146.312
21
-112.965
0
LINE
8
BLACK
6
CONTINUOUS
10
146.312
20
-112.965
11
146.408
21
-112.984
0
LINE
8
BLACK
6
CONTINUOUS
10
144.583
20
-112.984
11
144.664
21
-113.038
0
LINE
8
BLACK
6
CONTINUOUS
10
144.664
20
-113.038
11
144.718
21
-113.119
0
LINE
8
BLACK
6
CONTINUOUS
10
144.718
20
-113.119
11
144.737
21
-113.215
0
LINE
8
BLACK
6
CONTINUOUS
10
144.737
20
-113.215
11
144.737
21
-114.115
0
LINE
8
BLACK
6
CONTINUOUS
10
144.737
20
-114.115
11
144.718
21
-114.211
0
LINE
8
BLACK
6
CONTINUOUS
10
144.718
20
-114.211
11
144.664
21
-114.292
0
LINE
8
BLACK
6
CONTINUOUS
10
144.664
20
-114.292
11
144.583
21
-114.346
0
LINE
8
BLACK
6
CONTINUOUS
10
144.583
20
-114.346
11
144.487
21
-114.365
0
LINE
8
BLACK
6
CONTINUOUS
10
144.487
20
-114.365
11
143.963
21
-114.365
0
LINE
8
BLACK
6
CONTINUOUS
10
143.963
20
-114.365
11
143.867
21
-114.346
0
LINE
8
BLACK
6
CONTINUOUS
10
143.867
20
-114.346
11
143.786
21
-114.292
0
LINE
8
BLACK
6
CONTINUOUS
10
143.786
20
-114.292
11
143.732
21
-114.211
0
LINE
8
BLACK
6
CONTINUOUS
10
143.732
20
-114.211
11
143.713
21
-114.115
0
LINE
8
BLACK
6
CONTINUOUS
10
143.713
20
-114.115
11
143.713
21
-113.215
0
LINE
8
BLACK
6
CONTINUOUS
10
143.713
20
-113.215
11
143.732
21
-113.119
0
LINE
8
BLACK
6
CONTINUOUS
10
143.732
20
-113.119
11
143.786
21
-113.038
0
LINE
8
BLACK
6
CONTINUOUS
10
143.786
20
-113.038
11
143.867
21
-112.984
0
LINE
8
BLACK
6
CONTINUOUS
10
143.867
20
-112.984
11
143.963
21
-112.965
0
LINE
8
BLACK
6
CONTINUOUS
10
143.963
20
-112.965
11
144.487
21
-112.965
0
LINE
8
BLACK
6
CONTINUOUS
10
144.487
20
-112.965
11
144.583
21
-112.984
0
LINE
8
BLACK
6
CONTINUOUS
10
117.918
20
-113.136
11
118.058
21
-113.176
0
LINE
8
BLACK
6
CONTINUOUS
10
118.058
20
-113.176
11
118.181
21
-113.253
0
LINE
8
BLACK
6
CONTINUOUS
10
118.181
20
-113.253
11
118.279
21
-113.36
0
LINE
8
BLACK
6
CONTINUOUS
10
118.279
20
-113.36
11
118.345
21
-113.489
0
LINE
8
BLACK
6
CONTINUOUS
10
118.345
20
-113.489
11
118.374
21
-113.631
0
LINE
8
BLACK
6
CONTINUOUS
10
118.374
20
-113.631
11
118.363
21
-113.776
0
LINE
8
BLACK
6
CONTINUOUS
10
118.363
20
-113.776
11
118.314
21
-113.913
0
LINE
8
BLACK
6
CONTINUOUS
10
118.314
20
-113.913
11
118.23
21
-114.031
0
LINE
8
BLACK
6
CONTINUOUS
10
118.23
20
-114.031
11
118.117
21
-114.123
0
LINE
8
BLACK
6
CONTINUOUS
10
118.117
20
-114.123
11
117.984
21
-114.18
0
LINE
8
BLACK
6
CONTINUOUS
10
117.984
20
-114.18
11
117.84
21
-114.2
0
LINE
8
BLACK
6
CONTINUOUS
10
117.84
20
-114.2
11
117.11
21
-114.2
0
LINE
8
BLACK
6
CONTINUOUS
10
117.11
20
-114.2
11
117.032
21
-114.194
0
LINE
8
BLACK
6
CONTINUOUS
10
117.032
20
-114.194
11
116.892
21
-114.154
0
LINE
8
BLACK
6
CONTINUOUS
10
116.892
20
-114.154
11
116.769
21
-114.077
0
LINE
8
BLACK
6
CONTINUOUS
10
116.769
20
-114.077
11
116.671
21
-113.97
0
LINE
8
BLACK
6
CONTINUOUS
10
116.671
20
-113.97
11
116.605
21
-113.841
0
LINE
8
BLACK
6
CONTINUOUS
10
116.605
20
-113.841
11
116.576
21
-113.699
0
LINE
8
BLACK
6
CONTINUOUS
10
116.576
20
-113.699
11
116.587
21
-113.554
0
LINE
8
BLACK
6
CONTINUOUS
10
116.587
20
-113.554
11
116.636
21
-113.417
0
LINE
8
BLACK
6
CONTINUOUS
10
116.636
20
-113.417
11
116.72
21
-113.299
0
LINE
8
BLACK
6
CONTINUOUS
10
116.72
20
-113.299
11
116.833
21
-113.207
0
LINE
8
BLACK
6
CONTINUOUS
10
116.833
20
-113.207
11
116.966
21
-113.15
0
LINE
8
BLACK
6
CONTINUOUS
10
116.966
20
-113.15
11
117.11
21
-113.13
0
LINE
8
BLACK
6
CONTINUOUS
10
117.11
20
-113.13
11
117.84
21
-113.13
0
LINE
8
BLACK
6
CONTINUOUS
10
117.84
20
-113.13
11
117.918
21
-113.136
0
LINE
8
BLACK
6
CONTINUOUS
10
134.014
20
-112.427
11
134.151
21
-112.484
0
LINE
8
BLACK
6
CONTINUOUS
10
134.151
20
-112.484
11
134.27
21
-112.575
0
LINE
8
BLACK
6
CONTINUOUS
10
134.27
20
-112.575
11
134.361
21
-112.693
0
LINE
8
BLACK
6
CONTINUOUS
10
134.361
20
-112.693
11
134.418
21
-112.831
0
LINE
8
BLACK
6
CONTINUOUS
10
134.418
20
-112.831
11
134.437
21
-112.979
0
LINE
8
BLACK
6
CONTINUOUS
10
134.437
20
-112.979
11
134.418
21
-113.127
0
LINE
8
BLACK
6
CONTINUOUS
10
134.418
20
-113.127
11
134.361
21
-113.264
0
LINE
8
BLACK
6
CONTINUOUS
10
134.361
20
-113.264
11
134.27
21
-113.383
0
LINE
8
BLACK
6
CONTINUOUS
10
134.27
20
-113.383
11
134.151
21
-113.474
0
LINE
8
BLACK
6
CONTINUOUS
10
134.151
20
-113.474
11
134.014
21
-113.531
0
LINE
8
BLACK
6
CONTINUOUS
10
134.014
20
-113.531
11
133.866
21
-113.55
0
LINE
8
BLACK
6
CONTINUOUS
10
133.866
20
-113.55
11
133.718
21
-113.531
0
LINE
8
BLACK
6
CONTINUOUS
10
133.718
20
-113.531
11
133.58
21
-113.474
0
LINE
8
BLACK
6
CONTINUOUS
10
133.58
20
-113.474
11
133.462
21
-113.383
0
LINE
8
BLACK
6
CONTINUOUS
10
133.462
20
-113.383
11
133.371
21
-113.264
0
LINE
8
BLACK
6
CONTINUOUS
10
133.371
20
-113.264
11
133.314
21
-113.127
0
LINE
8
BLACK
6
CONTINUOUS
10
133.314
20
-113.127
11
133.294
21
-112.979
0
LINE
8
BLACK
6
CONTINUOUS
10
133.294
20
-112.979
11
133.314
21
-112.831
0
LINE
8
BLACK
6
CONTINUOUS
10
133.314
20
-112.831
11
133.371
21
-112.693
0
LINE
8
BLACK
6
CONTINUOUS
10
133.371
20
-112.693
11
133.462
21
-112.575
0
LINE
8
BLACK
6
CONTINUOUS
10
133.462
20
-112.575
11
133.58
21
-112.484
0
LINE
8
BLACK
6
CONTINUOUS
10
133.58
20
-112.484
11
133.718
21
-112.427
0
LINE
8
BLACK
6
CONTINUOUS
10
133.718
20
-112.427
11
133.866
21
-112.407
0
LINE
8
BLACK
6
CONTINUOUS
10
133.866
20
-112.407
11
134.014
21
-112.427
0
LINE
8
BLACK
6
CONTINUOUS
10
131.474
20
-112.427
11
131.611
21
-112.484
0
LINE
8
BLACK
6
CONTINUOUS
10
131.611
20
-112.484
11
131.73
21
-112.575
0
LINE
8
BLACK
6
CONTINUOUS
10
131.73
20
-112.575
11
131.821
21
-112.693
0
LINE
8
BLACK
6
CONTINUOUS
10
131.821
20
-112.693
11
131.878
21
-112.831
0
LINE
8
BLACK
6
CONTINUOUS
10
131.878
20
-112.831
11
131.897
21
-112.979
0
LINE
8
BLACK
6
CONTINUOUS
10
131.897
20
-112.979
11
131.878
21
-113.127
0
LINE
8
BLACK
6
CONTINUOUS
10
131.878
20
-113.127
11
131.821
21
-113.264
0
LINE
8
BLACK
6
CONTINUOUS
10
131.821
20
-113.264
11
131.73
21
-113.383
0
LINE
8
BLACK
6
CONTINUOUS
10
131.73
20
-113.383
11
131.611
21
-113.474
0
LINE
8
BLACK
6
CONTINUOUS
10
131.611
20
-113.474
11
131.474
21
-113.531
0
LINE
8
BLACK
6
CONTINUOUS
10
131.474
20
-113.531
11
131.326
21
-113.55
0
LINE
8
BLACK
6
CONTINUOUS
10
131.326
20
-113.55
11
131.178
21
-113.531
0
LINE
8
BLACK
6
CONTINUOUS
10
131.178
20
-113.531
11
131.04
21
-113.474
0
LINE
8
BLACK
6
CONTINUOUS
10
131.04
20
-113.474
11
130.922
21
-113.383
0
LINE
8
BLACK
6
CONTINUOUS
10
130.922
20
-113.383
11
130.831
21
-113.264
0
LINE
8
BLACK
6
CONTINUOUS
10
130.831
20
-113.264
11
130.774
21
-113.127
0
LINE
8
BLACK
6
CONTINUOUS
10
130.774
20
-113.127
11
130.754
21
-112.979
0
LINE
8
BLACK
6
CONTINUOUS
10
130.754
20
-112.979
11
130.774
21
-112.831
0
LINE
8
BLACK
6
CONTINUOUS
10
130.774
20
-112.831
11
130.831
21
-112.693
0
LINE
8
BLACK
6
CONTINUOUS
10
130.831
20
-112.693
11
130.922
21
-112.575
0
LINE
8
BLACK
6
CONTINUOUS
10
130.922
20
-112.575
11
131.04
21
-112.484
0
LINE
8
BLACK
6
CONTINUOUS
10
131.04
20
-112.484
11
131.178
21
-112.427
0
LINE
8
BLACK
6
CONTINUOUS
10
131.178
20
-112.427
11
131.326
21
-112.407
0
LINE
8
BLACK
6
CONTINUOUS
10
131.326
20
-112.407
11
131.474
21
-112.427
0
LINE
8
BLACK
6
CONTINUOUS
10
117.918
20
-111.866
11
118.058
21
-111.906
0
LINE
8
BLACK
6
CONTINUOUS
10
118.058
20
-111.906
11
118.181
21
-111.983
0
LINE
8
BLACK
6
CONTINUOUS
10
118.181
20
-111.983
11
118.279
21
-112.09
0
LINE
8
BLACK
6
CONTINUOUS
10
118.279
20
-112.09
11
118.345
21
-112.219
0
LINE
8
BLACK
6
CONTINUOUS
10
118.345
20
-112.219
11
118.374
21
-112.361
0
LINE
8
BLACK
6
CONTINUOUS
10
118.374
20
-112.361
11
118.363
21
-112.506
0
LINE
8
BLACK
6
CONTINUOUS
10
118.363
20
-112.506
11
118.314
21
-112.643
0
LINE
8
BLACK
6
CONTINUOUS
10
118.314
20
-112.643
11
118.23
21
-112.761
0
LINE
8
BLACK
6
CONTINUOUS
10
118.23
20
-112.761
11
118.117
21
-112.853
0
LINE
8
BLACK
6
CONTINUOUS
10
118.117
20
-112.853
11
117.984
21
-112.91
0
LINE
8
BLACK
6
CONTINUOUS
10
117.984
20
-112.91
11
117.84
21
-112.93
0
LINE
8
BLACK
6
CONTINUOUS
10
117.84
20
-112.93
11
117.11
21
-112.93
0
LINE
8
BLACK
6
CONTINUOUS
10
117.11
20
-112.93
11
117.032
21
-112.924
0
LINE
8
BLACK
6
CONTINUOUS
10
117.032
20
-112.924
11
116.892
21
-112.884
0
LINE
8
BLACK
6
CONTINUOUS
10
116.892
20
-112.884
11
116.769
21
-112.807
0
LINE
8
BLACK
6
CONTINUOUS
10
116.769
20
-112.807
11
116.671
21
-112.7
0
LINE
8
BLACK
6
CONTINUOUS
10
116.671
20
-112.7
11
116.605
21
-112.571
0
LINE
8
BLACK
6
CONTINUOUS
10
116.605
20
-112.571
11
116.576
21
-112.429
0
LINE
8
BLACK
6
CONTINUOUS
10
116.576
20
-112.429
11
116.587
21
-112.284
0
LINE
8
BLACK
6
CONTINUOUS
10
116.587
20
-112.284
11
116.636
21
-112.147
0
LINE
8
BLACK
6
CONTINUOUS
10
116.636
20
-112.147
11
116.72
21
-112.029
0
LINE
8
BLACK
6
CONTINUOUS
10
116.72
20
-112.029
11
116.833
21
-111.937
0
LINE
8
BLACK
6
CONTINUOUS
10
116.833
20
-111.937
11
116.966
21
-111.88
0
LINE
8
BLACK
6
CONTINUOUS
10
116.966
20
-111.88
11
117.11
21
-111.86
0
LINE
8
BLACK
6
CONTINUOUS
10
117.11
20
-111.86
11
117.84
21
-111.86
0
LINE
8
BLACK
6
CONTINUOUS
10
117.84
20
-111.86
11
117.918
21
-111.866
0
LINE
8
BLACK
6
CONTINUOUS
10
150.225
20
-112.51
11
148.225
21
-112.51
0
LINE
8
BLACK
6
CONTINUOUS
10
148.225
20
-112.51
11
148.225
21
-111.01
0
LINE
8
BLACK
6
CONTINUOUS
10
148.225
20
-111.01
11
150.225
21
-111.01
0
LINE
8
BLACK
6
CONTINUOUS
10
150.225
20
-111.01
11
150.225
21
-112.51
0
LINE
8
BLACK
6
CONTINUOUS
10
106.056
20
-108.339
11
106.137
21
-108.393
0
LINE
8
BLACK
6
CONTINUOUS
10
106.137
20
-108.393
11
106.191
21
-108.474
0
LINE
8
BLACK
6
CONTINUOUS
10
106.191
20
-108.474
11
106.21
21
-108.57
0
LINE
8
BLACK
6
CONTINUOUS
10
106.21
20
-108.57
11
106.21
21
-109.87
0
LINE
8
BLACK
6
CONTINUOUS
10
106.21
20
-109.87
11
106.191
21
-109.966
0
LINE
8
BLACK
6
CONTINUOUS
10
106.191
20
-109.966
11
106.137
21
-110.047
0
LINE
8
BLACK
6
CONTINUOUS
10
106.137
20
-110.047
11
106.056
21
-110.101
0
LINE
8
BLACK
6
CONTINUOUS
10
106.056
20
-110.101
11
105.96
21
-110.12
0
LINE
8
BLACK
6
CONTINUOUS
10
105.96
20
-110.12
11
105.31
21
-110.12
0
LINE
8
BLACK
6
CONTINUOUS
10
105.31
20
-110.12
11
105.214
21
-110.101
0
LINE
8
BLACK
6
CONTINUOUS
10
105.214
20
-110.101
11
105.133
21
-110.047
0
LINE
8
BLACK
6
CONTINUOUS
10
105.133
20
-110.047
11
105.079
21
-109.966
0
LINE
8
BLACK
6
CONTINUOUS
10
105.079
20
-109.966
11
105.06
21
-109.87
0
LINE
8
BLACK
6
CONTINUOUS
10
105.06
20
-109.87
11
105.06
21
-108.57
0
LINE
8
BLACK
6
CONTINUOUS
10
105.06
20
-108.57
11
105.079
21
-108.474
0
LINE
8
BLACK
6
CONTINUOUS
10
105.079
20
-108.474
11
105.133
21
-108.393
0
LINE
8
BLACK
6
CONTINUOUS
10
105.133
20
-108.393
11
105.214
21
-108.339
0
LINE
8
BLACK
6
CONTINUOUS
10
105.214
20
-108.339
11
105.31
21
-108.32
0
LINE
8
BLACK
6
CONTINUOUS
10
105.31
20
-108.32
11
105.96
21
-108.32
0
LINE
8
BLACK
6
CONTINUOUS
10
105.96
20
-108.32
11
106.056
21
-108.339
0
LINE
8
BLACK
6
CONTINUOUS
10
109.006
20
-108.339
11
109.087
21
-108.393
0
LINE
8
BLACK
6
CONTINUOUS
10
109.087
20
-108.393
11
109.141
21
-108.474
0
LINE
8
BLACK
6
CONTINUOUS
10
109.141
20
-108.474
11
109.16
21
-108.57
0
LINE
8
BLACK
6
CONTINUOUS
10
109.16
20
-108.57
11
109.16
21
-109.87
0
LINE
8
BLACK
6
CONTINUOUS
10
109.16
20
-109.87
11
109.141
21
-109.966
0
LINE
8
BLACK
6
CONTINUOUS
10
109.141
20
-109.966
11
109.087
21
-110.047
0
LINE
8
BLACK
6
CONTINUOUS
10
109.087
20
-110.047
11
109.006
21
-110.101
0
LINE
8
BLACK
6
CONTINUOUS
10
109.006
20
-110.101
11
108.91
21
-110.12
0
LINE
8
BLACK
6
CONTINUOUS
10
108.91
20
-110.12
11
108.26
21
-110.12
0
LINE
8
BLACK
6
CONTINUOUS
10
108.26
20
-110.12
11
108.164
21
-110.101
0
LINE
8
BLACK
6
CONTINUOUS
10
108.164
20
-110.101
11
108.083
21
-110.047
0
LINE
8
BLACK
6
CONTINUOUS
10
108.083
20
-110.047
11
108.029
21
-109.966
0
LINE
8
BLACK
6
CONTINUOUS
10
108.029
20
-109.966
11
108.01
21
-109.87
0
LINE
8
BLACK
6
CONTINUOUS
10
108.01
20
-109.87
11
108.01
21
-108.57
0
LINE
8
BLACK
6
CONTINUOUS
10
108.01
20
-108.57
11
108.029
21
-108.474
0
LINE
8
BLACK
6
CONTINUOUS
10
108.029
20
-108.474
11
108.083
21
-108.393
0
LINE
8
BLACK
6
CONTINUOUS
10
108.083
20
-108.393
11
108.164
21
-108.339
0
LINE
8
BLACK
6
CONTINUOUS
10
108.164
20
-108.339
11
108.26
21
-108.32
0
LINE
8
BLACK
6
CONTINUOUS
10
108.26
20
-108.32
11
108.91
21
-108.32
0
LINE
8
BLACK
6
CONTINUOUS
10
108.91
20
-108.32
11
109.006
21
-108.339
0
LINE
8
BLACK
6
CONTINUOUS
10
99.215
20
-109.455
11
97.715
21
-109.455
0
LINE
8
BLACK
6
CONTINUOUS
10
97.715
20
-109.455
11
97.715
21
-107.255
0
LINE
8
BLACK
6
CONTINUOUS
10
97.715
20
-107.255
11
99.215
21
-107.255
0
LINE
8
BLACK
6
CONTINUOUS
10
99.215
20
-107.255
11
99.215
21
-109.455
0
LINE
8
BLACK
6
CONTINUOUS
10
92.815
20
-109.455
11
91.315
21
-109.455
0
LINE
8
BLACK
6
CONTINUOUS
10
91.315
20
-109.455
11
91.315
21
-107.255
0
LINE
8
BLACK
6
CONTINUOUS
10
91.315
20
-107.255
11
92.815
21
-107.255
0
LINE
8
BLACK
6
CONTINUOUS
10
92.815
20
-107.255
11
92.815
21
-109.455
0
LINE
8
BLACK
6
CONTINUOUS
10
141.939
20
-100.886
11
141.972
21
-100.908
0
LINE
8
BLACK
6
CONTINUOUS
10
141.972
20
-100.908
11
141.994
21
-100.941
0
LINE
8
BLACK
6
CONTINUOUS
10
141.994
20
-100.941
11
142.002
21
-100.98
0
LINE
8
BLACK
6
CONTINUOUS
10
142.002
20
-100.98
11
142.002
21
-107.3
0
LINE
8
BLACK
6
CONTINUOUS
10
142.002
20
-107.3
11
141.994
21
-107.339
0
LINE
8
BLACK
6
CONTINUOUS
10
141.994
20
-107.339
11
141.972
21
-107.372
0
LINE
8
BLACK
6
CONTINUOUS
10
141.972
20
-107.372
11
141.939
21
-107.394
0
LINE
8
BLACK
6
CONTINUOUS
10
141.939
20
-107.394
11
141.9
21
-107.402
0
LINE
8
BLACK
6
CONTINUOUS
10
141.9
20
-107.402
11
136.23
21
-107.402
0
LINE
8
BLACK
6
CONTINUOUS
10
136.23
20
-107.402
11
136.191
21
-107.394
0
LINE
8
BLACK
6
CONTINUOUS
10
136.191
20
-107.394
11
136.158
21
-107.372
0
LINE
8
BLACK
6
CONTINUOUS
10
136.158
20
-107.372
11
136.136
21
-107.339
0
LINE
8
BLACK
6
CONTINUOUS
10
136.136
20
-107.339
11
136.128
21
-107.3
0
LINE
8
BLACK
6
CONTINUOUS
10
136.128
20
-107.3
11
136.128
21
-100.98
0
LINE
8
BLACK
6
CONTINUOUS
10
136.128
20
-100.98
11
136.136
21
-100.941
0
LINE
8
BLACK
6
CONTINUOUS
10
136.136
20
-100.941
11
136.158
21
-100.908
0
LINE
8
BLACK
6
CONTINUOUS
10
136.158
20
-100.908
11
136.191
21
-100.886
0
LINE
8
BLACK
6
CONTINUOUS
10
136.191
20
-100.886
11
136.23
21
-100.878
0
LINE
8
BLACK
6
CONTINUOUS
10
136.23
20
-100.878
11
141.9
21
-100.878
0
LINE
8
BLACK
6
CONTINUOUS
10
141.9
20
-100.878
11
141.939
21
-100.886
0
LINE
8
BLACK
6
CONTINUOUS
10
133.049
20
-100.786
11
133.082
21
-100.808
0
LINE
8
BLACK
6
CONTINUOUS
10
133.082
20
-100.808
11
133.104
21
-100.841
0
LINE
8
BLACK
6
CONTINUOUS
10
133.104
20
-100.841
11
133.112
21
-100.88
0
LINE
8
BLACK
6
CONTINUOUS
10
133.112
20
-100.88
11
133.112
21
-107.2
0
LINE
8
BLACK
6
CONTINUOUS
10
133.112
20
-107.2
11
133.104
21
-107.239
0
LINE
8
BLACK
6
CONTINUOUS
10
133.104
20
-107.239
11
133.082
21
-107.272
0
LINE
8
BLACK
6
CONTINUOUS
10
133.082
20
-107.272
11
133.049
21
-107.294
0
LINE
8
BLACK
6
CONTINUOUS
10
133.049
20
-107.294
11
133.01
21
-107.302
0
LINE
8
BLACK
6
CONTINUOUS
10
133.01
20
-107.302
11
127.34
21
-107.302
0
LINE
8
BLACK
6
CONTINUOUS
10
127.34
20
-107.302
11
127.301
21
-107.294
0
LINE
8
BLACK
6
CONTINUOUS
10
127.301
20
-107.294
11
127.268
21
-107.272
0
LINE
8
BLACK
6
CONTINUOUS
10
127.268
20
-107.272
11
127.246
21
-107.239
0
LINE
8
BLACK
6
CONTINUOUS
10
127.246
20
-107.239
11
127.238
21
-107.2
0
LINE
8
BLACK
6
CONTINUOUS
10
127.238
20
-107.2
11
127.238
21
-100.88
0
LINE
8
BLACK
6
CONTINUOUS
10
127.238
20
-100.88
11
127.246
21
-100.841
0
LINE
8
BLACK
6
CONTINUOUS
10
127.246
20
-100.841
11
127.268
21
-100.808
0
LINE
8
BLACK
6
CONTINUOUS
10
127.268
20
-100.808
11
127.301
21
-100.786
0
LINE
8
BLACK
6
CONTINUOUS
10
127.301
20
-100.786
11
127.34
21
-100.778
0
LINE
8
BLACK
6
CONTINUOUS
10
127.34
20
-100.778
11
133.01
21
-100.778
0
LINE
8
BLACK
6
CONTINUOUS
10
133.01
20
-100.778
11
133.049
21
-100.786
0
LINE
8
BLACK
6
CONTINUOUS
10
118.436
20
-103.924
11
118.517
21
-103.978
0
LINE
8
BLACK
6
CONTINUOUS
10
118.517
20
-103.978
11
118.571
21
-104.059
0
LINE
8
BLACK
6
CONTINUOUS
10
118.571
20
-104.059
11
118.59
21
-104.155
0
LINE
8
BLACK
6
CONTINUOUS
10
118.59
20
-104.155
11
118.59
21
-105.395
0
LINE
8
BLACK
6
CONTINUOUS
10
118.59
20
-105.395
11
118.571
21
-105.491
0
LINE
8
BLACK
6
CONTINUOUS
10
118.571
20
-105.491
11
118.517
21
-105.572
0
LINE
8
BLACK
6
CONTINUOUS
10
118.517
20
-105.572
11
118.436
21
-105.626
0
LINE
8
BLACK
6
CONTINUOUS
10
118.436
20
-105.626
11
118.34
21
-105.645
0
LINE
8
BLACK
6
CONTINUOUS
10
118.34
20
-105.645
11
116.65
21
-105.645
0
LINE
8
BLACK
6
CONTINUOUS
10
116.65
20
-105.645
11
116.554
21
-105.626
0
LINE
8
BLACK
6
CONTINUOUS
10
116.554
20
-105.626
11
116.473
21
-105.572
0
LINE
8
BLACK
6
CONTINUOUS
10
116.473
20
-105.572
11
116.419
21
-105.491
0
LINE
8
BLACK
6
CONTINUOUS
10
116.419
20
-105.491
11
116.4
21
-105.395
0
LINE
8
BLACK
6
CONTINUOUS
10
116.4
20
-105.395
11
116.4
21
-104.155
0
LINE
8
BLACK
6
CONTINUOUS
10
116.4
20
-104.155
11
116.419
21
-104.059
0
LINE
8
BLACK
6
CONTINUOUS
10
116.419
20
-104.059
11
116.473
21
-103.978
0
LINE
8
BLACK
6
CONTINUOUS
10
116.473
20
-103.978
11
116.554
21
-103.924
0
LINE
8
BLACK
6
CONTINUOUS
10
116.554
20
-103.924
11
116.65
21
-103.905
0
LINE
8
BLACK
6
CONTINUOUS
10
116.65
20
-103.905
11
118.34
21
-103.905
0
LINE
8
BLACK
6
CONTINUOUS
10
118.34
20
-103.905
11
118.436
21
-103.924
0
LINE
8
BLACK
6
CONTINUOUS
10
109.006
20
-103.259
11
109.087
21
-103.313
0
LINE
8
BLACK
6
CONTINUOUS
10
109.087
20
-103.313
11
109.141
21
-103.394
0
LINE
8
BLACK
6
CONTINUOUS
10
109.141
20
-103.394
11
109.16
21
-103.49
0
LINE
8
BLACK
6
CONTINUOUS
10
109.16
20
-103.49
11
109.16
21
-104.79
0
LINE
8
BLACK
6
CONTINUOUS
10
109.16
20
-104.79
11
109.141
21
-104.886
0
LINE
8
BLACK
6
CONTINUOUS
10
109.141
20
-104.886
11
109.087
21
-104.967
0
LINE
8
BLACK
6
CONTINUOUS
10
109.087
20
-104.967
11
109.006
21
-105.021
0
LINE
8
BLACK
6
CONTINUOUS
10
109.006
20
-105.021
11
108.91
21
-105.04
0
LINE
8
BLACK
6
CONTINUOUS
10
108.91
20
-105.04
11
108.26
21
-105.04
0
LINE
8
BLACK
6
CONTINUOUS
10
108.26
20
-105.04
11
108.164
21
-105.021
0
LINE
8
BLACK
6
CONTINUOUS
10
108.164
20
-105.021
11
108.083
21
-104.967
0
LINE
8
BLACK
6
CONTINUOUS
10
108.083
20
-104.967
11
108.029
21
-104.886
0
LINE
8
BLACK
6
CONTINUOUS
10
108.029
20
-104.886
11
108.01
21
-104.79
0
LINE
8
BLACK
6
CONTINUOUS
10
108.01
20
-104.79
11
108.01
21
-103.49
0
LINE
8
BLACK
6
CONTINUOUS
10
108.01
20
-103.49
11
108.029
21
-103.394
0
LINE
8
BLACK
6
CONTINUOUS
10
108.029
20
-103.394
11
108.083
21
-103.313
0
LINE
8
BLACK
6
CONTINUOUS
10
108.083
20
-103.313
11
108.164
21
-103.259
0
LINE
8
BLACK
6
CONTINUOUS
10
108.164
20
-103.259
11
108.26
21
-103.24
0
LINE
8
BLACK
6
CONTINUOUS
10
108.26
20
-103.24
11
108.91
21
-103.24
0
LINE
8
BLACK
6
CONTINUOUS
10
108.91
20
-103.24
11
109.006
21
-103.259
0
LINE
8
BLACK
6
CONTINUOUS
10
106.056
20
-103.259
11
106.137
21
-103.313
0
LINE
8
BLACK
6
CONTINUOUS
10
106.137
20
-103.313
11
106.191
21
-103.394
0
LINE
8
BLACK
6
CONTINUOUS
10
106.191
20
-103.394
11
106.21
21
-103.49
0
LINE
8
BLACK
6
CONTINUOUS
10
106.21
20
-103.49
11
106.21
21
-104.79
0
LINE
8
BLACK
6
CONTINUOUS
10
106.21
20
-104.79
11
106.191
21
-104.886
0
LINE
8
BLACK
6
CONTINUOUS
10
106.191
20
-104.886
11
106.137
21
-104.967
0
LINE
8
BLACK
6
CONTINUOUS
10
106.137
20
-104.967
11
106.056
21
-105.021
0
LINE
8
BLACK
6
CONTINUOUS
10
106.056
20
-105.021
11
105.96
21
-105.04
0
LINE
8
BLACK
6
CONTINUOUS
10
105.96
20
-105.04
11
105.31
21
-105.04
0
LINE
8
BLACK
6
CONTINUOUS
10
105.31
20
-105.04
11
105.214
21
-105.021
0
LINE
8
BLACK
6
CONTINUOUS
10
105.214
20
-105.021
11
105.133
21
-104.967
0
LINE
8
BLACK
6
CONTINUOUS
10
105.133
20
-104.967
11
105.079
21
-104.886
0
LINE
8
BLACK
6
CONTINUOUS
10
105.079
20
-104.886
11
105.06
21
-104.79
0
LINE
8
BLACK
6
CONTINUOUS
10
105.06
20
-104.79
11
105.06
21
-103.49
0
LINE
8
BLACK
6
CONTINUOUS
10
105.06
20
-103.49
11
105.079
21
-103.394
0
LINE
8
BLACK
6
CONTINUOUS
10
105.079
20
-103.394
11
105.133
21
-103.313
0
LINE
8
BLACK
6
CONTINUOUS
10
105.133
20
-103.313
11
105.214
21
-103.259
0
LINE
8
BLACK
6
CONTINUOUS
10
105.214
20
-103.259
11
105.31
21
-103.24
0
LINE
8
BLACK
6
CONTINUOUS
10
105.31
20
-103.24
11
105.96
21
-103.24
0
LINE
8
BLACK
6
CONTINUOUS
10
105.96
20
-103.24
11
106.056
21
-103.259
0
LINE
8
BLACK
6
CONTINUOUS
10
117.817
20
-101.37
11
118
21
-101.411
0
LINE
8
BLACK
6
CONTINUOUS
10
118
20
-101.411
11
118.171
21
-101.491
0
LINE
8
BLACK
6
CONTINUOUS
10
118.171
20
-101.491
11
118.32
21
-101.605
0
LINE
8
BLACK
6
CONTINUOUS
10
118.32
20
-101.605
11
118.441
21
-101.749
0
LINE
8
BLACK
6
CONTINUOUS
10
118.441
20
-101.749
11
118.529
21
-101.915
0
LINE
8
BLACK
6
CONTINUOUS
10
118.529
20
-101.915
11
118.579
21
-102.096
0
LINE
8
BLACK
6
CONTINUOUS
10
118.579
20
-102.096
11
118.589
21
-102.284
0
LINE
8
BLACK
6
CONTINUOUS
10
118.589
20
-102.284
11
118.558
21
-102.469
0
LINE
8
BLACK
6
CONTINUOUS
10
118.558
20
-102.469
11
118.488
21
-102.643
0
LINE
8
BLACK
6
CONTINUOUS
10
118.488
20
-102.643
11
118.383
21
-102.799
0
LINE
8
BLACK
6
CONTINUOUS
10
118.383
20
-102.799
11
118.246
21
-102.928
0
LINE
8
BLACK
6
CONTINUOUS
10
118.246
20
-102.928
11
118.085
21
-103.025
0
LINE
8
BLACK
6
CONTINUOUS
10
118.085
20
-103.025
11
117.907
21
-103.085
0
LINE
8
BLACK
6
CONTINUOUS
10
117.907
20
-103.085
11
117.72
21
-103.105
0
LINE
8
BLACK
6
CONTINUOUS
10
117.72
20
-103.105
11
117.27
21
-103.105
0
LINE
8
BLACK
6
CONTINUOUS
10
117.27
20
-103.105
11
117.173
21
-103.1
0
LINE
8
BLACK
6
CONTINUOUS
10
117.173
20
-103.1
11
116.99
21
-103.059
0
LINE
8
BLACK
6
CONTINUOUS
10
116.99
20
-103.059
11
116.819
21
-102.979
0
LINE
8
BLACK
6
CONTINUOUS
10
116.819
20
-102.979
11
116.67
21
-102.865
0
LINE
8
BLACK
6
CONTINUOUS
10
116.67
20
-102.865
11
116.549
21
-102.721
0
LINE
8
BLACK
6
CONTINUOUS
10
116.549
20
-102.721
11
116.461
21
-102.555
0
LINE
8
BLACK
6
CONTINUOUS
10
116.461
20
-102.555
11
116.411
21
-102.374
0
LINE
8
BLACK
6
CONTINUOUS
10
116.411
20
-102.374
11
116.401
21
-102.186
0
LINE
8
BLACK
6
CONTINUOUS
10
116.401
20
-102.186
11
116.432
21
-102.001
0
LINE
8
BLACK
6
CONTINUOUS
10
116.432
20
-102.001
11
116.502
21
-101.827
0
LINE
8
BLACK
6
CONTINUOUS
10
116.502
20
-101.827
11
116.607
21
-101.671
0
LINE
8
BLACK
6
CONTINUOUS
10
116.607
20
-101.671
11
116.744
21
-101.542
0
LINE
8
BLACK
6
CONTINUOUS
10
116.744
20
-101.542
11
116.905
21
-101.445
0
LINE
8
BLACK
6
CONTINUOUS
10
116.905
20
-101.445
11
117.083
21
-101.385
0
LINE
8
BLACK
6
CONTINUOUS
10
117.083
20
-101.385
11
117.27
21
-101.365
0
LINE
8
BLACK
6
CONTINUOUS
10
117.27
20
-101.365
11
117.72
21
-101.365
0
LINE
8
BLACK
6
CONTINUOUS
10
117.72
20
-101.365
11
117.817
21
-101.37
0
LINE
8
BLACK
6
CONTINUOUS
10
147.431
20
-100.819
11
147.512
21
-100.873
0
LINE
8
BLACK
6
CONTINUOUS
10
147.512
20
-100.873
11
147.566
21
-100.954
0
LINE
8
BLACK
6
CONTINUOUS
10
147.566
20
-100.954
11
147.585
21
-101.05
0
LINE
8
BLACK
6
CONTINUOUS
10
147.585
20
-101.05
11
147.585
21
-101.7
0
LINE
8
BLACK
6
CONTINUOUS
10
147.585
20
-101.7
11
147.566
21
-101.796
0
LINE
8
BLACK
6
CONTINUOUS
10
147.566
20
-101.796
11
147.512
21
-101.877
0
LINE
8
BLACK
6
CONTINUOUS
10
147.512
20
-101.877
11
147.431
21
-101.931
0
LINE
8
BLACK
6
CONTINUOUS
10
147.431
20
-101.931
11
147.335
21
-101.95
0
LINE
8
BLACK
6
CONTINUOUS
10
147.335
20
-101.95
11
146.035
21
-101.95
0
LINE
8
BLACK
6
CONTINUOUS
10
146.035
20
-101.95
11
145.939
21
-101.931
0
LINE
8
BLACK
6
CONTINUOUS
10
145.939
20
-101.931
11
145.858
21
-101.877
0
LINE
8
BLACK
6
CONTINUOUS
10
145.858
20
-101.877
11
145.804
21
-101.796
0
LINE
8
BLACK
6
CONTINUOUS
10
145.804
20
-101.796
11
145.785
21
-101.7
0
LINE
8
BLACK
6
CONTINUOUS
10
145.785
20
-101.7
11
145.785
21
-101.05
0
LINE
8
BLACK
6
CONTINUOUS
10
145.785
20
-101.05
11
145.804
21
-100.954
0
LINE
8
BLACK
6
CONTINUOUS
10
145.804
20
-100.954
11
145.858
21
-100.873
0
LINE
8
BLACK
6
CONTINUOUS
10
145.858
20
-100.873
11
145.939
21
-100.819
0
LINE
8
BLACK
6
CONTINUOUS
10
145.939
20
-100.819
11
146.035
21
-100.8
0
LINE
8
BLACK
6
CONTINUOUS
10
146.035
20
-100.8
11
147.335
21
-100.8
0
LINE
8
BLACK
6
CONTINUOUS
10
147.335
20
-100.8
11
147.431
21
-100.819
0
LINE
8
BLACK
6
CONTINUOUS
10
92.04
20
-100.885
11
88.54
21
-100.885
0
LINE
8
BLACK
6
CONTINUOUS
10
88.54
20
-100.885
11
88.54
21
-99.085
0
LINE
8
BLACK
6
CONTINUOUS
10
88.54
20
-99.085
11
92.04
21
-99.085
0
LINE
8
BLACK
6
CONTINUOUS
10
92.04
20
-99.085
11
92.04
21
-100.885
0
LINE
8
BLACK
6
CONTINUOUS
10
97.04
20
-100.885
11
93.54
21
-100.885
0
LINE
8
BLACK
6
CONTINUOUS
10
93.54
20
-100.885
11
93.54
21
-99.085
0
LINE
8
BLACK
6
CONTINUOUS
10
93.54
20
-99.085
11
97.04
21
-99.085
0
LINE
8
BLACK
6
CONTINUOUS
10
97.04
20
-99.085
11
97.04
21
-100.885
0
LINE
8
BLACK
6
CONTINUOUS
10
117.817
20
-98.8304
11
118
21
-98.8714
0
LINE
8
BLACK
6
CONTINUOUS
10
118
20
-98.8714
11
118.171
21
-98.9508
0
LINE
8
BLACK
6
CONTINUOUS
10
118.171
20
-98.9508
11
118.32
21
-99.065
0
LINE
8
BLACK
6
CONTINUOUS
10
118.32
20
-99.065
11
118.441
21
-99.2085
0
LINE
8
BLACK
6
CONTINUOUS
10
118.441
20
-99.2085
11
118.529
21
-99.3747
0
LINE
8
BLACK
6
CONTINUOUS
10
118.529
20
-99.3747
11
118.579
21
-99.5559
0
LINE
8
BLACK
6
CONTINUOUS
10
118.579
20
-99.5559
11
118.589
21
-99.7436
0
LINE
8
BLACK
6
CONTINUOUS
10
118.589
20
-99.7436
11
118.558
21
-99.929
0
LINE
8
BLACK
6
CONTINUOUS
10
118.558
20
-99.929
11
118.488
21
-100.103
0
LINE
8
BLACK
6
CONTINUOUS
10
118.488
20
-100.103
11
118.383
21
-100.259
0
LINE
8
BLACK
6
CONTINUOUS
10
118.383
20
-100.259
11
118.246
21
-100.388
0
LINE
8
BLACK
6
CONTINUOUS
10
118.246
20
-100.388
11
118.085
21
-100.485
0
LINE
8
BLACK
6
CONTINUOUS
10
118.085
20
-100.485
11
117.907
21
-100.545
0
LINE
8
BLACK
6
CONTINUOUS
10
117.907
20
-100.545
11
117.72
21
-100.565
0
LINE
8
BLACK
6
CONTINUOUS
10
117.72
20
-100.565
11
117.27
21
-100.565
0
LINE
8
BLACK
6
CONTINUOUS
10
117.27
20
-100.565
11
117.173
21
-100.56
0
LINE
8
BLACK
6
CONTINUOUS
10
117.173
20
-100.56
11
116.99
21
-100.519
0
LINE
8
BLACK
6
CONTINUOUS
10
116.99
20
-100.519
11
116.819
21
-100.439
0
LINE
8
BLACK
6
CONTINUOUS
10
116.819
20
-100.439
11
116.67
21
-100.325
0
LINE
8
BLACK
6
CONTINUOUS
10
116.67
20
-100.325
11
116.549
21
-100.181
0
LINE
8
BLACK
6
CONTINUOUS
10
116.549
20
-100.181
11
116.461
21
-100.015
0
LINE
8
BLACK
6
CONTINUOUS
10
116.461
20
-100.015
11
116.411
21
-99.8341
0
LINE
8
BLACK
6
CONTINUOUS
10
116.411
20
-99.8341
11
116.401
21
-99.6464
0
LINE
8
BLACK
6
CONTINUOUS
10
116.401
20
-99.6464
11
116.432
21
-99.461
0
LINE
8
BLACK
6
CONTINUOUS
10
116.432
20
-99.461
11
116.502
21
-99.2866
0
LINE
8
BLACK
6
CONTINUOUS
10
116.502
20
-99.2866
11
116.607
21
-99.1311
0
LINE
8
BLACK
6
CONTINUOUS
10
116.607
20
-99.1311
11
116.744
21
-99.002
0
LINE
8
BLACK
6
CONTINUOUS
10
116.744
20
-99.002
11
116.905
21
-98.9052
0
LINE
8
BLACK
6
CONTINUOUS
10
116.905
20
-98.9052
11
117.083
21
-98.8453
0
LINE
8
BLACK
6
CONTINUOUS
10
117.083
20
-98.8453
11
117.27
21
-98.825
0
LINE
8
BLACK
6
CONTINUOUS
10
117.27
20
-98.825
11
117.72
21
-98.825
0
LINE
8
BLACK
6
CONTINUOUS
10
117.72
20
-98.825
11
117.817
21
-98.8304
0
LINE
8
BLACK
6
CONTINUOUS
10
141.875
20
-96.0058
11
141.908
21
-96.0279
0
LINE
8
BLACK
6
CONTINUOUS
10
141.908
20
-96.0279
11
141.93
21
-96.061
0
LINE
8
BLACK
6
CONTINUOUS
10
141.93
20
-96.061
11
141.938
21
-96.1
0
LINE
8
BLACK
6
CONTINUOUS
10
141.938
20
-96.1
11
141.938
21
-99.12
0
LINE
8
BLACK
6
CONTINUOUS
10
141.938
20
-99.12
11
141.93
21
-99.159
0
LINE
8
BLACK
6
CONTINUOUS
10
141.93
20
-99.159
11
141.908
21
-99.1921
0
LINE
8
BLACK
6
CONTINUOUS
10
141.908
20
-99.1921
11
141.875
21
-99.2142
0
LINE
8
BLACK
6
CONTINUOUS
10
141.875
20
-99.2142
11
141.836
21
-99.222
0
LINE
8
BLACK
6
CONTINUOUS
10
141.836
20
-99.222
11
140.866
21
-99.222
0
LINE
8
BLACK
6
CONTINUOUS
10
140.866
20
-99.222
11
140.827
21
-99.2142
0
LINE
8
BLACK
6
CONTINUOUS
10
140.827
20
-99.2142
11
140.794
21
-99.1921
0
LINE
8
BLACK
6
CONTINUOUS
10
140.794
20
-99.1921
11
140.772
21
-99.159
0
LINE
8
BLACK
6
CONTINUOUS
10
140.772
20
-99.159
11
140.764
21
-99.12
0
LINE
8
BLACK
6
CONTINUOUS
10
140.764
20
-99.12
11
140.764
21
-96.1
0
LINE
8
BLACK
6
CONTINUOUS
10
140.764
20
-96.1
11
140.772
21
-96.061
0
LINE
8
BLACK
6
CONTINUOUS
10
140.772
20
-96.061
11
140.794
21
-96.0279
0
LINE
8
BLACK
6
CONTINUOUS
10
140.794
20
-96.0279
11
140.827
21
-96.0058
0
LINE
8
BLACK
6
CONTINUOUS
10
140.827
20
-96.0058
11
140.866
21
-95.998
0
LINE
8
BLACK
6
CONTINUOUS
10
140.866
20
-95.998
11
141.836
21
-95.998
0
LINE
8
BLACK
6
CONTINUOUS
10
141.836
20
-95.998
11
141.875
21
-96.0058
0
LINE
8
BLACK
6
CONTINUOUS
10
137.303
20
-96.0058
11
137.336
21
-96.0279
0
LINE
8
BLACK
6
CONTINUOUS
10
137.336
20
-96.0279
11
137.358
21
-96.061
0
LINE
8
BLACK
6
CONTINUOUS
10
137.358
20
-96.061
11
137.366
21
-96.1
0
LINE
8
BLACK
6
CONTINUOUS
10
137.366
20
-96.1
11
137.366
21
-99.12
0
LINE
8
BLACK
6
CONTINUOUS
10
137.366
20
-99.12
11
137.358
21
-99.159
0
LINE
8
BLACK
6
CONTINUOUS
10
137.358
20
-99.159
11
137.336
21
-99.1921
0
LINE
8
BLACK
6
CONTINUOUS
10
137.336
20
-99.1921
11
137.303
21
-99.2142
0
LINE
8
BLACK
6
CONTINUOUS
10
137.303
20
-99.2142
11
137.264
21
-99.222
0
LINE
8
BLACK
6
CONTINUOUS
10
137.264
20
-99.222
11
136.294
21
-99.222
0
LINE
8
BLACK
6
CONTINUOUS
10
136.294
20
-99.222
11
136.255
21
-99.2142
0
LINE
8
BLACK
6
CONTINUOUS
10
136.255
20
-99.2142
11
136.222
21
-99.1921
0
LINE
8
BLACK
6
CONTINUOUS
10
136.222
20
-99.1921
11
136.2
21
-99.159
0
LINE
8
BLACK
6
CONTINUOUS
10
136.2
20
-99.159
11
136.192
21
-99.12
0
LINE
8
BLACK
6
CONTINUOUS
10
136.192
20
-99.12
11
136.192
21
-96.1
0
LINE
8
BLACK
6
CONTINUOUS
10
136.192
20
-96.1
11
136.2
21
-96.061
0
LINE
8
BLACK
6
CONTINUOUS
10
136.2
20
-96.061
11
136.222
21
-96.0279
0
LINE
8
BLACK
6
CONTINUOUS
10
136.222
20
-96.0279
11
136.255
21
-96.0058
0
LINE
8
BLACK
6
CONTINUOUS
10
136.255
20
-96.0058
11
136.294
21
-95.998
0
LINE
8
BLACK
6
CONTINUOUS
10
136.294
20
-95.998
11
137.264
21
-95.998
0
LINE
8
BLACK
6
CONTINUOUS
10
137.264
20
-95.998
11
137.303
21
-96.0058
0
LINE
8
BLACK
6
CONTINUOUS
10
101.551
20
-98.1415
11
101.632
21
-98.1957
0
LINE
8
BLACK
6
CONTINUOUS
10
101.632
20
-98.1957
11
101.686
21
-98.2768
0
LINE
8
BLACK
6
CONTINUOUS
10
101.686
20
-98.2768
11
101.705
21
-98.3725
0
LINE
8
BLACK
6
CONTINUOUS
10
101.705
20
-98.3725
11
101.705
21
-98.8975
0
LINE
8
BLACK
6
CONTINUOUS
10
101.705
20
-98.8975
11
101.686
21
-98.9932
0
LINE
8
BLACK
6
CONTINUOUS
10
101.686
20
-98.9932
11
101.632
21
-99.0743
0
LINE
8
BLACK
6
CONTINUOUS
10
101.632
20
-99.0743
11
101.551
21
-99.1285
0
LINE
8
BLACK
6
CONTINUOUS
10
101.551
20
-99.1285
11
101.455
21
-99.1475
0
LINE
8
BLACK
6
CONTINUOUS
10
101.455
20
-99.1475
11
100.555
21
-99.1475
0
LINE
8
BLACK
6
CONTINUOUS
10
100.555
20
-99.1475
11
100.459
21
-99.1285
0
LINE
8
BLACK
6
CONTINUOUS
10
100.459
20
-99.1285
11
100.378
21
-99.0743
0
LINE
8
BLACK
6
CONTINUOUS
10
100.378
20
-99.0743
11
100.324
21
-98.9932
0
LINE
8
BLACK
6
CONTINUOUS
10
100.324
20
-98.9932
11
100.305
21
-98.8975
0
LINE
8
BLACK
6
CONTINUOUS
10
100.305
20
-98.8975
11
100.305
21
-98.3725
0
LINE
8
BLACK
6
CONTINUOUS
10
100.305
20
-98.3725
11
100.324
21
-98.2768
0
LINE
8
BLACK
6
CONTINUOUS
10
100.324
20
-98.2768
11
100.378
21
-98.1957
0
LINE
8
BLACK
6
CONTINUOUS
10
100.378
20
-98.1957
11
100.459
21
-98.1415
0
LINE
8
BLACK
6
CONTINUOUS
10
100.459
20
-98.1415
11
100.555
21
-98.1225
0
LINE
8
BLACK
6
CONTINUOUS
10
100.555
20
-98.1225
11
101.455
21
-98.1225
0
LINE
8
BLACK
6
CONTINUOUS
10
101.455
20
-98.1225
11
101.551
21
-98.1415
0
LINE
8
BLACK
6
CONTINUOUS
10
132.985
20
-95.9058
11
133.018
21
-95.9279
0
LINE
8
BLACK
6
CONTINUOUS
10
133.018
20
-95.9279
11
133.04
21
-95.961
0
LINE
8
BLACK
6
CONTINUOUS
10
133.04
20
-95.961
11
133.048
21
-96
0
LINE
8
BLACK
6
CONTINUOUS
10
133.048
20
-96
11
133.048
21
-99.02
0
LINE
8
BLACK
6
CONTINUOUS
10
133.048
20
-99.02
11
133.04
21
-99.059
0
LINE
8
BLACK
6
CONTINUOUS
10
133.04
20
-99.059
11
133.018
21
-99.0921
0
LINE
8
BLACK
6
CONTINUOUS
10
133.018
20
-99.0921
11
132.985
21
-99.1142
0
LINE
8
BLACK
6
CONTINUOUS
10
132.985
20
-99.1142
11
132.946
21
-99.122
0
LINE
8
BLACK
6
CONTINUOUS
10
132.946
20
-99.122
11
131.976
21
-99.122
0
LINE
8
BLACK
6
CONTINUOUS
10
131.976
20
-99.122
11
131.937
21
-99.1142
0
LINE
8
BLACK
6
CONTINUOUS
10
131.937
20
-99.1142
11
131.904
21
-99.0921
0
LINE
8
BLACK
6
CONTINUOUS
10
131.904
20
-99.0921
11
131.882
21
-99.059
0
LINE
8
BLACK
6
CONTINUOUS
10
131.882
20
-99.059
11
131.874
21
-99.02
0
LINE
8
BLACK
6
CONTINUOUS
10
131.874
20
-99.02
11
131.874
21
-96
0
LINE
8
BLACK
6
CONTINUOUS
10
131.874
20
-96
11
131.882
21
-95.961
0
LINE
8
BLACK
6
CONTINUOUS
10
131.882
20
-95.961
11
131.904
21
-95.9279
0
LINE
8
BLACK
6
CONTINUOUS
10
131.904
20
-95.9279
11
131.937
21
-95.9058
0
LINE
8
BLACK
6
CONTINUOUS
10
131.937
20
-95.9058
11
131.976
21
-95.898
0
LINE
8
BLACK
6
CONTINUOUS
10
131.976
20
-95.898
11
132.946
21
-95.898
0
LINE
8
BLACK
6
CONTINUOUS
10
132.946
20
-95.898
11
132.985
21
-95.9058
0
LINE
8
BLACK
6
CONTINUOUS
10
128.413
20
-95.9058
11
128.446
21
-95.9279
0
LINE
8
BLACK
6
CONTINUOUS
10
128.446
20
-95.9279
11
128.468
21
-95.961
0
LINE
8
BLACK
6
CONTINUOUS
10
128.468
20
-95.961
11
128.476
21
-96
0
LINE
8
BLACK
6
CONTINUOUS
10
128.476
20
-96
11
128.476
21
-99.02
0
LINE
8
BLACK
6
CONTINUOUS
10
128.476
20
-99.02
11
128.468
21
-99.059
0
LINE
8
BLACK
6
CONTINUOUS
10
128.468
20
-99.059
11
128.446
21
-99.0921
0
LINE
8
BLACK
6
CONTINUOUS
10
128.446
20
-99.0921
11
128.413
21
-99.1142
0
LINE
8
BLACK
6
CONTINUOUS
10
128.413
20
-99.1142
11
128.374
21
-99.122
0
LINE
8
BLACK
6
CONTINUOUS
10
128.374
20
-99.122
11
127.404
21
-99.122
0
LINE
8
BLACK
6
CONTINUOUS
10
127.404
20
-99.122
11
127.365
21
-99.1142
0
LINE
8
BLACK
6
CONTINUOUS
10
127.365
20
-99.1142
11
127.332
21
-99.0921
0
LINE
8
BLACK
6
CONTINUOUS
10
127.332
20
-99.0921
11
127.31
21
-99.059
0
LINE
8
BLACK
6
CONTINUOUS
10
127.31
20
-99.059
11
127.302
21
-99.02
0
LINE
8
BLACK
6
CONTINUOUS
10
127.302
20
-99.02
11
127.302
21
-96
0
LINE
8
BLACK
6
CONTINUOUS
10
127.302
20
-96
11
127.31
21
-95.961
0
LINE
8
BLACK
6
CONTINUOUS
10
127.31
20
-95.961
11
127.332
21
-95.9279
0
LINE
8
BLACK
6
CONTINUOUS
10
127.332
20
-95.9279
11
127.365
21
-95.9058
0
LINE
8
BLACK
6
CONTINUOUS
10
127.365
20
-95.9058
11
127.404
21
-95.898
0
LINE
8
BLACK
6
CONTINUOUS
10
127.404
20
-95.898
11
128.374
21
-95.898
0
LINE
8
BLACK
6
CONTINUOUS
10
128.374
20
-95.898
11
128.413
21
-95.9058
0
LINE
8
BLACK
6
CONTINUOUS
10
147.431
20
-97.869
11
147.512
21
-97.9232
0
LINE
8
BLACK
6
CONTINUOUS
10
147.512
20
-97.9232
11
147.566
21
-98.0043
0
LINE
8
BLACK
6
CONTINUOUS
10
147.566
20
-98.0043
11
147.585
21
-98.1
0
LINE
8
BLACK
6
CONTINUOUS
10
147.585
20
-98.1
11
147.585
21
-98.75
0
LINE
8
BLACK
6
CONTINUOUS
10
147.585
20
-98.75
11
147.566
21
-98.8457
0
LINE
8
BLACK
6
CONTINUOUS
10
147.566
20
-98.8457
11
147.512
21
-98.9268
0
LINE
8
BLACK
6
CONTINUOUS
10
147.512
20
-98.9268
11
147.431
21
-98.981
0
LINE
8
BLACK
6
CONTINUOUS
10
147.431
20
-98.981
11
147.335
21
-99
0
LINE
8
BLACK
6
CONTINUOUS
10
147.335
20
-99
11
146.035
21
-99
0
LINE
8
BLACK
6
CONTINUOUS
10
146.035
20
-99
11
145.939
21
-98.981
0
LINE
8
BLACK
6
CONTINUOUS
10
145.939
20
-98.981
11
145.858
21
-98.9268
0
LINE
8
BLACK
6
CONTINUOUS
10
145.858
20
-98.9268
11
145.804
21
-98.8457
0
LINE
8
BLACK
6
CONTINUOUS
10
145.804
20
-98.8457
11
145.785
21
-98.75
0
LINE
8
BLACK
6
CONTINUOUS
10
145.785
20
-98.75
11
145.785
21
-98.1
0
LINE
8
BLACK
6
CONTINUOUS
10
145.785
20
-98.1
11
145.804
21
-98.0043
0
LINE
8
BLACK
6
CONTINUOUS
10
145.804
20
-98.0043
11
145.858
21
-97.9232
0
LINE
8
BLACK
6
CONTINUOUS
10
145.858
20
-97.9232
11
145.939
21
-97.869
0
LINE
8
BLACK
6
CONTINUOUS
10
145.939
20
-97.869
11
146.035
21
-97.85
0
LINE
8
BLACK
6
CONTINUOUS
10
146.035
20
-97.85
11
147.335
21
-97.85
0
LINE
8
BLACK
6
CONTINUOUS
10
147.335
20
-97.85
11
147.431
21
-97.869
0
LINE
8
BLACK
6
CONTINUOUS
10
117.817
20
-96.2904
11
118
21
-96.3314
0
LINE
8
BLACK
6
CONTINUOUS
10
118
20
-96.3314
11
118.171
21
-96.4108
0
LINE
8
BLACK
6
CONTINUOUS
10
118.171
20
-96.4108
11
118.32
21
-96.525
0
LINE
8
BLACK
6
CONTINUOUS
10
118.32
20
-96.525
11
118.441
21
-96.6685
0
LINE
8
BLACK
6
CONTINUOUS
10
118.441
20
-96.6685
11
118.529
21
-96.8347
0
LINE
8
BLACK
6
CONTINUOUS
10
118.529
20
-96.8347
11
118.579
21
-97.0159
0
LINE
8
BLACK
6
CONTINUOUS
10
118.579
20
-97.0159
11
118.589
21
-97.2036
0
LINE
8
BLACK
6
CONTINUOUS
10
118.589
20
-97.2036
11
118.558
21
-97.389
0
LINE
8
BLACK
6
CONTINUOUS
10
118.558
20
-97.389
11
118.488
21
-97.5634
0
LINE
8
BLACK
6
CONTINUOUS
10
118.488
20
-97.5634
11
118.383
21
-97.7189
0
LINE
8
BLACK
6
CONTINUOUS
10
118.383
20
-97.7189
11
118.246
21
-97.848
0
LINE
8
BLACK
6
CONTINUOUS
10
118.246
20
-97.848
11
118.085
21
-97.9448
0
LINE
8
BLACK
6
CONTINUOUS
10
118.085
20
-97.9448
11
117.907
21
-98.0047
0
LINE
8
BLACK
6
CONTINUOUS
10
117.907
20
-98.0047
11
117.72
21
-98.025
0
LINE
8
BLACK
6
CONTINUOUS
10
117.72
20
-98.025
11
117.27
21
-98.025
0
LINE
8
BLACK
6
CONTINUOUS
10
117.27
20
-98.025
11
117.173
21
-98.0196
0
LINE
8
BLACK
6
CONTINUOUS
10
117.173
20
-98.0196
11
116.99
21
-97.9786
0
LINE
8
BLACK
6
CONTINUOUS
10
116.99
20
-97.9786
11
116.819
21
-97.8992
0
LINE
8
BLACK
6
CONTINUOUS
10
116.819
20
-97.8992
11
116.67
21
-97.785
0
LINE
8
BLACK
6
CONTINUOUS
10
116.67
20
-97.785
11
116.549
21
-97.6415
0
LINE
8
BLACK
6
CONTINUOUS
10
116.549
20
-97.6415
11
116.461
21
-97.4753
0
LINE
8
BLACK
6
CONTINUOUS
10
116.461
20
-97.4753
11
116.411
21
-97.2941
0
LINE
8
BLACK
6
CONTINUOUS
10
116.411
20
-97.2941
11
116.401
21
-97.1064
0
LINE
8
BLACK
6
CONTINUOUS
10
116.401
20
-97.1064
11
116.432
21
-96.921
0
LINE
8
BLACK
6
CONTINUOUS
10
116.432
20
-96.921
11
116.502
21
-96.7466
0
LINE
8
BLACK
6
CONTINUOUS
10
116.502
20
-96.7466
11
116.607
21
-96.5911
0
LINE
8
BLACK
6
CONTINUOUS
10
116.607
20
-96.5911
11
116.744
21
-96.462
0
LINE
8
BLACK
6
CONTINUOUS
10
116.744
20
-96.462
11
116.905
21
-96.3652
0
LINE
8
BLACK
6
CONTINUOUS
10
116.905
20
-96.3652
11
117.083
21
-96.3053
0
LINE
8
BLACK
6
CONTINUOUS
10
117.083
20
-96.3053
11
117.27
21
-96.285
0
LINE
8
BLACK
6
CONTINUOUS
10
117.27
20
-96.285
11
117.72
21
-96.285
0
LINE
8
BLACK
6
CONTINUOUS
10
117.72
20
-96.285
11
117.817
21
-96.2904
0
LINE
8
BLACK
6
CONTINUOUS
10
97.5532
20
-96.129
11
97.6343
21
-96.1832
0
LINE
8
BLACK
6
CONTINUOUS
10
97.6343
20
-96.1832
11
97.6885
21
-96.2643
0
LINE
8
BLACK
6
CONTINUOUS
10
97.6885
20
-96.2643
11
97.7075
21
-96.36
0
LINE
8
BLACK
6
CONTINUOUS
10
97.7075
20
-96.36
11
97.7075
21
-97.26
0
LINE
8
BLACK
6
CONTINUOUS
10
97.7075
20
-97.26
11
97.6885
21
-97.3557
0
LINE
8
BLACK
6
CONTINUOUS
10
97.6885
20
-97.3557
11
97.6343
21
-97.4368
0
LINE
8
BLACK
6
CONTINUOUS
10
97.6343
20
-97.4368
11
97.5532
21
-97.491
0
LINE
8
BLACK
6
CONTINUOUS
10
97.5532
20
-97.491
11
97.4575
21
-97.51
0
LINE
8
BLACK
6
CONTINUOUS
10
97.4575
20
-97.51
11
96.9325
21
-97.51
0
LINE
8
BLACK
6
CONTINUOUS
10
96.9325
20
-97.51
11
96.8368
21
-97.491
0
LINE
8
BLACK
6
CONTINUOUS
10
96.8368
20
-97.491
11
96.7557
21
-97.4368
0
LINE
8
BLACK
6
CONTINUOUS
10
96.7557
20
-97.4368
11
96.7015
21
-97.3557
0
LINE
8
BLACK
6
CONTINUOUS
10
96.7015
20
-97.3557
11
96.6825
21
-97.26
0
LINE
8
BLACK
6
CONTINUOUS
10
96.6825
20
-97.26
11
96.6825
21
-96.36
0
LINE
8
BLACK
6
CONTINUOUS
10
96.6825
20
-96.36
11
96.7015
21
-96.2643
0
LINE
8
BLACK
6
CONTINUOUS
10
96.7015
20
-96.2643
11
96.7557
21
-96.1832
0
LINE
8
BLACK
6
CONTINUOUS
10
96.7557
20
-96.1832
11
96.8368
21
-96.129
0
LINE
8
BLACK
6
CONTINUOUS
10
96.8368
20
-96.129
11
96.9325
21
-96.11
0
LINE
8
BLACK
6
CONTINUOUS
10
96.9325
20
-96.11
11
97.4575
21
-96.11
0
LINE
8
BLACK
6
CONTINUOUS
10
97.4575
20
-96.11
11
97.5532
21
-96.129
0
LINE
8
BLACK
6
CONTINUOUS
10
95.7282
20
-96.129
11
95.8093
21
-96.1832
0
LINE
8
BLACK
6
CONTINUOUS
10
95.8093
20
-96.1832
11
95.8635
21
-96.2643
0
LINE
8
BLACK
6
CONTINUOUS
10
95.8635
20
-96.2643
11
95.8825
21
-96.36
0
LINE
8
BLACK
6
CONTINUOUS
10
95.8825
20
-96.36
11
95.8825
21
-97.26
0
LINE
8
BLACK
6
CONTINUOUS
10
95.8825
20
-97.26
11
95.8635
21
-97.3557
0
LINE
8
BLACK
6
CONTINUOUS
10
95.8635
20
-97.3557
11
95.8093
21
-97.4368
0
LINE
8
BLACK
6
CONTINUOUS
10
95.8093
20
-97.4368
11
95.7282
21
-97.491
0
LINE
8
BLACK
6
CONTINUOUS
10
95.7282
20
-97.491
11
95.6325
21
-97.51
0
LINE
8
BLACK
6
CONTINUOUS
10
95.6325
20
-97.51
11
95.1075
21
-97.51
0
LINE
8
BLACK
6
CONTINUOUS
10
95.1075
20
-97.51
11
95.0118
21
-97.491
0
LINE
8
BLACK
6
CONTINUOUS
10
95.0118
20
-97.491
11
94.9307
21
-97.4368
0
LINE
8
BLACK
6
CONTINUOUS
10
94.9307
20
-97.4368
11
94.8765
21
-97.3557
0
LINE
8
BLACK
6
CONTINUOUS
10
94.8765
20
-97.3557
11
94.8575
21
-97.26
0
LINE
8
BLACK
6
CONTINUOUS
10
94.8575
20
-97.26
11
94.8575
21
-96.36
0
LINE
8
BLACK
6
CONTINUOUS
10
94.8575
20
-96.36
11
94.8765
21
-96.2643
0
LINE
8
BLACK
6
CONTINUOUS
10
94.8765
20
-96.2643
11
94.9307
21
-96.1832
0
LINE
8
BLACK
6
CONTINUOUS
10
94.9307
20
-96.1832
11
95.0118
21
-96.129
0
LINE
8
BLACK
6
CONTINUOUS
10
95.0118
20
-96.129
11
95.1075
21
-96.11
0
LINE
8
BLACK
6
CONTINUOUS
10
95.1075
20
-96.11
11
95.6325
21
-96.11
0
LINE
8
BLACK
6
CONTINUOUS
10
95.6325
20
-96.11
11
95.7282
21
-96.129
0
LINE
8
BLACK
6
CONTINUOUS
10
101.551
20
-96.3165
11
101.632
21
-96.3707
0
LINE
8
BLACK
6
CONTINUOUS
10
101.632
20
-96.3707
11
101.686
21
-96.4518
0
LINE
8
BLACK
6
CONTINUOUS
10
101.686
20
-96.4518
11
101.705
21
-96.5475
0
LINE
8
BLACK
6
CONTINUOUS
10
101.705
20
-96.5475
11
101.705
21
-97.0725
0
LINE
8
BLACK
6
CONTINUOUS
10
101.705
20
-97.0725
11
101.686
21
-97.1682
0
LINE
8
BLACK
6
CONTINUOUS
10
101.686
20
-97.1682
11
101.632
21
-97.2493
0
LINE
8
BLACK
6
CONTINUOUS
10
101.632
20
-97.2493
11
101.551
21
-97.3035
0
LINE
8
BLACK
6
CONTINUOUS
10
101.551
20
-97.3035
11
101.455
21
-97.3225
0
LINE
8
BLACK
6
CONTINUOUS
10
101.455
20
-97.3225
11
100.555
21
-97.3225
0
LINE
8
BLACK
6
CONTINUOUS
10
100.555
20
-97.3225
11
100.459
21
-97.3035
0
LINE
8
BLACK
6
CONTINUOUS
10
100.459
20
-97.3035
11
100.378
21
-97.2493
0
LINE
8
BLACK
6
CONTINUOUS
10
100.378
20
-97.2493
11
100.324
21
-97.1682
0
LINE
8
BLACK
6
CONTINUOUS
10
100.324
20
-97.1682
11
100.305
21
-97.0725
0
LINE
8
BLACK
6
CONTINUOUS
10
100.305
20
-97.0725
11
100.305
21
-96.5475
0
LINE
8
BLACK
6
CONTINUOUS
10
100.305
20
-96.5475
11
100.324
21
-96.4518
0
LINE
8
BLACK
6
CONTINUOUS
10
100.324
20
-96.4518
11
100.378
21
-96.3707
0
LINE
8
BLACK
6
CONTINUOUS
10
100.378
20
-96.3707
11
100.459
21
-96.3165
0
LINE
8
BLACK
6
CONTINUOUS
10
100.459
20
-96.3165
11
100.555
21
-96.2975
0
LINE
8
BLACK
6
CONTINUOUS
10
100.555
20
-96.2975
11
101.455
21
-96.2975
0
LINE
8
BLACK
6
CONTINUOUS
10
101.455
20
-96.2975
11
101.551
21
-96.3165
0
LINE
8
BLACK
6
CONTINUOUS
10
154.611
20
-94.399
11
154.692
21
-94.4532
0
LINE
8
BLACK
6
CONTINUOUS
10
154.692
20
-94.4532
11
154.746
21
-94.5343
0
LINE
8
BLACK
6
CONTINUOUS
10
154.746
20
-94.5343
11
154.765
21
-94.63
0
LINE
8
BLACK
6
CONTINUOUS
10
154.765
20
-94.63
11
154.765
21
-95.87
0
LINE
8
BLACK
6
CONTINUOUS
10
154.765
20
-95.87
11
154.746
21
-95.9657
0
LINE
8
BLACK
6
CONTINUOUS
10
154.746
20
-95.9657
11
154.692
21
-96.0468
0
LINE
8
BLACK
6
CONTINUOUS
10
154.692
20
-96.0468
11
154.611
21
-96.101
0
LINE
8
BLACK
6
CONTINUOUS
10
154.611
20
-96.101
11
154.515
21
-96.12
0
LINE
8
BLACK
6
CONTINUOUS
10
154.515
20
-96.12
11
152.825
21
-96.12
0
LINE
8
BLACK
6
CONTINUOUS
10
152.825
20
-96.12
11
152.729
21
-96.101
0
LINE
8
BLACK
6
CONTINUOUS
10
152.729
20
-96.101
11
152.648
21
-96.0468
0
LINE
8
BLACK
6
CONTINUOUS
10
152.648
20
-96.0468
11
152.594
21
-95.9657
0
LINE
8
BLACK
6
CONTINUOUS
10
152.594
20
-95.9657
11
152.575
21
-95.87
0
LINE
8
BLACK
6
CONTINUOUS
10
152.575
20
-95.87
11
152.575
21
-94.63
0
LINE
8
BLACK
6
CONTINUOUS
10
152.575
20
-94.63
11
152.594
21
-94.5343
0
LINE
8
BLACK
6
CONTINUOUS
10
152.594
20
-94.5343
11
152.648
21
-94.4532
0
LINE
8
BLACK
6
CONTINUOUS
10
152.648
20
-94.4532
11
152.729
21
-94.399
0
LINE
8
BLACK
6
CONTINUOUS
10
152.729
20
-94.399
11
152.825
21
-94.38
0
LINE
8
BLACK
6
CONTINUOUS
10
152.825
20
-94.38
11
154.515
21
-94.38
0
LINE
8
BLACK
6
CONTINUOUS
10
154.515
20
-94.38
11
154.611
21
-94.399
0
LINE
8
BLACK
6
CONTINUOUS
10
99.24
20
-95.04
11
98.14
21
-95.04
0
LINE
8
BLACK
6
CONTINUOUS
10
98.14
20
-95.04
11
98.14
21
-90.44
0
LINE
8
BLACK
6
CONTINUOUS
10
98.14
20
-90.44
11
99.24
21
-90.44
0
LINE
8
BLACK
6
CONTINUOUS
10
99.24
20
-90.44
11
99.24
21
-95.04
0
LINE
8
BLACK
6
CONTINUOUS
10
97.54
20
-95.04
11
96.44
21
-95.04
0
LINE
8
BLACK
6
CONTINUOUS
10
96.44
20
-95.04
11
96.44
21
-90.44
0
LINE
8
BLACK
6
CONTINUOUS
10
96.44
20
-90.44
11
97.54
21
-90.44
0
LINE
8
BLACK
6
CONTINUOUS
10
97.54
20
-90.44
11
97.54
21
-95.04
0
LINE
8
BLACK
6
CONTINUOUS
10
95.84
20
-95.04
11
94.74
21
-95.04
0
LINE
8
BLACK
6
CONTINUOUS
10
94.74
20
-95.04
11
94.74
21
-90.44
0
LINE
8
BLACK
6
CONTINUOUS
10
94.74
20
-90.44
11
95.84
21
-90.44
0
LINE
8
BLACK
6
CONTINUOUS
10
95.84
20
-90.44
11
95.84
21
-95.04
0
LINE
8
BLACK
6
CONTINUOUS
10
94.14
20
-95.04
11
93.04
21
-95.04
0
LINE
8
BLACK
6
CONTINUOUS
10
93.04
20
-95.04
11
93.04
21
-90.44
0
LINE
8
BLACK
6
CONTINUOUS
10
93.04
20
-90.44
11
94.14
21
-90.44
0
LINE
8
BLACK
6
CONTINUOUS
10
94.14
20
-90.44
11
94.14
21
-95.04
0
LINE
8
BLACK
6
CONTINUOUS
10
92.44
20
-95.04
11
91.34
21
-95.04
0
LINE
8
BLACK
6
CONTINUOUS
10
91.34
20
-95.04
11
91.34
21
-90.44
0
LINE
8
BLACK
6
CONTINUOUS
10
91.34
20
-90.44
11
92.44
21
-90.44
0
LINE
8
BLACK
6
CONTINUOUS
10
92.44
20
-90.44
11
92.44
21
-95.04
0
LINE
8
BLACK
6
CONTINUOUS
10
153.992
20
-91.8454
11
154.175
21
-91.8864
0
LINE
8
BLACK
6
CONTINUOUS
10
154.175
20
-91.8864
11
154.346
21
-91.9658
0
LINE
8
BLACK
6
CONTINUOUS
10
154.346
20
-91.9658
11
154.495
21
-92.08
0
LINE
8
BLACK
6
CONTINUOUS
10
154.495
20
-92.08
11
154.616
21
-92.2235
0
LINE
8
BLACK
6
CONTINUOUS
10
154.616
20
-92.2235
11
154.704
21
-92.3897
0
LINE
8
BLACK
6
CONTINUOUS
10
154.704
20
-92.3897
11
154.754
21
-92.5709
0
LINE
8
BLACK
6
CONTINUOUS
10
154.754
20
-92.5709
11
154.764
21
-92.7586
0
LINE
8
BLACK
6
CONTINUOUS
10
154.764
20
-92.7586
11
154.733
21
-92.944
0
LINE
8
BLACK
6
CONTINUOUS
10
154.733
20
-92.944
11
154.663
21
-93.1184
0
LINE
8
BLACK
6
CONTINUOUS
10
154.663
20
-93.1184
11
154.558
21
-93.2739
0
LINE
8
BLACK
6
CONTINUOUS
10
154.558
20
-93.2739
11
154.421
21
-93.403
0
LINE
8
BLACK
6
CONTINUOUS
10
154.421
20
-93.403
11
154.26
21
-93.4998
0
LINE
8
BLACK
6
CONTINUOUS
10
154.26
20
-93.4998
11
154.082
21
-93.5597
0
LINE
8
BLACK
6
CONTINUOUS
10
154.082
20
-93.5597
11
153.895
21
-93.58
0
LINE
8
BLACK
6
CONTINUOUS
10
153.895
20
-93.58
11
153.445
21
-93.58
0
LINE
8
BLACK
6
CONTINUOUS
10
153.445
20
-93.58
11
153.348
21
-93.5746
0
LINE
8
BLACK
6
CONTINUOUS
10
153.348
20
-93.5746
11
153.165
21
-93.5336
0
LINE
8
BLACK
6
CONTINUOUS
10
153.165
20
-93.5336
11
152.994
21
-93.4542
0
LINE
8
BLACK
6
CONTINUOUS
10
152.994
20
-93.4542
11
152.845
21
-93.34
0
LINE
8
BLACK
6
CONTINUOUS
10
152.845
20
-93.34
11
152.724
21
-93.1965
0
LINE
8
BLACK
6
CONTINUOUS
10
152.724
20
-93.1965
11
152.636
21
-93.0303
0
LINE
8
BLACK
6
CONTINUOUS
10
152.636
20
-93.0303
11
152.586
21
-92.8491
0
LINE
8
BLACK
6
CONTINUOUS
10
152.586
20
-92.8491
11
152.576
21
-92.6614
0
LINE
8
BLACK
6
CONTINUOUS
10
152.576
20
-92.6614
11
152.607
21
-92.476
0
LINE
8
BLACK
6
CONTINUOUS
10
152.607
20
-92.476
11
152.677
21
-92.3016
0
LINE
8
BLACK
6
CONTINUOUS
10
152.677
20
-92.3016
11
152.782
21
-92.1461
0
LINE
8
BLACK
6
CONTINUOUS
10
152.782
20
-92.1461
11
152.919
21
-92.017
0
LINE
8
BLACK
6
CONTINUOUS
10
152.919
20
-92.017
11
153.08
21
-91.9202
0
LINE
8
BLACK
6
CONTINUOUS
10
153.08
20
-91.9202
11
153.258
21
-91.8603
0
LINE
8
BLACK
6
CONTINUOUS
10
153.258
20
-91.8603
11
153.445
21
-91.84
0
LINE
8
BLACK
6
CONTINUOUS
10
153.445
20
-91.84
11
153.895
21
-91.84
0
LINE
8
BLACK
6
CONTINUOUS
10
153.895
20
-91.84
11
153.992
21
-91.8454
0
LINE
8
BLACK
6
CONTINUOUS
10
127.546
20
-92.394
11
127.627
21
-92.4482
0
LINE
8
BLACK
6
CONTINUOUS
10
127.627
20
-92.4482
11
127.681
21
-92.5293
0
LINE
8
BLACK
6
CONTINUOUS
10
127.681
20
-92.5293
11
127.7
21
-92.625
0
LINE
8
BLACK
6
CONTINUOUS
10
127.7
20
-92.625
11
127.7
21
-93.15
0
LINE
8
BLACK
6
CONTINUOUS
10
127.7
20
-93.15
11
127.681
21
-93.2457
0
LINE
8
BLACK
6
CONTINUOUS
10
127.681
20
-93.2457
11
127.627
21
-93.3268
0
LINE
8
BLACK
6
CONTINUOUS
10
127.627
20
-93.3268
11
127.546
21
-93.381
0
LINE
8
BLACK
6
CONTINUOUS
10
127.546
20
-93.381
11
127.45
21
-93.4
0
LINE
8
BLACK
6
CONTINUOUS
10
127.45
20
-93.4
11
126.55
21
-93.4
0
LINE
8
BLACK
6
CONTINUOUS
10
126.55
20
-93.4
11
126.454
21
-93.381
0
LINE
8
BLACK
6
CONTINUOUS
10
126.454
20
-93.381
11
126.373
21
-93.3268
0
LINE
8
BLACK
6
CONTINUOUS
10
126.373
20
-93.3268
11
126.319
21
-93.2457
0
LINE
8
BLACK
6
CONTINUOUS
10
126.319
20
-93.2457
11
126.3
21
-93.15
0
LINE
8
BLACK
6
CONTINUOUS
10
126.3
20
-93.15
11
126.3
21
-92.625
0
LINE
8
BLACK
6
CONTINUOUS
10
126.3
20
-92.625
11
126.319
21
-92.5293
0
LINE
8
BLACK
6
CONTINUOUS
10
126.319
20
-92.5293
11
126.373
21
-92.4482
0
LINE
8
BLACK
6
CONTINUOUS
10
126.373
20
-92.4482
11
126.454
21
-92.394
0
LINE
8
BLACK
6
CONTINUOUS
10
126.454
20
-92.394
11
126.55
21
-92.375
0
LINE
8
BLACK
6
CONTINUOUS
10
126.55
20
-92.375
11
127.45
21
-92.375
0
LINE
8
BLACK
6
CONTINUOUS
10
127.45
20
-92.375
11
127.546
21
-92.394
0
LINE
8
BLACK
6
CONTINUOUS
10
140.542
20
-90.9164
11
140.591
21
-90.9489
0
LINE
8
BLACK
6
CONTINUOUS
10
140.591
20
-90.9489
11
140.624
21
-90.9976
0
LINE
8
BLACK
6
CONTINUOUS
10
140.624
20
-90.9976
11
140.635
21
-91.055
0
LINE
8
BLACK
6
CONTINUOUS
10
140.635
20
-91.055
11
140.635
21
-92.23
0
LINE
8
BLACK
6
CONTINUOUS
10
140.635
20
-92.23
11
140.624
21
-92.2874
0
LINE
8
BLACK
6
CONTINUOUS
10
140.624
20
-92.2874
11
140.591
21
-92.3361
0
LINE
8
BLACK
6
CONTINUOUS
10
140.591
20
-92.3361
11
140.542
21
-92.3686
0
LINE
8
BLACK
6
CONTINUOUS
10
140.542
20
-92.3686
11
140.485
21
-92.38
0
LINE
8
BLACK
6
CONTINUOUS
10
140.485
20
-92.38
11
140.185
21
-92.38
0
LINE
8
BLACK
6
CONTINUOUS
10
140.185
20
-92.38
11
140.128
21
-92.3686
0
LINE
8
BLACK
6
CONTINUOUS
10
140.128
20
-92.3686
11
140.079
21
-92.3361
0
LINE
8
BLACK
6
CONTINUOUS
10
140.079
20
-92.3361
11
140.046
21
-92.2874
0
LINE
8
BLACK
6
CONTINUOUS
10
140.046
20
-92.2874
11
140.035
21
-92.23
0
LINE
8
BLACK
6
CONTINUOUS
10
140.035
20
-92.23
11
140.035
21
-91.055
0
LINE
8
BLACK
6
CONTINUOUS
10
140.035
20
-91.055
11
140.046
21
-90.9976
0
LINE
8
BLACK
6
CONTINUOUS
10
140.046
20
-90.9976
11
140.079
21
-90.9489
0
LINE
8
BLACK
6
CONTINUOUS
10
140.079
20
-90.9489
11
140.128
21
-90.9164
0
LINE
8
BLACK
6
CONTINUOUS
10
140.128
20
-90.9164
11
140.185
21
-90.905
0
LINE
8
BLACK
6
CONTINUOUS
10
140.185
20
-90.905
11
140.485
21
-90.905
0
LINE
8
BLACK
6
CONTINUOUS
10
140.485
20
-90.905
11
140.542
21
-90.9164
0
LINE
8
BLACK
6
CONTINUOUS
10
132.922
20
-90.6139
11
132.971
21
-90.6464
0
LINE
8
BLACK
6
CONTINUOUS
10
132.971
20
-90.6464
11
133.004
21
-90.6951
0
LINE
8
BLACK
6
CONTINUOUS
10
133.004
20
-90.6951
11
133.015
21
-90.7525
0
LINE
8
BLACK
6
CONTINUOUS
10
133.015
20
-90.7525
11
133.015
21
-91.9275
0
LINE
8
BLACK
6
CONTINUOUS
10
133.015
20
-91.9275
11
133.004
21
-91.9849
0
LINE
8
BLACK
6
CONTINUOUS
10
133.004
20
-91.9849
11
132.971
21
-92.0336
0
LINE
8
BLACK
6
CONTINUOUS
10
132.971
20
-92.0336
11
132.922
21
-92.0661
0
LINE
8
BLACK
6
CONTINUOUS
10
132.922
20
-92.0661
11
132.865
21
-92.0775
0
LINE
8
BLACK
6
CONTINUOUS
10
132.865
20
-92.0775
11
132.565
21
-92.0775
0
LINE
8
BLACK
6
CONTINUOUS
10
132.565
20
-92.0775
11
132.508
21
-92.0661
0
LINE
8
BLACK
6
CONTINUOUS
10
132.508
20
-92.0661
11
132.459
21
-92.0336
0
LINE
8
BLACK
6
CONTINUOUS
10
132.459
20
-92.0336
11
132.426
21
-91.9849
0
LINE
8
BLACK
6
CONTINUOUS
10
132.426
20
-91.9849
11
132.415
21
-91.9275
0
LINE
8
BLACK
6
CONTINUOUS
10
132.415
20
-91.9275
11
132.415
21
-90.7525
0
LINE
8
BLACK
6
CONTINUOUS
10
132.415
20
-90.7525
11
132.426
21
-90.6951
0
LINE
8
BLACK
6
CONTINUOUS
10
132.426
20
-90.6951
11
132.459
21
-90.6464
0
LINE
8
BLACK
6
CONTINUOUS
10
132.459
20
-90.6464
11
132.508
21
-90.6139
0
LINE
8
BLACK
6
CONTINUOUS
10
132.508
20
-90.6139
11
132.565
21
-90.6025
0
LINE
8
BLACK
6
CONTINUOUS
10
132.565
20
-90.6025
11
132.865
21
-90.6025
0
LINE
8
BLACK
6
CONTINUOUS
10
132.865
20
-90.6025
11
132.922
21
-90.6139
0
LINE
8
BLACK
6
CONTINUOUS
10
127.546
20
-90.569
11
127.627
21
-90.6232
0
LINE
8
BLACK
6
CONTINUOUS
10
127.627
20
-90.6232
11
127.681
21
-90.7043
0
LINE
8
BLACK
6
CONTINUOUS
10
127.681
20
-90.7043
11
127.7
21
-90.8
0
LINE
8
BLACK
6
CONTINUOUS
10
127.7
20
-90.8
11
127.7
21
-91.325
0
LINE
8
BLACK
6
CONTINUOUS
10
127.7
20
-91.325
11
127.681
21
-91.4207
0
LINE
8
BLACK
6
CONTINUOUS
10
127.681
20
-91.4207
11
127.627
21
-91.5018
0
LINE
8
BLACK
6
CONTINUOUS
10
127.627
20
-91.5018
11
127.546
21
-91.556
0
LINE
8
BLACK
6
CONTINUOUS
10
127.546
20
-91.556
11
127.45
21
-91.575
0
LINE
8
BLACK
6
CONTINUOUS
10
127.45
20
-91.575
11
126.55
21
-91.575
0
LINE
8
BLACK
6
CONTINUOUS
10
126.55
20
-91.575
11
126.454
21
-91.556
0
LINE
8
BLACK
6
CONTINUOUS
10
126.454
20
-91.556
11
126.373
21
-91.5018
0
LINE
8
BLACK
6
CONTINUOUS
10
126.373
20
-91.5018
11
126.319
21
-91.4207
0
LINE
8
BLACK
6
CONTINUOUS
10
126.319
20
-91.4207
11
126.3
21
-91.325
0
LINE
8
BLACK
6
CONTINUOUS
10
126.3
20
-91.325
11
126.3
21
-90.8
0
LINE
8
BLACK
6
CONTINUOUS
10
126.3
20
-90.8
11
126.319
21
-90.7043
0
LINE
8
BLACK
6
CONTINUOUS
10
126.319
20
-90.7043
11
126.373
21
-90.6232
0
LINE
8
BLACK
6
CONTINUOUS
10
126.373
20
-90.6232
11
126.454
21
-90.569
0
LINE
8
BLACK
6
CONTINUOUS
10
126.454
20
-90.569
11
126.55
21
-90.55
0
LINE
8
BLACK
6
CONTINUOUS
10
126.55
20
-90.55
11
127.45
21
-90.55
0
LINE
8
BLACK
6
CONTINUOUS
10
127.45
20
-90.55
11
127.546
21
-90.569
0
LINE
8
BLACK
6
CONTINUOUS
10
153.992
20
-89.3054
11
154.175
21
-89.3464
0
LINE
8
BLACK
6
CONTINUOUS
10
154.175
20
-89.3464
11
154.346
21
-89.4258
0
LINE
8
BLACK
6
CONTINUOUS
10
154.346
20
-89.4258
11
154.495
21
-89.54
0
LINE
8
BLACK
6
CONTINUOUS
10
154.495
20
-89.54
11
154.616
21
-89.6835
0
LINE
8
BLACK
6
CONTINUOUS
10
154.616
20
-89.6835
11
154.704
21
-89.8497
0
LINE
8
BLACK
6
CONTINUOUS
10
154.704
20
-89.8497
11
154.754
21
-90.0309
0
LINE
8
BLACK
6
CONTINUOUS
10
154.754
20
-90.0309
11
154.764
21
-90.2186
0
LINE
8
BLACK
6
CONTINUOUS
10
154.764
20
-90.2186
11
154.733
21
-90.404
0
LINE
8
BLACK
6
CONTINUOUS
10
154.733
20
-90.404
11
154.663
21
-90.5784
0
LINE
8
BLACK
6
CONTINUOUS
10
154.663
20
-90.5784
11
154.558
21
-90.7339
0
LINE
8
BLACK
6
CONTINUOUS
10
154.558
20
-90.7339
11
154.421
21
-90.863
0
LINE
8
BLACK
6
CONTINUOUS
10
154.421
20
-90.863
11
154.26
21
-90.9598
0
LINE
8
BLACK
6
CONTINUOUS
10
154.26
20
-90.9598
11
154.082
21
-91.0197
0
LINE
8
BLACK
6
CONTINUOUS
10
154.082
20
-91.0197
11
153.895
21
-91.04
0
LINE
8
BLACK
6
CONTINUOUS
10
153.895
20
-91.04
11
153.445
21
-91.04
0
LINE
8
BLACK
6
CONTINUOUS
10
153.445
20
-91.04
11
153.348
21
-91.0346
0
LINE
8
BLACK
6
CONTINUOUS
10
153.348
20
-91.0346
11
153.165
21
-90.9936
0
LINE
8
BLACK
6
CONTINUOUS
10
153.165
20
-90.9936
11
152.994
21
-90.9142
0
LINE
8
BLACK
6
CONTINUOUS
10
152.994
20
-90.9142
11
152.845
21
-90.8
0
LINE
8
BLACK
6
CONTINUOUS
10
152.845
20
-90.8
11
152.724
21
-90.6565
0
LINE
8
BLACK
6
CONTINUOUS
10
152.724
20
-90.6565
11
152.636
21
-90.4903
0
LINE
8
BLACK
6
CONTINUOUS
10
152.636
20
-90.4903
11
152.586
21
-90.3091
0
LINE
8
BLACK
6
CONTINUOUS
10
152.586
20
-90.3091
11
152.576
21
-90.1214
0
LINE
8
BLACK
6
CONTINUOUS
10
152.576
20
-90.1214
11
152.607
21
-89.936
0
LINE
8
BLACK
6
CONTINUOUS
10
152.607
20
-89.936
11
152.677
21
-89.7616
0
LINE
8
BLACK
6
CONTINUOUS
10
152.677
20
-89.7616
11
152.782
21
-89.6061
0
LINE
8
BLACK
6
CONTINUOUS
10
152.782
20
-89.6061
11
152.919
21
-89.477
0
LINE
8
BLACK
6
CONTINUOUS
10
152.919
20
-89.477
11
153.08
21
-89.3802
0
LINE
8
BLACK
6
CONTINUOUS
10
153.08
20
-89.3802
11
153.258
21
-89.3203
0
LINE
8
BLACK
6
CONTINUOUS
10
153.258
20
-89.3203
11
153.445
21
-89.3
0
LINE
8
BLACK
6
CONTINUOUS
10
153.445
20
-89.3
11
153.895
21
-89.3
0
LINE
8
BLACK
6
CONTINUOUS
10
153.895
20
-89.3
11
153.992
21
-89.3054
0
LINE
8
BLACK
6
CONTINUOUS
10
139.592
20
-89.0414
11
139.641
21
-89.0739
0
LINE
8
BLACK
6
CONTINUOUS
10
139.641
20
-89.0739
11
139.674
21
-89.1226
0
LINE
8
BLACK
6
CONTINUOUS
10
139.674
20
-89.1226
11
139.685
21
-89.18
0
LINE
8
BLACK
6
CONTINUOUS
10
139.685
20
-89.18
11
139.685
21
-90.355
0
LINE
8
BLACK
6
CONTINUOUS
10
139.685
20
-90.355
11
139.674
21
-90.4124
0
LINE
8
BLACK
6
CONTINUOUS
10
139.674
20
-90.4124
11
139.641
21
-90.4611
0
LINE
8
BLACK
6
CONTINUOUS
10
139.641
20
-90.4611
11
139.592
21
-90.4936
0
LINE
8
BLACK
6
CONTINUOUS
10
139.592
20
-90.4936
11
139.535
21
-90.505
0
LINE
8
BLACK
6
CONTINUOUS
10
139.535
20
-90.505
11
139.235
21
-90.505
0
LINE
8
BLACK
6
CONTINUOUS
10
139.235
20
-90.505
11
139.178
21
-90.4936
0
LINE
8
BLACK
6
CONTINUOUS
10
139.178
20
-90.4936
11
139.129
21
-90.4611
0
LINE
8
BLACK
6
CONTINUOUS
10
139.129
20
-90.4611
11
139.096
21
-90.4124
0
LINE
8
BLACK
6
CONTINUOUS
10
139.096
20
-90.4124
11
139.085
21
-90.355
0
LINE
8
BLACK
6
CONTINUOUS
10
139.085
20
-90.355
11
139.085
21
-89.18
0
LINE
8
BLACK
6
CONTINUOUS
10
139.085
20
-89.18
11
139.096
21
-89.1226
0
LINE
8
BLACK
6
CONTINUOUS
10
139.096
20
-89.1226
11
139.129
21
-89.0739
0
LINE
8
BLACK
6
CONTINUOUS
10
139.129
20
-89.0739
11
139.178
21
-89.0414
0
LINE
8
BLACK
6
CONTINUOUS
10
139.178
20
-89.0414
11
139.235
21
-89.03
0
LINE
8
BLACK
6
CONTINUOUS
10
139.235
20
-89.03
11
139.535
21
-89.03
0
LINE
8
BLACK
6
CONTINUOUS
10
139.535
20
-89.03
11
139.592
21
-89.0414
0
LINE
8
BLACK
6
CONTINUOUS
10
141.492
20
-89.0414
11
141.541
21
-89.0739
0
LINE
8
BLACK
6
CONTINUOUS
10
141.541
20
-89.0739
11
141.574
21
-89.1226
0
LINE
8
BLACK
6
CONTINUOUS
10
141.574
20
-89.1226
11
141.585
21
-89.18
0
LINE
8
BLACK
6
CONTINUOUS
10
141.585
20
-89.18
11
141.585
21
-90.355
0
LINE
8
BLACK
6
CONTINUOUS
10
141.585
20
-90.355
11
141.574
21
-90.4124
0
LINE
8
BLACK
6
CONTINUOUS
10
141.574
20
-90.4124
11
141.541
21
-90.4611
0
LINE
8
BLACK
6
CONTINUOUS
10
141.541
20
-90.4611
11
141.492
21
-90.4936
0
LINE
8
BLACK
6
CONTINUOUS
10
141.492
20
-90.4936
11
141.435
21
-90.505
0
LINE
8
BLACK
6
CONTINUOUS
10
141.435
20
-90.505
11
141.135
21
-90.505
0
LINE
8
BLACK
6
CONTINUOUS
10
141.135
20
-90.505
11
141.078
21
-90.4936
0
LINE
8
BLACK
6
CONTINUOUS
10
141.078
20
-90.4936
11
141.029
21
-90.4611
0
LINE
8
BLACK
6
CONTINUOUS
10
141.029
20
-90.4611
11
140.996
21
-90.4124
0
LINE
8
BLACK
6
CONTINUOUS
10
140.996
20
-90.4124
11
140.985
21
-90.355
0
LINE
8
BLACK
6
CONTINUOUS
10
140.985
20
-90.355
11
140.985
21
-89.18
0
LINE
8
BLACK
6
CONTINUOUS
10
140.985
20
-89.18
11
140.996
21
-89.1226
0
LINE
8
BLACK
6
CONTINUOUS
10
140.996
20
-89.1226
11
141.029
21
-89.0739
0
LINE
8
BLACK
6
CONTINUOUS
10
141.029
20
-89.0739
11
141.078
21
-89.0414
0
LINE
8
BLACK
6
CONTINUOUS
10
141.078
20
-89.0414
11
141.135
21
-89.03
0
LINE
8
BLACK
6
CONTINUOUS
10
141.135
20
-89.03
11
141.435
21
-89.03
0
LINE
8
BLACK
6
CONTINUOUS
10
141.435
20
-89.03
11
141.492
21
-89.0414
0
LINE
8
BLACK
6
CONTINUOUS
10
133.872
20
-88.7389
11
133.921
21
-88.7714
0
LINE
8
BLACK
6
CONTINUOUS
10
133.921
20
-88.7714
11
133.954
21
-88.8201
0
LINE
8
BLACK
6
CONTINUOUS
10
133.954
20
-88.8201
11
133.965
21
-88.8775
0
LINE
8
BLACK
6
CONTINUOUS
10
133.965
20
-88.8775
11
133.965
21
-90.0525
0
LINE
8
BLACK
6
CONTINUOUS
10
133.965
20
-90.0525
11
133.954
21
-90.1099
0
LINE
8
BLACK
6
CONTINUOUS
10
133.954
20
-90.1099
11
133.921
21
-90.1586
0
LINE
8
BLACK
6
CONTINUOUS
10
133.921
20
-90.1586
11
133.872
21
-90.1911
0
LINE
8
BLACK
6
CONTINUOUS
10
133.872
20
-90.1911
11
133.815
21
-90.2025
0
LINE
8
BLACK
6
CONTINUOUS
10
133.815
20
-90.2025
11
133.515
21
-90.2025
0
LINE
8
BLACK
6
CONTINUOUS
10
133.515
20
-90.2025
11
133.458
21
-90.1911
0
LINE
8
BLACK
6
CONTINUOUS
10
133.458
20
-90.1911
11
133.409
21
-90.1586
0
LINE
8
BLACK
6
CONTINUOUS
10
133.409
20
-90.1586
11
133.376
21
-90.1099
0
LINE
8
BLACK
6
CONTINUOUS
10
133.376
20
-90.1099
11
133.365
21
-90.0525
0
LINE
8
BLACK
6
CONTINUOUS
10
133.365
20
-90.0525
11
133.365
21
-88.8775
0
LINE
8
BLACK
6
CONTINUOUS
10
133.365
20
-88.8775
11
133.376
21
-88.8201
0
LINE
8
BLACK
6
CONTINUOUS
10
133.376
20
-88.8201
11
133.409
21
-88.7714
0
LINE
8
BLACK
6
CONTINUOUS
10
133.409
20
-88.7714
11
133.458
21
-88.7389
0
LINE
8
BLACK
6
CONTINUOUS
10
133.458
20
-88.7389
11
133.515
21
-88.7275
0
LINE
8
BLACK
6
CONTINUOUS
10
133.515
20
-88.7275
11
133.815
21
-88.7275
0
LINE
8
BLACK
6
CONTINUOUS
10
133.815
20
-88.7275
11
133.872
21
-88.7389
0
LINE
8
BLACK
6
CONTINUOUS
10
131.972
20
-88.7389
11
132.021
21
-88.7714
0
LINE
8
BLACK
6
CONTINUOUS
10
132.021
20
-88.7714
11
132.054
21
-88.8201
0
LINE
8
BLACK
6
CONTINUOUS
10
132.054
20
-88.8201
11
132.065
21
-88.8775
0
LINE
8
BLACK
6
CONTINUOUS
10
132.065
20
-88.8775
11
132.065
21
-90.0525
0
LINE
8
BLACK
6
CONTINUOUS
10
132.065
20
-90.0525
11
132.054
21
-90.1099
0
LINE
8
BLACK
6
CONTINUOUS
10
132.054
20
-90.1099
11
132.021
21
-90.1586
0
LINE
8
BLACK
6
CONTINUOUS
10
132.021
20
-90.1586
11
131.972
21
-90.1911
0
LINE
8
BLACK
6
CONTINUOUS
10
131.972
20
-90.1911
11
131.915
21
-90.2025
0
LINE
8
BLACK
6
CONTINUOUS
10
131.915
20
-90.2025
11
131.615
21
-90.2025
0
LINE
8
BLACK
6
CONTINUOUS
10
131.615
20
-90.2025
11
131.558
21
-90.1911
0
LINE
8
BLACK
6
CONTINUOUS
10
131.558
20
-90.1911
11
131.509
21
-90.1586
0
LINE
8
BLACK
6
CONTINUOUS
10
131.509
20
-90.1586
11
131.476
21
-90.1099
0
LINE
8
BLACK
6
CONTINUOUS
10
131.476
20
-90.1099
11
131.465
21
-90.0525
0
LINE
8
BLACK
6
CONTINUOUS
10
131.465
20
-90.0525
11
131.465
21
-88.8775
0
LINE
8
BLACK
6
CONTINUOUS
10
131.465
20
-88.8775
11
131.476
21
-88.8201
0
LINE
8
BLACK
6
CONTINUOUS
10
131.476
20
-88.8201
11
131.509
21
-88.7714
0
LINE
8
BLACK
6
CONTINUOUS
10
131.509
20
-88.7714
11
131.558
21
-88.7389
0
LINE
8
BLACK
6
CONTINUOUS
10
131.558
20
-88.7389
11
131.615
21
-88.7275
0
LINE
8
BLACK
6
CONTINUOUS
10
131.615
20
-88.7275
11
131.915
21
-88.7275
0
LINE
8
BLACK
6
CONTINUOUS
10
131.915
20
-88.7275
11
131.972
21
-88.7389
0
LINE
8
BLACK
6
CONTINUOUS
10
153.992
20
-86.7654
11
154.175
21
-86.8064
0
LINE
8
BLACK
6
CONTINUOUS
10
154.175
20
-86.8064
11
154.346
21
-86.8858
0
LINE
8
BLACK
6
CONTINUOUS
10
154.346
20
-86.8858
11
154.495
21
-87
0
LINE
8
BLACK
6
CONTINUOUS
10
154.495
20
-87
11
154.616
21
-87.1435
0
LINE
8
BLACK
6
CONTINUOUS
10
154.616
20
-87.1435
11
154.704
21
-87.3097
0
LINE
8
BLACK
6
CONTINUOUS
10
154.704
20
-87.3097
11
154.754
21
-87.4909
0
LINE
8
BLACK
6
CONTINUOUS
10
154.754
20
-87.4909
11
154.764
21
-87.6786
0
LINE
8
BLACK
6
CONTINUOUS
10
154.764
20
-87.6786
11
154.733
21
-87.864
0
LINE
8
BLACK
6
CONTINUOUS
10
154.733
20
-87.864
11
154.663
21
-88.0384
0
LINE
8
BLACK
6
CONTINUOUS
10
154.663
20
-88.0384
11
154.558
21
-88.1939
0
LINE
8
BLACK
6
CONTINUOUS
10
154.558
20
-88.1939
11
154.421
21
-88.323
0
LINE
8
BLACK
6
CONTINUOUS
10
154.421
20
-88.323
11
154.26
21
-88.4198
0
LINE
8
BLACK
6
CONTINUOUS
10
154.26
20
-88.4198
11
154.082
21
-88.4797
0
LINE
8
BLACK
6
CONTINUOUS
10
154.082
20
-88.4797
11
153.895
21
-88.5
0
LINE
8
BLACK
6
CONTINUOUS
10
153.895
20
-88.5
11
153.445
21
-88.5
0
LINE
8
BLACK
6
CONTINUOUS
10
153.445
20
-88.5
11
153.348
21
-88.4946
0
LINE
8
BLACK
6
CONTINUOUS
10
153.348
20
-88.4946
11
153.165
21
-88.4536
0
LINE
8
BLACK
6
CONTINUOUS
10
153.165
20
-88.4536
11
152.994
21
-88.3742
0
LINE
8
BLACK
6
CONTINUOUS
10
152.994
20
-88.3742
11
152.845
21
-88.26
0
LINE
8
BLACK
6
CONTINUOUS
10
152.845
20
-88.26
11
152.724
21
-88.1165
0
LINE
8
BLACK
6
CONTINUOUS
10
152.724
20
-88.1165
11
152.636
21
-87.9503
0
LINE
8
BLACK
6
CONTINUOUS
10
152.636
20
-87.9503
11
152.586
21
-87.7691
0
LINE
8
BLACK
6
CONTINUOUS
10
152.586
20
-87.7691
11
152.576
21
-87.5814
0
LINE
8
BLACK
6
CONTINUOUS
10
152.576
20
-87.5814
11
152.607
21
-87.396
0
LINE
8
BLACK
6
CONTINUOUS
10
152.607
20
-87.396
11
152.677
21
-87.2216
0
LINE
8
BLACK
6
CONTINUOUS
10
152.677
20
-87.2216
11
152.782
21
-87.0661
0
LINE
8
BLACK
6
CONTINUOUS
10
152.782
20
-87.0661
11
152.919
21
-86.937
0
LINE
8
BLACK
6
CONTINUOUS
10
152.919
20
-86.937
11
153.08
21
-86.8402
0
LINE
8
BLACK
6
CONTINUOUS
10
153.08
20
-86.8402
11
153.258
21
-86.7803
0
LINE
8
BLACK
6
CONTINUOUS
10
153.258
20
-86.7803
11
153.445
21
-86.76
0
LINE
8
BLACK
6
CONTINUOUS
10
153.445
20
-86.76
11
153.895
21
-86.76
0
LINE
8
BLACK
6
CONTINUOUS
10
153.895
20
-86.76
11
153.992
21
-86.7654
0
LINE
8
BLACK
6
CONTINUOUS
10
100.69
20
-88.29
11
89.89
21
-88.29
0
LINE
8
BLACK
6
CONTINUOUS
10
89.89
20
-88.29
11
89.89
21
-78.89
0
LINE
8
BLACK
6
CONTINUOUS
10
89.89
20
-78.89
11
100.69
21
-78.89
0
LINE
8
BLACK
6
CONTINUOUS
10
100.69
20
-78.89
11
100.69
21
-88.29
0
LINE
8
BLACK
6
CONTINUOUS
10
116.308
20
-85.5811
11
116.476
21
-85.641
0
LINE
8
BLACK
6
CONTINUOUS
10
116.476
20
-85.641
11
116.626
21
-85.7365
0
LINE
8
BLACK
6
CONTINUOUS
10
116.626
20
-85.7365
11
116.752
21
-85.8631
0
LINE
8
BLACK
6
CONTINUOUS
10
116.752
20
-85.8631
11
116.846
21
-86.0143
0
LINE
8
BLACK
6
CONTINUOUS
10
116.846
20
-86.0143
11
116.905
21
-86.1828
0
LINE
8
BLACK
6
CONTINUOUS
10
116.905
20
-86.1828
11
116.925
21
-86.36
0
LINE
8
BLACK
6
CONTINUOUS
10
116.925
20
-86.36
11
116.925
21
-86.3823
0
LINE
8
BLACK
6
CONTINUOUS
10
116.925
20
-86.3823
11
116.9
21
-86.559
0
LINE
8
BLACK
6
CONTINUOUS
10
116.9
20
-86.559
11
116.837
21
-86.7257
0
LINE
8
BLACK
6
CONTINUOUS
10
116.837
20
-86.7257
11
116.738
21
-86.8742
0
LINE
8
BLACK
6
CONTINUOUS
10
116.738
20
-86.8742
11
116.609
21
-86.9972
0
LINE
8
BLACK
6
CONTINUOUS
10
116.609
20
-86.9972
11
116.455
21
-87.0885
0
LINE
8
BLACK
6
CONTINUOUS
10
116.455
20
-87.0885
11
116.286
21
-87.1437
0
LINE
8
BLACK
6
CONTINUOUS
10
116.286
20
-87.1437
11
116.108
21
-87.1598
0
LINE
8
BLACK
6
CONTINUOUS
10
116.108
20
-87.1598
11
115.931
21
-87.1362
0
LINE
8
BLACK
6
CONTINUOUS
10
115.931
20
-87.1362
11
115.764
21
-87.0741
0
LINE
8
BLACK
6
CONTINUOUS
10
115.764
20
-87.0741
11
115.615
21
-86.9764
0
LINE
8
BLACK
6
CONTINUOUS
10
115.615
20
-86.9764
11
115.491
21
-86.8481
0
LINE
8
BLACK
6
CONTINUOUS
10
115.491
20
-86.8481
11
115.399
21
-86.6956
0
LINE
8
BLACK
6
CONTINUOUS
10
115.399
20
-86.6956
11
115.342
21
-86.5263
0
LINE
8
BLACK
6
CONTINUOUS
10
115.342
20
-86.5263
11
115.325
21
-86.3488
0
LINE
8
BLACK
6
CONTINUOUS
10
115.325
20
-86.3488
11
115.347
21
-86.1719
0
LINE
8
BLACK
6
CONTINUOUS
10
115.347
20
-86.1719
11
115.408
21
-86.0043
0
LINE
8
BLACK
6
CONTINUOUS
10
115.408
20
-86.0043
11
115.505
21
-85.8544
0
LINE
8
BLACK
6
CONTINUOUS
10
115.505
20
-85.8544
11
115.632
21
-85.7296
0
LINE
8
BLACK
6
CONTINUOUS
10
115.632
20
-85.7296
11
115.784
21
-85.6361
0
LINE
8
BLACK
6
CONTINUOUS
10
115.784
20
-85.6361
11
115.953
21
-85.5787
0
LINE
8
BLACK
6
CONTINUOUS
10
115.953
20
-85.5787
11
116.131
21
-85.56
0
LINE
8
BLACK
6
CONTINUOUS
10
116.131
20
-85.56
11
116.308
21
-85.5811
0
LINE
8
BLACK
6
CONTINUOUS
10
111.308
20
-85.5811
11
111.476
21
-85.641
0
LINE
8
BLACK
6
CONTINUOUS
10
111.476
20
-85.641
11
111.626
21
-85.7365
0
LINE
8
BLACK
6
CONTINUOUS
10
111.626
20
-85.7365
11
111.752
21
-85.8631
0
LINE
8
BLACK
6
CONTINUOUS
10
111.752
20
-85.8631
11
111.846
21
-86.0143
0
LINE
8
BLACK
6
CONTINUOUS
10
111.846
20
-86.0143
11
111.905
21
-86.1828
0
LINE
8
BLACK
6
CONTINUOUS
10
111.905
20
-86.1828
11
111.925
21
-86.36
0
LINE
8
BLACK
6
CONTINUOUS
10
111.925
20
-86.36
11
111.925
21
-86.3823
0
LINE
8
BLACK
6
CONTINUOUS
10
111.925
20
-86.3823
11
111.9
21
-86.559
0
LINE
8
BLACK
6
CONTINUOUS
10
111.9
20
-86.559
11
111.837
21
-86.7257
0
LINE
8
BLACK
6
CONTINUOUS
10
111.837
20
-86.7257
11
111.738
21
-86.8742
0
LINE
8
BLACK
6
CONTINUOUS
10
111.738
20
-86.8742
11
111.609
21
-86.9972
0
LINE
8
BLACK
6
CONTINUOUS
10
111.609
20
-86.9972
11
111.455
21
-87.0885
0
LINE
8
BLACK
6
CONTINUOUS
10
111.455
20
-87.0885
11
111.286
21
-87.1437
0
LINE
8
BLACK
6
CONTINUOUS
10
111.286
20
-87.1437
11
111.108
21
-87.1598
0
LINE
8
BLACK
6
CONTINUOUS
10
111.108
20
-87.1598
11
110.931
21
-87.1362
0
LINE
8
BLACK
6
CONTINUOUS
10
110.931
20
-87.1362
11
110.764
21
-87.0741
0
LINE
8
BLACK
6
CONTINUOUS
10
110.764
20
-87.0741
11
110.615
21
-86.9764
0
LINE
8
BLACK
6
CONTINUOUS
10
110.615
20
-86.9764
11
110.491
21
-86.8481
0
LINE
8
BLACK
6
CONTINUOUS
10
110.491
20
-86.8481
11
110.399
21
-86.6956
0
LINE
8
BLACK
6
CONTINUOUS
10
110.399
20
-86.6956
11
110.342
21
-86.5263
0
LINE
8
BLACK
6
CONTINUOUS
10
110.342
20
-86.5263
11
110.325
21
-86.3488
0
LINE
8
BLACK
6
CONTINUOUS
10
110.325
20
-86.3488
11
110.347
21
-86.1719
0
LINE
8
BLACK
6
CONTINUOUS
10
110.347
20
-86.1719
11
110.408
21
-86.0043
0
LINE
8
BLACK
6
CONTINUOUS
10
110.408
20
-86.0043
11
110.505
21
-85.8544
0
LINE
8
BLACK
6
CONTINUOUS
10
110.505
20
-85.8544
11
110.632
21
-85.7296
0
LINE
8
BLACK
6
CONTINUOUS
10
110.632
20
-85.7296
11
110.784
21
-85.6361
0
LINE
8
BLACK
6
CONTINUOUS
10
110.784
20
-85.6361
11
110.953
21
-85.5787
0
LINE
8
BLACK
6
CONTINUOUS
10
110.953
20
-85.5787
11
111.131
21
-85.56
0
LINE
8
BLACK
6
CONTINUOUS
10
111.131
20
-85.56
11
111.308
21
-85.5811
0
LINE
8
BLACK
6
CONTINUOUS
10
153.992
20
-84.2254
11
154.175
21
-84.2664
0
LINE
8
BLACK
6
CONTINUOUS
10
154.175
20
-84.2664
11
154.346
21
-84.3458
0
LINE
8
BLACK
6
CONTINUOUS
10
154.346
20
-84.3458
11
154.495
21
-84.46
0
LINE
8
BLACK
6
CONTINUOUS
10
154.495
20
-84.46
11
154.616
21
-84.6035
0
LINE
8
BLACK
6
CONTINUOUS
10
154.616
20
-84.6035
11
154.704
21
-84.7697
0
LINE
8
BLACK
6
CONTINUOUS
10
154.704
20
-84.7697
11
154.754
21
-84.9509
0
LINE
8
BLACK
6
CONTINUOUS
10
154.754
20
-84.9509
11
154.764
21
-85.1386
0
LINE
8
BLACK
6
CONTINUOUS
10
154.764
20
-85.1386
11
154.733
21
-85.324
0
LINE
8
BLACK
6
CONTINUOUS
10
154.733
20
-85.324
11
154.663
21
-85.4984
0
LINE
8
BLACK
6
CONTINUOUS
10
154.663
20
-85.4984
11
154.558
21
-85.6539
0
LINE
8
BLACK
6
CONTINUOUS
10
154.558
20
-85.6539
11
154.421
21
-85.783
0
LINE
8
BLACK
6
CONTINUOUS
10
154.421
20
-85.783
11
154.26
21
-85.8798
0
LINE
8
BLACK
6
CONTINUOUS
10
154.26
20
-85.8798
11
154.082
21
-85.9397
0
LINE
8
BLACK
6
CONTINUOUS
10
154.082
20
-85.9397
11
153.895
21
-85.96
0
LINE
8
BLACK
6
CONTINUOUS
10
153.895
20
-85.96
11
153.445
21
-85.96
0
LINE
8
BLACK
6
CONTINUOUS
10
153.445
20
-85.96
11
153.348
21
-85.9546
0
LINE
8
BLACK
6
CONTINUOUS
10
153.348
20
-85.9546
11
153.165
21
-85.9136
0
LINE
8
BLACK
6
CONTINUOUS
10
153.165
20
-85.9136
11
152.994
21
-85.8342
0
LINE
8
BLACK
6
CONTINUOUS
10
152.994
20
-85.8342
11
152.845
21
-85.72
0
LINE
8
BLACK
6
CONTINUOUS
10
152.845
20
-85.72
11
152.724
21
-85.5765
0
LINE
8
BLACK
6
CONTINUOUS
10
152.724
20
-85.5765
11
152.636
21
-85.4103
0
LINE
8
BLACK
6
CONTINUOUS
10
152.636
20
-85.4103
11
152.586
21
-85.2291
0
LINE
8
BLACK
6
CONTINUOUS
10
152.586
20
-85.2291
11
152.576
21
-85.0414
0
LINE
8
BLACK
6
CONTINUOUS
10
152.576
20
-85.0414
11
152.607
21
-84.856
0
LINE
8
BLACK
6
CONTINUOUS
10
152.607
20
-84.856
11
152.677
21
-84.6816
0
LINE
8
BLACK
6
CONTINUOUS
10
152.677
20
-84.6816
11
152.782
21
-84.5261
0
LINE
8
BLACK
6
CONTINUOUS
10
152.782
20
-84.5261
11
152.919
21
-84.397
0
LINE
8
BLACK
6
CONTINUOUS
10
152.919
20
-84.397
11
153.08
21
-84.3002
0
LINE
8
BLACK
6
CONTINUOUS
10
153.08
20
-84.3002
11
153.258
21
-84.2403
0
LINE
8
BLACK
6
CONTINUOUS
10
153.258
20
-84.2403
11
153.445
21
-84.22
0
LINE
8
BLACK
6
CONTINUOUS
10
153.445
20
-84.22
11
153.895
21
-84.22
0
LINE
8
BLACK
6
CONTINUOUS
10
153.895
20
-84.22
11
153.992
21
-84.2254
0
LINE
8
BLACK
6
CONTINUOUS
10
137.876
20
-82.009
11
137.957
21
-82.0632
0
LINE
8
BLACK
6
CONTINUOUS
10
137.957
20
-82.0632
11
138.011
21
-82.1443
0
LINE
8
BLACK
6
CONTINUOUS
10
138.011
20
-82.1443
11
138.03
21
-82.24
0
LINE
8
BLACK
6
CONTINUOUS
10
138.03
20
-82.24
11
138.03
21
-83.93
0
LINE
8
BLACK
6
CONTINUOUS
10
138.03
20
-83.93
11
138.011
21
-84.0257
0
LINE
8
BLACK
6
CONTINUOUS
10
138.011
20
-84.0257
11
137.957
21
-84.1068
0
LINE
8
BLACK
6
CONTINUOUS
10
137.957
20
-84.1068
11
137.876
21
-84.161
0
LINE
8
BLACK
6
CONTINUOUS
10
137.876
20
-84.161
11
137.78
21
-84.18
0
LINE
8
BLACK
6
CONTINUOUS
10
137.78
20
-84.18
11
136.54
21
-84.18
0
LINE
8
BLACK
6
CONTINUOUS
10
136.54
20
-84.18
11
136.444
21
-84.161
0
LINE
8
BLACK
6
CONTINUOUS
10
136.444
20
-84.161
11
136.363
21
-84.1068
0
LINE
8
BLACK
6
CONTINUOUS
10
136.363
20
-84.1068
11
136.309
21
-84.0257
0
LINE
8
BLACK
6
CONTINUOUS
10
136.309
20
-84.0257
11
136.29
21
-83.93
0
LINE
8
BLACK
6
CONTINUOUS
10
136.29
20
-83.93
11
136.29
21
-82.24
0
LINE
8
BLACK
6
CONTINUOUS
10
136.29
20
-82.24
11
136.309
21
-82.1443
0
LINE
8
BLACK
6
CONTINUOUS
10
136.309
20
-82.1443
11
136.363
21
-82.0632
0
LINE
8
BLACK
6
CONTINUOUS
10
136.363
20
-82.0632
11
136.444
21
-82.009
0
LINE
8
BLACK
6
CONTINUOUS
10
136.444
20
-82.009
11
136.54
21
-81.99
0
LINE
8
BLACK
6
CONTINUOUS
10
136.54
20
-81.99
11
137.78
21
-81.99
0
LINE
8
BLACK
6
CONTINUOUS
10
137.78
20
-81.99
11
137.876
21
-82.009
0
LINE
8
BLACK
6
CONTINUOUS
10
128.351
20
-82.009
11
128.432
21
-82.0632
0
LINE
8
BLACK
6
CONTINUOUS
10
128.432
20
-82.0632
11
128.486
21
-82.1443
0
LINE
8
BLACK
6
CONTINUOUS
10
128.486
20
-82.1443
11
128.505
21
-82.24
0
LINE
8
BLACK
6
CONTINUOUS
10
128.505
20
-82.24
11
128.505
21
-83.93
0
LINE
8
BLACK
6
CONTINUOUS
10
128.505
20
-83.93
11
128.486
21
-84.0257
0
LINE
8
BLACK
6
CONTINUOUS
10
128.486
20
-84.0257
11
128.432
21
-84.1068
0
LINE
8
BLACK
6
CONTINUOUS
10
128.432
20
-84.1068
11
128.351
21
-84.161
0
LINE
8
BLACK
6
CONTINUOUS
10
128.351
20
-84.161
11
128.255
21
-84.18
0
LINE
8
BLACK
6
CONTINUOUS
10
128.255
20
-84.18
11
127.015
21
-84.18
0
LINE
8
BLACK
6
CONTINUOUS
10
127.015
20
-84.18
11
126.919
21
-84.161
0
LINE
8
BLACK
6
CONTINUOUS
10
126.919
20
-84.161
11
126.838
21
-84.1068
0
LINE
8
BLACK
6
CONTINUOUS
10
126.838
20
-84.1068
11
126.784
21
-84.0257
0
LINE
8
BLACK
6
CONTINUOUS
10
126.784
20
-84.0257
11
126.765
21
-83.93
0
LINE
8
BLACK
6
CONTINUOUS
10
126.765
20
-83.93
11
126.765
21
-82.24
0
LINE
8
BLACK
6
CONTINUOUS
10
126.765
20
-82.24
11
126.784
21
-82.1443
0
LINE
8
BLACK
6
CONTINUOUS
10
126.784
20
-82.1443
11
126.838
21
-82.0632
0
LINE
8
BLACK
6
CONTINUOUS
10
126.838
20
-82.0632
11
126.919
21
-82.009
0
LINE
8
BLACK
6
CONTINUOUS
10
126.919
20
-82.009
11
127.015
21
-81.99
0
LINE
8
BLACK
6
CONTINUOUS
10
127.015
20
-81.99
11
128.255
21
-81.99
0
LINE
8
BLACK
6
CONTINUOUS
10
128.255
20
-81.99
11
128.351
21
-82.009
0
LINE
8
BLACK
6
CONTINUOUS
10
139.934
20
-82.022
11
140.108
21
-82.0918
0
LINE
8
BLACK
6
CONTINUOUS
10
140.108
20
-82.0918
11
140.264
21
-82.1975
0
LINE
8
BLACK
6
CONTINUOUS
10
140.264
20
-82.1975
11
140.393
21
-82.334
0
LINE
8
BLACK
6
CONTINUOUS
10
140.393
20
-82.334
11
140.49
21
-82.4951
0
LINE
8
BLACK
6
CONTINUOUS
10
140.49
20
-82.4951
11
140.55
21
-82.6732
0
LINE
8
BLACK
6
CONTINUOUS
10
140.55
20
-82.6732
11
140.57
21
-82.86
0
LINE
8
BLACK
6
CONTINUOUS
10
140.57
20
-82.86
11
140.57
21
-83.31
0
LINE
8
BLACK
6
CONTINUOUS
10
140.57
20
-83.31
11
140.565
21
-83.407
0
LINE
8
BLACK
6
CONTINUOUS
10
140.565
20
-83.407
11
140.524
21
-83.5904
0
LINE
8
BLACK
6
CONTINUOUS
10
140.524
20
-83.5904
11
140.444
21
-83.7607
0
LINE
8
BLACK
6
CONTINUOUS
10
140.444
20
-83.7607
11
140.33
21
-83.91
0
LINE
8
BLACK
6
CONTINUOUS
10
140.33
20
-83.91
11
140.186
21
-84.0313
0
LINE
8
BLACK
6
CONTINUOUS
10
140.186
20
-84.0313
11
140.02
21
-84.1189
0
LINE
8
BLACK
6
CONTINUOUS
10
140.02
20
-84.1189
11
139.839
21
-84.1688
0
LINE
8
BLACK
6
CONTINUOUS
10
139.839
20
-84.1688
11
139.651
21
-84.1786
0
LINE
8
BLACK
6
CONTINUOUS
10
139.651
20
-84.1786
11
139.466
21
-84.148
0
LINE
8
BLACK
6
CONTINUOUS
10
139.466
20
-84.148
11
139.292
21
-84.0782
0
LINE
8
BLACK
6
CONTINUOUS
10
139.292
20
-84.0782
11
139.136
21
-83.9725
0
LINE
8
BLACK
6
CONTINUOUS
10
139.136
20
-83.9725
11
139.007
21
-83.836
0
LINE
8
BLACK
6
CONTINUOUS
10
139.007
20
-83.836
11
138.91
21
-83.6749
0
LINE
8
BLACK
6
CONTINUOUS
10
138.91
20
-83.6749
11
138.85
21
-83.4968
0
LINE
8
BLACK
6
CONTINUOUS
10
138.85
20
-83.4968
11
138.83
21
-83.31
0
LINE
8
BLACK
6
CONTINUOUS
10
138.83
20
-83.31
11
138.83
21
-82.86
0
LINE
8
BLACK
6
CONTINUOUS
10
138.83
20
-82.86
11
138.835
21
-82.763
0
LINE
8
BLACK
6
CONTINUOUS
10
138.835
20
-82.763
11
138.876
21
-82.5796
0
LINE
8
BLACK
6
CONTINUOUS
10
138.876
20
-82.5796
11
138.956
21
-82.4093
0
LINE
8
BLACK
6
CONTINUOUS
10
138.956
20
-82.4093
11
139.07
21
-82.26
0
LINE
8
BLACK
6
CONTINUOUS
10
139.07
20
-82.26
11
139.214
21
-82.1387
0
LINE
8
BLACK
6
CONTINUOUS
10
139.214
20
-82.1387
11
139.38
21
-82.0511
0
LINE
8
BLACK
6
CONTINUOUS
10
139.38
20
-82.0511
11
139.561
21
-82.0012
0
LINE
8
BLACK
6
CONTINUOUS
10
139.561
20
-82.0012
11
139.749
21
-81.9914
0
LINE
8
BLACK
6
CONTINUOUS
10
139.749
20
-81.9914
11
139.934
21
-82.022
0
LINE
8
BLACK
6
CONTINUOUS
10
130.409
20
-82.022
11
130.583
21
-82.0918
0
LINE
8
BLACK
6
CONTINUOUS
10
130.583
20
-82.0918
11
130.739
21
-82.1975
0
LINE
8
BLACK
6
CONTINUOUS
10
130.739
20
-82.1975
11
130.868
21
-82.334
0
LINE
8
BLACK
6
CONTINUOUS
10
130.868
20
-82.334
11
130.965
21
-82.4951
0
LINE
8
BLACK
6
CONTINUOUS
10
130.965
20
-82.4951
11
131.025
21
-82.6732
0
LINE
8
BLACK
6
CONTINUOUS
10
131.025
20
-82.6732
11
131.045
21
-82.86
0
LINE
8
BLACK
6
CONTINUOUS
10
131.045
20
-82.86
11
131.045
21
-83.31
0
LINE
8
BLACK
6
CONTINUOUS
10
131.045
20
-83.31
11
131.04
21
-83.407
0
LINE
8
BLACK
6
CONTINUOUS
10
131.04
20
-83.407
11
130.999
21
-83.5904
0
LINE
8
BLACK
6
CONTINUOUS
10
130.999
20
-83.5904
11
130.919
21
-83.7607
0
LINE
8
BLACK
6
CONTINUOUS
10
130.919
20
-83.7607
11
130.805
21
-83.91
0
LINE
8
BLACK
6
CONTINUOUS
10
130.805
20
-83.91
11
130.661
21
-84.0313
0
LINE
8
BLACK
6
CONTINUOUS
10
130.661
20
-84.0313
11
130.495
21
-84.1189
0
LINE
8
BLACK
6
CONTINUOUS
10
130.495
20
-84.1189
11
130.314
21
-84.1688
0
LINE
8
BLACK
6
CONTINUOUS
10
130.314
20
-84.1688
11
130.126
21
-84.1786
0
LINE
8
BLACK
6
CONTINUOUS
10
130.126
20
-84.1786
11
129.941
21
-84.148
0
LINE
8
BLACK
6
CONTINUOUS
10
129.941
20
-84.148
11
129.767
21
-84.0782
0
LINE
8
BLACK
6
CONTINUOUS
10
129.767
20
-84.0782
11
129.611
21
-83.9725
0
LINE
8
BLACK
6
CONTINUOUS
10
129.611
20
-83.9725
11
129.482
21
-83.836
0
LINE
8
BLACK
6
CONTINUOUS
10
129.482
20
-83.836
11
129.385
21
-83.6749
0
LINE
8
BLACK
6
CONTINUOUS
10
129.385
20
-83.6749
11
129.325
21
-83.4968
0
LINE
8
BLACK
6
CONTINUOUS
10
129.325
20
-83.4968
11
129.305
21
-83.31
0
LINE
8
BLACK
6
CONTINUOUS
10
129.305
20
-83.31
11
129.305
21
-82.86
0
LINE
8
BLACK
6
CONTINUOUS
10
129.305
20
-82.86
11
129.31
21
-82.763
0
LINE
8
BLACK
6
CONTINUOUS
10
129.31
20
-82.763
11
129.351
21
-82.5796
0
LINE
8
BLACK
6
CONTINUOUS
10
129.351
20
-82.5796
11
129.431
21
-82.4093
0
LINE
8
BLACK
6
CONTINUOUS
10
129.431
20
-82.4093
11
129.545
21
-82.26
0
LINE
8
BLACK
6
CONTINUOUS
10
129.545
20
-82.26
11
129.689
21
-82.1387
0
LINE
8
BLACK
6
CONTINUOUS
10
129.689
20
-82.1387
11
129.855
21
-82.0511
0
LINE
8
BLACK
6
CONTINUOUS
10
129.855
20
-82.0511
11
130.036
21
-82.0012
0
LINE
8
BLACK
6
CONTINUOUS
10
130.036
20
-82.0012
11
130.224
21
-81.9914
0
LINE
8
BLACK
6
CONTINUOUS
10
130.224
20
-81.9914
11
130.409
21
-82.022
0
LINE
8
BLACK
6
CONTINUOUS
10
153.992
20
-81.6854
11
154.175
21
-81.7264
0
LINE
8
BLACK
6
CONTINUOUS
10
154.175
20
-81.7264
11
154.346
21
-81.8058
0
LINE
8
BLACK
6
CONTINUOUS
10
154.346
20
-81.8058
11
154.495
21
-81.92
0
LINE
8
BLACK
6
CONTINUOUS
10
154.495
20
-81.92
11
154.616
21
-82.0635
0
LINE
8
BLACK
6
CONTINUOUS
10
154.616
20
-82.0635
11
154.704
21
-82.2297
0
LINE
8
BLACK
6
CONTINUOUS
10
154.704
20
-82.2297
11
154.754
21
-82.4109
0
LINE
8
BLACK
6
CONTINUOUS
10
154.754
20
-82.4109
11
154.764
21
-82.5986
0
LINE
8
BLACK
6
CONTINUOUS
10
154.764
20
-82.5986
11
154.733
21
-82.784
0
LINE
8
BLACK
6
CONTINUOUS
10
154.733
20
-82.784
11
154.663
21
-82.9584
0
LINE
8
BLACK
6
CONTINUOUS
10
154.663
20
-82.9584
11
154.558
21
-83.1139
0
LINE
8
BLACK
6
CONTINUOUS
10
154.558
20
-83.1139
11
154.421
21
-83.243
0
LINE
8
BLACK
6
CONTINUOUS
10
154.421
20
-83.243
11
154.26
21
-83.3398
0
LINE
8
BLACK
6
CONTINUOUS
10
154.26
20
-83.3398
11
154.082
21
-83.3997
0
LINE
8
BLACK
6
CONTINUOUS
10
154.082
20
-83.3997
11
153.895
21
-83.42
0
LINE
8
BLACK
6
CONTINUOUS
10
153.895
20
-83.42
11
153.445
21
-83.42
0
LINE
8
BLACK
6
CONTINUOUS
10
153.445
20
-83.42
11
153.348
21
-83.4146
0
LINE
8
BLACK
6
CONTINUOUS
10
153.348
20
-83.4146
11
153.165
21
-83.3736
0
LINE
8
BLACK
6
CONTINUOUS
10
153.165
20
-83.3736
11
152.994
21
-83.2942
0
LINE
8
BLACK
6
CONTINUOUS
10
152.994
20
-83.2942
11
152.845
21
-83.18
0
LINE
8
BLACK
6
CONTINUOUS
10
152.845
20
-83.18
11
152.724
21
-83.0365
0
LINE
8
BLACK
6
CONTINUOUS
10
152.724
20
-83.0365
11
152.636
21
-82.8703
0
LINE
8
BLACK
6
CONTINUOUS
10
152.636
20
-82.8703
11
152.586
21
-82.6891
0
LINE
8
BLACK
6
CONTINUOUS
10
152.586
20
-82.6891
11
152.576
21
-82.5014
0
LINE
8
BLACK
6
CONTINUOUS
10
152.576
20
-82.5014
11
152.607
21
-82.316
0
LINE
8
BLACK
6
CONTINUOUS
10
152.607
20
-82.316
11
152.677
21
-82.1416
0
LINE
8
BLACK
6
CONTINUOUS
10
152.677
20
-82.1416
11
152.782
21
-81.9861
0
LINE
8
BLACK
6
CONTINUOUS
10
152.782
20
-81.9861
11
152.919
21
-81.857
0
LINE
8
BLACK
6
CONTINUOUS
10
152.919
20
-81.857
11
153.08
21
-81.7602
0
LINE
8
BLACK
6
CONTINUOUS
10
153.08
20
-81.7602
11
153.258
21
-81.7003
0
LINE
8
BLACK
6
CONTINUOUS
10
153.258
20
-81.7003
11
153.445
21
-81.68
0
LINE
8
BLACK
6
CONTINUOUS
10
153.445
20
-81.68
11
153.895
21
-81.68
0
LINE
8
BLACK
6
CONTINUOUS
10
153.895
20
-81.68
11
153.992
21
-81.6854
0
LINE
8
BLACK
6
CONTINUOUS
10
153.992
20
-79.1454
11
154.175
21
-79.1864
0
LINE
8
BLACK
6
CONTINUOUS
10
154.175
20
-79.1864
11
154.346
21
-79.2658
0
LINE
8
BLACK
6
CONTINUOUS
10
154.346
20
-79.2658
11
154.495
21
-79.38
0
LINE
8
BLACK
6
CONTINUOUS
10
154.495
20
-79.38
11
154.616
21
-79.5235
0
LINE
8
BLACK
6
CONTINUOUS
10
154.616
20
-79.5235
11
154.704
21
-79.6897
0
LINE
8
BLACK
6
CONTINUOUS
10
154.704
20
-79.6897
11
154.754
21
-79.8709
0
LINE
8
BLACK
6
CONTINUOUS
10
154.754
20
-79.8709
11
154.764
21
-80.0586
0
LINE
8
BLACK
6
CONTINUOUS
10
154.764
20
-80.0586
11
154.733
21
-80.244
0
LINE
8
BLACK
6
CONTINUOUS
10
154.733
20
-80.244
11
154.663
21
-80.4184
0
LINE
8
BLACK
6
CONTINUOUS
10
154.663
20
-80.4184
11
154.558
21
-80.5739
0
LINE
8
BLACK
6
CONTINUOUS
10
154.558
20
-80.5739
11
154.421
21
-80.703
0
LINE
8
BLACK
6
CONTINUOUS
10
154.421
20
-80.703
11
154.26
21
-80.7998
0
LINE
8
BLACK
6
CONTINUOUS
10
154.26
20
-80.7998
11
154.082
21
-80.8597
0
LINE
8
BLACK
6
CONTINUOUS
10
154.082
20
-80.8597
11
153.895
21
-80.88
0
LINE
8
BLACK
6
CONTINUOUS
10
153.895
20
-80.88
11
153.445
21
-80.88
0
LINE
8
BLACK
6
CONTINUOUS
10
153.445
20
-80.88
11
153.348
21
-80.8746
0
LINE
8
BLACK
6
CONTINUOUS
10
153.348
20
-80.8746
11
153.165
21
-80.8336
0
LINE
8
BLACK
6
CONTINUOUS
10
153.165
20
-80.8336
11
152.994
21
-80.7542
0
LINE
8
BLACK
6
CONTINUOUS
10
152.994
20
-80.7542
11
152.845
21
-80.64
0
LINE
8
BLACK
6
CONTINUOUS
10
152.845
20
-80.64
11
152.724
21
-80.4965
0
LINE
8
BLACK
6
CONTINUOUS
10
152.724
20
-80.4965
11
152.636
21
-80.3303
0
LINE
8
BLACK
6
CONTINUOUS
10
152.636
20
-80.3303
11
152.586
21
-80.1491
0
LINE
8
BLACK
6
CONTINUOUS
10
152.586
20
-80.1491
11
152.576
21
-79.9614
0
LINE
8
BLACK
6
CONTINUOUS
10
152.576
20
-79.9614
11
152.607
21
-79.776
0
LINE
8
BLACK
6
CONTINUOUS
10
152.607
20
-79.776
11
152.677
21
-79.6016
0
LINE
8
BLACK
6
CONTINUOUS
10
152.677
20
-79.6016
11
152.782
21
-79.4461
0
LINE
8
BLACK
6
CONTINUOUS
10
152.782
20
-79.4461
11
152.919
21
-79.317
0
LINE
8
BLACK
6
CONTINUOUS
10
152.919
20
-79.317
11
153.08
21
-79.2202
0
LINE
8
BLACK
6
CONTINUOUS
10
153.08
20
-79.2202
11
153.258
21
-79.1603
0
LINE
8
BLACK
6
CONTINUOUS
10
153.258
20
-79.1603
11
153.445
21
-79.14
0
LINE
8
BLACK
6
CONTINUOUS
10
153.445
20
-79.14
11
153.895
21
-79.14
0
LINE
8
BLACK
6
CONTINUOUS
10
153.895
20
-79.14
11
153.992
21
-79.1454
0
LINE
8
BLACK
6
CONTINUOUS
10
86.3246
20
-151.8
11
86.31
21
-151.765
0
LINE
8
BLACK
6
CONTINUOUS
10
86.31
20
-151.765
11
86.31
21
-76.2
0
LINE
8
BLACK
6
CONTINUOUS
10
86.31
20
-76.2
11
86.3246
21
-76.1646
0
LINE
8
BLACK
6
CONTINUOUS
10
86.3246
20
-76.1646
11
86.36
21
-76.15
0
LINE
8
BLACK
6
CONTINUOUS
10
86.36
20
-76.15
11
160.02
21
-76.15
0
LINE
8
BLACK
6
CONTINUOUS
10
160.02
20
-76.15
11
160.055
21
-76.1646
0
LINE
8
BLACK
6
CONTINUOUS
10
160.055
20
-76.1646
11
160.07
21
-76.2
0
LINE
8
BLACK
6
CONTINUOUS
10
160.07
20
-76.2
11
160.07
21
-151.765
0
LINE
8
BLACK
6
CONTINUOUS
10
160.07
20
-151.765
11
160.055
21
-151.8
0
LINE
8
BLACK
6
CONTINUOUS
10
160.055
20
-151.8
11
160.02
21
-151.815
0
LINE
8
BLACK
6
CONTINUOUS
10
160.02
20
-151.815
11
86.36
21
-151.815
0
LINE
8
BLACK
6
CONTINUOUS
10
86.36
20
-151.815
11
86.3246
21
-151.8
0
LINE
8
BLACK
6
CONTINUOUS
10
86.41
20
-76.25
11
86.41
21
-151.715
0
LINE
8
BLACK
6
CONTINUOUS
10
86.41
20
-151.715
11
159.97
21
-151.715
0
LINE
8
BLACK
6
CONTINUOUS
10
159.97
20
-151.715
11
159.97
21
-76.25
0
LINE
8
BLACK
6
CONTINUOUS
10
159.97
20
-76.25
11
86.41
21
-76.25
  0
ENDSEC
  0
EOF
