M48
METRIC
T1C0.800
T2C0.800
T3C0.900
T4C1.190
T5C1.520
%
G90
G05
T1
X103.505Y-116.205
X110.49Y-97.79
X124.46Y-102.235
X125.095Y-80.645
X127.0Y-133.35
X129.54Y-139.065
X131.445Y-79.375
X133.986Y-93.98
X139.065Y-93.98
X142.875Y-80.645
X142.875Y-111.125
X144.145Y-132.715
X146.685Y-88.265
T2
X106.68Y-121.92
X106.68Y-132.08
X109.22Y-141.605
X109.22Y-146.605
X111.125Y-86.36
X111.68Y-121.92
X111.68Y-132.08
X116.125Y-86.36
X148.67Y-138.43
X153.67Y-138.43
T3
X117.475Y-112.395
X117.475Y-113.665
X117.475Y-114.935
X117.475Y-116.205
X148.4Y-121.595
X148.4Y-122.865
X148.4Y-124.135
X148.4Y-125.405
T4
X117.495Y-97.155
X117.495Y-99.695
X117.495Y-102.235
X117.495Y-104.775
X122.555Y-142.875
X122.555Y-145.415
X122.555Y-147.955
X127.635Y-83.085
X130.175Y-83.085
X137.16Y-83.085
X139.7Y-83.085
X153.67Y-80.01
X153.67Y-82.55
X153.67Y-85.09
X153.67Y-87.63
X153.67Y-90.17
X153.67Y-92.71
X153.67Y-95.25
T5
X134.62Y-138.43
X139.7Y-138.43
T0
M30
