%TF.GenerationSoftware,KiCad,Pcbnew,6.0.11+dfsg-1*%
%TF.CreationDate,2024-04-13T21:45:18-04:00*%
%TF.ProjectId,MainPCBV1,4d61696e-5043-4425-9631-2e6b69636164,rev?*%
%TF.SameCoordinates,Original*%
%TF.FileFunction,Copper,L2,Bot*%
%TF.FilePolarity,Positive*%
%FSLAX45Y45*%
G04 Gerber Fmt 4.5, Leading zero omitted, Abs format (unit mm)*
G04 Created by KiCad (PCBNEW 6.0.11+dfsg-1) date 2024-04-13 21:45:18*
%MOMM*%
%LPD*%
G01*
G04 APERTURE LIST*
G04 Aperture macros list*
%AMRoundRect*
0 Rectangle with rounded corners*
0 $1 Rounding radius*
0 $2 $3 $4 $5 $6 $7 $8 $9 X,Y pos of 4 corners*
0 Add a 4 corners polygon primitive as box body*
4,1,4,$2,$3,$4,$5,$6,$7,$8,$9,$2,$3,0*
0 Add four circle primitives for the rounded corners*
1,1,$1+$1,$2,$3*
1,1,$1+$1,$4,$5*
1,1,$1+$1,$6,$7*
1,1,$1+$1,$8,$9*
0 Add four rect primitives between the rounded corners*
20,1,$1+$1,$2,$3,$4,$5,0*
20,1,$1+$1,$4,$5,$6,$7,0*
20,1,$1+$1,$6,$7,$8,$9,0*
20,1,$1+$1,$8,$9,$2,$3,0*%
G04 Aperture macros list end*
%TA.AperFunction,Profile*%
%ADD10C,0.100000*%
%TD*%
%TA.AperFunction,ComponentPad*%
%ADD11C,1.600000*%
%TD*%
%TA.AperFunction,ComponentPad*%
%ADD12RoundRect,0.250000X0.845000X-0.620000X0.845000X0.620000X-0.845000X0.620000X-0.845000X-0.620000X0*%
%TD*%
%TA.AperFunction,ComponentPad*%
%ADD13O,2.190000X1.740000*%
%TD*%
%TA.AperFunction,ComponentPad*%
%ADD14RoundRect,0.250000X-0.620000X-0.845000X0.620000X-0.845000X0.620000X0.845000X-0.620000X0.845000X0*%
%TD*%
%TA.AperFunction,ComponentPad*%
%ADD15O,1.740000X2.190000*%
%TD*%
%TA.AperFunction,ComponentPad*%
%ADD16R,3.000000X3.000000*%
%TD*%
%TA.AperFunction,ComponentPad*%
%ADD17C,3.000000*%
%TD*%
%TA.AperFunction,ComponentPad*%
%ADD18R,1.800000X1.070000*%
%TD*%
%TA.AperFunction,ComponentPad*%
%ADD19O,1.800000X1.070000*%
%TD*%
%TA.AperFunction,ViaPad*%
%ADD20C,1.800000*%
%TD*%
%TA.AperFunction,Conductor*%
%ADD21C,0.850000*%
%TD*%
G04 APERTURE END LIST*
D10*
X8636000Y-7620000D02*
X16002000Y-7620000D01*
X16002000Y-7620000D02*
X16002000Y-15176500D01*
X16002000Y-15176500D02*
X8636000Y-15176500D01*
X8636000Y-15176500D02*
X8636000Y-7620000D01*
D11*
%TO.P,C8,1*%
%TO.N,+5VL*%
X10922000Y-14660500D03*
%TO.P,C8,2*%
%TO.N,GND*%
X10922000Y-14160500D03*
%TD*%
D12*
%TO.P,PowerAmplifier1,1,Pin_1*%
%TO.N,+5VL*%
X11749500Y-10477500D03*
D13*
%TO.P,PowerAmplifier1,2,Pin_2*%
%TO.N,unconnected-(PowerAmplifier1-Pad2)*%
X11749500Y-10223500D03*
%TO.P,PowerAmplifier1,3,Pin_3*%
%TO.N,unconnected-(PowerAmplifier1-Pad3)*%
X11749500Y-9969500D03*
%TO.P,PowerAmplifier1,4,Pin_4*%
%TO.N,GND*%
X11749500Y-9715500D03*
%TD*%
D14*
%TO.P,fan1,1,Pin_1*%
%TO.N,+12V*%
X12763500Y-8308500D03*
D15*
%TO.P,fan1,2,Pin_2*%
%TO.N,Net-(Q1-Pad4)*%
X13017500Y-8308500D03*
%TD*%
D16*
%TO.P,BATTERY1,1,Pin_1*%
%TO.N,+12VA*%
X13462000Y-13843000D03*
D17*
%TO.P,BATTERY1,2,Pin_2*%
%TO.N,GND*%
X13970000Y-13843000D03*
%TD*%
D11*
%TO.P,C3,1*%
%TO.N,+12V*%
X14867000Y-13843000D03*
%TO.P,C3,2*%
%TO.N,GND*%
X15367000Y-13843000D03*
%TD*%
D12*
%TO.P,SWITCH1,1,A*%
%TO.N,+12V*%
X12255500Y-14795500D03*
D13*
%TO.P,SWITCH1,2,B*%
%TO.N,+12VA*%
X12255500Y-14541500D03*
%TO.P,SWITCH1,3,C*%
%TO.N,unconnected-(SWITCH1-Pad3)*%
X12255500Y-14287500D03*
%TD*%
D11*
%TO.P,C5,1*%
%TO.N,+12V*%
X10668000Y-12192000D03*
%TO.P,C5,2*%
%TO.N,GND*%
X11168000Y-12192000D03*
%TD*%
D12*
%TO.P,ZE08-CH2O1,1,Pin_1*%
%TO.N,unconnected-(ZE08-CH2O1-Pad1)*%
X15367000Y-9525000D03*
D13*
%TO.P,ZE08-CH2O1,2,Pin_2*%
%TO.N,DAC1*%
X15367000Y-9271000D03*
%TO.P,ZE08-CH2O1,3,Pin_3*%
%TO.N,GND*%
X15367000Y-9017000D03*
%TO.P,ZE08-CH2O1,4,Pin_4*%
%TO.N,+5V*%
X15367000Y-8763000D03*
%TO.P,ZE08-CH2O1,5,Pin_5*%
%TO.N,RXD*%
X15367000Y-8509000D03*
%TO.P,ZE08-CH2O1,6,Pin_6*%
%TO.N,TXD*%
X15367000Y-8255000D03*
%TO.P,ZE08-CH2O1,7,Pin_7*%
%TO.N,unconnected-(ZE08-CH2O1-Pad7)*%
X15367000Y-8001000D03*
%TD*%
D18*
%TO.P,D3,1,BA*%
%TO.N,Net-(D3-Pad1)*%
X11747500Y-11620500D03*
D19*
%TO.P,D3,2,RA*%
%TO.N,Net-(U4-Pad3)*%
X11747500Y-11493500D03*
%TO.P,D3,3,GA*%
%TO.N,Net-(U4-Pad2)*%
X11747500Y-11366500D03*
%TO.P,D3,4,K*%
%TO.N,Net-(D3-Pad4)*%
X11747500Y-11239500D03*
%TD*%
D11*
%TO.P,C1,1*%
%TO.N,+12V*%
X10668000Y-13208000D03*
%TO.P,C1,2*%
%TO.N,GND*%
X11168000Y-13208000D03*
%TD*%
D18*
%TO.P,D4,1,BA*%
%TO.N,Net-(D4-Pad1)*%
X14840000Y-12540468D03*
D19*
%TO.P,D4,2,RA*%
%TO.N,Net-(U4-Pad10)*%
X14840000Y-12413468D03*
%TO.P,D4,3,GA*%
%TO.N,Net-(U4-Pad11)*%
X14840000Y-12286468D03*
%TO.P,D4,4,K*%
%TO.N,Net-(D4-Pad4)*%
X14840000Y-12159468D03*
%TD*%
D14*
%TO.P,fan2,1,Pin_1*%
%TO.N,+12V*%
X13716000Y-8308500D03*
D15*
%TO.P,fan2,2,Pin_2*%
%TO.N,Net-(Q3-Pad4)*%
X13970000Y-8308500D03*
%TD*%
D11*
%TO.P,C6,1*%
%TO.N,+5VA*%
X11612500Y-8636000D03*
%TO.P,C6,2*%
%TO.N,GND*%
X11112500Y-8636000D03*
%TD*%
D20*
%TO.N,GND*%
X14414500Y-13271500D03*
X11049000Y-9779000D03*
X13906500Y-9398000D03*
%TO.N,+5VL*%
X10350500Y-11620500D03*
%TO.N,Net-(Q1-Pad4)*%
X12446000Y-10223500D03*
X13144500Y-7937500D03*
%TO.N,+12V*%
X12509500Y-8064500D03*
%TO.N,+5V*%
X14668500Y-8826500D03*
%TO.N,DAC1*%
X13398550Y-9398000D03*
%TO.N,RXD*%
X12700000Y-13335000D03*
%TO.N,TXD*%
X12954000Y-13906500D03*
%TO.N,+5VA*%
X14287500Y-11112500D03*
%TO.N,Net-(Q3-Pad4)*%
X14287500Y-8064500D03*
%TD*%
D21*
%TO.N,GND*%
X15494000Y-14414500D02*
X14859000Y-15049500D01*
X10541000Y-15049500D02*
X10350500Y-14859000D01*
X10731500Y-11684000D02*
X10731500Y-11620500D01*
X15621000Y-9715500D02*
X15557500Y-9779000D01*
X12192000Y-10477500D02*
X12192000Y-9969500D01*
X12319000Y-13504008D02*
X12492992Y-13678000D01*
X14414500Y-13271500D02*
X14859000Y-13271500D01*
X14414500Y-13589000D02*
X14414500Y-13271500D01*
X11749500Y-9715500D02*
X11112500Y-9715500D01*
X11168000Y-13208000D02*
X11168000Y-12192000D01*
X10922000Y-14160500D02*
X10922000Y-13454000D01*
X11557000Y-10795000D02*
X11874500Y-10795000D01*
X12319000Y-11684000D02*
X12319000Y-13504008D01*
X15557500Y-9779000D02*
X14224000Y-9779000D01*
X15367000Y-9017000D02*
X15346925Y-9017000D01*
X11938000Y-9715500D02*
X11749500Y-9715500D01*
X12192000Y-9969500D02*
X11938000Y-9715500D01*
X10731500Y-11620500D02*
X11557000Y-10795000D01*
X13202000Y-13678000D02*
X13608500Y-13271500D01*
X13906500Y-9969500D02*
X13970000Y-10033000D01*
X10922000Y-13454000D02*
X11168000Y-13208000D01*
X13608500Y-13271500D02*
X14414500Y-13271500D01*
X11112500Y-9715500D02*
X11049000Y-9779000D01*
X15621000Y-9291075D02*
X15621000Y-9715500D01*
X14859000Y-13271500D02*
X15494000Y-13906500D01*
X10350500Y-14859000D02*
X10350500Y-12065000D01*
X13970000Y-13843000D02*
X14160500Y-13843000D01*
X14160500Y-13843000D02*
X14414500Y-13589000D01*
X11874500Y-10795000D02*
X12192000Y-10477500D01*
X14224000Y-9779000D02*
X13970000Y-10033000D01*
X12492992Y-13678000D02*
X13202000Y-13678000D01*
X13970000Y-10033000D02*
X12319000Y-11684000D01*
X14859000Y-15049500D02*
X10541000Y-15049500D01*
X10350500Y-12065000D02*
X10731500Y-11684000D01*
X15494000Y-13906500D02*
X15494000Y-14414500D01*
X13906500Y-9398000D02*
X13906500Y-9969500D01*
X15346925Y-9017000D02*
X15621000Y-9291075D01*
%TO.N,+5VL*%
X10350500Y-11620500D02*
X11493500Y-10477500D01*
X11493500Y-10477500D02*
X11749500Y-10477500D01*
%TO.N,Net-(Q1-Pad4)*%
X13144500Y-8953500D02*
X12509500Y-9588500D01*
X12446000Y-9652000D02*
X12446000Y-10223500D01*
X12509500Y-9588500D02*
X12446000Y-9652000D01*
X13144500Y-7937500D02*
X13144500Y-8953500D01*
%TO.N,+12V*%
X12255500Y-14795500D02*
X11303000Y-14795500D01*
X13914500Y-14795500D02*
X12255500Y-14795500D01*
X12509500Y-8064500D02*
X12753500Y-8308500D01*
X10668000Y-14160500D02*
X10668000Y-13208000D01*
X10668000Y-13208000D02*
X10668000Y-12192000D01*
X12753500Y-8308500D02*
X12763500Y-8308500D01*
X14867000Y-13843000D02*
X13914500Y-14795500D01*
X11303000Y-14795500D02*
X10668000Y-14160500D01*
%TO.N,+5V*%
X15367000Y-8763000D02*
X14732000Y-8763000D01*
X14732000Y-8763000D02*
X14668500Y-8826500D01*
%TO.N,DAC1*%
X13779500Y-9017000D02*
X14732000Y-9017000D01*
X14732000Y-9017000D02*
X14986000Y-9271000D01*
X13398550Y-9397950D02*
X13779500Y-9017000D01*
X13398550Y-9398000D02*
X13398550Y-9397950D01*
X14986000Y-9271000D02*
X15367000Y-9271000D01*
%TO.N,RXD*%
X15748000Y-10477500D02*
X15748000Y-8636000D01*
X12890500Y-13335000D02*
X15748000Y-10477500D01*
X15748000Y-8636000D02*
X15621000Y-8509000D01*
X12700000Y-13335000D02*
X12890500Y-13335000D01*
X15621000Y-8509000D02*
X15367000Y-8509000D01*
%TO.N,TXD*%
X12954000Y-13906500D02*
X12446000Y-13906500D01*
X12890500Y-10414000D02*
X12890500Y-9652000D01*
X12192000Y-13652500D02*
X12192000Y-11112500D01*
X12890500Y-9652000D02*
X14287500Y-8255000D01*
X14287500Y-8255000D02*
X15367000Y-8255000D01*
X12446000Y-13906500D02*
X12192000Y-13652500D01*
X12192000Y-11112500D02*
X12890500Y-10414000D01*
%TO.N,+5VA*%
X15875000Y-8191500D02*
X15430500Y-7747000D01*
X14097000Y-11112500D02*
X12446000Y-12763500D01*
X12446000Y-12763500D02*
X12446000Y-13335000D01*
X15875000Y-10795000D02*
X15875000Y-8191500D01*
X13182500Y-13487500D02*
X15875000Y-10795000D01*
X14287500Y-11112500D02*
X14097000Y-11112500D01*
X12446000Y-13335000D02*
X12598500Y-13487500D01*
X12598500Y-13487500D02*
X13182500Y-13487500D01*
X15430500Y-7747000D02*
X12501500Y-7747000D01*
X12501500Y-7747000D02*
X11612500Y-8636000D01*
%TO.N,Net-(Q3-Pad4)*%
X14043500Y-8308500D02*
X14255750Y-8096250D01*
X14255750Y-8096250D02*
X14287500Y-8064500D01*
X13970000Y-8308500D02*
X14043500Y-8308500D01*
%TO.N,+12VA*%
X13462000Y-13843000D02*
X13271500Y-13843000D01*
X12573000Y-14541500D02*
X12255500Y-14541500D01*
X13271500Y-13843000D02*
X12573000Y-14541500D01*
%TD*%
%TA.AperFunction,NonConductor*%
G36*
X15896162Y-7722050D02*
G01*
X15900811Y-7727416D01*
X15901950Y-7732650D01*
X15901950Y-7986435D01*
X15899950Y-7993247D01*
X15894584Y-7997896D01*
X15887557Y-7998907D01*
X15881099Y-7995957D01*
X15880440Y-7995344D01*
X15626656Y-7741559D01*
X15623253Y-7735328D01*
X15623760Y-7728247D01*
X15628014Y-7722563D01*
X15634666Y-7720082D01*
X15635565Y-7720050D01*
X15889350Y-7720050D01*
X15896162Y-7722050D01*
G37*
%TD.AperFunction*%
%TA.AperFunction,NonConductor*%
G36*
X15177714Y-7891550D02*
G01*
X15182363Y-7896916D01*
X15183373Y-7903943D01*
X15182052Y-7908016D01*
X15172636Y-7925914D01*
X15172484Y-7926344D01*
X15172484Y-7926345D01*
X15168545Y-7937500D01*
X15163597Y-7951510D01*
X15158348Y-7978143D01*
X15158325Y-7978599D01*
X15158325Y-7978599D01*
X15157138Y-8002450D01*
X15156998Y-8005255D01*
X15159576Y-8032277D01*
X15159684Y-8032720D01*
X15159685Y-8032721D01*
X15162871Y-8045741D01*
X15166028Y-8058645D01*
X15166200Y-8059068D01*
X15166200Y-8059068D01*
X15173374Y-8076782D01*
X15176219Y-8083805D01*
X15176449Y-8084198D01*
X15176450Y-8084199D01*
X15181886Y-8093483D01*
X15183602Y-8100373D01*
X15181321Y-8107096D01*
X15175767Y-8111519D01*
X15171013Y-8112450D01*
X14487231Y-8112450D01*
X14480419Y-8110450D01*
X14475770Y-8105084D01*
X14474744Y-8098173D01*
X14475380Y-8093435D01*
X14477659Y-8076464D01*
X14477670Y-8076143D01*
X14478025Y-8064822D01*
X14478025Y-8064822D01*
X14478035Y-8064500D01*
X14476135Y-8037653D01*
X14475533Y-8034856D01*
X14470564Y-8011777D01*
X14470470Y-8011342D01*
X14470128Y-8010415D01*
X14461309Y-7986510D01*
X14461309Y-7986510D01*
X14461155Y-7986092D01*
X14458025Y-7980291D01*
X14448586Y-7962798D01*
X14448374Y-7962406D01*
X14432384Y-7940757D01*
X14413503Y-7921577D01*
X14401172Y-7912166D01*
X14396970Y-7906443D01*
X14396530Y-7899357D01*
X14399990Y-7893158D01*
X14406252Y-7889814D01*
X14408816Y-7889550D01*
X15170901Y-7889550D01*
X15177714Y-7891550D01*
G37*
%TD.AperFunction*%
%TA.AperFunction,NonConductor*%
G36*
X12951307Y-7891550D02*
G01*
X12955957Y-7896916D01*
X12956908Y-7904315D01*
X12956802Y-7904741D01*
X12954058Y-7931515D01*
X12954076Y-7931960D01*
X12954776Y-7949782D01*
X12955115Y-7958408D01*
X12959950Y-7984884D01*
X12968468Y-8010415D01*
X12968667Y-8010813D01*
X12968667Y-8010814D01*
X12979124Y-8031741D01*
X12980498Y-8034490D01*
X12995800Y-8056631D01*
X12996102Y-8056958D01*
X12998602Y-8059662D01*
X13001758Y-8066022D01*
X13001950Y-8068215D01*
X13001950Y-8088120D01*
X12999950Y-8094933D01*
X12994584Y-8099582D01*
X12990547Y-8100663D01*
X12986677Y-8101033D01*
X12986677Y-8101033D01*
X12986222Y-8101076D01*
X12985780Y-8101184D01*
X12985779Y-8101185D01*
X12972759Y-8104371D01*
X12959855Y-8107528D01*
X12959432Y-8107700D01*
X12959431Y-8107700D01*
X12935119Y-8117547D01*
X12935118Y-8117548D01*
X12934695Y-8117719D01*
X12934302Y-8117949D01*
X12934301Y-8117950D01*
X12926372Y-8122593D01*
X12918311Y-8127312D01*
X12911422Y-8129028D01*
X12904753Y-8126786D01*
X12887707Y-8114939D01*
X12875091Y-8109163D01*
X12867922Y-8105880D01*
X12867922Y-8105880D01*
X12867411Y-8105646D01*
X12845790Y-8100095D01*
X12839377Y-8099573D01*
X12831969Y-8098971D01*
X12831968Y-8098971D01*
X12831714Y-8098950D01*
X12750765Y-8098950D01*
X12743953Y-8096950D01*
X12741856Y-8095259D01*
X12702519Y-8055923D01*
X12699117Y-8049692D01*
X12698860Y-8047903D01*
X12698166Y-8038098D01*
X12698166Y-8038098D01*
X12698135Y-8037653D01*
X12697533Y-8034856D01*
X12692564Y-8011777D01*
X12692470Y-8011342D01*
X12692128Y-8010415D01*
X12683309Y-7986510D01*
X12683309Y-7986510D01*
X12683155Y-7986092D01*
X12680025Y-7980291D01*
X12670586Y-7962798D01*
X12670374Y-7962406D01*
X12654384Y-7940757D01*
X12635503Y-7921577D01*
X12623172Y-7912166D01*
X12618970Y-7906443D01*
X12618530Y-7899357D01*
X12621990Y-7893158D01*
X12628252Y-7889814D01*
X12630816Y-7889550D01*
X12944495Y-7889550D01*
X12951307Y-7891550D01*
G37*
%TD.AperFunction*%
%TA.AperFunction,NonConductor*%
G36*
X15570781Y-8089100D02*
G01*
X15572296Y-8090392D01*
X15728759Y-8246856D01*
X15732162Y-8253087D01*
X15732450Y-8255765D01*
X15732450Y-8389402D01*
X15730450Y-8396214D01*
X15725084Y-8400864D01*
X15718057Y-8401874D01*
X15711726Y-8399033D01*
X15703671Y-8392239D01*
X15703211Y-8391968D01*
X15702839Y-8391705D01*
X15702446Y-8391435D01*
X15702033Y-8391096D01*
X15701569Y-8390832D01*
X15701569Y-8390832D01*
X15692466Y-8385650D01*
X15692313Y-8385562D01*
X15683277Y-8380249D01*
X15682816Y-8379979D01*
X15682317Y-8379790D01*
X15681889Y-8379585D01*
X15681472Y-8379392D01*
X15681009Y-8379128D01*
X15680508Y-8378947D01*
X15670658Y-8375371D01*
X15670493Y-8375310D01*
X15660694Y-8371597D01*
X15660194Y-8371408D01*
X15659669Y-8371306D01*
X15659216Y-8371176D01*
X15658770Y-8371056D01*
X15658269Y-8370874D01*
X15647433Y-8368915D01*
X15647261Y-8368882D01*
X15636975Y-8366874D01*
X15636975Y-8366874D01*
X15636451Y-8366771D01*
X15635917Y-8366759D01*
X15635387Y-8366701D01*
X15635391Y-8366665D01*
X15635289Y-8366655D01*
X15635285Y-8366690D01*
X15634872Y-8366643D01*
X15634464Y-8366569D01*
X15634050Y-8366550D01*
X15634049Y-8366550D01*
X15632078Y-8366457D01*
X15632077Y-8366457D01*
X15631929Y-8366450D01*
X15622960Y-8366450D01*
X15622663Y-8366446D01*
X15622382Y-8366440D01*
X15612266Y-8366201D01*
X15611738Y-8366279D01*
X15611738Y-8366279D01*
X15611601Y-8366299D01*
X15611483Y-8366316D01*
X15609654Y-8366450D01*
X15563098Y-8366450D01*
X15556286Y-8364450D01*
X15551637Y-8359084D01*
X15550627Y-8352057D01*
X15551947Y-8347984D01*
X15561364Y-8330086D01*
X15570403Y-8304489D01*
X15575652Y-8277857D01*
X15576814Y-8254516D01*
X15576979Y-8251202D01*
X15576979Y-8251201D01*
X15577002Y-8250745D01*
X15574424Y-8223722D01*
X15573539Y-8220105D01*
X15571129Y-8210259D01*
X15567972Y-8197355D01*
X15567800Y-8196931D01*
X15557953Y-8172619D01*
X15557952Y-8172618D01*
X15557781Y-8172195D01*
X15557551Y-8171802D01*
X15557550Y-8171801D01*
X15544296Y-8149164D01*
X15544296Y-8149164D01*
X15544065Y-8148770D01*
X15533968Y-8136144D01*
X15531275Y-8129575D01*
X15532562Y-8122593D01*
X15533620Y-8120860D01*
X15548725Y-8100109D01*
X15548937Y-8099705D01*
X15548938Y-8099704D01*
X15552236Y-8093435D01*
X15557178Y-8088338D01*
X15564091Y-8086722D01*
X15570781Y-8089100D01*
G37*
%TD.AperFunction*%
%TA.AperFunction,NonConductor*%
G36*
X15177714Y-8399550D02*
G01*
X15182363Y-8404916D01*
X15183373Y-8411943D01*
X15182052Y-8416016D01*
X15172636Y-8433914D01*
X15172484Y-8434345D01*
X15172484Y-8434345D01*
X15167784Y-8447653D01*
X15163597Y-8459511D01*
X15163509Y-8459957D01*
X15159474Y-8480429D01*
X15158348Y-8486143D01*
X15158325Y-8486599D01*
X15158325Y-8486599D01*
X15157073Y-8511751D01*
X15156998Y-8513255D01*
X15159576Y-8540278D01*
X15166028Y-8566645D01*
X15166200Y-8567068D01*
X15166200Y-8567069D01*
X15172562Y-8582776D01*
X15176219Y-8591805D01*
X15176449Y-8592198D01*
X15176450Y-8592199D01*
X15181886Y-8601483D01*
X15183602Y-8608373D01*
X15181321Y-8615096D01*
X15175767Y-8619519D01*
X15171013Y-8620450D01*
X14737530Y-8620450D01*
X14736640Y-8620419D01*
X14730535Y-8619986D01*
X14730535Y-8619986D01*
X14730002Y-8619949D01*
X14725412Y-8620403D01*
X14719045Y-8621033D01*
X14718870Y-8621049D01*
X14708426Y-8621935D01*
X14708426Y-8621935D01*
X14707895Y-8621980D01*
X14707379Y-8622114D01*
X14706921Y-8622192D01*
X14706459Y-8622278D01*
X14705928Y-8622330D01*
X14705414Y-8622472D01*
X14705414Y-8622472D01*
X14695316Y-8625244D01*
X14695146Y-8625289D01*
X14691238Y-8626303D01*
X14684479Y-8628058D01*
X14683992Y-8628277D01*
X14683548Y-8628433D01*
X14683114Y-8628593D01*
X14682600Y-8628734D01*
X14682117Y-8628960D01*
X14682117Y-8628960D01*
X14672619Y-8633399D01*
X14672462Y-8633471D01*
X14670893Y-8634178D01*
X14668371Y-8635314D01*
X14663888Y-8636407D01*
X14654113Y-8636945D01*
X14644620Y-8637467D01*
X14631669Y-8640043D01*
X14618660Y-8642631D01*
X14618659Y-8642631D01*
X14618223Y-8642718D01*
X14592829Y-8651635D01*
X14568945Y-8664042D01*
X14568584Y-8664300D01*
X14568583Y-8664301D01*
X14561761Y-8669176D01*
X14547048Y-8679690D01*
X14546725Y-8679998D01*
X14546725Y-8679998D01*
X14534819Y-8691356D01*
X14527574Y-8698267D01*
X14510912Y-8719403D01*
X14504826Y-8729880D01*
X14497617Y-8742291D01*
X14497617Y-8742292D01*
X14497394Y-8742676D01*
X14487290Y-8767621D01*
X14480802Y-8793741D01*
X14478058Y-8820515D01*
X14479115Y-8847408D01*
X14480126Y-8852941D01*
X14481339Y-8859586D01*
X14480595Y-8866647D01*
X14476152Y-8872185D01*
X14468944Y-8874450D01*
X13900065Y-8874450D01*
X13893253Y-8872450D01*
X13888604Y-8867084D01*
X13887593Y-8860057D01*
X13890543Y-8853599D01*
X13891156Y-8852941D01*
X14342856Y-8401241D01*
X14349087Y-8397838D01*
X14351765Y-8397550D01*
X15170901Y-8397550D01*
X15177714Y-8399550D01*
G37*
%TD.AperFunction*%
%TA.AperFunction,NonConductor*%
G36*
X15574492Y-8665911D02*
G01*
X15579328Y-8668925D01*
X15601759Y-8691356D01*
X15605162Y-8697587D01*
X15605450Y-8700265D01*
X15605450Y-9043510D01*
X15603450Y-9050322D01*
X15598084Y-9054971D01*
X15591057Y-9055982D01*
X15584599Y-9053032D01*
X15583940Y-9052419D01*
X15579402Y-9047881D01*
X15576000Y-9041650D01*
X15575727Y-9038345D01*
X15575836Y-9036172D01*
X15576556Y-9021711D01*
X15576979Y-9013202D01*
X15576979Y-9013201D01*
X15577002Y-9012745D01*
X15574424Y-8985723D01*
X15567972Y-8959355D01*
X15562279Y-8945300D01*
X15557953Y-8934619D01*
X15557952Y-8934618D01*
X15557781Y-8934195D01*
X15557551Y-8933802D01*
X15557550Y-8933801D01*
X15544296Y-8911164D01*
X15544296Y-8911164D01*
X15544065Y-8910770D01*
X15533968Y-8898144D01*
X15531275Y-8891575D01*
X15532562Y-8884593D01*
X15533620Y-8882860D01*
X15548725Y-8862109D01*
X15561364Y-8838086D01*
X15570403Y-8812490D01*
X15573623Y-8796154D01*
X15575564Y-8786304D01*
X15575564Y-8786303D01*
X15575652Y-8785857D01*
X15575841Y-8782072D01*
X15576979Y-8759202D01*
X15576979Y-8759201D01*
X15577002Y-8758745D01*
X15574424Y-8731723D01*
X15567972Y-8705355D01*
X15559238Y-8683793D01*
X15558741Y-8682564D01*
X15558037Y-8675500D01*
X15561265Y-8669176D01*
X15567399Y-8665601D01*
X15574492Y-8665911D01*
G37*
%TD.AperFunction*%
%TA.AperFunction,NonConductor*%
G36*
X15177714Y-8907550D02*
G01*
X15182363Y-8912916D01*
X15183373Y-8919943D01*
X15182052Y-8924016D01*
X15172636Y-8941914D01*
X15172484Y-8942345D01*
X15172484Y-8942345D01*
X15171440Y-8945300D01*
X15163597Y-8967511D01*
X15163509Y-8967957D01*
X15158535Y-8993194D01*
X15158348Y-8994143D01*
X15158325Y-8994599D01*
X15158325Y-8994599D01*
X15157340Y-9014380D01*
X15156998Y-9021255D01*
X15159576Y-9048278D01*
X15159684Y-9048720D01*
X15159685Y-9048721D01*
X15161929Y-9057894D01*
X15166028Y-9074645D01*
X15176219Y-9099805D01*
X15176449Y-9100198D01*
X15176450Y-9100199D01*
X15181886Y-9109483D01*
X15183602Y-9116373D01*
X15181321Y-9123096D01*
X15175767Y-9127519D01*
X15171013Y-9128450D01*
X15050265Y-9128450D01*
X15043453Y-9126450D01*
X15041356Y-9124760D01*
X14843656Y-8927060D01*
X14840253Y-8920828D01*
X14840760Y-8913747D01*
X14845014Y-8908063D01*
X14851666Y-8905582D01*
X14852565Y-8905550D01*
X15170901Y-8905550D01*
X15177714Y-8907550D01*
G37*
%TD.AperFunction*%
%TA.AperFunction,NonConductor*%
G36*
X11980847Y-9959944D02*
G01*
X12045759Y-10024856D01*
X12049162Y-10031087D01*
X12049450Y-10033765D01*
X12049450Y-10413235D01*
X12047450Y-10420047D01*
X12045759Y-10422144D01*
X11980559Y-10487344D01*
X11974328Y-10490747D01*
X11967247Y-10490240D01*
X11961563Y-10485986D01*
X11959082Y-10479334D01*
X11959050Y-10478435D01*
X11959050Y-10409286D01*
X11959014Y-10408844D01*
X11957949Y-10395745D01*
X11957905Y-10395210D01*
X11952354Y-10373589D01*
X11950241Y-10368974D01*
X11946042Y-10359804D01*
X11943061Y-10353293D01*
X11939311Y-10347897D01*
X11931454Y-10336591D01*
X11929208Y-10329856D01*
X11931088Y-10322796D01*
X11931225Y-10322609D01*
X11943864Y-10298586D01*
X11947739Y-10287612D01*
X11952751Y-10273419D01*
X11952903Y-10272990D01*
X11958152Y-10246357D01*
X11958175Y-10245901D01*
X11959479Y-10219702D01*
X11959479Y-10219701D01*
X11959502Y-10219245D01*
X11956924Y-10192223D01*
X11950472Y-10165855D01*
X11943408Y-10148414D01*
X11940453Y-10141119D01*
X11940452Y-10141118D01*
X11940281Y-10140695D01*
X11940051Y-10140302D01*
X11940050Y-10140301D01*
X11926796Y-10117664D01*
X11926796Y-10117664D01*
X11926565Y-10117270D01*
X11916468Y-10104644D01*
X11913775Y-10098075D01*
X11915062Y-10091093D01*
X11916120Y-10089360D01*
X11931225Y-10068609D01*
X11943864Y-10044586D01*
X11952903Y-10018990D01*
X11956582Y-10000323D01*
X11958064Y-9992804D01*
X11958064Y-9992803D01*
X11958152Y-9992357D01*
X11958641Y-9982539D01*
X11959354Y-9968227D01*
X11961690Y-9961522D01*
X11967280Y-9957146D01*
X11974349Y-9956486D01*
X11980847Y-9959944D01*
G37*
%TD.AperFunction*%
%TA.AperFunction,NonConductor*%
G36*
X14674547Y-9161550D02*
G01*
X14676644Y-9163241D01*
X14881290Y-9367887D01*
X14881897Y-9368538D01*
X14883789Y-9370718D01*
X14886260Y-9373565D01*
X14886672Y-9373903D01*
X14886673Y-9373904D01*
X14894774Y-9380547D01*
X14894910Y-9380659D01*
X14899294Y-9384357D01*
X14903328Y-9387761D01*
X14903788Y-9388031D01*
X14904165Y-9388298D01*
X14904555Y-9388566D01*
X14904967Y-9388904D01*
X14905430Y-9389167D01*
X14905430Y-9389168D01*
X14914536Y-9394351D01*
X14914688Y-9394439D01*
X14923724Y-9399751D01*
X14923724Y-9399751D01*
X14924183Y-9400021D01*
X14924682Y-9400210D01*
X14925108Y-9400414D01*
X14925528Y-9400608D01*
X14925991Y-9400872D01*
X14926492Y-9401053D01*
X14926492Y-9401053D01*
X14936342Y-9404629D01*
X14936507Y-9404690D01*
X14940719Y-9406286D01*
X14946806Y-9408592D01*
X14947330Y-9408694D01*
X14947784Y-9408824D01*
X14948229Y-9408944D01*
X14948731Y-9409126D01*
X14955125Y-9410282D01*
X14959567Y-9411085D01*
X14959739Y-9411118D01*
X14970025Y-9413126D01*
X14970549Y-9413229D01*
X14971082Y-9413241D01*
X14971613Y-9413299D01*
X14971609Y-9413335D01*
X14971711Y-9413345D01*
X14971715Y-9413310D01*
X14972128Y-9413357D01*
X14972536Y-9413431D01*
X14972950Y-9413450D01*
X14972951Y-9413450D01*
X14974922Y-9413543D01*
X14974922Y-9413543D01*
X14975070Y-9413550D01*
X14984040Y-9413550D01*
X14984337Y-9413554D01*
X14994734Y-9413799D01*
X14995262Y-9413721D01*
X14995262Y-9413721D01*
X14995399Y-9413701D01*
X14995517Y-9413684D01*
X14997346Y-9413550D01*
X15149838Y-9413550D01*
X15156650Y-9415550D01*
X15161299Y-9420916D01*
X15162310Y-9427943D01*
X15162042Y-9429284D01*
X15158595Y-9442710D01*
X15157450Y-9456786D01*
X15157450Y-9593214D01*
X15157471Y-9593468D01*
X15157471Y-9593469D01*
X15158073Y-9600877D01*
X15158595Y-9607290D01*
X15158728Y-9607811D01*
X15162042Y-9620717D01*
X15161799Y-9627812D01*
X15157758Y-9633650D01*
X15151203Y-9636376D01*
X15149838Y-9636450D01*
X14229529Y-9636450D01*
X14228639Y-9636419D01*
X14222535Y-9635986D01*
X14222535Y-9635986D01*
X14222002Y-9635949D01*
X14217253Y-9636419D01*
X14211049Y-9637032D01*
X14210874Y-9637048D01*
X14200426Y-9637935D01*
X14200426Y-9637935D01*
X14199895Y-9637980D01*
X14199379Y-9638114D01*
X14198919Y-9638192D01*
X14198458Y-9638278D01*
X14197928Y-9638330D01*
X14187309Y-9641246D01*
X14187146Y-9641289D01*
X14184172Y-9642061D01*
X14176996Y-9643923D01*
X14176996Y-9643923D01*
X14176479Y-9644058D01*
X14175993Y-9644277D01*
X14175559Y-9644429D01*
X14175114Y-9644593D01*
X14174600Y-9644734D01*
X14174117Y-9644960D01*
X14174116Y-9644960D01*
X14164626Y-9649395D01*
X14164467Y-9649469D01*
X14158086Y-9652343D01*
X14154422Y-9653993D01*
X14153980Y-9654291D01*
X14153576Y-9654516D01*
X14153167Y-9654751D01*
X14152684Y-9654977D01*
X14152246Y-9655281D01*
X14152245Y-9655281D01*
X14143638Y-9661252D01*
X14143493Y-9661352D01*
X14134355Y-9667504D01*
X14133968Y-9667872D01*
X14133553Y-9668206D01*
X14133530Y-9668178D01*
X14133450Y-9668243D01*
X14133472Y-9668271D01*
X14133147Y-9668530D01*
X14132807Y-9668766D01*
X14130930Y-9670474D01*
X14124590Y-9676814D01*
X14124378Y-9677021D01*
X14116850Y-9684202D01*
X14116532Y-9684630D01*
X14116378Y-9684837D01*
X14115178Y-9686225D01*
X14070559Y-9730844D01*
X14064328Y-9734247D01*
X14057247Y-9733740D01*
X14051563Y-9729486D01*
X14049082Y-9722834D01*
X14049050Y-9721935D01*
X14049050Y-9528382D01*
X14051050Y-9521570D01*
X14052004Y-9520275D01*
X14060646Y-9509994D01*
X14074889Y-9487157D01*
X14085771Y-9462542D01*
X14093077Y-9436638D01*
X14094245Y-9427943D01*
X14096617Y-9410282D01*
X14096617Y-9410281D01*
X14096659Y-9409964D01*
X14096775Y-9406286D01*
X14097025Y-9398322D01*
X14097025Y-9398322D01*
X14097035Y-9398000D01*
X14096410Y-9389168D01*
X14095166Y-9371598D01*
X14095135Y-9371153D01*
X14094572Y-9368538D01*
X14089564Y-9345277D01*
X14089470Y-9344842D01*
X14087519Y-9339553D01*
X14080309Y-9320010D01*
X14080309Y-9320010D01*
X14080155Y-9319592D01*
X14077025Y-9313791D01*
X14067586Y-9296298D01*
X14067374Y-9295906D01*
X14051384Y-9274257D01*
X14032503Y-9255077D01*
X14011108Y-9238749D01*
X14005843Y-9235801D01*
X13988015Y-9225816D01*
X13988014Y-9225816D01*
X13987626Y-9225598D01*
X13987212Y-9225438D01*
X13987211Y-9225438D01*
X13968657Y-9218260D01*
X13962525Y-9215888D01*
X13962093Y-9215787D01*
X13962092Y-9215787D01*
X13947686Y-9212448D01*
X13936306Y-9209810D01*
X13909493Y-9207488D01*
X13909049Y-9207512D01*
X13909049Y-9207512D01*
X13898132Y-9208113D01*
X13882620Y-9208967D01*
X13882183Y-9209054D01*
X13882183Y-9209054D01*
X13856660Y-9214131D01*
X13856659Y-9214131D01*
X13856223Y-9214218D01*
X13830829Y-9223135D01*
X13806945Y-9235542D01*
X13806584Y-9235800D01*
X13806583Y-9235801D01*
X13802079Y-9239019D01*
X13785048Y-9251190D01*
X13765574Y-9269767D01*
X13748912Y-9290903D01*
X13745778Y-9296298D01*
X13735617Y-9313791D01*
X13735617Y-9313792D01*
X13735394Y-9314176D01*
X13725290Y-9339121D01*
X13725183Y-9339553D01*
X13725183Y-9339553D01*
X13723869Y-9344842D01*
X13718802Y-9365241D01*
X13716058Y-9392015D01*
X13716076Y-9392460D01*
X13716983Y-9415550D01*
X13717115Y-9418908D01*
X13721950Y-9445384D01*
X13730468Y-9470915D01*
X13742498Y-9494991D01*
X13757800Y-9517131D01*
X13758102Y-9517458D01*
X13760602Y-9520162D01*
X13763758Y-9526522D01*
X13763950Y-9528715D01*
X13763950Y-9963971D01*
X13763918Y-9964861D01*
X13763653Y-9968617D01*
X13763449Y-9971498D01*
X13763717Y-9974211D01*
X13764532Y-9982451D01*
X13764548Y-9982626D01*
X13765480Y-9993605D01*
X13765614Y-9994121D01*
X13765692Y-9994581D01*
X13765778Y-9995042D01*
X13765830Y-9995572D01*
X13768747Y-10006198D01*
X13768789Y-10006353D01*
X13771557Y-10017021D01*
X13771776Y-10017507D01*
X13771930Y-10017943D01*
X13772093Y-10018385D01*
X13772234Y-10018900D01*
X13772259Y-10018953D01*
X13772724Y-10025894D01*
X13769333Y-10032070D01*
X12356059Y-11445344D01*
X12349828Y-11448747D01*
X12342747Y-11448240D01*
X12337063Y-11443986D01*
X12334582Y-11437334D01*
X12334550Y-11436435D01*
X12334550Y-11176765D01*
X12336550Y-11169953D01*
X12338240Y-11167856D01*
X12987388Y-10518708D01*
X12988039Y-10518101D01*
X12992661Y-10514091D01*
X12993065Y-10513740D01*
X12993403Y-10513328D01*
X12993404Y-10513327D01*
X13000047Y-10505226D01*
X13000152Y-10505098D01*
X13007261Y-10496671D01*
X13007532Y-10496211D01*
X13007798Y-10495835D01*
X13008065Y-10495446D01*
X13008404Y-10495033D01*
X13013853Y-10485461D01*
X13013935Y-10485319D01*
X13019251Y-10476277D01*
X13019251Y-10476276D01*
X13019521Y-10475817D01*
X13019710Y-10475318D01*
X13019906Y-10474908D01*
X13020107Y-10474473D01*
X13020371Y-10474009D01*
X13022466Y-10468238D01*
X13024126Y-10463665D01*
X13024188Y-10463500D01*
X13027903Y-10453693D01*
X13028092Y-10453194D01*
X13028194Y-10452671D01*
X13028320Y-10452230D01*
X13028444Y-10451771D01*
X13028626Y-10451269D01*
X13030586Y-10440431D01*
X13030616Y-10440269D01*
X13032729Y-10429451D01*
X13032741Y-10428917D01*
X13032799Y-10428387D01*
X13032835Y-10428391D01*
X13032845Y-10428289D01*
X13032810Y-10428285D01*
X13032857Y-10427872D01*
X13032930Y-10427464D01*
X13033050Y-10424930D01*
X13033050Y-10415960D01*
X13033053Y-10415663D01*
X13033286Y-10405800D01*
X13033298Y-10405266D01*
X13033184Y-10404483D01*
X13033050Y-10402654D01*
X13033050Y-9716265D01*
X13035050Y-9709453D01*
X13036740Y-9707356D01*
X13229813Y-9514283D01*
X13236045Y-9510880D01*
X13243126Y-9511387D01*
X13249088Y-9516028D01*
X13249850Y-9517131D01*
X13250152Y-9517458D01*
X13267818Y-9536568D01*
X13267818Y-9536569D01*
X13268119Y-9536894D01*
X13288991Y-9553887D01*
X13289373Y-9554117D01*
X13289373Y-9554117D01*
X13311667Y-9567539D01*
X13312049Y-9567768D01*
X13312458Y-9567942D01*
X13312458Y-9567942D01*
X13336422Y-9578089D01*
X13336423Y-9578089D01*
X13336832Y-9578263D01*
X13345686Y-9580610D01*
X13362417Y-9585047D01*
X13362418Y-9585047D01*
X13362847Y-9585161D01*
X13363288Y-9585213D01*
X13363289Y-9585213D01*
X13378179Y-9586975D01*
X13389574Y-9588324D01*
X13416481Y-9587690D01*
X13422131Y-9586750D01*
X13442591Y-9583344D01*
X13442591Y-9583344D01*
X13443030Y-9583271D01*
X13443454Y-9583137D01*
X13443454Y-9583137D01*
X13468266Y-9575290D01*
X13468266Y-9575290D01*
X13468691Y-9575155D01*
X13469092Y-9574963D01*
X13469092Y-9574963D01*
X13492551Y-9563698D01*
X13492551Y-9563698D01*
X13492952Y-9563505D01*
X13496839Y-9560908D01*
X13514960Y-9548800D01*
X13514960Y-9548800D01*
X13515331Y-9548553D01*
X13515662Y-9548256D01*
X13515663Y-9548255D01*
X13535047Y-9530893D01*
X13535379Y-9530596D01*
X13544055Y-9520274D01*
X13552410Y-9510335D01*
X13552411Y-9510334D01*
X13552696Y-9509994D01*
X13566939Y-9487157D01*
X13577821Y-9462542D01*
X13585127Y-9436638D01*
X13588232Y-9413518D01*
X13591121Y-9407033D01*
X13591810Y-9406286D01*
X13834856Y-9163241D01*
X13841087Y-9159838D01*
X13843765Y-9159550D01*
X14667735Y-9159550D01*
X14674547Y-9161550D01*
G37*
%TD.AperFunction*%
%TA.AperFunction,NonConductor*%
G36*
X10580753Y-11602259D02*
G01*
X10586437Y-11606514D01*
X10588918Y-11613166D01*
X10588950Y-11614065D01*
X10588950Y-11618540D01*
X10588947Y-11618836D01*
X10588918Y-11620060D01*
X10586758Y-11626823D01*
X10585231Y-11628673D01*
X10560692Y-11653212D01*
X10554461Y-11656614D01*
X10547379Y-11656108D01*
X10541696Y-11651853D01*
X10539215Y-11645201D01*
X10539295Y-11642625D01*
X10539518Y-11640963D01*
X10540174Y-11636075D01*
X10543064Y-11629590D01*
X10543753Y-11628843D01*
X10567441Y-11605156D01*
X10573672Y-11601753D01*
X10580753Y-11602259D01*
G37*
%TD.AperFunction*%
%TA.AperFunction,NonConductor*%
G36*
X10513901Y-12287061D02*
G01*
X10515746Y-12289044D01*
X10516289Y-12289771D01*
X10522946Y-12298687D01*
X10525419Y-12305342D01*
X10525450Y-12306225D01*
X10525450Y-13093255D01*
X10523450Y-13100067D01*
X10522537Y-13101312D01*
X10521307Y-13102792D01*
X10521306Y-13102792D01*
X10521008Y-13103151D01*
X10518405Y-13107440D01*
X10516422Y-13110708D01*
X10511178Y-13115494D01*
X10504179Y-13116685D01*
X10497647Y-13113903D01*
X10493656Y-13108032D01*
X10493050Y-13104171D01*
X10493050Y-12296583D01*
X10495050Y-12289771D01*
X10500416Y-12285122D01*
X10507443Y-12284112D01*
X10513901Y-12287061D01*
G37*
%TD.AperFunction*%
%TA.AperFunction,NonConductor*%
G36*
X15596613Y-9918164D02*
G01*
X15602517Y-9922107D01*
X15605351Y-9928617D01*
X15605450Y-9930189D01*
X15605450Y-10413235D01*
X15603450Y-10420047D01*
X15601759Y-10422144D01*
X12837099Y-13186805D01*
X12830868Y-13190207D01*
X12823786Y-13189701D01*
X12820545Y-13187912D01*
X12804608Y-13175749D01*
X12801416Y-13173961D01*
X12781515Y-13162816D01*
X12781514Y-13162816D01*
X12781126Y-13162598D01*
X12780712Y-13162438D01*
X12780711Y-13162438D01*
X12759497Y-13154231D01*
X12756025Y-13152887D01*
X12755593Y-13152787D01*
X12755592Y-13152787D01*
X12735399Y-13148107D01*
X12729806Y-13146810D01*
X12702993Y-13144488D01*
X12702549Y-13144512D01*
X12702549Y-13144512D01*
X12691632Y-13145113D01*
X12676120Y-13145967D01*
X12675683Y-13146054D01*
X12675683Y-13146054D01*
X12650160Y-13151131D01*
X12650159Y-13151131D01*
X12649723Y-13151218D01*
X12624329Y-13160135D01*
X12606958Y-13169159D01*
X12599991Y-13170524D01*
X12593392Y-13167906D01*
X12589256Y-13162135D01*
X12588550Y-13157977D01*
X12588550Y-12827765D01*
X12590550Y-12820953D01*
X12592240Y-12818856D01*
X14150477Y-11260619D01*
X14156708Y-11257216D01*
X14163790Y-11257723D01*
X14167341Y-11259757D01*
X14171694Y-11263300D01*
X14177595Y-11268105D01*
X14177596Y-11268106D01*
X14177941Y-11268387D01*
X14178323Y-11268616D01*
X14178323Y-11268617D01*
X14200617Y-11282039D01*
X14200999Y-11282268D01*
X14201408Y-11282442D01*
X14201408Y-11282442D01*
X14225372Y-11292589D01*
X14225373Y-11292589D01*
X14225782Y-11292763D01*
X14229151Y-11293656D01*
X14251367Y-11299547D01*
X14251368Y-11299547D01*
X14251797Y-11299661D01*
X14252238Y-11299713D01*
X14252239Y-11299713D01*
X14267129Y-11301475D01*
X14278524Y-11302824D01*
X14305431Y-11302190D01*
X14311593Y-11301164D01*
X14331541Y-11297844D01*
X14331541Y-11297844D01*
X14331980Y-11297771D01*
X14332404Y-11297637D01*
X14332404Y-11297637D01*
X14357216Y-11289790D01*
X14357216Y-11289790D01*
X14357641Y-11289655D01*
X14358042Y-11289463D01*
X14358042Y-11289463D01*
X14381501Y-11278198D01*
X14381501Y-11278198D01*
X14381902Y-11278005D01*
X14394019Y-11269909D01*
X14403910Y-11263300D01*
X14403910Y-11263300D01*
X14404281Y-11263053D01*
X14404612Y-11262755D01*
X14404613Y-11262755D01*
X14423997Y-11245393D01*
X14424329Y-11245096D01*
X14425618Y-11243562D01*
X14441360Y-11224835D01*
X14441361Y-11224834D01*
X14441646Y-11224494D01*
X14455889Y-11201657D01*
X14458387Y-11196005D01*
X14466591Y-11177450D01*
X14466771Y-11177042D01*
X14474077Y-11151138D01*
X14476627Y-11132153D01*
X14477617Y-11124782D01*
X14477617Y-11124781D01*
X14477659Y-11124464D01*
X14478035Y-11112500D01*
X14476678Y-11093326D01*
X14476166Y-11086098D01*
X14476135Y-11085653D01*
X14470470Y-11059342D01*
X14467621Y-11051620D01*
X14461309Y-11034510D01*
X14461309Y-11034510D01*
X14461155Y-11034092D01*
X14454273Y-11021339D01*
X14448586Y-11010798D01*
X14448374Y-11010406D01*
X14436814Y-10994755D01*
X14432649Y-10989116D01*
X14432649Y-10989115D01*
X14432384Y-10988757D01*
X14413503Y-10969577D01*
X14409428Y-10966467D01*
X14392462Y-10953519D01*
X14392108Y-10953249D01*
X14386843Y-10950301D01*
X14369015Y-10940316D01*
X14369014Y-10940316D01*
X14368626Y-10940098D01*
X14368212Y-10939938D01*
X14368211Y-10939938D01*
X14349528Y-10932710D01*
X14343525Y-10930388D01*
X14343093Y-10930287D01*
X14343092Y-10930287D01*
X14328686Y-10926948D01*
X14317306Y-10924310D01*
X14290493Y-10921988D01*
X14290049Y-10922012D01*
X14290049Y-10922012D01*
X14279132Y-10922613D01*
X14263620Y-10923467D01*
X14263183Y-10923554D01*
X14263183Y-10923554D01*
X14237660Y-10928631D01*
X14237659Y-10928631D01*
X14237223Y-10928718D01*
X14211829Y-10937635D01*
X14187945Y-10950042D01*
X14187584Y-10950300D01*
X14187583Y-10950301D01*
X14183079Y-10953519D01*
X14166048Y-10965690D01*
X14165725Y-10965998D01*
X14165725Y-10965998D01*
X14165234Y-10966467D01*
X14158924Y-10969722D01*
X14156536Y-10969950D01*
X14102530Y-10969950D01*
X14101640Y-10969919D01*
X14095535Y-10969486D01*
X14095535Y-10969486D01*
X14095002Y-10969449D01*
X14090412Y-10969903D01*
X14084045Y-10970533D01*
X14083870Y-10970549D01*
X14073426Y-10971435D01*
X14073426Y-10971435D01*
X14072895Y-10971480D01*
X14072379Y-10971614D01*
X14071919Y-10971692D01*
X14071458Y-10971778D01*
X14070928Y-10971830D01*
X14060302Y-10974747D01*
X14060147Y-10974789D01*
X14053447Y-10976528D01*
X14049995Y-10977424D01*
X14049995Y-10977424D01*
X14049479Y-10977558D01*
X14048993Y-10977776D01*
X14048554Y-10977931D01*
X14048114Y-10978093D01*
X14047600Y-10978234D01*
X14047117Y-10978460D01*
X14047117Y-10978460D01*
X14042853Y-10980453D01*
X14037619Y-10982899D01*
X14037469Y-10982968D01*
X14027422Y-10987493D01*
X14026979Y-10987792D01*
X14026570Y-10988019D01*
X14026166Y-10988252D01*
X14025684Y-10988477D01*
X14025245Y-10988781D01*
X14016634Y-10994755D01*
X14016493Y-10994851D01*
X14007355Y-11001004D01*
X14006968Y-11001372D01*
X14006553Y-11001706D01*
X14006530Y-11001678D01*
X14006450Y-11001743D01*
X14006473Y-11001771D01*
X14006149Y-11002029D01*
X14005807Y-11002266D01*
X14003930Y-11003974D01*
X13997592Y-11010312D01*
X13997380Y-11010519D01*
X13989850Y-11017702D01*
X13989532Y-11018131D01*
X13989531Y-11018131D01*
X13989377Y-11018338D01*
X13988178Y-11019726D01*
X12483059Y-12524844D01*
X12476828Y-12528247D01*
X12469747Y-12527740D01*
X12464063Y-12523486D01*
X12461582Y-12516834D01*
X12461550Y-12515935D01*
X12461550Y-11748265D01*
X12463550Y-11741453D01*
X12465240Y-11739356D01*
X13263356Y-10941241D01*
X14063542Y-10141054D01*
X14064790Y-10139961D01*
X14065861Y-10139141D01*
X14066285Y-10138816D01*
X14066648Y-10138424D01*
X14066648Y-10138424D01*
X14072589Y-10132020D01*
X14072917Y-10131679D01*
X14075093Y-10129503D01*
X14075094Y-10129502D01*
X14279356Y-9925241D01*
X14285587Y-9921838D01*
X14288265Y-9921550D01*
X15551971Y-9921550D01*
X15552860Y-9921582D01*
X15558965Y-9922014D01*
X15558965Y-9922014D01*
X15559497Y-9922051D01*
X15564796Y-9921527D01*
X15570451Y-9920968D01*
X15570626Y-9920952D01*
X15581074Y-9920065D01*
X15581074Y-9920065D01*
X15581605Y-9920020D01*
X15582121Y-9919886D01*
X15582581Y-9919808D01*
X15583041Y-9919722D01*
X15583572Y-9919670D01*
X15589057Y-9918164D01*
X15589515Y-9918038D01*
X15596613Y-9918164D01*
G37*
%TD.AperFunction*%
%TA.AperFunction,NonConductor*%
G36*
X15724253Y-10713260D02*
G01*
X15729937Y-10717514D01*
X15732418Y-10724166D01*
X15732450Y-10725065D01*
X15732450Y-10730735D01*
X15730450Y-10737547D01*
X15728759Y-10739644D01*
X13127144Y-13341259D01*
X13120913Y-13344662D01*
X13118235Y-13344950D01*
X13112565Y-13344950D01*
X13105753Y-13342950D01*
X13101104Y-13337584D01*
X13100093Y-13330557D01*
X13103043Y-13324099D01*
X13103656Y-13323440D01*
X15710940Y-10716156D01*
X15717172Y-10712753D01*
X15724253Y-10713260D01*
G37*
%TD.AperFunction*%
%TA.AperFunction,NonConductor*%
G36*
X14266162Y-13416050D02*
G01*
X14270811Y-13421416D01*
X14271950Y-13426650D01*
X14271950Y-13524735D01*
X14269950Y-13531547D01*
X14268259Y-13533644D01*
X14149811Y-13652093D01*
X14143580Y-13655496D01*
X14136498Y-13654989D01*
X14132276Y-13652368D01*
X14129703Y-13649952D01*
X14129383Y-13649719D01*
X14104569Y-13631691D01*
X14104569Y-13631691D01*
X14104248Y-13631458D01*
X14076677Y-13616301D01*
X14057599Y-13608747D01*
X14047791Y-13604864D01*
X14047790Y-13604864D01*
X14047422Y-13604718D01*
X14047039Y-13604620D01*
X14047038Y-13604619D01*
X14026904Y-13599450D01*
X14016947Y-13596893D01*
X14016554Y-13596844D01*
X14016554Y-13596844D01*
X14004162Y-13595278D01*
X13985732Y-13592950D01*
X13954268Y-13592950D01*
X13935837Y-13595278D01*
X13923446Y-13596844D01*
X13923445Y-13596844D01*
X13923053Y-13596893D01*
X13913096Y-13599450D01*
X13892962Y-13604619D01*
X13892961Y-13604620D01*
X13892577Y-13604718D01*
X13892209Y-13604864D01*
X13892209Y-13604864D01*
X13882401Y-13608747D01*
X13863323Y-13616301D01*
X13835752Y-13631458D01*
X13835431Y-13631691D01*
X13835431Y-13631691D01*
X13810617Y-13649719D01*
X13810297Y-13649952D01*
X13792859Y-13666328D01*
X13788059Y-13670835D01*
X13787361Y-13671491D01*
X13787109Y-13671796D01*
X13787108Y-13671796D01*
X13783570Y-13676074D01*
X13767305Y-13695734D01*
X13750446Y-13722299D01*
X13750278Y-13722657D01*
X13750277Y-13722658D01*
X13737219Y-13750409D01*
X13737050Y-13750768D01*
X13736679Y-13751908D01*
X13736633Y-13752050D01*
X13732626Y-13757911D01*
X13726086Y-13760674D01*
X13719090Y-13759464D01*
X13713860Y-13754663D01*
X13712050Y-13748156D01*
X13712050Y-13687218D01*
X13710977Y-13675191D01*
X13705374Y-13655653D01*
X13695957Y-13637640D01*
X13683111Y-13621889D01*
X13667360Y-13609043D01*
X13649347Y-13599626D01*
X13629809Y-13594023D01*
X13626645Y-13593741D01*
X13618061Y-13592975D01*
X13618060Y-13592975D01*
X13617782Y-13592950D01*
X13519065Y-13592950D01*
X13512253Y-13590950D01*
X13507604Y-13585584D01*
X13506593Y-13578557D01*
X13509543Y-13572099D01*
X13510156Y-13571440D01*
X13663856Y-13417740D01*
X13670087Y-13414338D01*
X13672765Y-13414050D01*
X14259350Y-13414050D01*
X14266162Y-13416050D01*
G37*
%TD.AperFunction*%
%TA.AperFunction,NonConductor*%
G36*
X14172935Y-7891550D02*
G01*
X14177584Y-7896916D01*
X14178594Y-7903943D01*
X14175645Y-7910401D01*
X14173448Y-7912401D01*
X14166048Y-7917690D01*
X14165725Y-7917998D01*
X14165725Y-7917998D01*
X14156975Y-7926345D01*
X14146574Y-7936267D01*
X14129912Y-7957403D01*
X14126778Y-7962798D01*
X14116617Y-7980291D01*
X14116617Y-7980292D01*
X14116394Y-7980676D01*
X14116227Y-7981088D01*
X14111302Y-7993247D01*
X14106290Y-8005621D01*
X14106183Y-8006053D01*
X14106183Y-8006053D01*
X14103500Y-8016854D01*
X14099802Y-8031741D01*
X14099756Y-8032184D01*
X14099756Y-8032184D01*
X14098105Y-8048298D01*
X14095421Y-8054871D01*
X14094480Y-8055923D01*
X14044185Y-8106219D01*
X14037954Y-8109621D01*
X14031080Y-8109190D01*
X14019920Y-8105249D01*
X14019919Y-8105249D01*
X14019489Y-8105097D01*
X14009551Y-8103138D01*
X13993304Y-8099936D01*
X13993303Y-8099936D01*
X13992857Y-8099848D01*
X13992401Y-8099825D01*
X13992401Y-8099825D01*
X13966202Y-8098521D01*
X13966201Y-8098521D01*
X13965745Y-8098498D01*
X13938722Y-8101076D01*
X13938280Y-8101184D01*
X13938279Y-8101185D01*
X13925259Y-8104371D01*
X13912355Y-8107528D01*
X13911932Y-8107700D01*
X13911931Y-8107700D01*
X13887619Y-8117547D01*
X13887618Y-8117548D01*
X13887195Y-8117719D01*
X13886802Y-8117949D01*
X13886801Y-8117950D01*
X13878872Y-8122593D01*
X13870811Y-8127312D01*
X13863922Y-8129028D01*
X13857253Y-8126786D01*
X13840207Y-8114939D01*
X13827591Y-8109163D01*
X13820422Y-8105880D01*
X13820422Y-8105880D01*
X13819911Y-8105646D01*
X13798290Y-8100095D01*
X13791877Y-8099573D01*
X13784469Y-8098971D01*
X13784468Y-8098971D01*
X13784214Y-8098950D01*
X13647786Y-8098950D01*
X13647532Y-8098971D01*
X13647531Y-8098971D01*
X13640123Y-8099573D01*
X13633710Y-8100095D01*
X13612089Y-8105646D01*
X13611578Y-8105880D01*
X13611578Y-8105880D01*
X13604408Y-8109163D01*
X13591792Y-8114939D01*
X13591332Y-8115259D01*
X13591332Y-8115259D01*
X13573923Y-8127358D01*
X13573923Y-8127358D01*
X13573462Y-8127678D01*
X13557678Y-8143462D01*
X13557358Y-8143923D01*
X13557358Y-8143923D01*
X13545425Y-8161092D01*
X13544939Y-8161792D01*
X13535646Y-8182089D01*
X13530095Y-8203710D01*
X13528950Y-8217786D01*
X13528950Y-8399214D01*
X13528971Y-8399468D01*
X13528971Y-8399469D01*
X13529414Y-8404916D01*
X13530095Y-8413290D01*
X13535646Y-8434911D01*
X13544939Y-8455208D01*
X13545259Y-8455668D01*
X13545259Y-8455668D01*
X13554385Y-8468799D01*
X13557678Y-8473538D01*
X13573462Y-8489322D01*
X13573923Y-8489642D01*
X13573923Y-8489642D01*
X13591332Y-8501741D01*
X13591792Y-8502061D01*
X13604408Y-8507837D01*
X13611578Y-8511120D01*
X13611578Y-8511120D01*
X13612089Y-8511354D01*
X13633710Y-8516905D01*
X13639904Y-8517409D01*
X13647531Y-8518029D01*
X13647532Y-8518029D01*
X13647786Y-8518050D01*
X13784214Y-8518050D01*
X13784468Y-8518029D01*
X13784469Y-8518029D01*
X13792096Y-8517409D01*
X13799048Y-8518850D01*
X13804117Y-8523821D01*
X13805693Y-8530744D01*
X13803277Y-8537420D01*
X13802027Y-8538877D01*
X12793613Y-9547291D01*
X12792961Y-9547898D01*
X12787935Y-9552260D01*
X12782947Y-9558343D01*
X12780954Y-9560773D01*
X12780849Y-9560900D01*
X12773739Y-9569329D01*
X12773468Y-9569789D01*
X12773205Y-9570161D01*
X12772935Y-9570554D01*
X12772596Y-9570967D01*
X12772332Y-9571431D01*
X12772332Y-9571431D01*
X12767150Y-9580534D01*
X12767062Y-9580687D01*
X12761479Y-9590184D01*
X12761290Y-9590683D01*
X12761085Y-9591111D01*
X12760892Y-9591528D01*
X12760628Y-9591991D01*
X12760447Y-9592492D01*
X12760447Y-9592492D01*
X12756871Y-9602342D01*
X12756810Y-9602507D01*
X12752908Y-9612806D01*
X12752806Y-9613331D01*
X12752676Y-9613784D01*
X12752556Y-9614230D01*
X12752374Y-9614731D01*
X12752279Y-9615256D01*
X12750415Y-9625567D01*
X12750382Y-9625739D01*
X12749062Y-9632498D01*
X12748271Y-9636549D01*
X12748259Y-9637083D01*
X12748201Y-9637613D01*
X12748165Y-9637609D01*
X12748155Y-9637711D01*
X12748190Y-9637715D01*
X12748143Y-9638128D01*
X12748069Y-9638536D01*
X12747950Y-9641071D01*
X12747950Y-9650040D01*
X12747946Y-9650337D01*
X12747701Y-9660734D01*
X12747779Y-9661262D01*
X12747779Y-9661262D01*
X12747816Y-9661517D01*
X12747950Y-9663346D01*
X12747950Y-10349735D01*
X12745950Y-10356547D01*
X12744259Y-10358644D01*
X12095112Y-11007792D01*
X12094460Y-11008399D01*
X12089435Y-11012760D01*
X12089096Y-11013173D01*
X12082454Y-11021273D01*
X12082349Y-11021400D01*
X12075239Y-11029829D01*
X12074968Y-11030289D01*
X12074705Y-11030661D01*
X12074435Y-11031054D01*
X12074096Y-11031467D01*
X12073832Y-11031931D01*
X12073832Y-11031931D01*
X12068650Y-11041034D01*
X12068562Y-11041187D01*
X12062979Y-11050684D01*
X12062790Y-11051183D01*
X12062585Y-11051611D01*
X12062392Y-11052028D01*
X12062128Y-11052491D01*
X12061947Y-11052992D01*
X12061947Y-11052992D01*
X12058371Y-11062842D01*
X12058310Y-11063007D01*
X12054408Y-11073306D01*
X12054306Y-11073831D01*
X12054176Y-11074284D01*
X12054056Y-11074730D01*
X12053874Y-11075231D01*
X12053779Y-11075756D01*
X12051915Y-11086067D01*
X12051882Y-11086239D01*
X12051108Y-11090204D01*
X12049771Y-11097049D01*
X12049759Y-11097583D01*
X12049701Y-11098113D01*
X12049665Y-11098109D01*
X12049655Y-11098211D01*
X12049690Y-11098215D01*
X12049643Y-11098628D01*
X12049569Y-11099036D01*
X12049450Y-11101571D01*
X12049450Y-11110540D01*
X12049446Y-11110837D01*
X12049201Y-11121234D01*
X12049279Y-11121762D01*
X12049279Y-11121762D01*
X12049316Y-11122017D01*
X12049450Y-11123846D01*
X12049450Y-13646971D01*
X12049418Y-13647860D01*
X12049177Y-13651276D01*
X12048949Y-13654497D01*
X12049473Y-13659796D01*
X12050032Y-13665451D01*
X12050048Y-13665626D01*
X12050811Y-13674615D01*
X12050980Y-13676605D01*
X12051114Y-13677121D01*
X12051192Y-13677581D01*
X12051278Y-13678041D01*
X12051330Y-13678572D01*
X12054247Y-13689198D01*
X12054289Y-13689353D01*
X12057057Y-13700021D01*
X12057276Y-13700507D01*
X12057431Y-13700946D01*
X12057593Y-13701386D01*
X12057734Y-13701900D01*
X12057960Y-13702383D01*
X12057960Y-13702383D01*
X12062397Y-13711876D01*
X12062468Y-13712031D01*
X12066993Y-13722078D01*
X12067292Y-13722521D01*
X12067519Y-13722930D01*
X12067751Y-13723333D01*
X12067977Y-13723816D01*
X12068281Y-13724254D01*
X12074255Y-13732866D01*
X12074351Y-13733007D01*
X12080504Y-13742145D01*
X12080872Y-13742532D01*
X12081206Y-13742947D01*
X12081178Y-13742970D01*
X12081243Y-13743050D01*
X12081271Y-13743027D01*
X12081529Y-13743351D01*
X12081766Y-13743693D01*
X12083474Y-13745570D01*
X12089812Y-13751908D01*
X12090019Y-13752120D01*
X12097202Y-13759650D01*
X12097630Y-13759968D01*
X12097838Y-13760122D01*
X12099226Y-13761322D01*
X12341290Y-14003386D01*
X12341897Y-14004038D01*
X12345649Y-14008362D01*
X12346260Y-14009065D01*
X12346672Y-14009403D01*
X12346673Y-14009404D01*
X12354774Y-14016047D01*
X12354910Y-14016159D01*
X12359294Y-14019857D01*
X12363328Y-14023261D01*
X12363788Y-14023531D01*
X12364165Y-14023798D01*
X12364555Y-14024066D01*
X12364967Y-14024404D01*
X12365430Y-14024667D01*
X12365430Y-14024668D01*
X12374536Y-14029851D01*
X12374688Y-14029939D01*
X12383724Y-14035251D01*
X12383724Y-14035251D01*
X12384183Y-14035521D01*
X12384682Y-14035710D01*
X12385108Y-14035914D01*
X12385528Y-14036108D01*
X12385991Y-14036371D01*
X12386492Y-14036553D01*
X12386492Y-14036553D01*
X12396342Y-14040129D01*
X12396507Y-14040190D01*
X12401738Y-14042172D01*
X12406806Y-14044092D01*
X12407330Y-14044194D01*
X12407784Y-14044323D01*
X12408229Y-14044444D01*
X12408731Y-14044626D01*
X12416954Y-14046113D01*
X12419567Y-14046585D01*
X12419739Y-14046618D01*
X12428659Y-14048360D01*
X12430549Y-14048729D01*
X12431082Y-14048741D01*
X12431613Y-14048799D01*
X12431609Y-14048835D01*
X12431711Y-14048845D01*
X12431715Y-14048810D01*
X12432128Y-14048857D01*
X12432536Y-14048930D01*
X12432950Y-14048950D01*
X12432951Y-14048950D01*
X12434922Y-14049043D01*
X12434922Y-14049043D01*
X12435070Y-14049050D01*
X12444040Y-14049050D01*
X12444337Y-14049053D01*
X12454734Y-14049298D01*
X12455262Y-14049221D01*
X12455262Y-14049221D01*
X12455399Y-14049201D01*
X12455517Y-14049184D01*
X12457346Y-14049050D01*
X12823579Y-14049050D01*
X12830391Y-14051050D01*
X12831534Y-14051879D01*
X12835040Y-14054732D01*
X12836967Y-14056302D01*
X12840987Y-14062154D01*
X12841205Y-14069250D01*
X12837921Y-14074982D01*
X12517644Y-14395259D01*
X12511413Y-14398662D01*
X12508735Y-14398950D01*
X12451598Y-14398950D01*
X12444786Y-14396950D01*
X12440137Y-14391584D01*
X12439127Y-14384557D01*
X12440447Y-14380484D01*
X12449864Y-14362586D01*
X12451079Y-14359144D01*
X12458751Y-14337419D01*
X12458903Y-14336989D01*
X12462582Y-14318323D01*
X12464064Y-14310804D01*
X12464064Y-14310803D01*
X12464152Y-14310357D01*
X12465056Y-14292211D01*
X12465479Y-14283702D01*
X12465479Y-14283701D01*
X12465502Y-14283245D01*
X12462924Y-14256222D01*
X12462301Y-14253677D01*
X12459202Y-14241011D01*
X12456472Y-14229855D01*
X12452495Y-14220036D01*
X12446453Y-14205119D01*
X12446452Y-14205118D01*
X12446281Y-14204695D01*
X12446051Y-14204302D01*
X12446050Y-14204301D01*
X12432796Y-14181664D01*
X12432796Y-14181664D01*
X12432565Y-14181270D01*
X12417552Y-14162497D01*
X12415896Y-14160427D01*
X12415896Y-14160427D01*
X12415611Y-14160071D01*
X12395775Y-14141540D01*
X12373471Y-14126068D01*
X12355690Y-14117222D01*
X12349576Y-14114180D01*
X12349575Y-14114180D01*
X12349167Y-14113977D01*
X12345295Y-14112707D01*
X12323806Y-14105663D01*
X12323805Y-14105663D01*
X12323372Y-14105521D01*
X12322923Y-14105443D01*
X12297005Y-14100943D01*
X12297005Y-14100942D01*
X12296627Y-14100877D01*
X12295829Y-14100837D01*
X12288207Y-14100458D01*
X12288206Y-14100458D01*
X12288050Y-14100450D01*
X12226105Y-14100450D01*
X12225878Y-14100466D01*
X12225877Y-14100466D01*
X12212694Y-14101423D01*
X12205926Y-14101914D01*
X12205480Y-14102012D01*
X12205480Y-14102012D01*
X12179865Y-14107668D01*
X12179865Y-14107668D01*
X12179419Y-14107766D01*
X12166727Y-14112575D01*
X12154462Y-14117222D01*
X12154461Y-14117222D01*
X12154035Y-14117384D01*
X12130304Y-14130565D01*
X12108725Y-14147033D01*
X12108406Y-14147360D01*
X12108406Y-14147360D01*
X12090069Y-14166117D01*
X12090069Y-14166118D01*
X12089750Y-14166444D01*
X12089481Y-14166813D01*
X12089481Y-14166814D01*
X12074044Y-14188022D01*
X12074043Y-14188022D01*
X12073775Y-14188391D01*
X12061136Y-14212414D01*
X12052097Y-14238010D01*
X12050477Y-14246227D01*
X12047760Y-14260016D01*
X12046848Y-14264643D01*
X12046825Y-14265099D01*
X12046825Y-14265099D01*
X12045621Y-14289281D01*
X12045498Y-14291755D01*
X12048076Y-14318777D01*
X12048184Y-14319220D01*
X12048185Y-14319221D01*
X12051371Y-14332241D01*
X12054528Y-14345145D01*
X12064719Y-14370305D01*
X12064949Y-14370698D01*
X12064950Y-14370699D01*
X12078204Y-14393336D01*
X12078435Y-14393730D01*
X12082610Y-14398950D01*
X12088532Y-14406356D01*
X12091225Y-14412925D01*
X12089938Y-14419907D01*
X12088880Y-14421640D01*
X12073775Y-14442391D01*
X12061136Y-14466414D01*
X12052097Y-14492010D01*
X12051403Y-14495533D01*
X12047385Y-14515916D01*
X12046848Y-14518643D01*
X12046825Y-14519099D01*
X12046825Y-14519099D01*
X12046045Y-14534764D01*
X12045498Y-14545755D01*
X12048076Y-14572777D01*
X12054528Y-14599145D01*
X12064719Y-14624305D01*
X12064949Y-14624698D01*
X12064950Y-14624699D01*
X12070386Y-14633983D01*
X12072102Y-14640873D01*
X12069821Y-14647596D01*
X12064267Y-14652019D01*
X12059513Y-14652950D01*
X11367265Y-14652950D01*
X11360453Y-14650950D01*
X11358356Y-14649259D01*
X11031061Y-14321965D01*
X11027658Y-14315733D01*
X11028165Y-14308652D01*
X11031829Y-14303438D01*
X11048196Y-14289583D01*
X11048196Y-14289583D01*
X11048553Y-14289281D01*
X11054246Y-14282789D01*
X11065889Y-14269512D01*
X11065890Y-14269512D01*
X11066198Y-14269161D01*
X11066865Y-14268122D01*
X11080422Y-14247046D01*
X11080422Y-14247046D01*
X11080675Y-14246653D01*
X11091666Y-14222253D01*
X11092337Y-14219876D01*
X11098803Y-14196947D01*
X11098803Y-14196947D01*
X11098930Y-14196497D01*
X11100193Y-14186572D01*
X11102268Y-14170262D01*
X11102268Y-14170262D01*
X11102308Y-14169949D01*
X11102555Y-14160500D01*
X11102144Y-14154971D01*
X11100606Y-14134279D01*
X11100606Y-14134278D01*
X11100572Y-14133812D01*
X11099900Y-14130842D01*
X11094769Y-14108167D01*
X11094666Y-14107711D01*
X11093814Y-14105521D01*
X11085136Y-14083204D01*
X11085135Y-14083204D01*
X11084966Y-14082769D01*
X11071687Y-14059535D01*
X11067255Y-14053913D01*
X11064609Y-14047325D01*
X11064550Y-14046113D01*
X11064550Y-13518265D01*
X11066550Y-13511453D01*
X11068241Y-13509356D01*
X11187844Y-13389752D01*
X11194075Y-13386349D01*
X11195382Y-13386136D01*
X11200903Y-13385531D01*
X11201355Y-13385413D01*
X11201355Y-13385413D01*
X11226331Y-13378837D01*
X11226783Y-13378718D01*
X11239222Y-13373374D01*
X11250941Y-13368339D01*
X11250941Y-13368339D01*
X11251371Y-13368154D01*
X11251769Y-13367908D01*
X11251769Y-13367908D01*
X11273730Y-13354318D01*
X11273731Y-13354318D01*
X11274127Y-13354072D01*
X11287266Y-13342950D01*
X11294196Y-13337083D01*
X11294196Y-13337083D01*
X11294553Y-13336781D01*
X11300011Y-13330557D01*
X11311889Y-13317012D01*
X11311890Y-13317012D01*
X11312198Y-13316661D01*
X11313467Y-13314687D01*
X11326422Y-13294546D01*
X11326422Y-13294546D01*
X11326675Y-13294153D01*
X11337666Y-13269753D01*
X11344930Y-13243997D01*
X11348307Y-13217449D01*
X11348555Y-13208000D01*
X11346980Y-13186805D01*
X11346606Y-13181779D01*
X11346606Y-13181778D01*
X11346572Y-13181312D01*
X11345516Y-13176647D01*
X11342966Y-13165378D01*
X11340665Y-13155211D01*
X11340496Y-13154775D01*
X11331135Y-13130704D01*
X11331135Y-13130704D01*
X11330966Y-13130269D01*
X11330454Y-13129374D01*
X11326002Y-13121584D01*
X11317687Y-13107035D01*
X11313255Y-13101413D01*
X11310608Y-13094825D01*
X11310550Y-13093613D01*
X11310550Y-12306925D01*
X11312553Y-12300108D01*
X11326422Y-12278546D01*
X11326422Y-12278546D01*
X11326675Y-12278153D01*
X11337666Y-12253753D01*
X11343446Y-12233258D01*
X11344803Y-12228447D01*
X11344803Y-12228447D01*
X11344930Y-12227997D01*
X11346710Y-12214004D01*
X11348268Y-12201762D01*
X11348268Y-12201762D01*
X11348307Y-12201449D01*
X11348555Y-12192000D01*
X11347572Y-12178776D01*
X11346606Y-12165779D01*
X11346606Y-12165778D01*
X11346572Y-12165312D01*
X11345516Y-12160647D01*
X11340769Y-12139667D01*
X11340665Y-12139211D01*
X11330966Y-12114269D01*
X11317687Y-12091035D01*
X11301119Y-12070019D01*
X11281627Y-12051682D01*
X11259638Y-12036429D01*
X11259219Y-12036222D01*
X11236056Y-12024799D01*
X11236056Y-12024799D01*
X11235637Y-12024592D01*
X11210150Y-12016434D01*
X11194074Y-12013816D01*
X11184198Y-12012207D01*
X11184198Y-12012207D01*
X11183736Y-12012132D01*
X11170357Y-12011957D01*
X11157445Y-12011788D01*
X11157445Y-12011788D01*
X11156977Y-12011782D01*
X11130461Y-12015391D01*
X11130012Y-12015521D01*
X11130012Y-12015521D01*
X11126882Y-12016434D01*
X11104768Y-12022879D01*
X11104343Y-12023075D01*
X11104343Y-12023075D01*
X11099504Y-12025306D01*
X11080465Y-12034083D01*
X11080074Y-12034339D01*
X11058476Y-12048500D01*
X11058476Y-12048500D01*
X11058085Y-12048756D01*
X11052298Y-12053922D01*
X11042082Y-12063040D01*
X11038120Y-12066576D01*
X11021008Y-12087151D01*
X11007124Y-12110030D01*
X11006944Y-12110461D01*
X11006944Y-12110461D01*
X10998729Y-12130050D01*
X10996776Y-12134709D01*
X10996660Y-12135162D01*
X10996660Y-12135163D01*
X10993050Y-12149378D01*
X10990188Y-12160647D01*
X10987507Y-12187274D01*
X10988791Y-12214004D01*
X10994012Y-12240251D01*
X11003055Y-12265438D01*
X11003277Y-12265851D01*
X11011466Y-12281092D01*
X11015722Y-12289012D01*
X11016001Y-12289386D01*
X11016001Y-12289387D01*
X11022946Y-12298687D01*
X11025419Y-12305342D01*
X11025450Y-12306225D01*
X11025450Y-13093255D01*
X11023450Y-13100067D01*
X11022537Y-13101312D01*
X11021307Y-13102792D01*
X11021306Y-13102792D01*
X11021008Y-13103151D01*
X11018405Y-13107440D01*
X11007466Y-13125467D01*
X11007124Y-13126030D01*
X11006944Y-13126461D01*
X11006944Y-13126461D01*
X10997849Y-13148150D01*
X10996776Y-13150709D01*
X10996660Y-13151162D01*
X10996660Y-13151163D01*
X10990348Y-13176019D01*
X10990188Y-13176647D01*
X10990141Y-13177113D01*
X10990141Y-13177113D01*
X10989791Y-13180593D01*
X10987118Y-13187170D01*
X10986164Y-13188240D01*
X10832060Y-13342344D01*
X10825828Y-13345747D01*
X10818747Y-13345240D01*
X10813063Y-13340986D01*
X10810582Y-13334334D01*
X10810550Y-13333435D01*
X10810550Y-13322925D01*
X10812553Y-13316108D01*
X10826422Y-13294546D01*
X10826422Y-13294546D01*
X10826675Y-13294153D01*
X10837666Y-13269753D01*
X10844930Y-13243997D01*
X10848308Y-13217449D01*
X10848555Y-13208000D01*
X10846980Y-13186805D01*
X10846606Y-13181779D01*
X10846606Y-13181778D01*
X10846572Y-13181312D01*
X10845516Y-13176647D01*
X10842966Y-13165378D01*
X10840666Y-13155211D01*
X10840496Y-13154775D01*
X10831136Y-13130704D01*
X10831135Y-13130704D01*
X10830966Y-13130269D01*
X10830455Y-13129374D01*
X10826002Y-13121584D01*
X10817687Y-13107035D01*
X10813255Y-13101413D01*
X10810609Y-13094825D01*
X10810550Y-13093613D01*
X10810550Y-12306925D01*
X10812553Y-12300108D01*
X10826422Y-12278546D01*
X10826422Y-12278546D01*
X10826675Y-12278153D01*
X10837666Y-12253753D01*
X10843447Y-12233258D01*
X10844803Y-12228447D01*
X10844803Y-12228447D01*
X10844930Y-12227997D01*
X10846710Y-12214004D01*
X10848268Y-12201762D01*
X10848268Y-12201762D01*
X10848308Y-12201449D01*
X10848555Y-12192000D01*
X10847572Y-12178776D01*
X10846606Y-12165779D01*
X10846606Y-12165778D01*
X10846572Y-12165312D01*
X10845516Y-12160647D01*
X10840769Y-12139667D01*
X10840666Y-12139211D01*
X10830966Y-12114269D01*
X10817687Y-12091035D01*
X10801119Y-12070019D01*
X10781627Y-12051682D01*
X10759639Y-12036429D01*
X10759219Y-12036222D01*
X10736056Y-12024799D01*
X10736056Y-12024799D01*
X10735637Y-12024592D01*
X10710150Y-12016434D01*
X10694074Y-12013816D01*
X10684198Y-12012207D01*
X10684198Y-12012207D01*
X10683736Y-12012132D01*
X10670357Y-12011957D01*
X10657445Y-12011788D01*
X10657445Y-12011788D01*
X10656977Y-12011782D01*
X10648980Y-12012870D01*
X10634220Y-12014879D01*
X10627201Y-12013816D01*
X10621870Y-12009126D01*
X10619921Y-12002299D01*
X10621973Y-11995502D01*
X10623612Y-11993485D01*
X10828388Y-11788708D01*
X10829040Y-11788101D01*
X10833661Y-11784091D01*
X10834065Y-11783740D01*
X10834403Y-11783328D01*
X10834404Y-11783327D01*
X10841047Y-11775226D01*
X10841153Y-11775098D01*
X10848261Y-11766671D01*
X10848532Y-11766211D01*
X10848798Y-11765835D01*
X10849065Y-11765446D01*
X10849404Y-11765033D01*
X10854853Y-11755460D01*
X10854935Y-11755319D01*
X10860251Y-11746277D01*
X10860251Y-11746276D01*
X10860521Y-11745816D01*
X10860710Y-11745318D01*
X10860906Y-11744908D01*
X10861107Y-11744473D01*
X10861372Y-11744009D01*
X10861721Y-11743046D01*
X10865126Y-11733664D01*
X10865188Y-11733499D01*
X10868903Y-11723693D01*
X10869092Y-11723194D01*
X10869194Y-11722671D01*
X10869320Y-11722230D01*
X10869444Y-11721770D01*
X10869626Y-11721269D01*
X10871586Y-11710431D01*
X10871616Y-11710269D01*
X10873729Y-11699451D01*
X10873741Y-11698917D01*
X10873799Y-11698387D01*
X10873835Y-11698391D01*
X10873845Y-11698289D01*
X10873810Y-11698285D01*
X10873857Y-11697872D01*
X10873931Y-11697464D01*
X10874050Y-11694929D01*
X10874050Y-11685960D01*
X10874054Y-11685663D01*
X10874082Y-11684440D01*
X10876242Y-11677677D01*
X10877769Y-11675827D01*
X11054720Y-11498876D01*
X11557044Y-11498876D01*
X11559884Y-11523422D01*
X11561901Y-11530549D01*
X11561889Y-11537453D01*
X11558523Y-11549191D01*
X11557450Y-11561218D01*
X11557450Y-11679782D01*
X11557475Y-11680060D01*
X11557475Y-11680061D01*
X11557988Y-11685812D01*
X11558523Y-11691809D01*
X11564126Y-11711347D01*
X11573543Y-11729360D01*
X11586389Y-11745111D01*
X11586883Y-11745514D01*
X11587254Y-11745816D01*
X11602140Y-11757957D01*
X11620153Y-11767374D01*
X11639691Y-11772977D01*
X11642854Y-11773259D01*
X11651439Y-11774025D01*
X11651440Y-11774025D01*
X11651718Y-11774050D01*
X11843282Y-11774050D01*
X11843560Y-11774025D01*
X11843561Y-11774025D01*
X11852145Y-11773259D01*
X11855309Y-11772977D01*
X11874847Y-11767374D01*
X11892860Y-11757957D01*
X11907746Y-11745816D01*
X11908117Y-11745514D01*
X11908611Y-11745111D01*
X11921457Y-11729360D01*
X11930874Y-11711347D01*
X11936477Y-11691809D01*
X11937012Y-11685812D01*
X11937525Y-11680061D01*
X11937525Y-11680060D01*
X11937550Y-11679782D01*
X11937550Y-11561218D01*
X11936477Y-11549191D01*
X11933146Y-11537576D01*
X11932924Y-11531526D01*
X11936731Y-11513303D01*
X11936731Y-11513302D01*
X11936835Y-11512807D01*
X11937956Y-11488124D01*
X11935116Y-11463578D01*
X11933491Y-11457837D01*
X11930096Y-11445840D01*
X11928388Y-11439803D01*
X11926234Y-11435183D01*
X11925168Y-11428164D01*
X11925890Y-11425343D01*
X11931600Y-11410467D01*
X11931600Y-11410467D01*
X11931782Y-11409995D01*
X11936835Y-11385807D01*
X11937956Y-11361124D01*
X11935116Y-11336578D01*
X11928388Y-11312803D01*
X11926234Y-11308183D01*
X11925168Y-11301164D01*
X11925890Y-11298343D01*
X11926082Y-11297844D01*
X11931782Y-11282995D01*
X11935896Y-11263300D01*
X11936731Y-11259303D01*
X11936731Y-11259302D01*
X11936835Y-11258807D01*
X11937956Y-11234124D01*
X11936881Y-11224835D01*
X11935174Y-11210081D01*
X11935116Y-11209578D01*
X11928388Y-11185803D01*
X11917945Y-11163409D01*
X11904057Y-11142972D01*
X11887079Y-11125019D01*
X11867450Y-11110011D01*
X11867005Y-11109772D01*
X11867004Y-11109772D01*
X11846120Y-11098574D01*
X11845674Y-11098335D01*
X11845195Y-11098170D01*
X11845195Y-11098170D01*
X11822789Y-11090455D01*
X11822311Y-11090290D01*
X11806463Y-11087553D01*
X11798353Y-11086152D01*
X11798352Y-11086152D01*
X11797962Y-11086085D01*
X11797566Y-11086067D01*
X11797566Y-11086067D01*
X11795142Y-11085956D01*
X11795140Y-11085956D01*
X11795000Y-11085950D01*
X11704792Y-11085950D01*
X11704541Y-11085970D01*
X11704541Y-11085970D01*
X11686875Y-11087392D01*
X11686874Y-11087392D01*
X11686370Y-11087432D01*
X11685880Y-11087553D01*
X11685879Y-11087553D01*
X11662866Y-11093205D01*
X11662865Y-11093206D01*
X11662374Y-11093326D01*
X11661908Y-11093524D01*
X11661908Y-11093524D01*
X11640096Y-11102783D01*
X11640096Y-11102783D01*
X11639629Y-11102981D01*
X11618721Y-11116148D01*
X11600186Y-11132488D01*
X11599865Y-11132879D01*
X11599865Y-11132879D01*
X11584867Y-11151138D01*
X11584502Y-11151582D01*
X11584248Y-11152019D01*
X11572883Y-11171546D01*
X11572073Y-11172937D01*
X11571892Y-11173410D01*
X11567135Y-11185803D01*
X11563218Y-11196005D01*
X11563115Y-11196500D01*
X11563115Y-11196501D01*
X11560278Y-11210081D01*
X11558165Y-11220192D01*
X11557044Y-11244876D01*
X11559884Y-11269422D01*
X11566612Y-11293197D01*
X11566826Y-11293656D01*
X11568766Y-11297817D01*
X11569832Y-11304836D01*
X11569110Y-11307657D01*
X11563218Y-11323005D01*
X11558165Y-11347192D01*
X11557044Y-11371876D01*
X11559884Y-11396422D01*
X11566612Y-11420197D01*
X11566826Y-11420656D01*
X11568766Y-11424817D01*
X11569832Y-11431836D01*
X11569110Y-11434657D01*
X11563218Y-11450005D01*
X11558165Y-11474192D01*
X11557044Y-11498876D01*
X11054720Y-11498876D01*
X11612356Y-10941241D01*
X11618587Y-10937838D01*
X11621265Y-10937550D01*
X11868971Y-10937550D01*
X11869860Y-10937582D01*
X11875965Y-10938014D01*
X11875965Y-10938014D01*
X11876497Y-10938051D01*
X11882191Y-10937488D01*
X11887451Y-10936968D01*
X11887626Y-10936952D01*
X11898074Y-10936065D01*
X11898074Y-10936065D01*
X11898605Y-10936020D01*
X11899121Y-10935886D01*
X11899581Y-10935808D01*
X11900041Y-10935722D01*
X11900572Y-10935670D01*
X11911198Y-10932753D01*
X11911353Y-10932711D01*
X11920306Y-10930388D01*
X11921505Y-10930077D01*
X11921505Y-10930076D01*
X11922021Y-10929943D01*
X11922507Y-10929724D01*
X11922946Y-10929569D01*
X11923386Y-10929407D01*
X11923900Y-10929266D01*
X11924383Y-10929040D01*
X11924383Y-10929040D01*
X11928647Y-10927047D01*
X11933881Y-10924601D01*
X11934031Y-10924532D01*
X11944078Y-10920007D01*
X11944521Y-10919708D01*
X11944930Y-10919481D01*
X11945333Y-10919249D01*
X11945816Y-10919023D01*
X11954866Y-10912745D01*
X11955007Y-10912649D01*
X11964145Y-10906496D01*
X11964532Y-10906128D01*
X11964947Y-10905794D01*
X11964970Y-10905822D01*
X11965050Y-10905757D01*
X11965027Y-10905729D01*
X11965351Y-10905471D01*
X11965693Y-10905234D01*
X11967570Y-10903526D01*
X11973908Y-10897188D01*
X11974120Y-10896981D01*
X11981264Y-10890166D01*
X11981650Y-10889798D01*
X11982122Y-10889162D01*
X11983322Y-10887774D01*
X12288886Y-10582210D01*
X12289538Y-10581603D01*
X12294161Y-10577591D01*
X12294161Y-10577591D01*
X12294565Y-10577240D01*
X12301555Y-10568715D01*
X12301653Y-10568598D01*
X12308761Y-10560172D01*
X12309032Y-10559711D01*
X12309297Y-10559336D01*
X12309565Y-10558946D01*
X12309904Y-10558533D01*
X12315350Y-10548966D01*
X12315438Y-10548814D01*
X12320750Y-10539777D01*
X12321021Y-10539317D01*
X12321210Y-10538817D01*
X12321415Y-10538389D01*
X12321608Y-10537972D01*
X12321871Y-10537509D01*
X12325629Y-10527158D01*
X12325690Y-10526993D01*
X12328829Y-10518708D01*
X12329592Y-10516694D01*
X12329694Y-10516170D01*
X12329823Y-10515716D01*
X12329944Y-10515271D01*
X12330126Y-10514769D01*
X12332085Y-10503933D01*
X12332118Y-10503761D01*
X12334126Y-10493475D01*
X12334126Y-10493475D01*
X12334229Y-10492951D01*
X12334241Y-10492418D01*
X12334299Y-10491887D01*
X12334335Y-10491891D01*
X12334345Y-10491789D01*
X12334310Y-10491785D01*
X12334357Y-10491372D01*
X12334430Y-10490964D01*
X12334550Y-10488430D01*
X12334550Y-10479460D01*
X12334553Y-10479163D01*
X12334654Y-10474879D01*
X12334798Y-10468766D01*
X12334684Y-10467983D01*
X12334550Y-10466154D01*
X12334550Y-10400541D01*
X12336550Y-10393729D01*
X12341916Y-10389080D01*
X12348943Y-10388069D01*
X12353649Y-10389746D01*
X12359499Y-10393268D01*
X12359908Y-10393442D01*
X12359908Y-10393442D01*
X12383872Y-10403589D01*
X12383873Y-10403589D01*
X12384282Y-10403763D01*
X12387960Y-10404738D01*
X12409867Y-10410547D01*
X12409868Y-10410547D01*
X12410297Y-10410661D01*
X12410738Y-10410713D01*
X12410739Y-10410713D01*
X12425629Y-10412475D01*
X12437024Y-10413824D01*
X12463931Y-10413190D01*
X12464371Y-10413117D01*
X12490041Y-10408844D01*
X12490041Y-10408844D01*
X12490480Y-10408771D01*
X12490904Y-10408637D01*
X12490904Y-10408637D01*
X12515716Y-10400790D01*
X12515716Y-10400790D01*
X12516141Y-10400655D01*
X12516542Y-10400463D01*
X12516542Y-10400463D01*
X12540001Y-10389198D01*
X12540001Y-10389198D01*
X12540402Y-10389005D01*
X12540773Y-10388758D01*
X12562410Y-10374300D01*
X12562410Y-10374300D01*
X12562781Y-10374053D01*
X12563112Y-10373756D01*
X12563113Y-10373755D01*
X12582497Y-10356393D01*
X12582829Y-10356096D01*
X12589659Y-10347970D01*
X12599860Y-10335835D01*
X12599861Y-10335834D01*
X12600146Y-10335494D01*
X12614389Y-10312657D01*
X12617023Y-10306699D01*
X12625091Y-10288450D01*
X12625271Y-10288042D01*
X12632577Y-10262138D01*
X12636159Y-10235464D01*
X12636402Y-10227755D01*
X12636525Y-10223822D01*
X12636525Y-10223822D01*
X12636535Y-10223500D01*
X12634635Y-10196653D01*
X12628970Y-10170342D01*
X12627478Y-10166299D01*
X12619809Y-10145510D01*
X12619809Y-10145510D01*
X12619655Y-10145092D01*
X12612508Y-10131847D01*
X12607086Y-10121798D01*
X12606874Y-10121406D01*
X12594494Y-10104644D01*
X12591015Y-10099934D01*
X12588577Y-10093266D01*
X12588550Y-10092448D01*
X12588550Y-9716265D01*
X12590550Y-9709453D01*
X12592240Y-9707356D01*
X12614593Y-9685003D01*
X12614594Y-9685002D01*
X13241386Y-9058210D01*
X13242038Y-9057603D01*
X13246661Y-9053591D01*
X13246661Y-9053591D01*
X13247065Y-9053240D01*
X13254055Y-9044715D01*
X13254153Y-9044598D01*
X13261261Y-9036172D01*
X13261532Y-9035711D01*
X13261797Y-9035336D01*
X13262065Y-9034946D01*
X13262404Y-9034533D01*
X13267850Y-9024966D01*
X13267938Y-9024814D01*
X13273250Y-9015777D01*
X13273521Y-9015317D01*
X13273710Y-9014817D01*
X13273915Y-9014389D01*
X13274108Y-9013972D01*
X13274371Y-9013509D01*
X13278129Y-9003158D01*
X13278190Y-9002993D01*
X13281903Y-8993194D01*
X13282092Y-8992694D01*
X13282194Y-8992170D01*
X13282323Y-8991716D01*
X13282444Y-8991271D01*
X13282626Y-8990769D01*
X13284585Y-8979933D01*
X13284618Y-8979761D01*
X13286626Y-8969475D01*
X13286626Y-8969475D01*
X13286729Y-8968951D01*
X13286741Y-8968418D01*
X13286799Y-8967887D01*
X13286835Y-8967891D01*
X13286845Y-8967789D01*
X13286810Y-8967785D01*
X13286857Y-8967372D01*
X13286930Y-8966964D01*
X13287050Y-8964430D01*
X13287050Y-8955460D01*
X13287053Y-8955163D01*
X13287286Y-8945300D01*
X13287298Y-8944766D01*
X13287184Y-8943983D01*
X13287050Y-8942154D01*
X13287050Y-8067882D01*
X13289050Y-8061070D01*
X13290004Y-8059775D01*
X13298646Y-8049494D01*
X13312889Y-8026657D01*
X13323771Y-8002042D01*
X13331077Y-7976138D01*
X13334385Y-7951510D01*
X13334617Y-7949782D01*
X13334617Y-7949781D01*
X13334659Y-7949464D01*
X13334922Y-7941116D01*
X13335025Y-7937822D01*
X13335025Y-7937822D01*
X13335035Y-7937500D01*
X13333135Y-7910653D01*
X13331875Y-7904802D01*
X13332396Y-7897722D01*
X13336663Y-7892047D01*
X13343321Y-7889580D01*
X13344193Y-7889550D01*
X14166123Y-7889550D01*
X14172935Y-7891550D01*
G37*
%TD.AperFunction*%
%TA.AperFunction,NonConductor*%
G36*
X14801547Y-13416050D02*
G01*
X14803644Y-13417740D01*
X15185833Y-13799930D01*
X15189236Y-13806161D01*
X15189333Y-13811027D01*
X15189303Y-13811194D01*
X15189188Y-13811647D01*
X15186507Y-13838274D01*
X15187791Y-13865004D01*
X15193012Y-13891251D01*
X15202055Y-13916438D01*
X15202276Y-13916851D01*
X15213302Y-13937370D01*
X15214721Y-13940012D01*
X15215001Y-13940386D01*
X15215001Y-13940387D01*
X15225034Y-13953822D01*
X15230733Y-13961455D01*
X15231064Y-13961782D01*
X15231065Y-13961783D01*
X15247501Y-13978076D01*
X15249739Y-13980295D01*
X15250116Y-13980571D01*
X15250116Y-13980571D01*
X15262881Y-13989931D01*
X15271320Y-13996119D01*
X15271734Y-13996337D01*
X15271734Y-13996337D01*
X15284692Y-14003154D01*
X15295004Y-14008580D01*
X15295446Y-14008734D01*
X15319827Y-14017248D01*
X15319828Y-14017249D01*
X15320269Y-14017403D01*
X15337017Y-14020582D01*
X15341200Y-14021377D01*
X15347520Y-14024612D01*
X15351086Y-14030751D01*
X15351450Y-14033755D01*
X15351450Y-14350235D01*
X15349450Y-14357047D01*
X15347759Y-14359144D01*
X14803644Y-14903259D01*
X14797413Y-14906662D01*
X14794735Y-14906950D01*
X14035065Y-14906950D01*
X14028253Y-14904950D01*
X14023604Y-14899584D01*
X14022593Y-14892557D01*
X14025543Y-14886099D01*
X14026156Y-14885440D01*
X14886844Y-14024752D01*
X14893075Y-14021349D01*
X14894382Y-14021136D01*
X14899903Y-14020531D01*
X14900355Y-14020413D01*
X14900355Y-14020413D01*
X14925331Y-14013837D01*
X14925783Y-14013718D01*
X14949095Y-14003702D01*
X14949941Y-14003339D01*
X14949941Y-14003339D01*
X14950371Y-14003154D01*
X14950769Y-14002908D01*
X14950769Y-14002908D01*
X14972730Y-13989318D01*
X14972731Y-13989318D01*
X14973127Y-13989072D01*
X14982979Y-13980732D01*
X14993196Y-13972083D01*
X14993196Y-13972083D01*
X14993553Y-13971781D01*
X14997992Y-13966719D01*
X15010889Y-13952012D01*
X15010890Y-13952012D01*
X15011198Y-13951661D01*
X15015430Y-13945080D01*
X15025422Y-13929546D01*
X15025422Y-13929546D01*
X15025675Y-13929153D01*
X15036666Y-13904753D01*
X15042822Y-13882926D01*
X15043803Y-13879447D01*
X15043803Y-13879447D01*
X15043930Y-13878997D01*
X15045710Y-13865004D01*
X15047268Y-13852762D01*
X15047268Y-13852762D01*
X15047307Y-13852449D01*
X15047555Y-13843000D01*
X15047041Y-13836091D01*
X15045606Y-13816779D01*
X15045606Y-13816778D01*
X15045572Y-13816312D01*
X15044945Y-13813541D01*
X15039769Y-13790667D01*
X15039665Y-13790211D01*
X15029966Y-13765269D01*
X15016687Y-13742035D01*
X15000119Y-13721019D01*
X14980627Y-13702682D01*
X14958638Y-13687429D01*
X14957646Y-13686939D01*
X14935056Y-13675799D01*
X14935056Y-13675799D01*
X14934637Y-13675592D01*
X14909150Y-13667434D01*
X14894613Y-13665066D01*
X14883198Y-13663207D01*
X14883197Y-13663207D01*
X14882736Y-13663132D01*
X14869357Y-13662957D01*
X14856445Y-13662788D01*
X14856445Y-13662788D01*
X14855977Y-13662782D01*
X14829460Y-13666391D01*
X14829012Y-13666521D01*
X14829012Y-13666521D01*
X14825882Y-13667434D01*
X14803768Y-13673879D01*
X14803343Y-13674075D01*
X14803343Y-13674075D01*
X14799008Y-13676074D01*
X14779465Y-13685083D01*
X14776208Y-13687218D01*
X14757476Y-13699500D01*
X14757476Y-13699500D01*
X14757085Y-13699756D01*
X14747102Y-13708666D01*
X14743418Y-13711954D01*
X14737120Y-13717576D01*
X14720007Y-13738151D01*
X14719765Y-13738550D01*
X14706675Y-13760122D01*
X14706124Y-13761030D01*
X14695775Y-13785709D01*
X14695660Y-13786162D01*
X14695660Y-13786163D01*
X14690373Y-13806982D01*
X14689188Y-13811647D01*
X14689141Y-13812112D01*
X14689141Y-13812113D01*
X14688791Y-13815593D01*
X14686118Y-13822170D01*
X14685164Y-13823240D01*
X13859144Y-14649259D01*
X13852913Y-14652662D01*
X13850235Y-14652950D01*
X12693565Y-14652950D01*
X12686753Y-14650950D01*
X12682104Y-14645584D01*
X12681093Y-14638557D01*
X12684043Y-14632099D01*
X12684656Y-14631440D01*
X13238950Y-14077146D01*
X13245182Y-14073743D01*
X13252263Y-14074250D01*
X13255824Y-14076291D01*
X13256640Y-14076957D01*
X13274653Y-14086374D01*
X13294191Y-14091977D01*
X13297354Y-14092259D01*
X13305939Y-14093025D01*
X13305940Y-14093025D01*
X13306218Y-14093050D01*
X13617782Y-14093050D01*
X13618060Y-14093025D01*
X13618061Y-14093025D01*
X13626645Y-14092259D01*
X13629809Y-14091977D01*
X13649347Y-14086374D01*
X13667360Y-14076957D01*
X13676810Y-14069250D01*
X13682617Y-14064514D01*
X13683111Y-14064111D01*
X13695192Y-14049298D01*
X13695554Y-14048854D01*
X13695554Y-14048854D01*
X13695957Y-14048360D01*
X13696868Y-14046618D01*
X13700260Y-14040129D01*
X13705374Y-14030347D01*
X13710977Y-14010809D01*
X13712050Y-13998782D01*
X13712050Y-13937844D01*
X13714050Y-13931031D01*
X13719416Y-13926382D01*
X13726443Y-13925372D01*
X13732901Y-13928321D01*
X13736633Y-13933950D01*
X13737050Y-13935231D01*
X13737218Y-13935590D01*
X13737219Y-13935590D01*
X13750277Y-13963342D01*
X13750278Y-13963343D01*
X13750446Y-13963701D01*
X13767305Y-13990266D01*
X13777333Y-14002388D01*
X13782583Y-14008734D01*
X13787361Y-14014509D01*
X13810297Y-14036048D01*
X13810617Y-14036280D01*
X13810617Y-14036281D01*
X13835431Y-14054308D01*
X13835431Y-14054309D01*
X13835752Y-14054542D01*
X13844167Y-14059168D01*
X13862506Y-14069250D01*
X13863323Y-14069699D01*
X13873537Y-14073743D01*
X13892209Y-14081136D01*
X13892209Y-14081136D01*
X13892577Y-14081282D01*
X13892961Y-14081380D01*
X13892962Y-14081381D01*
X13911258Y-14086078D01*
X13923053Y-14089107D01*
X13923445Y-14089156D01*
X13923446Y-14089156D01*
X13935837Y-14090722D01*
X13954268Y-14093050D01*
X13985732Y-14093050D01*
X14004162Y-14090722D01*
X14016554Y-14089156D01*
X14016554Y-14089156D01*
X14016947Y-14089107D01*
X14028742Y-14086078D01*
X14047038Y-14081381D01*
X14047039Y-14081380D01*
X14047422Y-14081282D01*
X14047790Y-14081136D01*
X14047791Y-14081136D01*
X14066463Y-14073743D01*
X14076677Y-14069699D01*
X14077494Y-14069250D01*
X14095833Y-14059168D01*
X14104248Y-14054542D01*
X14104569Y-14054309D01*
X14104569Y-14054308D01*
X14129383Y-14036281D01*
X14129383Y-14036280D01*
X14129703Y-14036048D01*
X14152639Y-14014509D01*
X14157417Y-14008734D01*
X14163938Y-14000852D01*
X14172695Y-13990266D01*
X14172907Y-13989932D01*
X14173140Y-13989612D01*
X14173233Y-13989680D01*
X14178197Y-13985328D01*
X14182432Y-13984204D01*
X14184074Y-13984065D01*
X14184074Y-13984065D01*
X14184605Y-13984020D01*
X14185121Y-13983886D01*
X14185581Y-13983808D01*
X14186041Y-13983722D01*
X14186572Y-13983670D01*
X14197198Y-13980753D01*
X14197353Y-13980711D01*
X14204053Y-13978972D01*
X14207505Y-13978076D01*
X14207505Y-13978076D01*
X14208021Y-13977942D01*
X14208507Y-13977724D01*
X14208946Y-13977569D01*
X14209386Y-13977407D01*
X14209900Y-13977266D01*
X14210383Y-13977040D01*
X14210383Y-13977040D01*
X14214647Y-13975047D01*
X14219881Y-13972601D01*
X14220031Y-13972532D01*
X14230078Y-13968007D01*
X14230521Y-13967708D01*
X14230930Y-13967481D01*
X14231333Y-13967248D01*
X14231816Y-13967023D01*
X14239843Y-13961455D01*
X14240866Y-13960745D01*
X14241007Y-13960649D01*
X14250145Y-13954496D01*
X14250532Y-13954128D01*
X14250947Y-13953794D01*
X14250970Y-13953822D01*
X14251050Y-13953757D01*
X14251027Y-13953729D01*
X14251351Y-13953471D01*
X14251693Y-13953234D01*
X14253570Y-13951526D01*
X14259908Y-13945188D01*
X14260120Y-13944981D01*
X14267264Y-13938166D01*
X14267650Y-13937798D01*
X14268122Y-13937162D01*
X14269322Y-13935774D01*
X14511386Y-13693710D01*
X14512038Y-13693103D01*
X14516661Y-13689091D01*
X14516661Y-13689091D01*
X14517065Y-13688740D01*
X14517403Y-13688328D01*
X14517404Y-13688327D01*
X14524047Y-13680226D01*
X14524159Y-13680090D01*
X14530917Y-13672079D01*
X14531261Y-13671671D01*
X14531531Y-13671212D01*
X14531798Y-13670835D01*
X14532066Y-13670445D01*
X14532404Y-13670033D01*
X14534513Y-13666328D01*
X14537851Y-13660464D01*
X14537939Y-13660312D01*
X14543251Y-13651276D01*
X14543251Y-13651276D01*
X14543521Y-13650816D01*
X14543710Y-13650318D01*
X14543914Y-13649892D01*
X14544108Y-13649472D01*
X14544371Y-13649009D01*
X14548129Y-13638658D01*
X14548190Y-13638493D01*
X14550767Y-13631691D01*
X14552092Y-13628194D01*
X14552194Y-13627669D01*
X14552323Y-13627216D01*
X14552444Y-13626770D01*
X14552626Y-13626269D01*
X14554585Y-13615433D01*
X14554618Y-13615261D01*
X14556626Y-13604975D01*
X14556626Y-13604975D01*
X14556729Y-13604451D01*
X14556741Y-13603917D01*
X14556799Y-13603387D01*
X14556835Y-13603391D01*
X14556845Y-13603289D01*
X14556810Y-13603285D01*
X14556857Y-13602872D01*
X14556930Y-13602464D01*
X14557050Y-13599929D01*
X14557050Y-13590960D01*
X14557053Y-13590663D01*
X14557286Y-13580800D01*
X14557298Y-13580266D01*
X14557184Y-13579483D01*
X14557050Y-13577654D01*
X14557050Y-13426650D01*
X14559050Y-13419838D01*
X14564416Y-13415189D01*
X14569650Y-13414050D01*
X14794735Y-13414050D01*
X14801547Y-13416050D01*
G37*
%TD.AperFunction*%
%TA.AperFunction,NonConductor*%
G36*
X10513901Y-13303061D02*
G01*
X10515746Y-13305045D01*
X10522946Y-13314687D01*
X10525419Y-13321342D01*
X10525450Y-13322225D01*
X10525450Y-14154971D01*
X10525419Y-14155860D01*
X10525068Y-14160816D01*
X10524949Y-14162497D01*
X10525376Y-14166814D01*
X10526032Y-14173451D01*
X10526048Y-14173626D01*
X10526935Y-14184074D01*
X10526980Y-14184605D01*
X10527114Y-14185121D01*
X10527192Y-14185581D01*
X10527278Y-14186041D01*
X10527330Y-14186572D01*
X10530247Y-14197198D01*
X10530289Y-14197353D01*
X10533058Y-14208021D01*
X10533276Y-14208507D01*
X10533431Y-14208946D01*
X10533593Y-14209386D01*
X10533734Y-14209900D01*
X10533960Y-14210383D01*
X10533960Y-14210383D01*
X10538397Y-14219876D01*
X10538468Y-14220031D01*
X10542993Y-14230078D01*
X10543292Y-14230521D01*
X10543519Y-14230930D01*
X10543752Y-14231333D01*
X10543977Y-14231816D01*
X10544281Y-14232254D01*
X10550255Y-14240866D01*
X10550351Y-14241007D01*
X10556504Y-14250145D01*
X10556872Y-14250532D01*
X10557206Y-14250947D01*
X10557178Y-14250970D01*
X10557243Y-14251050D01*
X10557271Y-14251027D01*
X10557529Y-14251351D01*
X10557766Y-14251693D01*
X10559474Y-14253570D01*
X10565812Y-14259908D01*
X10566019Y-14260120D01*
X10573202Y-14267650D01*
X10573630Y-14267968D01*
X10573838Y-14268122D01*
X10575226Y-14269322D01*
X10808507Y-14502603D01*
X10811910Y-14508834D01*
X10811403Y-14515916D01*
X10807988Y-14520913D01*
X10792469Y-14534764D01*
X10792120Y-14535076D01*
X10775008Y-14555651D01*
X10761124Y-14578530D01*
X10750776Y-14603209D01*
X10744188Y-14629147D01*
X10741507Y-14655774D01*
X10742791Y-14682504D01*
X10748012Y-14708751D01*
X10757055Y-14733938D01*
X10769722Y-14757512D01*
X10770001Y-14757886D01*
X10770001Y-14757887D01*
X10779637Y-14770790D01*
X10785734Y-14778955D01*
X10786064Y-14779282D01*
X10786065Y-14779283D01*
X10804407Y-14797466D01*
X10804739Y-14797795D01*
X10826321Y-14813619D01*
X10826734Y-14813837D01*
X10826734Y-14813837D01*
X10839692Y-14820654D01*
X10850004Y-14826080D01*
X10850446Y-14826234D01*
X10874827Y-14834748D01*
X10874828Y-14834749D01*
X10875269Y-14834903D01*
X10901561Y-14839894D01*
X10914262Y-14840393D01*
X10927835Y-14840927D01*
X10927835Y-14840927D01*
X10928301Y-14840945D01*
X10937894Y-14839894D01*
X10954438Y-14838082D01*
X10954439Y-14838082D01*
X10954904Y-14838031D01*
X10966457Y-14834990D01*
X10980331Y-14831337D01*
X10980783Y-14831218D01*
X10993250Y-14825862D01*
X11004941Y-14820839D01*
X11004941Y-14820839D01*
X11005371Y-14820654D01*
X11005769Y-14820408D01*
X11005769Y-14820408D01*
X11027730Y-14806818D01*
X11027731Y-14806818D01*
X11028128Y-14806572D01*
X11031586Y-14803644D01*
X11048196Y-14789583D01*
X11048196Y-14789583D01*
X11048553Y-14789281D01*
X11048861Y-14788930D01*
X11048861Y-14788929D01*
X11061471Y-14774551D01*
X11067466Y-14770748D01*
X11074566Y-14770790D01*
X11079853Y-14773949D01*
X11191344Y-14885440D01*
X11194747Y-14891672D01*
X11194240Y-14898753D01*
X11189986Y-14904437D01*
X11183334Y-14906918D01*
X11182435Y-14906950D01*
X10605265Y-14906950D01*
X10598453Y-14904950D01*
X10596356Y-14903259D01*
X10496741Y-14803644D01*
X10493338Y-14797413D01*
X10493050Y-14794735D01*
X10493050Y-13312583D01*
X10495050Y-13305771D01*
X10500416Y-13301122D01*
X10507443Y-13300112D01*
X10513901Y-13303061D01*
G37*
%TD.AperFunction*%
%TA.AperFunction,NonConductor*%
G36*
X12303247Y-7722050D02*
G01*
X12307896Y-7727416D01*
X12308907Y-7734443D01*
X12305957Y-7740901D01*
X12305344Y-7741559D01*
X11948731Y-8098173D01*
X11592493Y-8454410D01*
X11586262Y-8457813D01*
X11585283Y-8457986D01*
X11575424Y-8459328D01*
X11575423Y-8459328D01*
X11574960Y-8459391D01*
X11549268Y-8466879D01*
X11548843Y-8467075D01*
X11548843Y-8467075D01*
X11543651Y-8469469D01*
X11524965Y-8478083D01*
X11524574Y-8478339D01*
X11502976Y-8492500D01*
X11502976Y-8492500D01*
X11502585Y-8492756D01*
X11482620Y-8510576D01*
X11474891Y-8519869D01*
X11467337Y-8528951D01*
X11465507Y-8531151D01*
X11465265Y-8531551D01*
X11460246Y-8539823D01*
X11451624Y-8554030D01*
X11451444Y-8554461D01*
X11451444Y-8554461D01*
X11446521Y-8566201D01*
X11441275Y-8578709D01*
X11441160Y-8579162D01*
X11441160Y-8579163D01*
X11434803Y-8604193D01*
X11434688Y-8604647D01*
X11432007Y-8631274D01*
X11432029Y-8631740D01*
X11432029Y-8631741D01*
X11432673Y-8645134D01*
X11433291Y-8658004D01*
X11438512Y-8684251D01*
X11447555Y-8709438D01*
X11447776Y-8709851D01*
X11454598Y-8722547D01*
X11460221Y-8733012D01*
X11460501Y-8733386D01*
X11460501Y-8733387D01*
X11468920Y-8744661D01*
X11476233Y-8754455D01*
X11476564Y-8754783D01*
X11476565Y-8754783D01*
X11489951Y-8768053D01*
X11495239Y-8773295D01*
X11516820Y-8789119D01*
X11517234Y-8789337D01*
X11517234Y-8789337D01*
X11530192Y-8796154D01*
X11540504Y-8801580D01*
X11540946Y-8801734D01*
X11565327Y-8810248D01*
X11565328Y-8810249D01*
X11565769Y-8810403D01*
X11566228Y-8810490D01*
X11579021Y-8812919D01*
X11592061Y-8815394D01*
X11604762Y-8815893D01*
X11618334Y-8816427D01*
X11618335Y-8816427D01*
X11618801Y-8816445D01*
X11628394Y-8815394D01*
X11644938Y-8813583D01*
X11644939Y-8813582D01*
X11645403Y-8813532D01*
X11656957Y-8810490D01*
X11670831Y-8806837D01*
X11671283Y-8806718D01*
X11683750Y-8801362D01*
X11695441Y-8796339D01*
X11695441Y-8796339D01*
X11695871Y-8796154D01*
X11696269Y-8795908D01*
X11696269Y-8795908D01*
X11718230Y-8782318D01*
X11718231Y-8782318D01*
X11718627Y-8782072D01*
X11720001Y-8780909D01*
X11738696Y-8765083D01*
X11738696Y-8765083D01*
X11739053Y-8764781D01*
X11748436Y-8754081D01*
X11756389Y-8745012D01*
X11756390Y-8745012D01*
X11756698Y-8744661D01*
X11757974Y-8742676D01*
X11770922Y-8722547D01*
X11770922Y-8722546D01*
X11771175Y-8722153D01*
X11782166Y-8697753D01*
X11787174Y-8679998D01*
X11789303Y-8672447D01*
X11789303Y-8672447D01*
X11789430Y-8671997D01*
X11789789Y-8669176D01*
X11790538Y-8663288D01*
X11793382Y-8656782D01*
X11794128Y-8655968D01*
X12314177Y-8135919D01*
X12320409Y-8132516D01*
X12327490Y-8133022D01*
X12333174Y-8137277D01*
X12334358Y-8139196D01*
X12339339Y-8149164D01*
X12345498Y-8161490D01*
X12360800Y-8183631D01*
X12361102Y-8183958D01*
X12378768Y-8203068D01*
X12378768Y-8203069D01*
X12379069Y-8203394D01*
X12399941Y-8220387D01*
X12422999Y-8234268D01*
X12423408Y-8234442D01*
X12423408Y-8234442D01*
X12447372Y-8244589D01*
X12447373Y-8244589D01*
X12447782Y-8244763D01*
X12455675Y-8246856D01*
X12473367Y-8251547D01*
X12473368Y-8251547D01*
X12473797Y-8251661D01*
X12474238Y-8251713D01*
X12474239Y-8251713D01*
X12493581Y-8254002D01*
X12500111Y-8256789D01*
X12501009Y-8257605D01*
X12572759Y-8329356D01*
X12576162Y-8335587D01*
X12576450Y-8338265D01*
X12576450Y-8399214D01*
X12576471Y-8399468D01*
X12576471Y-8399469D01*
X12576914Y-8404916D01*
X12577595Y-8413290D01*
X12583146Y-8434911D01*
X12592439Y-8455208D01*
X12592759Y-8455668D01*
X12592759Y-8455668D01*
X12601885Y-8468799D01*
X12605178Y-8473538D01*
X12620962Y-8489322D01*
X12621423Y-8489642D01*
X12621423Y-8489642D01*
X12638832Y-8501741D01*
X12639292Y-8502061D01*
X12651908Y-8507837D01*
X12659078Y-8511120D01*
X12659078Y-8511120D01*
X12659589Y-8511354D01*
X12681210Y-8516905D01*
X12687404Y-8517409D01*
X12695031Y-8518029D01*
X12695032Y-8518029D01*
X12695286Y-8518050D01*
X12831714Y-8518050D01*
X12831968Y-8518029D01*
X12831969Y-8518029D01*
X12839596Y-8517409D01*
X12845790Y-8516905D01*
X12867411Y-8511354D01*
X12867922Y-8511120D01*
X12867922Y-8511120D01*
X12875091Y-8507837D01*
X12887707Y-8502061D01*
X12896425Y-8496002D01*
X12904409Y-8490454D01*
X12911144Y-8488208D01*
X12918204Y-8490089D01*
X12918391Y-8490225D01*
X12942414Y-8502864D01*
X12942844Y-8503016D01*
X12942845Y-8503016D01*
X12956153Y-8507716D01*
X12968010Y-8511903D01*
X12968457Y-8511991D01*
X12968457Y-8511991D01*
X12991786Y-8516589D01*
X12998083Y-8519869D01*
X13001607Y-8526032D01*
X13001950Y-8528951D01*
X13001950Y-8889235D01*
X12999950Y-8896047D01*
X12998259Y-8898144D01*
X12349112Y-9547292D01*
X12348460Y-9547899D01*
X12343435Y-9552260D01*
X12343096Y-9552673D01*
X12343096Y-9552673D01*
X12336454Y-9560773D01*
X12336349Y-9560900D01*
X12329239Y-9569329D01*
X12328968Y-9569789D01*
X12328705Y-9570161D01*
X12328435Y-9570554D01*
X12328096Y-9570967D01*
X12327832Y-9571431D01*
X12327832Y-9571431D01*
X12322650Y-9580534D01*
X12322562Y-9580687D01*
X12316979Y-9590184D01*
X12316790Y-9590683D01*
X12316585Y-9591111D01*
X12316392Y-9591528D01*
X12316128Y-9591991D01*
X12315947Y-9592492D01*
X12315947Y-9592492D01*
X12312371Y-9602342D01*
X12312310Y-9602507D01*
X12308408Y-9612806D01*
X12308306Y-9613331D01*
X12308176Y-9613784D01*
X12308056Y-9614230D01*
X12307874Y-9614731D01*
X12307779Y-9615256D01*
X12305915Y-9625567D01*
X12305882Y-9625739D01*
X12304562Y-9632498D01*
X12303771Y-9636549D01*
X12303759Y-9637083D01*
X12303701Y-9637613D01*
X12303665Y-9637609D01*
X12303655Y-9637711D01*
X12303690Y-9637715D01*
X12303643Y-9638128D01*
X12303569Y-9638536D01*
X12303450Y-9641071D01*
X12303450Y-9650040D01*
X12303446Y-9650337D01*
X12303201Y-9660734D01*
X12303279Y-9661262D01*
X12303279Y-9661262D01*
X12303316Y-9661517D01*
X12303450Y-9663346D01*
X12303450Y-9848935D01*
X12301450Y-9855747D01*
X12296084Y-9860396D01*
X12289057Y-9861407D01*
X12282599Y-9858457D01*
X12281940Y-9857844D01*
X12042709Y-9618613D01*
X12042102Y-9617961D01*
X12038090Y-9613338D01*
X12038090Y-9613338D01*
X12037740Y-9612935D01*
X12029226Y-9605954D01*
X12029100Y-9605849D01*
X12020671Y-9598739D01*
X12020211Y-9598468D01*
X12019839Y-9598205D01*
X12019446Y-9597935D01*
X12019033Y-9597596D01*
X12018569Y-9597332D01*
X12018569Y-9597332D01*
X12009466Y-9592150D01*
X12009313Y-9592062D01*
X12000277Y-9586750D01*
X11999816Y-9586479D01*
X11999317Y-9586290D01*
X11998889Y-9586085D01*
X11998472Y-9585892D01*
X11998009Y-9585629D01*
X11997508Y-9585447D01*
X11987658Y-9581871D01*
X11987493Y-9581810D01*
X11982262Y-9579828D01*
X11977194Y-9577908D01*
X11976669Y-9577806D01*
X11976216Y-9577677D01*
X11975770Y-9577556D01*
X11975269Y-9577374D01*
X11964433Y-9575415D01*
X11964261Y-9575382D01*
X11953975Y-9573374D01*
X11953975Y-9573374D01*
X11953451Y-9573271D01*
X11952917Y-9573259D01*
X11952387Y-9573201D01*
X11952391Y-9573165D01*
X11952289Y-9573155D01*
X11952285Y-9573190D01*
X11951872Y-9573143D01*
X11951464Y-9573070D01*
X11951050Y-9573050D01*
X11951049Y-9573050D01*
X11949078Y-9572957D01*
X11949077Y-9572957D01*
X11948929Y-9572950D01*
X11939960Y-9572950D01*
X11939663Y-9572947D01*
X11939382Y-9572940D01*
X11929266Y-9572702D01*
X11928738Y-9572779D01*
X11928738Y-9572779D01*
X11928601Y-9572799D01*
X11928483Y-9572816D01*
X11926654Y-9572950D01*
X11898394Y-9572950D01*
X11891582Y-9570950D01*
X11890493Y-9570102D01*
X11890463Y-9570138D01*
X11890108Y-9569851D01*
X11889775Y-9569540D01*
X11867471Y-9554068D01*
X11849690Y-9545222D01*
X11843576Y-9542180D01*
X11843575Y-9542180D01*
X11843167Y-9541977D01*
X11839295Y-9540707D01*
X11817806Y-9533663D01*
X11817805Y-9533663D01*
X11817372Y-9533521D01*
X11816923Y-9533443D01*
X11791005Y-9528943D01*
X11791005Y-9528943D01*
X11790627Y-9528877D01*
X11789829Y-9528837D01*
X11782207Y-9528458D01*
X11782206Y-9528458D01*
X11782050Y-9528450D01*
X11720105Y-9528450D01*
X11719878Y-9528467D01*
X11719877Y-9528467D01*
X11706694Y-9529423D01*
X11699926Y-9529914D01*
X11699480Y-9530013D01*
X11699480Y-9530013D01*
X11673865Y-9535668D01*
X11673865Y-9535668D01*
X11673419Y-9535766D01*
X11669701Y-9537175D01*
X11648462Y-9545222D01*
X11648461Y-9545222D01*
X11648035Y-9545384D01*
X11624304Y-9558565D01*
X11610200Y-9569329D01*
X11608840Y-9570366D01*
X11602212Y-9572909D01*
X11601196Y-9572950D01*
X11118030Y-9572950D01*
X11117141Y-9572919D01*
X11111035Y-9572486D01*
X11111035Y-9572486D01*
X11110503Y-9572449D01*
X11106784Y-9572816D01*
X11099545Y-9573533D01*
X11099370Y-9573549D01*
X11088926Y-9574435D01*
X11088926Y-9574435D01*
X11088395Y-9574480D01*
X11087879Y-9574614D01*
X11087421Y-9574692D01*
X11086959Y-9574778D01*
X11086428Y-9574830D01*
X11085914Y-9574972D01*
X11085914Y-9574972D01*
X11075816Y-9577744D01*
X11075646Y-9577789D01*
X11071738Y-9578803D01*
X11064979Y-9580558D01*
X11064492Y-9580777D01*
X11064048Y-9580933D01*
X11063614Y-9581093D01*
X11063100Y-9581234D01*
X11062617Y-9581460D01*
X11062617Y-9581460D01*
X11059029Y-9583137D01*
X11053697Y-9585629D01*
X11053119Y-9585899D01*
X11052963Y-9585971D01*
X11051834Y-9586479D01*
X11048871Y-9587814D01*
X11044388Y-9588907D01*
X11034613Y-9589445D01*
X11025120Y-9589967D01*
X11014944Y-9591991D01*
X10999160Y-9595131D01*
X10999159Y-9595131D01*
X10998723Y-9595218D01*
X10973329Y-9604135D01*
X10949446Y-9616542D01*
X10949084Y-9616800D01*
X10949083Y-9616801D01*
X10938517Y-9624351D01*
X10927548Y-9632190D01*
X10927225Y-9632498D01*
X10927225Y-9632498D01*
X10908525Y-9650337D01*
X10908074Y-9650767D01*
X10891412Y-9671903D01*
X10891188Y-9672288D01*
X10878117Y-9694791D01*
X10878117Y-9694792D01*
X10877894Y-9695176D01*
X10867790Y-9720121D01*
X10867683Y-9720553D01*
X10867683Y-9720553D01*
X10865126Y-9730844D01*
X10861302Y-9746241D01*
X10858559Y-9773015D01*
X10859615Y-9799908D01*
X10864451Y-9826384D01*
X10872968Y-9851915D01*
X10873167Y-9852314D01*
X10873168Y-9852314D01*
X10878183Y-9862350D01*
X10884998Y-9875991D01*
X10900300Y-9898131D01*
X10900603Y-9898458D01*
X10918268Y-9917568D01*
X10918268Y-9917569D01*
X10918570Y-9917894D01*
X10939441Y-9934887D01*
X10939823Y-9935117D01*
X10939823Y-9935117D01*
X10958226Y-9946196D01*
X10962499Y-9948768D01*
X10962908Y-9948942D01*
X10962908Y-9948942D01*
X10986872Y-9959089D01*
X10986873Y-9959089D01*
X10987282Y-9959263D01*
X10995804Y-9961522D01*
X11012868Y-9966047D01*
X11012868Y-9966047D01*
X11013297Y-9966161D01*
X11013738Y-9966213D01*
X11013739Y-9966213D01*
X11028629Y-9967975D01*
X11040025Y-9969324D01*
X11066931Y-9968690D01*
X11069715Y-9968227D01*
X11093041Y-9964344D01*
X11093041Y-9964344D01*
X11093480Y-9964271D01*
X11093904Y-9964137D01*
X11093904Y-9964137D01*
X11118716Y-9956290D01*
X11118716Y-9956290D01*
X11119141Y-9956155D01*
X11119542Y-9955963D01*
X11119542Y-9955963D01*
X11143001Y-9944698D01*
X11143001Y-9944698D01*
X11143403Y-9944505D01*
X11143773Y-9944258D01*
X11165410Y-9929800D01*
X11165410Y-9929800D01*
X11165781Y-9929553D01*
X11166112Y-9929256D01*
X11166113Y-9929255D01*
X11185497Y-9911893D01*
X11185829Y-9911596D01*
X11187118Y-9910062D01*
X11202860Y-9891335D01*
X11202861Y-9891334D01*
X11203146Y-9890994D01*
X11217389Y-9868157D01*
X11218539Y-9865555D01*
X11223123Y-9860134D01*
X11230063Y-9858050D01*
X11553401Y-9858050D01*
X11560214Y-9860050D01*
X11564863Y-9865416D01*
X11565873Y-9872443D01*
X11564552Y-9876516D01*
X11555136Y-9894414D01*
X11554984Y-9894845D01*
X11554984Y-9894845D01*
X11553708Y-9898458D01*
X11546097Y-9920011D01*
X11545684Y-9922107D01*
X11541269Y-9944505D01*
X11540848Y-9946643D01*
X11540825Y-9947099D01*
X11540825Y-9947099D01*
X11539610Y-9971498D01*
X11539498Y-9973755D01*
X11542076Y-10000778D01*
X11542184Y-10001220D01*
X11542185Y-10001221D01*
X11543421Y-10006274D01*
X11548528Y-10027145D01*
X11548700Y-10027568D01*
X11548700Y-10027569D01*
X11555756Y-10044990D01*
X11558719Y-10052305D01*
X11558949Y-10052698D01*
X11558950Y-10052699D01*
X11568029Y-10068204D01*
X11572435Y-10075730D01*
X11582532Y-10088356D01*
X11585225Y-10094925D01*
X11583938Y-10101907D01*
X11582880Y-10103640D01*
X11567775Y-10124391D01*
X11555136Y-10148414D01*
X11546097Y-10174011D01*
X11546009Y-10174457D01*
X11541546Y-10197098D01*
X11540848Y-10200643D01*
X11540825Y-10201099D01*
X11540825Y-10201099D01*
X11539694Y-10223822D01*
X11539498Y-10227755D01*
X11542076Y-10254778D01*
X11542184Y-10255220D01*
X11542185Y-10255221D01*
X11543982Y-10262568D01*
X11548528Y-10281145D01*
X11548700Y-10281568D01*
X11548700Y-10281569D01*
X11555756Y-10298990D01*
X11558719Y-10306305D01*
X11558949Y-10306698D01*
X11558950Y-10306699D01*
X11564386Y-10315983D01*
X11566102Y-10322873D01*
X11563821Y-10329596D01*
X11558267Y-10334019D01*
X11553513Y-10334950D01*
X11499029Y-10334950D01*
X11498139Y-10334919D01*
X11492035Y-10334486D01*
X11492035Y-10334486D01*
X11491502Y-10334449D01*
X11486753Y-10334919D01*
X11480549Y-10335532D01*
X11480374Y-10335548D01*
X11469926Y-10336435D01*
X11469926Y-10336435D01*
X11469395Y-10336480D01*
X11468879Y-10336614D01*
X11468419Y-10336692D01*
X11467958Y-10336778D01*
X11467428Y-10336830D01*
X11456802Y-10339747D01*
X11456647Y-10339789D01*
X11449947Y-10341528D01*
X11446495Y-10342424D01*
X11446495Y-10342424D01*
X11445979Y-10342558D01*
X11445493Y-10342776D01*
X11445054Y-10342931D01*
X11444614Y-10343093D01*
X11444100Y-10343234D01*
X11443617Y-10343460D01*
X11443617Y-10343460D01*
X11439353Y-10345453D01*
X11434119Y-10347899D01*
X11433969Y-10347968D01*
X11423922Y-10352493D01*
X11423479Y-10352792D01*
X11423070Y-10353019D01*
X11422666Y-10353252D01*
X11422184Y-10353477D01*
X11421745Y-10353781D01*
X11413134Y-10359755D01*
X11412993Y-10359851D01*
X11403855Y-10366004D01*
X11403468Y-10366372D01*
X11403053Y-10366706D01*
X11403030Y-10366678D01*
X11402950Y-10366743D01*
X11402973Y-10366771D01*
X11402649Y-10367029D01*
X11402307Y-10367266D01*
X11400430Y-10368974D01*
X11394092Y-10375312D01*
X11393880Y-10375519D01*
X11386350Y-10382702D01*
X11386032Y-10383131D01*
X11386031Y-10383131D01*
X11385877Y-10383338D01*
X11384678Y-10384726D01*
X10342003Y-11427401D01*
X10335772Y-11430804D01*
X10333786Y-11431072D01*
X10331126Y-11431219D01*
X10326620Y-11431467D01*
X10326183Y-11431554D01*
X10326183Y-11431554D01*
X10300660Y-11436631D01*
X10300659Y-11436631D01*
X10300223Y-11436718D01*
X10274829Y-11445635D01*
X10250946Y-11458042D01*
X10250584Y-11458300D01*
X10250583Y-11458300D01*
X10243198Y-11463578D01*
X10229048Y-11473690D01*
X10228725Y-11473998D01*
X10228725Y-11473998D01*
X10214444Y-11487621D01*
X10209574Y-11492267D01*
X10192912Y-11513403D01*
X10192688Y-11513788D01*
X10179617Y-11536291D01*
X10179617Y-11536292D01*
X10179394Y-11536676D01*
X10169290Y-11561621D01*
X10162802Y-11587741D01*
X10160059Y-11614515D01*
X10160223Y-11618688D01*
X10160906Y-11636075D01*
X10161115Y-11641408D01*
X10165951Y-11667884D01*
X10174468Y-11693415D01*
X10174667Y-11693813D01*
X10174668Y-11693814D01*
X10182930Y-11710349D01*
X10186498Y-11717490D01*
X10201800Y-11739631D01*
X10202103Y-11739958D01*
X10219768Y-11759068D01*
X10219768Y-11759069D01*
X10220070Y-11759394D01*
X10240941Y-11776387D01*
X10263999Y-11790268D01*
X10264408Y-11790442D01*
X10264408Y-11790442D01*
X10288372Y-11800589D01*
X10288373Y-11800589D01*
X10288782Y-11800763D01*
X10298371Y-11803305D01*
X10314368Y-11807547D01*
X10314368Y-11807547D01*
X10314797Y-11807661D01*
X10315238Y-11807713D01*
X10315239Y-11807713D01*
X10330129Y-11809475D01*
X10341525Y-11810824D01*
X10368431Y-11810190D01*
X10371990Y-11809598D01*
X10379038Y-11810452D01*
X10384505Y-11814982D01*
X10386655Y-11821748D01*
X10384806Y-11828602D01*
X10382968Y-11830936D01*
X10253612Y-11960292D01*
X10252961Y-11960899D01*
X10247935Y-11965260D01*
X10247596Y-11965673D01*
X10240955Y-11973773D01*
X10240849Y-11973900D01*
X10233739Y-11982328D01*
X10233468Y-11982789D01*
X10233205Y-11983161D01*
X10232935Y-11983554D01*
X10232596Y-11983967D01*
X10232332Y-11984430D01*
X10232332Y-11984431D01*
X10227150Y-11993534D01*
X10227062Y-11993686D01*
X10221479Y-12003183D01*
X10221290Y-12003683D01*
X10221085Y-12004111D01*
X10220892Y-12004528D01*
X10220629Y-12004991D01*
X10220447Y-12005492D01*
X10220447Y-12005492D01*
X10216871Y-12015342D01*
X10216810Y-12015507D01*
X10212908Y-12025806D01*
X10212806Y-12026330D01*
X10212677Y-12026784D01*
X10212556Y-12027229D01*
X10212374Y-12027731D01*
X10212279Y-12028256D01*
X10210415Y-12038567D01*
X10210382Y-12038739D01*
X10208271Y-12049549D01*
X10208259Y-12050082D01*
X10208201Y-12050613D01*
X10208165Y-12050609D01*
X10208155Y-12050711D01*
X10208190Y-12050715D01*
X10208143Y-12051128D01*
X10208070Y-12051536D01*
X10207950Y-12054070D01*
X10207950Y-12063040D01*
X10207947Y-12063337D01*
X10207702Y-12073734D01*
X10207779Y-12074262D01*
X10207779Y-12074262D01*
X10207816Y-12074517D01*
X10207950Y-12076346D01*
X10207950Y-14853470D01*
X10207919Y-14854360D01*
X10207486Y-14860464D01*
X10207449Y-14860997D01*
X10207501Y-14861529D01*
X10208532Y-14871951D01*
X10208548Y-14872126D01*
X10209480Y-14883105D01*
X10209614Y-14883621D01*
X10209692Y-14884081D01*
X10209778Y-14884541D01*
X10209830Y-14885072D01*
X10212747Y-14895698D01*
X10212789Y-14895853D01*
X10213757Y-14899584D01*
X10215150Y-14904950D01*
X10215558Y-14906521D01*
X10215776Y-14907007D01*
X10215931Y-14907446D01*
X10216093Y-14907886D01*
X10216234Y-14908400D01*
X10216460Y-14908883D01*
X10216460Y-14908883D01*
X10220897Y-14918376D01*
X10220968Y-14918531D01*
X10225493Y-14928578D01*
X10225792Y-14929021D01*
X10226019Y-14929430D01*
X10226252Y-14929833D01*
X10226477Y-14930316D01*
X10226781Y-14930754D01*
X10232755Y-14939366D01*
X10232851Y-14939507D01*
X10239004Y-14948645D01*
X10239372Y-14949032D01*
X10239706Y-14949447D01*
X10239678Y-14949470D01*
X10239743Y-14949550D01*
X10239771Y-14949527D01*
X10240029Y-14949851D01*
X10240266Y-14950193D01*
X10241974Y-14952070D01*
X10248312Y-14958408D01*
X10248519Y-14958620D01*
X10255702Y-14966150D01*
X10256131Y-14966468D01*
X10256131Y-14966468D01*
X10256338Y-14966623D01*
X10257725Y-14967821D01*
X10344845Y-15054941D01*
X10348247Y-15061172D01*
X10347740Y-15068253D01*
X10343486Y-15073937D01*
X10336834Y-15076418D01*
X10335935Y-15076450D01*
X8748650Y-15076450D01*
X8741838Y-15074450D01*
X8737189Y-15069084D01*
X8736050Y-15063850D01*
X8736050Y-8631274D01*
X10932007Y-8631274D01*
X10932029Y-8631740D01*
X10932029Y-8631741D01*
X10932673Y-8645134D01*
X10933291Y-8658004D01*
X10938512Y-8684251D01*
X10947555Y-8709438D01*
X10947777Y-8709851D01*
X10954598Y-8722547D01*
X10960222Y-8733012D01*
X10960501Y-8733386D01*
X10960501Y-8733387D01*
X10968920Y-8744661D01*
X10976234Y-8754455D01*
X10976564Y-8754783D01*
X10976565Y-8754783D01*
X10989951Y-8768053D01*
X10995239Y-8773295D01*
X11016821Y-8789119D01*
X11017234Y-8789337D01*
X11017234Y-8789337D01*
X11030192Y-8796154D01*
X11040504Y-8801580D01*
X11040946Y-8801734D01*
X11065327Y-8810248D01*
X11065328Y-8810249D01*
X11065769Y-8810403D01*
X11066228Y-8810490D01*
X11079022Y-8812919D01*
X11092061Y-8815394D01*
X11104762Y-8815893D01*
X11118335Y-8816427D01*
X11118335Y-8816427D01*
X11118801Y-8816445D01*
X11128394Y-8815394D01*
X11144938Y-8813583D01*
X11144939Y-8813582D01*
X11145404Y-8813532D01*
X11156957Y-8810490D01*
X11170831Y-8806837D01*
X11171283Y-8806718D01*
X11183750Y-8801362D01*
X11195441Y-8796339D01*
X11195441Y-8796339D01*
X11195871Y-8796154D01*
X11196269Y-8795908D01*
X11196269Y-8795908D01*
X11218230Y-8782318D01*
X11218231Y-8782318D01*
X11218627Y-8782072D01*
X11220001Y-8780909D01*
X11238696Y-8765083D01*
X11238696Y-8765083D01*
X11239053Y-8764781D01*
X11248436Y-8754081D01*
X11256389Y-8745012D01*
X11256390Y-8745012D01*
X11256698Y-8744661D01*
X11257974Y-8742676D01*
X11270922Y-8722547D01*
X11270922Y-8722546D01*
X11271175Y-8722153D01*
X11282166Y-8697753D01*
X11287174Y-8679998D01*
X11289303Y-8672447D01*
X11289303Y-8672447D01*
X11289430Y-8671997D01*
X11291210Y-8658004D01*
X11292768Y-8645763D01*
X11292768Y-8645762D01*
X11292807Y-8645450D01*
X11293055Y-8636000D01*
X11292455Y-8627923D01*
X11291106Y-8609779D01*
X11291106Y-8609778D01*
X11291072Y-8609312D01*
X11290016Y-8604647D01*
X11287816Y-8594924D01*
X11285165Y-8583211D01*
X11275466Y-8558269D01*
X11262187Y-8535035D01*
X11245619Y-8514019D01*
X11226127Y-8495683D01*
X11204138Y-8480429D01*
X11203719Y-8480222D01*
X11180556Y-8468799D01*
X11180556Y-8468799D01*
X11180137Y-8468592D01*
X11154650Y-8460434D01*
X11136102Y-8457413D01*
X11128698Y-8456207D01*
X11128698Y-8456207D01*
X11128236Y-8456132D01*
X11114857Y-8455957D01*
X11101945Y-8455788D01*
X11101945Y-8455788D01*
X11101477Y-8455782D01*
X11074961Y-8459391D01*
X11074512Y-8459522D01*
X11074512Y-8459522D01*
X11071382Y-8460434D01*
X11049268Y-8466879D01*
X11048843Y-8467075D01*
X11048843Y-8467075D01*
X11043651Y-8469469D01*
X11024965Y-8478083D01*
X11024574Y-8478339D01*
X11002976Y-8492500D01*
X11002976Y-8492500D01*
X11002585Y-8492756D01*
X10982620Y-8510576D01*
X10974891Y-8519869D01*
X10967337Y-8528951D01*
X10965508Y-8531151D01*
X10965265Y-8531551D01*
X10960246Y-8539823D01*
X10951624Y-8554030D01*
X10951444Y-8554461D01*
X10951444Y-8554461D01*
X10946521Y-8566201D01*
X10941276Y-8578709D01*
X10941160Y-8579162D01*
X10941160Y-8579163D01*
X10934803Y-8604193D01*
X10934688Y-8604647D01*
X10932007Y-8631274D01*
X8736050Y-8631274D01*
X8736050Y-7732650D01*
X8738050Y-7725838D01*
X8743416Y-7721189D01*
X8748650Y-7720050D01*
X12296435Y-7720050D01*
X12303247Y-7722050D01*
G37*
%TD.AperFunction*%
%TA.AperFunction,NonConductor*%
G36*
X15893753Y-10988260D02*
G01*
X15899437Y-10992514D01*
X15901918Y-10999166D01*
X15901950Y-11000065D01*
X15901950Y-15063850D01*
X15899950Y-15070662D01*
X15894584Y-15075311D01*
X15889350Y-15076450D01*
X15064065Y-15076450D01*
X15057253Y-15074450D01*
X15052604Y-15069084D01*
X15051593Y-15062057D01*
X15054543Y-15055599D01*
X15055156Y-15054940D01*
X15590886Y-14519210D01*
X15591538Y-14518603D01*
X15596161Y-14514591D01*
X15596161Y-14514591D01*
X15596565Y-14514240D01*
X15603555Y-14505715D01*
X15603653Y-14505598D01*
X15610761Y-14497171D01*
X15611032Y-14496711D01*
X15611297Y-14496336D01*
X15611565Y-14495946D01*
X15611904Y-14495533D01*
X15617350Y-14485966D01*
X15617438Y-14485813D01*
X15622750Y-14476777D01*
X15623021Y-14476316D01*
X15623210Y-14475817D01*
X15623415Y-14475389D01*
X15623608Y-14474972D01*
X15623871Y-14474509D01*
X15627629Y-14464158D01*
X15627690Y-14463993D01*
X15631403Y-14454194D01*
X15631592Y-14453694D01*
X15631694Y-14453169D01*
X15631823Y-14452716D01*
X15631944Y-14452270D01*
X15632126Y-14451769D01*
X15634085Y-14440933D01*
X15634118Y-14440761D01*
X15636126Y-14430475D01*
X15636126Y-14430475D01*
X15636229Y-14429951D01*
X15636241Y-14429417D01*
X15636299Y-14428887D01*
X15636335Y-14428891D01*
X15636345Y-14428789D01*
X15636310Y-14428785D01*
X15636357Y-14428372D01*
X15636430Y-14427964D01*
X15636550Y-14425429D01*
X15636550Y-14416460D01*
X15636553Y-14416163D01*
X15636786Y-14406300D01*
X15636798Y-14405766D01*
X15636684Y-14404983D01*
X15636550Y-14403154D01*
X15636550Y-13912029D01*
X15636581Y-13911139D01*
X15637014Y-13905035D01*
X15637014Y-13905035D01*
X15637051Y-13904502D01*
X15635968Y-13893549D01*
X15635952Y-13893374D01*
X15635065Y-13882926D01*
X15635065Y-13882926D01*
X15635020Y-13882395D01*
X15634886Y-13881879D01*
X15634808Y-13881419D01*
X15634722Y-13880958D01*
X15634670Y-13880428D01*
X15631753Y-13869802D01*
X15631710Y-13869641D01*
X15629076Y-13859495D01*
X15629076Y-13859495D01*
X15628942Y-13858979D01*
X15628724Y-13858493D01*
X15628569Y-13858054D01*
X15628407Y-13857614D01*
X15628266Y-13857100D01*
X15623601Y-13847119D01*
X15623530Y-13846964D01*
X15619615Y-13838274D01*
X15619007Y-13836922D01*
X15618708Y-13836479D01*
X15618481Y-13836070D01*
X15618248Y-13835666D01*
X15618023Y-13835184D01*
X15611745Y-13826134D01*
X15611646Y-13825989D01*
X15609795Y-13823240D01*
X15605496Y-13816855D01*
X15605128Y-13816468D01*
X15604794Y-13816053D01*
X15604822Y-13816030D01*
X15604757Y-13815950D01*
X15604729Y-13815972D01*
X15604471Y-13815648D01*
X15604234Y-13815307D01*
X15602526Y-13813430D01*
X15596186Y-13807090D01*
X15595979Y-13806878D01*
X15589166Y-13799736D01*
X15588798Y-13799350D01*
X15588163Y-13798878D01*
X15586775Y-13797678D01*
X14963709Y-13174613D01*
X14963102Y-13173961D01*
X14959090Y-13169338D01*
X14959090Y-13169338D01*
X14958740Y-13168935D01*
X14950226Y-13161954D01*
X14950100Y-13161849D01*
X14941671Y-13154739D01*
X14941211Y-13154468D01*
X14940839Y-13154205D01*
X14940446Y-13153935D01*
X14940033Y-13153596D01*
X14939569Y-13153332D01*
X14939569Y-13153332D01*
X14930466Y-13148150D01*
X14930313Y-13148062D01*
X14921277Y-13142749D01*
X14920816Y-13142479D01*
X14920317Y-13142290D01*
X14919889Y-13142085D01*
X14919472Y-13141892D01*
X14919009Y-13141628D01*
X14918508Y-13141447D01*
X14908658Y-13137871D01*
X14908493Y-13137810D01*
X14898694Y-13134097D01*
X14898194Y-13133908D01*
X14897669Y-13133806D01*
X14897216Y-13133676D01*
X14896770Y-13133556D01*
X14896269Y-13133374D01*
X14885433Y-13131415D01*
X14885261Y-13131382D01*
X14874975Y-13129374D01*
X14874975Y-13129374D01*
X14874451Y-13129271D01*
X14873917Y-13129259D01*
X14873387Y-13129201D01*
X14873391Y-13129165D01*
X14873289Y-13129155D01*
X14873285Y-13129190D01*
X14872872Y-13129143D01*
X14872464Y-13129069D01*
X14872050Y-13129050D01*
X14872049Y-13129050D01*
X14870078Y-13128957D01*
X14870077Y-13128957D01*
X14869929Y-13128950D01*
X14860960Y-13128950D01*
X14860663Y-13128946D01*
X14860382Y-13128940D01*
X14850266Y-13128701D01*
X14849738Y-13128779D01*
X14849738Y-13128779D01*
X14849601Y-13128799D01*
X14849483Y-13128816D01*
X14847654Y-13128950D01*
X14545251Y-13128950D01*
X14538438Y-13126950D01*
X14537606Y-13126366D01*
X14535410Y-13124690D01*
X14519108Y-13112249D01*
X14513843Y-13109300D01*
X14496015Y-13099316D01*
X14496014Y-13099316D01*
X14495626Y-13099098D01*
X14495212Y-13098938D01*
X14495211Y-13098938D01*
X14476657Y-13091760D01*
X14470525Y-13089387D01*
X14470093Y-13089287D01*
X14470092Y-13089287D01*
X14455686Y-13085948D01*
X14444306Y-13083310D01*
X14417493Y-13080988D01*
X14417049Y-13081012D01*
X14417049Y-13081012D01*
X14406132Y-13081613D01*
X14390620Y-13082467D01*
X14390183Y-13082554D01*
X14390183Y-13082554D01*
X14364660Y-13087631D01*
X14364659Y-13087631D01*
X14364223Y-13087718D01*
X14338829Y-13096635D01*
X14314945Y-13109042D01*
X14314584Y-13109300D01*
X14314583Y-13109300D01*
X14310079Y-13112519D01*
X14293048Y-13124690D01*
X14292725Y-13124998D01*
X14292725Y-13124998D01*
X14292234Y-13125467D01*
X14285924Y-13128722D01*
X14283536Y-13128950D01*
X13773065Y-13128950D01*
X13766253Y-13126950D01*
X13761604Y-13121584D01*
X13760593Y-13114557D01*
X13763543Y-13108099D01*
X13764156Y-13107440D01*
X14632987Y-12238609D01*
X14639218Y-12235206D01*
X14646300Y-12235713D01*
X14651984Y-12239967D01*
X14654465Y-12246619D01*
X14654230Y-12250095D01*
X14651025Y-12265438D01*
X14650665Y-12267161D01*
X14649544Y-12291845D01*
X14652384Y-12316390D01*
X14659112Y-12340166D01*
X14659326Y-12340624D01*
X14661266Y-12344785D01*
X14662332Y-12351804D01*
X14661610Y-12354625D01*
X14655718Y-12369974D01*
X14650665Y-12394161D01*
X14649544Y-12418845D01*
X14652384Y-12443390D01*
X14654401Y-12450518D01*
X14654389Y-12457421D01*
X14651023Y-12469160D01*
X14649950Y-12481187D01*
X14649950Y-12599750D01*
X14651023Y-12611777D01*
X14656626Y-12631315D01*
X14666043Y-12649328D01*
X14678889Y-12665079D01*
X14694640Y-12677926D01*
X14712653Y-12687342D01*
X14732191Y-12692945D01*
X14735354Y-12693227D01*
X14743939Y-12693993D01*
X14743940Y-12693993D01*
X14744218Y-12694018D01*
X14935782Y-12694018D01*
X14936060Y-12693993D01*
X14936061Y-12693993D01*
X14944645Y-12693227D01*
X14947809Y-12692945D01*
X14967347Y-12687342D01*
X14985360Y-12677926D01*
X15001111Y-12665079D01*
X15013957Y-12649328D01*
X15023374Y-12631315D01*
X15028977Y-12611777D01*
X15030050Y-12599750D01*
X15030050Y-12481187D01*
X15028977Y-12469160D01*
X15025646Y-12457544D01*
X15025424Y-12451495D01*
X15029231Y-12433271D01*
X15029231Y-12433271D01*
X15029335Y-12432776D01*
X15030456Y-12408092D01*
X15027616Y-12383547D01*
X15020888Y-12359771D01*
X15018734Y-12355152D01*
X15017668Y-12348133D01*
X15018390Y-12345311D01*
X15024100Y-12330436D01*
X15024100Y-12330435D01*
X15024282Y-12329963D01*
X15027483Y-12314639D01*
X15029231Y-12306271D01*
X15029231Y-12306271D01*
X15029335Y-12305776D01*
X15030456Y-12281092D01*
X15027616Y-12256547D01*
X15026698Y-12253303D01*
X15021025Y-12233258D01*
X15020888Y-12232771D01*
X15018734Y-12228152D01*
X15017668Y-12221133D01*
X15018390Y-12218311D01*
X15024100Y-12203436D01*
X15024100Y-12203435D01*
X15024282Y-12202963D01*
X15029335Y-12178776D01*
X15030456Y-12154092D01*
X15027616Y-12129547D01*
X15020888Y-12105771D01*
X15010445Y-12083377D01*
X14996557Y-12062940D01*
X14979579Y-12044987D01*
X14959950Y-12029979D01*
X14959505Y-12029741D01*
X14959504Y-12029740D01*
X14938620Y-12018542D01*
X14938174Y-12018303D01*
X14937695Y-12018139D01*
X14937695Y-12018138D01*
X14915289Y-12010423D01*
X14914811Y-12010259D01*
X14893166Y-12006520D01*
X14886794Y-12003390D01*
X14883126Y-11997311D01*
X14883326Y-11990214D01*
X14886402Y-11985194D01*
X15880440Y-10991156D01*
X15886672Y-10987753D01*
X15893753Y-10988260D01*
G37*
%TD.AperFunction*%
M02*
