M48
; DRILL file {KiCad 6.0.11+dfsg-1} date Sat 13 Apr 2024 09:45:16 PM -04
; FORMAT={-:-/ absolute / inch / decimal}
; #@! TF.CreationDate,2024-04-13T21:45:16-04:00
; #@! TF.GenerationSoftware,Kicad,Pcbnew,6.0.11+dfsg-1
; #@! TF.FileFunction,Plated,1,2,PTH
FMAT,2
INCH
; #@! TA.AperFunction,Plated,PTH,ViaDrill
T1C0.0315
; #@! TA.AperFunction,Plated,PTH,ComponentDrill
T2C0.0315
; #@! TA.AperFunction,Plated,PTH,ComponentDrill
T3C0.0354
; #@! TA.AperFunction,Plated,PTH,ComponentDrill
T4C0.0469
; #@! TA.AperFunction,Plated,PTH,ComponentDrill
T5C0.0598
%
G90
G05
T1
X4.075Y-4.575
X4.35Y-3.85
X4.9Y-4.025
X4.925Y-3.175
X5.0Y-5.25
X5.1Y-5.475
X5.175Y-3.125
X5.275Y-3.7
X5.475Y-3.7
X5.625Y-3.175
X5.625Y-4.375
X5.675Y-5.225
X5.775Y-3.475
T2
X4.2Y-4.8
X4.2Y-5.2
X4.3Y-5.575
X4.3Y-5.7719
X4.375Y-3.4
X4.3969Y-4.8
X4.3969Y-5.2
X4.5719Y-3.4
X5.8531Y-5.45
X6.05Y-5.45
T3
X4.625Y-4.425
X4.625Y-4.475
X4.625Y-4.525
X4.625Y-4.575
X5.8425Y-4.7872
X5.8425Y-4.8372
X5.8425Y-4.8872
X5.8425Y-4.9372
T4
X4.6258Y-3.825
X4.6258Y-3.925
X4.6258Y-4.025
X4.6258Y-4.125
X4.825Y-5.625
X4.825Y-5.725
X4.825Y-5.825
X5.025Y-3.2711
X5.125Y-3.2711
X5.4Y-3.2711
X5.5Y-3.2711
X6.05Y-3.15
X6.05Y-3.25
X6.05Y-3.35
X6.05Y-3.45
X6.05Y-3.55
X6.05Y-3.65
X6.05Y-3.75
T5
X5.3Y-5.45
X5.5Y-5.45
T0
M30
