%TF.GenerationSoftware,KiCad,Pcbnew,6.0.11+dfsg-1*%
%TF.CreationDate,2024-03-21T09:56:46-04:00*%
%TF.ProjectId,MainPCB,4d61696e-5043-4422-9e6b-696361645f70,rev?*%
%TF.SameCoordinates,Original*%
%TF.FileFunction,Copper,L1,Top*%
%TF.FilePolarity,Positive*%
%FSLAX45Y45*%
G04 Gerber Fmt 4.5, Leading zero omitted, Abs format (unit mm)*
G04 Created by KiCad (PCBNEW 6.0.11+dfsg-1) date 2024-03-21 09:56:46*
%MOMM*%
%LPD*%
G01*
G04 APERTURE LIST*
G04 Aperture macros list*
%AMRoundRect*
0 Rectangle with rounded corners*
0 $1 Rounding radius*
0 $2 $3 $4 $5 $6 $7 $8 $9 X,Y pos of 4 corners*
0 Add a 4 corners polygon primitive as box body*
4,1,4,$2,$3,$4,$5,$6,$7,$8,$9,$2,$3,0*
0 Add four circle primitives for the rounded corners*
1,1,$1+$1,$2,$3*
1,1,$1+$1,$4,$5*
1,1,$1+$1,$6,$7*
1,1,$1+$1,$8,$9*
0 Add four rect primitives between the rounded corners*
20,1,$1+$1,$2,$3,$4,$5,0*
20,1,$1+$1,$4,$5,$6,$7,0*
20,1,$1+$1,$6,$7,$8,$9,0*
20,1,$1+$1,$8,$9,$2,$3,0*%
G04 Aperture macros list end*
%TA.AperFunction,Profile*%
%ADD10C,0.100000*%
%TD*%
%ADD11C,0.150000*%
%TA.AperFunction,ComponentPad*%
%ADD12R,1.275000X1.800000*%
%TD*%
%TA.AperFunction,ComponentPad*%
%ADD13O,1.275000X1.800000*%
%TD*%
%TA.AperFunction,SMDPad,CuDef*%
%ADD14RoundRect,0.100000X-0.130000X-0.100000X0.130000X-0.100000X0.130000X0.100000X-0.130000X0.100000X0*%
%TD*%
%TA.AperFunction,SMDPad,CuDef*%
%ADD15RoundRect,0.250000X0.375000X1.075000X-0.375000X1.075000X-0.375000X-1.075000X0.375000X-1.075000X0*%
%TD*%
%TA.AperFunction,SMDPad,CuDef*%
%ADD16R,2.000000X1.500000*%
%TD*%
%TA.AperFunction,SMDPad,CuDef*%
%ADD17R,2.000000X3.800000*%
%TD*%
%TA.AperFunction,SMDPad,CuDef*%
%ADD18O,2.748280X1.998980*%
%TD*%
%TA.AperFunction,SMDPad,CuDef*%
%ADD19O,1.016000X2.032000*%
%TD*%
%TA.AperFunction,SMDPad,CuDef*%
%ADD20C,1.143000*%
%TD*%
%TA.AperFunction,ComponentPad*%
%ADD21R,1.800000X1.800000*%
%TD*%
%TA.AperFunction,ComponentPad*%
%ADD22C,1.800000*%
%TD*%
%TA.AperFunction,ComponentPad*%
%ADD23R,1.700000X1.700000*%
%TD*%
%TA.AperFunction,ComponentPad*%
%ADD24O,1.700000X1.700000*%
%TD*%
%TA.AperFunction,Conductor*%
%ADD25C,0.250000*%
%TD*%
G04 APERTURE END LIST*
D10*
X19050000Y-11430000D02*
X13462000Y-11430000D01*
X13462000Y-11430000D02*
X13462000Y-7874000D01*
X13462000Y-7874000D02*
X19050000Y-7874000D01*
X19050000Y-7874000D02*
X19050000Y-11430000D01*
D11*
X13038238Y-10118667D02*
X13038238Y-10056762D01*
X13076333Y-10090095D01*
X13076333Y-10075810D01*
X13081095Y-10066286D01*
X13085857Y-10061524D01*
X13095381Y-10056762D01*
X13119190Y-10056762D01*
X13128714Y-10061524D01*
X13133476Y-10066286D01*
X13138238Y-10075810D01*
X13138238Y-10104381D01*
X13133476Y-10113905D01*
X13128714Y-10118667D01*
X13038238Y-9966286D02*
X13038238Y-10013905D01*
X13085857Y-10018667D01*
X13081095Y-10013905D01*
X13076333Y-10004381D01*
X13076333Y-9980571D01*
X13081095Y-9971048D01*
X13085857Y-9966286D01*
X13095381Y-9961524D01*
X13119190Y-9961524D01*
X13128714Y-9966286D01*
X13133476Y-9971048D01*
X13138238Y-9980571D01*
X13138238Y-10004381D01*
X13133476Y-10013905D01*
X13128714Y-10018667D01*
X13128714Y-9918667D02*
X13133476Y-9913905D01*
X13138238Y-9918667D01*
X13133476Y-9923429D01*
X13128714Y-9918667D01*
X13138238Y-9918667D01*
X13038238Y-9823429D02*
X13038238Y-9871048D01*
X13085857Y-9875810D01*
X13081095Y-9871048D01*
X13076333Y-9861524D01*
X13076333Y-9837714D01*
X13081095Y-9828190D01*
X13085857Y-9823429D01*
X13095381Y-9818667D01*
X13119190Y-9818667D01*
X13128714Y-9823429D01*
X13133476Y-9828190D01*
X13138238Y-9837714D01*
X13138238Y-9861524D01*
X13133476Y-9871048D01*
X13128714Y-9875810D01*
X13038238Y-9732952D02*
X13038238Y-9752000D01*
X13043000Y-9761524D01*
X13047762Y-9766286D01*
X13062048Y-9775810D01*
X13081095Y-9780571D01*
X13119190Y-9780571D01*
X13128714Y-9775810D01*
X13133476Y-9771048D01*
X13138238Y-9761524D01*
X13138238Y-9742476D01*
X13133476Y-9732952D01*
X13128714Y-9728190D01*
X13119190Y-9723429D01*
X13095381Y-9723429D01*
X13085857Y-9728190D01*
X13081095Y-9732952D01*
X13076333Y-9742476D01*
X13076333Y-9761524D01*
X13081095Y-9771048D01*
X13085857Y-9775810D01*
X13095381Y-9780571D01*
X13038238Y-9661524D02*
X13038238Y-9652000D01*
X13043000Y-9642476D01*
X13047762Y-9637714D01*
X13057286Y-9632952D01*
X13076333Y-9628190D01*
X13100143Y-9628190D01*
X13119190Y-9632952D01*
X13128714Y-9637714D01*
X13133476Y-9642476D01*
X13138238Y-9652000D01*
X13138238Y-9661524D01*
X13133476Y-9671048D01*
X13128714Y-9675810D01*
X13119190Y-9680571D01*
X13100143Y-9685333D01*
X13076333Y-9685333D01*
X13057286Y-9680571D01*
X13047762Y-9675810D01*
X13043000Y-9671048D01*
X13038238Y-9661524D01*
X13038238Y-9566286D02*
X13038238Y-9556762D01*
X13043000Y-9547238D01*
X13047762Y-9542476D01*
X13057286Y-9537714D01*
X13076333Y-9532952D01*
X13100143Y-9532952D01*
X13119190Y-9537714D01*
X13128714Y-9542476D01*
X13133476Y-9547238D01*
X13138238Y-9556762D01*
X13138238Y-9566286D01*
X13133476Y-9575810D01*
X13128714Y-9580571D01*
X13119190Y-9585333D01*
X13100143Y-9590095D01*
X13076333Y-9590095D01*
X13057286Y-9585333D01*
X13047762Y-9580571D01*
X13043000Y-9575810D01*
X13038238Y-9566286D01*
X13138238Y-9413905D02*
X13071571Y-9413905D01*
X13081095Y-9413905D02*
X13076333Y-9409143D01*
X13071571Y-9399619D01*
X13071571Y-9385333D01*
X13076333Y-9375810D01*
X13085857Y-9371048D01*
X13138238Y-9371048D01*
X13085857Y-9371048D02*
X13076333Y-9366286D01*
X13071571Y-9356762D01*
X13071571Y-9342476D01*
X13076333Y-9332952D01*
X13085857Y-9328190D01*
X13138238Y-9328190D01*
X13138238Y-9280571D02*
X13071571Y-9280571D01*
X13081095Y-9280571D02*
X13076333Y-9275810D01*
X13071571Y-9266286D01*
X13071571Y-9252000D01*
X13076333Y-9242476D01*
X13085857Y-9237714D01*
X13138238Y-9237714D01*
X13085857Y-9237714D02*
X13076333Y-9232952D01*
X13071571Y-9223429D01*
X13071571Y-9209143D01*
X13076333Y-9199619D01*
X13085857Y-9194857D01*
X13138238Y-9194857D01*
D10*
X13412000Y-7874000D02*
X13149358Y-7874000D01*
X13412000Y-11430000D02*
X13149358Y-11430000D01*
X13208000Y-7874000D02*
X13208000Y-11430000D01*
X13208000Y-7874000D02*
X13208000Y-11430000D01*
X13208000Y-7874000D02*
X13149358Y-7986650D01*
X13208000Y-7874000D02*
X13266642Y-7986650D01*
X13208000Y-11430000D02*
X13266642Y-11317350D01*
X13208000Y-11430000D02*
X13149358Y-11317350D01*
D11*
X15846476Y-11514238D02*
X15798857Y-11514238D01*
X15794095Y-11561857D01*
X15798857Y-11557095D01*
X15808381Y-11552333D01*
X15832190Y-11552333D01*
X15841714Y-11557095D01*
X15846476Y-11561857D01*
X15851238Y-11571381D01*
X15851238Y-11595190D01*
X15846476Y-11604714D01*
X15841714Y-11609476D01*
X15832190Y-11614238D01*
X15808381Y-11614238D01*
X15798857Y-11609476D01*
X15794095Y-11604714D01*
X15941714Y-11514238D02*
X15894095Y-11514238D01*
X15889333Y-11561857D01*
X15894095Y-11557095D01*
X15903619Y-11552333D01*
X15927428Y-11552333D01*
X15936952Y-11557095D01*
X15941714Y-11561857D01*
X15946476Y-11571381D01*
X15946476Y-11595190D01*
X15941714Y-11604714D01*
X15936952Y-11609476D01*
X15927428Y-11614238D01*
X15903619Y-11614238D01*
X15894095Y-11609476D01*
X15889333Y-11604714D01*
X15989333Y-11604714D02*
X15994095Y-11609476D01*
X15989333Y-11614238D01*
X15984571Y-11609476D01*
X15989333Y-11604714D01*
X15989333Y-11614238D01*
X16051238Y-11557095D02*
X16041714Y-11552333D01*
X16036952Y-11547571D01*
X16032190Y-11538047D01*
X16032190Y-11533286D01*
X16036952Y-11523762D01*
X16041714Y-11519000D01*
X16051238Y-11514238D01*
X16070286Y-11514238D01*
X16079809Y-11519000D01*
X16084571Y-11523762D01*
X16089333Y-11533286D01*
X16089333Y-11538047D01*
X16084571Y-11547571D01*
X16079809Y-11552333D01*
X16070286Y-11557095D01*
X16051238Y-11557095D01*
X16041714Y-11561857D01*
X16036952Y-11566619D01*
X16032190Y-11576143D01*
X16032190Y-11595190D01*
X16036952Y-11604714D01*
X16041714Y-11609476D01*
X16051238Y-11614238D01*
X16070286Y-11614238D01*
X16079809Y-11609476D01*
X16084571Y-11604714D01*
X16089333Y-11595190D01*
X16089333Y-11576143D01*
X16084571Y-11566619D01*
X16079809Y-11561857D01*
X16070286Y-11557095D01*
X16146476Y-11557095D02*
X16136952Y-11552333D01*
X16132190Y-11547571D01*
X16127428Y-11538047D01*
X16127428Y-11533286D01*
X16132190Y-11523762D01*
X16136952Y-11519000D01*
X16146476Y-11514238D01*
X16165524Y-11514238D01*
X16175048Y-11519000D01*
X16179809Y-11523762D01*
X16184571Y-11533286D01*
X16184571Y-11538047D01*
X16179809Y-11547571D01*
X16175048Y-11552333D01*
X16165524Y-11557095D01*
X16146476Y-11557095D01*
X16136952Y-11561857D01*
X16132190Y-11566619D01*
X16127428Y-11576143D01*
X16127428Y-11595190D01*
X16132190Y-11604714D01*
X16136952Y-11609476D01*
X16146476Y-11614238D01*
X16165524Y-11614238D01*
X16175048Y-11609476D01*
X16179809Y-11604714D01*
X16184571Y-11595190D01*
X16184571Y-11576143D01*
X16179809Y-11566619D01*
X16175048Y-11561857D01*
X16165524Y-11557095D01*
X16246476Y-11514238D02*
X16256000Y-11514238D01*
X16265524Y-11519000D01*
X16270286Y-11523762D01*
X16275048Y-11533286D01*
X16279809Y-11552333D01*
X16279809Y-11576143D01*
X16275048Y-11595190D01*
X16270286Y-11604714D01*
X16265524Y-11609476D01*
X16256000Y-11614238D01*
X16246476Y-11614238D01*
X16236952Y-11609476D01*
X16232190Y-11604714D01*
X16227428Y-11595190D01*
X16222667Y-11576143D01*
X16222667Y-11552333D01*
X16227428Y-11533286D01*
X16232190Y-11523762D01*
X16236952Y-11519000D01*
X16246476Y-11514238D01*
X16341714Y-11514238D02*
X16351238Y-11514238D01*
X16360762Y-11519000D01*
X16365524Y-11523762D01*
X16370286Y-11533286D01*
X16375048Y-11552333D01*
X16375048Y-11576143D01*
X16370286Y-11595190D01*
X16365524Y-11604714D01*
X16360762Y-11609476D01*
X16351238Y-11614238D01*
X16341714Y-11614238D01*
X16332190Y-11609476D01*
X16327428Y-11604714D01*
X16322667Y-11595190D01*
X16317905Y-11576143D01*
X16317905Y-11552333D01*
X16322667Y-11533286D01*
X16327428Y-11523762D01*
X16332190Y-11519000D01*
X16341714Y-11514238D01*
X16494095Y-11614238D02*
X16494095Y-11547571D01*
X16494095Y-11557095D02*
X16498857Y-11552333D01*
X16508381Y-11547571D01*
X16522667Y-11547571D01*
X16532190Y-11552333D01*
X16536952Y-11561857D01*
X16536952Y-11614238D01*
X16536952Y-11561857D02*
X16541714Y-11552333D01*
X16551238Y-11547571D01*
X16565524Y-11547571D01*
X16575048Y-11552333D01*
X16579809Y-11561857D01*
X16579809Y-11614238D01*
X16627428Y-11614238D02*
X16627428Y-11547571D01*
X16627428Y-11557095D02*
X16632190Y-11552333D01*
X16641714Y-11547571D01*
X16656000Y-11547571D01*
X16665524Y-11552333D01*
X16670286Y-11561857D01*
X16670286Y-11614238D01*
X16670286Y-11561857D02*
X16675048Y-11552333D01*
X16684571Y-11547571D01*
X16698857Y-11547571D01*
X16708381Y-11552333D01*
X16713143Y-11561857D01*
X16713143Y-11614238D01*
D10*
X13462000Y-11480000D02*
X13462000Y-11742642D01*
X19050000Y-11480000D02*
X19050000Y-11742642D01*
X13462000Y-11684000D02*
X19050000Y-11684000D01*
X13462000Y-11684000D02*
X19050000Y-11684000D01*
X13462000Y-11684000D02*
X13574650Y-11742642D01*
X13462000Y-11684000D02*
X13574650Y-11625358D01*
X19050000Y-11684000D02*
X18937350Y-11625358D01*
X19050000Y-11684000D02*
X18937350Y-11742642D01*
D12*
%TO.P,U5,1,VIN*%
%TO.N,unconnected-(U5-Pad1)*%
X17018000Y-10922000D03*
D13*
%TO.P,U5,2,OUT*%
%TO.N,unconnected-(U5-Pad2)*%
X17188000Y-10922000D03*
%TO.P,U5,3,GND*%
%TO.N,unconnected-(U5-Pad3)*%
X17358000Y-10922000D03*
%TO.P,U5,4,FB*%
%TO.N,unconnected-(U5-Pad4)*%
X17528000Y-10922000D03*
%TO.P,U5,5,~{ON}/OFF*%
%TO.N,unconnected-(U5-Pad5)*%
X17698000Y-10922000D03*
%TD*%
D14*
%TO.P,R1,1*%
%TO.N,Net-(D1-Pad1)*%
X17748000Y-8765000D03*
%TO.P,R1,2*%
%TO.N,Net-(U4-Pad16)*%
X17812000Y-8765000D03*
%TD*%
D15*
%TO.P,D1,1,K*%
%TO.N,Net-(D1-Pad1)*%
X17412000Y-8765000D03*
%TO.P,D1,2,A*%
%TO.N,Net-(U4-Pad11)*%
X17132000Y-8765000D03*
%TD*%
D16*
%TO.P,U3,1,GND*%
%TO.N,unconnected-(U3-Pad1)*%
X18166000Y-8406000D03*
D17*
%TO.P,U3,2,VO*%
%TO.N,unconnected-(U3-Pad2)*%
X18796000Y-8636000D03*
D16*
X18166000Y-8636000D03*
%TO.P,U3,3,VI*%
%TO.N,unconnected-(U3-Pad3)*%
X18166000Y-8866000D03*
%TD*%
D18*
%TO.P,U4,1,PA02_A0_D0*%
%TO.N,Net-(J1-Pad1)*%
X14986000Y-8636000D03*
%TO.P,U4,2,PA4_A1_D1*%
%TO.N,Net-(J1-Pad2)*%
X14986000Y-8890000D03*
%TO.P,U4,3,PA10_A2_D2*%
%TO.N,Net-(J1-Pad3)*%
X14986000Y-9144000D03*
%TO.P,U4,4,PA11_A3_D3*%
%TO.N,Net-(J1-Pad4)*%
X14986000Y-9398000D03*
%TO.P,U4,5,PA8_A4_D4_SDA*%
%TO.N,Net-(J1-Pad5)*%
X14986000Y-9652000D03*
%TO.P,U4,6,PA9_A5_D5_SCL*%
%TO.N,Net-(J1-Pad6)*%
X14986000Y-9906000D03*
%TO.P,U4,7,PB08_A6_D6_TX*%
%TO.N,Net-(J1-Pad7)*%
X14986000Y-10160000D03*
%TO.P,U4,8,PB09_A7_D7_RX*%
%TO.N,unconnected-(U4-Pad8)*%
X16602456Y-10160000D03*
%TO.P,U4,9,PA7_A8_D8_SCK*%
%TO.N,Net-(U4-Pad9)*%
X16602456Y-9906000D03*
%TO.P,U4,10,PA5_A9_D9_MISO*%
%TO.N,Net-(U4-Pad10)*%
X16602456Y-9652000D03*
%TO.P,U4,11,PA6_A10_D10_MOSI*%
%TO.N,Net-(U4-Pad11)*%
X16602456Y-9398000D03*
%TO.P,U4,12,3V3*%
%TO.N,unconnected-(U4-Pad12)*%
X16602456Y-9144000D03*
%TO.P,U4,13,GND*%
%TO.N,unconnected-(U4-Pad13)*%
X16602456Y-8890000D03*
%TO.P,U4,14,5V*%
%TO.N,unconnected-(U4-Pad14)*%
X16602456Y-8636000D03*
D19*
%TO.P,U4,15,5V*%
%TO.N,unconnected-(U4-Pad15)*%
X15672688Y-10267782D03*
%TO.P,U4,16,GND*%
%TO.N,Net-(U4-Pad16)*%
X15927688Y-10267782D03*
D20*
%TO.P,U4,17,PA31_SWDIO*%
%TO.N,unconnected-(U4-Pad17)*%
X15672568Y-8567363D03*
%TO.P,U4,18,PA30_SWCLK*%
%TO.N,unconnected-(U4-Pad18)*%
X15926568Y-8567363D03*
%TO.P,U4,19,RESET*%
%TO.N,unconnected-(U4-Pad19)*%
X15672568Y-8821363D03*
%TO.P,U4,20,GND*%
%TO.N,unconnected-(U4-Pad20)*%
X15926568Y-8821363D03*
%TD*%
D16*
%TO.P,U2,1,GND*%
%TO.N,unconnected-(U2-Pad1)*%
X18166000Y-9422000D03*
D17*
%TO.P,U2,2,VO*%
%TO.N,unconnected-(U2-Pad2)*%
X18796000Y-9652000D03*
D16*
X18166000Y-9652000D03*
%TO.P,U2,3,VI*%
%TO.N,unconnected-(U2-Pad3)*%
X18166000Y-9882000D03*
%TD*%
D15*
%TO.P,D2,1,K*%
%TO.N,Net-(D2-Pad1)*%
X17412000Y-10160000D03*
%TO.P,D2,2,A*%
%TO.N,Net-(U4-Pad9)*%
X17132000Y-10160000D03*
%TD*%
D14*
%TO.P,R2,1*%
%TO.N,Net-(R2-Pad1)*%
X17748000Y-9398000D03*
%TO.P,R2,2*%
%TO.N,Net-(U4-Pad16)*%
X17812000Y-9398000D03*
%TD*%
D21*
%TO.P,D4,1,A*%
%TO.N,unconnected-(D4-Pad1)*%
X16002000Y-10922000D03*
D22*
%TO.P,D4,2,RK*%
%TO.N,unconnected-(D4-Pad2)*%
X16217900Y-10922000D03*
%TO.P,D4,3,GK*%
%TO.N,unconnected-(D4-Pad3)*%
X16433800Y-10922000D03*
%TO.P,D4,4,BK*%
%TO.N,unconnected-(D4-Pad4)*%
X16649700Y-10922000D03*
%TD*%
D15*
%TO.P,D3,1,K*%
%TO.N,Net-(R2-Pad1)*%
X17412000Y-9398000D03*
%TO.P,D3,2,A*%
%TO.N,Net-(U4-Pad10)*%
X17132000Y-9398000D03*
%TD*%
D14*
%TO.P,R3,1*%
%TO.N,Net-(D2-Pad1)*%
X17748000Y-10160000D03*
%TO.P,R3,2*%
%TO.N,Net-(U4-Pad16)*%
X17812000Y-10160000D03*
%TD*%
D16*
%TO.P,U1,1,GND*%
%TO.N,unconnected-(U1-Pad1)*%
X14864000Y-10692000D03*
%TO.P,U1,2,VO*%
%TO.N,unconnected-(U1-Pad2)*%
X14864000Y-10922000D03*
D17*
X15494000Y-10922000D03*
D16*
%TO.P,U1,3,VI*%
%TO.N,unconnected-(U1-Pad3)*%
X14864000Y-11152000D03*
%TD*%
D23*
%TO.P,J1,1,Pin_1*%
%TO.N,Net-(J1-Pad1)*%
X13970000Y-8382000D03*
D24*
%TO.P,J1,2,Pin_2*%
%TO.N,Net-(J1-Pad2)*%
X13970000Y-8636000D03*
%TO.P,J1,3,Pin_3*%
%TO.N,Net-(J1-Pad3)*%
X13970000Y-8890000D03*
%TO.P,J1,4,Pin_4*%
%TO.N,Net-(J1-Pad4)*%
X13970000Y-9144000D03*
%TO.P,J1,5,Pin_5*%
%TO.N,Net-(J1-Pad5)*%
X13970000Y-9398000D03*
%TO.P,J1,6,Pin_6*%
%TO.N,Net-(J1-Pad6)*%
X13970000Y-9652000D03*
%TO.P,J1,7,Pin_7*%
%TO.N,Net-(J1-Pad7)*%
X13970000Y-9906000D03*
%TO.P,J1,8,Pin_8*%
%TO.N,unconnected-(J1-Pad8)*%
X13970000Y-10160000D03*
%TO.P,J1,9,Pin_9*%
%TO.N,unconnected-(J1-Pad9)*%
X13970000Y-10414000D03*
%TO.P,J1,10,Pin_10*%
%TO.N,unconnected-(J1-Pad10)*%
X13970000Y-10668000D03*
%TO.P,J1,11,Pin_11*%
%TO.N,unconnected-(J1-Pad11)*%
X13970000Y-10922000D03*
%TD*%
D12*
%TO.P,U6,1,VIN*%
%TO.N,unconnected-(U6-Pad1)*%
X17018000Y-8128000D03*
D13*
%TO.P,U6,2,OUT*%
%TO.N,unconnected-(U6-Pad2)*%
X17188000Y-8128000D03*
%TO.P,U6,3,GND*%
%TO.N,unconnected-(U6-Pad3)*%
X17358000Y-8128000D03*
%TO.P,U6,4,FB*%
%TO.N,unconnected-(U6-Pad4)*%
X17528000Y-8128000D03*
%TO.P,U6,5,~{ON}/OFF*%
%TO.N,unconnected-(U6-Pad5)*%
X17698000Y-8128000D03*
%TD*%
D14*
%TO.P,R4,1*%
%TO.N,unconnected-(R4-Pad1)*%
X18510000Y-10668000D03*
%TO.P,R4,2*%
%TO.N,unconnected-(R4-Pad2)*%
X18574000Y-10668000D03*
%TD*%
D25*
%TO.N,unconnected-(U1-Pad2)*%
X14864000Y-10922000D02*
X15494000Y-10922000D01*
%TO.N,unconnected-(U3-Pad2)*%
X18166000Y-8636000D02*
X18796000Y-8636000D01*
%TO.N,unconnected-(U2-Pad2)*%
X18166000Y-9652000D02*
X18796000Y-9652000D01*
%TO.N,Net-(U4-Pad16)*%
X17812000Y-10160000D02*
X17803500Y-10151500D01*
X17803500Y-10151500D02*
X17803500Y-9398000D01*
X15927688Y-10267782D02*
X15984906Y-10325000D01*
X15984906Y-10325000D02*
X17666104Y-10325000D01*
X17666104Y-10325000D02*
X17812000Y-10179104D01*
X17812000Y-10179104D02*
X17812000Y-10160000D01*
X17803500Y-8773500D02*
X17812000Y-8765000D01*
X17803500Y-9398000D02*
X17803500Y-8773500D01*
X17803500Y-9398000D02*
X17812000Y-9398000D01*
%TO.N,Net-(D2-Pad1)*%
X17412000Y-10160000D02*
X17756500Y-10160000D01*
%TO.N,Net-(R2-Pad1)*%
X17412000Y-9398000D02*
X17756500Y-9398000D01*
%TO.N,Net-(D1-Pad1)*%
X17412000Y-8765000D02*
X17748000Y-8765000D01*
%TO.N,Net-(U4-Pad9)*%
X16602456Y-9906000D02*
X16878000Y-9906000D01*
X16878000Y-9906000D02*
X17132000Y-10160000D01*
%TO.N,Net-(U4-Pad10)*%
X16602456Y-9652000D02*
X16878000Y-9652000D01*
X16878000Y-9652000D02*
X17132000Y-9398000D01*
%TO.N,Net-(U4-Pad11)*%
X17018000Y-8879000D02*
X17018000Y-9144000D01*
X17132000Y-8765000D02*
X17018000Y-8879000D01*
X17018000Y-9144000D02*
X16764000Y-9398000D01*
X16764000Y-9398000D02*
X16602456Y-9398000D01*
%TO.N,Net-(J1-Pad1)*%
X13970000Y-8382000D02*
X14478000Y-8382000D01*
X14732000Y-8636000D02*
X14986000Y-8636000D01*
X14478000Y-8382000D02*
X14732000Y-8636000D01*
%TO.N,Net-(J1-Pad2)*%
X14478000Y-8636000D02*
X14732000Y-8890000D01*
X14732000Y-8890000D02*
X14986000Y-8890000D01*
X13970000Y-8636000D02*
X14478000Y-8636000D01*
%TO.N,Net-(J1-Pad3)*%
X13970000Y-8890000D02*
X14478000Y-8890000D01*
X14478000Y-8890000D02*
X14732000Y-9144000D01*
X14986000Y-9144000D02*
X14732000Y-9144000D01*
%TO.N,Net-(J1-Pad4)*%
X14986000Y-9398000D02*
X14224000Y-9398000D01*
X14224000Y-9398000D02*
X13970000Y-9144000D01*
%TO.N,Net-(J1-Pad5)*%
X13970000Y-9398000D02*
X14224000Y-9652000D01*
X14224000Y-9652000D02*
X14986000Y-9652000D01*
%TO.N,Net-(J1-Pad6)*%
X14224000Y-9906000D02*
X14986000Y-9906000D01*
X13970000Y-9652000D02*
X14224000Y-9906000D01*
%TO.N,Net-(J1-Pad7)*%
X13970000Y-9906000D02*
X14224000Y-10160000D01*
X14224000Y-10160000D02*
X14986000Y-10160000D01*
%TD*%
%TA.AperFunction,Conductor*%
%TO.N,Net-(U4-Pad16)*%
G36*
X16932637Y-7935945D02*
G01*
X16940716Y-7941343D01*
X16946113Y-7949421D01*
X16948009Y-7958950D01*
X16946113Y-7968479D01*
X16940716Y-7976557D01*
X16932637Y-7981955D01*
X16923966Y-7985546D01*
X16922671Y-7986540D01*
X16922671Y-7986540D01*
X16917377Y-7990602D01*
X16911422Y-7995172D01*
X16910428Y-7996467D01*
X16902790Y-8006421D01*
X16902790Y-8006421D01*
X16901796Y-8007716D01*
X16895746Y-8022324D01*
X16894200Y-8034064D01*
X16894200Y-8221936D01*
X16895746Y-8233676D01*
X16896370Y-8235184D01*
X16901025Y-8246422D01*
X16901796Y-8248284D01*
X16902790Y-8249579D01*
X16902790Y-8249579D01*
X16908195Y-8256623D01*
X16911422Y-8260828D01*
X16912717Y-8261822D01*
X16922671Y-8269460D01*
X16922671Y-8269460D01*
X16923966Y-8270454D01*
X16925474Y-8271078D01*
X16925474Y-8271078D01*
X16928382Y-8272283D01*
X16938574Y-8276504D01*
X16940192Y-8276717D01*
X16940192Y-8276717D01*
X16942019Y-8276958D01*
X16950314Y-8278050D01*
X17017992Y-8278050D01*
X17085686Y-8278050D01*
X17086494Y-8277943D01*
X17086494Y-8277943D01*
X17090766Y-8277381D01*
X17097426Y-8276504D01*
X17107619Y-8272283D01*
X17110526Y-8271078D01*
X17110526Y-8271078D01*
X17112034Y-8270454D01*
X17113329Y-8269460D01*
X17114742Y-8268644D01*
X17114930Y-8268970D01*
X17120952Y-8266000D01*
X17130646Y-8265365D01*
X17137404Y-8267252D01*
X17148353Y-8272058D01*
X17162723Y-8275508D01*
X17168763Y-8276958D01*
X17168763Y-8276958D01*
X17169842Y-8277217D01*
X17170949Y-8277281D01*
X17170950Y-8277281D01*
X17190797Y-8278425D01*
X17190798Y-8278425D01*
X17191904Y-8278489D01*
X17213844Y-8275834D01*
X17234966Y-8269336D01*
X17254604Y-8259200D01*
X17257963Y-8256623D01*
X17266676Y-8252326D01*
X17276371Y-8251690D01*
X17285571Y-8254813D01*
X17287008Y-8255710D01*
X17298118Y-8263175D01*
X17318353Y-8272058D01*
X17332723Y-8275508D01*
X17338763Y-8276958D01*
X17338763Y-8276958D01*
X17339842Y-8277217D01*
X17340949Y-8277281D01*
X17340950Y-8277281D01*
X17360797Y-8278425D01*
X17360798Y-8278425D01*
X17361904Y-8278489D01*
X17383844Y-8275834D01*
X17404966Y-8269336D01*
X17424604Y-8259200D01*
X17427963Y-8256623D01*
X17436676Y-8252326D01*
X17446371Y-8251690D01*
X17455571Y-8254813D01*
X17457008Y-8255710D01*
X17468118Y-8263175D01*
X17488353Y-8272058D01*
X17502723Y-8275508D01*
X17508763Y-8276958D01*
X17508763Y-8276958D01*
X17509842Y-8277217D01*
X17510949Y-8277281D01*
X17510950Y-8277281D01*
X17530797Y-8278425D01*
X17530798Y-8278425D01*
X17531904Y-8278489D01*
X17553844Y-8275834D01*
X17574966Y-8269336D01*
X17594604Y-8259200D01*
X17597963Y-8256623D01*
X17606676Y-8252326D01*
X17616371Y-8251690D01*
X17625571Y-8254813D01*
X17627008Y-8255710D01*
X17638118Y-8263175D01*
X17658353Y-8272058D01*
X17672723Y-8275508D01*
X17678763Y-8276958D01*
X17678763Y-8276958D01*
X17679842Y-8277217D01*
X17680949Y-8277281D01*
X17680950Y-8277281D01*
X17700797Y-8278425D01*
X17700798Y-8278425D01*
X17701904Y-8278489D01*
X17723844Y-8275834D01*
X17744966Y-8269336D01*
X17764604Y-8259200D01*
X17777142Y-8249579D01*
X17781256Y-8246422D01*
X17781256Y-8246422D01*
X17782136Y-8245747D01*
X17793120Y-8233676D01*
X17796263Y-8230222D01*
X17796263Y-8230222D01*
X17797009Y-8229402D01*
X17808753Y-8210681D01*
X17816995Y-8190177D01*
X17821477Y-8168537D01*
X17821800Y-8162928D01*
X17821800Y-8096143D01*
X17820336Y-8079738D01*
X17814505Y-8058422D01*
X17813356Y-8056014D01*
X17805468Y-8039477D01*
X17805468Y-8039476D01*
X17804991Y-8038476D01*
X17801820Y-8034064D01*
X17792742Y-8021430D01*
X17792095Y-8020530D01*
X17791299Y-8019758D01*
X17777021Y-8005922D01*
X17777021Y-8005922D01*
X17776225Y-8005150D01*
X17775304Y-8004532D01*
X17775304Y-8004532D01*
X17763041Y-7996291D01*
X17757882Y-7992825D01*
X17737647Y-7983942D01*
X17734398Y-7983162D01*
X17725575Y-7979095D01*
X17718980Y-7971960D01*
X17715617Y-7962845D01*
X17715999Y-7953137D01*
X17720066Y-7944314D01*
X17727200Y-7937719D01*
X17736315Y-7934357D01*
X17740211Y-7934050D01*
X18965050Y-7934050D01*
X18974579Y-7935945D01*
X18982657Y-7941343D01*
X18988055Y-7949421D01*
X18989950Y-7958950D01*
X18989950Y-8396442D01*
X18988055Y-8405971D01*
X18982657Y-8414049D01*
X18974579Y-8419447D01*
X18965050Y-8421342D01*
X18955521Y-8419447D01*
X18947443Y-8414049D01*
X18945296Y-8411600D01*
X18939822Y-8404467D01*
X18938828Y-8403172D01*
X18930058Y-8396442D01*
X18927579Y-8394540D01*
X18927579Y-8394540D01*
X18926284Y-8393546D01*
X18924776Y-8392922D01*
X18924776Y-8392922D01*
X18919741Y-8390836D01*
X18911676Y-8387496D01*
X18910059Y-8387283D01*
X18910058Y-8387283D01*
X18906707Y-8386841D01*
X18899936Y-8385950D01*
X18796013Y-8385950D01*
X18692064Y-8385950D01*
X18691256Y-8386056D01*
X18691256Y-8386056D01*
X18686984Y-8386619D01*
X18680324Y-8387496D01*
X18678816Y-8388120D01*
X18667224Y-8392922D01*
X18667224Y-8392922D01*
X18665716Y-8393546D01*
X18664421Y-8394540D01*
X18664421Y-8394540D01*
X18661942Y-8396442D01*
X18653172Y-8403172D01*
X18652178Y-8404467D01*
X18644540Y-8414421D01*
X18644540Y-8414421D01*
X18643546Y-8415716D01*
X18637496Y-8430324D01*
X18635950Y-8442064D01*
X18635950Y-8538550D01*
X18634055Y-8548079D01*
X18628657Y-8556157D01*
X18620579Y-8561555D01*
X18611050Y-8563450D01*
X18348247Y-8563450D01*
X18338718Y-8561555D01*
X18330640Y-8556157D01*
X18325243Y-8548079D01*
X18324629Y-8546272D01*
X18324504Y-8545324D01*
X18323334Y-8542498D01*
X18318454Y-8530716D01*
X18318808Y-8530569D01*
X18316663Y-8524248D01*
X18317299Y-8514553D01*
X18318624Y-8511355D01*
X18318454Y-8511284D01*
X18320275Y-8506888D01*
X18324504Y-8496676D01*
X18324718Y-8495058D01*
X18325447Y-8489520D01*
X18326050Y-8484936D01*
X18326050Y-8327064D01*
X18325931Y-8326156D01*
X18324717Y-8316942D01*
X18324504Y-8315324D01*
X18318454Y-8300716D01*
X18317460Y-8299421D01*
X18317460Y-8299421D01*
X18309822Y-8289467D01*
X18308828Y-8288172D01*
X18302012Y-8282942D01*
X18297579Y-8279540D01*
X18297579Y-8279540D01*
X18296284Y-8278546D01*
X18294776Y-8277922D01*
X18294776Y-8277922D01*
X18288949Y-8275508D01*
X18281676Y-8272496D01*
X18280059Y-8272283D01*
X18280058Y-8272283D01*
X18276707Y-8271841D01*
X18269936Y-8270950D01*
X18166013Y-8270950D01*
X18062064Y-8270950D01*
X18061256Y-8271056D01*
X18061256Y-8271056D01*
X18057034Y-8271612D01*
X18050324Y-8272496D01*
X18048816Y-8273120D01*
X18037224Y-8277922D01*
X18037224Y-8277922D01*
X18035716Y-8278546D01*
X18034421Y-8279540D01*
X18034421Y-8279540D01*
X18029988Y-8282942D01*
X18023172Y-8288172D01*
X18022178Y-8289467D01*
X18014540Y-8299421D01*
X18014540Y-8299421D01*
X18013546Y-8300716D01*
X18007496Y-8315324D01*
X18007283Y-8316941D01*
X18007283Y-8316942D01*
X18006980Y-8319241D01*
X18005950Y-8327064D01*
X18005950Y-8484936D01*
X18006057Y-8485744D01*
X18006057Y-8485744D01*
X18006253Y-8487239D01*
X18007496Y-8496676D01*
X18009851Y-8502362D01*
X18013546Y-8511284D01*
X18013192Y-8511431D01*
X18015337Y-8517752D01*
X18014701Y-8527447D01*
X18013376Y-8530645D01*
X18013546Y-8530716D01*
X18007496Y-8545324D01*
X18007283Y-8546942D01*
X18007283Y-8546942D01*
X18007249Y-8547195D01*
X18005950Y-8557064D01*
X18005950Y-8714936D01*
X18007496Y-8726676D01*
X18008666Y-8729502D01*
X18013546Y-8741284D01*
X18013192Y-8741431D01*
X18015337Y-8747752D01*
X18014701Y-8757447D01*
X18013376Y-8760645D01*
X18013546Y-8760716D01*
X18007496Y-8775324D01*
X18007283Y-8776942D01*
X18007283Y-8776942D01*
X18007050Y-8778709D01*
X18005950Y-8787064D01*
X18005950Y-8944936D01*
X18007496Y-8956676D01*
X18013546Y-8971284D01*
X18014540Y-8972579D01*
X18014540Y-8972579D01*
X18017135Y-8975961D01*
X18023172Y-8983828D01*
X18024467Y-8984822D01*
X18034421Y-8992460D01*
X18034421Y-8992460D01*
X18035716Y-8993454D01*
X18037224Y-8994078D01*
X18037224Y-8994078D01*
X18042260Y-8996164D01*
X18050324Y-8999504D01*
X18051942Y-8999717D01*
X18051942Y-8999717D01*
X18055293Y-9000159D01*
X18062064Y-9001050D01*
X18165987Y-9001050D01*
X18269936Y-9001050D01*
X18270744Y-9000944D01*
X18270744Y-9000944D01*
X18275016Y-9000381D01*
X18281676Y-8999504D01*
X18286163Y-8997646D01*
X18294776Y-8994078D01*
X18294776Y-8994078D01*
X18296284Y-8993454D01*
X18297579Y-8992460D01*
X18297579Y-8992460D01*
X18307533Y-8984822D01*
X18308828Y-8983828D01*
X18314865Y-8975961D01*
X18317460Y-8972579D01*
X18317460Y-8972579D01*
X18318454Y-8971284D01*
X18324504Y-8956676D01*
X18324718Y-8955058D01*
X18325944Y-8945744D01*
X18326050Y-8944936D01*
X18326050Y-8787064D01*
X18324504Y-8775324D01*
X18318454Y-8760716D01*
X18318808Y-8760569D01*
X18316663Y-8754248D01*
X18317299Y-8744553D01*
X18318624Y-8741355D01*
X18318454Y-8741284D01*
X18323880Y-8728184D01*
X18323880Y-8728184D01*
X18324504Y-8726676D01*
X18324558Y-8726271D01*
X18328493Y-8718292D01*
X18335797Y-8711886D01*
X18344997Y-8708763D01*
X18348247Y-8708550D01*
X18611050Y-8708550D01*
X18620579Y-8710445D01*
X18628657Y-8715843D01*
X18634055Y-8723921D01*
X18635950Y-8733450D01*
X18635950Y-8829936D01*
X18637496Y-8841676D01*
X18638120Y-8843184D01*
X18642756Y-8854377D01*
X18643546Y-8856284D01*
X18644540Y-8857579D01*
X18644540Y-8857579D01*
X18650864Y-8865821D01*
X18653172Y-8868828D01*
X18654467Y-8869822D01*
X18664421Y-8877460D01*
X18664421Y-8877460D01*
X18665716Y-8878454D01*
X18667224Y-8879078D01*
X18667224Y-8879078D01*
X18668811Y-8879736D01*
X18680324Y-8884504D01*
X18681942Y-8884717D01*
X18681942Y-8884717D01*
X18685293Y-8885159D01*
X18692064Y-8886050D01*
X18795987Y-8886050D01*
X18899936Y-8886050D01*
X18900744Y-8885944D01*
X18900744Y-8885944D01*
X18905016Y-8885381D01*
X18911676Y-8884504D01*
X18923189Y-8879736D01*
X18924776Y-8879078D01*
X18924776Y-8879078D01*
X18926284Y-8878454D01*
X18927579Y-8877460D01*
X18927579Y-8877460D01*
X18937533Y-8869822D01*
X18938828Y-8868828D01*
X18945296Y-8860400D01*
X18952600Y-8853994D01*
X18961800Y-8850871D01*
X18971495Y-8851506D01*
X18980208Y-8855803D01*
X18986614Y-8863108D01*
X18989737Y-8872308D01*
X18989950Y-8875558D01*
X18989950Y-9412442D01*
X18988055Y-9421971D01*
X18982657Y-9430049D01*
X18974579Y-9435447D01*
X18965050Y-9437342D01*
X18955521Y-9435447D01*
X18947443Y-9430049D01*
X18945296Y-9427600D01*
X18939822Y-9420467D01*
X18938828Y-9419172D01*
X18936211Y-9417164D01*
X18927579Y-9410540D01*
X18927579Y-9410540D01*
X18926284Y-9409546D01*
X18924776Y-9408922D01*
X18924776Y-9408922D01*
X18919741Y-9406836D01*
X18911676Y-9403496D01*
X18910059Y-9403283D01*
X18910058Y-9403283D01*
X18906707Y-9402841D01*
X18899936Y-9401950D01*
X18796013Y-9401950D01*
X18692064Y-9401950D01*
X18691256Y-9402057D01*
X18691256Y-9402057D01*
X18686984Y-9402619D01*
X18680324Y-9403496D01*
X18678816Y-9404120D01*
X18667224Y-9408922D01*
X18667224Y-9408922D01*
X18665716Y-9409546D01*
X18664421Y-9410540D01*
X18664421Y-9410540D01*
X18655789Y-9417164D01*
X18653172Y-9419172D01*
X18652178Y-9420467D01*
X18644540Y-9430421D01*
X18644540Y-9430421D01*
X18643546Y-9431716D01*
X18637496Y-9446324D01*
X18635950Y-9458064D01*
X18635950Y-9554550D01*
X18634055Y-9564079D01*
X18628657Y-9572157D01*
X18620579Y-9577555D01*
X18611050Y-9579450D01*
X18348247Y-9579450D01*
X18338718Y-9577555D01*
X18330640Y-9572157D01*
X18325243Y-9564079D01*
X18324629Y-9562272D01*
X18324504Y-9561324D01*
X18323334Y-9558498D01*
X18318454Y-9546716D01*
X18318808Y-9546569D01*
X18316663Y-9540248D01*
X18317299Y-9530553D01*
X18318624Y-9527355D01*
X18318454Y-9527284D01*
X18319400Y-9525000D01*
X18324504Y-9512676D01*
X18324718Y-9511058D01*
X18325430Y-9505646D01*
X18326050Y-9500936D01*
X18326050Y-9343064D01*
X18324504Y-9331324D01*
X18321286Y-9323555D01*
X18319078Y-9318224D01*
X18319078Y-9318224D01*
X18318454Y-9316716D01*
X18317460Y-9315421D01*
X18317460Y-9315421D01*
X18309822Y-9305467D01*
X18308828Y-9304172D01*
X18307533Y-9303178D01*
X18297579Y-9295540D01*
X18297579Y-9295540D01*
X18296284Y-9294546D01*
X18294776Y-9293922D01*
X18294776Y-9293922D01*
X18286190Y-9290365D01*
X18281676Y-9288496D01*
X18280059Y-9288283D01*
X18280058Y-9288283D01*
X18276707Y-9287841D01*
X18269936Y-9286950D01*
X18166013Y-9286950D01*
X18062064Y-9286950D01*
X18061256Y-9287057D01*
X18061256Y-9287057D01*
X18056984Y-9287619D01*
X18050324Y-9288496D01*
X18048816Y-9289120D01*
X18037224Y-9293922D01*
X18037224Y-9293922D01*
X18035716Y-9294546D01*
X18034421Y-9295540D01*
X18034421Y-9295540D01*
X18024467Y-9303178D01*
X18023172Y-9304172D01*
X18022178Y-9305467D01*
X18014540Y-9315421D01*
X18014540Y-9315421D01*
X18013546Y-9316716D01*
X18007496Y-9331324D01*
X18007283Y-9332942D01*
X18007283Y-9332942D01*
X18006841Y-9336293D01*
X18005950Y-9343064D01*
X18005950Y-9500936D01*
X18007496Y-9512676D01*
X18008120Y-9514184D01*
X18008120Y-9514184D01*
X18013546Y-9527284D01*
X18013192Y-9527431D01*
X18015337Y-9533752D01*
X18014701Y-9543447D01*
X18013376Y-9546645D01*
X18013546Y-9546716D01*
X18007496Y-9561324D01*
X18007283Y-9562942D01*
X18007283Y-9562942D01*
X18006881Y-9565994D01*
X18005950Y-9573064D01*
X18005950Y-9730936D01*
X18007496Y-9742676D01*
X18008666Y-9745502D01*
X18013546Y-9757284D01*
X18013192Y-9757431D01*
X18015337Y-9763752D01*
X18014701Y-9773447D01*
X18013376Y-9776645D01*
X18013546Y-9776716D01*
X18007496Y-9791324D01*
X18007283Y-9792942D01*
X18007283Y-9792942D01*
X18007050Y-9794709D01*
X18005950Y-9803064D01*
X18005950Y-9960936D01*
X18007496Y-9972676D01*
X18008120Y-9974184D01*
X18008120Y-9974184D01*
X18011056Y-9981272D01*
X18013546Y-9987284D01*
X18014540Y-9988579D01*
X18014540Y-9988579D01*
X18017135Y-9991961D01*
X18023172Y-9999828D01*
X18024467Y-10000822D01*
X18034421Y-10008460D01*
X18034421Y-10008460D01*
X18035716Y-10009454D01*
X18037224Y-10010078D01*
X18037224Y-10010078D01*
X18042260Y-10012164D01*
X18050324Y-10015504D01*
X18051942Y-10015717D01*
X18051942Y-10015717D01*
X18055293Y-10016159D01*
X18062064Y-10017050D01*
X18165987Y-10017050D01*
X18269936Y-10017050D01*
X18270744Y-10016944D01*
X18270744Y-10016944D01*
X18275016Y-10016381D01*
X18281676Y-10015504D01*
X18286163Y-10013646D01*
X18294776Y-10010078D01*
X18294776Y-10010078D01*
X18296284Y-10009454D01*
X18297579Y-10008460D01*
X18297579Y-10008460D01*
X18307533Y-10000822D01*
X18308828Y-9999828D01*
X18314865Y-9991961D01*
X18317460Y-9988579D01*
X18317460Y-9988579D01*
X18318454Y-9987284D01*
X18324504Y-9972676D01*
X18324718Y-9971058D01*
X18325944Y-9961744D01*
X18326050Y-9960936D01*
X18326050Y-9803064D01*
X18324504Y-9791324D01*
X18318454Y-9776716D01*
X18318808Y-9776569D01*
X18316663Y-9770248D01*
X18317299Y-9760553D01*
X18318624Y-9757355D01*
X18318454Y-9757284D01*
X18323880Y-9744184D01*
X18323880Y-9744184D01*
X18324504Y-9742676D01*
X18324558Y-9742271D01*
X18328493Y-9734292D01*
X18335797Y-9727886D01*
X18344997Y-9724763D01*
X18348247Y-9724550D01*
X18611050Y-9724550D01*
X18620579Y-9726445D01*
X18628657Y-9731843D01*
X18634055Y-9739921D01*
X18635950Y-9749450D01*
X18635950Y-9845936D01*
X18637496Y-9857676D01*
X18638120Y-9859184D01*
X18642598Y-9869994D01*
X18643546Y-9872284D01*
X18644540Y-9873579D01*
X18644540Y-9873579D01*
X18650901Y-9881869D01*
X18653172Y-9884828D01*
X18654467Y-9885822D01*
X18664421Y-9893460D01*
X18664421Y-9893460D01*
X18665716Y-9894454D01*
X18667224Y-9895078D01*
X18667224Y-9895078D01*
X18672260Y-9897164D01*
X18680324Y-9900504D01*
X18681942Y-9900717D01*
X18681942Y-9900717D01*
X18685293Y-9901159D01*
X18692064Y-9902050D01*
X18795987Y-9902050D01*
X18899936Y-9902050D01*
X18900744Y-9901944D01*
X18900744Y-9901944D01*
X18905016Y-9901381D01*
X18911676Y-9900504D01*
X18915653Y-9898857D01*
X18924776Y-9895078D01*
X18924776Y-9895078D01*
X18926284Y-9894454D01*
X18927579Y-9893460D01*
X18927579Y-9893460D01*
X18937533Y-9885822D01*
X18938828Y-9884828D01*
X18945296Y-9876400D01*
X18952600Y-9869994D01*
X18961800Y-9866871D01*
X18971495Y-9867506D01*
X18980208Y-9871803D01*
X18986614Y-9879108D01*
X18989737Y-9888308D01*
X18989950Y-9891558D01*
X18989950Y-11345050D01*
X18988055Y-11354579D01*
X18982657Y-11362657D01*
X18974579Y-11368055D01*
X18965050Y-11369950D01*
X13546950Y-11369950D01*
X13537421Y-11368055D01*
X13529343Y-11362657D01*
X13523945Y-11354579D01*
X13522050Y-11345050D01*
X13522050Y-11073064D01*
X14703950Y-11073064D01*
X14703950Y-11230936D01*
X14705496Y-11242676D01*
X14711546Y-11257284D01*
X14712540Y-11258579D01*
X14712540Y-11258579D01*
X14720178Y-11268533D01*
X14721172Y-11269828D01*
X14722467Y-11270822D01*
X14732421Y-11278460D01*
X14732421Y-11278460D01*
X14733716Y-11279454D01*
X14735224Y-11280078D01*
X14735224Y-11280078D01*
X14740259Y-11282164D01*
X14748324Y-11285504D01*
X14749941Y-11285717D01*
X14749942Y-11285717D01*
X14753293Y-11286159D01*
X14760064Y-11287050D01*
X14863987Y-11287050D01*
X14967936Y-11287050D01*
X14968744Y-11286943D01*
X14968744Y-11286943D01*
X14973016Y-11286381D01*
X14979676Y-11285504D01*
X14983653Y-11283857D01*
X14992776Y-11280078D01*
X14992776Y-11280078D01*
X14994284Y-11279454D01*
X14995579Y-11278460D01*
X14995579Y-11278460D01*
X15005533Y-11270822D01*
X15006828Y-11269828D01*
X15007822Y-11268533D01*
X15015460Y-11258579D01*
X15015460Y-11258579D01*
X15016454Y-11257284D01*
X15022504Y-11242676D01*
X15022717Y-11241058D01*
X15023944Y-11231744D01*
X15024050Y-11230936D01*
X15024050Y-11073064D01*
X15023807Y-11071217D01*
X15023189Y-11066523D01*
X15022504Y-11061324D01*
X15016454Y-11046716D01*
X15016808Y-11046569D01*
X15014663Y-11040248D01*
X15015299Y-11030553D01*
X15016624Y-11027355D01*
X15016454Y-11027284D01*
X15021880Y-11014184D01*
X15021880Y-11014184D01*
X15022504Y-11012676D01*
X15022558Y-11012271D01*
X15026493Y-11004292D01*
X15033797Y-10997886D01*
X15042997Y-10994763D01*
X15046247Y-10994550D01*
X15309050Y-10994550D01*
X15318579Y-10996445D01*
X15326657Y-11001843D01*
X15332055Y-11009921D01*
X15333950Y-11019450D01*
X15333950Y-11115936D01*
X15335496Y-11127676D01*
X15341546Y-11142284D01*
X15342540Y-11143579D01*
X15342540Y-11143579D01*
X15350178Y-11153533D01*
X15351172Y-11154828D01*
X15352467Y-11155822D01*
X15362421Y-11163460D01*
X15362421Y-11163460D01*
X15363716Y-11164454D01*
X15365224Y-11165078D01*
X15365224Y-11165078D01*
X15370259Y-11167164D01*
X15378324Y-11170504D01*
X15379941Y-11170717D01*
X15379942Y-11170717D01*
X15383293Y-11171159D01*
X15390064Y-11172050D01*
X15493987Y-11172050D01*
X15597936Y-11172050D01*
X15598744Y-11171944D01*
X15598744Y-11171944D01*
X15603016Y-11171381D01*
X15609676Y-11170504D01*
X15613653Y-11168857D01*
X15622776Y-11165078D01*
X15622776Y-11165078D01*
X15624284Y-11164454D01*
X15625579Y-11163460D01*
X15625579Y-11163460D01*
X15635533Y-11155822D01*
X15636828Y-11154828D01*
X15637822Y-11153533D01*
X15645460Y-11143579D01*
X15645460Y-11143579D01*
X15646454Y-11142284D01*
X15652504Y-11127676D01*
X15652717Y-11126058D01*
X15653944Y-11116744D01*
X15654050Y-11115936D01*
X15654050Y-10828064D01*
X15851950Y-10828064D01*
X15851950Y-11015936D01*
X15853496Y-11027676D01*
X15854120Y-11029184D01*
X15858885Y-11040687D01*
X15859546Y-11042284D01*
X15860540Y-11043579D01*
X15860540Y-11043579D01*
X15867404Y-11052525D01*
X15869172Y-11054828D01*
X15870467Y-11055822D01*
X15880421Y-11063460D01*
X15880421Y-11063460D01*
X15881716Y-11064454D01*
X15883224Y-11065078D01*
X15883224Y-11065078D01*
X15885983Y-11066221D01*
X15896324Y-11070504D01*
X15897941Y-11070717D01*
X15897942Y-11070717D01*
X15899768Y-11070958D01*
X15908064Y-11072050D01*
X16001988Y-11072050D01*
X16095936Y-11072050D01*
X16096744Y-11071944D01*
X16096744Y-11071944D01*
X16101621Y-11071302D01*
X16107676Y-11070504D01*
X16117136Y-11066586D01*
X16120776Y-11065078D01*
X16120776Y-11065078D01*
X16122284Y-11064454D01*
X16126259Y-11061403D01*
X16127327Y-11060584D01*
X16136041Y-11056287D01*
X16145735Y-11055652D01*
X16152774Y-11057743D01*
X16152843Y-11057784D01*
X16175894Y-11066586D01*
X16176895Y-11066790D01*
X16176895Y-11066790D01*
X16199071Y-11071302D01*
X16199071Y-11071302D01*
X16200073Y-11071505D01*
X16210335Y-11071882D01*
X16223709Y-11072372D01*
X16223709Y-11072372D01*
X16224730Y-11072409D01*
X16225743Y-11072280D01*
X16225744Y-11072280D01*
X16239600Y-11070504D01*
X16249204Y-11069274D01*
X16272837Y-11062184D01*
X16294995Y-11051329D01*
X16303398Y-11045335D01*
X16311476Y-11039573D01*
X16320334Y-11035583D01*
X16330045Y-11035286D01*
X16339130Y-11038728D01*
X16341840Y-11040686D01*
X16347440Y-11045335D01*
X16368743Y-11057784D01*
X16391794Y-11066586D01*
X16392795Y-11066790D01*
X16392795Y-11066790D01*
X16414971Y-11071302D01*
X16414971Y-11071302D01*
X16415973Y-11071505D01*
X16426235Y-11071882D01*
X16439609Y-11072372D01*
X16439609Y-11072372D01*
X16440630Y-11072409D01*
X16441643Y-11072280D01*
X16441644Y-11072280D01*
X16455500Y-11070504D01*
X16465104Y-11069274D01*
X16488737Y-11062184D01*
X16510895Y-11051329D01*
X16519298Y-11045335D01*
X16527376Y-11039573D01*
X16536234Y-11035583D01*
X16545945Y-11035286D01*
X16555030Y-11038728D01*
X16557740Y-11040686D01*
X16563340Y-11045335D01*
X16584643Y-11057784D01*
X16607694Y-11066586D01*
X16608695Y-11066790D01*
X16608695Y-11066790D01*
X16630871Y-11071302D01*
X16630871Y-11071302D01*
X16631873Y-11071505D01*
X16642135Y-11071882D01*
X16655509Y-11072372D01*
X16655509Y-11072372D01*
X16656530Y-11072409D01*
X16657543Y-11072280D01*
X16657544Y-11072280D01*
X16671400Y-11070504D01*
X16681004Y-11069274D01*
X16704637Y-11062184D01*
X16726795Y-11051329D01*
X16733468Y-11046569D01*
X16746051Y-11037594D01*
X16746052Y-11037593D01*
X16746883Y-11037000D01*
X16764360Y-11019584D01*
X16778759Y-10999546D01*
X16789691Y-10977426D01*
X16790252Y-10975580D01*
X16796567Y-10954796D01*
X16796567Y-10954795D01*
X16796864Y-10953818D01*
X16798386Y-10942256D01*
X16799998Y-10930011D01*
X16799998Y-10930011D01*
X16800085Y-10929355D01*
X16800264Y-10922000D01*
X16798243Y-10897409D01*
X16792232Y-10873478D01*
X16782393Y-10850851D01*
X16768990Y-10830134D01*
X16767107Y-10828064D01*
X16894200Y-10828064D01*
X16894200Y-11015936D01*
X16895746Y-11027676D01*
X16896370Y-11029184D01*
X16901135Y-11040687D01*
X16901796Y-11042284D01*
X16902790Y-11043579D01*
X16902790Y-11043579D01*
X16909654Y-11052525D01*
X16911422Y-11054828D01*
X16912717Y-11055822D01*
X16922671Y-11063460D01*
X16922671Y-11063460D01*
X16923966Y-11064454D01*
X16925474Y-11065078D01*
X16925474Y-11065078D01*
X16928234Y-11066221D01*
X16938574Y-11070504D01*
X16940192Y-11070717D01*
X16940192Y-11070717D01*
X16942019Y-11070958D01*
X16950314Y-11072050D01*
X17017992Y-11072050D01*
X17085686Y-11072050D01*
X17086494Y-11071944D01*
X17086494Y-11071944D01*
X17091371Y-11071302D01*
X17097426Y-11070504D01*
X17106886Y-11066586D01*
X17110526Y-11065078D01*
X17110526Y-11065078D01*
X17112034Y-11064454D01*
X17113329Y-11063460D01*
X17114742Y-11062644D01*
X17114930Y-11062970D01*
X17120952Y-11060000D01*
X17130646Y-11059365D01*
X17137404Y-11061252D01*
X17148353Y-11066058D01*
X17160527Y-11068981D01*
X17168763Y-11070958D01*
X17168763Y-11070958D01*
X17169842Y-11071217D01*
X17170949Y-11071281D01*
X17170950Y-11071281D01*
X17190797Y-11072425D01*
X17190798Y-11072425D01*
X17191904Y-11072489D01*
X17213844Y-11069834D01*
X17234966Y-11063336D01*
X17254604Y-11053200D01*
X17256457Y-11051778D01*
X17257963Y-11050623D01*
X17266676Y-11046326D01*
X17276371Y-11045691D01*
X17285571Y-11048814D01*
X17287008Y-11049710D01*
X17298118Y-11057175D01*
X17318353Y-11066058D01*
X17330527Y-11068981D01*
X17338763Y-11070958D01*
X17338763Y-11070958D01*
X17339842Y-11071217D01*
X17340949Y-11071281D01*
X17340950Y-11071281D01*
X17360797Y-11072425D01*
X17360798Y-11072425D01*
X17361904Y-11072489D01*
X17383844Y-11069834D01*
X17404966Y-11063336D01*
X17424604Y-11053200D01*
X17426457Y-11051778D01*
X17427963Y-11050623D01*
X17436676Y-11046326D01*
X17446371Y-11045691D01*
X17455571Y-11048814D01*
X17457008Y-11049710D01*
X17468118Y-11057175D01*
X17488353Y-11066058D01*
X17500527Y-11068981D01*
X17508763Y-11070958D01*
X17508763Y-11070958D01*
X17509842Y-11071217D01*
X17510949Y-11071281D01*
X17510950Y-11071281D01*
X17530797Y-11072425D01*
X17530798Y-11072425D01*
X17531904Y-11072489D01*
X17553844Y-11069834D01*
X17574966Y-11063336D01*
X17594604Y-11053200D01*
X17596457Y-11051778D01*
X17597963Y-11050623D01*
X17606676Y-11046326D01*
X17616371Y-11045691D01*
X17625571Y-11048814D01*
X17627008Y-11049710D01*
X17638118Y-11057175D01*
X17658353Y-11066058D01*
X17670527Y-11068981D01*
X17678763Y-11070958D01*
X17678763Y-11070958D01*
X17679842Y-11071217D01*
X17680949Y-11071281D01*
X17680950Y-11071281D01*
X17700797Y-11072425D01*
X17700798Y-11072425D01*
X17701904Y-11072489D01*
X17723844Y-11069834D01*
X17744966Y-11063336D01*
X17764604Y-11053200D01*
X17772073Y-11047469D01*
X17781256Y-11040422D01*
X17781256Y-11040422D01*
X17782136Y-11039747D01*
X17793343Y-11027431D01*
X17796263Y-11024222D01*
X17796263Y-11024222D01*
X17797009Y-11023402D01*
X17799404Y-11019584D01*
X17808163Y-11005621D01*
X17808163Y-11005621D01*
X17808753Y-11004681D01*
X17816995Y-10984177D01*
X17821477Y-10962537D01*
X17821800Y-10956928D01*
X17821800Y-10890143D01*
X17820336Y-10873738D01*
X17814505Y-10852422D01*
X17812183Y-10847555D01*
X17805468Y-10833477D01*
X17805468Y-10833476D01*
X17804991Y-10832476D01*
X17801820Y-10828064D01*
X17792742Y-10815430D01*
X17792095Y-10814530D01*
X17791299Y-10813758D01*
X17777021Y-10799922D01*
X17777021Y-10799922D01*
X17776225Y-10799150D01*
X17775304Y-10798532D01*
X17775304Y-10798532D01*
X17763041Y-10790291D01*
X17757882Y-10786825D01*
X17737647Y-10777942D01*
X17722694Y-10774352D01*
X17717237Y-10773042D01*
X17717237Y-10773042D01*
X17716158Y-10772783D01*
X17715051Y-10772719D01*
X17715051Y-10772719D01*
X17695203Y-10771575D01*
X17695202Y-10771575D01*
X17694096Y-10771511D01*
X17672157Y-10774166D01*
X17651034Y-10780664D01*
X17631397Y-10790800D01*
X17630517Y-10791475D01*
X17630516Y-10791475D01*
X17628037Y-10793377D01*
X17619324Y-10797674D01*
X17609629Y-10798310D01*
X17600429Y-10795187D01*
X17598992Y-10794290D01*
X17597633Y-10793377D01*
X17587882Y-10786825D01*
X17567647Y-10777942D01*
X17552694Y-10774352D01*
X17547237Y-10773042D01*
X17547237Y-10773042D01*
X17546158Y-10772783D01*
X17545051Y-10772719D01*
X17545051Y-10772719D01*
X17525203Y-10771575D01*
X17525202Y-10771575D01*
X17524096Y-10771511D01*
X17502157Y-10774166D01*
X17481034Y-10780664D01*
X17461397Y-10790800D01*
X17460517Y-10791475D01*
X17460516Y-10791475D01*
X17458037Y-10793377D01*
X17449324Y-10797674D01*
X17439629Y-10798310D01*
X17430429Y-10795187D01*
X17428992Y-10794290D01*
X17427633Y-10793377D01*
X17417882Y-10786825D01*
X17397647Y-10777942D01*
X17382694Y-10774352D01*
X17377237Y-10773042D01*
X17377237Y-10773042D01*
X17376158Y-10772783D01*
X17375051Y-10772719D01*
X17375051Y-10772719D01*
X17355203Y-10771575D01*
X17355202Y-10771575D01*
X17354096Y-10771511D01*
X17332157Y-10774166D01*
X17311034Y-10780664D01*
X17291397Y-10790800D01*
X17290517Y-10791475D01*
X17290516Y-10791475D01*
X17288037Y-10793377D01*
X17279324Y-10797674D01*
X17269629Y-10798310D01*
X17260429Y-10795187D01*
X17258992Y-10794290D01*
X17257633Y-10793377D01*
X17247882Y-10786825D01*
X17227647Y-10777942D01*
X17212694Y-10774352D01*
X17207237Y-10773042D01*
X17207237Y-10773042D01*
X17206158Y-10772783D01*
X17205051Y-10772719D01*
X17205051Y-10772719D01*
X17185203Y-10771575D01*
X17185202Y-10771575D01*
X17184096Y-10771511D01*
X17162157Y-10774166D01*
X17141034Y-10780664D01*
X17140049Y-10781172D01*
X17140049Y-10781172D01*
X17138609Y-10781916D01*
X17129272Y-10784602D01*
X17119618Y-10783511D01*
X17114738Y-10781354D01*
X17113329Y-10780540D01*
X17112034Y-10779546D01*
X17097426Y-10773496D01*
X17095809Y-10773283D01*
X17095808Y-10773283D01*
X17090942Y-10772642D01*
X17085686Y-10771950D01*
X17018008Y-10771950D01*
X16950314Y-10771950D01*
X16949506Y-10772057D01*
X16949506Y-10772057D01*
X16947784Y-10772283D01*
X16938574Y-10773496D01*
X16937066Y-10774120D01*
X16925474Y-10778922D01*
X16925474Y-10778922D01*
X16923966Y-10779546D01*
X16922671Y-10780540D01*
X16922671Y-10780540D01*
X16913675Y-10787443D01*
X16911422Y-10789172D01*
X16910428Y-10790467D01*
X16902790Y-10800421D01*
X16902790Y-10800421D01*
X16901796Y-10801716D01*
X16901172Y-10803224D01*
X16901172Y-10803224D01*
X16899561Y-10807112D01*
X16895746Y-10816324D01*
X16894200Y-10828064D01*
X16767107Y-10828064D01*
X16752385Y-10811884D01*
X16733021Y-10796592D01*
X16728546Y-10794122D01*
X16712314Y-10785161D01*
X16712314Y-10785161D01*
X16711420Y-10784667D01*
X16710457Y-10784326D01*
X16710457Y-10784326D01*
X16689124Y-10776772D01*
X16689124Y-10776772D01*
X16688161Y-10776431D01*
X16663869Y-10772104D01*
X16662847Y-10772091D01*
X16662847Y-10772091D01*
X16648818Y-10771920D01*
X16639197Y-10771803D01*
X16621620Y-10774492D01*
X16615817Y-10775380D01*
X16615816Y-10775380D01*
X16614807Y-10775535D01*
X16613836Y-10775852D01*
X16592325Y-10782883D01*
X16592325Y-10782883D01*
X16591354Y-10783200D01*
X16569468Y-10794594D01*
X16556670Y-10804202D01*
X16547912Y-10808408D01*
X16538211Y-10808942D01*
X16529045Y-10805723D01*
X16526287Y-10803831D01*
X16517923Y-10797225D01*
X16517923Y-10797225D01*
X16517121Y-10796592D01*
X16512646Y-10794122D01*
X16496414Y-10785161D01*
X16496414Y-10785161D01*
X16495520Y-10784667D01*
X16494557Y-10784326D01*
X16494557Y-10784326D01*
X16473224Y-10776772D01*
X16473224Y-10776772D01*
X16472261Y-10776431D01*
X16447969Y-10772104D01*
X16446947Y-10772091D01*
X16446947Y-10772091D01*
X16432918Y-10771920D01*
X16423297Y-10771803D01*
X16405720Y-10774492D01*
X16399917Y-10775380D01*
X16399916Y-10775380D01*
X16398907Y-10775535D01*
X16397936Y-10775852D01*
X16376425Y-10782883D01*
X16376425Y-10782883D01*
X16375454Y-10783200D01*
X16353568Y-10794594D01*
X16340770Y-10804202D01*
X16332012Y-10808408D01*
X16322311Y-10808942D01*
X16313145Y-10805723D01*
X16310387Y-10803831D01*
X16302023Y-10797225D01*
X16302023Y-10797225D01*
X16301221Y-10796592D01*
X16296746Y-10794122D01*
X16280514Y-10785161D01*
X16280514Y-10785161D01*
X16279620Y-10784667D01*
X16278657Y-10784326D01*
X16278657Y-10784326D01*
X16257324Y-10776772D01*
X16257324Y-10776772D01*
X16256361Y-10776431D01*
X16232069Y-10772104D01*
X16231047Y-10772091D01*
X16231047Y-10772091D01*
X16217018Y-10771920D01*
X16207397Y-10771803D01*
X16189820Y-10774492D01*
X16184017Y-10775380D01*
X16184016Y-10775380D01*
X16183007Y-10775535D01*
X16182036Y-10775852D01*
X16160525Y-10782883D01*
X16160525Y-10782883D01*
X16159554Y-10783200D01*
X16157391Y-10784326D01*
X16154256Y-10785958D01*
X16144929Y-10788677D01*
X16135271Y-10787619D01*
X16127601Y-10783626D01*
X16127451Y-10783511D01*
X16122284Y-10779546D01*
X16120776Y-10778922D01*
X16120776Y-10778922D01*
X16112226Y-10775380D01*
X16107676Y-10773496D01*
X16106058Y-10773283D01*
X16106058Y-10773283D01*
X16101192Y-10772642D01*
X16095936Y-10771950D01*
X16002012Y-10771950D01*
X15908064Y-10771950D01*
X15907256Y-10772057D01*
X15907256Y-10772057D01*
X15905534Y-10772283D01*
X15896324Y-10773496D01*
X15894816Y-10774120D01*
X15883224Y-10778922D01*
X15883224Y-10778922D01*
X15881716Y-10779546D01*
X15880421Y-10780540D01*
X15880421Y-10780540D01*
X15871425Y-10787443D01*
X15869172Y-10789172D01*
X15868178Y-10790467D01*
X15860540Y-10800421D01*
X15860540Y-10800421D01*
X15859546Y-10801716D01*
X15858922Y-10803224D01*
X15858922Y-10803224D01*
X15857311Y-10807112D01*
X15853496Y-10816324D01*
X15851950Y-10828064D01*
X15654050Y-10828064D01*
X15654050Y-10728064D01*
X15652504Y-10716324D01*
X15646454Y-10701716D01*
X15645460Y-10700421D01*
X15645460Y-10700421D01*
X15637822Y-10690467D01*
X15636828Y-10689172D01*
X15634305Y-10687235D01*
X15625579Y-10680540D01*
X15625579Y-10680540D01*
X15624284Y-10679546D01*
X15622776Y-10678922D01*
X15622776Y-10678922D01*
X15615158Y-10675766D01*
X15609676Y-10673496D01*
X15608058Y-10673283D01*
X15608058Y-10673283D01*
X15604707Y-10672841D01*
X15597936Y-10671950D01*
X15494013Y-10671950D01*
X15390064Y-10671950D01*
X15389256Y-10672057D01*
X15389256Y-10672057D01*
X15384984Y-10672619D01*
X15378324Y-10673496D01*
X15376816Y-10674120D01*
X15365224Y-10678922D01*
X15365224Y-10678922D01*
X15363716Y-10679546D01*
X15362421Y-10680540D01*
X15362421Y-10680540D01*
X15353695Y-10687235D01*
X15351172Y-10689172D01*
X15350178Y-10690467D01*
X15342540Y-10700421D01*
X15342540Y-10700421D01*
X15341546Y-10701716D01*
X15335496Y-10716324D01*
X15335283Y-10717942D01*
X15335283Y-10717942D01*
X15334978Y-10720257D01*
X15333950Y-10728064D01*
X15333950Y-10824550D01*
X15332055Y-10834079D01*
X15326657Y-10842157D01*
X15318579Y-10847555D01*
X15309050Y-10849450D01*
X15046247Y-10849450D01*
X15036718Y-10847555D01*
X15028640Y-10842157D01*
X15023243Y-10834079D01*
X15022629Y-10832272D01*
X15022504Y-10831324D01*
X15016454Y-10816716D01*
X15016808Y-10816569D01*
X15014663Y-10810248D01*
X15015299Y-10800553D01*
X15016624Y-10797355D01*
X15016454Y-10797284D01*
X15017357Y-10795102D01*
X15022504Y-10782676D01*
X15022717Y-10781058D01*
X15023807Y-10772783D01*
X15024050Y-10770936D01*
X15024050Y-10652973D01*
X18426950Y-10652973D01*
X18426950Y-10668018D01*
X18426950Y-10683599D01*
X18427002Y-10684167D01*
X18427470Y-10689254D01*
X18427617Y-10690859D01*
X18432687Y-10707038D01*
X18441470Y-10721541D01*
X18453459Y-10733530D01*
X18467962Y-10742313D01*
X18484141Y-10747383D01*
X18485456Y-10747504D01*
X18485456Y-10747504D01*
X18486839Y-10747631D01*
X18491401Y-10748050D01*
X18491973Y-10748050D01*
X18510021Y-10748050D01*
X18528599Y-10748050D01*
X18531192Y-10747812D01*
X18534544Y-10747504D01*
X18534544Y-10747504D01*
X18535859Y-10747383D01*
X18537114Y-10746990D01*
X18546886Y-10746990D01*
X18548141Y-10747383D01*
X18549456Y-10747504D01*
X18549457Y-10747504D01*
X18552351Y-10747770D01*
X18555401Y-10748050D01*
X18555973Y-10748050D01*
X18574021Y-10748050D01*
X18592599Y-10748050D01*
X18595192Y-10747812D01*
X18598544Y-10747504D01*
X18598544Y-10747504D01*
X18599859Y-10747383D01*
X18601120Y-10746988D01*
X18601120Y-10746988D01*
X18613965Y-10742962D01*
X18616038Y-10742313D01*
X18630541Y-10733530D01*
X18642530Y-10721541D01*
X18651313Y-10707038D01*
X18656383Y-10690859D01*
X18656531Y-10689254D01*
X18656998Y-10684169D01*
X18657050Y-10683599D01*
X18657050Y-10668000D01*
X18657050Y-10652971D01*
X18657050Y-10652401D01*
X18656383Y-10645141D01*
X18655787Y-10643237D01*
X18651762Y-10630394D01*
X18651313Y-10628962D01*
X18642530Y-10614459D01*
X18630541Y-10602470D01*
X18616038Y-10593687D01*
X18599859Y-10588617D01*
X18598544Y-10588496D01*
X18598544Y-10588496D01*
X18597161Y-10588369D01*
X18592599Y-10587950D01*
X18592028Y-10587950D01*
X18573979Y-10587950D01*
X18555401Y-10587950D01*
X18552808Y-10588188D01*
X18549456Y-10588496D01*
X18549456Y-10588496D01*
X18548141Y-10588617D01*
X18546886Y-10589010D01*
X18537114Y-10589010D01*
X18535859Y-10588617D01*
X18534544Y-10588496D01*
X18534543Y-10588496D01*
X18531649Y-10588230D01*
X18528599Y-10587950D01*
X18528028Y-10587950D01*
X18509979Y-10587950D01*
X18491401Y-10587950D01*
X18488808Y-10588188D01*
X18485456Y-10588496D01*
X18485456Y-10588496D01*
X18484141Y-10588617D01*
X18482880Y-10589012D01*
X18482880Y-10589012D01*
X18478000Y-10590542D01*
X18467962Y-10593687D01*
X18453459Y-10602470D01*
X18441470Y-10614459D01*
X18432687Y-10628962D01*
X18427617Y-10645141D01*
X18426950Y-10652401D01*
X18426950Y-10652973D01*
X15024050Y-10652973D01*
X15024050Y-10613064D01*
X15022504Y-10601324D01*
X15017404Y-10589010D01*
X15017078Y-10588224D01*
X15017078Y-10588224D01*
X15016454Y-10586716D01*
X15015460Y-10585421D01*
X15015460Y-10585421D01*
X15007822Y-10575467D01*
X15006828Y-10574172D01*
X15005533Y-10573178D01*
X14995579Y-10565540D01*
X14995579Y-10565540D01*
X14994284Y-10564546D01*
X14992776Y-10563922D01*
X14992776Y-10563922D01*
X14987740Y-10561836D01*
X14979676Y-10558496D01*
X14978058Y-10558283D01*
X14978058Y-10558283D01*
X14974707Y-10557841D01*
X14967936Y-10556950D01*
X14864013Y-10556950D01*
X14760064Y-10556950D01*
X14759256Y-10557057D01*
X14759256Y-10557057D01*
X14754984Y-10557619D01*
X14748324Y-10558496D01*
X14746816Y-10559120D01*
X14735224Y-10563922D01*
X14735224Y-10563922D01*
X14733716Y-10564546D01*
X14732421Y-10565540D01*
X14732421Y-10565540D01*
X14722467Y-10573178D01*
X14721172Y-10574172D01*
X14720178Y-10575467D01*
X14712540Y-10585421D01*
X14712540Y-10585421D01*
X14711546Y-10586716D01*
X14710922Y-10588224D01*
X14710922Y-10588224D01*
X14710596Y-10589010D01*
X14705496Y-10601324D01*
X14705283Y-10602942D01*
X14705283Y-10602942D01*
X14704841Y-10606293D01*
X14703950Y-10613064D01*
X14703950Y-10770936D01*
X14704056Y-10771744D01*
X14704056Y-10771744D01*
X14704358Y-10774033D01*
X14705496Y-10782676D01*
X14706120Y-10784184D01*
X14706120Y-10784184D01*
X14711546Y-10797284D01*
X14711192Y-10797431D01*
X14713337Y-10803752D01*
X14712701Y-10813447D01*
X14711376Y-10816645D01*
X14711546Y-10816716D01*
X14705496Y-10831324D01*
X14705283Y-10832942D01*
X14705283Y-10832942D01*
X14705133Y-10834079D01*
X14703950Y-10843064D01*
X14703950Y-11000936D01*
X14705496Y-11012676D01*
X14706666Y-11015502D01*
X14711546Y-11027284D01*
X14711192Y-11027431D01*
X14713337Y-11033752D01*
X14712701Y-11043447D01*
X14711376Y-11046645D01*
X14711546Y-11046716D01*
X14705496Y-11061324D01*
X14705283Y-11062942D01*
X14705283Y-11062942D01*
X14705078Y-11064496D01*
X14703950Y-11073064D01*
X13522050Y-11073064D01*
X13522050Y-10918444D01*
X13824496Y-10918444D01*
X13825869Y-10942256D01*
X13831113Y-10965525D01*
X13831497Y-10966471D01*
X13839105Y-10985205D01*
X13840087Y-10987624D01*
X13840620Y-10988495D01*
X13840621Y-10988495D01*
X13848244Y-11000936D01*
X13852549Y-11007961D01*
X13868166Y-11025989D01*
X13875944Y-11032447D01*
X13884528Y-11039573D01*
X13886518Y-11041225D01*
X13907111Y-11053259D01*
X13908065Y-11053624D01*
X13908066Y-11053624D01*
X13928439Y-11061403D01*
X13928439Y-11061404D01*
X13929394Y-11061768D01*
X13940723Y-11064073D01*
X13951765Y-11066320D01*
X13951765Y-11066320D01*
X13952767Y-11066523D01*
X13963157Y-11066904D01*
X13975581Y-11067360D01*
X13975582Y-11067360D01*
X13976602Y-11067397D01*
X13977616Y-11067268D01*
X13977616Y-11067268D01*
X13999248Y-11064496D01*
X13999248Y-11064496D01*
X14000261Y-11064367D01*
X14023107Y-11057513D01*
X14044526Y-11047019D01*
X14063944Y-11033168D01*
X14080840Y-11016332D01*
X14094758Y-10996962D01*
X14105326Y-10975580D01*
X14111102Y-10956569D01*
X14111963Y-10953736D01*
X14111963Y-10953735D01*
X14112260Y-10952758D01*
X14115373Y-10929110D01*
X14115547Y-10922000D01*
X14113593Y-10898228D01*
X14110676Y-10886617D01*
X14108031Y-10876087D01*
X14108031Y-10876086D01*
X14107782Y-10875095D01*
X14098271Y-10853222D01*
X14085315Y-10833195D01*
X14070256Y-10816645D01*
X14069950Y-10816309D01*
X14069950Y-10816309D01*
X14069263Y-10815554D01*
X14067936Y-10814506D01*
X14061633Y-10807112D01*
X14058638Y-10797870D01*
X14059409Y-10788185D01*
X14063827Y-10779532D01*
X14065792Y-10777327D01*
X14066349Y-10776772D01*
X14080840Y-10762332D01*
X14094758Y-10742962D01*
X14105326Y-10721580D01*
X14110903Y-10703224D01*
X14111963Y-10699736D01*
X14111963Y-10699735D01*
X14112260Y-10698758D01*
X14114181Y-10684167D01*
X14115287Y-10675766D01*
X14115287Y-10675766D01*
X14115373Y-10675110D01*
X14115448Y-10672057D01*
X14115531Y-10668663D01*
X14115547Y-10668000D01*
X14113593Y-10644228D01*
X14109435Y-10627677D01*
X14108031Y-10622087D01*
X14108031Y-10622086D01*
X14107782Y-10621095D01*
X14098271Y-10599222D01*
X14085315Y-10579195D01*
X14069263Y-10561554D01*
X14067936Y-10560506D01*
X14061633Y-10553112D01*
X14058638Y-10543870D01*
X14059409Y-10534185D01*
X14063827Y-10525532D01*
X14065792Y-10523327D01*
X14080116Y-10509053D01*
X14080116Y-10509053D01*
X14080840Y-10508332D01*
X14094758Y-10488962D01*
X14105326Y-10467580D01*
X14112260Y-10444758D01*
X14114350Y-10428880D01*
X14115287Y-10421766D01*
X14115287Y-10421766D01*
X14115373Y-10421110D01*
X14115547Y-10414000D01*
X14113593Y-10390228D01*
X14108718Y-10370822D01*
X14108031Y-10368087D01*
X14108031Y-10368086D01*
X14107782Y-10367095D01*
X14101332Y-10352260D01*
X14098679Y-10346159D01*
X14098679Y-10346159D01*
X14098271Y-10345222D01*
X14085315Y-10325195D01*
X14084107Y-10323867D01*
X15561838Y-10323867D01*
X15563343Y-10339639D01*
X15563676Y-10340775D01*
X15563676Y-10340775D01*
X15567131Y-10352550D01*
X15569297Y-10359935D01*
X15569840Y-10360989D01*
X15569840Y-10360989D01*
X15578440Y-10377687D01*
X15578440Y-10377687D01*
X15578982Y-10378740D01*
X15579714Y-10379672D01*
X15588806Y-10391247D01*
X15592048Y-10395374D01*
X15592943Y-10396150D01*
X15592943Y-10396151D01*
X15607129Y-10408460D01*
X15608024Y-10409237D01*
X15626333Y-10419829D01*
X15646315Y-10426768D01*
X15658589Y-10428548D01*
X15666075Y-10429633D01*
X15666075Y-10429633D01*
X15667248Y-10429803D01*
X15668432Y-10429749D01*
X15668432Y-10429749D01*
X15687195Y-10428880D01*
X15687195Y-10428880D01*
X15688378Y-10428825D01*
X15696208Y-10426938D01*
X15707789Y-10424147D01*
X15707789Y-10424147D01*
X15708941Y-10423870D01*
X15710020Y-10423379D01*
X15710020Y-10423379D01*
X15727118Y-10415605D01*
X15727118Y-10415605D01*
X15728197Y-10415115D01*
X15737577Y-10408460D01*
X15744482Y-10403562D01*
X15744483Y-10403562D01*
X15745449Y-10402877D01*
X15746268Y-10402021D01*
X15746269Y-10402021D01*
X15757557Y-10390228D01*
X15760076Y-10387597D01*
X15771550Y-10369827D01*
X15779457Y-10350208D01*
X15783511Y-10329448D01*
X15783538Y-10328892D01*
X15783538Y-10211697D01*
X15782033Y-10195925D01*
X15781700Y-10194789D01*
X15776412Y-10176766D01*
X15776412Y-10176765D01*
X15776079Y-10175629D01*
X15771691Y-10167110D01*
X15768030Y-10160000D01*
X16404497Y-10160000D01*
X16406473Y-10185107D01*
X16412352Y-10209595D01*
X16421990Y-10232863D01*
X16435149Y-10254336D01*
X16451505Y-10273486D01*
X16470655Y-10289842D01*
X16492128Y-10303001D01*
X16515396Y-10312639D01*
X16539884Y-10318518D01*
X16558705Y-10319999D01*
X16646207Y-10319999D01*
X16665028Y-10318518D01*
X16689516Y-10312639D01*
X16712784Y-10303001D01*
X16734257Y-10289842D01*
X16753407Y-10273486D01*
X16769763Y-10254336D01*
X16782922Y-10232863D01*
X16792560Y-10209595D01*
X16798439Y-10185107D01*
X16800415Y-10160000D01*
X16798439Y-10134893D01*
X16792560Y-10110405D01*
X16782922Y-10087137D01*
X16769763Y-10065664D01*
X16769128Y-10064921D01*
X16769128Y-10064920D01*
X16755677Y-10049171D01*
X16750930Y-10040695D01*
X16749788Y-10031046D01*
X16752425Y-10021696D01*
X16755677Y-10016829D01*
X16769128Y-10001080D01*
X16769128Y-10001079D01*
X16769763Y-10000336D01*
X16775827Y-9990440D01*
X16782422Y-9983306D01*
X16791245Y-9979238D01*
X16797058Y-9978550D01*
X16837635Y-9978550D01*
X16847164Y-9980445D01*
X16855242Y-9985843D01*
X17002157Y-10132758D01*
X17007555Y-10140836D01*
X17009450Y-10150365D01*
X17009450Y-10274857D01*
X17009740Y-10279111D01*
X17010005Y-10280175D01*
X17010006Y-10280176D01*
X17012664Y-10290839D01*
X17014211Y-10297041D01*
X17022427Y-10313593D01*
X17034006Y-10327994D01*
X17048407Y-10339573D01*
X17064959Y-10347790D01*
X17066268Y-10348116D01*
X17081824Y-10351995D01*
X17081825Y-10351995D01*
X17082889Y-10352260D01*
X17083985Y-10352335D01*
X17083985Y-10352335D01*
X17084748Y-10352387D01*
X17087143Y-10352550D01*
X17176857Y-10352550D01*
X17179252Y-10352387D01*
X17180015Y-10352335D01*
X17180015Y-10352335D01*
X17181111Y-10352260D01*
X17182175Y-10351995D01*
X17182176Y-10351995D01*
X17197732Y-10348116D01*
X17199041Y-10347790D01*
X17215593Y-10339573D01*
X17229994Y-10327994D01*
X17241573Y-10313593D01*
X17249697Y-10297227D01*
X17255631Y-10289535D01*
X17264058Y-10284700D01*
X17273694Y-10283457D01*
X17283071Y-10285996D01*
X17290764Y-10291930D01*
X17294303Y-10297227D01*
X17302427Y-10313593D01*
X17314006Y-10327994D01*
X17328407Y-10339573D01*
X17344959Y-10347790D01*
X17346268Y-10348116D01*
X17361824Y-10351995D01*
X17361825Y-10351995D01*
X17362889Y-10352260D01*
X17363985Y-10352335D01*
X17363985Y-10352335D01*
X17364748Y-10352387D01*
X17367143Y-10352550D01*
X17456857Y-10352550D01*
X17459252Y-10352387D01*
X17460015Y-10352335D01*
X17460015Y-10352335D01*
X17461111Y-10352260D01*
X17462175Y-10351995D01*
X17462176Y-10351995D01*
X17477732Y-10348116D01*
X17479041Y-10347790D01*
X17495593Y-10339573D01*
X17509994Y-10327994D01*
X17521573Y-10313593D01*
X17529790Y-10297041D01*
X17531336Y-10290839D01*
X17533995Y-10280176D01*
X17533995Y-10280175D01*
X17534260Y-10279111D01*
X17534550Y-10274857D01*
X17534550Y-10257450D01*
X17536445Y-10247921D01*
X17541843Y-10239843D01*
X17549921Y-10234445D01*
X17559450Y-10232550D01*
X17697135Y-10232550D01*
X17705921Y-10234442D01*
X17705962Y-10234313D01*
X17707365Y-10234753D01*
X17707366Y-10234753D01*
X17722141Y-10239383D01*
X17723456Y-10239504D01*
X17723456Y-10239504D01*
X17724839Y-10239631D01*
X17729401Y-10240050D01*
X17729973Y-10240050D01*
X17748021Y-10240050D01*
X17766599Y-10240050D01*
X17769192Y-10239812D01*
X17772544Y-10239504D01*
X17772544Y-10239504D01*
X17773859Y-10239383D01*
X17775120Y-10238988D01*
X17775120Y-10238988D01*
X17787965Y-10234962D01*
X17790038Y-10234313D01*
X17804541Y-10225530D01*
X17816530Y-10213541D01*
X17825313Y-10199038D01*
X17830383Y-10182859D01*
X17830531Y-10181254D01*
X17830998Y-10176169D01*
X17831050Y-10175599D01*
X17831050Y-10160000D01*
X17831050Y-10144971D01*
X17831050Y-10144401D01*
X17830812Y-10141808D01*
X17830504Y-10138456D01*
X17830504Y-10138456D01*
X17830383Y-10137141D01*
X17829679Y-10134893D01*
X17825762Y-10122394D01*
X17825313Y-10120962D01*
X17816530Y-10106459D01*
X17804541Y-10094470D01*
X17790038Y-10085687D01*
X17773859Y-10080617D01*
X17772544Y-10080496D01*
X17772544Y-10080496D01*
X17771161Y-10080369D01*
X17766599Y-10079950D01*
X17766028Y-10079950D01*
X17747979Y-10079950D01*
X17729401Y-10079950D01*
X17726808Y-10080188D01*
X17723456Y-10080496D01*
X17723456Y-10080496D01*
X17722141Y-10080617D01*
X17720880Y-10081012D01*
X17720880Y-10081012D01*
X17715512Y-10082695D01*
X17707366Y-10085247D01*
X17707365Y-10085247D01*
X17705962Y-10085687D01*
X17705921Y-10085558D01*
X17697135Y-10087450D01*
X17559450Y-10087450D01*
X17549921Y-10085555D01*
X17541843Y-10080157D01*
X17536445Y-10072079D01*
X17534550Y-10062550D01*
X17534550Y-10045143D01*
X17534260Y-10040889D01*
X17533250Y-10036839D01*
X17530116Y-10024268D01*
X17529790Y-10022959D01*
X17521573Y-10006407D01*
X17509994Y-9992006D01*
X17495593Y-9980427D01*
X17479041Y-9972211D01*
X17476688Y-9971624D01*
X17462176Y-9968006D01*
X17462175Y-9968005D01*
X17461111Y-9967740D01*
X17460015Y-9967665D01*
X17460015Y-9967665D01*
X17459252Y-9967613D01*
X17456857Y-9967450D01*
X17367143Y-9967450D01*
X17364748Y-9967613D01*
X17363985Y-9967665D01*
X17363985Y-9967665D01*
X17362889Y-9967740D01*
X17361825Y-9968005D01*
X17361824Y-9968006D01*
X17347312Y-9971624D01*
X17344959Y-9972211D01*
X17328407Y-9980427D01*
X17314006Y-9992006D01*
X17302427Y-10006407D01*
X17300287Y-10010719D01*
X17294303Y-10022773D01*
X17288369Y-10030465D01*
X17279942Y-10035301D01*
X17270306Y-10036543D01*
X17260929Y-10034004D01*
X17253236Y-10028070D01*
X17249697Y-10022773D01*
X17243714Y-10010719D01*
X17241573Y-10006407D01*
X17229994Y-9992006D01*
X17215593Y-9980427D01*
X17199041Y-9972211D01*
X17196688Y-9971624D01*
X17182176Y-9968006D01*
X17182175Y-9968005D01*
X17181111Y-9967740D01*
X17180015Y-9967665D01*
X17180015Y-9967665D01*
X17179252Y-9967613D01*
X17176857Y-9967450D01*
X17087143Y-9967450D01*
X17084748Y-9967613D01*
X17083985Y-9967665D01*
X17083985Y-9967665D01*
X17082889Y-9967740D01*
X17081825Y-9968005D01*
X17081824Y-9968006D01*
X17064959Y-9972211D01*
X17064906Y-9971997D01*
X17057154Y-9973218D01*
X17047709Y-9970942D01*
X17040546Y-9965945D01*
X16934523Y-9859922D01*
X16932711Y-9857813D01*
X16932278Y-9857349D01*
X16931421Y-9856184D01*
X16927968Y-9853250D01*
X16927361Y-9852691D01*
X16927356Y-9852696D01*
X16926816Y-9852214D01*
X16926305Y-9851704D01*
X16925739Y-9851256D01*
X16925738Y-9851256D01*
X16924349Y-9850157D01*
X16923677Y-9849605D01*
X16919630Y-9846167D01*
X16918528Y-9845231D01*
X16917387Y-9844648D01*
X16916383Y-9843853D01*
X16910260Y-9840992D01*
X16909480Y-9840611D01*
X16904749Y-9838195D01*
X16904749Y-9838195D01*
X16903461Y-9837537D01*
X16902217Y-9837233D01*
X16901056Y-9836690D01*
X16894434Y-9835313D01*
X16893597Y-9835124D01*
X16887028Y-9833516D01*
X16885961Y-9833450D01*
X16885573Y-9833450D01*
X16885460Y-9833447D01*
X16884493Y-9833245D01*
X16883047Y-9833284D01*
X16883047Y-9833284D01*
X16877264Y-9833441D01*
X16876591Y-9833450D01*
X16797058Y-9833450D01*
X16787529Y-9831555D01*
X16779451Y-9826157D01*
X16775827Y-9821560D01*
X16769763Y-9811664D01*
X16769128Y-9810921D01*
X16769128Y-9810920D01*
X16755677Y-9795171D01*
X16750930Y-9786695D01*
X16749788Y-9777046D01*
X16752425Y-9767696D01*
X16755677Y-9762829D01*
X16769128Y-9747080D01*
X16769128Y-9747079D01*
X16769763Y-9746336D01*
X16775827Y-9736440D01*
X16782422Y-9729306D01*
X16791245Y-9725238D01*
X16797058Y-9724550D01*
X16870613Y-9724550D01*
X16873387Y-9724760D01*
X16874021Y-9724782D01*
X16875451Y-9724999D01*
X16879968Y-9724632D01*
X16880792Y-9724599D01*
X16880792Y-9724592D01*
X16881513Y-9724550D01*
X16882236Y-9724550D01*
X16884712Y-9724261D01*
X16885575Y-9724176D01*
X16890871Y-9723745D01*
X16890872Y-9723745D01*
X16892313Y-9723628D01*
X16893531Y-9723233D01*
X16894804Y-9723085D01*
X16901157Y-9720779D01*
X16901973Y-9720498D01*
X16908407Y-9718414D01*
X16909502Y-9717750D01*
X16910706Y-9717313D01*
X16916359Y-9713607D01*
X16917091Y-9713145D01*
X16921921Y-9710213D01*
X16921922Y-9710213D01*
X16922870Y-9709638D01*
X16923671Y-9708930D01*
X16923943Y-9708658D01*
X16924028Y-9708578D01*
X16924854Y-9708037D01*
X16929825Y-9702790D01*
X16930294Y-9702307D01*
X17040546Y-9592055D01*
X17048624Y-9586658D01*
X17058153Y-9584762D01*
X17064915Y-9585967D01*
X17064959Y-9585790D01*
X17081824Y-9589995D01*
X17081825Y-9589995D01*
X17082889Y-9590260D01*
X17083985Y-9590335D01*
X17083985Y-9590335D01*
X17084748Y-9590387D01*
X17087143Y-9590550D01*
X17176857Y-9590550D01*
X17179252Y-9590387D01*
X17180015Y-9590335D01*
X17180015Y-9590335D01*
X17181111Y-9590260D01*
X17182175Y-9589995D01*
X17182176Y-9589995D01*
X17197732Y-9586116D01*
X17199041Y-9585790D01*
X17215593Y-9577573D01*
X17229994Y-9565994D01*
X17241573Y-9551593D01*
X17249697Y-9535227D01*
X17255631Y-9527535D01*
X17264058Y-9522700D01*
X17273694Y-9521457D01*
X17283071Y-9523996D01*
X17290764Y-9529930D01*
X17294303Y-9535227D01*
X17302427Y-9551593D01*
X17314006Y-9565994D01*
X17328407Y-9577573D01*
X17344959Y-9585790D01*
X17346268Y-9586116D01*
X17361824Y-9589995D01*
X17361825Y-9589995D01*
X17362889Y-9590260D01*
X17363985Y-9590335D01*
X17363985Y-9590335D01*
X17364748Y-9590387D01*
X17367143Y-9590550D01*
X17456857Y-9590550D01*
X17459252Y-9590387D01*
X17460015Y-9590335D01*
X17460015Y-9590335D01*
X17461111Y-9590260D01*
X17462175Y-9589995D01*
X17462176Y-9589995D01*
X17477732Y-9586116D01*
X17479041Y-9585790D01*
X17495593Y-9577573D01*
X17509994Y-9565994D01*
X17521573Y-9551593D01*
X17529790Y-9535041D01*
X17532780Y-9523046D01*
X17533995Y-9518176D01*
X17533995Y-9518175D01*
X17534260Y-9517111D01*
X17534550Y-9512857D01*
X17534550Y-9495450D01*
X17536445Y-9485921D01*
X17541843Y-9477843D01*
X17549921Y-9472445D01*
X17559450Y-9470550D01*
X17697135Y-9470550D01*
X17705921Y-9472442D01*
X17705962Y-9472313D01*
X17707365Y-9472753D01*
X17707366Y-9472753D01*
X17722141Y-9477383D01*
X17723456Y-9477504D01*
X17723456Y-9477504D01*
X17724839Y-9477631D01*
X17729401Y-9478050D01*
X17729973Y-9478050D01*
X17748021Y-9478050D01*
X17766599Y-9478050D01*
X17769192Y-9477812D01*
X17772544Y-9477504D01*
X17772544Y-9477504D01*
X17773859Y-9477383D01*
X17775120Y-9476988D01*
X17775120Y-9476988D01*
X17781546Y-9474974D01*
X17790038Y-9472313D01*
X17804541Y-9463530D01*
X17816530Y-9451541D01*
X17825313Y-9437038D01*
X17830383Y-9420859D01*
X17830531Y-9419254D01*
X17830998Y-9414169D01*
X17831050Y-9413599D01*
X17831050Y-9398000D01*
X17831050Y-9382971D01*
X17831050Y-9382401D01*
X17830383Y-9375141D01*
X17829679Y-9372893D01*
X17825762Y-9360394D01*
X17825313Y-9358962D01*
X17816530Y-9344459D01*
X17804541Y-9332470D01*
X17790038Y-9323687D01*
X17773859Y-9318617D01*
X17772544Y-9318496D01*
X17772544Y-9318496D01*
X17771161Y-9318369D01*
X17766599Y-9317950D01*
X17766028Y-9317950D01*
X17747979Y-9317950D01*
X17729401Y-9317950D01*
X17726808Y-9318188D01*
X17723456Y-9318496D01*
X17723456Y-9318496D01*
X17722141Y-9318617D01*
X17720880Y-9319012D01*
X17720880Y-9319012D01*
X17715512Y-9320695D01*
X17707366Y-9323247D01*
X17707365Y-9323247D01*
X17705962Y-9323687D01*
X17705921Y-9323558D01*
X17697135Y-9325450D01*
X17559450Y-9325450D01*
X17549921Y-9323555D01*
X17541843Y-9318157D01*
X17536445Y-9310079D01*
X17534550Y-9300550D01*
X17534550Y-9283143D01*
X17534260Y-9278889D01*
X17533250Y-9274839D01*
X17530116Y-9262268D01*
X17529790Y-9260959D01*
X17521573Y-9244407D01*
X17509994Y-9230006D01*
X17495593Y-9218427D01*
X17479041Y-9210211D01*
X17475747Y-9209389D01*
X17462176Y-9206006D01*
X17462175Y-9206005D01*
X17461111Y-9205740D01*
X17460015Y-9205665D01*
X17460015Y-9205665D01*
X17459252Y-9205613D01*
X17456857Y-9205450D01*
X17367143Y-9205450D01*
X17364748Y-9205613D01*
X17363985Y-9205665D01*
X17363985Y-9205665D01*
X17362889Y-9205740D01*
X17361825Y-9206005D01*
X17361824Y-9206006D01*
X17348253Y-9209389D01*
X17344959Y-9210211D01*
X17328407Y-9218427D01*
X17314006Y-9230006D01*
X17302427Y-9244407D01*
X17301827Y-9245616D01*
X17294303Y-9260773D01*
X17288369Y-9268465D01*
X17279942Y-9273301D01*
X17270306Y-9274543D01*
X17260929Y-9272004D01*
X17253236Y-9266070D01*
X17249697Y-9260773D01*
X17242173Y-9245616D01*
X17241573Y-9244407D01*
X17229994Y-9230006D01*
X17215593Y-9218427D01*
X17199041Y-9210211D01*
X17195747Y-9209389D01*
X17182176Y-9206006D01*
X17182175Y-9206005D01*
X17181111Y-9205740D01*
X17180015Y-9205665D01*
X17180015Y-9205665D01*
X17179252Y-9205613D01*
X17176857Y-9205450D01*
X17108726Y-9205450D01*
X17099197Y-9203555D01*
X17091119Y-9198157D01*
X17085722Y-9190079D01*
X17083826Y-9180550D01*
X17085388Y-9171870D01*
X17085805Y-9170750D01*
X17086463Y-9169461D01*
X17086767Y-9168217D01*
X17087310Y-9167056D01*
X17087604Y-9165641D01*
X17087604Y-9165640D01*
X17088686Y-9160439D01*
X17088878Y-9159591D01*
X17090220Y-9154106D01*
X17090484Y-9153028D01*
X17090550Y-9151961D01*
X17090550Y-9151573D01*
X17090554Y-9151461D01*
X17090755Y-9150493D01*
X17090559Y-9143266D01*
X17090550Y-9142592D01*
X17090550Y-8982450D01*
X17092445Y-8972921D01*
X17097843Y-8964843D01*
X17105921Y-8959445D01*
X17115450Y-8957550D01*
X17176857Y-8957550D01*
X17179252Y-8957387D01*
X17180015Y-8957335D01*
X17180015Y-8957335D01*
X17181111Y-8957260D01*
X17182175Y-8956995D01*
X17182176Y-8956995D01*
X17197732Y-8953116D01*
X17199041Y-8952790D01*
X17215593Y-8944573D01*
X17229994Y-8932994D01*
X17241573Y-8918593D01*
X17249697Y-8902227D01*
X17255631Y-8894535D01*
X17264058Y-8889700D01*
X17273694Y-8888457D01*
X17283071Y-8890996D01*
X17290764Y-8896930D01*
X17294303Y-8902227D01*
X17302427Y-8918593D01*
X17314006Y-8932994D01*
X17328407Y-8944573D01*
X17344959Y-8952790D01*
X17346268Y-8953116D01*
X17361824Y-8956995D01*
X17361825Y-8956995D01*
X17362889Y-8957260D01*
X17363985Y-8957335D01*
X17363985Y-8957335D01*
X17364748Y-8957387D01*
X17367143Y-8957550D01*
X17456857Y-8957550D01*
X17459252Y-8957387D01*
X17460015Y-8957335D01*
X17460015Y-8957335D01*
X17461111Y-8957260D01*
X17462175Y-8956995D01*
X17462176Y-8956995D01*
X17477732Y-8953116D01*
X17479041Y-8952790D01*
X17495593Y-8944573D01*
X17509994Y-8932994D01*
X17521573Y-8918593D01*
X17529790Y-8902041D01*
X17532548Y-8890976D01*
X17533995Y-8885176D01*
X17533995Y-8885175D01*
X17534260Y-8884111D01*
X17534550Y-8879857D01*
X17534550Y-8862450D01*
X17536445Y-8852921D01*
X17541843Y-8844843D01*
X17549921Y-8839445D01*
X17559450Y-8837550D01*
X17697135Y-8837550D01*
X17705921Y-8839442D01*
X17705962Y-8839313D01*
X17707365Y-8839753D01*
X17707366Y-8839753D01*
X17722141Y-8844383D01*
X17723456Y-8844504D01*
X17723456Y-8844504D01*
X17724839Y-8844631D01*
X17729401Y-8845050D01*
X17729973Y-8845050D01*
X17748021Y-8845050D01*
X17766599Y-8845050D01*
X17769192Y-8844812D01*
X17772544Y-8844504D01*
X17772544Y-8844504D01*
X17773859Y-8844383D01*
X17775120Y-8843988D01*
X17775120Y-8843988D01*
X17785029Y-8840883D01*
X17790038Y-8839313D01*
X17804541Y-8830530D01*
X17816530Y-8818541D01*
X17825313Y-8804038D01*
X17830383Y-8787859D01*
X17830530Y-8786256D01*
X17830875Y-8782506D01*
X17831050Y-8780599D01*
X17831050Y-8749401D01*
X17830812Y-8746808D01*
X17830504Y-8743456D01*
X17830504Y-8743456D01*
X17830383Y-8742141D01*
X17829709Y-8739989D01*
X17827659Y-8733450D01*
X17825313Y-8725962D01*
X17816530Y-8711459D01*
X17804541Y-8699470D01*
X17790038Y-8690687D01*
X17773859Y-8685617D01*
X17772544Y-8685496D01*
X17772544Y-8685496D01*
X17771161Y-8685369D01*
X17766599Y-8684950D01*
X17766028Y-8684950D01*
X17747979Y-8684950D01*
X17729401Y-8684950D01*
X17726808Y-8685188D01*
X17723456Y-8685496D01*
X17723456Y-8685496D01*
X17722141Y-8685617D01*
X17720880Y-8686012D01*
X17720880Y-8686012D01*
X17714454Y-8688026D01*
X17707366Y-8690247D01*
X17707365Y-8690247D01*
X17705962Y-8690687D01*
X17705921Y-8690558D01*
X17697135Y-8692450D01*
X17559450Y-8692450D01*
X17549921Y-8690555D01*
X17541843Y-8685157D01*
X17536445Y-8677079D01*
X17534550Y-8667550D01*
X17534550Y-8650143D01*
X17534260Y-8645889D01*
X17533740Y-8643805D01*
X17530116Y-8629268D01*
X17529790Y-8627959D01*
X17521573Y-8611407D01*
X17509994Y-8597006D01*
X17495593Y-8585427D01*
X17479041Y-8577211D01*
X17477732Y-8576884D01*
X17462176Y-8573006D01*
X17462175Y-8573005D01*
X17461111Y-8572740D01*
X17460015Y-8572665D01*
X17460015Y-8572665D01*
X17459252Y-8572613D01*
X17456857Y-8572450D01*
X17367143Y-8572450D01*
X17364748Y-8572613D01*
X17363985Y-8572665D01*
X17363985Y-8572665D01*
X17362889Y-8572740D01*
X17361825Y-8573005D01*
X17361824Y-8573006D01*
X17346268Y-8576884D01*
X17344959Y-8577211D01*
X17328407Y-8585427D01*
X17314006Y-8597006D01*
X17302427Y-8611407D01*
X17298555Y-8619208D01*
X17294303Y-8627773D01*
X17288369Y-8635465D01*
X17279942Y-8640301D01*
X17270306Y-8641543D01*
X17260929Y-8639004D01*
X17253236Y-8633070D01*
X17249697Y-8627773D01*
X17245446Y-8619208D01*
X17241573Y-8611407D01*
X17229994Y-8597006D01*
X17215593Y-8585427D01*
X17199041Y-8577211D01*
X17197732Y-8576884D01*
X17182176Y-8573006D01*
X17182175Y-8573005D01*
X17181111Y-8572740D01*
X17180015Y-8572665D01*
X17180015Y-8572665D01*
X17179252Y-8572613D01*
X17176857Y-8572450D01*
X17087143Y-8572450D01*
X17084748Y-8572613D01*
X17083985Y-8572665D01*
X17083985Y-8572665D01*
X17082889Y-8572740D01*
X17081825Y-8573005D01*
X17081824Y-8573006D01*
X17066268Y-8576884D01*
X17064959Y-8577211D01*
X17048407Y-8585427D01*
X17034006Y-8597006D01*
X17022427Y-8611407D01*
X17014211Y-8627959D01*
X17013884Y-8629268D01*
X17010260Y-8643805D01*
X17009740Y-8645889D01*
X17009450Y-8650143D01*
X17009450Y-8774635D01*
X17007555Y-8784164D01*
X17002157Y-8792242D01*
X16971922Y-8822477D01*
X16969813Y-8824289D01*
X16969349Y-8824722D01*
X16968184Y-8825579D01*
X16967248Y-8826681D01*
X16965250Y-8829033D01*
X16964691Y-8829639D01*
X16964696Y-8829644D01*
X16964214Y-8830185D01*
X16963704Y-8830695D01*
X16963256Y-8831261D01*
X16963256Y-8831262D01*
X16962157Y-8832651D01*
X16961605Y-8833323D01*
X16957231Y-8838472D01*
X16956648Y-8839613D01*
X16955853Y-8840618D01*
X16953782Y-8845050D01*
X16952992Y-8846740D01*
X16952611Y-8847520D01*
X16949537Y-8853539D01*
X16949233Y-8854783D01*
X16948690Y-8855944D01*
X16947313Y-8862566D01*
X16947124Y-8863403D01*
X16945516Y-8869972D01*
X16945450Y-8871039D01*
X16945450Y-8871427D01*
X16945447Y-8871540D01*
X16945245Y-8872507D01*
X16945284Y-8873953D01*
X16945284Y-8873953D01*
X16945441Y-8879736D01*
X16945450Y-8880409D01*
X16945450Y-9103635D01*
X16943555Y-9113164D01*
X16938157Y-9121242D01*
X16829285Y-9230114D01*
X16821206Y-9235512D01*
X16811678Y-9237407D01*
X16802149Y-9235512D01*
X16794071Y-9230114D01*
X16788673Y-9222036D01*
X16786778Y-9212507D01*
X16788673Y-9202978D01*
X16790427Y-9198744D01*
X16792560Y-9193595D01*
X16798439Y-9169107D01*
X16800415Y-9144000D01*
X16798439Y-9118893D01*
X16792560Y-9094405D01*
X16782922Y-9071137D01*
X16769763Y-9049664D01*
X16769128Y-9048921D01*
X16769128Y-9048920D01*
X16755677Y-9033171D01*
X16750930Y-9024695D01*
X16749788Y-9015046D01*
X16752425Y-9005696D01*
X16755677Y-9000829D01*
X16769128Y-8985080D01*
X16769128Y-8985079D01*
X16769763Y-8984336D01*
X16782922Y-8962863D01*
X16792560Y-8939595D01*
X16797832Y-8917635D01*
X16798210Y-8916059D01*
X16798210Y-8916058D01*
X16798439Y-8915107D01*
X16800415Y-8890000D01*
X16798439Y-8864893D01*
X16792560Y-8840405D01*
X16782922Y-8817137D01*
X16769763Y-8795664D01*
X16769128Y-8794921D01*
X16769128Y-8794920D01*
X16755677Y-8779171D01*
X16750930Y-8770695D01*
X16749788Y-8761046D01*
X16752425Y-8751696D01*
X16755677Y-8746829D01*
X16769128Y-8731080D01*
X16769128Y-8731079D01*
X16769763Y-8730336D01*
X16782922Y-8708863D01*
X16792560Y-8685595D01*
X16798439Y-8661107D01*
X16800415Y-8636000D01*
X16798439Y-8610893D01*
X16792560Y-8586405D01*
X16782922Y-8563137D01*
X16769763Y-8541664D01*
X16753407Y-8522514D01*
X16734257Y-8506158D01*
X16712784Y-8492999D01*
X16689516Y-8483361D01*
X16665028Y-8477482D01*
X16646207Y-8476001D01*
X16558705Y-8476001D01*
X16539884Y-8477482D01*
X16515396Y-8483361D01*
X16492128Y-8492999D01*
X16470655Y-8506158D01*
X16451505Y-8522514D01*
X16435149Y-8541664D01*
X16421990Y-8563137D01*
X16412352Y-8586405D01*
X16406473Y-8610893D01*
X16404497Y-8636000D01*
X16406473Y-8661107D01*
X16412352Y-8685595D01*
X16421990Y-8708863D01*
X16435149Y-8730336D01*
X16435784Y-8731079D01*
X16435784Y-8731080D01*
X16449235Y-8746829D01*
X16453982Y-8755306D01*
X16455124Y-8764954D01*
X16452487Y-8774304D01*
X16449235Y-8779171D01*
X16435784Y-8794920D01*
X16435784Y-8794921D01*
X16435149Y-8795664D01*
X16421990Y-8817137D01*
X16412352Y-8840405D01*
X16406473Y-8864893D01*
X16404497Y-8890000D01*
X16406473Y-8915107D01*
X16406702Y-8916058D01*
X16406702Y-8916059D01*
X16407080Y-8917635D01*
X16412352Y-8939595D01*
X16421990Y-8962863D01*
X16435149Y-8984336D01*
X16435784Y-8985079D01*
X16435784Y-8985080D01*
X16449235Y-9000829D01*
X16453982Y-9009306D01*
X16455124Y-9018954D01*
X16452487Y-9028304D01*
X16449235Y-9033171D01*
X16435784Y-9048920D01*
X16435784Y-9048921D01*
X16435149Y-9049664D01*
X16421990Y-9071137D01*
X16412352Y-9094405D01*
X16406473Y-9118893D01*
X16404497Y-9144000D01*
X16406473Y-9169107D01*
X16412352Y-9193595D01*
X16421990Y-9216863D01*
X16435149Y-9238336D01*
X16435784Y-9239079D01*
X16435784Y-9239080D01*
X16449235Y-9254829D01*
X16453982Y-9263306D01*
X16455124Y-9272954D01*
X16452487Y-9282304D01*
X16449235Y-9287171D01*
X16435784Y-9302920D01*
X16435784Y-9302921D01*
X16435149Y-9303664D01*
X16421990Y-9325137D01*
X16412352Y-9348405D01*
X16406473Y-9372893D01*
X16404497Y-9398000D01*
X16406473Y-9423107D01*
X16412352Y-9447595D01*
X16421990Y-9470863D01*
X16435149Y-9492336D01*
X16435784Y-9493079D01*
X16435784Y-9493080D01*
X16449235Y-9508829D01*
X16453982Y-9517306D01*
X16455124Y-9526954D01*
X16452487Y-9536304D01*
X16449235Y-9541171D01*
X16435784Y-9556920D01*
X16435784Y-9556921D01*
X16435149Y-9557664D01*
X16421990Y-9579137D01*
X16412352Y-9602405D01*
X16406473Y-9626893D01*
X16404497Y-9652000D01*
X16406473Y-9677107D01*
X16412352Y-9701595D01*
X16421990Y-9724863D01*
X16435149Y-9746336D01*
X16435784Y-9747079D01*
X16435784Y-9747080D01*
X16449235Y-9762829D01*
X16453982Y-9771306D01*
X16455124Y-9780954D01*
X16452487Y-9790304D01*
X16449235Y-9795171D01*
X16435784Y-9810920D01*
X16435784Y-9810921D01*
X16435149Y-9811664D01*
X16421990Y-9833137D01*
X16412352Y-9856405D01*
X16406473Y-9880893D01*
X16404497Y-9906000D01*
X16406473Y-9931107D01*
X16412352Y-9955595D01*
X16421990Y-9978863D01*
X16435149Y-10000336D01*
X16435784Y-10001079D01*
X16435784Y-10001080D01*
X16449235Y-10016829D01*
X16453982Y-10025306D01*
X16455124Y-10034954D01*
X16452487Y-10044304D01*
X16449235Y-10049171D01*
X16435784Y-10064920D01*
X16435784Y-10064921D01*
X16435149Y-10065664D01*
X16421990Y-10087137D01*
X16412352Y-10110405D01*
X16406473Y-10134893D01*
X16404497Y-10160000D01*
X15768030Y-10160000D01*
X15766936Y-10157877D01*
X15766936Y-10157877D01*
X15766394Y-10156824D01*
X15765297Y-10155427D01*
X15754059Y-10141122D01*
X15754059Y-10141122D01*
X15753328Y-10140190D01*
X15752433Y-10139414D01*
X15752433Y-10139413D01*
X15738247Y-10127104D01*
X15738247Y-10127104D01*
X15737352Y-10126327D01*
X15719043Y-10115735D01*
X15699061Y-10108796D01*
X15684495Y-10106684D01*
X15679301Y-10105931D01*
X15679301Y-10105931D01*
X15678128Y-10105761D01*
X15676944Y-10105816D01*
X15676943Y-10105816D01*
X15658181Y-10106684D01*
X15658181Y-10106684D01*
X15656998Y-10106739D01*
X15655846Y-10107016D01*
X15655846Y-10107016D01*
X15637587Y-10111417D01*
X15637587Y-10111417D01*
X15636435Y-10111695D01*
X15635356Y-10112185D01*
X15635356Y-10112185D01*
X15618258Y-10119959D01*
X15618258Y-10119959D01*
X15617179Y-10120449D01*
X15610407Y-10125253D01*
X15600893Y-10132002D01*
X15600893Y-10132002D01*
X15599927Y-10132687D01*
X15599108Y-10133543D01*
X15599107Y-10133543D01*
X15595664Y-10137141D01*
X15585300Y-10147967D01*
X15573826Y-10165737D01*
X15565919Y-10185356D01*
X15561865Y-10206116D01*
X15561838Y-10206672D01*
X15561838Y-10323867D01*
X14084107Y-10323867D01*
X14069263Y-10307554D01*
X14067936Y-10306506D01*
X14061633Y-10299112D01*
X14058638Y-10289870D01*
X14059409Y-10280185D01*
X14063827Y-10271532D01*
X14065792Y-10269327D01*
X14080116Y-10255053D01*
X14080116Y-10255053D01*
X14080840Y-10254332D01*
X14094758Y-10234962D01*
X14105326Y-10213580D01*
X14109486Y-10199888D01*
X14114070Y-10191321D01*
X14121582Y-10185161D01*
X14130881Y-10182345D01*
X14140549Y-10183301D01*
X14149115Y-10187885D01*
X14150918Y-10189519D01*
X14167477Y-10206078D01*
X14169289Y-10208187D01*
X14169722Y-10208651D01*
X14170579Y-10209816D01*
X14171681Y-10210752D01*
X14174032Y-10212750D01*
X14174639Y-10213309D01*
X14174644Y-10213304D01*
X14175184Y-10213786D01*
X14175695Y-10214296D01*
X14176261Y-10214744D01*
X14177650Y-10215843D01*
X14178321Y-10216394D01*
X14182369Y-10219832D01*
X14183472Y-10220769D01*
X14184613Y-10221352D01*
X14185617Y-10222147D01*
X14191744Y-10225010D01*
X14192517Y-10225388D01*
X14198539Y-10228463D01*
X14199783Y-10228767D01*
X14200944Y-10229310D01*
X14202359Y-10229604D01*
X14202360Y-10229604D01*
X14207561Y-10230686D01*
X14208408Y-10230878D01*
X14214972Y-10232484D01*
X14216039Y-10232550D01*
X14216427Y-10232550D01*
X14216539Y-10232554D01*
X14217507Y-10232755D01*
X14218953Y-10232716D01*
X14218953Y-10232716D01*
X14224734Y-10232559D01*
X14225408Y-10232550D01*
X14791398Y-10232550D01*
X14800927Y-10234445D01*
X14809005Y-10239843D01*
X14812628Y-10244440D01*
X14818693Y-10254336D01*
X14835049Y-10273486D01*
X14854199Y-10289842D01*
X14875672Y-10303001D01*
X14898940Y-10312639D01*
X14923428Y-10318518D01*
X14942249Y-10319999D01*
X15029751Y-10319999D01*
X15048572Y-10318518D01*
X15073060Y-10312639D01*
X15096328Y-10303001D01*
X15117801Y-10289842D01*
X15136951Y-10273486D01*
X15153307Y-10254336D01*
X15166466Y-10232863D01*
X15176104Y-10209595D01*
X15181983Y-10185107D01*
X15183959Y-10160000D01*
X15181983Y-10134893D01*
X15176104Y-10110405D01*
X15166466Y-10087137D01*
X15153307Y-10065664D01*
X15152672Y-10064921D01*
X15152672Y-10064920D01*
X15139221Y-10049171D01*
X15134474Y-10040695D01*
X15133332Y-10031046D01*
X15135969Y-10021696D01*
X15139221Y-10016829D01*
X15152672Y-10001080D01*
X15152672Y-10001079D01*
X15153307Y-10000336D01*
X15166466Y-9978863D01*
X15176104Y-9955595D01*
X15181983Y-9931107D01*
X15183959Y-9906000D01*
X15181983Y-9880893D01*
X15176104Y-9856405D01*
X15166466Y-9833137D01*
X15153307Y-9811664D01*
X15152672Y-9810921D01*
X15152672Y-9810920D01*
X15139221Y-9795171D01*
X15134474Y-9786695D01*
X15133332Y-9777046D01*
X15135969Y-9767696D01*
X15139221Y-9762829D01*
X15152672Y-9747080D01*
X15152672Y-9747079D01*
X15153307Y-9746336D01*
X15166466Y-9724863D01*
X15176104Y-9701595D01*
X15181983Y-9677107D01*
X15183959Y-9652000D01*
X15181983Y-9626893D01*
X15176104Y-9602405D01*
X15166466Y-9579137D01*
X15153307Y-9557664D01*
X15152672Y-9556921D01*
X15152672Y-9556920D01*
X15139221Y-9541171D01*
X15134474Y-9532695D01*
X15133332Y-9523046D01*
X15135969Y-9513696D01*
X15139221Y-9508829D01*
X15152672Y-9493080D01*
X15152672Y-9493079D01*
X15153307Y-9492336D01*
X15166466Y-9470863D01*
X15176104Y-9447595D01*
X15181983Y-9423107D01*
X15183959Y-9398000D01*
X15181983Y-9372893D01*
X15176104Y-9348405D01*
X15166466Y-9325137D01*
X15153307Y-9303664D01*
X15152672Y-9302921D01*
X15152672Y-9302920D01*
X15139221Y-9287171D01*
X15134474Y-9278695D01*
X15133332Y-9269046D01*
X15135969Y-9259696D01*
X15139221Y-9254829D01*
X15152672Y-9239080D01*
X15152672Y-9239079D01*
X15153307Y-9238336D01*
X15166466Y-9216863D01*
X15176104Y-9193595D01*
X15181983Y-9169107D01*
X15183959Y-9144000D01*
X15181983Y-9118893D01*
X15176104Y-9094405D01*
X15166466Y-9071137D01*
X15153307Y-9049664D01*
X15152672Y-9048921D01*
X15152672Y-9048920D01*
X15139221Y-9033171D01*
X15134474Y-9024695D01*
X15133332Y-9015046D01*
X15135969Y-9005696D01*
X15139221Y-9000829D01*
X15152672Y-8985080D01*
X15152672Y-8985079D01*
X15153307Y-8984336D01*
X15166466Y-8962863D01*
X15176104Y-8939595D01*
X15181376Y-8917635D01*
X15181754Y-8916059D01*
X15181754Y-8916058D01*
X15181983Y-8915107D01*
X15183959Y-8890000D01*
X15181983Y-8864893D01*
X15176104Y-8840405D01*
X15166940Y-8818282D01*
X15554906Y-8818282D01*
X15555181Y-8822477D01*
X15556234Y-8838535D01*
X15556315Y-8839776D01*
X15556596Y-8840882D01*
X15556596Y-8840883D01*
X15560781Y-8857360D01*
X15561617Y-8860653D01*
X15570635Y-8880214D01*
X15571294Y-8881146D01*
X15580756Y-8894535D01*
X15583067Y-8897805D01*
X15583884Y-8898601D01*
X15583884Y-8898601D01*
X15597678Y-8912038D01*
X15597678Y-8912038D01*
X15598496Y-8912835D01*
X15616406Y-8924802D01*
X15624415Y-8928243D01*
X15635147Y-8932854D01*
X15635148Y-8932854D01*
X15636196Y-8933305D01*
X15657205Y-8938058D01*
X15668459Y-8938501D01*
X15677587Y-8938859D01*
X15677588Y-8938859D01*
X15678728Y-8938904D01*
X15700045Y-8935813D01*
X15720442Y-8928890D01*
X15721438Y-8928332D01*
X15721438Y-8928332D01*
X15738240Y-8918922D01*
X15739235Y-8918365D01*
X15743153Y-8915107D01*
X15754918Y-8905322D01*
X15755796Y-8904591D01*
X15767104Y-8890996D01*
X15768840Y-8888908D01*
X15768840Y-8888908D01*
X15769570Y-8888031D01*
X15770458Y-8886444D01*
X15777871Y-8873208D01*
X15784180Y-8865821D01*
X15792837Y-8861410D01*
X15802522Y-8860648D01*
X15811762Y-8863650D01*
X15819150Y-8869960D01*
X15822208Y-8874950D01*
X15824635Y-8880214D01*
X15825294Y-8881146D01*
X15834756Y-8894535D01*
X15837067Y-8897805D01*
X15837884Y-8898601D01*
X15837884Y-8898601D01*
X15851678Y-8912038D01*
X15851678Y-8912038D01*
X15852496Y-8912835D01*
X15870406Y-8924802D01*
X15878415Y-8928243D01*
X15889147Y-8932854D01*
X15889148Y-8932854D01*
X15890196Y-8933305D01*
X15911205Y-8938058D01*
X15922459Y-8938501D01*
X15931587Y-8938859D01*
X15931588Y-8938859D01*
X15932728Y-8938904D01*
X15954045Y-8935813D01*
X15974442Y-8928890D01*
X15975438Y-8928332D01*
X15975438Y-8928332D01*
X15992240Y-8918922D01*
X15993235Y-8918365D01*
X15997153Y-8915107D01*
X16008918Y-8905322D01*
X16009796Y-8904591D01*
X16021104Y-8890996D01*
X16022840Y-8888908D01*
X16022840Y-8888908D01*
X16023570Y-8888031D01*
X16027838Y-8880409D01*
X16033537Y-8870233D01*
X16033537Y-8870233D01*
X16034094Y-8869237D01*
X16036639Y-8861742D01*
X16038860Y-8855198D01*
X16041018Y-8848840D01*
X16044109Y-8827523D01*
X16044270Y-8821363D01*
X16042299Y-8799914D01*
X16038905Y-8787879D01*
X16036763Y-8780281D01*
X16036762Y-8780281D01*
X16036453Y-8779183D01*
X16035579Y-8777411D01*
X16029436Y-8764954D01*
X16026926Y-8759864D01*
X16014038Y-8742605D01*
X15998221Y-8727984D01*
X15980004Y-8716490D01*
X15979409Y-8716253D01*
X15971965Y-8710384D01*
X15967217Y-8701907D01*
X15966075Y-8692259D01*
X15968712Y-8682908D01*
X15974727Y-8675279D01*
X15978732Y-8672487D01*
X15992239Y-8664923D01*
X15992240Y-8664923D01*
X15993235Y-8664365D01*
X15997153Y-8661107D01*
X16008918Y-8651322D01*
X16009796Y-8650591D01*
X16019433Y-8639004D01*
X16022840Y-8634908D01*
X16022840Y-8634908D01*
X16023570Y-8634031D01*
X16026970Y-8627959D01*
X16033537Y-8616233D01*
X16033537Y-8616233D01*
X16034094Y-8615237D01*
X16035751Y-8610357D01*
X16040651Y-8595921D01*
X16041018Y-8594840D01*
X16044109Y-8573523D01*
X16044270Y-8567363D01*
X16042299Y-8545914D01*
X16038013Y-8530716D01*
X16036763Y-8526281D01*
X16036762Y-8526281D01*
X16036453Y-8525183D01*
X16035579Y-8523411D01*
X16031211Y-8514553D01*
X16026926Y-8505864D01*
X16014038Y-8488605D01*
X15998221Y-8473984D01*
X15989112Y-8468237D01*
X15980969Y-8463099D01*
X15980969Y-8463099D01*
X15980004Y-8462490D01*
X15978944Y-8462067D01*
X15978944Y-8462067D01*
X15962229Y-8455399D01*
X15959997Y-8454508D01*
X15952528Y-8453022D01*
X15939991Y-8450529D01*
X15939990Y-8450529D01*
X15938871Y-8450306D01*
X15928102Y-8450165D01*
X15918475Y-8450039D01*
X15918474Y-8450039D01*
X15917333Y-8450024D01*
X15916209Y-8450217D01*
X15916208Y-8450217D01*
X15897230Y-8453479D01*
X15896105Y-8453672D01*
X15895035Y-8454067D01*
X15895034Y-8454067D01*
X15876967Y-8460732D01*
X15876967Y-8460732D01*
X15875896Y-8461127D01*
X15857385Y-8472140D01*
X15841190Y-8486343D01*
X15838686Y-8489520D01*
X15831544Y-8498579D01*
X15827855Y-8503258D01*
X15827323Y-8504269D01*
X15821592Y-8515161D01*
X15815478Y-8522712D01*
X15806940Y-8527347D01*
X15797278Y-8528363D01*
X15787962Y-8525604D01*
X15780412Y-8519489D01*
X15777224Y-8514580D01*
X15773431Y-8506888D01*
X15773430Y-8506888D01*
X15772926Y-8505864D01*
X15760038Y-8488605D01*
X15744221Y-8473984D01*
X15735112Y-8468237D01*
X15726969Y-8463099D01*
X15726969Y-8463099D01*
X15726004Y-8462490D01*
X15724944Y-8462067D01*
X15724944Y-8462067D01*
X15708229Y-8455399D01*
X15705997Y-8454508D01*
X15698528Y-8453022D01*
X15685991Y-8450529D01*
X15685990Y-8450529D01*
X15684871Y-8450306D01*
X15674102Y-8450165D01*
X15664475Y-8450039D01*
X15664474Y-8450039D01*
X15663333Y-8450024D01*
X15662209Y-8450217D01*
X15662208Y-8450217D01*
X15643230Y-8453479D01*
X15642105Y-8453672D01*
X15641035Y-8454067D01*
X15641034Y-8454067D01*
X15622967Y-8460732D01*
X15622967Y-8460732D01*
X15621896Y-8461127D01*
X15603385Y-8472140D01*
X15587190Y-8486343D01*
X15584686Y-8489520D01*
X15577544Y-8498579D01*
X15573855Y-8503258D01*
X15573323Y-8504269D01*
X15570398Y-8509828D01*
X15563826Y-8522321D01*
X15557438Y-8542892D01*
X15556047Y-8554646D01*
X15555761Y-8557064D01*
X15554906Y-8564282D01*
X15556315Y-8585776D01*
X15556596Y-8586882D01*
X15556596Y-8586883D01*
X15559167Y-8597006D01*
X15561617Y-8606653D01*
X15570635Y-8626214D01*
X15571294Y-8627146D01*
X15581469Y-8641543D01*
X15583067Y-8643805D01*
X15583884Y-8644601D01*
X15583884Y-8644601D01*
X15597678Y-8658038D01*
X15597678Y-8658038D01*
X15598496Y-8658835D01*
X15616406Y-8670802D01*
X15617955Y-8671468D01*
X15618349Y-8671738D01*
X15618458Y-8671797D01*
X15618452Y-8671809D01*
X15625962Y-8676970D01*
X15631254Y-8685118D01*
X15633024Y-8694671D01*
X15631005Y-8704174D01*
X15625502Y-8712181D01*
X15620858Y-8715745D01*
X15603385Y-8726140D01*
X15587190Y-8740343D01*
X15582077Y-8746829D01*
X15576228Y-8754248D01*
X15573855Y-8757258D01*
X15563826Y-8776321D01*
X15557438Y-8796892D01*
X15554906Y-8818282D01*
X15166940Y-8818282D01*
X15166466Y-8817137D01*
X15153307Y-8795664D01*
X15152672Y-8794921D01*
X15152672Y-8794920D01*
X15139221Y-8779171D01*
X15134474Y-8770695D01*
X15133332Y-8761046D01*
X15135969Y-8751696D01*
X15139221Y-8746829D01*
X15152672Y-8731080D01*
X15152672Y-8731079D01*
X15153307Y-8730336D01*
X15166466Y-8708863D01*
X15176104Y-8685595D01*
X15181983Y-8661107D01*
X15183959Y-8636000D01*
X15181983Y-8610893D01*
X15176104Y-8586405D01*
X15166466Y-8563137D01*
X15153307Y-8541664D01*
X15136951Y-8522514D01*
X15117801Y-8506158D01*
X15096328Y-8492999D01*
X15073060Y-8483361D01*
X15048572Y-8477482D01*
X15029751Y-8476001D01*
X14942249Y-8476001D01*
X14923428Y-8477482D01*
X14898940Y-8483361D01*
X14875672Y-8492999D01*
X14854199Y-8506158D01*
X14835049Y-8522514D01*
X14818693Y-8541664D01*
X14814459Y-8548573D01*
X14812629Y-8551560D01*
X14806034Y-8558695D01*
X14797211Y-8562762D01*
X14791398Y-8563450D01*
X14772365Y-8563450D01*
X14762836Y-8561555D01*
X14754758Y-8556157D01*
X14534523Y-8335922D01*
X14532711Y-8333813D01*
X14532278Y-8333349D01*
X14531421Y-8332184D01*
X14527967Y-8329250D01*
X14527361Y-8328691D01*
X14527356Y-8328696D01*
X14526815Y-8328214D01*
X14526305Y-8327704D01*
X14525739Y-8327256D01*
X14525738Y-8327255D01*
X14524349Y-8326156D01*
X14523677Y-8325605D01*
X14519630Y-8322167D01*
X14518528Y-8321231D01*
X14517387Y-8320648D01*
X14516382Y-8319853D01*
X14510260Y-8316992D01*
X14509480Y-8316610D01*
X14504749Y-8314195D01*
X14504749Y-8314195D01*
X14503461Y-8313537D01*
X14502217Y-8313233D01*
X14501056Y-8312690D01*
X14494434Y-8311313D01*
X14493597Y-8311123D01*
X14487028Y-8309516D01*
X14485961Y-8309450D01*
X14485573Y-8309450D01*
X14485460Y-8309446D01*
X14484493Y-8309245D01*
X14483047Y-8309284D01*
X14483047Y-8309284D01*
X14477264Y-8309441D01*
X14476591Y-8309450D01*
X14139044Y-8309450D01*
X14129515Y-8307555D01*
X14121437Y-8302157D01*
X14116039Y-8294079D01*
X14114357Y-8287800D01*
X14113717Y-8282942D01*
X14113504Y-8281324D01*
X14109261Y-8271078D01*
X14108078Y-8268224D01*
X14108078Y-8268224D01*
X14107454Y-8266716D01*
X14106460Y-8265421D01*
X14106460Y-8265421D01*
X14098822Y-8255467D01*
X14097828Y-8254172D01*
X14096533Y-8253178D01*
X14086579Y-8245540D01*
X14086579Y-8245540D01*
X14085284Y-8244546D01*
X14083776Y-8243922D01*
X14083776Y-8243922D01*
X14078740Y-8241836D01*
X14070676Y-8238496D01*
X14069058Y-8238283D01*
X14069058Y-8238283D01*
X14065707Y-8237841D01*
X14058936Y-8236950D01*
X13970011Y-8236950D01*
X13881064Y-8236950D01*
X13880256Y-8237056D01*
X13880256Y-8237056D01*
X13875984Y-8237619D01*
X13869324Y-8238496D01*
X13867816Y-8239120D01*
X13856224Y-8243922D01*
X13856224Y-8243922D01*
X13854716Y-8244546D01*
X13853421Y-8245540D01*
X13853421Y-8245540D01*
X13843467Y-8253178D01*
X13842172Y-8254172D01*
X13841178Y-8255467D01*
X13833540Y-8265421D01*
X13833540Y-8265421D01*
X13832546Y-8266716D01*
X13826496Y-8281324D01*
X13826283Y-8282941D01*
X13826283Y-8282942D01*
X13825841Y-8286293D01*
X13824950Y-8293064D01*
X13824950Y-8470936D01*
X13826496Y-8482676D01*
X13832546Y-8497284D01*
X13833540Y-8498579D01*
X13833540Y-8498579D01*
X13839915Y-8506888D01*
X13842172Y-8509828D01*
X13843467Y-8510822D01*
X13843467Y-8510822D01*
X13848633Y-8514787D01*
X13855039Y-8522091D01*
X13858162Y-8531291D01*
X13857527Y-8540986D01*
X13854045Y-8548573D01*
X13844102Y-8563148D01*
X13843447Y-8564108D01*
X13833405Y-8585743D01*
X13833132Y-8586726D01*
X13833132Y-8586727D01*
X13827396Y-8607410D01*
X13827031Y-8608727D01*
X13826857Y-8610357D01*
X13825062Y-8627146D01*
X13824496Y-8632444D01*
X13825021Y-8641543D01*
X13825585Y-8651322D01*
X13825869Y-8656256D01*
X13831113Y-8679525D01*
X13831497Y-8680471D01*
X13838896Y-8698693D01*
X13840087Y-8701624D01*
X13840620Y-8702495D01*
X13840621Y-8702495D01*
X13847415Y-8713583D01*
X13852549Y-8721961D01*
X13868166Y-8739989D01*
X13872570Y-8743646D01*
X13878691Y-8751191D01*
X13881458Y-8760504D01*
X13880451Y-8770167D01*
X13875823Y-8778709D01*
X13873675Y-8780929D01*
X13873367Y-8781160D01*
X13856889Y-8798404D01*
X13856313Y-8799249D01*
X13844028Y-8817257D01*
X13843447Y-8818108D01*
X13833405Y-8839743D01*
X13833132Y-8840726D01*
X13833132Y-8840727D01*
X13827396Y-8861410D01*
X13827031Y-8862727D01*
X13825926Y-8873064D01*
X13824704Y-8884504D01*
X13824496Y-8886444D01*
X13824759Y-8890996D01*
X13825585Y-8905322D01*
X13825869Y-8910256D01*
X13831113Y-8933525D01*
X13831497Y-8934471D01*
X13839068Y-8953116D01*
X13840087Y-8955624D01*
X13840620Y-8956495D01*
X13840621Y-8956495D01*
X13845736Y-8964843D01*
X13852549Y-8975961D01*
X13868166Y-8993989D01*
X13872570Y-8997646D01*
X13878691Y-9005191D01*
X13881458Y-9014504D01*
X13880451Y-9024167D01*
X13875823Y-9032709D01*
X13873675Y-9034929D01*
X13873367Y-9035160D01*
X13856889Y-9052404D01*
X13856313Y-9053249D01*
X13844679Y-9070303D01*
X13843447Y-9072108D01*
X13833405Y-9093743D01*
X13833132Y-9094726D01*
X13833132Y-9094727D01*
X13828019Y-9113164D01*
X13827031Y-9116727D01*
X13824496Y-9140444D01*
X13825869Y-9164256D01*
X13831113Y-9187525D01*
X13831497Y-9188471D01*
X13838675Y-9206147D01*
X13840087Y-9209624D01*
X13840620Y-9210495D01*
X13840621Y-9210495D01*
X13845999Y-9219272D01*
X13852549Y-9229961D01*
X13868166Y-9247989D01*
X13872570Y-9251646D01*
X13878691Y-9259191D01*
X13881458Y-9268504D01*
X13880451Y-9278167D01*
X13875823Y-9286709D01*
X13873675Y-9288929D01*
X13873367Y-9289160D01*
X13856889Y-9306404D01*
X13853818Y-9310905D01*
X13844568Y-9324465D01*
X13843447Y-9326108D01*
X13833405Y-9347743D01*
X13833132Y-9348726D01*
X13833132Y-9348727D01*
X13830650Y-9357677D01*
X13827031Y-9370727D01*
X13826419Y-9376456D01*
X13824798Y-9391624D01*
X13824496Y-9394444D01*
X13825054Y-9404120D01*
X13825601Y-9413599D01*
X13825869Y-9418256D01*
X13831113Y-9441525D01*
X13831497Y-9442471D01*
X13838675Y-9460147D01*
X13840087Y-9463624D01*
X13840620Y-9464495D01*
X13840621Y-9464495D01*
X13845681Y-9472753D01*
X13852549Y-9483961D01*
X13868166Y-9501989D01*
X13872570Y-9505646D01*
X13878691Y-9513191D01*
X13881458Y-9522504D01*
X13880451Y-9532167D01*
X13875823Y-9540709D01*
X13873675Y-9542929D01*
X13873367Y-9543160D01*
X13856889Y-9560404D01*
X13853818Y-9564905D01*
X13844679Y-9578303D01*
X13843447Y-9580108D01*
X13833405Y-9601743D01*
X13833132Y-9602726D01*
X13833132Y-9602727D01*
X13832958Y-9603356D01*
X13827031Y-9624727D01*
X13826799Y-9626893D01*
X13824798Y-9645624D01*
X13824496Y-9648444D01*
X13825869Y-9672256D01*
X13831113Y-9695525D01*
X13831497Y-9696471D01*
X13838675Y-9714147D01*
X13840087Y-9717624D01*
X13840620Y-9718495D01*
X13840621Y-9718495D01*
X13847245Y-9729306D01*
X13852549Y-9737961D01*
X13868166Y-9755989D01*
X13872570Y-9759646D01*
X13878691Y-9767191D01*
X13881458Y-9776504D01*
X13880451Y-9786167D01*
X13875823Y-9794709D01*
X13873675Y-9796929D01*
X13873367Y-9797160D01*
X13856889Y-9814404D01*
X13856313Y-9815249D01*
X13844679Y-9832303D01*
X13843447Y-9834108D01*
X13833405Y-9855743D01*
X13833132Y-9856726D01*
X13833132Y-9856727D01*
X13827676Y-9876400D01*
X13827031Y-9878727D01*
X13826799Y-9880893D01*
X13824704Y-9900504D01*
X13824496Y-9902444D01*
X13825869Y-9926256D01*
X13831113Y-9949525D01*
X13831497Y-9950471D01*
X13838675Y-9968147D01*
X13840087Y-9971624D01*
X13840620Y-9972495D01*
X13840621Y-9972495D01*
X13845999Y-9981272D01*
X13852549Y-9991961D01*
X13868166Y-10009989D01*
X13872570Y-10013646D01*
X13878691Y-10021191D01*
X13881458Y-10030504D01*
X13880451Y-10040167D01*
X13875823Y-10048709D01*
X13873675Y-10050929D01*
X13873367Y-10051160D01*
X13856889Y-10068404D01*
X13853818Y-10072905D01*
X13844568Y-10086465D01*
X13843447Y-10088108D01*
X13833405Y-10109743D01*
X13833132Y-10110726D01*
X13833132Y-10110727D01*
X13828590Y-10127104D01*
X13827031Y-10132727D01*
X13826248Y-10140051D01*
X13824798Y-10153624D01*
X13824496Y-10156444D01*
X13824975Y-10164742D01*
X13825603Y-10175629D01*
X13825869Y-10180256D01*
X13831113Y-10203525D01*
X13831497Y-10204471D01*
X13838675Y-10222147D01*
X13840087Y-10225624D01*
X13840620Y-10226495D01*
X13840621Y-10226495D01*
X13848276Y-10238988D01*
X13852549Y-10245961D01*
X13868166Y-10263989D01*
X13872570Y-10267646D01*
X13878691Y-10275191D01*
X13881458Y-10284504D01*
X13880451Y-10294167D01*
X13875823Y-10302709D01*
X13873675Y-10304929D01*
X13873367Y-10305160D01*
X13856889Y-10322404D01*
X13856313Y-10323249D01*
X13844357Y-10340775D01*
X13843447Y-10342108D01*
X13833405Y-10363743D01*
X13833132Y-10364726D01*
X13833132Y-10364727D01*
X13829246Y-10378740D01*
X13827031Y-10386727D01*
X13826548Y-10391247D01*
X13824625Y-10409237D01*
X13824496Y-10410444D01*
X13824794Y-10415605D01*
X13825609Y-10429749D01*
X13825869Y-10434256D01*
X13831113Y-10457525D01*
X13840087Y-10479624D01*
X13840620Y-10480495D01*
X13840621Y-10480495D01*
X13849855Y-10495564D01*
X13852549Y-10499961D01*
X13868166Y-10517989D01*
X13872570Y-10521646D01*
X13878691Y-10529191D01*
X13881458Y-10538504D01*
X13880451Y-10548167D01*
X13875823Y-10556709D01*
X13873675Y-10558929D01*
X13873367Y-10559160D01*
X13856889Y-10576404D01*
X13856313Y-10577249D01*
X13844568Y-10594465D01*
X13843447Y-10596108D01*
X13833405Y-10617743D01*
X13833132Y-10618726D01*
X13833132Y-10618727D01*
X13830650Y-10627677D01*
X13827031Y-10640727D01*
X13825926Y-10651064D01*
X13825722Y-10652973D01*
X13824496Y-10664444D01*
X13825054Y-10674120D01*
X13825601Y-10683599D01*
X13825869Y-10688256D01*
X13831113Y-10711525D01*
X13831497Y-10712471D01*
X13837829Y-10728064D01*
X13840087Y-10733624D01*
X13840620Y-10734495D01*
X13840621Y-10734495D01*
X13847339Y-10745459D01*
X13852549Y-10753961D01*
X13868166Y-10771989D01*
X13872570Y-10775646D01*
X13878691Y-10783191D01*
X13881458Y-10792504D01*
X13880451Y-10802167D01*
X13875823Y-10810709D01*
X13873675Y-10812929D01*
X13873367Y-10813160D01*
X13856889Y-10830404D01*
X13853818Y-10834905D01*
X13845189Y-10847555D01*
X13843447Y-10850108D01*
X13833405Y-10871743D01*
X13833132Y-10872726D01*
X13833132Y-10872727D01*
X13828302Y-10890143D01*
X13827031Y-10894727D01*
X13824496Y-10918444D01*
X13522050Y-10918444D01*
X13522050Y-7958950D01*
X13523945Y-7949421D01*
X13529343Y-7941343D01*
X13537421Y-7935945D01*
X13546950Y-7934050D01*
X16923109Y-7934050D01*
X16932637Y-7935945D01*
G37*
%TD.AperFunction*%
%TD*%
M02*
