M48
; DRILL file {KiCad 8.0.1} date 2024-05-14T21:43:40-0400
; FORMAT={-:-/ absolute / metric / decimal}
; #@! TF.CreationDate,2024-05-14T21:43:40-04:00
; #@! TF.GenerationSoftware,Kicad,Pcbnew,8.0.1
; #@! TF.FileFunction,Plated,1,2,PTH
FMAT,2
METRIC
; #@! TA.AperFunction,Plated,PTH,ViaDrill
T1C0.800
; #@! TA.AperFunction,Plated,PTH,ComponentDrill
T2C0.800
; #@! TA.AperFunction,Plated,PTH,ComponentDrill
T3C1.100
; #@! TA.AperFunction,Plated,PTH,ComponentDrill
T4C1.190
%
G90
G05
T1
X4.0Y35.2
X8.8Y45.1
X21.4Y47.3
X25.5Y11.2
X31.8Y49.2
X33.5Y35.9
X33.6Y41.2
X33.6Y38.7
X36.0Y22.7
X36.7Y31.6
X42.4Y33.7
X42.6Y27.0
X42.8Y59.0
X42.9Y30.5
X45.5Y57.7
X49.6Y36.0
X50.2Y60.2
X52.1Y9.2
X54.7Y18.4
X59.5Y50.1
X66.2Y40.0
X66.6Y43.5
T2
X11.525Y51.525
X14.0Y54.0
X22.363Y51.463
X24.837Y53.937
X54.5Y27.5
X58.0Y27.5
T3
X16.376Y6.815
X17.578Y8.018
X18.78Y9.22
X19.982Y10.422
X21.185Y11.624
X24.158Y14.034
X25.36Y15.236
X26.562Y16.438
X27.764Y17.64
X28.966Y18.842
X41.73Y4.0
X44.27Y4.0
T4
X3.75Y47.83
X3.75Y45.29
X3.75Y42.75
X3.75Y40.21
X17.108Y59.008
X18.904Y60.804
X20.7Y62.6
X22.496Y64.396
X32.02Y4.0
X34.56Y4.0
X37.1Y4.0
X47.204Y65.796
X49.0Y64.0
X54.812Y10.412
X56.608Y12.208
X58.404Y14.004
X60.2Y15.8
X61.996Y17.596
X63.792Y19.392
X64.204Y48.796
X65.0Y34.4
X65.0Y31.86
X65.0Y29.32
X65.0Y26.78
X65.588Y21.188
X66.0Y47.0
M30
