%TF.GenerationSoftware,KiCad,Pcbnew,8.0.1*%
%TF.CreationDate,2024-05-16T13:53:01-04:00*%
%TF.ProjectId,MainPCBV2,4d61696e-5043-4425-9632-2e6b69636164,rev?*%
%TF.SameCoordinates,PX7270e00PY7bfa480*%
%TF.FileFunction,Soldermask,Bot*%
%TF.FilePolarity,Negative*%
%FSLAX45Y45*%
G04 Gerber Fmt 4.5, Leading zero omitted, Abs format (unit mm)*
G04 Created by KiCad (PCBNEW 8.0.1) date 2024-05-16 13:53:01*
%MOMM*%
%LPD*%
G01*
G04 APERTURE LIST*
G04 Aperture macros list*
%AMRoundRect*
0 Rectangle with rounded corners*
0 $1 Rounding radius*
0 $2 $3 $4 $5 $6 $7 $8 $9 X,Y pos of 4 corners*
0 Add a 4 corners polygon primitive as box body*
4,1,4,$2,$3,$4,$5,$6,$7,$8,$9,$2,$3,0*
0 Add four circle primitives for the rounded corners*
1,1,$1+$1,$2,$3*
1,1,$1+$1,$4,$5*
1,1,$1+$1,$6,$7*
1,1,$1+$1,$8,$9*
0 Add four rect primitives between the rounded corners*
20,1,$1+$1,$2,$3,$4,$5,0*
20,1,$1+$1,$4,$5,$6,$7,0*
20,1,$1+$1,$6,$7,$8,$9,0*
20,1,$1+$1,$8,$9,$2,$3,0*%
%AMHorizOval*
0 Thick line with rounded ends*
0 $1 width*
0 $2 $3 position (X,Y) of the first rounded end (center of the circle)*
0 $4 $5 position (X,Y) of the second rounded end (center of the circle)*
0 Add line between two ends*
20,1,$1,$2,$3,$4,$5,0*
0 Add two circle primitives to create the rounded ends*
1,1,$1,$2,$3*
1,1,$1,$4,$5*%
%AMRotRect*
0 Rectangle, with rotation*
0 The origin of the aperture is its center*
0 $1 length*
0 $2 width*
0 $3 Rotation angle, in degrees counterclockwise*
0 Add horizontal line*
21,1,$1,$2,0,0,$3*%
G04 Aperture macros list end*
%ADD10RoundRect,0.250000X0.845000X-0.620000X0.845000X0.620000X-0.845000X0.620000X-0.845000X-0.620000X0*%
%ADD11O,2.190000X1.740000*%
%ADD12RoundRect,0.250000X0.159099X-1.035911X1.035911X-0.159099X-0.159099X1.035911X-1.035911X0.159099X0*%
%ADD13HorizOval,1.740000X-0.159099X0.159099X0.159099X-0.159099X0*%
%ADD14HorizOval,3.500000X0.000000X0.000000X0.000000X0.000000X0*%
%ADD15RotRect,1.500000X3.000000X45.000000*%
%ADD16HorizOval,1.500000X-0.530330X0.530330X0.530330X-0.530330X0*%
%ADD17C,1.600000*%
%ADD18RoundRect,0.250000X-1.035911X-0.159099X-0.159099X-1.035911X1.035911X0.159099X0.159099X1.035911X0*%
%ADD19HorizOval,1.740000X-0.159099X-0.159099X0.159099X0.159099X0*%
%ADD20RoundRect,0.250000X-0.620000X-0.845000X0.620000X-0.845000X0.620000X0.845000X-0.620000X0.845000X0*%
%ADD21O,1.740000X2.190000*%
%ADD22R,2.200000X2.200000*%
%ADD23C,2.200000*%
%ADD24C,1.500000*%
%TA.AperFunction,Profile*%
%ADD25C,0.100000*%
%TD*%
G04 APERTURE END LIST*
D10*
X6500000Y2678000D03*
D11*
X6500000Y2932000D03*
X6500000Y3186000D03*
X6500000Y3440000D03*
D12*
X1710790Y5900790D03*
D13*
X1890395Y6080395D03*
X2070000Y6260000D03*
X2249605Y6439605D03*
D14*
X700000Y2100000D03*
D15*
X1637624Y681544D03*
D16*
X1757832Y801752D03*
X1878040Y921960D03*
X1998248Y1042168D03*
X2118456Y1162376D03*
D17*
X2483744Y5393744D03*
X2236256Y5146256D03*
D18*
X6420395Y4879605D03*
D19*
X6600000Y4700000D03*
D20*
X3202000Y400000D03*
D21*
X3456000Y400000D03*
X3710000Y400000D03*
D22*
X4173000Y400000D03*
D23*
X4427000Y400000D03*
D18*
X4720395Y6579605D03*
D19*
X4900000Y6400000D03*
D12*
X5481185Y1041185D03*
D13*
X5660790Y1220790D03*
X5840395Y1400395D03*
X6020000Y1580000D03*
X6199605Y1759605D03*
X6379210Y1939210D03*
X6558815Y2118815D03*
D17*
X5450000Y2750000D03*
X5800000Y2750000D03*
X1152513Y5152513D03*
X1400000Y5400000D03*
D14*
X1478155Y2821845D03*
D15*
X2415779Y1403389D03*
D16*
X2535987Y1523597D03*
X2656195Y1643805D03*
X2776403Y1764013D03*
X2896611Y1884221D03*
D10*
X375000Y4021000D03*
D11*
X375000Y4275000D03*
X375000Y4529000D03*
X375000Y4783000D03*
D24*
X5470000Y1840000D03*
X400000Y3520000D03*
X3600000Y2270000D03*
X3360000Y3870000D03*
X880000Y4510000D03*
X3350000Y3590000D03*
X5950000Y5010000D03*
X5210000Y920000D03*
X3180000Y4920000D03*
X3670000Y3160000D03*
X4260000Y2700000D03*
X5020000Y6020000D03*
X4550000Y5770000D03*
X3360000Y4120000D03*
X6660000Y4350000D03*
X4280000Y5900000D03*
X2550000Y1120000D03*
X2140000Y4730000D03*
X6620000Y4000000D03*
X4960000Y3600000D03*
X4290000Y3050000D03*
X4240000Y3370000D03*
D25*
X7000000Y5000000D02*
X7000000Y2000000D01*
X5000000Y0D01*
X2000000Y0D01*
X0Y2000000D01*
X0Y5000000D01*
X2000000Y7000000D01*
X5000000Y7000000D01*
X7000000Y5000000D01*
M02*
