%TF.GenerationSoftware,KiCad,Pcbnew,8.0.1*%
%TF.CreationDate,2024-05-14T22:23:39-04:00*%
%TF.ProjectId,MainPCBV2,4d61696e-5043-4425-9632-2e6b69636164,rev?*%
%TF.SameCoordinates,PX7270e00PY7bfa480*%
%TF.FileFunction,Copper,L1,Top*%
%TF.FilePolarity,Positive*%
%FSLAX45Y45*%
G04 Gerber Fmt 4.5, Leading zero omitted, Abs format (unit mm)*
G04 Created by KiCad (PCBNEW 8.0.1) date 2024-05-14 22:23:39*
%MOMM*%
%LPD*%
G01*
G04 APERTURE LIST*
G04 Aperture macros list*
%AMRoundRect*
0 Rectangle with rounded corners*
0 $1 Rounding radius*
0 $2 $3 $4 $5 $6 $7 $8 $9 X,Y pos of 4 corners*
0 Add a 4 corners polygon primitive as box body*
4,1,4,$2,$3,$4,$5,$6,$7,$8,$9,$2,$3,0*
0 Add four circle primitives for the rounded corners*
1,1,$1+$1,$2,$3*
1,1,$1+$1,$4,$5*
1,1,$1+$1,$6,$7*
1,1,$1+$1,$8,$9*
0 Add four rect primitives between the rounded corners*
20,1,$1+$1,$2,$3,$4,$5,0*
20,1,$1+$1,$4,$5,$6,$7,0*
20,1,$1+$1,$6,$7,$8,$9,0*
20,1,$1+$1,$8,$9,$2,$3,0*%
%AMHorizOval*
0 Thick line with rounded ends*
0 $1 width*
0 $2 $3 position (X,Y) of the first rounded end (center of the circle)*
0 $4 $5 position (X,Y) of the second rounded end (center of the circle)*
0 Add line between two ends*
20,1,$1,$2,$3,$4,$5,0*
0 Add two circle primitives to create the rounded ends*
1,1,$1,$2,$3*
1,1,$1,$4,$5*%
%AMRotRect*
0 Rectangle, with rotation*
0 The origin of the aperture is its center*
0 $1 length*
0 $2 width*
0 $3 Rotation angle, in degrees counterclockwise*
0 Add horizontal line*
21,1,$1,$2,0,0,$3*%
G04 Aperture macros list end*
%TA.AperFunction,SMDPad,CuDef*%
%ADD10RoundRect,0.250000X-0.132583X0.503814X-0.503814X0.132583X0.132583X-0.503814X0.503814X-0.132583X0*%
%TD*%
%TA.AperFunction,SMDPad,CuDef*%
%ADD11RoundRect,0.150000X0.150000X-0.587500X0.150000X0.587500X-0.150000X0.587500X-0.150000X-0.587500X0*%
%TD*%
%TA.AperFunction,SMDPad,CuDef*%
%ADD12RoundRect,0.250000X-0.229810X0.689429X-0.689429X0.229810X0.229810X-0.689429X0.689429X-0.229810X0*%
%TD*%
%TA.AperFunction,ComponentPad*%
%ADD13RoundRect,0.250000X0.845000X-0.620000X0.845000X0.620000X-0.845000X0.620000X-0.845000X-0.620000X0*%
%TD*%
%TA.AperFunction,ComponentPad*%
%ADD14O,2.190000X1.740000*%
%TD*%
%TA.AperFunction,SMDPad,CuDef*%
%ADD15RoundRect,0.250000X-0.450000X0.262500X-0.450000X-0.262500X0.450000X-0.262500X0.450000X0.262500X0*%
%TD*%
%TA.AperFunction,SMDPad,CuDef*%
%ADD16RoundRect,0.375000X-0.176777X-0.707107X0.707107X0.176777X0.176777X0.707107X-0.707107X-0.176777X0*%
%TD*%
%TA.AperFunction,SMDPad,CuDef*%
%ADD17RoundRect,0.500000X0.636396X-1.343503X1.343503X-0.636396X-0.636396X1.343503X-1.343503X0.636396X0*%
%TD*%
%TA.AperFunction,SMDPad,CuDef*%
%ADD18RoundRect,0.250000X-0.262500X-0.450000X0.262500X-0.450000X0.262500X0.450000X-0.262500X0.450000X0*%
%TD*%
%TA.AperFunction,SMDPad,CuDef*%
%ADD19RoundRect,0.250000X0.262500X0.450000X-0.262500X0.450000X-0.262500X-0.450000X0.262500X-0.450000X0*%
%TD*%
%TA.AperFunction,SMDPad,CuDef*%
%ADD20RoundRect,0.375000X-0.375000X0.625000X-0.375000X-0.625000X0.375000X-0.625000X0.375000X0.625000X0*%
%TD*%
%TA.AperFunction,SMDPad,CuDef*%
%ADD21RoundRect,0.500000X-1.400000X0.500000X-1.400000X-0.500000X1.400000X-0.500000X1.400000X0.500000X0*%
%TD*%
%TA.AperFunction,ComponentPad*%
%ADD22RoundRect,0.250000X0.159099X-1.035911X1.035911X-0.159099X-0.159099X1.035911X-1.035911X0.159099X0*%
%TD*%
%TA.AperFunction,ComponentPad*%
%ADD23HorizOval,1.740000X-0.159099X0.159099X0.159099X-0.159099X0*%
%TD*%
%TA.AperFunction,ComponentPad*%
%ADD24RotRect,1.500000X3.000000X45.000000*%
%TD*%
%TA.AperFunction,ComponentPad*%
%ADD25HorizOval,1.500000X-0.530330X0.530330X0.530330X-0.530330X0*%
%TD*%
%TA.AperFunction,SMDPad,CuDef*%
%ADD26RoundRect,0.250000X0.132583X-0.503814X0.503814X-0.132583X-0.132583X0.503814X-0.503814X0.132583X0*%
%TD*%
%TA.AperFunction,SMDPad,CuDef*%
%ADD27RoundRect,0.250000X0.689429X0.229810X0.229810X0.689429X-0.689429X-0.229810X-0.229810X-0.689429X0*%
%TD*%
%TA.AperFunction,SMDPad,CuDef*%
%ADD28RotRect,3.020000X0.970000X225.000000*%
%TD*%
%TA.AperFunction,SMDPad,CuDef*%
%ADD29RotRect,6.320000X5.670000X45.000000*%
%TD*%
%TA.AperFunction,ComponentPad*%
%ADD30C,1.600000*%
%TD*%
%TA.AperFunction,ComponentPad*%
%ADD31RoundRect,0.250000X-1.035911X-0.159099X-0.159099X-1.035911X1.035911X0.159099X0.159099X1.035911X0*%
%TD*%
%TA.AperFunction,ComponentPad*%
%ADD32HorizOval,1.740000X-0.159099X-0.159099X0.159099X0.159099X0*%
%TD*%
%TA.AperFunction,ComponentPad*%
%ADD33RoundRect,0.250000X-0.620000X-0.845000X0.620000X-0.845000X0.620000X0.845000X-0.620000X0.845000X0*%
%TD*%
%TA.AperFunction,ComponentPad*%
%ADD34O,1.740000X2.190000*%
%TD*%
%TA.AperFunction,ComponentPad*%
%ADD35R,2.200000X2.200000*%
%TD*%
%TA.AperFunction,ComponentPad*%
%ADD36C,2.200000*%
%TD*%
%TA.AperFunction,SMDPad,CuDef*%
%ADD37RotRect,1.500000X2.200000X45.000000*%
%TD*%
%TA.AperFunction,SMDPad,CuDef*%
%ADD38RoundRect,0.250000X-0.325000X-0.650000X0.325000X-0.650000X0.325000X0.650000X-0.325000X0.650000X0*%
%TD*%
%TA.AperFunction,SMDPad,CuDef*%
%ADD39RoundRect,0.250000X1.500000X0.650000X-1.500000X0.650000X-1.500000X-0.650000X1.500000X-0.650000X0*%
%TD*%
%TA.AperFunction,SMDPad,CuDef*%
%ADD40O,2.748280X1.998980*%
%TD*%
%TA.AperFunction,SMDPad,CuDef*%
%ADD41O,1.016000X2.032000*%
%TD*%
%TA.AperFunction,SMDPad,CuDef*%
%ADD42C,1.143000*%
%TD*%
%TA.AperFunction,SMDPad,CuDef*%
%ADD43R,0.970000X3.020000*%
%TD*%
%TA.AperFunction,SMDPad,CuDef*%
%ADD44R,5.670000X6.320000*%
%TD*%
%TA.AperFunction,ViaPad*%
%ADD45C,1.500000*%
%TD*%
%TA.AperFunction,Conductor*%
%ADD46C,0.500000*%
%TD*%
%TA.AperFunction,Conductor*%
%ADD47C,1.000000*%
%TD*%
%TA.AperFunction,Profile*%
%ADD48C,0.100000*%
%TD*%
G04 APERTURE END LIST*
D10*
X2129047Y364523D03*
X2000000Y235476D03*
X3054523Y1354524D03*
X2925476Y1225477D03*
D11*
X5060000Y3200000D03*
X5250000Y3200000D03*
X5155000Y3387500D03*
D12*
X5034298Y824298D03*
X4825702Y615702D03*
D13*
X6500000Y2678000D03*
D14*
X6500000Y2932000D03*
X6500000Y3186000D03*
X6500000Y3440000D03*
D15*
X180000Y3522500D03*
X180000Y3340000D03*
D16*
X5174627Y5639896D03*
X5337261Y5477261D03*
D17*
X5782739Y5922739D03*
D16*
X5499896Y5314627D03*
D18*
X2538750Y3220000D03*
X2721250Y3220000D03*
D19*
X3791250Y5580000D03*
X3608750Y5580000D03*
D18*
X5058750Y4870000D03*
X5241250Y4870000D03*
D20*
X5010000Y2105000D03*
X4780000Y2105000D03*
D21*
X4780000Y1475000D03*
D20*
X4550000Y2105000D03*
D22*
X1710790Y5900790D03*
D23*
X1890395Y6080395D03*
X2070000Y6260000D03*
X2249605Y6439605D03*
D24*
X1637624Y681544D03*
D25*
X1757832Y801752D03*
X1878040Y921960D03*
X1998248Y1042168D03*
X2118456Y1162376D03*
D19*
X701250Y5220000D03*
X518750Y5220000D03*
X2136250Y3975000D03*
X1953750Y3975000D03*
D26*
X2305477Y535477D03*
X2434524Y664524D03*
D27*
X4714298Y5245702D03*
X4505702Y5454298D03*
D28*
X5149149Y4072438D03*
X5472438Y3749149D03*
D29*
X5772534Y4372534D03*
D30*
X2483744Y5393744D03*
X2236256Y5146256D03*
D31*
X6420395Y4879605D03*
D32*
X6600000Y4700000D03*
D33*
X3202000Y400000D03*
D34*
X3456000Y400000D03*
X3710000Y400000D03*
D18*
X2537500Y3570000D03*
X2720000Y3570000D03*
D35*
X4173000Y400000D03*
D36*
X4427000Y400000D03*
D31*
X4720395Y6579605D03*
D32*
X4900000Y6400000D03*
D37*
X347452Y2773726D03*
X800000Y3226274D03*
D38*
X2331250Y4400000D03*
X2626250Y4400000D03*
D11*
X3035000Y5292500D03*
X3225000Y5292500D03*
X3130000Y5480000D03*
D39*
X4050000Y1880000D03*
X3550000Y1880000D03*
D22*
X5481185Y1041185D03*
D23*
X5660790Y1220790D03*
X5840395Y1400395D03*
X6020000Y1580000D03*
X6199605Y1759605D03*
X6379210Y1939210D03*
X6558815Y2118815D03*
D30*
X5450000Y2750000D03*
X5800000Y2750000D03*
X1152513Y5152513D03*
X1400000Y5400000D03*
D18*
X1948750Y4410000D03*
X2131250Y4410000D03*
X6348750Y3800000D03*
X6531250Y3800000D03*
D39*
X4050000Y1390000D03*
X3550000Y1390000D03*
D40*
X3031871Y4370000D03*
X3031871Y4116000D03*
X3031871Y3862000D03*
X3031871Y3608000D03*
X3031871Y3354000D03*
X3031871Y3100000D03*
X3031871Y2846000D03*
X4648327Y2846000D03*
X4648327Y3100000D03*
X4648327Y3354000D03*
X4648327Y3608000D03*
X4648327Y3862000D03*
X4648327Y4116000D03*
X4648327Y4370000D03*
D41*
X3718559Y2738218D03*
X3973559Y2738218D03*
D42*
X3718439Y4438637D03*
X3972439Y4438637D03*
X3718439Y4184637D03*
X3972439Y4184637D03*
D24*
X2415779Y1403389D03*
D25*
X2535987Y1523597D03*
X2656195Y1643805D03*
X2776403Y1764013D03*
X2896611Y1884221D03*
D37*
X973726Y3403726D03*
X1426274Y3856274D03*
D13*
X375000Y4021000D03*
D14*
X375000Y4275000D03*
X375000Y4529000D03*
X375000Y4783000D03*
D38*
X2321250Y3980000D03*
X2616250Y3980000D03*
D43*
X2771400Y5881000D03*
X3228600Y5881000D03*
D44*
X3000000Y6534000D03*
D45*
X5470000Y1840000D03*
X400000Y3520000D03*
X3600000Y2270000D03*
X3360000Y3870000D03*
X880000Y4510000D03*
X3350000Y3590000D03*
X5950000Y5010000D03*
X5210000Y920000D03*
X3180000Y4920000D03*
X3670000Y3160000D03*
X4260000Y2700000D03*
X5020000Y6020000D03*
X4550000Y5770000D03*
X3360000Y4120000D03*
X6660000Y4350000D03*
X4280000Y5900000D03*
X2550000Y1120000D03*
X2140000Y4730000D03*
X6620000Y4000000D03*
X4960000Y3600000D03*
X4290000Y3050000D03*
X4240000Y3370000D03*
D46*
X4810000Y507240D02*
X4810000Y640000D01*
X2433750Y3835830D02*
X2330000Y3732080D01*
X4270000Y2050000D02*
X4270000Y1785312D01*
D47*
X2496600Y1803400D02*
X2413400Y1803400D01*
D46*
X2433750Y4114370D02*
X2433750Y3835830D01*
D47*
X2138680Y1528680D02*
X2138680Y1421320D01*
D46*
X5010000Y2105000D02*
X4865000Y2250000D01*
X4598400Y228600D02*
X4427000Y400000D01*
X3614688Y1140000D02*
X3405165Y1140000D01*
X3182240Y2397760D02*
X4717240Y2397760D01*
X4865000Y2250000D02*
X4470000Y2250000D01*
X2805000Y1495000D02*
X2656195Y1643805D01*
X3225000Y5292500D02*
X4221480Y5292500D01*
X3223505Y5292500D02*
X3225000Y5292500D01*
X1925840Y4160000D02*
X2388120Y4160000D01*
X5010000Y2105000D02*
X5010000Y1969920D01*
X5842000Y1082040D02*
X4988560Y228600D01*
D47*
X2316489Y926489D02*
X2095000Y705000D01*
X2656195Y1643805D02*
X2496600Y1803400D01*
D46*
X5842000Y1226256D02*
X5842000Y1082040D01*
X3405165Y1140000D02*
X3050165Y1495000D01*
X5360000Y1840000D02*
X5095000Y2105000D01*
D47*
X2316489Y1243511D02*
X2316489Y926489D01*
D46*
X1287780Y4798060D02*
X1925840Y4160000D01*
X2626250Y4695245D02*
X3223505Y5292500D01*
X5334000Y1645920D02*
X5422336Y1645920D01*
X5470000Y1840000D02*
X5360000Y1840000D01*
X5472438Y3422438D02*
X5472438Y3749149D01*
X2388120Y4160000D02*
X2433750Y4114370D01*
X3880000Y1630000D02*
X3800000Y1550000D01*
X5250000Y2994480D02*
X5178680Y2923160D01*
X3800000Y1325312D02*
X3614688Y1140000D01*
X2160040Y6920000D02*
X3640000Y6920000D01*
X4648327Y4116000D02*
X4408240Y4116000D01*
D47*
X2264524Y535477D02*
X1878040Y921960D01*
D46*
X1120140Y4798060D02*
X1287780Y4798060D01*
X4988560Y228600D02*
X4598400Y228600D01*
X5422336Y1645920D02*
X5842000Y1226256D01*
X2330000Y3732080D02*
X2330000Y3250000D01*
X701250Y5461210D02*
X2160040Y6920000D01*
X701250Y5220000D02*
X701250Y5461210D01*
X4717240Y2397760D02*
X5010000Y2105000D01*
D47*
X2413400Y1803400D02*
X2138680Y1528680D01*
D46*
X4221480Y5292500D02*
X4343903Y5292500D01*
X2616250Y4390000D02*
X2626250Y4400000D01*
D47*
X2134524Y364523D02*
X2305477Y535477D01*
D46*
X4427000Y400000D02*
X4702760Y400000D01*
X3050165Y1495000D02*
X2805000Y1495000D01*
X4343903Y5292500D02*
X4505702Y5454298D01*
X4920104Y5639896D02*
X5174627Y5639896D01*
D47*
X4505702Y5454298D02*
X4989029Y5454298D01*
X2129047Y364523D02*
X2134524Y364523D01*
D46*
X4114688Y1630000D02*
X3880000Y1630000D01*
X4221480Y4302760D02*
X4221480Y5292500D01*
X5178680Y2273680D02*
X5010000Y2105000D01*
X5095000Y2105000D02*
X5010000Y2105000D01*
X5472438Y3749149D02*
X6297899Y3749149D01*
X2626250Y4400000D02*
X2626250Y4695245D01*
X4408240Y4116000D02*
X4221480Y4302760D01*
X5250000Y3200000D02*
X5250000Y2994480D01*
X2330000Y3250000D02*
X3182240Y2397760D01*
X4702760Y400000D02*
X4810000Y507240D01*
X5010000Y1969920D02*
X5334000Y1645920D01*
X6297899Y3749149D02*
X6348750Y3800000D01*
X3225000Y5877400D02*
X3228600Y5881000D01*
X701250Y5216950D02*
X1120140Y4798060D01*
D47*
X2305477Y535477D02*
X2264524Y535477D01*
D46*
X701250Y5220000D02*
X701250Y5216950D01*
X5250000Y3200000D02*
X5472438Y3422438D01*
X3800000Y1550000D02*
X3800000Y1325312D01*
X3640000Y6920000D02*
X4920104Y5639896D01*
X5178680Y2923160D02*
X5178680Y2273680D01*
X3225000Y5292500D02*
X3225000Y5877400D01*
D47*
X4989029Y5454298D02*
X5174627Y5639896D01*
D46*
X2616250Y3980000D02*
X2616250Y4390000D01*
D47*
X2138680Y1421320D02*
X2316489Y1243511D01*
D46*
X4270000Y1785312D02*
X4114688Y1630000D01*
X4470000Y2250000D02*
X4270000Y2050000D01*
D47*
X441960Y2868234D02*
X441960Y3478040D01*
X400000Y3520000D02*
X857452Y3520000D01*
X441960Y3478040D02*
X400000Y3520000D01*
X347452Y2773726D02*
X441960Y2868234D01*
X857452Y3520000D02*
X973726Y3403726D01*
D46*
X1948750Y4335210D02*
X1948750Y4410000D01*
X2331720Y4399530D02*
X2331720Y4292600D01*
X2331250Y4400000D02*
X2331720Y4399530D01*
X2016760Y4267200D02*
X1948750Y4335210D01*
X2306320Y4267200D02*
X2331720Y4292600D01*
X2016760Y4267200D02*
X2306320Y4267200D01*
D47*
X1542617Y4177089D02*
X1169729Y4177089D01*
X1900000Y3349706D02*
X1900000Y3819706D01*
X1169729Y4177089D02*
X690880Y3698240D01*
X3940000Y2270000D02*
X3600000Y2270000D01*
X298240Y3698240D02*
X190000Y3590000D01*
X190000Y3590000D02*
X190000Y3512500D01*
X690880Y3698240D02*
X298240Y3698240D01*
X1900000Y3819706D02*
X1542617Y4177089D01*
X3600000Y2270000D02*
X2979706Y2270000D01*
X4050000Y1880000D02*
X4050000Y2160000D01*
X4050000Y2160000D02*
X3940000Y2270000D01*
X2979706Y2270000D02*
X1900000Y3349706D01*
D46*
X2141250Y3980000D02*
X2136250Y3975000D01*
X2321250Y3980000D02*
X2141250Y3980000D01*
D47*
X2985772Y1590000D02*
X3350000Y1590000D01*
X2811759Y1764013D02*
X2985772Y1590000D01*
X3350000Y1590000D02*
X3550000Y1390000D01*
X2776403Y1764013D02*
X2811759Y1764013D01*
X2530000Y2010416D02*
X2776403Y1764013D01*
X1426274Y3856274D02*
X1426274Y3343726D01*
X2530000Y2240000D02*
X2530000Y2010416D01*
X1426274Y3343726D02*
X2530000Y2240000D01*
X1230000Y1810416D02*
X1230000Y3560000D01*
X3200000Y1880000D02*
X3550000Y1880000D01*
X1100000Y3690000D02*
X1100000Y3910000D01*
X935000Y2105416D02*
X1255208Y1785208D01*
X800000Y3226274D02*
X935000Y3091274D01*
X1230000Y3560000D02*
X1100000Y3690000D01*
X935000Y3091274D02*
X935000Y2105416D01*
X1780000Y3300000D02*
X3200000Y1880000D01*
X1492911Y4057089D02*
X1780000Y3770000D01*
X1780000Y3770000D02*
X1780000Y3300000D01*
X1100000Y3910000D02*
X1247089Y4057089D01*
X1255208Y1785208D02*
X1230000Y1810416D01*
X1255208Y1785208D02*
X1998248Y1042168D01*
X1247089Y4057089D02*
X1492911Y4057089D01*
D46*
X3360000Y3870000D02*
X3039871Y3870000D01*
X3039871Y3870000D02*
X3031871Y3862000D01*
X880000Y4510000D02*
X880000Y4738480D01*
X880000Y4738480D02*
X518750Y5099730D01*
X518750Y5099730D02*
X518750Y5220000D01*
X3350000Y3590000D02*
X3049871Y3590000D01*
X3049871Y3590000D02*
X3031871Y3608000D01*
D47*
X4280000Y1390000D02*
X4050000Y1390000D01*
X4050000Y1390000D02*
X4009700Y1349700D01*
X6850000Y1950000D02*
X4970000Y70000D01*
X4050000Y1390000D02*
X4050000Y983480D01*
X2839720Y96520D02*
X2839720Y579120D01*
X3164840Y840000D02*
X3434080Y840000D01*
X5499896Y5314627D02*
X6465373Y5314627D01*
X6465373Y5314627D02*
X6850000Y4930000D01*
X4550000Y1660000D02*
X4280000Y1390000D01*
X2839720Y579120D02*
X3100600Y840000D01*
X2874160Y70000D02*
X2870200Y66040D01*
X2870200Y66040D02*
X2839720Y96520D01*
X4050000Y983480D02*
X3906520Y840000D01*
X4550000Y2105000D02*
X4550000Y1660000D01*
X3100600Y840000D02*
X3164840Y840000D01*
X6850000Y4930000D02*
X6850000Y1950000D01*
X5499896Y5314627D02*
X5645373Y5314627D01*
X5645373Y5314627D02*
X5950000Y5010000D01*
X4970000Y70000D02*
X2874160Y70000D01*
X3054523Y1354524D02*
X3164840Y1244207D01*
X3906520Y840000D02*
X3434080Y840000D01*
X3164840Y1244207D02*
X3164840Y840000D01*
D46*
X4780000Y1382040D02*
X4780000Y1475000D01*
X4780000Y1475000D02*
X4780000Y1078597D01*
X4780000Y2105000D02*
X4780000Y1475000D01*
X5210000Y952040D02*
X4780000Y1382040D01*
X4780000Y1078597D02*
X5034298Y824298D01*
X5210000Y920000D02*
X5210000Y952040D01*
X3031871Y4771871D02*
X3180000Y4920000D01*
X3031871Y4370000D02*
X3031871Y4771871D01*
X2720000Y3570000D02*
X2720000Y3490000D01*
X2720000Y3490000D02*
X2856000Y3354000D01*
X2856000Y3354000D02*
X3031871Y3354000D01*
X2770000Y3100000D02*
X3031871Y3100000D01*
X2721250Y3220000D02*
X2721250Y3148750D01*
X2721250Y3148750D02*
X2770000Y3100000D01*
X3031871Y2846000D02*
X3356000Y2846000D01*
X3356000Y2846000D02*
X3670000Y3160000D01*
X4406000Y2846000D02*
X4648327Y2846000D01*
X4712327Y2910000D02*
X4648327Y2846000D01*
X4260000Y2700000D02*
X4406000Y2846000D01*
X3911250Y5460000D02*
X4240000Y5460000D01*
X5058750Y5198750D02*
X5337261Y5477261D01*
X4714298Y5245702D02*
X4648327Y5179730D01*
X5058750Y4870000D02*
X5058750Y5198750D01*
X5011798Y5245702D02*
X5058750Y5198750D01*
X5117261Y5922739D02*
X5782739Y5922739D01*
X3791250Y5580000D02*
X3911250Y5460000D01*
X4648327Y5179730D02*
X4648327Y4370000D01*
X5020000Y6020000D02*
X5117261Y5922739D01*
X4714298Y5245702D02*
X5011798Y5245702D01*
X5782739Y5922739D02*
X5337261Y5477261D01*
X4240000Y5460000D02*
X4550000Y5770000D01*
X3360000Y4120000D02*
X3035871Y4120000D01*
X3035871Y4120000D02*
X3031871Y4116000D01*
X5772534Y4372534D02*
X6637466Y4372534D01*
X6637466Y4372534D02*
X6660000Y4350000D01*
X3646000Y6534000D02*
X4280000Y5900000D01*
X3000000Y6534000D02*
X3646000Y6534000D01*
X5155000Y3387500D02*
X5155000Y4066587D01*
X5149149Y4379149D02*
X5241250Y4471250D01*
X5241250Y4471250D02*
X5241250Y4870000D01*
X5149149Y4072438D02*
X5149149Y4379149D01*
X5155000Y4066587D02*
X5149149Y4072438D01*
X3510000Y6150000D02*
X3608750Y6051250D01*
X3608750Y6051250D02*
X3608750Y5580000D01*
X3040400Y6150000D02*
X3510000Y6150000D01*
X3130000Y5480000D02*
X2771400Y5838600D01*
X2771400Y5881000D02*
X3040400Y6150000D01*
X2771400Y5838600D02*
X2771400Y5881000D01*
X2538750Y3220000D02*
X2441250Y3317500D01*
X2510000Y3770000D02*
X2510000Y4767500D01*
X2510000Y4767500D02*
X3035000Y5292500D01*
X2441250Y3317500D02*
X2441250Y3701250D01*
X2441250Y3701250D02*
X2510000Y3770000D01*
X3860800Y2649200D02*
X4000000Y2510000D01*
X4830000Y2510000D02*
X5060000Y2740000D01*
X3204600Y5105400D02*
X3576320Y4733680D01*
X4000000Y2510000D02*
X4830000Y2510000D01*
X5060000Y2740000D02*
X5060000Y3200000D01*
X2730000Y4700000D02*
X3135400Y5105400D01*
X3135400Y5105400D02*
X3204600Y5105400D01*
X3860800Y3689494D02*
X3860800Y2649200D01*
X3576320Y3973974D02*
X3860800Y3689494D01*
X2730000Y3762500D02*
X2730000Y4700000D01*
X2537500Y3570000D02*
X2730000Y3762500D01*
X3576320Y4733680D02*
X3576320Y3973974D01*
X2140000Y4418750D02*
X2131250Y4410000D01*
X2580000Y1150000D02*
X2550000Y1120000D01*
X2415779Y1403389D02*
X2416611Y1403389D01*
X2580000Y1240000D02*
X2580000Y1150000D01*
X2140000Y4730000D02*
X2140000Y4418750D01*
X2416611Y1403389D02*
X2580000Y1240000D01*
D47*
X2434524Y734523D02*
X2925476Y1225477D01*
X2925476Y1225477D02*
X2834107Y1225477D01*
X2434524Y664524D02*
X2434524Y734523D01*
X2834107Y1225477D02*
X2535987Y1523597D01*
X1930000Y629584D02*
X1757832Y801752D01*
X130000Y3270000D02*
X130000Y2337660D01*
X1930000Y305477D02*
X1930000Y629584D01*
X1379584Y1180000D02*
X1757832Y801752D01*
X1287660Y1180000D02*
X1379584Y1180000D01*
X130000Y2337660D02*
X1287660Y1180000D01*
X2000000Y235476D02*
X1930000Y305477D01*
X190000Y3330000D02*
X130000Y3270000D01*
D46*
X6531250Y3431250D02*
X6500000Y3400000D01*
X6620000Y4000000D02*
X6620000Y3888750D01*
X6620000Y3888750D02*
X6531250Y3800000D01*
X147320Y3804920D02*
X600570Y3804920D01*
X35000Y2144320D02*
X35000Y3692600D01*
X600570Y3804920D02*
X1075650Y4280000D01*
X1637624Y681544D02*
X1497776Y681544D01*
X1648750Y4280000D02*
X1953750Y3975000D01*
X1075650Y4280000D02*
X1648750Y4280000D01*
X35000Y3692600D02*
X147320Y3804920D01*
X1497776Y681544D02*
X35000Y2144320D01*
X4656327Y3600000D02*
X4648327Y3608000D01*
X4960000Y3600000D02*
X4656327Y3600000D01*
X4340000Y3100000D02*
X4290000Y3050000D01*
X4648327Y3100000D02*
X4340000Y3100000D01*
X4632327Y3370000D02*
X4648327Y3354000D01*
X4240000Y3370000D02*
X4632327Y3370000D01*
%TA.AperFunction,NonConductor*%
G36*
X3581592Y6792929D02*
G01*
X3594511Y6787029D01*
X3602818Y6780335D01*
X3638918Y6744235D01*
X3647429Y6732865D01*
X3652393Y6719557D01*
X3653406Y6705390D01*
X3650387Y6691512D01*
X3643580Y6679046D01*
X3633537Y6669003D01*
X3621072Y6662196D01*
X3607193Y6659177D01*
X3603633Y6659050D01*
X3433450Y6659050D01*
X3419391Y6661071D01*
X3406472Y6666971D01*
X3395738Y6676272D01*
X3388059Y6688221D01*
X3384058Y6701849D01*
X3383550Y6708950D01*
X3383550Y6745050D01*
X3385571Y6759108D01*
X3391471Y6772028D01*
X3400772Y6782762D01*
X3412721Y6790441D01*
X3426348Y6794442D01*
X3433450Y6794950D01*
X3567533Y6794950D01*
X3581592Y6792929D01*
G37*
%TD.AperFunction*%
%TA.AperFunction,NonConductor*%
G36*
X4989227Y6987929D02*
G01*
X5002146Y6982029D01*
X5010453Y6975335D01*
X5700737Y6285050D01*
X5709249Y6273680D01*
X5714212Y6260372D01*
X5715225Y6246206D01*
X5712206Y6232327D01*
X5705399Y6219861D01*
X5695356Y6209818D01*
X5682891Y6203012D01*
X5677702Y6201392D01*
X5670211Y6199495D01*
X5647438Y6189506D01*
X5647438Y6189506D01*
X5626621Y6175905D01*
X5626620Y6175905D01*
X5618855Y6169047D01*
X5536430Y6086623D01*
X5529573Y6078858D01*
X5529572Y6078856D01*
X5524044Y6070396D01*
X5514663Y6059732D01*
X5502657Y6052143D01*
X5489000Y6048244D01*
X5482270Y6047789D01*
X5231164Y6047789D01*
X5217106Y6049810D01*
X5204186Y6055710D01*
X5193452Y6065011D01*
X5185774Y6076959D01*
X5184714Y6079458D01*
X5178157Y6096163D01*
X5178157Y6096164D01*
X5178157Y6096164D01*
X5165039Y6118886D01*
X5148681Y6139398D01*
X5148088Y6139948D01*
X5129448Y6157243D01*
X5107771Y6172022D01*
X5107771Y6172022D01*
X5107770Y6172023D01*
X5092841Y6179212D01*
X5084133Y6183406D01*
X5084133Y6183406D01*
X5084132Y6183406D01*
X5079535Y6184824D01*
X5059177Y6191104D01*
X5046339Y6197179D01*
X5035732Y6206626D01*
X5028217Y6218677D01*
X5024401Y6232358D01*
X5024594Y6246560D01*
X5028781Y6260132D01*
X5036621Y6271975D01*
X5038599Y6274070D01*
X5056843Y6292315D01*
X5071770Y6311767D01*
X5084030Y6333002D01*
X5093413Y6355656D01*
X5099759Y6379340D01*
X5102960Y6403650D01*
X5102960Y6428170D01*
X5099759Y6452480D01*
X5093413Y6476164D01*
X5084030Y6498817D01*
X5071770Y6520052D01*
X5056844Y6539504D01*
X5056843Y6539506D01*
X5039506Y6556843D01*
X5039504Y6556844D01*
X5020052Y6571770D01*
X4998817Y6584030D01*
X4974655Y6594038D01*
X4974787Y6594357D01*
X4964932Y6599377D01*
X4954605Y6609128D01*
X4947444Y6621393D01*
X4945577Y6626889D01*
X4945017Y6628918D01*
X4943478Y6633018D01*
X4937108Y6649991D01*
X4933535Y6655971D01*
X4925563Y6669314D01*
X4925563Y6669314D01*
X4925563Y6669315D01*
X4916951Y6679398D01*
X4894500Y6701849D01*
X4820189Y6776159D01*
X4820187Y6776162D01*
X4810104Y6784773D01*
X4803287Y6788846D01*
X4790781Y6796318D01*
X4783757Y6798954D01*
X4769708Y6804227D01*
X4769707Y6804227D01*
X4747560Y6808246D01*
X4725050Y6808246D01*
X4713976Y6806237D01*
X4702902Y6804227D01*
X4702902Y6804227D01*
X4681828Y6796318D01*
X4681828Y6796318D01*
X4662506Y6784773D01*
X4662505Y6784772D01*
X4652423Y6776161D01*
X4652421Y6776160D01*
X4523841Y6647580D01*
X4523838Y6647577D01*
X4515227Y6637495D01*
X4503682Y6618171D01*
X4495773Y6597098D01*
X4495773Y6597098D01*
X4495773Y6597098D01*
X4491754Y6574950D01*
X4491754Y6552440D01*
X4495773Y6530293D01*
X4495773Y6530292D01*
X4503682Y6509219D01*
X4503682Y6509219D01*
X4515227Y6489897D01*
X4515227Y6489896D01*
X4515227Y6489896D01*
X4523839Y6479812D01*
X4523840Y6479811D01*
X4523840Y6479811D01*
X4620601Y6383051D01*
X4620603Y6383049D01*
X4624945Y6379340D01*
X4630685Y6374437D01*
X4650009Y6362892D01*
X4671083Y6354983D01*
X4671083Y6354983D01*
X4673111Y6354423D01*
X4686125Y6348735D01*
X4697009Y6339610D01*
X4704882Y6327789D01*
X4705889Y6325315D01*
X4705962Y6325345D01*
X4715970Y6301183D01*
X4728230Y6279948D01*
X4743156Y6260496D01*
X4743157Y6260494D01*
X4760494Y6243157D01*
X4760496Y6243156D01*
X4779948Y6228230D01*
X4801183Y6215970D01*
X4823836Y6206587D01*
X4849098Y6199818D01*
X4849039Y6199598D01*
X4860221Y6195654D01*
X4871742Y6187348D01*
X4880456Y6176132D01*
X4885657Y6162916D01*
X4886924Y6148769D01*
X4884154Y6134839D01*
X4877572Y6122253D01*
X4876109Y6120325D01*
X4874962Y6118886D01*
X4874961Y6118885D01*
X4861843Y6096164D01*
X4861843Y6096163D01*
X4852258Y6071742D01*
X4852258Y6071742D01*
X4851951Y6070396D01*
X4846420Y6046163D01*
X4844792Y6024442D01*
X4844459Y6020000D01*
X4844747Y6016159D01*
X4843782Y6001988D01*
X4838864Y5988664D01*
X4830391Y5977265D01*
X4819049Y5968715D01*
X4805759Y5963707D01*
X4791595Y5962646D01*
X4777707Y5965618D01*
X4765218Y5972382D01*
X4759702Y5977146D01*
X3832082Y6904765D01*
X3823570Y6916135D01*
X3818607Y6929443D01*
X3817594Y6943610D01*
X3820613Y6957488D01*
X3827420Y6969954D01*
X3837463Y6979997D01*
X3849928Y6986804D01*
X3863807Y6989823D01*
X3867367Y6989950D01*
X4975168Y6989950D01*
X4989227Y6987929D01*
G37*
%TD.AperFunction*%
%TA.AperFunction,NonConductor*%
G36*
X3587592Y6406929D02*
G01*
X3600511Y6401029D01*
X3608818Y6394335D01*
X4091473Y5911680D01*
X4099984Y5900310D01*
X4104948Y5887002D01*
X4105948Y5880125D01*
X4106420Y5873837D01*
X4106420Y5873837D01*
X4112258Y5848258D01*
X4112258Y5848258D01*
X4121842Y5823837D01*
X4121843Y5823836D01*
X4121843Y5823836D01*
X4134961Y5801114D01*
X4134962Y5801114D01*
X4134962Y5801113D01*
X4135230Y5800777D01*
X4145868Y5787438D01*
X4151320Y5780602D01*
X4170552Y5762757D01*
X4177571Y5757971D01*
X4192230Y5747977D01*
X4215868Y5736594D01*
X4231409Y5731800D01*
X4244247Y5725725D01*
X4254853Y5716279D01*
X4262369Y5704227D01*
X4266184Y5690546D01*
X4265991Y5676344D01*
X4261805Y5662772D01*
X4253964Y5650930D01*
X4251985Y5648832D01*
X4235909Y5632757D01*
X4202818Y5599665D01*
X4191448Y5591154D01*
X4178140Y5586190D01*
X4167533Y5585050D01*
X3992326Y5585050D01*
X3978268Y5587071D01*
X3965348Y5592971D01*
X3954615Y5602272D01*
X3946936Y5614221D01*
X3942934Y5627848D01*
X3942580Y5631035D01*
X3942142Y5636610D01*
X3941510Y5644641D01*
X3936010Y5666468D01*
X3926701Y5686962D01*
X3926701Y5686962D01*
X3913882Y5705465D01*
X3913881Y5705466D01*
X3897966Y5721381D01*
X3897965Y5721382D01*
X3879462Y5734201D01*
X3865800Y5740407D01*
X3858968Y5743510D01*
X3837141Y5749010D01*
X3823922Y5750050D01*
X3823921Y5750050D01*
X3783700Y5750050D01*
X3769641Y5752071D01*
X3756722Y5757971D01*
X3745988Y5767272D01*
X3738309Y5779221D01*
X3734308Y5792848D01*
X3733800Y5799950D01*
X3733800Y6061092D01*
X3732113Y6071742D01*
X3730721Y6080533D01*
X3728509Y6087341D01*
X3728220Y6088230D01*
X3724639Y6099252D01*
X3724639Y6099252D01*
X3724638Y6099253D01*
X3715702Y6116790D01*
X3704133Y6132715D01*
X3591465Y6245383D01*
X3575540Y6256952D01*
X3575540Y6256953D01*
X3575540Y6256953D01*
X3558003Y6265888D01*
X3558003Y6265888D01*
X3558003Y6265888D01*
X3558002Y6265889D01*
X3558001Y6265889D01*
X3539283Y6271971D01*
X3539282Y6271971D01*
X3519842Y6275050D01*
X3519842Y6275050D01*
X3433450Y6275050D01*
X3419391Y6277071D01*
X3406472Y6282971D01*
X3395738Y6292272D01*
X3388059Y6304221D01*
X3384058Y6317848D01*
X3383550Y6324950D01*
X3383550Y6359050D01*
X3385571Y6373109D01*
X3391471Y6386028D01*
X3400772Y6396762D01*
X3412721Y6404441D01*
X3426348Y6408442D01*
X3433450Y6408950D01*
X3573533Y6408950D01*
X3587592Y6406929D01*
G37*
%TD.AperFunction*%
%TA.AperFunction,NonConductor*%
G36*
X6128774Y5851590D02*
G01*
X6141002Y5844366D01*
X6145050Y5840737D01*
X6435926Y5549861D01*
X6444437Y5538491D01*
X6449401Y5525184D01*
X6450414Y5511017D01*
X6447395Y5497139D01*
X6440588Y5484673D01*
X6430545Y5474630D01*
X6418079Y5467823D01*
X6404201Y5464804D01*
X6400641Y5464677D01*
X5653429Y5464677D01*
X5639370Y5466698D01*
X5626451Y5472598D01*
X5618144Y5479292D01*
X5608218Y5489219D01*
X5608216Y5489221D01*
X5604090Y5492930D01*
X5594987Y5503833D01*
X5589325Y5516858D01*
X5587562Y5530952D01*
X5589840Y5544971D01*
X5595976Y5557780D01*
X5602168Y5565321D01*
X5696529Y5659681D01*
X5707898Y5668192D01*
X5721206Y5673156D01*
X5735372Y5674169D01*
X5749251Y5671150D01*
X5759105Y5666171D01*
X5774716Y5655972D01*
X5774717Y5655971D01*
X5774717Y5655971D01*
X5797490Y5645982D01*
X5821596Y5639877D01*
X5846378Y5637824D01*
X5871160Y5639877D01*
X5895266Y5645982D01*
X5918039Y5655971D01*
X5938857Y5669572D01*
X5946622Y5676429D01*
X6029048Y5758855D01*
X6035905Y5766620D01*
X6049506Y5787438D01*
X6059495Y5810211D01*
X6061392Y5817703D01*
X6066803Y5830834D01*
X6075694Y5841910D01*
X6087345Y5850032D01*
X6100813Y5854543D01*
X6115006Y5855077D01*
X6128774Y5851590D01*
G37*
%TD.AperFunction*%
%TA.AperFunction,NonConductor*%
G36*
X3447858Y6022929D02*
G01*
X3460778Y6017029D01*
X3471512Y6007728D01*
X3479191Y5995779D01*
X3483192Y5982151D01*
X3483700Y5975050D01*
X3483700Y5717572D01*
X3481679Y5703513D01*
X3475779Y5690594D01*
X3474818Y5689155D01*
X3473299Y5686962D01*
X3470034Y5679773D01*
X3462379Y5667809D01*
X3461617Y5667146D01*
X3460957Y5654697D01*
X3460398Y5652211D01*
X3458490Y5644642D01*
X3458490Y5644642D01*
X3457450Y5631422D01*
X3457450Y5528579D01*
X3457450Y5528577D01*
X3458490Y5515359D01*
X3458490Y5515359D01*
X3458490Y5515359D01*
X3460039Y5509213D01*
X3463081Y5497139D01*
X3463990Y5493532D01*
X3466464Y5488086D01*
X3470437Y5474451D01*
X3470408Y5460248D01*
X3466379Y5446628D01*
X3458676Y5434696D01*
X3447923Y5425416D01*
X3434991Y5419543D01*
X3421031Y5417550D01*
X3399950Y5417550D01*
X3385891Y5419571D01*
X3372972Y5425471D01*
X3362238Y5434772D01*
X3354559Y5446721D01*
X3350558Y5460349D01*
X3350050Y5467450D01*
X3350050Y5643379D01*
X3352071Y5657438D01*
X3357971Y5670357D01*
X3360844Y5674317D01*
X3361069Y5674659D01*
X3361069Y5674659D01*
X3361070Y5674659D01*
X3367781Y5687507D01*
X3375214Y5697828D01*
X3375194Y5707411D01*
X3375727Y5709913D01*
X3375655Y5709926D01*
X3376088Y5712258D01*
X3376088Y5712258D01*
X3376089Y5712258D01*
X3377150Y5724196D01*
X3377150Y5975050D01*
X3379171Y5989108D01*
X3385071Y6002028D01*
X3394372Y6012762D01*
X3406321Y6020441D01*
X3419948Y6024442D01*
X3427050Y6024950D01*
X3433800Y6024950D01*
X3447858Y6022929D01*
G37*
%TD.AperFunction*%
%TA.AperFunction,NonConductor*%
G36*
X5301924Y5223823D02*
G01*
X5314390Y5217017D01*
X5321592Y5210433D01*
X5325302Y5206307D01*
X5325304Y5206305D01*
X5391575Y5140035D01*
X5391575Y5140034D01*
X5391576Y5140034D01*
X5395494Y5136510D01*
X5408253Y5127887D01*
X5414893Y5123399D01*
X5414893Y5123399D01*
X5414893Y5123399D01*
X5436229Y5113755D01*
X5458888Y5107855D01*
X5458888Y5107855D01*
X5458889Y5107854D01*
X5482218Y5105869D01*
X5482218Y5105869D01*
X5482219Y5105869D01*
X5505548Y5107854D01*
X5505548Y5107855D01*
X5505548Y5107855D01*
X5528207Y5113755D01*
X5549543Y5123399D01*
X5560097Y5130532D01*
X5572875Y5136729D01*
X5586883Y5139076D01*
X5600985Y5137381D01*
X5614037Y5131781D01*
X5623324Y5124474D01*
X5770260Y4977538D01*
X5778771Y4966168D01*
X5781405Y4959929D01*
X5781576Y4959996D01*
X5784096Y4953576D01*
X5787350Y4939751D01*
X5786578Y4925569D01*
X5781841Y4912179D01*
X5773524Y4900666D01*
X5762300Y4891963D01*
X5757325Y4889491D01*
X5755857Y4888861D01*
X5738065Y4878986D01*
X5728872Y4871294D01*
X5728872Y4871293D01*
X5451485Y4593906D01*
X5440115Y4585395D01*
X5426807Y4580431D01*
X5412640Y4579418D01*
X5398762Y4582437D01*
X5386296Y4589244D01*
X5376253Y4599287D01*
X5369446Y4611753D01*
X5366427Y4625631D01*
X5366300Y4629191D01*
X5366300Y4732428D01*
X5368321Y4746487D01*
X5374221Y4759406D01*
X5375183Y4760846D01*
X5376701Y4763037D01*
X5386010Y4783532D01*
X5391510Y4805359D01*
X5392550Y4818578D01*
X5392550Y4921422D01*
X5391510Y4934641D01*
X5386010Y4956468D01*
X5380866Y4967793D01*
X5376701Y4976963D01*
X5363882Y4995465D01*
X5363881Y4995466D01*
X5347966Y5011381D01*
X5347965Y5011382D01*
X5329462Y5024201D01*
X5315800Y5030407D01*
X5308968Y5033510D01*
X5287141Y5039010D01*
X5273922Y5040050D01*
X5273922Y5040050D01*
X5233700Y5040050D01*
X5219642Y5042071D01*
X5206722Y5047971D01*
X5195988Y5057272D01*
X5188309Y5069221D01*
X5184308Y5082849D01*
X5183800Y5089950D01*
X5183800Y5126284D01*
X5185821Y5140342D01*
X5191721Y5153262D01*
X5198415Y5161567D01*
X5249202Y5212355D01*
X5260571Y5220866D01*
X5273879Y5225829D01*
X5288046Y5226843D01*
X5301924Y5223823D01*
G37*
%TD.AperFunction*%
%TA.AperFunction,NonConductor*%
G36*
X4060588Y5165429D02*
G01*
X4073508Y5159529D01*
X4084242Y5150228D01*
X4091921Y5138279D01*
X4095922Y5124652D01*
X4096430Y5117550D01*
X4096430Y4632111D01*
X4094409Y4618052D01*
X4088509Y4605133D01*
X4079208Y4594399D01*
X4067259Y4586720D01*
X4053631Y4582719D01*
X4039428Y4582719D01*
X4027434Y4586009D01*
X4021167Y4588605D01*
X3997107Y4594381D01*
X3997107Y4594381D01*
X3997107Y4594381D01*
X3972439Y4596323D01*
X3947772Y4594381D01*
X3947771Y4594381D01*
X3947771Y4594381D01*
X3923711Y4588605D01*
X3923711Y4588605D01*
X3900852Y4579137D01*
X3900851Y4579136D01*
X3879754Y4566208D01*
X3879754Y4566208D01*
X3877846Y4564578D01*
X3865843Y4556985D01*
X3852187Y4553081D01*
X3837984Y4553183D01*
X3824386Y4557282D01*
X3813032Y4564578D01*
X3811979Y4565478D01*
X3811125Y4566207D01*
X3811125Y4566208D01*
X3811124Y4566208D01*
X3790028Y4579136D01*
X3790026Y4579137D01*
X3767167Y4588605D01*
X3741200Y4594839D01*
X3741242Y4595012D01*
X3729896Y4598520D01*
X3718058Y4606368D01*
X3708911Y4617234D01*
X3703196Y4630236D01*
X3701370Y4643611D01*
X3701370Y4743522D01*
X3698291Y4762963D01*
X3698291Y4762963D01*
X3696731Y4767763D01*
X3692208Y4781683D01*
X3683272Y4799221D01*
X3671703Y4815145D01*
X3671702Y4815145D01*
X3404582Y5082265D01*
X3396070Y5093636D01*
X3391107Y5106943D01*
X3390094Y5121110D01*
X3393113Y5134988D01*
X3399920Y5147454D01*
X3409963Y5157497D01*
X3422428Y5164304D01*
X3436307Y5167323D01*
X3439867Y5167450D01*
X4046530Y5167450D01*
X4060588Y5165429D01*
G37*
%TD.AperFunction*%
%TA.AperFunction,NonConductor*%
G36*
X2580609Y6792929D02*
G01*
X2593528Y6787029D01*
X2604262Y6777728D01*
X2611941Y6765779D01*
X2615942Y6752151D01*
X2616450Y6745050D01*
X2616450Y6212197D01*
X2617073Y6205186D01*
X2617511Y6200258D01*
X2619002Y6195050D01*
X2622333Y6183406D01*
X2623109Y6180695D01*
X2632530Y6162659D01*
X2640725Y6152609D01*
X2648042Y6140436D01*
X2651634Y6126695D01*
X2651209Y6112498D01*
X2646801Y6098997D01*
X2640725Y6089542D01*
X2638930Y6087341D01*
X2629510Y6069306D01*
X2629509Y6069305D01*
X2624599Y6052143D01*
X2623911Y6049742D01*
X2622850Y6037804D01*
X2622850Y6037803D01*
X2622850Y6037803D01*
X2622850Y5724197D01*
X2623439Y5717572D01*
X2623911Y5712258D01*
X2626854Y5701975D01*
X2629509Y5692695D01*
X2629510Y5692694D01*
X2638930Y5674659D01*
X2638930Y5674659D01*
X2651789Y5658889D01*
X2651789Y5658889D01*
X2667559Y5646030D01*
X2667559Y5646030D01*
X2685595Y5636609D01*
X2705158Y5631011D01*
X2717096Y5629950D01*
X2782533Y5629950D01*
X2796592Y5627929D01*
X2809511Y5622029D01*
X2817818Y5615335D01*
X2934314Y5498839D01*
X2942826Y5487469D01*
X2947789Y5474161D01*
X2948802Y5459994D01*
X2945783Y5446116D01*
X2938976Y5433650D01*
X2934314Y5428270D01*
X2931109Y5425064D01*
X2919059Y5407474D01*
X2910447Y5387969D01*
X2910447Y5387968D01*
X2905565Y5367212D01*
X2904950Y5358350D01*
X2904947Y5358262D01*
X2904942Y5358234D01*
X2904890Y5357489D01*
X2904809Y5357495D01*
X2902439Y5344282D01*
X2896094Y5331575D01*
X2890361Y5324709D01*
X2414617Y4848965D01*
X2414617Y4848965D01*
X2404435Y4834950D01*
X2403048Y4833041D01*
X2403047Y4833040D01*
X2394112Y4815503D01*
X2394111Y4815502D01*
X2392024Y4809079D01*
X2385758Y4796333D01*
X2376154Y4785869D01*
X2363991Y4778535D01*
X2350255Y4774924D01*
X2336057Y4775330D01*
X2322550Y4779719D01*
X2310825Y4787736D01*
X2301835Y4798731D01*
X2298992Y4804493D01*
X2298967Y4804481D01*
X2298157Y4806163D01*
X2298157Y4806164D01*
X2285039Y4828886D01*
X2268681Y4849398D01*
X2265401Y4852441D01*
X2250887Y4865908D01*
X2249448Y4867243D01*
X2235680Y4876630D01*
X2225204Y4886219D01*
X2217853Y4898372D01*
X2214223Y4912104D01*
X2214610Y4926301D01*
X2218980Y4939815D01*
X2226981Y4951550D01*
X2237964Y4960556D01*
X2251039Y4966103D01*
X2256352Y4967202D01*
X2276434Y4970228D01*
X2302220Y4978183D01*
X2326534Y4989891D01*
X2348830Y5005093D01*
X2368612Y5023448D01*
X2385438Y5044546D01*
X2398931Y5067917D01*
X2408790Y5093037D01*
X2414795Y5119346D01*
X2416811Y5146256D01*
X2416759Y5146953D01*
X2416238Y5153901D01*
X2415760Y5160280D01*
X2416725Y5174449D01*
X2421643Y5187774D01*
X2430116Y5199173D01*
X2441457Y5207723D01*
X2454748Y5212732D01*
X2468911Y5213793D01*
X2469251Y5213769D01*
X2470250Y5213694D01*
X2470251Y5213694D01*
X2470251Y5213694D01*
X2497236Y5213694D01*
X2497237Y5213694D01*
X2523921Y5217716D01*
X2549708Y5225670D01*
X2574021Y5237379D01*
X2596318Y5252580D01*
X2616100Y5270935D01*
X2632925Y5292034D01*
X2646418Y5315404D01*
X2656277Y5340524D01*
X2662282Y5366833D01*
X2664299Y5393744D01*
X2662282Y5420654D01*
X2656277Y5446963D01*
X2653821Y5453220D01*
X2646418Y5472083D01*
X2646418Y5472084D01*
X2632926Y5495453D01*
X2632925Y5495454D01*
X2627937Y5501710D01*
X2616100Y5516552D01*
X2596318Y5534907D01*
X2587142Y5541163D01*
X2574021Y5550109D01*
X2561030Y5556365D01*
X2549709Y5561817D01*
X2549708Y5561817D01*
X2549708Y5561817D01*
X2549708Y5561818D01*
X2523921Y5569772D01*
X2523921Y5569772D01*
X2523921Y5569772D01*
X2513324Y5571369D01*
X2497237Y5573794D01*
X2470251Y5573794D01*
X2457890Y5571931D01*
X2443567Y5569772D01*
X2438061Y5568073D01*
X2417780Y5561818D01*
X2417779Y5561817D01*
X2417779Y5561817D01*
X2393467Y5550109D01*
X2393466Y5550109D01*
X2371169Y5534907D01*
X2351387Y5516552D01*
X2334563Y5495455D01*
X2334562Y5495453D01*
X2321069Y5472084D01*
X2321069Y5472083D01*
X2311210Y5446964D01*
X2306380Y5425799D01*
X2305205Y5420654D01*
X2303189Y5393744D01*
X2304240Y5379721D01*
X2303275Y5365551D01*
X2298356Y5352226D01*
X2289884Y5340827D01*
X2278543Y5332277D01*
X2265252Y5327269D01*
X2251089Y5326207D01*
X2250751Y5326231D01*
X2249750Y5326306D01*
X2249749Y5326306D01*
X2222763Y5326306D01*
X2212166Y5324709D01*
X2196079Y5322284D01*
X2190575Y5320586D01*
X2170292Y5314330D01*
X2170292Y5314330D01*
X2170291Y5314330D01*
X2145980Y5302622D01*
X2145979Y5302621D01*
X2123682Y5287420D01*
X2103900Y5269065D01*
X2087075Y5247967D01*
X2087074Y5247966D01*
X2073582Y5224596D01*
X2073582Y5224596D01*
X2063723Y5199476D01*
X2058035Y5174557D01*
X2057718Y5173167D01*
X2055701Y5146256D01*
X2057718Y5119346D01*
X2057718Y5119346D01*
X2063723Y5093036D01*
X2073582Y5067917D01*
X2073582Y5067917D01*
X2087074Y5044547D01*
X2087075Y5044545D01*
X2103900Y5023448D01*
X2123682Y5005093D01*
X2139380Y4994390D01*
X2149857Y4984801D01*
X2157208Y4972648D01*
X2160838Y4958916D01*
X2160451Y4944719D01*
X2156081Y4931205D01*
X2148080Y4919470D01*
X2137097Y4910464D01*
X2124022Y4904917D01*
X2118708Y4903818D01*
X2100940Y4901140D01*
X2100939Y4901140D01*
X2100939Y4901140D01*
X2100939Y4901140D01*
X2075868Y4893406D01*
X2075867Y4893406D01*
X2075867Y4893406D01*
X2052230Y4882023D01*
X2052229Y4882022D01*
X2030552Y4867243D01*
X2011320Y4849398D01*
X1994962Y4828887D01*
X1994961Y4828885D01*
X1981843Y4806165D01*
X1981842Y4806163D01*
X1972258Y4781742D01*
X1972258Y4781742D01*
X1967972Y4762963D01*
X1966420Y4756163D01*
X1964459Y4730000D01*
X1966420Y4703837D01*
X1972121Y4678858D01*
X1972258Y4678259D01*
X1972258Y4678258D01*
X1981842Y4653837D01*
X1982653Y4652155D01*
X1982380Y4652023D01*
X1986507Y4641714D01*
X1987858Y4627576D01*
X1985170Y4613629D01*
X1978661Y4601005D01*
X1968860Y4590726D01*
X1956560Y4583624D01*
X1942757Y4580276D01*
X1938014Y4580050D01*
X1916079Y4580050D01*
X1916077Y4580050D01*
X1902859Y4579010D01*
X1902859Y4579010D01*
X1881032Y4573510D01*
X1860537Y4564201D01*
X1842035Y4551382D01*
X1842034Y4551381D01*
X1826119Y4535466D01*
X1826118Y4535465D01*
X1819681Y4526175D01*
X1810014Y4515770D01*
X1797806Y4508510D01*
X1784048Y4504984D01*
X1769854Y4505477D01*
X1756373Y4509948D01*
X1744698Y4518037D01*
X1743379Y4519308D01*
X1369245Y4893443D01*
X1369245Y4893443D01*
X1353321Y4905012D01*
X1353320Y4905013D01*
X1353320Y4905013D01*
X1335783Y4913948D01*
X1335783Y4913948D01*
X1335783Y4913948D01*
X1335782Y4913949D01*
X1335781Y4913949D01*
X1317063Y4920031D01*
X1317063Y4920031D01*
X1297622Y4923110D01*
X1297622Y4923110D01*
X1297044Y4923110D01*
X1296346Y4923211D01*
X1295668Y4923264D01*
X1295671Y4923308D01*
X1282986Y4925131D01*
X1270066Y4931031D01*
X1259333Y4940332D01*
X1251654Y4952281D01*
X1247652Y4965909D01*
X1247652Y4980112D01*
X1251654Y4993739D01*
X1259333Y5005688D01*
X1263807Y5009983D01*
X1263718Y5010079D01*
X1272541Y5018265D01*
X1284869Y5029704D01*
X1301694Y5050802D01*
X1315187Y5074173D01*
X1325046Y5099293D01*
X1331051Y5125602D01*
X1333068Y5152513D01*
X1332757Y5156655D01*
X1332257Y5163326D01*
X1332017Y5166536D01*
X1332982Y5180706D01*
X1337900Y5194030D01*
X1346372Y5205429D01*
X1357714Y5213979D01*
X1371004Y5218988D01*
X1385167Y5220049D01*
X1385507Y5220025D01*
X1386507Y5219950D01*
X1386507Y5219950D01*
X1386508Y5219950D01*
X1413492Y5219950D01*
X1413493Y5219950D01*
X1440177Y5223972D01*
X1465964Y5231926D01*
X1490277Y5243635D01*
X1512574Y5258837D01*
X1532356Y5277192D01*
X1549181Y5298290D01*
X1562674Y5321660D01*
X1572533Y5346781D01*
X1578538Y5373090D01*
X1580555Y5400000D01*
X1578538Y5426910D01*
X1572533Y5453220D01*
X1570871Y5457455D01*
X1562674Y5478340D01*
X1562674Y5478340D01*
X1553903Y5493532D01*
X1549181Y5501710D01*
X1543198Y5509213D01*
X1532356Y5522808D01*
X1512574Y5541163D01*
X1499817Y5549861D01*
X1490277Y5556365D01*
X1478955Y5561818D01*
X1465965Y5568074D01*
X1465965Y5568074D01*
X1465964Y5568074D01*
X1465964Y5568074D01*
X1440177Y5576028D01*
X1440177Y5576028D01*
X1440177Y5576028D01*
X1429580Y5577625D01*
X1413493Y5580050D01*
X1386507Y5580050D01*
X1374146Y5578187D01*
X1359823Y5576028D01*
X1343810Y5571089D01*
X1334036Y5568074D01*
X1334036Y5568074D01*
X1334035Y5568073D01*
X1309723Y5556366D01*
X1309722Y5556365D01*
X1287426Y5541163D01*
X1267644Y5522808D01*
X1250819Y5501711D01*
X1250818Y5501710D01*
X1237326Y5478340D01*
X1237326Y5478340D01*
X1227467Y5453220D01*
X1225845Y5446116D01*
X1221462Y5426910D01*
X1219445Y5400000D01*
X1220496Y5385977D01*
X1219531Y5371807D01*
X1214613Y5358483D01*
X1206140Y5347084D01*
X1194799Y5338534D01*
X1181508Y5333525D01*
X1167345Y5332463D01*
X1167007Y5332488D01*
X1166006Y5332563D01*
X1166006Y5332563D01*
X1139020Y5332563D01*
X1126658Y5330700D01*
X1112336Y5328541D01*
X1099914Y5324709D01*
X1086549Y5320586D01*
X1086548Y5320586D01*
X1086548Y5320586D01*
X1062236Y5308878D01*
X1062235Y5308878D01*
X1039938Y5293676D01*
X1020156Y5275321D01*
X1003332Y5254224D01*
X1003331Y5254222D01*
X989838Y5230852D01*
X989838Y5230852D01*
X982269Y5211567D01*
X975251Y5199219D01*
X965039Y5189348D01*
X952459Y5182754D01*
X938531Y5179972D01*
X924384Y5181226D01*
X911163Y5186415D01*
X900534Y5194513D01*
X867165Y5227882D01*
X858654Y5239252D01*
X853690Y5252560D01*
X852550Y5263167D01*
X852550Y5271421D01*
X852550Y5271423D01*
X852096Y5277192D01*
X851510Y5284641D01*
X846010Y5306468D01*
X836701Y5326963D01*
X835182Y5329155D01*
X828837Y5341862D01*
X826330Y5355842D01*
X826300Y5357572D01*
X826300Y5388743D01*
X828321Y5402802D01*
X834221Y5415721D01*
X840915Y5424028D01*
X1120009Y5703122D01*
X1399702Y5982814D01*
X1411071Y5991326D01*
X1424379Y5996289D01*
X1438546Y5997302D01*
X1452424Y5994283D01*
X1464890Y5987476D01*
X1474933Y5977433D01*
X1481740Y5964968D01*
X1484759Y5951089D01*
X1484084Y5938620D01*
X1482149Y5927955D01*
X1482149Y5927954D01*
X1482149Y5905445D01*
X1485499Y5886982D01*
X1486168Y5883297D01*
X1486168Y5883297D01*
X1494077Y5862223D01*
X1494077Y5862223D01*
X1505621Y5842901D01*
X1505622Y5842900D01*
X1505622Y5842900D01*
X1514234Y5832817D01*
X1514235Y5832816D01*
X1514235Y5832816D01*
X1642815Y5704236D01*
X1642818Y5704233D01*
X1644119Y5703122D01*
X1652900Y5695622D01*
X1672223Y5684077D01*
X1693297Y5676168D01*
X1715445Y5672149D01*
X1715445Y5672149D01*
X1737954Y5672149D01*
X1737954Y5672149D01*
X1760102Y5676168D01*
X1781176Y5684077D01*
X1800499Y5695622D01*
X1810583Y5704234D01*
X1907345Y5800997D01*
X1915957Y5811080D01*
X1927502Y5830403D01*
X1935412Y5851477D01*
X1935412Y5851478D01*
X1935971Y5853505D01*
X1941660Y5866519D01*
X1950784Y5877404D01*
X1962606Y5885276D01*
X1965081Y5886282D01*
X1965050Y5886356D01*
X1973199Y5889732D01*
X1989212Y5896365D01*
X2010447Y5908625D01*
X2029900Y5923552D01*
X2047238Y5940890D01*
X2062165Y5960343D01*
X2074425Y5981577D01*
X2083808Y6004231D01*
X2089529Y6025582D01*
X2095120Y6038637D01*
X2104163Y6049590D01*
X2115925Y6057551D01*
X2124812Y6060866D01*
X2146164Y6066587D01*
X2168818Y6075970D01*
X2190052Y6088230D01*
X2209505Y6103157D01*
X2226843Y6120495D01*
X2241770Y6139948D01*
X2254030Y6161182D01*
X2263413Y6183836D01*
X2269134Y6205187D01*
X2274725Y6218243D01*
X2283768Y6229195D01*
X2295530Y6237156D01*
X2304418Y6240471D01*
X2325769Y6246192D01*
X2348423Y6255575D01*
X2369658Y6267835D01*
X2389110Y6282762D01*
X2406449Y6300100D01*
X2421375Y6319553D01*
X2433635Y6340788D01*
X2443018Y6363441D01*
X2449365Y6387125D01*
X2452565Y6411435D01*
X2452565Y6435955D01*
X2449365Y6460265D01*
X2443018Y6483950D01*
X2433635Y6506603D01*
X2421375Y6527838D01*
X2412423Y6539504D01*
X2406449Y6547290D01*
X2406448Y6547291D01*
X2357291Y6596448D01*
X2357290Y6596449D01*
X2337837Y6611375D01*
X2316603Y6623635D01*
X2293950Y6633018D01*
X2270266Y6639364D01*
X2270264Y6639365D01*
X2245955Y6642565D01*
X2221435Y6642565D01*
X2197126Y6639365D01*
X2197125Y6639365D01*
X2184572Y6636001D01*
X2170470Y6634315D01*
X2156463Y6636670D01*
X2143688Y6642876D01*
X2133178Y6652430D01*
X2125786Y6664558D01*
X2122110Y6678277D01*
X2122448Y6692476D01*
X2126773Y6706005D01*
X2134734Y6717767D01*
X2136369Y6719481D01*
X2197222Y6780335D01*
X2208592Y6788846D01*
X2221900Y6793810D01*
X2232507Y6794950D01*
X2566550Y6794950D01*
X2580609Y6792929D01*
G37*
%TD.AperFunction*%
%TA.AperFunction,NonConductor*%
G36*
X6334742Y5162556D02*
G01*
X6347662Y5156655D01*
X6358396Y5147354D01*
X6366074Y5135406D01*
X6370076Y5121778D01*
X6370076Y5107575D01*
X6366074Y5093948D01*
X6358396Y5081999D01*
X6353091Y5076733D01*
X6352423Y5076162D01*
X6352421Y5076160D01*
X6223841Y4947580D01*
X6223838Y4947577D01*
X6215227Y4937495D01*
X6211403Y4931095D01*
X6202458Y4920063D01*
X6192696Y4913330D01*
X6195127Y4900716D01*
X6194382Y4889432D01*
X6191754Y4874951D01*
X6191754Y4874950D01*
X6191754Y4852441D01*
X6195274Y4833041D01*
X6195773Y4830293D01*
X6195773Y4830292D01*
X6203682Y4809219D01*
X6203682Y4809219D01*
X6215227Y4789897D01*
X6215227Y4789896D01*
X6215227Y4789896D01*
X6223839Y4779812D01*
X6223840Y4779811D01*
X6223840Y4779811D01*
X6320601Y4683051D01*
X6320603Y4683049D01*
X6330685Y4674438D01*
X6350009Y4662893D01*
X6371083Y4654983D01*
X6371083Y4654983D01*
X6373111Y4654424D01*
X6386125Y4648735D01*
X6397009Y4639610D01*
X6404882Y4627789D01*
X6405888Y4625315D01*
X6405962Y4625345D01*
X6415970Y4601183D01*
X6428040Y4580276D01*
X6428230Y4579948D01*
X6429831Y4577861D01*
X6436786Y4565478D01*
X6439970Y4551636D01*
X6439125Y4537458D01*
X6434320Y4524093D01*
X6425945Y4512622D01*
X6414677Y4503976D01*
X6401429Y4498854D01*
X6390243Y4497584D01*
X6256537Y4497584D01*
X6242478Y4499605D01*
X6229559Y4505506D01*
X6221252Y4512200D01*
X5975420Y4758032D01*
X5966908Y4769402D01*
X5961945Y4782710D01*
X5960931Y4796876D01*
X5963951Y4810755D01*
X5970757Y4823220D01*
X5980800Y4833264D01*
X5993266Y4840070D01*
X5995993Y4840999D01*
X6014132Y4846594D01*
X6037770Y4857977D01*
X6059448Y4872757D01*
X6078680Y4890602D01*
X6095039Y4911114D01*
X6102069Y4923292D01*
X6110848Y4934456D01*
X6121057Y4941725D01*
X6118693Y4955060D01*
X6119918Y4967792D01*
X6123580Y4983837D01*
X6125541Y5010000D01*
X6123580Y5036163D01*
X6117742Y5061742D01*
X6112863Y5074173D01*
X6108157Y5086163D01*
X6108157Y5086164D01*
X6108157Y5086164D01*
X6106100Y5089727D01*
X6100821Y5102912D01*
X6099471Y5117051D01*
X6102159Y5130997D01*
X6108667Y5143622D01*
X6118468Y5153901D01*
X6130768Y5161002D01*
X6144571Y5164351D01*
X6149315Y5164577D01*
X6320684Y5164577D01*
X6334742Y5162556D01*
G37*
%TD.AperFunction*%
%TA.AperFunction,NonConductor*%
G36*
X4490815Y5221311D02*
G01*
X4503281Y5214504D01*
X4513324Y5204461D01*
X4520131Y5191995D01*
X4523150Y5178117D01*
X4523277Y5174557D01*
X4523277Y4579182D01*
X4521256Y4565123D01*
X4515356Y4552204D01*
X4506055Y4541470D01*
X4500770Y4537705D01*
X4500869Y4537558D01*
X4499510Y4536650D01*
X4478710Y4520689D01*
X4460173Y4502152D01*
X4444212Y4481352D01*
X4444211Y4481351D01*
X4439645Y4473441D01*
X4430865Y4462277D01*
X4419295Y4454038D01*
X4405873Y4449393D01*
X4391687Y4448717D01*
X4377884Y4452066D01*
X4365584Y4459167D01*
X4355783Y4469446D01*
X4349274Y4482071D01*
X4346587Y4496017D01*
X4346530Y4498391D01*
X4346530Y5125614D01*
X4348551Y5139672D01*
X4354451Y5152592D01*
X4363752Y5163326D01*
X4375701Y5171004D01*
X4381010Y5173071D01*
X4391906Y5176612D01*
X4409444Y5185548D01*
X4425368Y5197117D01*
X4438092Y5209842D01*
X4449463Y5218353D01*
X4462770Y5223317D01*
X4476937Y5224330D01*
X4490815Y5221311D01*
G37*
%TD.AperFunction*%
%TA.AperFunction,NonConductor*%
G36*
X1079736Y4679301D02*
G01*
X1085713Y4677761D01*
X1090857Y4676089D01*
X1090857Y4676089D01*
X1110298Y4673010D01*
X1110298Y4673010D01*
X1215313Y4673010D01*
X1229372Y4670989D01*
X1242291Y4665089D01*
X1250598Y4658395D01*
X1418758Y4490235D01*
X1427270Y4478865D01*
X1432233Y4465557D01*
X1433246Y4451390D01*
X1430227Y4437512D01*
X1423420Y4425046D01*
X1413377Y4415003D01*
X1400912Y4408196D01*
X1387033Y4405177D01*
X1383473Y4405050D01*
X1098170Y4405050D01*
X1084112Y4407071D01*
X1071192Y4412971D01*
X1060458Y4422272D01*
X1052780Y4434221D01*
X1048778Y4447849D01*
X1048778Y4462052D01*
X1049521Y4466054D01*
X1052445Y4478865D01*
X1053580Y4483837D01*
X1055541Y4510000D01*
X1053580Y4536163D01*
X1047742Y4561742D01*
X1043123Y4573510D01*
X1038157Y4586163D01*
X1038157Y4586164D01*
X1038157Y4586164D01*
X1027078Y4605353D01*
X1021799Y4618539D01*
X1020449Y4632677D01*
X1023137Y4646624D01*
X1029645Y4659248D01*
X1039447Y4669527D01*
X1051747Y4676629D01*
X1065550Y4679977D01*
X1079736Y4679301D01*
G37*
%TD.AperFunction*%
%TA.AperFunction,NonConductor*%
G36*
X3328706Y4792043D02*
G01*
X3342159Y4787491D01*
X3353786Y4779333D01*
X3354888Y4778265D01*
X3436655Y4696498D01*
X3445166Y4685128D01*
X3450130Y4671820D01*
X3451270Y4661213D01*
X3451270Y4341255D01*
X3449249Y4327197D01*
X3443349Y4314277D01*
X3434048Y4303544D01*
X3422099Y4295865D01*
X3408471Y4291863D01*
X3394268Y4291863D01*
X3393933Y4291913D01*
X3381095Y4293848D01*
X3373118Y4295050D01*
X3346882Y4295050D01*
X3341947Y4294306D01*
X3325023Y4291755D01*
X3310821Y4291659D01*
X3297166Y4295568D01*
X3285166Y4303165D01*
X3275792Y4313835D01*
X3269804Y4326715D01*
X3267687Y4340759D01*
X3268113Y4347611D01*
X3269335Y4356891D01*
X3269335Y4383109D01*
X3265913Y4409102D01*
X3259127Y4434426D01*
X3249094Y4458647D01*
X3235986Y4481352D01*
X3220026Y4502151D01*
X3220025Y4502152D01*
X3220025Y4502152D01*
X3201488Y4520689D01*
X3201487Y4520690D01*
X3201487Y4520690D01*
X3180688Y4536650D01*
X3180688Y4536650D01*
X3179329Y4537558D01*
X3179507Y4537824D01*
X3170697Y4544757D01*
X3162462Y4556328D01*
X3157820Y4569752D01*
X3156921Y4579182D01*
X3156921Y4696552D01*
X3158942Y4710610D01*
X3164842Y4723530D01*
X3174143Y4734264D01*
X3186092Y4741942D01*
X3199383Y4745894D01*
X3219061Y4748860D01*
X3244132Y4756594D01*
X3267770Y4767977D01*
X3289448Y4782757D01*
X3289448Y4782757D01*
X3290991Y4783809D01*
X3291161Y4783559D01*
X3300735Y4789176D01*
X3314514Y4792620D01*
X3328706Y4792043D01*
G37*
%TD.AperFunction*%
%TA.AperFunction,NonConductor*%
G36*
X4897859Y5118630D02*
G01*
X4910778Y5112730D01*
X4921512Y5103429D01*
X4929191Y5091481D01*
X4933192Y5077853D01*
X4933700Y5070752D01*
X4933700Y5007572D01*
X4931679Y4993513D01*
X4925779Y4980594D01*
X4924819Y4979156D01*
X4923698Y4977538D01*
X4923299Y4976962D01*
X4918706Y4966850D01*
X4913990Y4956468D01*
X4908490Y4934641D01*
X4907595Y4923264D01*
X4907450Y4921422D01*
X4907450Y4818579D01*
X4907450Y4818577D01*
X4908490Y4805359D01*
X4908490Y4805359D01*
X4908490Y4805359D01*
X4911035Y4795260D01*
X4913990Y4783532D01*
X4923299Y4763038D01*
X4936118Y4744535D01*
X4936119Y4744534D01*
X4952034Y4728619D01*
X4952035Y4728618D01*
X4970538Y4715799D01*
X4977369Y4712696D01*
X4991032Y4706490D01*
X5012859Y4700990D01*
X5026078Y4699950D01*
X5066300Y4699950D01*
X5080358Y4697929D01*
X5093278Y4692029D01*
X5104012Y4682728D01*
X5111691Y4670779D01*
X5115692Y4657152D01*
X5116200Y4650050D01*
X5116200Y4543717D01*
X5114179Y4529658D01*
X5108279Y4516739D01*
X5101585Y4508432D01*
X5053766Y4460614D01*
X5053766Y4460613D01*
X5043216Y4446092D01*
X5042196Y4444689D01*
X5042196Y4444689D01*
X5033261Y4427152D01*
X5033260Y4427151D01*
X5029559Y4415759D01*
X5029559Y4415759D01*
X5027178Y4408431D01*
X5024099Y4388991D01*
X5024099Y4178138D01*
X5022077Y4164080D01*
X5016177Y4151160D01*
X5009484Y4142854D01*
X4987978Y4121349D01*
X4970132Y4103502D01*
X4958762Y4094991D01*
X4945454Y4090028D01*
X4931287Y4089014D01*
X4917409Y4092033D01*
X4904943Y4098840D01*
X4894900Y4108883D01*
X4888094Y4121349D01*
X4885374Y4132273D01*
X4882369Y4155102D01*
X4875583Y4180425D01*
X4865551Y4204647D01*
X4857812Y4218050D01*
X4852534Y4231236D01*
X4851184Y4245374D01*
X4853871Y4259321D01*
X4857812Y4267950D01*
X4861639Y4274577D01*
X4865551Y4281353D01*
X4875583Y4305575D01*
X4882369Y4330898D01*
X4885791Y4356891D01*
X4885791Y4383109D01*
X4882369Y4409102D01*
X4875583Y4434426D01*
X4865551Y4458647D01*
X4852442Y4481352D01*
X4836482Y4502151D01*
X4836482Y4502152D01*
X4836481Y4502152D01*
X4817944Y4520689D01*
X4817944Y4520690D01*
X4817943Y4520690D01*
X4797144Y4536650D01*
X4797144Y4536650D01*
X4795785Y4537558D01*
X4795964Y4537824D01*
X4787153Y4544757D01*
X4778918Y4556328D01*
X4774276Y4569752D01*
X4773377Y4579182D01*
X4773377Y5061302D01*
X4775398Y5075360D01*
X4781298Y5088280D01*
X4787992Y5096587D01*
X4797442Y5106036D01*
X4808812Y5114548D01*
X4822120Y5119511D01*
X4832727Y5120652D01*
X4883800Y5120652D01*
X4897859Y5118630D01*
G37*
%TD.AperFunction*%
%TA.AperFunction,NonConductor*%
G36*
X644348Y4788246D02*
G01*
X657337Y4782500D01*
X666145Y4775488D01*
X740335Y4701298D01*
X748846Y4689928D01*
X753810Y4676620D01*
X754950Y4666013D01*
X754950Y4651412D01*
X752929Y4637353D01*
X747029Y4624434D01*
X744063Y4620300D01*
X734962Y4608887D01*
X734961Y4608885D01*
X721843Y4586165D01*
X721842Y4586163D01*
X712258Y4561742D01*
X712258Y4561742D01*
X706799Y4537824D01*
X706420Y4536163D01*
X704459Y4510000D01*
X706420Y4483837D01*
X711392Y4462052D01*
X712258Y4458259D01*
X712258Y4458258D01*
X721842Y4433837D01*
X721843Y4433836D01*
X721843Y4433836D01*
X727027Y4424858D01*
X732716Y4415003D01*
X734961Y4411114D01*
X734962Y4411114D01*
X734962Y4411113D01*
X737101Y4408431D01*
X744123Y4399626D01*
X751320Y4390602D01*
X770552Y4372757D01*
X783886Y4363666D01*
X792230Y4357977D01*
X815868Y4346594D01*
X840938Y4338860D01*
X840940Y4338860D01*
X840940Y4338860D01*
X844631Y4338304D01*
X858231Y4334210D01*
X870127Y4326450D01*
X879355Y4315653D01*
X885167Y4302694D01*
X887093Y4288622D01*
X884976Y4274577D01*
X878988Y4261698D01*
X872479Y4253677D01*
X669735Y4050932D01*
X658364Y4042421D01*
X645057Y4037457D01*
X630890Y4036444D01*
X617012Y4039463D01*
X604546Y4046270D01*
X594503Y4056313D01*
X587696Y4068779D01*
X584677Y4082657D01*
X584550Y4086217D01*
X584550Y4089422D01*
X584550Y4089423D01*
X583805Y4098886D01*
X583510Y4102641D01*
X578010Y4124468D01*
X568701Y4144963D01*
X567663Y4146792D01*
X562483Y4160017D01*
X561238Y4174165D01*
X564030Y4188091D01*
X565069Y4190552D01*
X564995Y4190583D01*
X565620Y4192092D01*
X575003Y4214746D01*
X581350Y4238430D01*
X584550Y4262740D01*
X584550Y4287260D01*
X581350Y4311570D01*
X575003Y4335254D01*
X565620Y4357908D01*
X565620Y4357908D01*
X554568Y4377050D01*
X549289Y4390236D01*
X547939Y4404374D01*
X550627Y4418321D01*
X554568Y4426950D01*
X565620Y4446092D01*
X565620Y4446092D01*
X565620Y4446092D01*
X575003Y4468746D01*
X581350Y4492430D01*
X584550Y4516740D01*
X584550Y4541260D01*
X581350Y4565570D01*
X575003Y4589254D01*
X565620Y4611908D01*
X565620Y4611908D01*
X555387Y4629632D01*
X554568Y4631050D01*
X549289Y4644236D01*
X547939Y4658374D01*
X550627Y4672321D01*
X554568Y4680950D01*
X555781Y4683051D01*
X565620Y4700092D01*
X575003Y4722746D01*
X581350Y4746430D01*
X581387Y4746716D01*
X581453Y4746952D01*
X581668Y4748033D01*
X581752Y4748016D01*
X585226Y4760390D01*
X592762Y4772429D01*
X603384Y4781857D01*
X616233Y4787911D01*
X630266Y4790100D01*
X644348Y4788246D01*
G37*
%TD.AperFunction*%
%TA.AperFunction,NonConductor*%
G36*
X334988Y5279522D02*
G01*
X347454Y5272715D01*
X357497Y5262672D01*
X364304Y5250206D01*
X367323Y5236328D01*
X367450Y5232768D01*
X367450Y5168579D01*
X367450Y5168577D01*
X368490Y5155359D01*
X368490Y5155359D01*
X368490Y5155359D01*
X372274Y5140342D01*
X373990Y5133532D01*
X383299Y5113037D01*
X385543Y5109799D01*
X391888Y5097092D01*
X393811Y5089187D01*
X396779Y5070449D01*
X396779Y5070447D01*
X402861Y5051729D01*
X402862Y5051727D01*
X403332Y5050803D01*
X407510Y5042604D01*
X412092Y5029161D01*
X412700Y5014971D01*
X409286Y5001184D01*
X402126Y4988918D01*
X391800Y4979166D01*
X379145Y4972717D01*
X365186Y4970096D01*
X363049Y4970050D01*
X340240Y4970050D01*
X336554Y4969565D01*
X315930Y4966850D01*
X292246Y4960504D01*
X269591Y4951120D01*
X248359Y4938861D01*
X248357Y4938860D01*
X228905Y4923933D01*
X211567Y4906595D01*
X196640Y4887143D01*
X196639Y4887141D01*
X184380Y4865909D01*
X174996Y4843254D01*
X168650Y4819570D01*
X166664Y4804481D01*
X165450Y4795260D01*
X165450Y4770740D01*
X165842Y4767763D01*
X168650Y4746430D01*
X171364Y4736303D01*
X174997Y4722746D01*
X183881Y4701298D01*
X184380Y4700092D01*
X195432Y4680950D01*
X200710Y4667764D01*
X202061Y4653626D01*
X199373Y4639679D01*
X195432Y4631050D01*
X184380Y4611908D01*
X174996Y4589254D01*
X168650Y4565570D01*
X165450Y4541260D01*
X165450Y4516740D01*
X168650Y4492430D01*
X174809Y4469446D01*
X174997Y4468746D01*
X181906Y4452066D01*
X184380Y4446092D01*
X195432Y4426950D01*
X200710Y4413764D01*
X202061Y4399626D01*
X199373Y4385679D01*
X195432Y4377050D01*
X184380Y4357908D01*
X174996Y4335254D01*
X168650Y4311570D01*
X165450Y4287260D01*
X165450Y4262740D01*
X168650Y4238430D01*
X174536Y4216465D01*
X174997Y4214746D01*
X184380Y4192092D01*
X185005Y4190583D01*
X184686Y4190451D01*
X188104Y4179941D01*
X188514Y4165744D01*
X184907Y4152007D01*
X182338Y4146793D01*
X181299Y4144963D01*
X175536Y4132274D01*
X171990Y4124468D01*
X166490Y4102641D01*
X165597Y4091283D01*
X165450Y4089422D01*
X165450Y3977019D01*
X163429Y3962960D01*
X157529Y3950041D01*
X148228Y3939307D01*
X136279Y3931628D01*
X123357Y3927733D01*
X122140Y3927541D01*
X122139Y3927540D01*
X118037Y3926891D01*
X99319Y3920809D01*
X99317Y3920808D01*
X82604Y3912292D01*
X69160Y3907711D01*
X54970Y3907103D01*
X41184Y3910517D01*
X28917Y3917677D01*
X19165Y3928003D01*
X12717Y3940658D01*
X10096Y3954617D01*
X10050Y3956754D01*
X10050Y4975168D01*
X12071Y4989227D01*
X17971Y5002146D01*
X24665Y5010453D01*
X153289Y5139076D01*
X282266Y5268053D01*
X293636Y5276564D01*
X306943Y5281528D01*
X321110Y5282541D01*
X334988Y5279522D01*
G37*
%TD.AperFunction*%
%TA.AperFunction,NonConductor*%
G36*
X6507942Y4245463D02*
G01*
X6520862Y4239563D01*
X6530463Y4231525D01*
X6531319Y4230602D01*
X6534653Y4227508D01*
X6543584Y4216465D01*
X6549042Y4203352D01*
X6550584Y4189233D01*
X6548086Y4175251D01*
X6541750Y4162540D01*
X6532089Y4152128D01*
X6528822Y4149700D01*
X6510552Y4137243D01*
X6491320Y4119398D01*
X6474962Y4098887D01*
X6474961Y4098885D01*
X6461843Y4076164D01*
X6461842Y4076163D01*
X6452258Y4051742D01*
X6452258Y4051742D01*
X6446600Y4026951D01*
X6446420Y4026163D01*
X6446004Y4020617D01*
X6445601Y4015240D01*
X6442535Y4001372D01*
X6435686Y3988930D01*
X6425609Y3978921D01*
X6413120Y3972157D01*
X6399231Y3969185D01*
X6391926Y3969223D01*
X6381422Y3970050D01*
X6381422Y3970050D01*
X6316079Y3970050D01*
X6316077Y3970050D01*
X6302859Y3969010D01*
X6302859Y3969010D01*
X6281032Y3963510D01*
X6260537Y3954201D01*
X6242035Y3941382D01*
X6242034Y3941381D01*
X6226119Y3925466D01*
X6226118Y3925465D01*
X6213299Y3906963D01*
X6211709Y3903462D01*
X6204055Y3891498D01*
X6193340Y3882175D01*
X6180433Y3876249D01*
X6166379Y3874199D01*
X6166276Y3874199D01*
X5937089Y3874199D01*
X5923031Y3876220D01*
X5910111Y3882120D01*
X5899378Y3891421D01*
X5891699Y3903369D01*
X5887697Y3916997D01*
X5887697Y3931200D01*
X5891699Y3944828D01*
X5899378Y3956776D01*
X5901805Y3959383D01*
X6175290Y4232869D01*
X6186660Y4241380D01*
X6199968Y4246344D01*
X6210575Y4247484D01*
X6493884Y4247484D01*
X6507942Y4245463D01*
G37*
%TD.AperFunction*%
%TA.AperFunction,NonConductor*%
G36*
X5436460Y4114048D02*
G01*
X5448878Y4107156D01*
X5453984Y4102701D01*
X5502701Y4053984D01*
X5511212Y4042614D01*
X5516175Y4029307D01*
X5517189Y4015140D01*
X5514170Y4001261D01*
X5507363Y3988796D01*
X5497320Y3978753D01*
X5491632Y3975070D01*
X5487466Y3972757D01*
X5478273Y3965065D01*
X5365235Y3852027D01*
X5353865Y3843515D01*
X5340557Y3838552D01*
X5326390Y3837539D01*
X5312512Y3840558D01*
X5300046Y3847364D01*
X5290003Y3857407D01*
X5283196Y3869873D01*
X5280177Y3883752D01*
X5280050Y3887311D01*
X5280050Y3972589D01*
X5282071Y3986647D01*
X5287971Y3999567D01*
X5294665Y4007873D01*
X5365066Y4078274D01*
X5372757Y4087466D01*
X5375070Y4091632D01*
X5383659Y4102943D01*
X5395088Y4111376D01*
X5408429Y4116247D01*
X5422603Y4117163D01*
X5436460Y4114048D01*
G37*
%TD.AperFunction*%
%TA.AperFunction,NonConductor*%
G36*
X4178361Y4159153D02*
G01*
X4191483Y4153718D01*
X4201305Y4146088D01*
X4312857Y4034535D01*
X4326775Y4020617D01*
X4342700Y4009048D01*
X4360238Y4000112D01*
X4372875Y3996005D01*
X4378957Y3994029D01*
X4382237Y3993510D01*
X4395806Y3989314D01*
X4407644Y3981466D01*
X4416791Y3970600D01*
X4422506Y3957598D01*
X4424326Y3943512D01*
X4422105Y3929484D01*
X4421564Y3927983D01*
X4421596Y3927972D01*
X4421071Y3926426D01*
X4414285Y3901101D01*
X4410863Y3875109D01*
X4410863Y3848891D01*
X4414285Y3822899D01*
X4415528Y3818258D01*
X4420996Y3797853D01*
X4421071Y3797574D01*
X4431103Y3773353D01*
X4438842Y3759950D01*
X4444120Y3746764D01*
X4445470Y3732625D01*
X4442782Y3718679D01*
X4438842Y3710050D01*
X4431103Y3696647D01*
X4421071Y3672426D01*
X4414285Y3647101D01*
X4410863Y3621109D01*
X4410863Y3594891D01*
X4414285Y3568898D01*
X4414604Y3567297D01*
X4414425Y3567261D01*
X4415869Y3555175D01*
X4413514Y3541168D01*
X4407307Y3528393D01*
X4397753Y3517884D01*
X4385625Y3510492D01*
X4371906Y3506816D01*
X4357707Y3507155D01*
X4344178Y3511480D01*
X4337874Y3515134D01*
X4327771Y3522022D01*
X4327771Y3522022D01*
X4327770Y3522023D01*
X4314542Y3528393D01*
X4304133Y3533406D01*
X4304133Y3533406D01*
X4304133Y3533406D01*
X4304132Y3533406D01*
X4279062Y3541140D01*
X4279061Y3541140D01*
X4279061Y3541140D01*
X4268141Y3542786D01*
X4253118Y3545050D01*
X4226882Y3545050D01*
X4211859Y3542786D01*
X4200939Y3541140D01*
X4175867Y3533406D01*
X4175867Y3533406D01*
X4152230Y3522023D01*
X4152229Y3522022D01*
X4130552Y3507243D01*
X4111320Y3489398D01*
X4094962Y3468887D01*
X4094961Y3468885D01*
X4081843Y3446164D01*
X4081033Y3444481D01*
X4080792Y3444597D01*
X4075183Y3434726D01*
X4064970Y3424856D01*
X4052390Y3418262D01*
X4038463Y3415479D01*
X4024315Y3416733D01*
X4011094Y3421922D01*
X3999870Y3430626D01*
X3991553Y3442139D01*
X3986817Y3455529D01*
X3985850Y3465306D01*
X3985850Y3699336D01*
X3982771Y3718777D01*
X3982771Y3718777D01*
X3982584Y3719352D01*
X3980020Y3727243D01*
X3976688Y3737497D01*
X3969221Y3752153D01*
X3967752Y3755035D01*
X3956183Y3770959D01*
X3956183Y3770959D01*
X3767158Y3959984D01*
X3758646Y3971354D01*
X3753683Y3984662D01*
X3752669Y3998828D01*
X3755689Y4012707D01*
X3762495Y4025172D01*
X3772538Y4035216D01*
X3783346Y4041370D01*
X3790027Y4044137D01*
X3809896Y4056313D01*
X3811124Y4057066D01*
X3811124Y4057066D01*
X3811124Y4057066D01*
X3811125Y4057066D01*
X3813032Y4058695D01*
X3825035Y4066288D01*
X3838691Y4070192D01*
X3852893Y4070091D01*
X3866492Y4065992D01*
X3877846Y4058695D01*
X3879351Y4057410D01*
X3879754Y4057066D01*
X3879754Y4057066D01*
X3900851Y4044138D01*
X3900851Y4044137D01*
X3900851Y4044137D01*
X3900852Y4044137D01*
X3923711Y4034668D01*
X3923711Y4034668D01*
X3923712Y4034668D01*
X3947772Y4028892D01*
X3972439Y4026951D01*
X3997107Y4028892D01*
X4021167Y4034668D01*
X4021167Y4034668D01*
X4021168Y4034668D01*
X4044026Y4044137D01*
X4044026Y4044137D01*
X4044027Y4044137D01*
X4063896Y4056313D01*
X4065124Y4057066D01*
X4065124Y4057066D01*
X4065124Y4057066D01*
X4065125Y4057066D01*
X4083940Y4073136D01*
X4100010Y4091951D01*
X4100060Y4092033D01*
X4111913Y4111376D01*
X4112939Y4113049D01*
X4112939Y4113050D01*
X4119918Y4129899D01*
X4127166Y4142114D01*
X4137561Y4151792D01*
X4150262Y4158150D01*
X4164239Y4160672D01*
X4178361Y4159153D01*
G37*
%TD.AperFunction*%
%TA.AperFunction,NonConductor*%
G36*
X2103576Y3804950D02*
G01*
X2103578Y3804950D01*
X2156507Y3804950D01*
X2170566Y3802929D01*
X2183485Y3797029D01*
X2194219Y3787728D01*
X2201898Y3775779D01*
X2205899Y3762152D01*
X2205899Y3747949D01*
X2205793Y3747245D01*
X2204950Y3741922D01*
X2204950Y3377427D01*
X2202929Y3363369D01*
X2197029Y3350449D01*
X2187728Y3339716D01*
X2175779Y3332037D01*
X2162152Y3328035D01*
X2147949Y3328035D01*
X2134321Y3332037D01*
X2122372Y3339716D01*
X2119765Y3342143D01*
X2064665Y3397243D01*
X2056154Y3408613D01*
X2051190Y3421920D01*
X2050050Y3432527D01*
X2050050Y3755181D01*
X2052071Y3769240D01*
X2057971Y3782159D01*
X2067272Y3792893D01*
X2079221Y3800572D01*
X2092848Y3804573D01*
X2102594Y3804886D01*
X2102598Y3804988D01*
X2103576Y3804950D01*
G37*
%TD.AperFunction*%
%TA.AperFunction,NonConductor*%
G36*
X3569895Y3797853D02*
G01*
X3582195Y3790752D01*
X3586634Y3786812D01*
X3721135Y3652312D01*
X3729646Y3640942D01*
X3734610Y3627635D01*
X3735750Y3617028D01*
X3735750Y3384885D01*
X3733729Y3370827D01*
X3727829Y3357907D01*
X3718528Y3347173D01*
X3706579Y3339495D01*
X3692951Y3335493D01*
X3684985Y3335222D01*
X3684985Y3335050D01*
X3683118Y3335050D01*
X3656882Y3335050D01*
X3641859Y3332786D01*
X3630939Y3331140D01*
X3630938Y3331140D01*
X3610270Y3324764D01*
X3605867Y3323406D01*
X3605867Y3323406D01*
X3582230Y3312023D01*
X3582229Y3312022D01*
X3560552Y3297243D01*
X3541320Y3279398D01*
X3524962Y3258887D01*
X3524961Y3258885D01*
X3511843Y3236164D01*
X3511842Y3236163D01*
X3502258Y3211742D01*
X3502258Y3211742D01*
X3496420Y3186163D01*
X3496420Y3186163D01*
X3495948Y3179875D01*
X3492882Y3166007D01*
X3486033Y3153565D01*
X3481473Y3148320D01*
X3350414Y3017261D01*
X3339043Y3008750D01*
X3325736Y3003786D01*
X3311569Y3002773D01*
X3297691Y3005792D01*
X3285225Y3012599D01*
X3275182Y3022642D01*
X3268375Y3035107D01*
X3265356Y3048986D01*
X3266000Y3059239D01*
X3265700Y3059279D01*
X3269335Y3086891D01*
X3269335Y3113109D01*
X3267688Y3125617D01*
X3265913Y3139102D01*
X3259127Y3164425D01*
X3249094Y3188647D01*
X3241356Y3202050D01*
X3236078Y3215235D01*
X3234727Y3229374D01*
X3237415Y3243321D01*
X3241356Y3251950D01*
X3245360Y3258885D01*
X3249094Y3265353D01*
X3259127Y3289574D01*
X3265913Y3314898D01*
X3269335Y3340891D01*
X3269335Y3367109D01*
X3269335Y3367146D01*
X3271356Y3381205D01*
X3277256Y3394124D01*
X3286557Y3404858D01*
X3298506Y3412537D01*
X3312133Y3416538D01*
X3326336Y3416538D01*
X3326653Y3416492D01*
X3336882Y3414950D01*
X3336882Y3414950D01*
X3363118Y3414950D01*
X3363118Y3414950D01*
X3389061Y3418860D01*
X3414132Y3426594D01*
X3437770Y3437977D01*
X3459448Y3452757D01*
X3478680Y3470602D01*
X3495039Y3491114D01*
X3508157Y3513836D01*
X3508157Y3513837D01*
X3508157Y3513837D01*
X3512750Y3525540D01*
X3517742Y3538258D01*
X3523580Y3563837D01*
X3525541Y3590000D01*
X3523580Y3616163D01*
X3517742Y3641742D01*
X3510946Y3659057D01*
X3508157Y3666163D01*
X3508157Y3666164D01*
X3508157Y3666164D01*
X3495039Y3688886D01*
X3495038Y3688886D01*
X3492062Y3692618D01*
X3484877Y3704870D01*
X3481435Y3718650D01*
X3482014Y3732841D01*
X3486568Y3746294D01*
X3492061Y3754842D01*
X3505039Y3771114D01*
X3508135Y3776478D01*
X3516914Y3787642D01*
X3528484Y3795880D01*
X3541906Y3800526D01*
X3556093Y3801202D01*
X3569895Y3797853D01*
G37*
%TD.AperFunction*%
%TA.AperFunction,NonConductor*%
G36*
X4056479Y3320085D02*
G01*
X4068428Y3312406D01*
X4077729Y3301672D01*
X4080906Y3295458D01*
X4081033Y3295519D01*
X4081843Y3293836D01*
X4081843Y3293836D01*
X4094961Y3271114D01*
X4111319Y3250602D01*
X4130552Y3232757D01*
X4138779Y3227147D01*
X4149256Y3217558D01*
X4156607Y3205405D01*
X4160236Y3191674D01*
X4159850Y3177476D01*
X4155479Y3163962D01*
X4149683Y3154806D01*
X4144962Y3148887D01*
X4144961Y3148885D01*
X4131843Y3126164D01*
X4131842Y3126163D01*
X4122258Y3101742D01*
X4122258Y3101742D01*
X4116420Y3076163D01*
X4114459Y3050000D01*
X4116420Y3023837D01*
X4121920Y2999738D01*
X4122258Y2998258D01*
X4122258Y2998258D01*
X4131677Y2974258D01*
X4134932Y2960433D01*
X4134160Y2946251D01*
X4129423Y2932861D01*
X4121106Y2921347D01*
X4109882Y2912644D01*
X4096661Y2907455D01*
X4082514Y2906201D01*
X4068586Y2908984D01*
X4056006Y2915578D01*
X4055897Y2915657D01*
X4052622Y2918036D01*
X4052622Y2918036D01*
X4042043Y2923426D01*
X4031465Y2928816D01*
X4031465Y2928816D01*
X4031464Y2928817D01*
X4020330Y2932434D01*
X4007584Y2938701D01*
X3997120Y2948305D01*
X3989786Y2960468D01*
X3986175Y2974204D01*
X3985850Y2979892D01*
X3985850Y3274694D01*
X3987871Y3288753D01*
X3993771Y3301672D01*
X4003072Y3312406D01*
X4015021Y3320085D01*
X4028648Y3324087D01*
X4042851Y3324087D01*
X4056479Y3320085D01*
G37*
%TD.AperFunction*%
%TA.AperFunction,NonConductor*%
G36*
X3535247Y2807146D02*
G01*
X3547713Y2800339D01*
X3557756Y2790296D01*
X3564563Y2777831D01*
X3567582Y2763952D01*
X3567709Y2760392D01*
X3567709Y2675546D01*
X3571423Y2652094D01*
X3571423Y2652093D01*
X3578760Y2629513D01*
X3578761Y2629512D01*
X3578761Y2629512D01*
X3579943Y2627192D01*
X3589540Y2608355D01*
X3594128Y2602040D01*
X3600757Y2589479D01*
X3603577Y2575559D01*
X3602362Y2561408D01*
X3597209Y2548173D01*
X3588536Y2536925D01*
X3577045Y2528577D01*
X3563668Y2523804D01*
X3553758Y2522810D01*
X3254707Y2522810D01*
X3240648Y2524831D01*
X3227729Y2530731D01*
X3219422Y2537425D01*
X3161251Y2595596D01*
X3152740Y2606966D01*
X3147776Y2620274D01*
X3146763Y2634440D01*
X3149782Y2648319D01*
X3156589Y2660785D01*
X3166632Y2670828D01*
X3171586Y2674095D01*
X3174099Y2675546D01*
X3180688Y2679350D01*
X3201487Y2695310D01*
X3212512Y2706335D01*
X3223882Y2714846D01*
X3237189Y2719810D01*
X3247796Y2720950D01*
X3365842Y2720950D01*
X3375562Y2722490D01*
X3385283Y2724029D01*
X3404003Y2730112D01*
X3421540Y2739048D01*
X3437465Y2750617D01*
X3482524Y2795677D01*
X3493894Y2804189D01*
X3507202Y2809152D01*
X3521369Y2810165D01*
X3535247Y2807146D01*
G37*
%TD.AperFunction*%
%TA.AperFunction,NonConductor*%
G36*
X662639Y3111627D02*
G01*
X674588Y3103949D01*
X677195Y3101521D01*
X758106Y3020610D01*
X758107Y3020609D01*
X767071Y3013109D01*
X776556Y3002537D01*
X782679Y2989721D01*
X784943Y2975700D01*
X784950Y2974838D01*
X784950Y2423424D01*
X782929Y2409365D01*
X777029Y2396446D01*
X767728Y2385712D01*
X755779Y2378033D01*
X742151Y2374032D01*
X732037Y2373615D01*
X700000Y2375553D01*
X666786Y2373544D01*
X666785Y2373544D01*
X666785Y2373543D01*
X634056Y2367546D01*
X602288Y2357647D01*
X602287Y2357646D01*
X571945Y2343990D01*
X571945Y2343990D01*
X543468Y2326775D01*
X517275Y2306255D01*
X493746Y2282725D01*
X493745Y2282725D01*
X486044Y2272894D01*
X475782Y2263074D01*
X463170Y2256543D01*
X449229Y2253829D01*
X435088Y2255154D01*
X421892Y2260408D01*
X411479Y2268384D01*
X294665Y2385197D01*
X286154Y2396567D01*
X281190Y2409875D01*
X280050Y2420482D01*
X280050Y2499010D01*
X282071Y2513068D01*
X287971Y2525988D01*
X297272Y2536722D01*
X309221Y2544400D01*
X322849Y2548402D01*
X337052Y2548402D01*
X344889Y2546621D01*
X351956Y2544404D01*
X351956Y2544404D01*
X351956Y2544404D01*
X372200Y2542345D01*
X392444Y2544404D01*
X411859Y2550495D01*
X429650Y2560370D01*
X438842Y2568061D01*
X553116Y2682335D01*
X560807Y2691527D01*
X570682Y2709318D01*
X576774Y2728733D01*
X578832Y2748977D01*
X576774Y2769221D01*
X576448Y2770259D01*
X574168Y2784277D01*
X575930Y2798370D01*
X579598Y2807851D01*
X581017Y2810635D01*
X588315Y2833097D01*
X592010Y2856425D01*
X592010Y2880043D01*
X592010Y3066237D01*
X594031Y3080295D01*
X599931Y3093215D01*
X609232Y3103949D01*
X621181Y3111627D01*
X634809Y3115629D01*
X649012Y3115629D01*
X662639Y3111627D01*
G37*
%TD.AperFunction*%
%TA.AperFunction,NonConductor*%
G36*
X6295864Y3622077D02*
G01*
X6308783Y3616177D01*
X6319517Y3606876D01*
X6327196Y3594928D01*
X6331197Y3581300D01*
X6331197Y3567097D01*
X6327196Y3553469D01*
X6322445Y3545569D01*
X6322547Y3545500D01*
X6321639Y3544141D01*
X6309380Y3522909D01*
X6299996Y3500254D01*
X6293650Y3476570D01*
X6290450Y3452260D01*
X6290450Y3427740D01*
X6293650Y3403430D01*
X6299606Y3381205D01*
X6299997Y3379746D01*
X6304736Y3368303D01*
X6309380Y3357092D01*
X6320432Y3337950D01*
X6325710Y3324764D01*
X6327061Y3310626D01*
X6324373Y3296679D01*
X6320432Y3288050D01*
X6309380Y3268908D01*
X6299996Y3246254D01*
X6293650Y3222570D01*
X6290450Y3198260D01*
X6290450Y3173740D01*
X6293650Y3149430D01*
X6299884Y3126164D01*
X6299997Y3125746D01*
X6304187Y3115629D01*
X6309380Y3103092D01*
X6320432Y3083950D01*
X6325710Y3070764D01*
X6327061Y3056626D01*
X6324373Y3042679D01*
X6320432Y3034050D01*
X6309380Y3014908D01*
X6299996Y2992254D01*
X6293650Y2968570D01*
X6290450Y2944260D01*
X6290450Y2919740D01*
X6293650Y2895430D01*
X6299712Y2872808D01*
X6299997Y2871746D01*
X6309380Y2849092D01*
X6310005Y2847583D01*
X6309686Y2847451D01*
X6313104Y2836941D01*
X6313514Y2822744D01*
X6309907Y2809007D01*
X6307338Y2803793D01*
X6306299Y2801963D01*
X6300050Y2788204D01*
X6296990Y2781468D01*
X6291490Y2759641D01*
X6290780Y2750617D01*
X6290450Y2746422D01*
X6290450Y2609579D01*
X6290450Y2609577D01*
X6291490Y2596359D01*
X6291490Y2596359D01*
X6291490Y2596359D01*
X6293956Y2586575D01*
X6296990Y2574532D01*
X6306299Y2554038D01*
X6319118Y2535535D01*
X6319119Y2535534D01*
X6335034Y2519619D01*
X6335035Y2519618D01*
X6353537Y2506799D01*
X6360369Y2503696D01*
X6374032Y2497490D01*
X6395859Y2491990D01*
X6409078Y2490950D01*
X6590922Y2490950D01*
X6604141Y2491990D01*
X6625968Y2497490D01*
X6629414Y2499056D01*
X6643049Y2503029D01*
X6657252Y2503000D01*
X6670872Y2498971D01*
X6682804Y2491268D01*
X6692083Y2480515D01*
X6697957Y2467583D01*
X6699950Y2453623D01*
X6699950Y2346472D01*
X6697929Y2332413D01*
X6692029Y2319494D01*
X6682728Y2308760D01*
X6670779Y2301081D01*
X6657151Y2297079D01*
X6642948Y2297079D01*
X6629321Y2301081D01*
X6627283Y2302132D01*
X6627278Y2302123D01*
X6625814Y2302845D01*
X6603160Y2312229D01*
X6579476Y2318575D01*
X6579474Y2318575D01*
X6555165Y2321775D01*
X6530645Y2321775D01*
X6506336Y2318575D01*
X6506335Y2318575D01*
X6482651Y2312229D01*
X6459998Y2302845D01*
X6438763Y2290586D01*
X6419311Y2275659D01*
X6419310Y2275658D01*
X6401972Y2258321D01*
X6401971Y2258320D01*
X6387045Y2238867D01*
X6374785Y2217633D01*
X6365402Y2194980D01*
X6359681Y2173629D01*
X6354090Y2160573D01*
X6345047Y2149620D01*
X6333285Y2141660D01*
X6324397Y2138344D01*
X6303046Y2132623D01*
X6280393Y2123240D01*
X6259158Y2110981D01*
X6239706Y2096054D01*
X6239704Y2096053D01*
X6222367Y2078716D01*
X6222366Y2078715D01*
X6207440Y2059262D01*
X6195180Y2038028D01*
X6185797Y2015375D01*
X6180076Y1994024D01*
X6174485Y1980967D01*
X6165442Y1970015D01*
X6153680Y1962054D01*
X6144791Y1958739D01*
X6123441Y1953018D01*
X6100788Y1943635D01*
X6079553Y1931375D01*
X6060101Y1916449D01*
X6060099Y1916448D01*
X6042762Y1899111D01*
X6042761Y1899110D01*
X6027835Y1879657D01*
X6015575Y1858423D01*
X6006192Y1835769D01*
X6000471Y1814419D01*
X5994880Y1801362D01*
X5985837Y1790410D01*
X5974075Y1782449D01*
X5965186Y1779134D01*
X5943836Y1773413D01*
X5921182Y1764030D01*
X5899948Y1751770D01*
X5880495Y1736844D01*
X5880494Y1736843D01*
X5863157Y1719506D01*
X5863156Y1719504D01*
X5848230Y1700052D01*
X5835970Y1678817D01*
X5826587Y1656164D01*
X5820866Y1634813D01*
X5815275Y1621757D01*
X5806232Y1610805D01*
X5794470Y1602844D01*
X5785581Y1599529D01*
X5764230Y1593808D01*
X5741577Y1584424D01*
X5723449Y1573958D01*
X5710263Y1568680D01*
X5696124Y1567330D01*
X5682178Y1570018D01*
X5669554Y1576526D01*
X5663214Y1581888D01*
X5596833Y1648270D01*
X5588321Y1659640D01*
X5583358Y1672948D01*
X5582344Y1687115D01*
X5585363Y1700993D01*
X5592170Y1713459D01*
X5598177Y1720134D01*
X5598335Y1720281D01*
X5598680Y1720602D01*
X5615039Y1741114D01*
X5628157Y1763836D01*
X5628157Y1763837D01*
X5628157Y1763837D01*
X5635462Y1782449D01*
X5637742Y1788258D01*
X5643580Y1813837D01*
X5645541Y1840000D01*
X5643580Y1866163D01*
X5637742Y1891742D01*
X5634652Y1899614D01*
X5628157Y1916163D01*
X5628157Y1916164D01*
X5628157Y1916164D01*
X5615039Y1938886D01*
X5598680Y1959398D01*
X5598680Y1959398D01*
X5579448Y1977243D01*
X5557771Y1992022D01*
X5557771Y1992022D01*
X5557770Y1992023D01*
X5544099Y1998607D01*
X5534133Y2003406D01*
X5534133Y2003406D01*
X5534133Y2003406D01*
X5534132Y2003406D01*
X5509062Y2011140D01*
X5509061Y2011140D01*
X5509061Y2011140D01*
X5498141Y2012786D01*
X5483118Y2015050D01*
X5456882Y2015050D01*
X5443418Y2013021D01*
X5430939Y2011140D01*
X5430938Y2011139D01*
X5409817Y2004625D01*
X5395787Y2002412D01*
X5381703Y2004242D01*
X5368704Y2009966D01*
X5359824Y2017023D01*
X5264632Y2112215D01*
X5256120Y2123586D01*
X5251157Y2136893D01*
X5250144Y2151060D01*
X5253163Y2164938D01*
X5259970Y2177404D01*
X5264632Y2182785D01*
X5274063Y2192215D01*
X5275300Y2193918D01*
X5276185Y2195137D01*
X5276185Y2195137D01*
X5285632Y2208140D01*
X5294568Y2225678D01*
X5298781Y2238643D01*
X5300651Y2244397D01*
X5303730Y2263838D01*
X5303730Y2283522D01*
X5303730Y2541184D01*
X5305751Y2555243D01*
X5311651Y2568162D01*
X5320952Y2578896D01*
X5332901Y2586575D01*
X5346529Y2590576D01*
X5360732Y2590576D01*
X5374359Y2586575D01*
X5375277Y2586144D01*
X5384036Y2581926D01*
X5409823Y2573972D01*
X5436507Y2569950D01*
X5436508Y2569950D01*
X5463493Y2569950D01*
X5463493Y2569950D01*
X5490177Y2573972D01*
X5515964Y2581926D01*
X5540278Y2593635D01*
X5562574Y2608837D01*
X5582356Y2627192D01*
X5585987Y2631744D01*
X5596332Y2641475D01*
X5609000Y2647897D01*
X5622964Y2650490D01*
X5637094Y2649044D01*
X5650243Y2643676D01*
X5661347Y2634821D01*
X5664013Y2631744D01*
X5667644Y2627192D01*
X5667644Y2627192D01*
X5687426Y2608837D01*
X5709723Y2593635D01*
X5734036Y2581926D01*
X5759823Y2573972D01*
X5786507Y2569950D01*
X5786507Y2569950D01*
X5813492Y2569950D01*
X5813493Y2569950D01*
X5840177Y2573972D01*
X5865964Y2581926D01*
X5890277Y2593635D01*
X5912574Y2608837D01*
X5932356Y2627192D01*
X5949181Y2648290D01*
X5962674Y2671660D01*
X5972533Y2696781D01*
X5978538Y2723090D01*
X5980555Y2750000D01*
X5978538Y2776910D01*
X5972533Y2803219D01*
X5971089Y2806898D01*
X5962674Y2828340D01*
X5962674Y2828340D01*
X5949182Y2851709D01*
X5949181Y2851710D01*
X5943747Y2858525D01*
X5932356Y2872808D01*
X5912574Y2891163D01*
X5906316Y2895430D01*
X5893629Y2904080D01*
X5890278Y2906365D01*
X5890278Y2906365D01*
X5890277Y2906365D01*
X5881846Y2910425D01*
X5865965Y2918073D01*
X5865965Y2918074D01*
X5865964Y2918074D01*
X5865964Y2918074D01*
X5840177Y2926028D01*
X5840177Y2926028D01*
X5840177Y2926028D01*
X5829580Y2927625D01*
X5813493Y2930050D01*
X5786507Y2930050D01*
X5774146Y2928187D01*
X5759823Y2926028D01*
X5744649Y2921347D01*
X5734036Y2918074D01*
X5734035Y2918074D01*
X5734035Y2918073D01*
X5709723Y2906365D01*
X5709722Y2906365D01*
X5687426Y2891163D01*
X5667643Y2872808D01*
X5667643Y2872808D01*
X5664013Y2868256D01*
X5653668Y2858525D01*
X5640999Y2852103D01*
X5627035Y2849510D01*
X5612906Y2850956D01*
X5599756Y2856324D01*
X5588652Y2865180D01*
X5585987Y2868256D01*
X5582357Y2872808D01*
X5582356Y2872808D01*
X5577397Y2877410D01*
X5562574Y2891163D01*
X5543629Y2904080D01*
X5540278Y2906365D01*
X5540278Y2906365D01*
X5540278Y2906365D01*
X5531846Y2910425D01*
X5515965Y2918073D01*
X5515965Y2918074D01*
X5515964Y2918074D01*
X5515964Y2918074D01*
X5490177Y2926028D01*
X5490177Y2926028D01*
X5490177Y2926028D01*
X5479581Y2927625D01*
X5463493Y2930050D01*
X5436507Y2930050D01*
X5433006Y2929522D01*
X5432072Y2929381D01*
X5417869Y2929285D01*
X5404215Y2933194D01*
X5392214Y2940791D01*
X5382841Y2951462D01*
X5376853Y2964341D01*
X5374736Y2978386D01*
X5375062Y2982670D01*
X5374896Y2982683D01*
X5375050Y2984638D01*
X5375050Y3100855D01*
X5376376Y3112279D01*
X5377163Y3115629D01*
X5379435Y3125287D01*
X5379435Y3125288D01*
X5379435Y3125288D01*
X5380050Y3134147D01*
X5380053Y3134233D01*
X5380058Y3134260D01*
X5380110Y3135011D01*
X5380191Y3135006D01*
X5382559Y3148213D01*
X5388903Y3160921D01*
X5394638Y3167790D01*
X5567821Y3340973D01*
X5579390Y3356897D01*
X5588326Y3374435D01*
X5594409Y3393155D01*
X5597488Y3412596D01*
X5597488Y3432280D01*
X5597488Y3574199D01*
X5599509Y3588257D01*
X5605409Y3601177D01*
X5614710Y3611911D01*
X5626659Y3619589D01*
X5640286Y3623591D01*
X5647388Y3624099D01*
X6281805Y3624099D01*
X6295864Y3622077D01*
G37*
%TD.AperFunction*%
%TA.AperFunction,NonConductor*%
G36*
X1792869Y2753930D02*
G01*
X1806150Y2748895D01*
X1817285Y2740513D01*
X2365335Y2192463D01*
X2373846Y2181093D01*
X2378810Y2167785D01*
X2379950Y2157178D01*
X2379950Y1998607D01*
X2380704Y1993843D01*
X2380907Y1979642D01*
X2377101Y1965958D01*
X2369593Y1953902D01*
X2358993Y1944448D01*
X2354073Y1941576D01*
X2334756Y1931734D01*
X2334756Y1931734D01*
X2315649Y1917852D01*
X2024228Y1626431D01*
X2024228Y1626431D01*
X2010345Y1607323D01*
X2010345Y1607323D01*
X2008323Y1603355D01*
X2005553Y1597917D01*
X2004227Y1595314D01*
X2004227Y1595314D01*
X1999623Y1586280D01*
X1999623Y1586278D01*
X1992325Y1563817D01*
X1992325Y1563817D01*
X1988630Y1540489D01*
X1988630Y1409510D01*
X1988784Y1407556D01*
X1988598Y1407541D01*
X1988767Y1395721D01*
X1984960Y1382038D01*
X1977452Y1369982D01*
X1969084Y1362490D01*
X1969257Y1362264D01*
X1967962Y1361271D01*
X1967962Y1361270D01*
X1966691Y1360295D01*
X1959329Y1354647D01*
X1946946Y1347692D01*
X1933104Y1344508D01*
X1918926Y1345353D01*
X1905561Y1350158D01*
X1894090Y1358534D01*
X1893668Y1358951D01*
X1394665Y1857954D01*
X1386154Y1869324D01*
X1381190Y1882631D01*
X1380050Y1893238D01*
X1380050Y2500318D01*
X1382071Y2514376D01*
X1387971Y2527296D01*
X1397272Y2538029D01*
X1409221Y2545708D01*
X1422848Y2549710D01*
X1437051Y2549710D01*
X1438940Y2549401D01*
X1444941Y2548301D01*
X1478155Y2546292D01*
X1511369Y2548301D01*
X1544099Y2554299D01*
X1575867Y2564199D01*
X1606211Y2577855D01*
X1634687Y2595069D01*
X1660880Y2615591D01*
X1684409Y2639120D01*
X1704931Y2665313D01*
X1722145Y2693789D01*
X1735801Y2724133D01*
X1735801Y2724133D01*
X1736420Y2725508D01*
X1736703Y2725380D01*
X1742214Y2735347D01*
X1752311Y2745335D01*
X1764813Y2752075D01*
X1778708Y2755019D01*
X1792869Y2753930D01*
G37*
%TD.AperFunction*%
%TA.AperFunction,NonConductor*%
G36*
X917246Y1898913D02*
G01*
X930659Y1894243D01*
X942214Y1885983D01*
X942997Y1885216D01*
X1115548Y1712665D01*
X1137223Y1690990D01*
X1159200Y1669014D01*
X1159201Y1669013D01*
X1412979Y1415235D01*
X1421491Y1403864D01*
X1426454Y1390557D01*
X1427467Y1376390D01*
X1424448Y1362512D01*
X1417641Y1350046D01*
X1407598Y1340003D01*
X1395133Y1333196D01*
X1381254Y1330177D01*
X1377695Y1330050D01*
X1370482Y1330050D01*
X1356423Y1332071D01*
X1343504Y1337971D01*
X1335197Y1344665D01*
X868384Y1811479D01*
X859872Y1822849D01*
X854909Y1836156D01*
X853895Y1850323D01*
X856915Y1864202D01*
X863721Y1876667D01*
X872894Y1886043D01*
X876939Y1889213D01*
X889252Y1896291D01*
X903060Y1899614D01*
X917246Y1898913D01*
G37*
%TD.AperFunction*%
%TA.AperFunction,NonConductor*%
G36*
X4975679Y1822944D02*
G01*
X4987628Y1815265D01*
X4990235Y1812838D01*
X5252535Y1550537D01*
X5268460Y1538968D01*
X5285997Y1530032D01*
X5303691Y1524283D01*
X5303691Y1524282D01*
X5303692Y1524282D01*
X5304717Y1523949D01*
X5304717Y1523949D01*
X5304717Y1523949D01*
X5318292Y1521799D01*
X5324158Y1520870D01*
X5324158Y1520870D01*
X5324158Y1520870D01*
X5343842Y1520870D01*
X5349869Y1520870D01*
X5363928Y1518849D01*
X5376847Y1512949D01*
X5385154Y1506255D01*
X5484798Y1406610D01*
X5493309Y1395240D01*
X5498273Y1381933D01*
X5499286Y1367766D01*
X5496267Y1353888D01*
X5489896Y1342220D01*
X5489927Y1342199D01*
X5489697Y1341856D01*
X5489460Y1341422D01*
X5489102Y1340949D01*
X5489020Y1340842D01*
X5476760Y1319607D01*
X5466751Y1295445D01*
X5466434Y1295576D01*
X5461401Y1285704D01*
X5451645Y1275382D01*
X5439377Y1268225D01*
X5433901Y1266367D01*
X5431873Y1265807D01*
X5410798Y1257897D01*
X5410798Y1257897D01*
X5391476Y1246353D01*
X5391475Y1246352D01*
X5381393Y1237741D01*
X5381391Y1237739D01*
X5284630Y1140979D01*
X5284628Y1140976D01*
X5279739Y1135253D01*
X5269072Y1125875D01*
X5256195Y1119883D01*
X5242151Y1117762D01*
X5228079Y1119683D01*
X5215117Y1125491D01*
X5206511Y1132376D01*
X5054631Y1284256D01*
X5046120Y1295626D01*
X5041156Y1308934D01*
X5040143Y1323101D01*
X5043162Y1336979D01*
X5047049Y1345083D01*
X5055266Y1358873D01*
X5064305Y1382039D01*
X5069408Y1406376D01*
X5070050Y1416716D01*
X5070050Y1533284D01*
X5069408Y1543624D01*
X5064305Y1567961D01*
X5055266Y1591127D01*
X5042537Y1612489D01*
X5026465Y1631465D01*
X5007489Y1647537D01*
X4986127Y1660266D01*
X4962961Y1669305D01*
X4961665Y1669577D01*
X4944710Y1673132D01*
X4931365Y1677995D01*
X4919931Y1686421D01*
X4911335Y1697727D01*
X4906271Y1710997D01*
X4905050Y1721970D01*
X4905050Y1777553D01*
X4907071Y1791612D01*
X4912971Y1804531D01*
X4922272Y1815265D01*
X4934221Y1822944D01*
X4947849Y1826945D01*
X4962052Y1826945D01*
X4975679Y1822944D01*
G37*
%TD.AperFunction*%
%TA.AperFunction,NonConductor*%
G36*
X4496203Y1352747D02*
G01*
X4508669Y1345940D01*
X4516843Y1338244D01*
X4533535Y1318535D01*
X4533535Y1318535D01*
X4533535Y1318535D01*
X4552511Y1302463D01*
X4573873Y1289734D01*
X4597039Y1280695D01*
X4615291Y1276868D01*
X4628635Y1272005D01*
X4640068Y1263579D01*
X4648665Y1252273D01*
X4653729Y1239003D01*
X4654950Y1228030D01*
X4654950Y1068755D01*
X4658029Y1049314D01*
X4658029Y1049313D01*
X4664111Y1030595D01*
X4664111Y1030594D01*
X4664112Y1030594D01*
X4673048Y1013056D01*
X4684617Y997132D01*
X4684617Y997132D01*
X4792393Y889356D01*
X4800905Y877986D01*
X4805868Y864678D01*
X4806882Y850511D01*
X4803863Y836633D01*
X4797056Y824167D01*
X4787013Y814124D01*
X4774547Y807317D01*
X4770385Y805970D01*
X4769320Y805676D01*
X4748244Y797766D01*
X4728921Y786221D01*
X4728921Y786221D01*
X4718840Y777611D01*
X4718839Y777610D01*
X4663794Y722565D01*
X4663794Y722565D01*
X4655182Y712482D01*
X4655182Y712482D01*
X4643637Y693160D01*
X4635728Y672085D01*
X4635728Y672085D01*
X4631709Y649938D01*
X4631709Y627428D01*
X4633839Y615690D01*
X4634360Y601496D01*
X4630862Y587731D01*
X4623627Y575509D01*
X4613242Y565820D01*
X4600547Y559450D01*
X4586573Y556914D01*
X4572449Y558418D01*
X4559322Y563840D01*
X4553250Y568072D01*
X4548415Y572006D01*
X4548414Y572006D01*
X4548414Y572006D01*
X4523863Y586936D01*
X4523863Y586936D01*
X4523863Y586936D01*
X4497506Y598384D01*
X4491728Y600003D01*
X4469836Y606137D01*
X4469836Y606137D01*
X4469836Y606137D01*
X4469835Y606137D01*
X4469835Y606137D01*
X4458750Y607661D01*
X4441368Y610050D01*
X4412632Y610050D01*
X4399315Y608220D01*
X4384165Y606137D01*
X4384164Y606137D01*
X4373002Y603010D01*
X4358218Y598867D01*
X4344135Y597021D01*
X4330103Y599217D01*
X4321652Y602688D01*
X4320305Y603391D01*
X4320305Y603391D01*
X4300742Y608989D01*
X4288804Y610050D01*
X4288803Y610050D01*
X4057197Y610050D01*
X4045258Y608989D01*
X4025695Y603391D01*
X4025694Y603391D01*
X4007659Y593970D01*
X4007659Y593970D01*
X3991889Y581111D01*
X3991889Y581111D01*
X3979030Y565341D01*
X3979030Y565341D01*
X3969609Y547306D01*
X3969609Y547304D01*
X3963641Y526448D01*
X3957830Y513488D01*
X3948604Y502690D01*
X3936708Y494929D01*
X3923109Y490833D01*
X3908906Y490735D01*
X3895251Y494643D01*
X3883250Y502239D01*
X3873875Y512908D01*
X3872452Y515225D01*
X3866249Y525968D01*
X3865860Y526642D01*
X3856958Y538244D01*
X3850933Y546095D01*
X3833595Y563433D01*
X3814143Y578360D01*
X3814143Y578360D01*
X3814142Y578360D01*
X3814142Y578361D01*
X3814141Y578361D01*
X3792908Y590620D01*
X3792908Y590620D01*
X3792908Y590620D01*
X3784872Y593949D01*
X3772657Y601196D01*
X3762979Y611591D01*
X3756621Y624291D01*
X3754100Y638269D01*
X3755618Y652390D01*
X3761053Y665512D01*
X3769965Y676571D01*
X3781632Y684672D01*
X3795108Y689157D01*
X3803968Y689950D01*
X3918329Y689950D01*
X3941657Y693645D01*
X3964119Y700943D01*
X3985163Y711666D01*
X4004271Y725548D01*
X4164452Y885729D01*
X4178334Y904837D01*
X4189057Y925881D01*
X4196355Y948343D01*
X4200050Y971671D01*
X4200050Y995289D01*
X4200050Y1157168D01*
X4202071Y1171226D01*
X4207971Y1184146D01*
X4217272Y1194880D01*
X4229221Y1202559D01*
X4237757Y1205555D01*
X4241468Y1206490D01*
X4261963Y1215799D01*
X4280465Y1228618D01*
X4280466Y1228619D01*
X4282186Y1230054D01*
X4282280Y1229942D01*
X4291699Y1236994D01*
X4305006Y1241958D01*
X4307809Y1242484D01*
X4315137Y1243645D01*
X4337599Y1250943D01*
X4358643Y1261666D01*
X4377751Y1275548D01*
X4443481Y1341279D01*
X4454850Y1349789D01*
X4468158Y1354753D01*
X4482325Y1355766D01*
X4496203Y1352747D01*
G37*
%TD.AperFunction*%
%TA.AperFunction,NonConductor*%
G36*
X2659007Y615409D02*
G01*
X2671199Y608124D01*
X2680846Y597700D01*
X2687164Y584980D01*
X2689643Y570995D01*
X2689670Y569366D01*
X2689670Y84711D01*
X2692355Y67756D01*
X2692558Y53554D01*
X2688752Y39871D01*
X2681244Y27814D01*
X2670644Y18361D01*
X2657810Y12277D01*
X2643782Y10055D01*
X2643070Y10050D01*
X2135530Y10050D01*
X2121471Y12071D01*
X2108552Y17971D01*
X2097818Y27272D01*
X2090139Y39221D01*
X2086138Y52848D01*
X2086138Y67052D01*
X2090139Y80679D01*
X2097818Y92628D01*
X2100245Y95234D01*
X2143345Y138334D01*
X2143345Y138334D01*
X2143346Y138335D01*
X2151958Y148419D01*
X2163503Y167742D01*
X2164620Y170719D01*
X2171452Y183170D01*
X2181515Y193193D01*
X2193805Y199903D01*
X2196782Y201021D01*
X2216105Y212566D01*
X2226188Y221178D01*
X2272393Y267382D01*
X2281005Y277466D01*
X2292550Y296789D01*
X2296900Y308380D01*
X2303732Y320832D01*
X2308333Y326130D01*
X2335103Y352900D01*
X2346473Y361411D01*
X2352852Y364333D01*
X2373211Y371974D01*
X2392534Y383519D01*
X2402618Y392131D01*
X2448822Y438335D01*
X2457434Y448419D01*
X2468979Y467742D01*
X2470097Y470719D01*
X2476928Y483170D01*
X2486992Y493193D01*
X2499281Y499903D01*
X2502258Y501021D01*
X2521581Y512566D01*
X2531665Y521178D01*
X2577869Y567382D01*
X2586481Y577466D01*
X2596933Y594960D01*
X2605879Y605991D01*
X2617570Y614056D01*
X2631060Y618500D01*
X2645256Y618964D01*
X2659007Y615409D01*
G37*
%TD.AperFunction*%
D48*
X7000000Y5000000D02*
X7000000Y2000000D01*
X5000000Y0D01*
X2000000Y0D01*
X0Y2000000D01*
X0Y5000000D01*
X2000000Y7000000D01*
X5000000Y7000000D01*
X7000000Y5000000D01*
M02*
