%TF.GenerationSoftware,KiCad,Pcbnew,6.0.11+dfsg-1*%
%TF.CreationDate,2024-03-20T12:36:12-04:00*%
%TF.ProjectId,MainPCB,4d61696e-5043-4422-9e6b-696361645f70,rev?*%
%TF.SameCoordinates,Original*%
%TF.FileFunction,Legend,Top*%
%TF.FilePolarity,Positive*%
%FSLAX46Y46*%
G04 Gerber Fmt 4.6, Leading zero omitted, Abs format (unit mm)*
G04 Created by KiCad (PCBNEW 6.0.11+dfsg-1) date 2024-03-20 12:36:12*
%MOMM*%
%LPD*%
G01*
G04 APERTURE LIST*
%ADD10C,0.150000*%
%ADD11C,0.101600*%
%ADD12C,0.076200*%
%ADD13C,0.120000*%
%ADD14C,0.066040*%
%ADD15C,0.127000*%
%ADD16C,0.254000*%
G04 APERTURE END LIST*
D10*
%TO.C,U6*%
X195658095Y-94242380D02*
X195658095Y-95051904D01*
X195705714Y-95147142D01*
X195753333Y-95194761D01*
X195848571Y-95242380D01*
X196039047Y-95242380D01*
X196134285Y-95194761D01*
X196181904Y-95147142D01*
X196229523Y-95051904D01*
X196229523Y-94242380D01*
X197134285Y-94242380D02*
X196943809Y-94242380D01*
X196848571Y-94290000D01*
X196800952Y-94337619D01*
X196705714Y-94480476D01*
X196658095Y-94670952D01*
X196658095Y-95051904D01*
X196705714Y-95147142D01*
X196753333Y-95194761D01*
X196848571Y-95242380D01*
X197039047Y-95242380D01*
X197134285Y-95194761D01*
X197181904Y-95147142D01*
X197229523Y-95051904D01*
X197229523Y-94813809D01*
X197181904Y-94718571D01*
X197134285Y-94670952D01*
X197039047Y-94623333D01*
X196848571Y-94623333D01*
X196753333Y-94670952D01*
X196705714Y-94718571D01*
X196658095Y-94813809D01*
%TO.C,U5*%
X195678095Y-104402380D02*
X195678095Y-105211904D01*
X195725714Y-105307142D01*
X195773333Y-105354761D01*
X195868571Y-105402380D01*
X196059047Y-105402380D01*
X196154285Y-105354761D01*
X196201904Y-105307142D01*
X196249523Y-105211904D01*
X196249523Y-104402380D01*
X197201904Y-104402380D02*
X196725714Y-104402380D01*
X196678095Y-104878571D01*
X196725714Y-104830952D01*
X196820952Y-104783333D01*
X197059047Y-104783333D01*
X197154285Y-104830952D01*
X197201904Y-104878571D01*
X197249523Y-104973809D01*
X197249523Y-105211904D01*
X197201904Y-105307142D01*
X197154285Y-105354761D01*
X197059047Y-105402380D01*
X196820952Y-105402380D01*
X196725714Y-105354761D01*
X196678095Y-105307142D01*
%TO.C,R4*%
X200583333Y-81952380D02*
X200250000Y-81476190D01*
X200011904Y-81952380D02*
X200011904Y-80952380D01*
X200392857Y-80952380D01*
X200488095Y-81000000D01*
X200535714Y-81047619D01*
X200583333Y-81142857D01*
X200583333Y-81285714D01*
X200535714Y-81380952D01*
X200488095Y-81428571D01*
X200392857Y-81476190D01*
X200011904Y-81476190D01*
X201440476Y-81285714D02*
X201440476Y-81952380D01*
X201202380Y-80904761D02*
X200964285Y-81619047D01*
X201583333Y-81619047D01*
%TO.C,R3*%
X168393333Y-111642380D02*
X168060000Y-111166190D01*
X167821904Y-111642380D02*
X167821904Y-110642380D01*
X168202857Y-110642380D01*
X168298095Y-110690000D01*
X168345714Y-110737619D01*
X168393333Y-110832857D01*
X168393333Y-110975714D01*
X168345714Y-111070952D01*
X168298095Y-111118571D01*
X168202857Y-111166190D01*
X167821904Y-111166190D01*
X168726666Y-110642380D02*
X169345714Y-110642380D01*
X169012380Y-111023333D01*
X169155238Y-111023333D01*
X169250476Y-111070952D01*
X169298095Y-111118571D01*
X169345714Y-111213809D01*
X169345714Y-111451904D01*
X169298095Y-111547142D01*
X169250476Y-111594761D01*
X169155238Y-111642380D01*
X168869523Y-111642380D01*
X168774285Y-111594761D01*
X168726666Y-111547142D01*
%TO.C,R2*%
X187793333Y-108622380D02*
X187460000Y-108146190D01*
X187221904Y-108622380D02*
X187221904Y-107622380D01*
X187602857Y-107622380D01*
X187698095Y-107670000D01*
X187745714Y-107717619D01*
X187793333Y-107812857D01*
X187793333Y-107955714D01*
X187745714Y-108050952D01*
X187698095Y-108098571D01*
X187602857Y-108146190D01*
X187221904Y-108146190D01*
X188174285Y-107717619D02*
X188221904Y-107670000D01*
X188317142Y-107622380D01*
X188555238Y-107622380D01*
X188650476Y-107670000D01*
X188698095Y-107717619D01*
X188745714Y-107812857D01*
X188745714Y-107908095D01*
X188698095Y-108050952D01*
X188126666Y-108622380D01*
X188745714Y-108622380D01*
%TO.C,R1*%
X174043333Y-107352380D02*
X173710000Y-106876190D01*
X173471904Y-107352380D02*
X173471904Y-106352380D01*
X173852857Y-106352380D01*
X173948095Y-106400000D01*
X173995714Y-106447619D01*
X174043333Y-106542857D01*
X174043333Y-106685714D01*
X173995714Y-106780952D01*
X173948095Y-106828571D01*
X173852857Y-106876190D01*
X173471904Y-106876190D01*
X174995714Y-107352380D02*
X174424285Y-107352380D01*
X174710000Y-107352380D02*
X174710000Y-106352380D01*
X174614761Y-106495238D01*
X174519523Y-106590476D01*
X174424285Y-106638095D01*
%TO.C,J1*%
X139366666Y-80942380D02*
X139366666Y-81656666D01*
X139319047Y-81799523D01*
X139223809Y-81894761D01*
X139080952Y-81942380D01*
X138985714Y-81942380D01*
X140366666Y-81942380D02*
X139795238Y-81942380D01*
X140080952Y-81942380D02*
X140080952Y-80942380D01*
X139985714Y-81085238D01*
X139890476Y-81180476D01*
X139795238Y-81228095D01*
%TO.C,D4*%
X181062404Y-105712380D02*
X181062404Y-104712380D01*
X181300500Y-104712380D01*
X181443357Y-104760000D01*
X181538595Y-104855238D01*
X181586214Y-104950476D01*
X181633833Y-105140952D01*
X181633833Y-105283809D01*
X181586214Y-105474285D01*
X181538595Y-105569523D01*
X181443357Y-105664761D01*
X181300500Y-105712380D01*
X181062404Y-105712380D01*
X182490976Y-105045714D02*
X182490976Y-105712380D01*
X182252880Y-104664761D02*
X182014785Y-105379047D01*
X182633833Y-105379047D01*
%TO.C,D3*%
X169441904Y-107392380D02*
X169441904Y-106392380D01*
X169680000Y-106392380D01*
X169822857Y-106440000D01*
X169918095Y-106535238D01*
X169965714Y-106630476D01*
X170013333Y-106820952D01*
X170013333Y-106963809D01*
X169965714Y-107154285D01*
X169918095Y-107249523D01*
X169822857Y-107344761D01*
X169680000Y-107392380D01*
X169441904Y-107392380D01*
X170346666Y-106392380D02*
X170965714Y-106392380D01*
X170632380Y-106773333D01*
X170775238Y-106773333D01*
X170870476Y-106820952D01*
X170918095Y-106868571D01*
X170965714Y-106963809D01*
X170965714Y-107201904D01*
X170918095Y-107297142D01*
X170870476Y-107344761D01*
X170775238Y-107392380D01*
X170489523Y-107392380D01*
X170394285Y-107344761D01*
X170346666Y-107297142D01*
%TO.C,D2*%
X195981904Y-81992380D02*
X195981904Y-80992380D01*
X196220000Y-80992380D01*
X196362857Y-81040000D01*
X196458095Y-81135238D01*
X196505714Y-81230476D01*
X196553333Y-81420952D01*
X196553333Y-81563809D01*
X196505714Y-81754285D01*
X196458095Y-81849523D01*
X196362857Y-81944761D01*
X196220000Y-81992380D01*
X195981904Y-81992380D01*
X196934285Y-81087619D02*
X196981904Y-81040000D01*
X197077142Y-80992380D01*
X197315238Y-80992380D01*
X197410476Y-81040000D01*
X197458095Y-81087619D01*
X197505714Y-81182857D01*
X197505714Y-81278095D01*
X197458095Y-81420952D01*
X196886666Y-81992380D01*
X197505714Y-81992380D01*
%TO.C,D1*%
X154201904Y-107392380D02*
X154201904Y-106392380D01*
X154440000Y-106392380D01*
X154582857Y-106440000D01*
X154678095Y-106535238D01*
X154725714Y-106630476D01*
X154773333Y-106820952D01*
X154773333Y-106963809D01*
X154725714Y-107154285D01*
X154678095Y-107249523D01*
X154582857Y-107344761D01*
X154440000Y-107392380D01*
X154201904Y-107392380D01*
X155725714Y-107392380D02*
X155154285Y-107392380D01*
X155440000Y-107392380D02*
X155440000Y-106392380D01*
X155344761Y-106535238D01*
X155249523Y-106630476D01*
X155154285Y-106678095D01*
%TO.C,U3*%
X177038095Y-83222380D02*
X177038095Y-84031904D01*
X177085714Y-84127142D01*
X177133333Y-84174761D01*
X177228571Y-84222380D01*
X177419047Y-84222380D01*
X177514285Y-84174761D01*
X177561904Y-84127142D01*
X177609523Y-84031904D01*
X177609523Y-83222380D01*
X177990476Y-83222380D02*
X178609523Y-83222380D01*
X178276190Y-83603333D01*
X178419047Y-83603333D01*
X178514285Y-83650952D01*
X178561904Y-83698571D01*
X178609523Y-83793809D01*
X178609523Y-84031904D01*
X178561904Y-84127142D01*
X178514285Y-84174761D01*
X178419047Y-84222380D01*
X178133333Y-84222380D01*
X178038095Y-84174761D01*
X177990476Y-84127142D01*
D11*
%TO.C,U4*%
X157684046Y-82210486D02*
X157684046Y-82930153D01*
X157726380Y-83014820D01*
X157768713Y-83057153D01*
X157853380Y-83099486D01*
X158022713Y-83099486D01*
X158107380Y-83057153D01*
X158149713Y-83014820D01*
X158192046Y-82930153D01*
X158192046Y-82210486D01*
X158996380Y-82506820D02*
X158996380Y-83099486D01*
X158784713Y-82168153D02*
X158573046Y-82803153D01*
X159123380Y-82803153D01*
D12*
X154694708Y-93929562D02*
X154781794Y-93958591D01*
X154926937Y-93958591D01*
X154984994Y-93929562D01*
X155014022Y-93900534D01*
X155043051Y-93842477D01*
X155043051Y-93784420D01*
X155014022Y-93726362D01*
X154984994Y-93697334D01*
X154926937Y-93668305D01*
X154810822Y-93639277D01*
X154752765Y-93610248D01*
X154723737Y-93581220D01*
X154694708Y-93523162D01*
X154694708Y-93465105D01*
X154723737Y-93407048D01*
X154752765Y-93378020D01*
X154810822Y-93348991D01*
X154955965Y-93348991D01*
X155043051Y-93378020D01*
X155536537Y-93929562D02*
X155478480Y-93958591D01*
X155362365Y-93958591D01*
X155304308Y-93929562D01*
X155275280Y-93871505D01*
X155275280Y-93639277D01*
X155304308Y-93581220D01*
X155362365Y-93552191D01*
X155478480Y-93552191D01*
X155536537Y-93581220D01*
X155565565Y-93639277D01*
X155565565Y-93697334D01*
X155275280Y-93755391D01*
X156059051Y-93929562D02*
X156000994Y-93958591D01*
X155884880Y-93958591D01*
X155826822Y-93929562D01*
X155797794Y-93871505D01*
X155797794Y-93639277D01*
X155826822Y-93581220D01*
X155884880Y-93552191D01*
X156000994Y-93552191D01*
X156059051Y-93581220D01*
X156088080Y-93639277D01*
X156088080Y-93697334D01*
X155797794Y-93755391D01*
X156581565Y-93929562D02*
X156523508Y-93958591D01*
X156407394Y-93958591D01*
X156349337Y-93929562D01*
X156320308Y-93871505D01*
X156320308Y-93639277D01*
X156349337Y-93581220D01*
X156407394Y-93552191D01*
X156523508Y-93552191D01*
X156581565Y-93581220D01*
X156610594Y-93639277D01*
X156610594Y-93697334D01*
X156320308Y-93755391D01*
X157133108Y-93958591D02*
X157133108Y-93348991D01*
X157133108Y-93929562D02*
X157075051Y-93958591D01*
X156958937Y-93958591D01*
X156900880Y-93929562D01*
X156871851Y-93900534D01*
X156842822Y-93842477D01*
X156842822Y-93668305D01*
X156871851Y-93610248D01*
X156900880Y-93581220D01*
X156958937Y-93552191D01*
X157075051Y-93552191D01*
X157133108Y-93581220D01*
X157684651Y-93552191D02*
X157684651Y-93958591D01*
X157423394Y-93552191D02*
X157423394Y-93871505D01*
X157452422Y-93929562D01*
X157510480Y-93958591D01*
X157597565Y-93958591D01*
X157655622Y-93929562D01*
X157684651Y-93900534D01*
X157974937Y-93958591D02*
X157974937Y-93552191D01*
X157974937Y-93348991D02*
X157945908Y-93378020D01*
X157974937Y-93407048D01*
X158003965Y-93378020D01*
X157974937Y-93348991D01*
X157974937Y-93407048D01*
X158265222Y-93552191D02*
X158265222Y-93958591D01*
X158265222Y-93610248D02*
X158294251Y-93581220D01*
X158352308Y-93552191D01*
X158439394Y-93552191D01*
X158497451Y-93581220D01*
X158526480Y-93639277D01*
X158526480Y-93958591D01*
X158903851Y-93958591D02*
X158845794Y-93929562D01*
X158816765Y-93900534D01*
X158787737Y-93842477D01*
X158787737Y-93668305D01*
X158816765Y-93610248D01*
X158845794Y-93581220D01*
X158903851Y-93552191D01*
X158990937Y-93552191D01*
X159048994Y-93581220D01*
X159078022Y-93610248D01*
X159107051Y-93668305D01*
X159107051Y-93842477D01*
X159078022Y-93900534D01*
X159048994Y-93929562D01*
X158990937Y-93958591D01*
X158903851Y-93958591D01*
X159310251Y-93348991D02*
X159716651Y-93958591D01*
X159716651Y-93348991D02*
X159310251Y-93958591D01*
X159948880Y-93958591D02*
X159948880Y-93348991D01*
X160210137Y-93784420D02*
X160500422Y-93784420D01*
X160152080Y-93958591D02*
X160355280Y-93348991D01*
X160558480Y-93958591D01*
X160877794Y-93348991D02*
X160993908Y-93348991D01*
X161051965Y-93378020D01*
X161110022Y-93436077D01*
X161139051Y-93552191D01*
X161139051Y-93755391D01*
X161110022Y-93871505D01*
X161051965Y-93929562D01*
X160993908Y-93958591D01*
X160877794Y-93958591D01*
X160819737Y-93929562D01*
X160761680Y-93871505D01*
X160732651Y-93755391D01*
X160732651Y-93552191D01*
X160761680Y-93436077D01*
X160819737Y-93378020D01*
X160877794Y-93348991D01*
D10*
%TO.C,U2*%
X186888095Y-83222380D02*
X186888095Y-84031904D01*
X186935714Y-84127142D01*
X186983333Y-84174761D01*
X187078571Y-84222380D01*
X187269047Y-84222380D01*
X187364285Y-84174761D01*
X187411904Y-84127142D01*
X187459523Y-84031904D01*
X187459523Y-83222380D01*
X187888095Y-83317619D02*
X187935714Y-83270000D01*
X188030952Y-83222380D01*
X188269047Y-83222380D01*
X188364285Y-83270000D01*
X188411904Y-83317619D01*
X188459523Y-83412857D01*
X188459523Y-83508095D01*
X188411904Y-83650952D01*
X187840476Y-84222380D01*
X188459523Y-84222380D01*
%TO.C,U1*%
X177038095Y-91472380D02*
X177038095Y-92281904D01*
X177085714Y-92377142D01*
X177133333Y-92424761D01*
X177228571Y-92472380D01*
X177419047Y-92472380D01*
X177514285Y-92424761D01*
X177561904Y-92377142D01*
X177609523Y-92281904D01*
X177609523Y-91472380D01*
X178609523Y-92472380D02*
X178038095Y-92472380D01*
X178323809Y-92472380D02*
X178323809Y-91472380D01*
X178228571Y-91615238D01*
X178133333Y-91710476D01*
X178038095Y-91758095D01*
D13*
%TO.C,U6*%
X198270000Y-95790000D02*
X198270000Y-97300000D01*
X191299000Y-95790000D02*
X201540000Y-95790000D01*
X191299000Y-97300000D02*
X201540000Y-97300000D01*
X191299000Y-100431000D02*
X201540000Y-100431000D01*
X191299000Y-95790000D02*
X191299000Y-100431000D01*
X201540000Y-95790000D02*
X201540000Y-100431000D01*
X194570000Y-95790000D02*
X194570000Y-97300000D01*
%TO.C,U5*%
X198290000Y-105950000D02*
X198290000Y-107460000D01*
X191319000Y-105950000D02*
X201560000Y-105950000D01*
X191319000Y-107460000D02*
X201560000Y-107460000D01*
X191319000Y-110591000D02*
X201560000Y-110591000D01*
X191319000Y-105950000D02*
X191319000Y-110591000D01*
X201560000Y-105950000D02*
X201560000Y-110591000D01*
X194590000Y-105950000D02*
X194590000Y-107460000D01*
%TO.C,J1*%
X138370000Y-82490000D02*
X139700000Y-82490000D01*
X138370000Y-85090000D02*
X138370000Y-110550000D01*
X138370000Y-110550000D02*
X141030000Y-110550000D01*
X138370000Y-85090000D02*
X141030000Y-85090000D01*
X141030000Y-85090000D02*
X141030000Y-110550000D01*
X138370000Y-83820000D02*
X138370000Y-82490000D01*
%TO.C,D4*%
X179240500Y-110300000D02*
X179240500Y-110765000D01*
X179240500Y-107675000D02*
X179240500Y-108140000D01*
X179545816Y-110300000D02*
G75*
G03*
X184054979Y-110300429I2254684J1080000D01*
G01*
X184588315Y-108139173D02*
G75*
G03*
X179240500Y-107675170I-2787815J-1080827D01*
G01*
X179240500Y-110764830D02*
G75*
G03*
X184588315Y-110300827I2560000J1544830D01*
G01*
X184054979Y-108139571D02*
G75*
G03*
X179545816Y-108140000I-2254479J-1080429D01*
G01*
%TO.C,D3*%
X167895000Y-107635000D02*
X167895000Y-110805000D01*
X167895000Y-110805000D02*
X171780000Y-110805000D01*
X171780000Y-107635000D02*
X167895000Y-107635000D01*
%TO.C,D2*%
X194435000Y-82235000D02*
X194435000Y-85405000D01*
X194435000Y-85405000D02*
X198320000Y-85405000D01*
X198320000Y-82235000D02*
X194435000Y-82235000D01*
%TO.C,D1*%
X152655000Y-107635000D02*
X152655000Y-110805000D01*
X152655000Y-110805000D02*
X156540000Y-110805000D01*
X156540000Y-107635000D02*
X152655000Y-107635000D01*
%TO.C,U3*%
X179710000Y-84860000D02*
X179710000Y-86120000D01*
X179710000Y-91680000D02*
X179710000Y-90420000D01*
X173700000Y-84860000D02*
X179710000Y-84860000D01*
X175950000Y-91680000D02*
X179710000Y-91680000D01*
D14*
%TO.C,U4*%
X161091880Y-103842820D02*
X161091880Y-101302820D01*
X155376880Y-84157820D02*
X160456880Y-84157820D01*
X154487880Y-86062820D02*
X154487880Y-83395820D01*
X161345880Y-86062820D02*
X161345880Y-83395820D01*
D15*
X166824660Y-83479640D02*
X149697440Y-83479640D01*
X153426160Y-82054700D02*
X162420300Y-82054700D01*
D14*
X161345880Y-83395820D02*
X163123880Y-83395820D01*
X161345880Y-86062820D02*
X163123880Y-86062820D01*
X152709880Y-90129360D02*
X154487880Y-90129360D01*
X152709880Y-90129360D02*
X152709880Y-87459820D01*
D15*
X149697440Y-83479640D02*
X149026880Y-84150200D01*
D14*
X152709880Y-83395820D02*
X154487880Y-83395820D01*
X152709880Y-86062820D02*
X152709880Y-83395820D01*
X152709880Y-86062820D02*
X154487880Y-86062820D01*
D15*
X149026880Y-104477820D02*
X166824660Y-104477820D01*
X162420300Y-89408000D02*
X153421080Y-89408000D01*
D14*
X161345880Y-87459820D02*
X163123880Y-87459820D01*
D15*
X162420300Y-82054700D02*
X162420300Y-89408000D01*
D14*
X155376880Y-86697820D02*
X155376880Y-84157820D01*
X161345880Y-90129360D02*
X161345880Y-87459820D01*
X160456880Y-86697820D02*
X160456880Y-84157820D01*
X161345880Y-90129360D02*
X163123880Y-90129360D01*
X154487880Y-90129360D02*
X154487880Y-87459820D01*
X155376880Y-103842820D02*
X155376880Y-101302820D01*
X155376880Y-103842820D02*
X161091880Y-103842820D01*
X155376880Y-86697820D02*
X160456880Y-86697820D01*
X163123880Y-86062820D02*
X163123880Y-83395820D01*
X155376880Y-101302820D02*
X161091880Y-101302820D01*
D15*
X153421080Y-89408000D02*
X153421080Y-82054700D01*
D14*
X152709880Y-87459820D02*
X154487880Y-87459820D01*
X163123880Y-90129360D02*
X163123880Y-87459820D01*
D15*
X166824660Y-104477820D02*
X166824660Y-83479640D01*
X149026880Y-84150200D02*
X149026880Y-104477820D01*
D16*
X148264880Y-86316820D02*
G75*
G03*
X148264880Y-86316820I-127000J0D01*
G01*
D13*
%TO.C,U2*%
X183550000Y-84860000D02*
X189560000Y-84860000D01*
X189560000Y-84860000D02*
X189560000Y-86120000D01*
X185800000Y-91680000D02*
X189560000Y-91680000D01*
X189560000Y-91680000D02*
X189560000Y-90420000D01*
%TO.C,U1*%
X179710000Y-93110000D02*
X179710000Y-94370000D01*
X179710000Y-99930000D02*
X179710000Y-98670000D01*
X175950000Y-99930000D02*
X179710000Y-99930000D01*
X173700000Y-93110000D02*
X179710000Y-93110000D01*
%TD*%
M02*
