%TF.GenerationSoftware,KiCad,Pcbnew,6.0.11+dfsg-1*%
%TF.CreationDate,2024-03-20T12:36:12-04:00*%
%TF.ProjectId,MainPCB,4d61696e-5043-4422-9e6b-696361645f70,rev?*%
%TF.SameCoordinates,Original*%
%TF.FileFunction,Soldermask,Top*%
%TF.FilePolarity,Negative*%
%FSLAX46Y46*%
G04 Gerber Fmt 4.6, Leading zero omitted, Abs format (unit mm)*
G04 Created by KiCad (PCBNEW 6.0.11+dfsg-1) date 2024-03-20 12:36:12*
%MOMM*%
%LPD*%
G01*
G04 APERTURE LIST*
G04 Aperture macros list*
%AMRoundRect*
0 Rectangle with rounded corners*
0 $1 Rounding radius*
0 $2 $3 $4 $5 $6 $7 $8 $9 X,Y pos of 4 corners*
0 Add a 4 corners polygon primitive as box body*
4,1,4,$2,$3,$4,$5,$6,$7,$8,$9,$2,$3,0*
0 Add four circle primitives for the rounded corners*
1,1,$1+$1,$2,$3*
1,1,$1+$1,$4,$5*
1,1,$1+$1,$6,$7*
1,1,$1+$1,$8,$9*
0 Add four rect primitives between the rounded corners*
20,1,$1+$1,$2,$3,$4,$5,0*
20,1,$1+$1,$4,$5,$6,$7,0*
20,1,$1+$1,$6,$7,$8,$9,0*
20,1,$1+$1,$8,$9,$2,$3,0*%
G04 Aperture macros list end*
%ADD10R,1.275000X1.800000*%
%ADD11O,1.275000X1.800000*%
%ADD12RoundRect,0.100000X-0.130000X-0.100000X0.130000X-0.100000X0.130000X0.100000X-0.130000X0.100000X0*%
%ADD13R,1.700000X1.700000*%
%ADD14O,1.700000X1.700000*%
%ADD15R,1.800000X1.800000*%
%ADD16C,1.800000*%
%ADD17RoundRect,0.250000X-0.375000X-1.075000X0.375000X-1.075000X0.375000X1.075000X-0.375000X1.075000X0*%
%ADD18R,2.000000X1.500000*%
%ADD19R,2.000000X3.800000*%
%ADD20O,2.748280X1.998980*%
%ADD21O,1.016000X2.032000*%
%ADD22C,1.143000*%
G04 APERTURE END LIST*
D10*
%TO.C,U6*%
X193020000Y-99060000D03*
D11*
X194720000Y-99060000D03*
X196420000Y-99060000D03*
X198120000Y-99060000D03*
X199820000Y-99060000D03*
%TD*%
D10*
%TO.C,U5*%
X193040000Y-109220000D03*
D11*
X194740000Y-109220000D03*
X196440000Y-109220000D03*
X198140000Y-109220000D03*
X199840000Y-109220000D03*
%TD*%
D12*
%TO.C,R4*%
X200430000Y-82550000D03*
X201070000Y-82550000D03*
%TD*%
%TO.C,R3*%
X168240000Y-112240000D03*
X168880000Y-112240000D03*
%TD*%
%TO.C,R2*%
X187640000Y-109220000D03*
X188280000Y-109220000D03*
%TD*%
%TO.C,R1*%
X173890000Y-107950000D03*
X174530000Y-107950000D03*
%TD*%
D13*
%TO.C,J1*%
X139700000Y-83820000D03*
D14*
X139700000Y-86360000D03*
X139700000Y-88900000D03*
X139700000Y-91440000D03*
X139700000Y-93980000D03*
X139700000Y-96520000D03*
X139700000Y-99060000D03*
X139700000Y-101600000D03*
X139700000Y-104140000D03*
X139700000Y-106680000D03*
X139700000Y-109220000D03*
%TD*%
D15*
%TO.C,D4*%
X178562000Y-109220000D03*
D16*
X180721000Y-109220000D03*
X182880000Y-109220000D03*
X185039000Y-109220000D03*
%TD*%
D17*
%TO.C,D3*%
X168780000Y-109220000D03*
X171580000Y-109220000D03*
%TD*%
%TO.C,D2*%
X195320000Y-83820000D03*
X198120000Y-83820000D03*
%TD*%
%TO.C,D1*%
X153540000Y-109220000D03*
X156340000Y-109220000D03*
%TD*%
D18*
%TO.C,U3*%
X174650000Y-85970000D03*
D19*
X180950000Y-88270000D03*
D18*
X174650000Y-88270000D03*
X174650000Y-90570000D03*
%TD*%
D20*
%TO.C,U4*%
X149860000Y-86360000D03*
X149860000Y-88900000D03*
X149860000Y-91440000D03*
X149860000Y-93980000D03*
X149860000Y-96520000D03*
X149860000Y-99060000D03*
X149860000Y-101600000D03*
X166024560Y-101600000D03*
X166024560Y-99060000D03*
X166024560Y-96520000D03*
X166024560Y-93980000D03*
X166024560Y-91440000D03*
X166024560Y-88900000D03*
X166024560Y-86360000D03*
D21*
X156726880Y-102677820D03*
X159276880Y-102677820D03*
D22*
X156725683Y-85673633D03*
X159265683Y-85673633D03*
X156725683Y-88213633D03*
X159265683Y-88213633D03*
%TD*%
D18*
%TO.C,U2*%
X184500000Y-85970000D03*
D19*
X190800000Y-88270000D03*
D18*
X184500000Y-88270000D03*
X184500000Y-90570000D03*
%TD*%
%TO.C,U1*%
X174650000Y-94220000D03*
X174650000Y-96520000D03*
D19*
X180950000Y-96520000D03*
D18*
X174650000Y-98820000D03*
%TD*%
M02*
