<?xml version="1.0" standalone="no"?>
 <!DOCTYPE svg PUBLIC "-//W3C//DTD SVG 1.1//EN" 
 "http://www.w3.org/Graphics/SVG/1.1/DTD/svg11.dtd"> 
<svg
  xmlns:svg="http://www.w3.org/2000/svg"
  xmlns="http://www.w3.org/2000/svg"
  xmlns:xlink="http://www.w3.org/1999/xlink"
  version="1.1"
  width="7.025640cm" height="3.563620cm" viewBox="0 0 70256400 35636200">
<title>SVG Picture created as MainPCB-F_Cu.svg date 2024/03/20 11:30:35 </title>
  <desc>Picture generated by PCBNEW </desc>
<g style="fill:#000000; fill-opacity:1.000000;stroke:#000000; stroke-opacity:1.000000;
stroke-linecap:round; stroke-linejoin:round;"
 transform="translate(0 0) scale(1 1)">
</g>
<g style="fill:#000000; fill-opacity:0.0; 
stroke:#000000; stroke-width:0.000000; stroke-opacity:1; 
stroke-linecap:round; stroke-linejoin:round;">
<g >
</g>
<g style="fill:#000000; fill-opacity:0.0; 
stroke:#000000; stroke-width:1.000000; stroke-opacity:1; 
stroke-linecap:round; stroke-linejoin:round;">
</g>
<g style="fill:#000000; fill-opacity:1.0; 
stroke:#000000; stroke-width:1.000000; stroke-opacity:1; 
stroke-linecap:round; stroke-linejoin:round;">
<path style="fill:#000000; fill-opacity:1.0; 
stroke:#000000; stroke-width:1.000000; stroke-opacity:1; 
stroke-linecap:round; stroke-linejoin:round;fill-rule:evenodd;"
d="M 59400357.000000,21270000.000000
59400357.000000,19470000.000000
60675357.000000,19470000.000000
60675357.000000,21270000.000000
Z" /> 
</g>
<g style="fill:#000000; fill-opacity:1.0; 
stroke:#000000; stroke-width:1275000.000000; stroke-opacity:1; 
stroke-linecap:round; stroke-linejoin:round;">
</g>
<g style="fill:#000000; fill-opacity:0.0; 
stroke:#000000; stroke-width:1275000.000000; stroke-opacity:1; 
stroke-linecap:round; stroke-linejoin:round;">
<path d="M61737857 20107500
L61737857 20632500
" />
<path d="M63437857 20107500
L63437857 20632500
" />
<path d="M65137857 20107500
L65137857 20632500
" />
<path d="M66837857 20107500
L66837857 20632500
" />
</g>
<g >
</g>
<g style="fill:#000000; fill-opacity:0.0; 
stroke:#000000; stroke-width:1275000.000000; stroke-opacity:1; 
stroke-linecap:round; stroke-linejoin:round;">
</g>
<g style="fill:#000000; fill-opacity:0.0; 
stroke:#000000; stroke-width:1.000000; stroke-opacity:1; 
stroke-linecap:round; stroke-linejoin:round;">
</g>
<g style="fill:#000000; fill-opacity:1.0; 
stroke:#000000; stroke-width:1.000000; stroke-opacity:1; 
stroke-linecap:round; stroke-linejoin:round;">
<path style="fill:#000000; fill-opacity:1.0; 
stroke:#000000; stroke-width:1.000000; stroke-opacity:1; 
stroke-linecap:round; stroke-linejoin:round;fill-rule:evenodd;"
d="M 59420357.000000,31430000.000000
59420357.000000,29630000.000000
60695357.000000,29630000.000000
60695357.000000,31430000.000000
Z" /> 
</g>
<g style="fill:#000000; fill-opacity:1.0; 
stroke:#000000; stroke-width:1275000.000000; stroke-opacity:1; 
stroke-linecap:round; stroke-linejoin:round;">
</g>
<g style="fill:#000000; fill-opacity:0.0; 
stroke:#000000; stroke-width:1275000.000000; stroke-opacity:1; 
stroke-linecap:round; stroke-linejoin:round;">
<path d="M61757857 30267500
L61757857 30792500
" />
<path d="M63457857 30267500
L63457857 30792500
" />
<path d="M65157857 30267500
L65157857 30792500
" />
<path d="M66857857 30267500
L66857857 30792500
" />
</g>
<g >
</g>
<g style="fill:#000000; fill-opacity:0.0; 
stroke:#000000; stroke-width:1275000.000000; stroke-opacity:1; 
stroke-linecap:round; stroke-linejoin:round;">
</g>
<g style="fill:#000000; fill-opacity:0.0; 
stroke:#000000; stroke-width:1.000000; stroke-opacity:1; 
stroke-linecap:round; stroke-linejoin:round;">
</g>
<g style="fill:#000000; fill-opacity:1.0; 
stroke:#000000; stroke-width:1.000000; stroke-opacity:1; 
stroke-linecap:round; stroke-linejoin:round;">
<path style="fill:#000000; fill-opacity:1.0; 
stroke:#000000; stroke-width:1.000000; stroke-opacity:1; 
stroke-linecap:round; stroke-linejoin:round;fill-rule:evenodd;"
d="M 67217857.000000,3760000.000000
67225469.000000,3721732.000000
67247146.000000,3689289.000000
67279589.000000,3667612.000000
67317857.000000,3660000.000000
67577857.000000,3660000.000000
67616125.000000,3667612.000000
67648568.000000,3689289.000000
67670245.000000,3721732.000000
67677857.000000,3760000.000000
67677857.000000,3960000.000000
67670245.000000,3998268.000000
67648568.000000,4030711.000000
67616125.000000,4052388.000000
67577857.000000,4060000.000000
67317857.000000,4060000.000000
67279589.000000,4052388.000000
67247146.000000,4030711.000000
67225469.000000,3998268.000000
67217857.000000,3960000.000000
Z" /> 
<path style="fill:#000000; fill-opacity:1.0; 
stroke:#000000; stroke-width:1.000000; stroke-opacity:1; 
stroke-linecap:round; stroke-linejoin:round;fill-rule:evenodd;"
d="M 67857857.000000,3760000.000000
67865469.000000,3721732.000000
67887146.000000,3689289.000000
67919589.000000,3667612.000000
67957857.000000,3660000.000000
68217857.000000,3660000.000000
68256125.000000,3667612.000000
68288568.000000,3689289.000000
68310245.000000,3721732.000000
68317857.000000,3760000.000000
68317857.000000,3960000.000000
68310245.000000,3998268.000000
68288568.000000,4030711.000000
68256125.000000,4052388.000000
68217857.000000,4060000.000000
67957857.000000,4060000.000000
67919589.000000,4052388.000000
67887146.000000,4030711.000000
67865469.000000,3998268.000000
67857857.000000,3960000.000000
Z" /> 
</g>
<g >
</g>
<g style="fill:#000000; fill-opacity:1.0; 
stroke:#000000; stroke-width:1.000000; stroke-opacity:1; 
stroke-linecap:round; stroke-linejoin:round;">
<path style="fill:#000000; fill-opacity:1.0; 
stroke:#000000; stroke-width:1.000000; stroke-opacity:1; 
stroke-linecap:round; stroke-linejoin:round;fill-rule:evenodd;"
d="M 35027857.000000,33450000.000000
35035469.000000,33411732.000000
35057146.000000,33379289.000000
35089589.000000,33357612.000000
35127857.000000,33350000.000000
35387857.000000,33350000.000000
35426125.000000,33357612.000000
35458568.000000,33379289.000000
35480245.000000,33411732.000000
35487857.000000,33450000.000000
35487857.000000,33650000.000000
35480245.000000,33688268.000000
35458568.000000,33720711.000000
35426125.000000,33742388.000000
35387857.000000,33750000.000000
35127857.000000,33750000.000000
35089589.000000,33742388.000000
35057146.000000,33720711.000000
35035469.000000,33688268.000000
35027857.000000,33650000.000000
Z" /> 
<path style="fill:#000000; fill-opacity:1.0; 
stroke:#000000; stroke-width:1.000000; stroke-opacity:1; 
stroke-linecap:round; stroke-linejoin:round;fill-rule:evenodd;"
d="M 35667857.000000,33450000.000000
35675469.000000,33411732.000000
35697146.000000,33379289.000000
35729589.000000,33357612.000000
35767857.000000,33350000.000000
36027857.000000,33350000.000000
36066125.000000,33357612.000000
36098568.000000,33379289.000000
36120245.000000,33411732.000000
36127857.000000,33450000.000000
36127857.000000,33650000.000000
36120245.000000,33688268.000000
36098568.000000,33720711.000000
36066125.000000,33742388.000000
36027857.000000,33750000.000000
35767857.000000,33750000.000000
35729589.000000,33742388.000000
35697146.000000,33720711.000000
35675469.000000,33688268.000000
35667857.000000,33650000.000000
Z" /> 
</g>
<g >
</g>
<g style="fill:#000000; fill-opacity:1.0; 
stroke:#000000; stroke-width:1.000000; stroke-opacity:1; 
stroke-linecap:round; stroke-linejoin:round;">
<path style="fill:#000000; fill-opacity:1.0; 
stroke:#000000; stroke-width:1.000000; stroke-opacity:1; 
stroke-linecap:round; stroke-linejoin:round;fill-rule:evenodd;"
d="M 54427857.000000,30430000.000000
54435469.000000,30391732.000000
54457146.000000,30359289.000000
54489589.000000,30337612.000000
54527857.000000,30330000.000000
54787857.000000,30330000.000000
54826125.000000,30337612.000000
54858568.000000,30359289.000000
54880245.000000,30391732.000000
54887857.000000,30430000.000000
54887857.000000,30630000.000000
54880245.000000,30668268.000000
54858568.000000,30700711.000000
54826125.000000,30722388.000000
54787857.000000,30730000.000000
54527857.000000,30730000.000000
54489589.000000,30722388.000000
54457146.000000,30700711.000000
54435469.000000,30668268.000000
54427857.000000,30630000.000000
Z" /> 
<path style="fill:#000000; fill-opacity:1.0; 
stroke:#000000; stroke-width:1.000000; stroke-opacity:1; 
stroke-linecap:round; stroke-linejoin:round;fill-rule:evenodd;"
d="M 55067857.000000,30430000.000000
55075469.000000,30391732.000000
55097146.000000,30359289.000000
55129589.000000,30337612.000000
55167857.000000,30330000.000000
55427857.000000,30330000.000000
55466125.000000,30337612.000000
55498568.000000,30359289.000000
55520245.000000,30391732.000000
55527857.000000,30430000.000000
55527857.000000,30630000.000000
55520245.000000,30668268.000000
55498568.000000,30700711.000000
55466125.000000,30722388.000000
55427857.000000,30730000.000000
55167857.000000,30730000.000000
55129589.000000,30722388.000000
55097146.000000,30700711.000000
55075469.000000,30668268.000000
55067857.000000,30630000.000000
Z" /> 
</g>
<g >
</g>
<g style="fill:#000000; fill-opacity:1.0; 
stroke:#000000; stroke-width:1.000000; stroke-opacity:1; 
stroke-linecap:round; stroke-linejoin:round;">
<path style="fill:#000000; fill-opacity:1.0; 
stroke:#000000; stroke-width:1.000000; stroke-opacity:1; 
stroke-linecap:round; stroke-linejoin:round;fill-rule:evenodd;"
d="M 40677857.000000,29160000.000000
40685469.000000,29121732.000000
40707146.000000,29089289.000000
40739589.000000,29067612.000000
40777857.000000,29060000.000000
41037857.000000,29060000.000000
41076125.000000,29067612.000000
41108568.000000,29089289.000000
41130245.000000,29121732.000000
41137857.000000,29160000.000000
41137857.000000,29360000.000000
41130245.000000,29398268.000000
41108568.000000,29430711.000000
41076125.000000,29452388.000000
41037857.000000,29460000.000000
40777857.000000,29460000.000000
40739589.000000,29452388.000000
40707146.000000,29430711.000000
40685469.000000,29398268.000000
40677857.000000,29360000.000000
Z" /> 
<path style="fill:#000000; fill-opacity:1.0; 
stroke:#000000; stroke-width:1.000000; stroke-opacity:1; 
stroke-linecap:round; stroke-linejoin:round;fill-rule:evenodd;"
d="M 41317857.000000,29160000.000000
41325469.000000,29121732.000000
41347146.000000,29089289.000000
41379589.000000,29067612.000000
41417857.000000,29060000.000000
41677857.000000,29060000.000000
41716125.000000,29067612.000000
41748568.000000,29089289.000000
41770245.000000,29121732.000000
41777857.000000,29160000.000000
41777857.000000,29360000.000000
41770245.000000,29398268.000000
41748568.000000,29430711.000000
41716125.000000,29452388.000000
41677857.000000,29460000.000000
41417857.000000,29460000.000000
41379589.000000,29452388.000000
41347146.000000,29430711.000000
41325469.000000,29398268.000000
41317857.000000,29360000.000000
Z" /> 
</g>
<g >
</g>
<g style="fill:#000000; fill-opacity:1.0; 
stroke:#000000; stroke-width:1.000000; stroke-opacity:1; 
stroke-linecap:round; stroke-linejoin:round;">
<path style="fill:#000000; fill-opacity:1.0; 
stroke:#000000; stroke-width:1.000000; stroke-opacity:1; 
stroke-linecap:round; stroke-linejoin:round;fill-rule:evenodd;"
d="M 5867857.000000,5980000.000000
5867857.000000,4280000.000000
7567857.000000,4280000.000000
7567857.000000,5980000.000000
Z" /> 
<circle cx="6717857.000000" cy="7670000.000000" r="850000.000000" /> 
<circle cx="6717857.000000" cy="10210000.000000" r="850000.000000" /> 
<circle cx="6717857.000000" cy="12750000.000000" r="850000.000000" /> 
<circle cx="6717857.000000" cy="15290000.000000" r="850000.000000" /> 
<circle cx="6717857.000000" cy="17830000.000000" r="850000.000000" /> 
<circle cx="6717857.000000" cy="20370000.000000" r="850000.000000" /> 
<circle cx="6717857.000000" cy="22910000.000000" r="850000.000000" /> 
<circle cx="6717857.000000" cy="25450000.000000" r="850000.000000" /> 
<circle cx="6717857.000000" cy="27990000.000000" r="850000.000000" /> 
<circle cx="6717857.000000" cy="30530000.000000" r="850000.000000" /> 
</g>
<g >
</g>
<g style="fill:#000000; fill-opacity:1.0; 
stroke:#000000; stroke-width:1.000000; stroke-opacity:1; 
stroke-linecap:round; stroke-linejoin:round;">
<path style="fill:#000000; fill-opacity:1.0; 
stroke:#000000; stroke-width:1.000000; stroke-opacity:1; 
stroke-linecap:round; stroke-linejoin:round;fill-rule:evenodd;"
d="M 44679857.000000,31430000.000000
44679857.000000,29630000.000000
46479857.000000,29630000.000000
46479857.000000,31430000.000000
Z" /> 
<circle cx="47738857.000000" cy="30530000.000000" r="900000.000000" /> 
</g>
<g style="fill:#000000; fill-opacity:1.0; 
stroke:#000000; stroke-width:21200.000000; stroke-opacity:1; 
stroke-linecap:round; stroke-linejoin:round;">
</g>
<g style="fill:#000000; fill-opacity:1.0; 
stroke:#000000; stroke-width:1.000000; stroke-opacity:1; 
stroke-linecap:round; stroke-linejoin:round;">
<circle cx="49897857.000000" cy="30530000.000000" r="900000.000000" /> 
</g>
<g style="fill:#000000; fill-opacity:1.0; 
stroke:#000000; stroke-width:21200.000000; stroke-opacity:1; 
stroke-linecap:round; stroke-linejoin:round;">
</g>
<g style="fill:#000000; fill-opacity:1.0; 
stroke:#000000; stroke-width:1.000000; stroke-opacity:1; 
stroke-linecap:round; stroke-linejoin:round;">
<circle cx="52056857.000000" cy="30530000.000000" r="900000.000000" /> 
</g>
<g style="fill:#000000; fill-opacity:1.0; 
stroke:#000000; stroke-width:21200.000000; stroke-opacity:1; 
stroke-linecap:round; stroke-linejoin:round;">
</g>
<g >
</g>
<g style="fill:#000000; fill-opacity:1.0; 
stroke:#000000; stroke-width:21200.000000; stroke-opacity:1; 
stroke-linecap:round; stroke-linejoin:round;">
</g>
<g style="fill:#000000; fill-opacity:1.0; 
stroke:#000000; stroke-width:1.000000; stroke-opacity:1; 
stroke-linecap:round; stroke-linejoin:round;">
<path style="fill:#000000; fill-opacity:1.0; 
stroke:#000000; stroke-width:1.000000; stroke-opacity:1; 
stroke-linecap:round; stroke-linejoin:round;fill-rule:evenodd;"
d="M 35172857.000000,29455000.000000
35191887.000000,29359329.000000
35246080.000000,29278223.000000
35327186.000000,29224030.000000
35422857.000000,29205000.000000
36172857.000000,29205000.000000
36268528.000000,29224030.000000
36349634.000000,29278223.000000
36403827.000000,29359329.000000
36422857.000000,29455000.000000
36422857.000000,31605000.000000
36403827.000000,31700671.000000
36349634.000000,31781777.000000
36268528.000000,31835970.000000
36172857.000000,31855000.000000
35422857.000000,31855000.000000
35327186.000000,31835970.000000
35246080.000000,31781777.000000
35191887.000000,31700671.000000
35172857.000000,31605000.000000
Z" /> 
<path style="fill:#000000; fill-opacity:1.0; 
stroke:#000000; stroke-width:1.000000; stroke-opacity:1; 
stroke-linecap:round; stroke-linejoin:round;fill-rule:evenodd;"
d="M 37972857.000000,29455000.000000
37991887.000000,29359329.000000
38046080.000000,29278223.000000
38127186.000000,29224030.000000
38222857.000000,29205000.000000
38972857.000000,29205000.000000
39068528.000000,29224030.000000
39149634.000000,29278223.000000
39203827.000000,29359329.000000
39222857.000000,29455000.000000
39222857.000000,31605000.000000
39203827.000000,31700671.000000
39149634.000000,31781777.000000
39068528.000000,31835970.000000
38972857.000000,31855000.000000
38222857.000000,31855000.000000
38127186.000000,31835970.000000
38046080.000000,31781777.000000
37991887.000000,31700671.000000
37972857.000000,31605000.000000
Z" /> 
</g>
<g >
</g>
<g style="fill:#000000; fill-opacity:1.0; 
stroke:#000000; stroke-width:1.000000; stroke-opacity:1; 
stroke-linecap:round; stroke-linejoin:round;">
<path style="fill:#000000; fill-opacity:1.0; 
stroke:#000000; stroke-width:1.000000; stroke-opacity:1; 
stroke-linecap:round; stroke-linejoin:round;fill-rule:evenodd;"
d="M 61712857.000000,4055000.000000
61731887.000000,3959329.000000
61786080.000000,3878223.000000
61867186.000000,3824030.000000
61962857.000000,3805000.000000
62712857.000000,3805000.000000
62808528.000000,3824030.000000
62889634.000000,3878223.000000
62943827.000000,3959329.000000
62962857.000000,4055000.000000
62962857.000000,6205000.000000
62943827.000000,6300671.000000
62889634.000000,6381777.000000
62808528.000000,6435970.000000
62712857.000000,6455000.000000
61962857.000000,6455000.000000
61867186.000000,6435970.000000
61786080.000000,6381777.000000
61731887.000000,6300671.000000
61712857.000000,6205000.000000
Z" /> 
<path style="fill:#000000; fill-opacity:1.0; 
stroke:#000000; stroke-width:1.000000; stroke-opacity:1; 
stroke-linecap:round; stroke-linejoin:round;fill-rule:evenodd;"
d="M 64512857.000000,4055000.000000
64531887.000000,3959329.000000
64586080.000000,3878223.000000
64667186.000000,3824030.000000
64762857.000000,3805000.000000
65512857.000000,3805000.000000
65608528.000000,3824030.000000
65689634.000000,3878223.000000
65743827.000000,3959329.000000
65762857.000000,4055000.000000
65762857.000000,6205000.000000
65743827.000000,6300671.000000
65689634.000000,6381777.000000
65608528.000000,6435970.000000
65512857.000000,6455000.000000
64762857.000000,6455000.000000
64667186.000000,6435970.000000
64586080.000000,6381777.000000
64531887.000000,6300671.000000
64512857.000000,6205000.000000
Z" /> 
</g>
<g >
</g>
<g style="fill:#000000; fill-opacity:1.0; 
stroke:#000000; stroke-width:1.000000; stroke-opacity:1; 
stroke-linecap:round; stroke-linejoin:round;">
<path style="fill:#000000; fill-opacity:1.0; 
stroke:#000000; stroke-width:1.000000; stroke-opacity:1; 
stroke-linecap:round; stroke-linejoin:round;fill-rule:evenodd;"
d="M 19932857.000000,29455000.000000
19951887.000000,29359329.000000
20006080.000000,29278223.000000
20087186.000000,29224030.000000
20182857.000000,29205000.000000
20932857.000000,29205000.000000
21028528.000000,29224030.000000
21109634.000000,29278223.000000
21163827.000000,29359329.000000
21182857.000000,29455000.000000
21182857.000000,31605000.000000
21163827.000000,31700671.000000
21109634.000000,31781777.000000
21028528.000000,31835970.000000
20932857.000000,31855000.000000
20182857.000000,31855000.000000
20087186.000000,31835970.000000
20006080.000000,31781777.000000
19951887.000000,31700671.000000
19932857.000000,31605000.000000
Z" /> 
<path style="fill:#000000; fill-opacity:1.0; 
stroke:#000000; stroke-width:1.000000; stroke-opacity:1; 
stroke-linecap:round; stroke-linejoin:round;fill-rule:evenodd;"
d="M 22732857.000000,29455000.000000
22751887.000000,29359329.000000
22806080.000000,29278223.000000
22887186.000000,29224030.000000
22982857.000000,29205000.000000
23732857.000000,29205000.000000
23828528.000000,29224030.000000
23909634.000000,29278223.000000
23963827.000000,29359329.000000
23982857.000000,29455000.000000
23982857.000000,31605000.000000
23963827.000000,31700671.000000
23909634.000000,31781777.000000
23828528.000000,31835970.000000
23732857.000000,31855000.000000
22982857.000000,31855000.000000
22887186.000000,31835970.000000
22806080.000000,31781777.000000
22751887.000000,31700671.000000
22732857.000000,31605000.000000
Z" /> 
</g>
<g >
</g>
<g style="fill:#000000; fill-opacity:1.0; 
stroke:#000000; stroke-width:1.000000; stroke-opacity:1; 
stroke-linecap:round; stroke-linejoin:round;">
<path style="fill:#000000; fill-opacity:1.0; 
stroke:#000000; stroke-width:1.000000; stroke-opacity:1; 
stroke-linecap:round; stroke-linejoin:round;fill-rule:evenodd;"
d="M 40667857.000000,8030000.000000
40667857.000000,6530000.000000
42667857.000000,6530000.000000
42667857.000000,8030000.000000
Z" /> 
<path style="fill:#000000; fill-opacity:1.0; 
stroke:#000000; stroke-width:1.000000; stroke-opacity:1; 
stroke-linecap:round; stroke-linejoin:round;fill-rule:evenodd;"
d="M 46967857.000000,11480000.000000
46967857.000000,7680000.000000
48967857.000000,7680000.000000
48967857.000000,11480000.000000
Z" /> 
<path style="fill:#000000; fill-opacity:1.0; 
stroke:#000000; stroke-width:1.000000; stroke-opacity:1; 
stroke-linecap:round; stroke-linejoin:round;fill-rule:evenodd;"
d="M 40667857.000000,10330000.000000
40667857.000000,8830000.000000
42667857.000000,8830000.000000
42667857.000000,10330000.000000
Z" /> 
<path style="fill:#000000; fill-opacity:1.0; 
stroke:#000000; stroke-width:1.000000; stroke-opacity:1; 
stroke-linecap:round; stroke-linejoin:round;fill-rule:evenodd;"
d="M 40667857.000000,12630000.000000
40667857.000000,11130000.000000
42667857.000000,11130000.000000
42667857.000000,12630000.000000
Z" /> 
</g>
<g >
</g>
<g style="fill:#000000; fill-opacity:1.0; 
stroke:#000000; stroke-width:1.000000; stroke-opacity:1; 
stroke-linecap:round; stroke-linejoin:round;">
</g>
<g style="fill:#000000; fill-opacity:1.0; 
stroke:#000000; stroke-width:1998980.000000; stroke-opacity:1; 
stroke-linecap:round; stroke-linejoin:round;">
</g>
<g style="fill:#000000; fill-opacity:0.0; 
stroke:#000000; stroke-width:1998980.000000; stroke-opacity:1; 
stroke-linecap:round; stroke-linejoin:round;">
<path d="M16503207 7670000
L17252507 7670000
" />
<path d="M16503207 10210000
L17252507 10210000
" />
<path d="M16503207 12750000
L17252507 12750000
" />
<path d="M16503207 15290000
L17252507 15290000
" />
<path d="M16503207 17830000
L17252507 17830000
" />
<path d="M16503207 20370000
L17252507 20370000
" />
<path d="M16503207 22910000
L17252507 22910000
" />
<path d="M32667767 22910000
L33417067 22910000
" />
<path d="M32667767 20370000
L33417067 20370000
" />
<path d="M32667767 17830000
L33417067 17830000
" />
<path d="M32667767 15290000
L33417067 15290000
" />
<path d="M32667767 12750000
L33417067 12750000
" />
<path d="M32667767 10210000
L33417067 10210000
" />
<path d="M32667767 7670000
L33417067 7670000
" />
</g>
<g style="fill:#000000; fill-opacity:0.0; 
stroke:#000000; stroke-width:1016000.000000; stroke-opacity:1; 
stroke-linecap:round; stroke-linejoin:round;">
<path d="M23744737 24495820
L23744737 23479820
" />
<path d="M26294737 24495820
L26294737 23479820
" />
</g>
<g style="fill:#000000; fill-opacity:1.0; 
stroke:#000000; stroke-width:1.000000; stroke-opacity:1; 
stroke-linecap:round; stroke-linejoin:round;">
<circle cx="23743540.000000" cy="6983633.000000" r="571500.000000" /> 
</g>
<g style="fill:#000000; fill-opacity:1.0; 
stroke:#000000; stroke-width:21200.000000; stroke-opacity:1; 
stroke-linecap:round; stroke-linejoin:round;">
</g>
<g style="fill:#000000; fill-opacity:1.0; 
stroke:#000000; stroke-width:1.000000; stroke-opacity:1; 
stroke-linecap:round; stroke-linejoin:round;">
<circle cx="26283540.000000" cy="6983633.000000" r="571500.000000" /> 
</g>
<g style="fill:#000000; fill-opacity:1.0; 
stroke:#000000; stroke-width:21200.000000; stroke-opacity:1; 
stroke-linecap:round; stroke-linejoin:round;">
</g>
<g style="fill:#000000; fill-opacity:1.0; 
stroke:#000000; stroke-width:1.000000; stroke-opacity:1; 
stroke-linecap:round; stroke-linejoin:round;">
<circle cx="23743540.000000" cy="9523633.000000" r="571500.000000" /> 
</g>
<g style="fill:#000000; fill-opacity:1.0; 
stroke:#000000; stroke-width:21200.000000; stroke-opacity:1; 
stroke-linecap:round; stroke-linejoin:round;">
</g>
<g style="fill:#000000; fill-opacity:1.0; 
stroke:#000000; stroke-width:1.000000; stroke-opacity:1; 
stroke-linecap:round; stroke-linejoin:round;">
<circle cx="26283540.000000" cy="9523633.000000" r="571500.000000" /> 
</g>
<g style="fill:#000000; fill-opacity:1.0; 
stroke:#000000; stroke-width:21200.000000; stroke-opacity:1; 
stroke-linecap:round; stroke-linejoin:round;">
</g>
<g >
</g>
<g style="fill:#000000; fill-opacity:1.0; 
stroke:#000000; stroke-width:21200.000000; stroke-opacity:1; 
stroke-linecap:round; stroke-linejoin:round;">
</g>
<g style="fill:#000000; fill-opacity:1.0; 
stroke:#000000; stroke-width:1.000000; stroke-opacity:1; 
stroke-linecap:round; stroke-linejoin:round;">
<path style="fill:#000000; fill-opacity:1.0; 
stroke:#000000; stroke-width:1.000000; stroke-opacity:1; 
stroke-linecap:round; stroke-linejoin:round;fill-rule:evenodd;"
d="M 50517857.000000,8030000.000000
50517857.000000,6530000.000000
52517857.000000,6530000.000000
52517857.000000,8030000.000000
Z" /> 
<path style="fill:#000000; fill-opacity:1.0; 
stroke:#000000; stroke-width:1.000000; stroke-opacity:1; 
stroke-linecap:round; stroke-linejoin:round;fill-rule:evenodd;"
d="M 56817857.000000,11480000.000000
56817857.000000,7680000.000000
58817857.000000,7680000.000000
58817857.000000,11480000.000000
Z" /> 
<path style="fill:#000000; fill-opacity:1.0; 
stroke:#000000; stroke-width:1.000000; stroke-opacity:1; 
stroke-linecap:round; stroke-linejoin:round;fill-rule:evenodd;"
d="M 50517857.000000,10330000.000000
50517857.000000,8830000.000000
52517857.000000,8830000.000000
52517857.000000,10330000.000000
Z" /> 
<path style="fill:#000000; fill-opacity:1.0; 
stroke:#000000; stroke-width:1.000000; stroke-opacity:1; 
stroke-linecap:round; stroke-linejoin:round;fill-rule:evenodd;"
d="M 50517857.000000,12630000.000000
50517857.000000,11130000.000000
52517857.000000,11130000.000000
52517857.000000,12630000.000000
Z" /> 
</g>
<g >
</g>
<g style="fill:#000000; fill-opacity:1.0; 
stroke:#000000; stroke-width:1.000000; stroke-opacity:1; 
stroke-linecap:round; stroke-linejoin:round;">
<path style="fill:#000000; fill-opacity:1.0; 
stroke:#000000; stroke-width:1.000000; stroke-opacity:1; 
stroke-linecap:round; stroke-linejoin:round;fill-rule:evenodd;"
d="M 40667857.000000,16280000.000000
40667857.000000,14780000.000000
42667857.000000,14780000.000000
42667857.000000,16280000.000000
Z" /> 
<path style="fill:#000000; fill-opacity:1.0; 
stroke:#000000; stroke-width:1.000000; stroke-opacity:1; 
stroke-linecap:round; stroke-linejoin:round;fill-rule:evenodd;"
d="M 40667857.000000,18580000.000000
40667857.000000,17080000.000000
42667857.000000,17080000.000000
42667857.000000,18580000.000000
Z" /> 
<path style="fill:#000000; fill-opacity:1.0; 
stroke:#000000; stroke-width:1.000000; stroke-opacity:1; 
stroke-linecap:round; stroke-linejoin:round;fill-rule:evenodd;"
d="M 46967857.000000,19730000.000000
46967857.000000,15930000.000000
48967857.000000,15930000.000000
48967857.000000,19730000.000000
Z" /> 
<path style="fill:#000000; fill-opacity:1.0; 
stroke:#000000; stroke-width:1.000000; stroke-opacity:1; 
stroke-linecap:round; stroke-linejoin:round;fill-rule:evenodd;"
d="M 40667857.000000,20880000.000000
40667857.000000,19380000.000000
42667857.000000,19380000.000000
42667857.000000,20880000.000000
Z" /> 
</g>
<g >
</g>
<g >
</g>
<g style="fill:#000000; fill-opacity:1.0; 
stroke:#000000; stroke-width:1.000000; stroke-opacity:1; 
stroke-linecap:round; stroke-linejoin:round;">
</g>
<g style="fill:#000000; fill-opacity:1.0; 
stroke:#000000; stroke-width:250000.000000; stroke-opacity:1; 
stroke-linecap:round; stroke-linejoin:round;">
</g>
<g style="fill:#000000; fill-opacity:0.0; 
stroke:#000000; stroke-width:250000.000000; stroke-opacity:1; 
stroke-linecap:round; stroke-linejoin:round;">
<path d="M6717857 20370000
L9257857 22910000
" />
<path d="M9257857 22910000
L16877857 22910000
" />
<path d="M6717857 17830000
L9257857 20370000
" />
<path d="M9257857 20370000
L16877857 20370000
" />
<path d="M6717857 15290000
L9257857 17830000
" />
<path d="M9257857 17830000
L16877857 17830000
" />
<path d="M16877857 15290000
L9257857 15290000
" />
<path d="M9257857 15290000
L6717857 12750000
" />
<path d="M16877857 12750000
L14337857 12750000
" />
<path d="M6717857 10210000
L11797857 10210000
" />
<path d="M11797857 10210000
L14337857 12750000
" />
<path d="M14337857 10210000
L16877857 10210000
" />
<path d="M6717857 7670000
L11797857 7670000
" />
<path d="M11797857 7670000
L14337857 10210000
" />
<path d="M6717857 5130000
L11797857 5130000
" />
<path d="M11797857 5130000
L14337857 7670000
" />
<path d="M14337857 7670000
L16877857 7670000
" />
</g>
<g >
</g>
</g>
<g style="fill:#FFFFFF; fill-opacity:0.0; 
stroke:#FFFFFF; stroke-width:250000.000000; stroke-opacity:1; 
stroke-linecap:round; stroke-linejoin:round;">
</g>
<g style="fill:#FFFFFF; fill-opacity:1.0; 
stroke:#FFFFFF; stroke-width:1.000000; stroke-opacity:1; 
stroke-linecap:round; stroke-linejoin:round;">
<circle cx="60037857.000000" cy="20370000.000000" r="550000.000000" /> 
</g>
<g style="fill:#FFFFFF; fill-opacity:1.0; 
stroke:#FFFFFF; stroke-width:21200.000000; stroke-opacity:1; 
stroke-linecap:round; stroke-linejoin:round;">
</g>
<g style="fill:#FFFFFF; fill-opacity:1.0; 
stroke:#FFFFFF; stroke-width:1.000000; stroke-opacity:1; 
stroke-linecap:round; stroke-linejoin:round;">
<circle cx="61737857.000000" cy="20370000.000000" r="550000.000000" /> 
</g>
<g style="fill:#FFFFFF; fill-opacity:1.0; 
stroke:#FFFFFF; stroke-width:21200.000000; stroke-opacity:1; 
stroke-linecap:round; stroke-linejoin:round;">
</g>
<g style="fill:#FFFFFF; fill-opacity:1.0; 
stroke:#FFFFFF; stroke-width:1.000000; stroke-opacity:1; 
stroke-linecap:round; stroke-linejoin:round;">
<circle cx="63437857.000000" cy="20370000.000000" r="550000.000000" /> 
</g>
<g style="fill:#FFFFFF; fill-opacity:1.0; 
stroke:#FFFFFF; stroke-width:21200.000000; stroke-opacity:1; 
stroke-linecap:round; stroke-linejoin:round;">
</g>
<g style="fill:#FFFFFF; fill-opacity:1.0; 
stroke:#FFFFFF; stroke-width:1.000000; stroke-opacity:1; 
stroke-linecap:round; stroke-linejoin:round;">
<circle cx="65137857.000000" cy="20370000.000000" r="550000.000000" /> 
</g>
<g style="fill:#FFFFFF; fill-opacity:1.0; 
stroke:#FFFFFF; stroke-width:21200.000000; stroke-opacity:1; 
stroke-linecap:round; stroke-linejoin:round;">
</g>
<g style="fill:#FFFFFF; fill-opacity:1.0; 
stroke:#FFFFFF; stroke-width:1.000000; stroke-opacity:1; 
stroke-linecap:round; stroke-linejoin:round;">
<circle cx="66837857.000000" cy="20370000.000000" r="550000.000000" /> 
</g>
<g style="fill:#FFFFFF; fill-opacity:1.0; 
stroke:#FFFFFF; stroke-width:21200.000000; stroke-opacity:1; 
stroke-linecap:round; stroke-linejoin:round;">
</g>
<g style="fill:#FFFFFF; fill-opacity:1.0; 
stroke:#FFFFFF; stroke-width:1.000000; stroke-opacity:1; 
stroke-linecap:round; stroke-linejoin:round;">
<circle cx="60057857.000000" cy="30530000.000000" r="550000.000000" /> 
</g>
<g style="fill:#FFFFFF; fill-opacity:1.0; 
stroke:#FFFFFF; stroke-width:21200.000000; stroke-opacity:1; 
stroke-linecap:round; stroke-linejoin:round;">
</g>
<g style="fill:#FFFFFF; fill-opacity:1.0; 
stroke:#FFFFFF; stroke-width:1.000000; stroke-opacity:1; 
stroke-linecap:round; stroke-linejoin:round;">
<circle cx="61757857.000000" cy="30530000.000000" r="550000.000000" /> 
</g>
<g style="fill:#FFFFFF; fill-opacity:1.0; 
stroke:#FFFFFF; stroke-width:21200.000000; stroke-opacity:1; 
stroke-linecap:round; stroke-linejoin:round;">
</g>
<g style="fill:#FFFFFF; fill-opacity:1.0; 
stroke:#FFFFFF; stroke-width:1.000000; stroke-opacity:1; 
stroke-linecap:round; stroke-linejoin:round;">
<circle cx="63457857.000000" cy="30530000.000000" r="550000.000000" /> 
</g>
<g style="fill:#FFFFFF; fill-opacity:1.0; 
stroke:#FFFFFF; stroke-width:21200.000000; stroke-opacity:1; 
stroke-linecap:round; stroke-linejoin:round;">
</g>
<g style="fill:#FFFFFF; fill-opacity:1.0; 
stroke:#FFFFFF; stroke-width:1.000000; stroke-opacity:1; 
stroke-linecap:round; stroke-linejoin:round;">
<circle cx="65157857.000000" cy="30530000.000000" r="550000.000000" /> 
</g>
<g style="fill:#FFFFFF; fill-opacity:1.0; 
stroke:#FFFFFF; stroke-width:21200.000000; stroke-opacity:1; 
stroke-linecap:round; stroke-linejoin:round;">
</g>
<g style="fill:#FFFFFF; fill-opacity:1.0; 
stroke:#FFFFFF; stroke-width:1.000000; stroke-opacity:1; 
stroke-linecap:round; stroke-linejoin:round;">
<circle cx="66857857.000000" cy="30530000.000000" r="550000.000000" /> 
</g>
<g style="fill:#FFFFFF; fill-opacity:1.0; 
stroke:#FFFFFF; stroke-width:21200.000000; stroke-opacity:1; 
stroke-linecap:round; stroke-linejoin:round;">
</g>
<g style="fill:#FFFFFF; fill-opacity:1.0; 
stroke:#FFFFFF; stroke-width:1.000000; stroke-opacity:1; 
stroke-linecap:round; stroke-linejoin:round;">
<circle cx="6717857.000000" cy="5130000.000000" r="500000.000000" /> 
</g>
<g style="fill:#FFFFFF; fill-opacity:1.0; 
stroke:#FFFFFF; stroke-width:21200.000000; stroke-opacity:1; 
stroke-linecap:round; stroke-linejoin:round;">
</g>
<g style="fill:#FFFFFF; fill-opacity:1.0; 
stroke:#FFFFFF; stroke-width:1.000000; stroke-opacity:1; 
stroke-linecap:round; stroke-linejoin:round;">
<circle cx="6717857.000000" cy="7670000.000000" r="500000.000000" /> 
</g>
<g style="fill:#FFFFFF; fill-opacity:1.0; 
stroke:#FFFFFF; stroke-width:21200.000000; stroke-opacity:1; 
stroke-linecap:round; stroke-linejoin:round;">
</g>
<g style="fill:#FFFFFF; fill-opacity:1.0; 
stroke:#FFFFFF; stroke-width:1.000000; stroke-opacity:1; 
stroke-linecap:round; stroke-linejoin:round;">
<circle cx="6717857.000000" cy="10210000.000000" r="500000.000000" /> 
</g>
<g style="fill:#FFFFFF; fill-opacity:1.0; 
stroke:#FFFFFF; stroke-width:21200.000000; stroke-opacity:1; 
stroke-linecap:round; stroke-linejoin:round;">
</g>
<g style="fill:#FFFFFF; fill-opacity:1.0; 
stroke:#FFFFFF; stroke-width:1.000000; stroke-opacity:1; 
stroke-linecap:round; stroke-linejoin:round;">
<circle cx="6717857.000000" cy="12750000.000000" r="500000.000000" /> 
</g>
<g style="fill:#FFFFFF; fill-opacity:1.0; 
stroke:#FFFFFF; stroke-width:21200.000000; stroke-opacity:1; 
stroke-linecap:round; stroke-linejoin:round;">
</g>
<g style="fill:#FFFFFF; fill-opacity:1.0; 
stroke:#FFFFFF; stroke-width:1.000000; stroke-opacity:1; 
stroke-linecap:round; stroke-linejoin:round;">
<circle cx="6717857.000000" cy="15290000.000000" r="500000.000000" /> 
</g>
<g style="fill:#FFFFFF; fill-opacity:1.0; 
stroke:#FFFFFF; stroke-width:21200.000000; stroke-opacity:1; 
stroke-linecap:round; stroke-linejoin:round;">
</g>
<g style="fill:#FFFFFF; fill-opacity:1.0; 
stroke:#FFFFFF; stroke-width:1.000000; stroke-opacity:1; 
stroke-linecap:round; stroke-linejoin:round;">
<circle cx="6717857.000000" cy="17830000.000000" r="500000.000000" /> 
</g>
<g style="fill:#FFFFFF; fill-opacity:1.0; 
stroke:#FFFFFF; stroke-width:21200.000000; stroke-opacity:1; 
stroke-linecap:round; stroke-linejoin:round;">
</g>
<g style="fill:#FFFFFF; fill-opacity:1.0; 
stroke:#FFFFFF; stroke-width:1.000000; stroke-opacity:1; 
stroke-linecap:round; stroke-linejoin:round;">
<circle cx="6717857.000000" cy="20370000.000000" r="500000.000000" /> 
</g>
<g style="fill:#FFFFFF; fill-opacity:1.0; 
stroke:#FFFFFF; stroke-width:21200.000000; stroke-opacity:1; 
stroke-linecap:round; stroke-linejoin:round;">
</g>
<g style="fill:#FFFFFF; fill-opacity:1.0; 
stroke:#FFFFFF; stroke-width:1.000000; stroke-opacity:1; 
stroke-linecap:round; stroke-linejoin:round;">
<circle cx="6717857.000000" cy="22910000.000000" r="500000.000000" /> 
</g>
<g style="fill:#FFFFFF; fill-opacity:1.0; 
stroke:#FFFFFF; stroke-width:21200.000000; stroke-opacity:1; 
stroke-linecap:round; stroke-linejoin:round;">
</g>
<g style="fill:#FFFFFF; fill-opacity:1.0; 
stroke:#FFFFFF; stroke-width:1.000000; stroke-opacity:1; 
stroke-linecap:round; stroke-linejoin:round;">
<circle cx="6717857.000000" cy="25450000.000000" r="500000.000000" /> 
</g>
<g style="fill:#FFFFFF; fill-opacity:1.0; 
stroke:#FFFFFF; stroke-width:21200.000000; stroke-opacity:1; 
stroke-linecap:round; stroke-linejoin:round;">
</g>
<g style="fill:#FFFFFF; fill-opacity:1.0; 
stroke:#FFFFFF; stroke-width:1.000000; stroke-opacity:1; 
stroke-linecap:round; stroke-linejoin:round;">
<circle cx="6717857.000000" cy="27990000.000000" r="500000.000000" /> 
</g>
<g style="fill:#FFFFFF; fill-opacity:1.0; 
stroke:#FFFFFF; stroke-width:21200.000000; stroke-opacity:1; 
stroke-linecap:round; stroke-linejoin:round;">
</g>
<g style="fill:#FFFFFF; fill-opacity:1.0; 
stroke:#FFFFFF; stroke-width:1.000000; stroke-opacity:1; 
stroke-linecap:round; stroke-linejoin:round;">
<circle cx="6717857.000000" cy="30530000.000000" r="500000.000000" /> 
</g>
<g style="fill:#FFFFFF; fill-opacity:1.0; 
stroke:#FFFFFF; stroke-width:21200.000000; stroke-opacity:1; 
stroke-linecap:round; stroke-linejoin:round;">
</g>
<g style="fill:#FFFFFF; fill-opacity:1.0; 
stroke:#FFFFFF; stroke-width:1.000000; stroke-opacity:1; 
stroke-linecap:round; stroke-linejoin:round;">
<circle cx="45579857.000000" cy="30530000.000000" r="450000.000000" /> 
</g>
<g style="fill:#FFFFFF; fill-opacity:1.0; 
stroke:#FFFFFF; stroke-width:21200.000000; stroke-opacity:1; 
stroke-linecap:round; stroke-linejoin:round;">
</g>
<g style="fill:#FFFFFF; fill-opacity:1.0; 
stroke:#FFFFFF; stroke-width:1.000000; stroke-opacity:1; 
stroke-linecap:round; stroke-linejoin:round;">
<circle cx="47738857.000000" cy="30530000.000000" r="450000.000000" /> 
</g>
<g style="fill:#FFFFFF; fill-opacity:1.0; 
stroke:#FFFFFF; stroke-width:21200.000000; stroke-opacity:1; 
stroke-linecap:round; stroke-linejoin:round;">
</g>
<g style="fill:#FFFFFF; fill-opacity:1.0; 
stroke:#FFFFFF; stroke-width:1.000000; stroke-opacity:1; 
stroke-linecap:round; stroke-linejoin:round;">
<circle cx="49897857.000000" cy="30530000.000000" r="450000.000000" /> 
</g>
<g style="fill:#FFFFFF; fill-opacity:1.0; 
stroke:#FFFFFF; stroke-width:21200.000000; stroke-opacity:1; 
stroke-linecap:round; stroke-linejoin:round;">
</g>
<g style="fill:#FFFFFF; fill-opacity:1.0; 
stroke:#FFFFFF; stroke-width:1.000000; stroke-opacity:1; 
stroke-linecap:round; stroke-linejoin:round;">
<circle cx="52056857.000000" cy="30530000.000000" r="450000.000000" /> 
</g>
<g style="fill:#FFFFFF; fill-opacity:1.0; 
stroke:#FFFFFF; stroke-width:21200.000000; stroke-opacity:1; 
stroke-linecap:round; stroke-linejoin:round;">
</g>
<g style="fill:#000000; fill-opacity:1.0; 
stroke:#000000; stroke-width:21200.000000; stroke-opacity:1; 
stroke-linecap:round; stroke-linejoin:round;">
</g>
<g style="fill:#000000; fill-opacity:1.0; 
stroke:#000000; stroke-width:100000.000000; stroke-opacity:1; 
stroke-linecap:round; stroke-linejoin:round;">
</g>
<g style="fill:#000000; fill-opacity:0.0; 
stroke:#000000; stroke-width:100000.000000; stroke-opacity:1; 
stroke-linecap:round; stroke-linejoin:round;">
<path d="M70217857 35610000
L1637857 35610000
" />
<path d="M1637857 35610000
L1637857 50000
" />
<path d="M1637857 50000
L70217857 50000
" />
<path d="M70217857 50000
L70217857 35610000
" />
<g >
</g>
<g >
</g>
<g >
</g>
<g >
</g>
<g >
</g>
<g >
</g>
<g >
</g>
<g >
</g>
<g >
</g>
<g >
</g>
<g >
</g>
<g >
</g>
<g >
</g>
<g >
</g>
<g >
</g>
<g >
</g>
<g >
</g>
<g >
</g>
</g> 
</svg>
