%TF.GenerationSoftware,KiCad,Pcbnew,8.0.1*%
%TF.CreationDate,2024-05-24T22:02:00-04:00*%
%TF.ProjectId,MainPCBV3,4d61696e-5043-4425-9633-2e6b69636164,rev?*%
%TF.SameCoordinates,PX7270e00PY7bfa480*%
%TF.FileFunction,Copper,L1,Top*%
%TF.FilePolarity,Positive*%
%FSLAX45Y45*%
G04 Gerber Fmt 4.5, Leading zero omitted, Abs format (unit mm)*
G04 Created by KiCad (PCBNEW 8.0.1) date 2024-05-24 22:02:00*
%MOMM*%
%LPD*%
G01*
G04 APERTURE LIST*
G04 Aperture macros list*
%AMRoundRect*
0 Rectangle with rounded corners*
0 $1 Rounding radius*
0 $2 $3 $4 $5 $6 $7 $8 $9 X,Y pos of 4 corners*
0 Add a 4 corners polygon primitive as box body*
4,1,4,$2,$3,$4,$5,$6,$7,$8,$9,$2,$3,0*
0 Add four circle primitives for the rounded corners*
1,1,$1+$1,$2,$3*
1,1,$1+$1,$4,$5*
1,1,$1+$1,$6,$7*
1,1,$1+$1,$8,$9*
0 Add four rect primitives between the rounded corners*
20,1,$1+$1,$2,$3,$4,$5,0*
20,1,$1+$1,$4,$5,$6,$7,0*
20,1,$1+$1,$6,$7,$8,$9,0*
20,1,$1+$1,$8,$9,$2,$3,0*%
%AMHorizOval*
0 Thick line with rounded ends*
0 $1 width*
0 $2 $3 position (X,Y) of the first rounded end (center of the circle)*
0 $4 $5 position (X,Y) of the second rounded end (center of the circle)*
0 Add line between two ends*
20,1,$1,$2,$3,$4,$5,0*
0 Add two circle primitives to create the rounded ends*
1,1,$1,$2,$3*
1,1,$1,$4,$5*%
%AMRotRect*
0 Rectangle, with rotation*
0 The origin of the aperture is its center*
0 $1 length*
0 $2 width*
0 $3 Rotation angle, in degrees counterclockwise*
0 Add horizontal line*
21,1,$1,$2,0,0,$3*%
G04 Aperture macros list end*
%TA.AperFunction,ComponentPad*%
%ADD10C,1.600000*%
%TD*%
%TA.AperFunction,ComponentPad*%
%ADD11RotRect,2.600000X2.600000X45.000000*%
%TD*%
%TA.AperFunction,ComponentPad*%
%ADD12C,2.600000*%
%TD*%
%TA.AperFunction,ComponentPad*%
%ADD13RoundRect,0.250000X0.159099X-1.035911X1.035911X-0.159099X-0.159099X1.035911X-1.035911X0.159099X0*%
%TD*%
%TA.AperFunction,ComponentPad*%
%ADD14HorizOval,1.740000X-0.159099X0.159099X0.159099X-0.159099X0*%
%TD*%
%TA.AperFunction,ComponentPad*%
%ADD15HorizOval,1.998980X0.264918X-0.264918X-0.264918X0.264918X0*%
%TD*%
%TA.AperFunction,ComponentPad*%
%ADD16RotRect,2.748280X1.998980X45.000000*%
%TD*%
%TA.AperFunction,ComponentPad*%
%ADD17RoundRect,0.250000X0.845000X-0.620000X0.845000X0.620000X-0.845000X0.620000X-0.845000X-0.620000X0*%
%TD*%
%TA.AperFunction,ComponentPad*%
%ADD18O,2.190000X1.740000*%
%TD*%
%TA.AperFunction,SMDPad,CuDef*%
%ADD19RoundRect,0.250000X0.262500X0.450000X-0.262500X0.450000X-0.262500X-0.450000X0.262500X-0.450000X0*%
%TD*%
%TA.AperFunction,SMDPad,CuDef*%
%ADD20RoundRect,0.250000X-0.503814X-0.132583X-0.132583X-0.503814X0.503814X0.132583X0.132583X0.503814X0*%
%TD*%
%TA.AperFunction,SMDPad,CuDef*%
%ADD21RoundRect,0.250000X0.450000X-0.262500X0.450000X0.262500X-0.450000X0.262500X-0.450000X-0.262500X0*%
%TD*%
%TA.AperFunction,SMDPad,CuDef*%
%ADD22R,3.020000X0.970000*%
%TD*%
%TA.AperFunction,SMDPad,CuDef*%
%ADD23R,6.320000X5.670000*%
%TD*%
%TA.AperFunction,SMDPad,CuDef*%
%ADD24RotRect,3.020000X0.970000X225.000000*%
%TD*%
%TA.AperFunction,SMDPad,CuDef*%
%ADD25RotRect,6.320000X5.670000X45.000000*%
%TD*%
%TA.AperFunction,ComponentPad*%
%ADD26RoundRect,0.250000X-1.035911X-0.159099X-0.159099X-1.035911X1.035911X0.159099X0.159099X1.035911X0*%
%TD*%
%TA.AperFunction,ComponentPad*%
%ADD27HorizOval,1.740000X-0.159099X-0.159099X0.159099X0.159099X0*%
%TD*%
%TA.AperFunction,ComponentPad*%
%ADD28RoundRect,0.250000X0.620000X0.845000X-0.620000X0.845000X-0.620000X-0.845000X0.620000X-0.845000X0*%
%TD*%
%TA.AperFunction,ComponentPad*%
%ADD29O,1.740000X2.190000*%
%TD*%
%TA.AperFunction,ComponentPad*%
%ADD30RoundRect,0.250000X-0.620000X-0.845000X0.620000X-0.845000X0.620000X0.845000X-0.620000X0.845000X0*%
%TD*%
%TA.AperFunction,ViaPad*%
%ADD31C,1.800000*%
%TD*%
%TA.AperFunction,Conductor*%
%ADD32C,0.500000*%
%TD*%
%TA.AperFunction,Conductor*%
%ADD33C,1.000000*%
%TD*%
%TA.AperFunction,Profile*%
%ADD34C,0.100000*%
%TD*%
G04 APERTURE END LIST*
D10*
X6500000Y4900000D03*
X6500000Y4550000D03*
D11*
X887868Y5058579D03*
D12*
X1241421Y5412132D03*
D13*
X5381580Y781579D03*
D14*
X5561185Y961185D03*
X5740790Y1140790D03*
X5920395Y1320395D03*
X6100000Y1500000D03*
X6279605Y1679605D03*
X6459210Y1859210D03*
D15*
X4977715Y6314990D03*
X4798109Y6135385D03*
X4618504Y5955780D03*
X4438899Y5776175D03*
X4259294Y5596570D03*
X4079689Y5416965D03*
X3900084Y5237360D03*
X5043091Y4094353D03*
X5222696Y4273958D03*
X5402301Y4453563D03*
X5581906Y4633168D03*
X5761511Y4812773D03*
X5941116Y4992378D03*
X6120721Y5171983D03*
D16*
X542753Y3133794D03*
X1143794Y2532753D03*
X2876206Y5467247D03*
X3477247Y4866206D03*
X1398959Y1533794D03*
X2000000Y932753D03*
X3732412Y3867247D03*
X4333452Y3266206D03*
X3398959Y1101041D03*
X4000000Y500000D03*
X5732412Y3434493D03*
X6333452Y2833452D03*
D17*
X300000Y4146000D03*
D18*
X300000Y4400000D03*
X300000Y4654000D03*
D19*
X4991250Y300000D03*
X4808750Y300000D03*
D20*
X1308750Y6000000D03*
X1437797Y5870953D03*
D21*
X4900000Y6608750D03*
X4900000Y6791250D03*
D19*
X4991250Y500000D03*
X4808750Y500000D03*
D20*
X1600000Y5700000D03*
X1729047Y5570953D03*
D22*
X3353000Y171400D03*
X3353000Y628600D03*
D23*
X2700000Y400000D03*
D24*
X1576615Y6199904D03*
X1899904Y5876615D03*
D25*
X2200000Y6500000D03*
D17*
X6426200Y3403600D03*
D18*
X6426200Y3657600D03*
X6426200Y3911600D03*
X6426200Y4165600D03*
D26*
X420395Y2079605D03*
D27*
X600000Y1900000D03*
D28*
X3154000Y6700000D03*
D29*
X2900000Y6700000D03*
D30*
X3719000Y6698000D03*
D29*
X3973000Y6698000D03*
X4227000Y6698000D03*
X4481000Y6698000D03*
D10*
X3500000Y6000000D03*
X3500000Y5650000D03*
X4500000Y3650000D03*
X4500000Y4000000D03*
D31*
X4648200Y5029200D03*
X6070600Y3098800D03*
X2743200Y6070600D03*
D32*
X4653000Y300000D02*
X4808750Y300000D01*
X4648200Y5029200D02*
X4140200Y5029200D01*
X4140200Y5029200D02*
X3276600Y4165600D01*
X3276600Y4165600D02*
X3276600Y1676400D01*
X3276600Y1676400D02*
X4653000Y300000D01*
X4805350Y6608750D02*
X4900000Y6608750D01*
X2743200Y6070600D02*
X2946400Y5867400D01*
X2946400Y5867400D02*
X4064000Y5867400D01*
X4064000Y5867400D02*
X4805350Y6608750D01*
D33*
X2700000Y400000D02*
X1936800Y400000D01*
X1936800Y400000D02*
X600000Y1736800D01*
X600000Y1736800D02*
X600000Y1900000D01*
D32*
X4808750Y500000D02*
X4808750Y906250D01*
X4049997Y3529495D02*
X5435600Y4915097D01*
X4808750Y906250D02*
X4049997Y1665002D01*
X4049997Y1665002D02*
X4049997Y3529495D01*
X5435600Y4915097D02*
X5435600Y6375400D01*
X5202250Y6608750D02*
X4900000Y6608750D01*
X5435600Y6375400D02*
X5202250Y6608750D01*
X1437797Y5870953D02*
X1502153Y5870953D01*
X1930400Y6197600D02*
X2353000Y5775000D01*
X1502153Y5870953D02*
X1828800Y6197600D01*
X1828800Y6197600D02*
X1930400Y6197600D01*
X4080864Y5775000D02*
X4259294Y5596570D01*
X2353000Y5775000D02*
X4080864Y5775000D01*
X1308750Y6000000D02*
X1219200Y5910450D01*
X1219200Y5910450D02*
X1219200Y5842000D01*
X1219200Y5842000D02*
X1361200Y5700000D01*
X1361200Y5700000D02*
X1600000Y5700000D01*
X1576615Y6199904D02*
X1508654Y6199904D01*
X1508654Y6199904D02*
X1308750Y6000000D01*
X3353000Y628600D02*
X1899904Y2081696D01*
X1899904Y2081696D02*
X1899904Y5876615D01*
X4991250Y300000D02*
X4991250Y216050D01*
X4991250Y216050D02*
X4851400Y76200D01*
X4851400Y76200D02*
X4521200Y76200D01*
X4521200Y76200D02*
X4426000Y171400D01*
X4426000Y171400D02*
X3353000Y171400D01*
X4991250Y500000D02*
X4991250Y300000D01*
D33*
X5051200Y3098800D02*
X6070600Y3098800D01*
X4500000Y3650000D02*
X5051200Y3098800D01*
D32*
X4481000Y6698000D02*
X4481000Y6792400D01*
X4481000Y6792400D02*
X4597400Y6908800D01*
X4597400Y6908800D02*
X4782450Y6908800D01*
X4782450Y6908800D02*
X4900000Y6791250D01*
D33*
X2900000Y6700000D02*
X2400000Y6700000D01*
D32*
X2400000Y6700000D02*
X2200000Y6500000D01*
D33*
X2876206Y5467247D02*
X2309272Y5467247D01*
X2309272Y5467247D02*
X1899904Y5876615D01*
D32*
X1899904Y5876615D02*
X1899904Y5741810D01*
X1899904Y5741810D02*
X1729047Y5570953D01*
%TA.AperFunction,NonConductor*%
G36*
X2820091Y6987929D02*
G01*
X2833010Y6982029D01*
X2843744Y6972728D01*
X2851423Y6960779D01*
X2855424Y6947151D01*
X2855424Y6932948D01*
X2851423Y6919321D01*
X2843744Y6907372D01*
X2833010Y6898071D01*
X2825128Y6893949D01*
X2819702Y6891701D01*
X2817091Y6890620D01*
X2795859Y6878361D01*
X2795857Y6878360D01*
X2776406Y6863434D01*
X2775264Y6862433D01*
X2763362Y6854683D01*
X2749758Y6850601D01*
X2742363Y6850050D01*
X2459003Y6850050D01*
X2444944Y6852071D01*
X2432025Y6857971D01*
X2423718Y6864665D01*
X2383618Y6904765D01*
X2375107Y6916135D01*
X2370143Y6929443D01*
X2369130Y6943610D01*
X2372149Y6957488D01*
X2378956Y6969954D01*
X2388999Y6979997D01*
X2401464Y6986804D01*
X2415343Y6989823D01*
X2418903Y6989950D01*
X2806032Y6989950D01*
X2820091Y6987929D01*
G37*
%TD.AperFunction*%
%TA.AperFunction,NonConductor*%
G36*
X2041118Y6987929D02*
G01*
X2054037Y6982029D01*
X2064771Y6972728D01*
X2072450Y6960779D01*
X2076451Y6947151D01*
X2076451Y6932948D01*
X2072450Y6919321D01*
X2064771Y6907372D01*
X2062344Y6904765D01*
X1701240Y6543662D01*
X1701240Y6543661D01*
X1693548Y6534469D01*
X1693548Y6534469D01*
X1683674Y6516678D01*
X1677582Y6497263D01*
X1676270Y6484362D01*
X1672837Y6470580D01*
X1665660Y6458324D01*
X1655321Y6448586D01*
X1642657Y6442155D01*
X1631675Y6439766D01*
X1628850Y6439479D01*
X1628849Y6439479D01*
X1628849Y6439479D01*
X1624224Y6438028D01*
X1609434Y6433387D01*
X1591643Y6423513D01*
X1591643Y6423512D01*
X1582452Y6415822D01*
X1501340Y6334711D01*
X1489970Y6326200D01*
X1481134Y6322794D01*
X1481236Y6322480D01*
X1479371Y6321875D01*
X1479371Y6321875D01*
X1476973Y6321096D01*
X1464800Y6317140D01*
X1450805Y6314718D01*
X1436694Y6316337D01*
X1423612Y6321866D01*
X1412616Y6330857D01*
X1404600Y6342581D01*
X1400211Y6356089D01*
X1399805Y6370286D01*
X1403416Y6384023D01*
X1410750Y6396185D01*
X1414095Y6399882D01*
X1989547Y6975335D01*
X2000918Y6983846D01*
X2014225Y6988810D01*
X2024832Y6989950D01*
X2027059Y6989950D01*
X2041118Y6987929D01*
G37*
%TD.AperFunction*%
%TA.AperFunction,NonConductor*%
G36*
X3594880Y6987929D02*
G01*
X3607800Y6982029D01*
X3618534Y6972728D01*
X3626212Y6960779D01*
X3630214Y6947151D01*
X3630214Y6932948D01*
X3626212Y6919321D01*
X3618534Y6907372D01*
X3607800Y6898071D01*
X3601458Y6894617D01*
X3595038Y6891701D01*
X3576535Y6878882D01*
X3576534Y6878881D01*
X3560619Y6862966D01*
X3560618Y6862965D01*
X3547799Y6844462D01*
X3539399Y6825968D01*
X3538490Y6823968D01*
X3532990Y6802141D01*
X3531950Y6788922D01*
X3531950Y6788922D01*
X3531950Y6607079D01*
X3531950Y6607077D01*
X3532990Y6593859D01*
X3532990Y6593859D01*
X3538490Y6572032D01*
X3547799Y6551538D01*
X3560618Y6533035D01*
X3560619Y6533034D01*
X3576534Y6517119D01*
X3576535Y6517118D01*
X3595037Y6504299D01*
X3598477Y6502737D01*
X3615532Y6494990D01*
X3637359Y6489490D01*
X3650578Y6488450D01*
X3787422Y6488450D01*
X3800641Y6489490D01*
X3822468Y6494990D01*
X3842963Y6504299D01*
X3842963Y6504299D01*
X3844792Y6505337D01*
X3858016Y6510517D01*
X3872165Y6511762D01*
X3886091Y6508970D01*
X3888552Y6507931D01*
X3888583Y6508005D01*
X3890092Y6507380D01*
X3890092Y6507380D01*
X3912746Y6497997D01*
X3936430Y6491650D01*
X3960740Y6488450D01*
X3960740Y6488450D01*
X3985260Y6488450D01*
X3985260Y6488450D01*
X4009570Y6491650D01*
X4033254Y6497997D01*
X4055908Y6507380D01*
X4075050Y6518432D01*
X4088235Y6523711D01*
X4102374Y6525061D01*
X4116321Y6522373D01*
X4124950Y6518432D01*
X4144092Y6507380D01*
X4144092Y6507380D01*
X4144092Y6507380D01*
X4166746Y6497997D01*
X4190430Y6491650D01*
X4214740Y6488450D01*
X4214740Y6488450D01*
X4239260Y6488450D01*
X4239260Y6488450D01*
X4263570Y6491650D01*
X4287254Y6497997D01*
X4309908Y6507380D01*
X4329050Y6518432D01*
X4342236Y6523711D01*
X4356374Y6525061D01*
X4370321Y6522373D01*
X4378950Y6518432D01*
X4398092Y6507380D01*
X4398092Y6507380D01*
X4398092Y6507380D01*
X4420342Y6498164D01*
X4432556Y6490917D01*
X4442235Y6480522D01*
X4448592Y6467821D01*
X4451114Y6453844D01*
X4449596Y6439722D01*
X4444161Y6426600D01*
X4436530Y6416778D01*
X4026818Y6007065D01*
X4015448Y5998554D01*
X4002140Y5993590D01*
X3991533Y5992450D01*
X3726198Y5992450D01*
X3712139Y5994471D01*
X3699220Y6000371D01*
X3688486Y6009672D01*
X3680807Y6021621D01*
X3677549Y6031246D01*
X3674756Y6043483D01*
X3672533Y6053219D01*
X3672201Y6054067D01*
X3662674Y6078340D01*
X3662674Y6078340D01*
X3649181Y6101710D01*
X3643575Y6108740D01*
X3632356Y6122808D01*
X3612574Y6141163D01*
X3590278Y6156365D01*
X3590278Y6156365D01*
X3590277Y6156365D01*
X3581943Y6160379D01*
X3565965Y6168073D01*
X3565965Y6168074D01*
X3565964Y6168074D01*
X3565964Y6168074D01*
X3540177Y6176028D01*
X3540177Y6176028D01*
X3540177Y6176028D01*
X3529580Y6177625D01*
X3513493Y6180050D01*
X3486507Y6180050D01*
X3474146Y6178187D01*
X3459823Y6176028D01*
X3444858Y6171412D01*
X3434036Y6168074D01*
X3434035Y6168074D01*
X3434035Y6168073D01*
X3409723Y6156365D01*
X3409722Y6156365D01*
X3387426Y6141163D01*
X3367644Y6122808D01*
X3350819Y6101711D01*
X3350818Y6101709D01*
X3337326Y6078340D01*
X3337325Y6078340D01*
X3327467Y6053220D01*
X3322451Y6031246D01*
X3317352Y6017990D01*
X3308725Y6006707D01*
X3297269Y5998312D01*
X3283911Y5993485D01*
X3273802Y5992450D01*
X3018867Y5992450D01*
X3004808Y5994471D01*
X2991889Y6000371D01*
X2983582Y6007065D01*
X2947950Y6042697D01*
X2939439Y6054067D01*
X2934475Y6067375D01*
X2933462Y6074421D01*
X2931796Y6097716D01*
X2926017Y6124280D01*
X2916517Y6149751D01*
X2916517Y6149752D01*
X2903489Y6173611D01*
X2903489Y6173611D01*
X2887197Y6195374D01*
X2887197Y6195375D01*
X2887196Y6195375D01*
X2867975Y6214597D01*
X2867974Y6214597D01*
X2867974Y6214597D01*
X2846211Y6230889D01*
X2846211Y6230889D01*
X2822351Y6243917D01*
X2796880Y6253418D01*
X2770317Y6259196D01*
X2770316Y6259196D01*
X2770316Y6259196D01*
X2743200Y6261135D01*
X2716084Y6259196D01*
X2716084Y6259196D01*
X2716083Y6259196D01*
X2689520Y6253418D01*
X2664048Y6243917D01*
X2640189Y6230889D01*
X2618425Y6214597D01*
X2599203Y6195375D01*
X2582911Y6173611D01*
X2569883Y6149752D01*
X2560382Y6124280D01*
X2554604Y6097717D01*
X2554604Y6097716D01*
X2554604Y6097716D01*
X2552665Y6070600D01*
X2554534Y6044468D01*
X2554604Y6043483D01*
X2560382Y6016920D01*
X2568212Y5995928D01*
X2569883Y5991449D01*
X2579211Y5974366D01*
X2579485Y5973864D01*
X2584448Y5960557D01*
X2585461Y5946390D01*
X2582442Y5932512D01*
X2575635Y5920046D01*
X2565592Y5910003D01*
X2553127Y5903196D01*
X2539248Y5900177D01*
X2535688Y5900050D01*
X2425467Y5900050D01*
X2411408Y5902071D01*
X2398489Y5907971D01*
X2390182Y5914665D01*
X2308919Y5995928D01*
X2300407Y6007298D01*
X2295444Y6020606D01*
X2294431Y6034773D01*
X2297450Y6048651D01*
X2304257Y6061117D01*
X2308919Y6066498D01*
X2503557Y6261135D01*
X2698760Y6456339D01*
X2706451Y6465531D01*
X2716326Y6483322D01*
X2720106Y6495367D01*
X2726243Y6508175D01*
X2735740Y6518736D01*
X2747828Y6526193D01*
X2761527Y6529943D01*
X2775727Y6529682D01*
X2789279Y6525430D01*
X2795441Y6521918D01*
X2795857Y6521641D01*
X2795858Y6521640D01*
X2795859Y6521639D01*
X2795860Y6521639D01*
X2817091Y6509380D01*
X2817092Y6509380D01*
X2817092Y6509380D01*
X2839746Y6499997D01*
X2863430Y6493650D01*
X2887740Y6490450D01*
X2887740Y6490450D01*
X2912260Y6490450D01*
X2912260Y6490450D01*
X2936570Y6493650D01*
X2960254Y6499997D01*
X2982908Y6509380D01*
X2982908Y6509380D01*
X2984417Y6510005D01*
X2984551Y6509682D01*
X2995001Y6513094D01*
X3009198Y6513520D01*
X3022939Y6509930D01*
X3028208Y6507337D01*
X3030037Y6506299D01*
X3050532Y6496990D01*
X3072359Y6491490D01*
X3085578Y6490450D01*
X3222422Y6490450D01*
X3235641Y6491490D01*
X3257468Y6496990D01*
X3277963Y6506299D01*
X3296465Y6519118D01*
X3312382Y6535035D01*
X3325201Y6553537D01*
X3334510Y6574032D01*
X3340010Y6595859D01*
X3341050Y6609078D01*
X3341050Y6790922D01*
X3340010Y6804141D01*
X3334510Y6825968D01*
X3326109Y6844462D01*
X3325201Y6846462D01*
X3312382Y6864965D01*
X3312381Y6864966D01*
X3296466Y6880881D01*
X3296465Y6880882D01*
X3277963Y6893701D01*
X3277417Y6893948D01*
X3275945Y6894617D01*
X3263981Y6902271D01*
X3254658Y6912986D01*
X3248732Y6925894D01*
X3246682Y6939948D01*
X3248674Y6954010D01*
X3254548Y6966942D01*
X3263827Y6977695D01*
X3275759Y6985398D01*
X3289379Y6989427D01*
X3296581Y6989950D01*
X3580822Y6989950D01*
X3594880Y6987929D01*
G37*
%TD.AperFunction*%
%TA.AperFunction,NonConductor*%
G36*
X6287878Y4975879D02*
G01*
X6300502Y4969371D01*
X6310781Y4959570D01*
X6317883Y4947270D01*
X6321232Y4933467D01*
X6321318Y4924995D01*
X6319777Y4904425D01*
X6319445Y4900000D01*
X6321462Y4873090D01*
X6321462Y4873089D01*
X6327467Y4846780D01*
X6337325Y4821661D01*
X6337326Y4821660D01*
X6350818Y4798291D01*
X6350819Y4798289D01*
X6367644Y4777192D01*
X6367644Y4777192D01*
X6367644Y4777192D01*
X6368826Y4776095D01*
X6384470Y4761579D01*
X6393401Y4750535D01*
X6398858Y4737423D01*
X6400400Y4723304D01*
X6397902Y4709322D01*
X6391566Y4696611D01*
X6384470Y4688421D01*
X6367644Y4672808D01*
X6350819Y4651711D01*
X6350818Y4651710D01*
X6337326Y4628340D01*
X6337325Y4628340D01*
X6327467Y4603220D01*
X6324260Y4589169D01*
X6321462Y4576910D01*
X6319445Y4550000D01*
X6321462Y4523090D01*
X6322617Y4518028D01*
X6327467Y4496780D01*
X6337325Y4471661D01*
X6337326Y4471660D01*
X6350818Y4448291D01*
X6350819Y4448289D01*
X6367644Y4427192D01*
X6368913Y4425823D01*
X6368636Y4425566D01*
X6375282Y4417350D01*
X6380742Y4404238D01*
X6382286Y4390119D01*
X6379790Y4376137D01*
X6373456Y4363425D01*
X6363797Y4353012D01*
X6351596Y4345742D01*
X6345331Y4343609D01*
X6343447Y4343104D01*
X6343446Y4343103D01*
X6343446Y4343103D01*
X6332149Y4338424D01*
X6320791Y4333720D01*
X6299559Y4321461D01*
X6299557Y4321460D01*
X6280105Y4306533D01*
X6262767Y4289195D01*
X6247840Y4269743D01*
X6247839Y4269741D01*
X6235580Y4248509D01*
X6226196Y4225854D01*
X6219850Y4202170D01*
X6216650Y4177860D01*
X6216650Y4153340D01*
X6219850Y4129030D01*
X6224966Y4109937D01*
X6226197Y4105346D01*
X6229746Y4096776D01*
X6235580Y4082692D01*
X6246632Y4063550D01*
X6251910Y4050364D01*
X6253261Y4036226D01*
X6250573Y4022279D01*
X6246632Y4013650D01*
X6235580Y3994508D01*
X6226196Y3971854D01*
X6219850Y3948170D01*
X6216650Y3923860D01*
X6216650Y3899340D01*
X6219850Y3875030D01*
X6225464Y3854079D01*
X6226197Y3851346D01*
X6232434Y3836288D01*
X6235580Y3828692D01*
X6246632Y3809550D01*
X6251910Y3796364D01*
X6253261Y3782226D01*
X6250573Y3768279D01*
X6246632Y3759650D01*
X6235580Y3740508D01*
X6226196Y3717854D01*
X6219850Y3694170D01*
X6216650Y3669860D01*
X6216650Y3645340D01*
X6219850Y3621030D01*
X6226196Y3597346D01*
X6236205Y3573183D01*
X6235886Y3573051D01*
X6239304Y3562541D01*
X6239714Y3548344D01*
X6236107Y3534607D01*
X6233538Y3529393D01*
X6232499Y3527563D01*
X6227514Y3516588D01*
X6223190Y3507068D01*
X6217690Y3485241D01*
X6216856Y3474643D01*
X6216650Y3472022D01*
X6216650Y3335179D01*
X6216650Y3335177D01*
X6217646Y3322521D01*
X6216734Y3308347D01*
X6211865Y3295004D01*
X6203435Y3283574D01*
X6192126Y3274981D01*
X6178854Y3269923D01*
X6164695Y3268809D01*
X6150795Y3271729D01*
X6150462Y3271852D01*
X6124280Y3281618D01*
X6097717Y3287396D01*
X6097716Y3287396D01*
X6097716Y3287396D01*
X6070600Y3289335D01*
X6043484Y3287396D01*
X6043484Y3287396D01*
X6043483Y3287396D01*
X6016920Y3281618D01*
X5991448Y3272117D01*
X5990804Y3271765D01*
X5990116Y3271509D01*
X5989828Y3271377D01*
X5989818Y3271398D01*
X5977496Y3266802D01*
X5963330Y3265789D01*
X5949451Y3268809D01*
X5936986Y3275616D01*
X5926943Y3285659D01*
X5920137Y3298125D01*
X5917118Y3312004D01*
X5918132Y3326171D01*
X5923095Y3339478D01*
X5931606Y3350846D01*
X5975102Y3394343D01*
X5982793Y3403535D01*
X5992668Y3421326D01*
X5998760Y3440741D01*
X6000819Y3460985D01*
X5998760Y3481229D01*
X5992668Y3500644D01*
X5982793Y3518435D01*
X5975102Y3527627D01*
X5940188Y3562541D01*
X5825546Y3677183D01*
X5825546Y3677184D01*
X5825545Y3677184D01*
X5816353Y3684875D01*
X5816354Y3684875D01*
X5816353Y3684875D01*
X5798563Y3694750D01*
X5798562Y3694750D01*
X5779147Y3700842D01*
X5779147Y3700842D01*
X5758903Y3702900D01*
X5738660Y3700842D01*
X5719245Y3694750D01*
X5719244Y3694750D01*
X5701453Y3684875D01*
X5701452Y3684875D01*
X5692262Y3677185D01*
X5489720Y3474643D01*
X5482030Y3465452D01*
X5472155Y3447661D01*
X5472155Y3447660D01*
X5466063Y3428245D01*
X5464005Y3408001D01*
X5466063Y3387758D01*
X5469600Y3376485D01*
X5472155Y3368343D01*
X5482030Y3350551D01*
X5489721Y3341359D01*
X5489721Y3341359D01*
X5489721Y3341359D01*
X5497045Y3334035D01*
X5505557Y3322664D01*
X5510520Y3309357D01*
X5511534Y3295190D01*
X5508515Y3281312D01*
X5501708Y3268846D01*
X5491665Y3258803D01*
X5479199Y3251996D01*
X5465321Y3248977D01*
X5461761Y3248850D01*
X5134022Y3248850D01*
X5119963Y3250871D01*
X5107044Y3256771D01*
X5098737Y3263465D01*
X4686706Y3675497D01*
X4678195Y3686867D01*
X4673342Y3699677D01*
X4672533Y3703219D01*
X4662674Y3728340D01*
X4649182Y3751710D01*
X4649181Y3751711D01*
X4632356Y3772808D01*
X4624946Y3779684D01*
X4615530Y3788421D01*
X4606599Y3799465D01*
X4601142Y3812577D01*
X4599600Y3826696D01*
X4602098Y3840678D01*
X4608434Y3853389D01*
X4615530Y3861579D01*
X4632356Y3877191D01*
X4649182Y3898290D01*
X4662674Y3921660D01*
X4672533Y3946780D01*
X4677735Y3969568D01*
X4682833Y3982824D01*
X4691098Y3993749D01*
X4752608Y4055258D01*
X4763978Y4063770D01*
X4777285Y4068733D01*
X4791452Y4069746D01*
X4805331Y4066727D01*
X4817796Y4059920D01*
X4827839Y4049877D01*
X4833994Y4039069D01*
X4836840Y4032197D01*
X4849949Y4009492D01*
X4849950Y4009492D01*
X4865908Y3988694D01*
X4865909Y3988693D01*
X4865909Y3988693D01*
X4937431Y3917171D01*
X4958231Y3901211D01*
X4958231Y3901211D01*
X4958231Y3901211D01*
X4963290Y3898290D01*
X4980936Y3888102D01*
X5005157Y3878069D01*
X5030481Y3871284D01*
X5056474Y3867862D01*
X5082691Y3867862D01*
X5108684Y3871284D01*
X5134008Y3878069D01*
X5158230Y3888102D01*
X5180934Y3901211D01*
X5201734Y3917171D01*
X5220272Y3935709D01*
X5236232Y3956509D01*
X5249341Y3979214D01*
X5259374Y4003435D01*
X5263380Y4018384D01*
X5268970Y4031440D01*
X5278013Y4042393D01*
X5289776Y4050354D01*
X5298664Y4053669D01*
X5313613Y4057674D01*
X5337835Y4067707D01*
X5360540Y4080816D01*
X5381339Y4096776D01*
X5399878Y4115314D01*
X5415838Y4136114D01*
X5428946Y4158819D01*
X5438979Y4183040D01*
X5442985Y4197990D01*
X5448576Y4211046D01*
X5457618Y4221998D01*
X5469381Y4229959D01*
X5478269Y4233274D01*
X5493218Y4237280D01*
X5517440Y4247313D01*
X5540145Y4260421D01*
X5560944Y4276381D01*
X5579483Y4294920D01*
X5595443Y4315719D01*
X5608551Y4338424D01*
X5618584Y4362646D01*
X5622590Y4377595D01*
X5628181Y4390651D01*
X5637223Y4401603D01*
X5648986Y4409564D01*
X5657873Y4412879D01*
X5672823Y4416885D01*
X5697045Y4426918D01*
X5719750Y4440026D01*
X5740549Y4455986D01*
X5759088Y4474525D01*
X5775048Y4495324D01*
X5788156Y4518029D01*
X5798189Y4542251D01*
X5802195Y4557200D01*
X5807786Y4570256D01*
X5816829Y4581208D01*
X5828591Y4589169D01*
X5837479Y4592484D01*
X5852429Y4596490D01*
X5876650Y4606523D01*
X5899355Y4619632D01*
X5920155Y4635592D01*
X5938693Y4654130D01*
X5954653Y4674930D01*
X5967762Y4697634D01*
X5977794Y4721856D01*
X5981800Y4736805D01*
X5987391Y4749861D01*
X5996434Y4760813D01*
X6008196Y4768774D01*
X6017084Y4772089D01*
X6032034Y4776095D01*
X6056255Y4786128D01*
X6078960Y4799237D01*
X6099760Y4815197D01*
X6118298Y4833735D01*
X6134258Y4854535D01*
X6147367Y4877239D01*
X6157400Y4901461D01*
X6161405Y4916411D01*
X6166996Y4929466D01*
X6176039Y4940418D01*
X6187801Y4948379D01*
X6196689Y4951695D01*
X6211639Y4955700D01*
X6235860Y4965733D01*
X6246608Y4971938D01*
X6259793Y4977217D01*
X6273931Y4978567D01*
X6287878Y4975879D01*
G37*
%TD.AperFunction*%
%TA.AperFunction,NonConductor*%
G36*
X3289596Y5647929D02*
G01*
X3302515Y5642029D01*
X3313249Y5632728D01*
X3320928Y5620779D01*
X3324186Y5611154D01*
X3327467Y5596780D01*
X3337325Y5571661D01*
X3337326Y5571660D01*
X3350818Y5548291D01*
X3350819Y5548289D01*
X3367644Y5527192D01*
X3367644Y5527192D01*
X3367644Y5527192D01*
X3387426Y5508837D01*
X3409723Y5493635D01*
X3434036Y5481926D01*
X3459823Y5473972D01*
X3486507Y5469950D01*
X3486507Y5469950D01*
X3513492Y5469950D01*
X3513493Y5469950D01*
X3540177Y5473972D01*
X3565964Y5481926D01*
X3590277Y5493635D01*
X3612574Y5508837D01*
X3632356Y5527192D01*
X3649181Y5548290D01*
X3662674Y5571660D01*
X3672533Y5596780D01*
X3675814Y5611154D01*
X3680913Y5624410D01*
X3689540Y5635693D01*
X3700996Y5644088D01*
X3714354Y5648915D01*
X3724463Y5649950D01*
X3858365Y5649950D01*
X3872423Y5647929D01*
X3885343Y5642029D01*
X3896077Y5632728D01*
X3903755Y5620779D01*
X3907757Y5607151D01*
X3907757Y5592948D01*
X3903755Y5579321D01*
X3897953Y5569673D01*
X3886548Y5554809D01*
X3886547Y5554809D01*
X3873438Y5532103D01*
X3863406Y5507882D01*
X3863405Y5507882D01*
X3859400Y5492933D01*
X3853809Y5479877D01*
X3844766Y5468924D01*
X3833003Y5460964D01*
X3824116Y5457649D01*
X3809167Y5453643D01*
X3809167Y5453643D01*
X3784945Y5443610D01*
X3762240Y5430501D01*
X3762239Y5430501D01*
X3741441Y5414542D01*
X3741440Y5414541D01*
X3722903Y5396003D01*
X3722901Y5396002D01*
X3706942Y5375204D01*
X3706942Y5375203D01*
X3693833Y5352498D01*
X3683801Y5328277D01*
X3677015Y5302953D01*
X3673593Y5276960D01*
X3673593Y5250743D01*
X3677015Y5224750D01*
X3683801Y5199426D01*
X3693833Y5175205D01*
X3706942Y5152500D01*
X3706942Y5152499D01*
X3722901Y5131701D01*
X3722902Y5131700D01*
X3722902Y5131700D01*
X3794424Y5060178D01*
X3815224Y5044218D01*
X3837928Y5031109D01*
X3858971Y5022393D01*
X3871186Y5015146D01*
X3880864Y5004751D01*
X3887221Y4992050D01*
X3889743Y4978073D01*
X3888225Y4963951D01*
X3882790Y4950829D01*
X3875160Y4941008D01*
X3850562Y4916410D01*
X3826552Y4892400D01*
X3815182Y4883888D01*
X3801875Y4878925D01*
X3787708Y4877912D01*
X3773829Y4880931D01*
X3761364Y4887738D01*
X3751321Y4897781D01*
X3744514Y4910246D01*
X3743656Y4912746D01*
X3737504Y4932356D01*
X3737504Y4932356D01*
X3737503Y4932356D01*
X3727628Y4950148D01*
X3719937Y4959340D01*
X3683440Y4995837D01*
X3570381Y5108896D01*
X3570381Y5108896D01*
X3570380Y5108897D01*
X3561856Y5116029D01*
X3561188Y5116588D01*
X3543398Y5126462D01*
X3543397Y5126463D01*
X3523982Y5132554D01*
X3523982Y5132554D01*
X3503738Y5134613D01*
X3483495Y5132554D01*
X3464080Y5126463D01*
X3464079Y5126462D01*
X3446288Y5116588D01*
X3446287Y5116587D01*
X3437097Y5108897D01*
X3234555Y4906355D01*
X3226865Y4897164D01*
X3216990Y4879373D01*
X3216989Y4879372D01*
X3210898Y4859958D01*
X3208840Y4839714D01*
X3210898Y4819470D01*
X3213913Y4809860D01*
X3216990Y4800055D01*
X3226865Y4782264D01*
X3234556Y4773072D01*
X3234556Y4773071D01*
X3234556Y4773071D01*
X3384112Y4623516D01*
X3384112Y4623515D01*
X3384113Y4623515D01*
X3388753Y4619632D01*
X3393305Y4615824D01*
X3411095Y4605949D01*
X3411096Y4605949D01*
X3411096Y4605949D01*
X3411096Y4605949D01*
X3411097Y4605949D01*
X3430706Y4599796D01*
X3443515Y4593659D01*
X3454075Y4584162D01*
X3461533Y4572074D01*
X3465282Y4558375D01*
X3465021Y4544174D01*
X3460769Y4530623D01*
X3452871Y4518818D01*
X3451052Y4516900D01*
X3181217Y4247065D01*
X3181217Y4247065D01*
X3171198Y4233274D01*
X3169648Y4231141D01*
X3169647Y4231140D01*
X3160712Y4213603D01*
X3160712Y4213603D01*
X3156997Y4202170D01*
X3155843Y4198619D01*
X3155843Y4198618D01*
X3154629Y4194883D01*
X3154629Y4194882D01*
X3151550Y4175442D01*
X3151550Y1666558D01*
X3154629Y1647117D01*
X3154629Y1647117D01*
X3160711Y1628399D01*
X3160712Y1628397D01*
X3166144Y1617736D01*
X3169648Y1610859D01*
X3181217Y1594935D01*
X3181217Y1594935D01*
X3360363Y1415790D01*
X3368874Y1404420D01*
X3373838Y1391112D01*
X3374851Y1376945D01*
X3371832Y1363067D01*
X3365025Y1350601D01*
X3359549Y1344556D01*
X3359591Y1344514D01*
X3156268Y1141190D01*
X3148577Y1131999D01*
X3137474Y1111995D01*
X3137166Y1112166D01*
X3131983Y1103680D01*
X3121465Y1094135D01*
X3108684Y1087941D01*
X3094676Y1085598D01*
X3080575Y1087296D01*
X3067524Y1092899D01*
X3058247Y1100200D01*
X2039569Y2118878D01*
X2031058Y2130248D01*
X2026094Y2143556D01*
X2024954Y2154163D01*
X2024954Y5418893D01*
X2026975Y5432951D01*
X2032875Y5445871D01*
X2042176Y5456605D01*
X2054125Y5464283D01*
X2067752Y5468285D01*
X2081955Y5468285D01*
X2095583Y5464283D01*
X2107531Y5456605D01*
X2110136Y5454179D01*
X2188034Y5376281D01*
X2211521Y5352795D01*
X2230628Y5338912D01*
X2237732Y5335293D01*
X2251673Y5328190D01*
X2274135Y5320891D01*
X2297463Y5317197D01*
X2321081Y5317197D01*
X2669762Y5317197D01*
X2683820Y5315175D01*
X2696740Y5309275D01*
X2705046Y5302581D01*
X2783071Y5224557D01*
X2783072Y5224556D01*
X2783072Y5224556D01*
X2783073Y5224555D01*
X2792264Y5216865D01*
X2810054Y5206990D01*
X2810055Y5206990D01*
X2810055Y5206990D01*
X2829470Y5200898D01*
X2829470Y5200898D01*
X2831529Y5200689D01*
X2849714Y5198840D01*
X2869958Y5200898D01*
X2889373Y5206990D01*
X2907164Y5216865D01*
X2916356Y5224556D01*
X3118896Y5427096D01*
X3126588Y5436288D01*
X3136463Y5454080D01*
X3142554Y5473495D01*
X3144613Y5493738D01*
X3142554Y5513982D01*
X3136463Y5533397D01*
X3126588Y5551189D01*
X3118897Y5560381D01*
X3114512Y5564765D01*
X3106000Y5576136D01*
X3101037Y5589443D01*
X3100024Y5603610D01*
X3103043Y5617488D01*
X3109849Y5629954D01*
X3119892Y5639997D01*
X3132358Y5646804D01*
X3146237Y5649823D01*
X3149796Y5649950D01*
X3275537Y5649950D01*
X3289596Y5647929D01*
G37*
%TD.AperFunction*%
%TA.AperFunction,NonConductor*%
G36*
X1071944Y6016478D02*
G01*
X1084410Y6009671D01*
X1094453Y5999628D01*
X1101260Y5987162D01*
X1104279Y5973284D01*
X1103266Y5959117D01*
X1101964Y5954304D01*
X1097229Y5939733D01*
X1094150Y5920292D01*
X1094150Y5832158D01*
X1097229Y5812717D01*
X1097229Y5812717D01*
X1103311Y5793999D01*
X1103312Y5793997D01*
X1111158Y5778599D01*
X1112248Y5776459D01*
X1123817Y5760535D01*
X1123817Y5760535D01*
X1175613Y5708740D01*
X1184125Y5697370D01*
X1189088Y5684062D01*
X1190101Y5669895D01*
X1187082Y5656017D01*
X1180275Y5643551D01*
X1170232Y5633508D01*
X1157767Y5626701D01*
X1156369Y5626203D01*
X1153196Y5625126D01*
X1126150Y5611789D01*
X1126149Y5611788D01*
X1101076Y5595035D01*
X1101075Y5595034D01*
X1078402Y5575151D01*
X1058519Y5552478D01*
X1058518Y5552477D01*
X1041765Y5527405D01*
X1041765Y5527404D01*
X1028427Y5500357D01*
X1018733Y5471802D01*
X1018733Y5471801D01*
X1012850Y5442225D01*
X1012082Y5430501D01*
X1010878Y5412132D01*
X1012850Y5382040D01*
X1012850Y5382040D01*
X1012850Y5382039D01*
X1012981Y5381381D01*
X1013011Y5380814D01*
X1013063Y5380420D01*
X1013033Y5380416D01*
X1013741Y5367199D01*
X1010474Y5353376D01*
X1003446Y5341034D01*
X993225Y5331172D01*
X980640Y5324589D01*
X966710Y5321819D01*
X952563Y5323085D01*
X939823Y5328017D01*
X939355Y5328277D01*
X927527Y5334842D01*
X908112Y5340934D01*
X908111Y5340934D01*
X887868Y5342992D01*
X867625Y5340934D01*
X867624Y5340934D01*
X848209Y5334842D01*
X830418Y5324967D01*
X821226Y5317276D01*
X821225Y5317276D01*
X629171Y5125222D01*
X629170Y5125220D01*
X621480Y5116030D01*
X621479Y5116029D01*
X611604Y5098238D01*
X605513Y5078822D01*
X605513Y5078822D01*
X603454Y5058579D01*
X605513Y5038335D01*
X605513Y5038335D01*
X611604Y5018920D01*
X621157Y5001710D01*
X621479Y5001128D01*
X629170Y4991936D01*
X629171Y4991936D01*
X629171Y4991936D01*
X821225Y4799882D01*
X821226Y4799881D01*
X830417Y4792191D01*
X830418Y4792190D01*
X830418Y4792190D01*
X848209Y4782315D01*
X867624Y4776223D01*
X887868Y4774165D01*
X908112Y4776223D01*
X927527Y4782315D01*
X945318Y4792190D01*
X954510Y4799881D01*
X1146566Y4991936D01*
X1154257Y5001128D01*
X1164132Y5018920D01*
X1170223Y5038335D01*
X1172282Y5058579D01*
X1170223Y5078822D01*
X1164132Y5098237D01*
X1157306Y5110534D01*
X1152251Y5123807D01*
X1151140Y5137966D01*
X1154063Y5151865D01*
X1160784Y5164378D01*
X1170757Y5174490D01*
X1183176Y5181383D01*
X1197033Y5184498D01*
X1209706Y5183749D01*
X1209709Y5183774D01*
X1210063Y5183728D01*
X1210672Y5183691D01*
X1210929Y5183640D01*
X1211329Y5183561D01*
X1241421Y5181588D01*
X1271513Y5183561D01*
X1301091Y5189444D01*
X1329647Y5199138D01*
X1356693Y5212475D01*
X1381768Y5229230D01*
X1398736Y5244111D01*
X1404441Y5249113D01*
X1412516Y5258322D01*
X1424324Y5271786D01*
X1441078Y5296860D01*
X1454416Y5323907D01*
X1464109Y5352463D01*
X1469993Y5382040D01*
X1471965Y5412132D01*
X1469993Y5442224D01*
X1464109Y5471801D01*
X1462755Y5475792D01*
X1460150Y5489754D01*
X1461584Y5503884D01*
X1466941Y5517038D01*
X1475787Y5528150D01*
X1487405Y5536320D01*
X1500854Y5540885D01*
X1515045Y5541477D01*
X1528827Y5538046D01*
X1531659Y5536789D01*
X1532264Y5536498D01*
X1532265Y5536497D01*
X1535242Y5535380D01*
X1547694Y5528548D01*
X1557716Y5518485D01*
X1564427Y5506196D01*
X1565544Y5503219D01*
X1565544Y5503218D01*
X1577089Y5483896D01*
X1577089Y5483895D01*
X1585700Y5473813D01*
X1585701Y5473812D01*
X1585701Y5473812D01*
X1631906Y5427607D01*
X1641989Y5418995D01*
X1661312Y5407450D01*
X1661313Y5407450D01*
X1661313Y5407450D01*
X1682386Y5399541D01*
X1682386Y5399541D01*
X1682386Y5399541D01*
X1704534Y5395522D01*
X1704534Y5395522D01*
X1724954Y5395522D01*
X1739012Y5393500D01*
X1751932Y5387600D01*
X1762666Y5378299D01*
X1770344Y5366351D01*
X1774346Y5352723D01*
X1774854Y5345622D01*
X1774854Y2071854D01*
X1777933Y2052414D01*
X1777933Y2052413D01*
X1784015Y2033695D01*
X1784016Y2033693D01*
X1790966Y2020052D01*
X1792951Y2016156D01*
X1804521Y2000232D01*
X1804521Y2000231D01*
X2936018Y868735D01*
X2944530Y857364D01*
X2949493Y844057D01*
X2950506Y829890D01*
X2947487Y816012D01*
X2940680Y803546D01*
X2930637Y793503D01*
X2918172Y786696D01*
X2904293Y783677D01*
X2900733Y783550D01*
X2378197Y783550D01*
X2366258Y782489D01*
X2346695Y776891D01*
X2346694Y776890D01*
X2328659Y767470D01*
X2328659Y767470D01*
X2312889Y754611D01*
X2312889Y754611D01*
X2300030Y738841D01*
X2300030Y738841D01*
X2290610Y720806D01*
X2290609Y720805D01*
X2285011Y701242D01*
X2285011Y701242D01*
X2283950Y689304D01*
X2283950Y689303D01*
X2283950Y599950D01*
X2281929Y585892D01*
X2276029Y572972D01*
X2266728Y562238D01*
X2254779Y554559D01*
X2241152Y550558D01*
X2234050Y550050D01*
X2019622Y550050D01*
X2005563Y552071D01*
X1992644Y557971D01*
X1984337Y564665D01*
X1967059Y581943D01*
X1958548Y593313D01*
X1953584Y606621D01*
X1952571Y620788D01*
X1955590Y634666D01*
X1962397Y647132D01*
X1972440Y657175D01*
X1984906Y663982D01*
X1992299Y666107D01*
X1993751Y666405D01*
X1993752Y666405D01*
X2013167Y672497D01*
X2030958Y682372D01*
X2040150Y690063D01*
X2242691Y892603D01*
X2250382Y901795D01*
X2260257Y919586D01*
X2266348Y939001D01*
X2268407Y959245D01*
X2266348Y979489D01*
X2260257Y998904D01*
X2250382Y1016695D01*
X2242691Y1025887D01*
X2206134Y1062445D01*
X2093135Y1175444D01*
X2093134Y1175444D01*
X2093134Y1175444D01*
X2090070Y1178008D01*
X2083942Y1183135D01*
X2066151Y1193010D01*
X2066150Y1193011D01*
X2046735Y1199102D01*
X2046736Y1199102D01*
X2026492Y1201160D01*
X2006248Y1199102D01*
X1986833Y1193011D01*
X1986832Y1193010D01*
X1969042Y1183136D01*
X1969041Y1183135D01*
X1959850Y1175445D01*
X1757308Y972903D01*
X1749618Y963712D01*
X1739743Y945921D01*
X1739743Y945920D01*
X1733651Y926505D01*
X1733353Y925051D01*
X1728542Y911688D01*
X1720162Y900220D01*
X1708890Y891579D01*
X1695641Y886463D01*
X1681487Y885287D01*
X1667574Y888146D01*
X1655031Y894810D01*
X1649190Y899813D01*
X1366019Y1182984D01*
X1357507Y1194354D01*
X1352544Y1207662D01*
X1351530Y1221829D01*
X1354549Y1235707D01*
X1361356Y1248173D01*
X1371399Y1258216D01*
X1383865Y1265023D01*
X1391259Y1267147D01*
X1392710Y1267446D01*
X1392711Y1267446D01*
X1412126Y1273537D01*
X1429918Y1283412D01*
X1439110Y1291103D01*
X1641650Y1493644D01*
X1649341Y1502836D01*
X1659216Y1520627D01*
X1665308Y1540042D01*
X1667366Y1560286D01*
X1665308Y1580530D01*
X1659216Y1599945D01*
X1649341Y1617736D01*
X1641650Y1626928D01*
X1606350Y1662228D01*
X1492094Y1776484D01*
X1492093Y1776485D01*
X1492093Y1776485D01*
X1487954Y1779948D01*
X1482901Y1784176D01*
X1465110Y1794051D01*
X1465109Y1794051D01*
X1445694Y1800143D01*
X1445695Y1800143D01*
X1425451Y1802201D01*
X1405207Y1800143D01*
X1385793Y1794051D01*
X1385791Y1794051D01*
X1368001Y1784176D01*
X1368000Y1784176D01*
X1358809Y1776486D01*
X1156268Y1573944D01*
X1148578Y1564753D01*
X1138702Y1546962D01*
X1138702Y1546961D01*
X1132611Y1527546D01*
X1132312Y1526092D01*
X1127502Y1512728D01*
X1119121Y1501261D01*
X1107850Y1492620D01*
X1094600Y1487504D01*
X1080446Y1486328D01*
X1066534Y1489187D01*
X1053991Y1495850D01*
X1048149Y1500854D01*
X786204Y1762798D01*
X777693Y1774169D01*
X772729Y1787476D01*
X771716Y1801643D01*
X774735Y1815521D01*
X778274Y1823033D01*
X784030Y1833002D01*
X793413Y1855656D01*
X799759Y1879340D01*
X802960Y1903650D01*
X802960Y1928170D01*
X799759Y1952480D01*
X793413Y1976164D01*
X784030Y1998817D01*
X771770Y2020052D01*
X763912Y2030293D01*
X756844Y2039504D01*
X756843Y2039506D01*
X739506Y2056843D01*
X739504Y2056844D01*
X720052Y2071770D01*
X698817Y2084030D01*
X674655Y2094038D01*
X674787Y2094357D01*
X664932Y2099377D01*
X654605Y2109128D01*
X647444Y2121393D01*
X645577Y2126889D01*
X645017Y2128918D01*
X639523Y2143556D01*
X637108Y2149991D01*
X634615Y2154163D01*
X625563Y2169314D01*
X625563Y2169314D01*
X625563Y2169315D01*
X616951Y2179398D01*
X616950Y2179399D01*
X520189Y2276159D01*
X520187Y2276162D01*
X510104Y2284773D01*
X501251Y2290063D01*
X490781Y2296318D01*
X483756Y2298954D01*
X469708Y2304227D01*
X469707Y2304227D01*
X447559Y2308246D01*
X425050Y2308246D01*
X413976Y2306237D01*
X402902Y2304227D01*
X402902Y2304227D01*
X381828Y2296318D01*
X381828Y2296318D01*
X362506Y2284773D01*
X362505Y2284773D01*
X352423Y2276162D01*
X352421Y2276160D01*
X223841Y2147580D01*
X223838Y2147577D01*
X215227Y2137495D01*
X203682Y2118171D01*
X195773Y2097098D01*
X195773Y2097098D01*
X195773Y2097098D01*
X191754Y2074950D01*
X191754Y2052440D01*
X195156Y2033693D01*
X195773Y2030293D01*
X195773Y2030292D01*
X203682Y2009219D01*
X203682Y2009219D01*
X215227Y1989897D01*
X215227Y1989896D01*
X215227Y1989896D01*
X223839Y1979812D01*
X223840Y1979811D01*
X223840Y1979811D01*
X320601Y1883051D01*
X320603Y1883049D01*
X324945Y1879340D01*
X330685Y1874437D01*
X350009Y1862892D01*
X371083Y1854983D01*
X371083Y1854983D01*
X373111Y1854423D01*
X386125Y1848735D01*
X397009Y1839610D01*
X404882Y1827789D01*
X405888Y1825315D01*
X405962Y1825345D01*
X415970Y1801183D01*
X420088Y1794051D01*
X428230Y1779948D01*
X432924Y1773831D01*
X439638Y1765080D01*
X446593Y1752696D01*
X449777Y1738855D01*
X449950Y1734703D01*
X449950Y1724991D01*
X453645Y1701663D01*
X453645Y1701663D01*
X457326Y1690334D01*
X459748Y1676339D01*
X458129Y1662228D01*
X452600Y1649146D01*
X443609Y1638151D01*
X431885Y1630134D01*
X418377Y1625745D01*
X404180Y1625339D01*
X390443Y1628950D01*
X378281Y1636284D01*
X374583Y1639629D01*
X24665Y1989547D01*
X16154Y2000918D01*
X11190Y2014225D01*
X10050Y2024832D01*
X10050Y2506262D01*
X875387Y2506262D01*
X877446Y2486018D01*
X877446Y2486018D01*
X883537Y2466603D01*
X893412Y2448812D01*
X901103Y2439619D01*
X901104Y2439619D01*
X901104Y2439619D01*
X1050660Y2290063D01*
X1050660Y2290063D01*
X1050660Y2290063D01*
X1050661Y2290062D01*
X1059852Y2282372D01*
X1077643Y2272497D01*
X1077643Y2272497D01*
X1077644Y2272497D01*
X1097059Y2266405D01*
X1097059Y2266405D01*
X1099117Y2266196D01*
X1117302Y2264346D01*
X1137546Y2266405D01*
X1156961Y2272497D01*
X1174753Y2282372D01*
X1177622Y2284773D01*
X1183944Y2290062D01*
X1183944Y2290062D01*
X1183945Y2290063D01*
X1386485Y2492603D01*
X1394176Y2501795D01*
X1404051Y2519586D01*
X1410143Y2539001D01*
X1412201Y2559245D01*
X1410143Y2579489D01*
X1404051Y2598904D01*
X1394176Y2616695D01*
X1386485Y2625887D01*
X1386485Y2625888D01*
X1236929Y2775444D01*
X1236928Y2775444D01*
X1236928Y2775444D01*
X1227736Y2783135D01*
X1227736Y2783135D01*
X1227736Y2783135D01*
X1209945Y2793010D01*
X1209944Y2793011D01*
X1190530Y2799102D01*
X1190530Y2799102D01*
X1170286Y2801160D01*
X1150042Y2799102D01*
X1130628Y2793011D01*
X1130626Y2793010D01*
X1112836Y2783136D01*
X1112835Y2783135D01*
X1103644Y2775445D01*
X901103Y2572903D01*
X893412Y2563712D01*
X883537Y2545921D01*
X883537Y2545920D01*
X877446Y2526505D01*
X875387Y2506262D01*
X10050Y2506262D01*
X10050Y3107302D01*
X274346Y3107302D01*
X276405Y3087059D01*
X279830Y3076143D01*
X282497Y3067644D01*
X292372Y3049852D01*
X300063Y3040660D01*
X300063Y3040660D01*
X300063Y3040660D01*
X449619Y2891104D01*
X449619Y2891104D01*
X449619Y2891103D01*
X449620Y2891103D01*
X458812Y2883412D01*
X476602Y2873538D01*
X476602Y2873538D01*
X476603Y2873537D01*
X496018Y2867446D01*
X496018Y2867446D01*
X498076Y2867236D01*
X516262Y2865387D01*
X536506Y2867446D01*
X555920Y2873537D01*
X573712Y2883412D01*
X582904Y2891103D01*
X785444Y3093644D01*
X793135Y3102836D01*
X803010Y3120627D01*
X809102Y3140042D01*
X811160Y3160286D01*
X809102Y3180530D01*
X803010Y3199945D01*
X793135Y3217736D01*
X785444Y3226928D01*
X748907Y3263465D01*
X635888Y3376484D01*
X635888Y3376485D01*
X635887Y3376485D01*
X626695Y3384176D01*
X626695Y3384176D01*
X626695Y3384176D01*
X608905Y3394051D01*
X608903Y3394051D01*
X589489Y3400143D01*
X589489Y3400143D01*
X569245Y3402201D01*
X549001Y3400143D01*
X529587Y3394051D01*
X529586Y3394051D01*
X511795Y3384176D01*
X511794Y3384176D01*
X502604Y3376486D01*
X300062Y3173944D01*
X292372Y3164753D01*
X282497Y3146962D01*
X282496Y3146961D01*
X276405Y3127546D01*
X274346Y3107302D01*
X10050Y3107302D01*
X10050Y4003418D01*
X12071Y4017477D01*
X17971Y4030396D01*
X27272Y4041130D01*
X39221Y4048809D01*
X52848Y4052811D01*
X67052Y4052811D01*
X80679Y4048809D01*
X92628Y4041130D01*
X101929Y4030396D01*
X105383Y4024055D01*
X106299Y4022037D01*
X119118Y4003535D01*
X119119Y4003534D01*
X135034Y3987619D01*
X135035Y3987618D01*
X153538Y3974799D01*
X157301Y3973090D01*
X174032Y3965490D01*
X195859Y3959990D01*
X209078Y3958950D01*
X390922Y3958950D01*
X404141Y3959990D01*
X425968Y3965490D01*
X446463Y3974799D01*
X464965Y3987618D01*
X480882Y4003535D01*
X493701Y4022037D01*
X503010Y4042532D01*
X508510Y4064359D01*
X509550Y4077578D01*
X509550Y4214422D01*
X508510Y4227641D01*
X503010Y4249468D01*
X493701Y4269963D01*
X492662Y4271792D01*
X487482Y4285017D01*
X486238Y4299165D01*
X489030Y4313091D01*
X490069Y4315552D01*
X489995Y4315583D01*
X490620Y4317092D01*
X500003Y4339746D01*
X506349Y4363430D01*
X509550Y4387740D01*
X509550Y4412260D01*
X506349Y4436570D01*
X500003Y4460254D01*
X490620Y4482908D01*
X483451Y4495325D01*
X479568Y4502050D01*
X474289Y4515236D01*
X472939Y4529374D01*
X475627Y4543321D01*
X479568Y4551950D01*
X490620Y4571092D01*
X490620Y4571092D01*
X490620Y4571092D01*
X500003Y4593746D01*
X506349Y4617430D01*
X509550Y4641740D01*
X509550Y4666260D01*
X506349Y4690570D01*
X500003Y4714254D01*
X490620Y4736908D01*
X490619Y4736909D01*
X490619Y4736909D01*
X478361Y4758141D01*
X478361Y4758141D01*
X478360Y4758142D01*
X476311Y4760813D01*
X463433Y4777595D01*
X446095Y4794933D01*
X426643Y4809860D01*
X426643Y4809860D01*
X426642Y4809860D01*
X426642Y4809861D01*
X426641Y4809861D01*
X405408Y4822120D01*
X405408Y4822120D01*
X405408Y4822120D01*
X382754Y4831503D01*
X382754Y4831503D01*
X382754Y4831504D01*
X359070Y4837850D01*
X338147Y4840604D01*
X334760Y4841050D01*
X265240Y4841050D01*
X261853Y4840604D01*
X240930Y4837850D01*
X217246Y4831504D01*
X194591Y4822120D01*
X173359Y4809861D01*
X173357Y4809860D01*
X153905Y4794933D01*
X136567Y4777595D01*
X121640Y4758143D01*
X121639Y4758141D01*
X109380Y4736909D01*
X106052Y4728872D01*
X98804Y4716657D01*
X88409Y4706979D01*
X75708Y4700622D01*
X61731Y4698100D01*
X47609Y4699618D01*
X34488Y4705053D01*
X23428Y4713965D01*
X15328Y4725632D01*
X10843Y4739108D01*
X10050Y4747968D01*
X10050Y4975168D01*
X12071Y4989227D01*
X17971Y5002146D01*
X24665Y5010453D01*
X1006663Y5992450D01*
X1019221Y6005009D01*
X1030591Y6013520D01*
X1043899Y6018483D01*
X1058066Y6019497D01*
X1071944Y6016478D01*
G37*
%TD.AperFunction*%
%TA.AperFunction,NonConductor*%
G36*
X5268035Y6357884D02*
G01*
X5280883Y6351830D01*
X5288692Y6345460D01*
X5295935Y6338218D01*
X5304446Y6326848D01*
X5309410Y6313540D01*
X5310550Y6302933D01*
X5310550Y4987564D01*
X5308529Y4973506D01*
X5302629Y4960586D01*
X5295935Y4952280D01*
X4538321Y4194665D01*
X4526950Y4186154D01*
X4513643Y4181190D01*
X4503036Y4180050D01*
X4486507Y4180050D01*
X4474146Y4178187D01*
X4459823Y4176028D01*
X4443810Y4171089D01*
X4434036Y4168074D01*
X4434036Y4168074D01*
X4434035Y4168073D01*
X4409723Y4156365D01*
X4409722Y4156365D01*
X4387426Y4141163D01*
X4367644Y4122808D01*
X4350819Y4101711D01*
X4350818Y4101709D01*
X4337326Y4078340D01*
X4337326Y4078340D01*
X4327467Y4053220D01*
X4323353Y4035195D01*
X4321462Y4026910D01*
X4319701Y4003418D01*
X4319445Y4000000D01*
X4319445Y3998133D01*
X4319275Y3998133D01*
X4318457Y3986132D01*
X4313538Y3972808D01*
X4305064Y3961409D01*
X4304946Y3961291D01*
X3954615Y3610960D01*
X3954615Y3610959D01*
X3944724Y3597346D01*
X3943045Y3595035D01*
X3943045Y3595035D01*
X3934109Y3577498D01*
X3934109Y3577497D01*
X3932114Y3571357D01*
X3932114Y3571357D01*
X3928027Y3558778D01*
X3928026Y3558777D01*
X3924947Y3539337D01*
X3924947Y1655161D01*
X3928026Y1635720D01*
X3928027Y1635719D01*
X3934109Y1617001D01*
X3934109Y1616999D01*
X3942799Y1599944D01*
X3943045Y1599462D01*
X3954615Y1583538D01*
X3954615Y1583538D01*
X4669085Y869068D01*
X4677596Y857698D01*
X4682560Y844390D01*
X4683700Y833783D01*
X4683700Y637572D01*
X4681679Y623513D01*
X4675779Y610594D01*
X4674818Y609155D01*
X4673299Y606962D01*
X4663990Y586468D01*
X4663990Y586468D01*
X4661203Y575408D01*
X4655808Y562269D01*
X4646930Y551183D01*
X4635288Y543047D01*
X4621826Y538521D01*
X4607633Y537971D01*
X4593861Y541441D01*
X4581624Y548651D01*
X4577531Y552316D01*
X3416265Y1713582D01*
X3407754Y1724952D01*
X3402790Y1738260D01*
X3401650Y1748867D01*
X3401650Y3741972D01*
X3403671Y3756030D01*
X3409571Y3768950D01*
X3418872Y3779684D01*
X3430821Y3787362D01*
X3444448Y3791364D01*
X3458651Y3791364D01*
X3472279Y3787362D01*
X3484228Y3779684D01*
X3488935Y3774894D01*
X3488973Y3774929D01*
X3489721Y3774112D01*
X3639277Y3624556D01*
X3639277Y3624556D01*
X3639278Y3624556D01*
X3643491Y3621030D01*
X3648470Y3616865D01*
X3666260Y3606990D01*
X3666261Y3606990D01*
X3666261Y3606990D01*
X3685676Y3600898D01*
X3685676Y3600898D01*
X3687734Y3600689D01*
X3705920Y3598840D01*
X3726164Y3600898D01*
X3745579Y3606990D01*
X3763370Y3616865D01*
X3770810Y3623090D01*
X3772561Y3624555D01*
X3772561Y3624555D01*
X3772562Y3624556D01*
X3975102Y3827096D01*
X3982793Y3836288D01*
X3992668Y3854080D01*
X3998760Y3873494D01*
X4000819Y3893738D01*
X3998760Y3913982D01*
X3992668Y3933397D01*
X3982793Y3951188D01*
X3975102Y3960381D01*
X3940975Y3994508D01*
X3825546Y4109937D01*
X3825546Y4109937D01*
X3825545Y4109937D01*
X3822481Y4112501D01*
X3816353Y4117629D01*
X3798563Y4127503D01*
X3798562Y4127504D01*
X3779147Y4133595D01*
X3779147Y4133595D01*
X3758903Y4135654D01*
X3738660Y4133595D01*
X3719245Y4127504D01*
X3719244Y4127503D01*
X3701453Y4117629D01*
X3701452Y4117628D01*
X3692262Y4109938D01*
X3489720Y3907396D01*
X3488973Y3906580D01*
X3488876Y3906669D01*
X3479249Y3898031D01*
X3466433Y3891909D01*
X3452412Y3889645D01*
X3438320Y3891423D01*
X3425301Y3897099D01*
X3414408Y3906214D01*
X3406524Y3918028D01*
X3402288Y3931584D01*
X3401650Y3939538D01*
X3401650Y4093133D01*
X3403671Y4107192D01*
X3409571Y4120111D01*
X3416265Y4128418D01*
X4177382Y4889535D01*
X4188752Y4898046D01*
X4202060Y4903010D01*
X4212667Y4904150D01*
X4483809Y4904150D01*
X4497868Y4902129D01*
X4510787Y4896229D01*
X4519094Y4889535D01*
X4523425Y4885204D01*
X4523425Y4885203D01*
X4523426Y4885203D01*
X4545189Y4868911D01*
X4545189Y4868911D01*
X4569048Y4855883D01*
X4572666Y4854534D01*
X4594520Y4846383D01*
X4621084Y4840604D01*
X4648200Y4838665D01*
X4675316Y4840604D01*
X4701880Y4846383D01*
X4727351Y4855883D01*
X4751211Y4868911D01*
X4772974Y4885203D01*
X4792197Y4904426D01*
X4808489Y4926189D01*
X4821517Y4950049D01*
X4831018Y4975520D01*
X4836796Y5002084D01*
X4838736Y5029200D01*
X4836796Y5056316D01*
X4831018Y5082880D01*
X4823814Y5102193D01*
X4821517Y5108352D01*
X4808489Y5132211D01*
X4808489Y5132211D01*
X4792197Y5153974D01*
X4792197Y5153975D01*
X4792197Y5153975D01*
X4772975Y5173197D01*
X4772974Y5173197D01*
X4772974Y5173197D01*
X4751211Y5189489D01*
X4751211Y5189489D01*
X4727352Y5202517D01*
X4701880Y5212018D01*
X4675317Y5217796D01*
X4675316Y5217796D01*
X4675316Y5217796D01*
X4648200Y5219736D01*
X4621084Y5217796D01*
X4621084Y5217796D01*
X4621083Y5217796D01*
X4594520Y5212018D01*
X4569048Y5202517D01*
X4545189Y5189489D01*
X4523425Y5173197D01*
X4519094Y5168865D01*
X4507724Y5160354D01*
X4494416Y5155390D01*
X4483809Y5154250D01*
X4273268Y5154250D01*
X4259210Y5156271D01*
X4246290Y5162171D01*
X4235557Y5171472D01*
X4227878Y5183421D01*
X4223876Y5197049D01*
X4223876Y5211252D01*
X4227878Y5224879D01*
X4235557Y5236828D01*
X4237984Y5239435D01*
X4256870Y5258320D01*
X4256871Y5258321D01*
X4272831Y5279121D01*
X4285939Y5301826D01*
X4295972Y5326047D01*
X4299978Y5340997D01*
X4305569Y5354053D01*
X4314611Y5365005D01*
X4326374Y5372966D01*
X4335262Y5376281D01*
X4350211Y5380287D01*
X4374433Y5390320D01*
X4397138Y5403428D01*
X4417937Y5419388D01*
X4436476Y5437927D01*
X4452436Y5458726D01*
X4465544Y5481431D01*
X4475577Y5505653D01*
X4479583Y5520602D01*
X4485174Y5533658D01*
X4494217Y5544610D01*
X4505979Y5552571D01*
X4514866Y5555886D01*
X4529817Y5559892D01*
X4554038Y5569925D01*
X4576743Y5583033D01*
X4597543Y5598993D01*
X4616081Y5617532D01*
X4632041Y5638331D01*
X4645150Y5661036D01*
X4655182Y5685258D01*
X4659188Y5700207D01*
X4664779Y5713263D01*
X4673822Y5724215D01*
X4685584Y5732176D01*
X4694472Y5735491D01*
X4709422Y5739497D01*
X4733643Y5749530D01*
X4756348Y5762638D01*
X4777148Y5778598D01*
X4795686Y5797137D01*
X4811646Y5817936D01*
X4824755Y5840641D01*
X4834788Y5864863D01*
X4838793Y5879812D01*
X4844384Y5892868D01*
X4853427Y5903820D01*
X4865189Y5911781D01*
X4874077Y5915096D01*
X4889027Y5919102D01*
X4913248Y5929135D01*
X4935953Y5942244D01*
X4956753Y5958204D01*
X4975291Y5976742D01*
X4991251Y5997542D01*
X5004360Y6020246D01*
X5014393Y6044468D01*
X5018398Y6059418D01*
X5023989Y6072473D01*
X5033032Y6083425D01*
X5044794Y6091386D01*
X5053683Y6094702D01*
X5068632Y6098707D01*
X5092853Y6108740D01*
X5115558Y6121849D01*
X5136358Y6137809D01*
X5154896Y6156347D01*
X5170856Y6177147D01*
X5183965Y6199851D01*
X5193998Y6224073D01*
X5200783Y6249397D01*
X5204205Y6275390D01*
X5204205Y6301607D01*
X5203935Y6303663D01*
X5204104Y6317865D01*
X5208267Y6331444D01*
X5216087Y6343300D01*
X5226931Y6352472D01*
X5239920Y6358218D01*
X5254002Y6360072D01*
X5268035Y6357884D01*
G37*
%TD.AperFunction*%
%TA.AperFunction,NonConductor*%
G36*
X4294810Y473601D02*
G01*
X4307565Y467355D01*
X4314749Y461404D01*
X4394518Y381635D01*
X4403030Y370264D01*
X4407993Y356957D01*
X4409006Y342790D01*
X4405987Y328912D01*
X4399180Y316446D01*
X4389137Y306403D01*
X4376672Y299596D01*
X4362793Y296577D01*
X4359233Y296450D01*
X4199760Y296450D01*
X4185702Y298471D01*
X4172782Y304371D01*
X4162048Y313672D01*
X4154370Y325621D01*
X4150368Y339249D01*
X4150368Y353451D01*
X4154370Y367079D01*
X4162048Y379028D01*
X4164474Y381633D01*
X4242691Y459850D01*
X4242691Y459850D01*
X4243473Y460632D01*
X4243557Y460548D01*
X4253629Y468811D01*
X4266703Y474360D01*
X4280811Y476001D01*
X4294810Y473601D01*
G37*
%TD.AperFunction*%
%TA.AperFunction,NonConductor*%
G36*
X3693769Y1074642D02*
G01*
X3706524Y1068395D01*
X3713708Y1062445D01*
X3961404Y814749D01*
X3969915Y803379D01*
X3974879Y790071D01*
X3975892Y775904D01*
X3972873Y762026D01*
X3966066Y749560D01*
X3960590Y743516D01*
X3960632Y743473D01*
X3757308Y540150D01*
X3749618Y530959D01*
X3739743Y513167D01*
X3739743Y513167D01*
X3733651Y493752D01*
X3731593Y473508D01*
X3733651Y453265D01*
X3739555Y434447D01*
X3739743Y433849D01*
X3749618Y416058D01*
X3757309Y406866D01*
X3757309Y406866D01*
X3757310Y406865D01*
X3782540Y381635D01*
X3791052Y370264D01*
X3796015Y356957D01*
X3797029Y342790D01*
X3794010Y328912D01*
X3787203Y316446D01*
X3777160Y306403D01*
X3764694Y299596D01*
X3750816Y296577D01*
X3747256Y296450D01*
X3585563Y296450D01*
X3571505Y298471D01*
X3561712Y302944D01*
X3561584Y302698D01*
X3541306Y313291D01*
X3541305Y313291D01*
X3541305Y313291D01*
X3539972Y313672D01*
X3521742Y318889D01*
X3509804Y319950D01*
X3509803Y319950D01*
X3196197Y319950D01*
X3184258Y318889D01*
X3184258Y318889D01*
X3179677Y317578D01*
X3165605Y315654D01*
X3151561Y317772D01*
X3138682Y323761D01*
X3128013Y333136D01*
X3120417Y345138D01*
X3116510Y358792D01*
X3116050Y365552D01*
X3116050Y434447D01*
X3118071Y448506D01*
X3123971Y461425D01*
X3133272Y472159D01*
X3145221Y479838D01*
X3158848Y483840D01*
X3173051Y483840D01*
X3179677Y482422D01*
X3184258Y481111D01*
X3196196Y480050D01*
X3509804Y480050D01*
X3521742Y481111D01*
X3541305Y486709D01*
X3559341Y496130D01*
X3575111Y508989D01*
X3587970Y524759D01*
X3597391Y542795D01*
X3602989Y562358D01*
X3604050Y574296D01*
X3604050Y682904D01*
X3602989Y694842D01*
X3597391Y714405D01*
X3587970Y732441D01*
X3582751Y738841D01*
X3575111Y748211D01*
X3575111Y748211D01*
X3559341Y761070D01*
X3559341Y761070D01*
X3541306Y770490D01*
X3541305Y770491D01*
X3541305Y770491D01*
X3521742Y776089D01*
X3509804Y777150D01*
X3509803Y777150D01*
X3478379Y777150D01*
X3464320Y779171D01*
X3451401Y785071D01*
X3440667Y794372D01*
X3432988Y806321D01*
X3428987Y819948D01*
X3428987Y834151D01*
X3432988Y847779D01*
X3440667Y859728D01*
X3443094Y862335D01*
X3475569Y894810D01*
X3641650Y1060890D01*
X3641650Y1060891D01*
X3642432Y1061673D01*
X3642516Y1061589D01*
X3652588Y1069852D01*
X3665662Y1075401D01*
X3679770Y1077042D01*
X3693769Y1074642D01*
G37*
%TD.AperFunction*%
%TA.AperFunction,NonConductor*%
G36*
X5631279Y6350059D02*
G01*
X5643228Y6342380D01*
X5645835Y6339953D01*
X6975335Y5010453D01*
X6983846Y4999083D01*
X6988810Y4985775D01*
X6989950Y4975168D01*
X6989950Y2024832D01*
X6987929Y2010774D01*
X6982029Y1997854D01*
X6975335Y1989547D01*
X6741772Y1755985D01*
X6730401Y1747473D01*
X6717094Y1742510D01*
X6702927Y1741496D01*
X6689049Y1744515D01*
X6676583Y1751322D01*
X6666540Y1761365D01*
X6659733Y1773831D01*
X6656714Y1787709D01*
X6657727Y1801876D01*
X6658286Y1804180D01*
X6658970Y1806730D01*
X6662170Y1831040D01*
X6662170Y1855560D01*
X6658970Y1879870D01*
X6652623Y1903555D01*
X6643240Y1926208D01*
X6630980Y1947443D01*
X6622858Y1958028D01*
X6616054Y1966895D01*
X6616053Y1966896D01*
X6566896Y2016053D01*
X6566895Y2016054D01*
X6547442Y2030980D01*
X6526208Y2043240D01*
X6503554Y2052623D01*
X6479871Y2058969D01*
X6479869Y2058970D01*
X6455560Y2062170D01*
X6431040Y2062170D01*
X6406731Y2058970D01*
X6406730Y2058969D01*
X6383046Y2052623D01*
X6360393Y2043240D01*
X6339158Y2030980D01*
X6319706Y2016054D01*
X6319704Y2016053D01*
X6302367Y1998716D01*
X6302366Y1998715D01*
X6287440Y1979262D01*
X6275180Y1958028D01*
X6265797Y1935375D01*
X6260076Y1914024D01*
X6254485Y1900967D01*
X6245442Y1890015D01*
X6233680Y1882054D01*
X6224791Y1878739D01*
X6203441Y1873018D01*
X6180788Y1863635D01*
X6159553Y1851375D01*
X6140101Y1836449D01*
X6140099Y1836448D01*
X6122762Y1819111D01*
X6122761Y1819110D01*
X6107835Y1799657D01*
X6095575Y1778423D01*
X6086192Y1755769D01*
X6080471Y1734419D01*
X6074880Y1721362D01*
X6065837Y1710410D01*
X6054075Y1702449D01*
X6045186Y1699134D01*
X6023836Y1693413D01*
X6001182Y1684030D01*
X5979948Y1671770D01*
X5960495Y1656844D01*
X5960494Y1656843D01*
X5943157Y1639506D01*
X5943156Y1639504D01*
X5928230Y1620052D01*
X5915970Y1598817D01*
X5906587Y1576164D01*
X5900866Y1554814D01*
X5895275Y1541757D01*
X5886232Y1530805D01*
X5874470Y1522844D01*
X5865581Y1519529D01*
X5844230Y1513808D01*
X5821577Y1504425D01*
X5800343Y1492165D01*
X5780890Y1477239D01*
X5780889Y1477238D01*
X5763552Y1459901D01*
X5763551Y1459899D01*
X5748625Y1440447D01*
X5736365Y1419212D01*
X5726982Y1396559D01*
X5721261Y1375208D01*
X5715670Y1362152D01*
X5706627Y1351200D01*
X5694865Y1343239D01*
X5685976Y1339924D01*
X5664625Y1334203D01*
X5641972Y1324820D01*
X5620738Y1312560D01*
X5601285Y1297634D01*
X5601284Y1297633D01*
X5583947Y1280295D01*
X5583946Y1280294D01*
X5569019Y1260842D01*
X5556760Y1239607D01*
X5547377Y1216954D01*
X5541656Y1195603D01*
X5536065Y1182547D01*
X5527022Y1171595D01*
X5515259Y1163634D01*
X5506371Y1160319D01*
X5485020Y1154598D01*
X5462367Y1145215D01*
X5441133Y1132955D01*
X5421680Y1118029D01*
X5421679Y1118028D01*
X5404342Y1100690D01*
X5404341Y1100689D01*
X5389414Y1081237D01*
X5377155Y1060002D01*
X5367146Y1035839D01*
X5366829Y1035971D01*
X5361796Y1026099D01*
X5352040Y1015776D01*
X5339772Y1008620D01*
X5334296Y1006761D01*
X5332268Y1006202D01*
X5311193Y998292D01*
X5311193Y998292D01*
X5291871Y986748D01*
X5291870Y986747D01*
X5281787Y978136D01*
X5281786Y978134D01*
X5185025Y881374D01*
X5185023Y881371D01*
X5176412Y871289D01*
X5164867Y851966D01*
X5156958Y830892D01*
X5156958Y830892D01*
X5156958Y830892D01*
X5152938Y808744D01*
X5152938Y786235D01*
X5156289Y767771D01*
X5156958Y764087D01*
X5156958Y764086D01*
X5164867Y743013D01*
X5164867Y743013D01*
X5176411Y723691D01*
X5176412Y723690D01*
X5176412Y723690D01*
X5185024Y713606D01*
X5185025Y713606D01*
X5185025Y713605D01*
X5313605Y585025D01*
X5313608Y585023D01*
X5323690Y576412D01*
X5343013Y564867D01*
X5364087Y556958D01*
X5386235Y552938D01*
X5386235Y552938D01*
X5408744Y552938D01*
X5408744Y552938D01*
X5410460Y553250D01*
X5424653Y553771D01*
X5438418Y550273D01*
X5450640Y543038D01*
X5460329Y532653D01*
X5466700Y519959D01*
X5469236Y505984D01*
X5467732Y491861D01*
X5462311Y478733D01*
X5454654Y468867D01*
X5227735Y241947D01*
X5216364Y233436D01*
X5203057Y228472D01*
X5188890Y227459D01*
X5175012Y230478D01*
X5162546Y237285D01*
X5152503Y247328D01*
X5145696Y259794D01*
X5142677Y273672D01*
X5142550Y277230D01*
X5142550Y351422D01*
X5141510Y364641D01*
X5136010Y386468D01*
X5136009Y386469D01*
X5135672Y387807D01*
X5134197Y401933D01*
X5135672Y412193D01*
X5136646Y416058D01*
X5141510Y435359D01*
X5142550Y448578D01*
X5142550Y551422D01*
X5141510Y564641D01*
X5136010Y586468D01*
X5129886Y599950D01*
X5126701Y606963D01*
X5113882Y625465D01*
X5113881Y625466D01*
X5097966Y641381D01*
X5097965Y641382D01*
X5079462Y654201D01*
X5065800Y660407D01*
X5058968Y663510D01*
X5037141Y669010D01*
X5023922Y670050D01*
X5023922Y670050D01*
X4983700Y670050D01*
X4969642Y672071D01*
X4956722Y677971D01*
X4945988Y687272D01*
X4938309Y699221D01*
X4934308Y712848D01*
X4933800Y719950D01*
X4933800Y916092D01*
X4933246Y919587D01*
X4930721Y935533D01*
X4929975Y937830D01*
X4924638Y954253D01*
X4915702Y971790D01*
X4914894Y972903D01*
X4904133Y987715D01*
X4189663Y1702185D01*
X4181151Y1713555D01*
X4176188Y1726862D01*
X4175047Y1737469D01*
X4175047Y2972386D01*
X4177069Y2986445D01*
X4182969Y2999364D01*
X4192270Y3010098D01*
X4204218Y3017777D01*
X4217846Y3021778D01*
X4232049Y3021778D01*
X4245677Y3017777D01*
X4249164Y3016016D01*
X4267301Y3005949D01*
X4267301Y3005949D01*
X4267302Y3005949D01*
X4286717Y2999857D01*
X4286717Y2999857D01*
X4288775Y2999648D01*
X4306961Y2997799D01*
X4327205Y2999857D01*
X4346619Y3005949D01*
X4364411Y3015824D01*
X4373603Y3023515D01*
X4576143Y3226055D01*
X4583834Y3235247D01*
X4593709Y3253039D01*
X4593709Y3253039D01*
X4594090Y3253725D01*
X4602680Y3265036D01*
X4614109Y3273469D01*
X4627450Y3278340D01*
X4641624Y3279255D01*
X4655481Y3276140D01*
X4667899Y3269247D01*
X4673005Y3264793D01*
X4953449Y2984348D01*
X4972557Y2970466D01*
X4972557Y2970466D01*
X4972558Y2970465D01*
X4982616Y2965340D01*
X4993601Y2959743D01*
X5001287Y2957246D01*
X5016063Y2952445D01*
X5016063Y2952445D01*
X5016063Y2952445D01*
X5029309Y2950347D01*
X5039391Y2948750D01*
X5039391Y2948750D01*
X5063009Y2948750D01*
X5937303Y2948750D01*
X5951362Y2946729D01*
X5964281Y2940829D01*
X5967206Y2938798D01*
X5967589Y2938511D01*
X5967589Y2938511D01*
X5967589Y2938511D01*
X5991448Y2925483D01*
X5991449Y2925483D01*
X6016920Y2915982D01*
X6036624Y2911696D01*
X6049931Y2906733D01*
X6061301Y2898221D01*
X6069813Y2886851D01*
X6074776Y2873544D01*
X6075789Y2859377D01*
X6073628Y2847998D01*
X6067104Y2827204D01*
X6065045Y2806961D01*
X6067104Y2786717D01*
X6070641Y2775444D01*
X6073195Y2767302D01*
X6083071Y2749511D01*
X6090761Y2740318D01*
X6090762Y2740318D01*
X6090762Y2740318D01*
X6240318Y2590762D01*
X6240318Y2590762D01*
X6240318Y2590762D01*
X6240319Y2590761D01*
X6249511Y2583071D01*
X6267301Y2573196D01*
X6267301Y2573196D01*
X6267302Y2573196D01*
X6286717Y2567104D01*
X6286717Y2567104D01*
X6288775Y2566895D01*
X6306961Y2565045D01*
X6327204Y2567104D01*
X6346619Y2573196D01*
X6364411Y2583071D01*
X6373603Y2590762D01*
X6576143Y2793302D01*
X6583834Y2802494D01*
X6593709Y2820285D01*
X6599801Y2839700D01*
X6601859Y2859944D01*
X6599801Y2880188D01*
X6593709Y2899603D01*
X6583834Y2917394D01*
X6576143Y2926586D01*
X6542986Y2959743D01*
X6426587Y3076143D01*
X6426586Y3076143D01*
X6426586Y3076143D01*
X6417394Y3083834D01*
X6417394Y3083834D01*
X6417394Y3083834D01*
X6399604Y3093709D01*
X6399602Y3093709D01*
X6380188Y3099801D01*
X6380188Y3099801D01*
X6359944Y3101859D01*
X6339700Y3099801D01*
X6321750Y3094169D01*
X6307731Y3091889D01*
X6293638Y3093651D01*
X6280612Y3099312D01*
X6269708Y3108414D01*
X6261811Y3120219D01*
X6258052Y3131173D01*
X6253417Y3152480D01*
X6252706Y3154386D01*
X6249687Y3168265D01*
X6250700Y3182432D01*
X6255664Y3195739D01*
X6264175Y3207109D01*
X6275545Y3215621D01*
X6288853Y3220585D01*
X6303019Y3221598D01*
X6311652Y3220213D01*
X6322059Y3217590D01*
X6335278Y3216550D01*
X6517122Y3216550D01*
X6530341Y3217590D01*
X6552168Y3223090D01*
X6572663Y3232399D01*
X6591165Y3245218D01*
X6607082Y3261135D01*
X6619901Y3279637D01*
X6629210Y3300132D01*
X6634710Y3321959D01*
X6635750Y3335178D01*
X6635750Y3472022D01*
X6634710Y3485241D01*
X6629210Y3507068D01*
X6619901Y3527563D01*
X6618862Y3529392D01*
X6613682Y3542617D01*
X6612438Y3556765D01*
X6615230Y3570691D01*
X6616269Y3573152D01*
X6616195Y3573183D01*
X6617982Y3577498D01*
X6626203Y3597346D01*
X6632549Y3621030D01*
X6635750Y3645340D01*
X6635750Y3669860D01*
X6632549Y3694170D01*
X6626203Y3717854D01*
X6616820Y3740508D01*
X6616819Y3740508D01*
X6605768Y3759650D01*
X6600489Y3772835D01*
X6599139Y3786974D01*
X6601827Y3800921D01*
X6605768Y3809550D01*
X6615898Y3827096D01*
X6616820Y3828692D01*
X6626203Y3851346D01*
X6632549Y3875030D01*
X6635750Y3899340D01*
X6635750Y3923860D01*
X6632549Y3948170D01*
X6626203Y3971854D01*
X6616820Y3994508D01*
X6616819Y3994508D01*
X6605768Y4013650D01*
X6600489Y4026835D01*
X6599139Y4040974D01*
X6601827Y4054921D01*
X6605768Y4063550D01*
X6616820Y4082692D01*
X6616820Y4082692D01*
X6616820Y4082692D01*
X6626203Y4105346D01*
X6632549Y4129030D01*
X6635750Y4153340D01*
X6635750Y4177860D01*
X6632549Y4202170D01*
X6626203Y4225854D01*
X6616820Y4248508D01*
X6616820Y4248508D01*
X6616819Y4248509D01*
X6604561Y4269741D01*
X6604561Y4269741D01*
X6604560Y4269742D01*
X6604391Y4269963D01*
X6589633Y4289195D01*
X6572295Y4306533D01*
X6571276Y4307427D01*
X6562039Y4318216D01*
X6556216Y4331171D01*
X6554278Y4345241D01*
X6556383Y4359287D01*
X6562360Y4372171D01*
X6571725Y4382850D01*
X6582526Y4389902D01*
X6590277Y4393635D01*
X6612574Y4408837D01*
X6632356Y4427192D01*
X6649181Y4448290D01*
X6662674Y4471660D01*
X6672533Y4496781D01*
X6678538Y4523090D01*
X6680555Y4550000D01*
X6678538Y4576910D01*
X6672533Y4603220D01*
X6671462Y4605949D01*
X6662674Y4628340D01*
X6662674Y4628340D01*
X6649182Y4651710D01*
X6649181Y4651710D01*
X6647252Y4654130D01*
X6632356Y4672808D01*
X6632356Y4672809D01*
X6615530Y4688421D01*
X6606599Y4699465D01*
X6601142Y4712577D01*
X6599599Y4726696D01*
X6602098Y4740678D01*
X6608433Y4753389D01*
X6615530Y4761579D01*
X6632356Y4777192D01*
X6649181Y4798290D01*
X6662674Y4821660D01*
X6672533Y4846781D01*
X6678538Y4873090D01*
X6680555Y4900000D01*
X6678538Y4926910D01*
X6672533Y4953220D01*
X6671560Y4955700D01*
X6662674Y4978340D01*
X6662674Y4978340D01*
X6654825Y4991936D01*
X6649181Y5001710D01*
X6648951Y5001999D01*
X6632356Y5022808D01*
X6625622Y5029056D01*
X6612574Y5041164D01*
X6590277Y5056365D01*
X6581943Y5060379D01*
X6565965Y5068074D01*
X6565965Y5068074D01*
X6565964Y5068074D01*
X6565964Y5068074D01*
X6540177Y5076028D01*
X6540177Y5076028D01*
X6540177Y5076028D01*
X6529580Y5077625D01*
X6513493Y5080050D01*
X6486507Y5080050D01*
X6474146Y5078187D01*
X6459823Y5076028D01*
X6443810Y5071089D01*
X6434036Y5068074D01*
X6434035Y5068074D01*
X6415469Y5059132D01*
X6401925Y5054854D01*
X6387725Y5054564D01*
X6374019Y5058287D01*
X6361916Y5065720D01*
X6352398Y5076262D01*
X6346236Y5089059D01*
X6343928Y5103073D01*
X6344345Y5110603D01*
X6347212Y5132383D01*
X6347212Y5158600D01*
X6343790Y5184593D01*
X6337005Y5209917D01*
X6326972Y5234139D01*
X6313863Y5256844D01*
X6297903Y5277643D01*
X6226381Y5349165D01*
X6226381Y5349165D01*
X6226380Y5349166D01*
X6205582Y5365125D01*
X6205582Y5365125D01*
X6182876Y5378234D01*
X6158655Y5388267D01*
X6133331Y5395052D01*
X6107338Y5398474D01*
X6107338Y5398474D01*
X6081121Y5398474D01*
X6081121Y5398474D01*
X6055128Y5395052D01*
X6029804Y5388267D01*
X6005583Y5378234D01*
X5982878Y5365125D01*
X5982877Y5365125D01*
X5962079Y5349166D01*
X5962078Y5349165D01*
X5943540Y5330627D01*
X5943539Y5330626D01*
X5927580Y5309828D01*
X5927580Y5309827D01*
X5914471Y5287122D01*
X5904438Y5262901D01*
X5904438Y5262900D01*
X5900432Y5247951D01*
X5894841Y5234895D01*
X5885798Y5223943D01*
X5874036Y5215982D01*
X5865148Y5212667D01*
X5850199Y5208662D01*
X5850199Y5208662D01*
X5825978Y5198629D01*
X5803273Y5185520D01*
X5803272Y5185520D01*
X5782474Y5169561D01*
X5782473Y5169559D01*
X5763935Y5151022D01*
X5763934Y5151021D01*
X5747975Y5130223D01*
X5747975Y5130222D01*
X5734866Y5107517D01*
X5724833Y5083295D01*
X5724833Y5083295D01*
X5720827Y5068346D01*
X5715236Y5055290D01*
X5706193Y5044338D01*
X5694431Y5036377D01*
X5685543Y5033062D01*
X5670594Y5029057D01*
X5670594Y5029056D01*
X5646372Y5019024D01*
X5635500Y5012746D01*
X5622314Y5007468D01*
X5608175Y5006118D01*
X5594229Y5008806D01*
X5581605Y5015314D01*
X5571326Y5025115D01*
X5564224Y5037415D01*
X5560876Y5051218D01*
X5560650Y5055961D01*
X5560650Y6304668D01*
X5562671Y6318726D01*
X5568571Y6331646D01*
X5577872Y6342380D01*
X5589821Y6350059D01*
X5603448Y6354060D01*
X5617651Y6354060D01*
X5631279Y6350059D01*
G37*
%TD.AperFunction*%
%TA.AperFunction,NonConductor*%
G36*
X1885521Y258628D02*
G01*
X1890333Y257326D01*
X1901663Y253645D01*
X1924991Y249950D01*
X1948609Y249950D01*
X2234050Y249950D01*
X2248109Y247929D01*
X2261028Y242029D01*
X2271762Y232728D01*
X2279441Y220779D01*
X2283442Y207151D01*
X2283950Y200050D01*
X2283950Y110696D01*
X2285011Y98758D01*
X2290609Y79195D01*
X2290903Y78460D01*
X2294241Y64655D01*
X2293554Y50468D01*
X2288898Y37050D01*
X2280651Y25487D01*
X2269479Y16716D01*
X2256290Y11447D01*
X2244563Y10050D01*
X2024832Y10050D01*
X2010774Y12071D01*
X1997854Y17971D01*
X1989547Y24665D01*
X1839629Y174584D01*
X1831118Y185954D01*
X1826154Y199261D01*
X1825141Y213428D01*
X1828160Y227306D01*
X1834967Y239772D01*
X1845010Y249815D01*
X1857476Y256622D01*
X1871354Y259641D01*
X1885521Y258628D01*
G37*
%TD.AperFunction*%
D34*
X7000000Y5000000D02*
X7000000Y2000000D01*
X5000000Y0D01*
X2000000Y0D01*
X0Y2000000D01*
X0Y5000000D01*
X2000000Y7000000D01*
X5000000Y7000000D01*
X7000000Y5000000D01*
M02*
