M48
; DRILL file {KiCad 8.0.1} date 2024-05-24T22:02:13-0400
; FORMAT={-:-/ absolute / metric / decimal}
; #@! TF.CreationDate,2024-05-24T22:02:13-04:00
; #@! TF.GenerationSoftware,Kicad,Pcbnew,8.0.1
; #@! TF.FileFunction,Plated,1,2,PTH
FMAT,2
METRIC
; #@! TA.AperFunction,Plated,PTH,ViaDrill
T1C0.800
; #@! TA.AperFunction,Plated,PTH,ComponentDrill
T2C0.800
; #@! TA.AperFunction,Plated,PTH,ComponentDrill
T3C1.000
; #@! TA.AperFunction,Plated,PTH,ComponentDrill
T4C1.190
; #@! TA.AperFunction,Plated,PTH,ComponentDrill
T5C1.200
; #@! TA.AperFunction,Plated,PTH,ComponentDrill
T6C1.300
%
G90
G05
T1
X27.432Y60.706
X46.482Y50.292
X60.706Y30.988
T2
X35.0Y60.0
X35.0Y56.5
X45.0Y40.0
X45.0Y36.5
X65.0Y49.0
X65.0Y45.5
T3
X5.428Y31.338
X11.438Y25.328
X13.99Y15.338
X20.0Y9.328
X28.762Y54.672
X33.99Y11.01
X34.772Y48.662
X37.324Y38.672
X40.0Y5.0
X43.335Y32.662
X57.324Y34.345
X63.335Y28.335
T4
X3.0Y46.54
X3.0Y44.0
X3.0Y41.46
X4.204Y20.796
X6.0Y19.0
X29.0Y67.0
X31.54Y67.0
X37.19Y66.98
X39.73Y66.98
X42.27Y66.98
X44.81Y66.98
X53.816Y7.816
X55.612Y9.612
X57.408Y11.408
X59.204Y13.204
X61.0Y15.0
X62.796Y16.796
X64.262Y41.656
X64.262Y39.116
X64.262Y36.576
X64.262Y34.036
X64.592Y18.592
T5
X39.001Y52.374
X40.797Y54.17
X42.593Y55.966
X44.389Y57.762
X46.185Y59.558
X47.981Y61.354
X49.777Y63.15
X50.431Y40.944
X52.227Y42.74
X54.023Y44.536
X55.819Y46.332
X57.615Y48.128
X59.411Y49.924
X61.207Y51.72
T6
X8.879Y50.586
X12.414Y54.121
M30
